# ParkParkReindeerHub — ParkPark original fairground mesh
mtllib ParkParkFairground.mtl
o ParkParkReindeerHub
v 6.80000 0.00000 0.00000
v 6.80000 0.50000 0.00000
v 6.71628 0.00000 1.06375
v 6.71628 0.50000 1.06375
v 6.46718 0.00000 2.10132
v 6.46718 0.50000 2.10132
v 6.05884 0.00000 3.08714
v 6.05884 0.50000 3.08714
v 5.50132 0.00000 3.99694
v 5.50132 0.50000 3.99694
v 4.80833 0.00000 4.80833
v 4.80833 0.50000 4.80833
v 3.99694 0.00000 5.50132
v 3.99694 0.50000 5.50132
v 3.08714 0.00000 6.05884
v 3.08714 0.50000 6.05884
v 2.10132 0.00000 6.46718
v 2.10132 0.50000 6.46718
v 1.06375 0.00000 6.71628
v 1.06375 0.50000 6.71628
v 0.00000 0.00000 6.80000
v 0.00000 0.50000 6.80000
v -1.06375 0.00000 6.71628
v -1.06375 0.50000 6.71628
v -2.10132 0.00000 6.46718
v -2.10132 0.50000 6.46718
v -3.08714 0.00000 6.05884
v -3.08714 0.50000 6.05884
v -3.99694 0.00000 5.50132
v -3.99694 0.50000 5.50132
v -4.80833 0.00000 4.80833
v -4.80833 0.50000 4.80833
v -5.50132 0.00000 3.99694
v -5.50132 0.50000 3.99694
v -6.05884 0.00000 3.08714
v -6.05884 0.50000 3.08714
v -6.46718 0.00000 2.10132
v -6.46718 0.50000 2.10132
v -6.71628 0.00000 1.06375
v -6.71628 0.50000 1.06375
v -6.80000 0.00000 0.00000
v -6.80000 0.50000 0.00000
v -6.71628 0.00000 -1.06375
v -6.71628 0.50000 -1.06375
v -6.46718 0.00000 -2.10132
v -6.46718 0.50000 -2.10132
v -6.05884 0.00000 -3.08714
v -6.05884 0.50000 -3.08714
v -5.50132 0.00000 -3.99694
v -5.50132 0.50000 -3.99694
v -4.80833 0.00000 -4.80833
v -4.80833 0.50000 -4.80833
v -3.99694 0.00000 -5.50132
v -3.99694 0.50000 -5.50132
v -3.08714 0.00000 -6.05884
v -3.08714 0.50000 -6.05884
v -2.10132 0.00000 -6.46718
v -2.10132 0.50000 -6.46718
v -1.06375 0.00000 -6.71628
v -1.06375 0.50000 -6.71628
v -0.00000 0.00000 -6.80000
v -0.00000 0.50000 -6.80000
v 1.06375 0.00000 -6.71628
v 1.06375 0.50000 -6.71628
v 2.10132 0.00000 -6.46718
v 2.10132 0.50000 -6.46718
v 3.08714 0.00000 -6.05884
v 3.08714 0.50000 -6.05884
v 3.99694 0.00000 -5.50132
v 3.99694 0.50000 -5.50132
v 4.80833 0.00000 -4.80833
v 4.80833 0.50000 -4.80833
v 5.50132 0.00000 -3.99694
v 5.50132 0.50000 -3.99694
v 6.05884 0.00000 -3.08714
v 6.05884 0.50000 -3.08714
v 6.46718 0.00000 -2.10132
v 6.46718 0.50000 -2.10132
v 6.71628 0.00000 -1.06375
v 6.71628 0.50000 -1.06375
v 0.00000 0.00000 0.00000
v 0.00000 0.50000 0.00000
v 6.50000 0.50000 0.00000
v 6.50000 0.74000 0.00000
v 6.41997 0.50000 1.01682
v 6.41997 0.74000 1.01682
v 6.18187 0.50000 2.00861
v 6.18187 0.74000 2.00861
v 5.79154 0.50000 2.95094
v 5.79154 0.74000 2.95094
v 5.25861 0.50000 3.82060
v 5.25861 0.74000 3.82060
v 4.59619 0.50000 4.59619
v 4.59619 0.74000 4.59619
v 3.82060 0.50000 5.25861
v 3.82060 0.74000 5.25861
v 2.95094 0.50000 5.79154
v 2.95094 0.74000 5.79154
v 2.00861 0.50000 6.18187
v 2.00861 0.74000 6.18187
v 1.01682 0.50000 6.41997
v 1.01682 0.74000 6.41997
v 0.00000 0.50000 6.50000
v 0.00000 0.74000 6.50000
v -1.01682 0.50000 6.41997
v -1.01682 0.74000 6.41997
v -2.00861 0.50000 6.18187
v -2.00861 0.74000 6.18187
v -2.95094 0.50000 5.79154
v -2.95094 0.74000 5.79154
v -3.82060 0.50000 5.25861
v -3.82060 0.74000 5.25861
v -4.59619 0.50000 4.59619
v -4.59619 0.74000 4.59619
v -5.25861 0.50000 3.82060
v -5.25861 0.74000 3.82060
v -5.79154 0.50000 2.95094
v -5.79154 0.74000 2.95094
v -6.18187 0.50000 2.00861
v -6.18187 0.74000 2.00861
v -6.41997 0.50000 1.01682
v -6.41997 0.74000 1.01682
v -6.50000 0.50000 0.00000
v -6.50000 0.74000 0.00000
v -6.41997 0.50000 -1.01682
v -6.41997 0.74000 -1.01682
v -6.18187 0.50000 -2.00861
v -6.18187 0.74000 -2.00861
v -5.79154 0.50000 -2.95094
v -5.79154 0.74000 -2.95094
v -5.25861 0.50000 -3.82060
v -5.25861 0.74000 -3.82060
v -4.59619 0.50000 -4.59619
v -4.59619 0.74000 -4.59619
v -3.82060 0.50000 -5.25861
v -3.82060 0.74000 -5.25861
v -2.95094 0.50000 -5.79154
v -2.95094 0.74000 -5.79154
v -2.00861 0.50000 -6.18187
v -2.00861 0.74000 -6.18187
v -1.01682 0.50000 -6.41997
v -1.01682 0.74000 -6.41997
v -0.00000 0.50000 -6.50000
v -0.00000 0.74000 -6.50000
v 1.01682 0.50000 -6.41997
v 1.01682 0.74000 -6.41997
v 2.00861 0.50000 -6.18187
v 2.00861 0.74000 -6.18187
v 2.95094 0.50000 -5.79154
v 2.95094 0.74000 -5.79154
v 3.82060 0.50000 -5.25861
v 3.82060 0.74000 -5.25861
v 4.59619 0.50000 -4.59619
v 4.59619 0.74000 -4.59619
v 5.25861 0.50000 -3.82060
v 5.25861 0.74000 -3.82060
v 5.79154 0.50000 -2.95094
v 5.79154 0.74000 -2.95094
v 6.18187 0.50000 -2.00861
v 6.18187 0.74000 -2.00861
v 6.41997 0.50000 -1.01682
v 6.41997 0.74000 -1.01682
v 0.00000 0.50000 0.00000
v 0.00000 0.74000 0.00000
v 6.73000 0.76000 0.00000
v 6.66500 0.87258 0.00000
v 6.53500 0.87258 0.00000
v 6.47000 0.76000 0.00000
v 6.53500 0.64742 0.00000
v 6.66500 0.64742 0.00000
v 6.64714 0.76000 1.05280
v 6.58294 0.87258 1.04264
v 6.45454 0.87258 1.02230
v 6.39034 0.76000 1.01213
v 6.45454 0.64742 1.02230
v 6.58294 0.64742 1.04264
v 6.40061 0.76000 2.07968
v 6.33879 0.87258 2.05960
v 6.21515 0.87258 2.01943
v 6.15334 0.76000 1.99934
v 6.21515 0.64742 2.01943
v 6.33879 0.64742 2.05960
v 5.99647 0.76000 3.05536
v 5.93856 0.87258 3.02585
v 5.82273 0.87258 2.96683
v 5.76481 0.76000 2.93732
v 5.82273 0.64742 2.96683
v 5.93856 0.64742 3.02585
v 5.44468 0.76000 3.95579
v 5.39210 0.87258 3.91759
v 5.28693 0.87258 3.84118
v 5.23434 0.76000 3.80297
v 5.28693 0.64742 3.84118
v 5.39210 0.64742 3.91759
v 4.75883 0.76000 4.75883
v 4.71287 0.87258 4.71287
v 4.62094 0.87258 4.62094
v 4.57498 0.76000 4.57498
v 4.62094 0.64742 4.62094
v 4.71287 0.64742 4.71287
v 3.95579 0.76000 5.44468
v 3.91759 0.87258 5.39210
v 3.84118 0.87258 5.28693
v 3.80297 0.76000 5.23434
v 3.84118 0.64742 5.28693
v 3.91759 0.64742 5.39210
v 3.05536 0.76000 5.99647
v 3.02585 0.87258 5.93856
v 2.96683 0.87258 5.82273
v 2.93732 0.76000 5.76481
v 2.96683 0.64742 5.82273
v 3.02585 0.64742 5.93856
v 2.07968 0.76000 6.40061
v 2.05960 0.87258 6.33879
v 2.01943 0.87258 6.21515
v 1.99934 0.76000 6.15334
v 2.01943 0.64742 6.21515
v 2.05960 0.64742 6.33879
v 1.05280 0.76000 6.64714
v 1.04264 0.87258 6.58294
v 1.02230 0.87258 6.45454
v 1.01213 0.76000 6.39034
v 1.02230 0.64742 6.45454
v 1.04264 0.64742 6.58294
v 0.00000 0.76000 6.73000
v 0.00000 0.87258 6.66500
v 0.00000 0.87258 6.53500
v 0.00000 0.76000 6.47000
v 0.00000 0.64742 6.53500
v 0.00000 0.64742 6.66500
v -1.05280 0.76000 6.64714
v -1.04264 0.87258 6.58294
v -1.02230 0.87258 6.45454
v -1.01213 0.76000 6.39034
v -1.02230 0.64742 6.45454
v -1.04264 0.64742 6.58294
v -2.07968 0.76000 6.40061
v -2.05960 0.87258 6.33879
v -2.01943 0.87258 6.21515
v -1.99934 0.76000 6.15334
v -2.01943 0.64742 6.21515
v -2.05960 0.64742 6.33879
v -3.05536 0.76000 5.99647
v -3.02585 0.87258 5.93856
v -2.96683 0.87258 5.82273
v -2.93732 0.76000 5.76481
v -2.96683 0.64742 5.82273
v -3.02585 0.64742 5.93856
v -3.95579 0.76000 5.44468
v -3.91759 0.87258 5.39210
v -3.84118 0.87258 5.28693
v -3.80297 0.76000 5.23434
v -3.84118 0.64742 5.28693
v -3.91759 0.64742 5.39210
v -4.75883 0.76000 4.75883
v -4.71287 0.87258 4.71287
v -4.62094 0.87258 4.62094
v -4.57498 0.76000 4.57498
v -4.62094 0.64742 4.62094
v -4.71287 0.64742 4.71287
v -5.44468 0.76000 3.95579
v -5.39210 0.87258 3.91759
v -5.28693 0.87258 3.84118
v -5.23434 0.76000 3.80297
v -5.28693 0.64742 3.84118
v -5.39210 0.64742 3.91759
v -5.99647 0.76000 3.05536
v -5.93856 0.87258 3.02585
v -5.82273 0.87258 2.96683
v -5.76481 0.76000 2.93732
v -5.82273 0.64742 2.96683
v -5.93856 0.64742 3.02585
v -6.40061 0.76000 2.07968
v -6.33879 0.87258 2.05960
v -6.21515 0.87258 2.01943
v -6.15334 0.76000 1.99934
v -6.21515 0.64742 2.01943
v -6.33879 0.64742 2.05960
v -6.64714 0.76000 1.05280
v -6.58294 0.87258 1.04264
v -6.45454 0.87258 1.02230
v -6.39034 0.76000 1.01213
v -6.45454 0.64742 1.02230
v -6.58294 0.64742 1.04264
v -6.73000 0.76000 0.00000
v -6.66500 0.87258 0.00000
v -6.53500 0.87258 0.00000
v -6.47000 0.76000 0.00000
v -6.53500 0.64742 0.00000
v -6.66500 0.64742 0.00000
v -6.64714 0.76000 -1.05280
v -6.58294 0.87258 -1.04264
v -6.45454 0.87258 -1.02230
v -6.39034 0.76000 -1.01213
v -6.45454 0.64742 -1.02230
v -6.58294 0.64742 -1.04264
v -6.40061 0.76000 -2.07968
v -6.33879 0.87258 -2.05960
v -6.21515 0.87258 -2.01943
v -6.15334 0.76000 -1.99934
v -6.21515 0.64742 -2.01943
v -6.33879 0.64742 -2.05960
v -5.99647 0.76000 -3.05536
v -5.93856 0.87258 -3.02585
v -5.82273 0.87258 -2.96683
v -5.76481 0.76000 -2.93732
v -5.82273 0.64742 -2.96683
v -5.93856 0.64742 -3.02585
v -5.44468 0.76000 -3.95579
v -5.39210 0.87258 -3.91759
v -5.28693 0.87258 -3.84118
v -5.23434 0.76000 -3.80297
v -5.28693 0.64742 -3.84118
v -5.39210 0.64742 -3.91759
v -4.75883 0.76000 -4.75883
v -4.71287 0.87258 -4.71287
v -4.62094 0.87258 -4.62094
v -4.57498 0.76000 -4.57498
v -4.62094 0.64742 -4.62094
v -4.71287 0.64742 -4.71287
v -3.95579 0.76000 -5.44468
v -3.91759 0.87258 -5.39210
v -3.84118 0.87258 -5.28693
v -3.80297 0.76000 -5.23434
v -3.84118 0.64742 -5.28693
v -3.91759 0.64742 -5.39210
v -3.05536 0.76000 -5.99647
v -3.02585 0.87258 -5.93856
v -2.96683 0.87258 -5.82273
v -2.93732 0.76000 -5.76481
v -2.96683 0.64742 -5.82273
v -3.02585 0.64742 -5.93856
v -2.07968 0.76000 -6.40061
v -2.05960 0.87258 -6.33879
v -2.01943 0.87258 -6.21515
v -1.99934 0.76000 -6.15334
v -2.01943 0.64742 -6.21515
v -2.05960 0.64742 -6.33879
v -1.05280 0.76000 -6.64714
v -1.04264 0.87258 -6.58294
v -1.02230 0.87258 -6.45454
v -1.01213 0.76000 -6.39034
v -1.02230 0.64742 -6.45454
v -1.04264 0.64742 -6.58294
v -0.00000 0.76000 -6.73000
v -0.00000 0.87258 -6.66500
v -0.00000 0.87258 -6.53500
v -0.00000 0.76000 -6.47000
v -0.00000 0.64742 -6.53500
v -0.00000 0.64742 -6.66500
v 1.05280 0.76000 -6.64714
v 1.04264 0.87258 -6.58294
v 1.02230 0.87258 -6.45454
v 1.01213 0.76000 -6.39034
v 1.02230 0.64742 -6.45454
v 1.04264 0.64742 -6.58294
v 2.07968 0.76000 -6.40061
v 2.05960 0.87258 -6.33879
v 2.01943 0.87258 -6.21515
v 1.99934 0.76000 -6.15334
v 2.01943 0.64742 -6.21515
v 2.05960 0.64742 -6.33879
v 3.05536 0.76000 -5.99647
v 3.02585 0.87258 -5.93856
v 2.96683 0.87258 -5.82273
v 2.93732 0.76000 -5.76481
v 2.96683 0.64742 -5.82273
v 3.02585 0.64742 -5.93856
v 3.95579 0.76000 -5.44468
v 3.91759 0.87258 -5.39210
v 3.84118 0.87258 -5.28693
v 3.80297 0.76000 -5.23434
v 3.84118 0.64742 -5.28693
v 3.91759 0.64742 -5.39210
v 4.75883 0.76000 -4.75883
v 4.71287 0.87258 -4.71287
v 4.62094 0.87258 -4.62094
v 4.57498 0.76000 -4.57498
v 4.62094 0.64742 -4.62094
v 4.71287 0.64742 -4.71287
v 5.44468 0.76000 -3.95579
v 5.39210 0.87258 -3.91759
v 5.28693 0.87258 -3.84118
v 5.23434 0.76000 -3.80297
v 5.28693 0.64742 -3.84118
v 5.39210 0.64742 -3.91759
v 5.99647 0.76000 -3.05536
v 5.93856 0.87258 -3.02585
v 5.82273 0.87258 -2.96683
v 5.76481 0.76000 -2.93732
v 5.82273 0.64742 -2.96683
v 5.93856 0.64742 -3.02585
v 6.40061 0.76000 -2.07968
v 6.33879 0.87258 -2.05960
v 6.21515 0.87258 -2.01943
v 6.15334 0.76000 -1.99934
v 6.21515 0.64742 -2.01943
v 6.33879 0.64742 -2.05960
v 6.64714 0.76000 -1.05280
v 6.58294 0.87258 -1.04264
v 6.45454 0.87258 -1.02230
v 6.39034 0.76000 -1.01213
v 6.45454 0.64742 -1.02230
v 6.58294 0.64742 -1.04264
v 6.15195 0.73787 0.88168
v 6.05875 0.73787 1.10668
v 5.83375 0.73787 1.19988
v 5.60875 0.73787 1.10668
v 5.51555 0.73787 0.88168
v 5.60875 0.73787 0.65668
v 5.83375 0.73787 0.56349
v 6.05875 0.73787 0.65668
v 6.28375 0.95000 0.88168
v 6.15195 0.95000 1.19988
v 5.83375 0.95000 1.33168
v 5.51555 0.95000 1.19988
v 5.38375 0.95000 0.88168
v 5.51555 0.95000 0.56349
v 5.83375 0.95000 0.43168
v 6.15195 0.95000 0.56349
v 6.15195 1.16213 0.88168
v 6.05875 1.16213 1.10668
v 5.83375 1.16213 1.19988
v 5.60875 1.16213 1.10668
v 5.51555 1.16213 0.88168
v 5.60875 1.16213 0.65668
v 5.83375 1.16213 0.56349
v 6.05875 1.16213 0.65668
v 5.83375 0.65000 0.88168
v 5.83375 1.25000 0.88168
v 4.51956 0.73787 4.14229
v 4.42636 0.73787 4.36729
v 4.20136 0.73787 4.46049
v 3.97636 0.73787 4.36729
v 3.88316 0.73787 4.14229
v 3.97636 0.73787 3.91729
v 4.20136 0.73787 3.82409
v 4.42636 0.73787 3.91729
v 4.65136 0.95000 4.14229
v 4.51956 0.95000 4.46049
v 4.20136 0.95000 4.59229
v 3.88316 0.95000 4.46049
v 3.75136 0.95000 4.14229
v 3.88316 0.95000 3.82409
v 4.20136 0.95000 3.69229
v 4.51956 0.95000 3.82409
v 4.51956 1.16213 4.14229
v 4.42636 1.16213 4.36729
v 4.20136 1.16213 4.46049
v 3.97636 1.16213 4.36729
v 3.88316 1.16213 4.14229
v 3.97636 1.16213 3.91729
v 4.20136 1.16213 3.82409
v 4.42636 1.16213 3.91729
v 4.20136 0.65000 4.14229
v 4.20136 1.25000 4.14229
v 1.28239 0.73787 5.82068
v 1.18920 0.73787 6.04568
v 0.96420 0.73787 6.13888
v 0.73920 0.73787 6.04568
v 0.64600 0.73787 5.82068
v 0.73920 0.73787 5.59568
v 0.96420 0.73787 5.50248
v 1.18920 0.73787 5.59568
v 1.41420 0.95000 5.82068
v 1.28239 0.95000 6.13888
v 0.96420 0.95000 6.27068
v 0.64600 0.95000 6.13888
v 0.51420 0.95000 5.82068
v 0.64600 0.95000 5.50248
v 0.96420 0.95000 5.37068
v 1.28239 0.95000 5.50248
v 1.28239 1.16213 5.82068
v 1.18920 1.16213 6.04568
v 0.96420 1.16213 6.13888
v 0.73920 1.16213 6.04568
v 0.64600 1.16213 5.82068
v 0.73920 1.16213 5.59568
v 0.96420 1.16213 5.50248
v 1.18920 1.16213 5.59568
v 0.96420 0.65000 5.82068
v 0.96420 1.25000 5.82068
v -2.32306 0.73787 5.27577
v -2.41626 0.73787 5.50077
v -2.64126 0.73787 5.59397
v -2.86626 0.73787 5.50077
v -2.95946 0.73787 5.27577
v -2.86626 0.73787 5.05077
v -2.64126 0.73787 4.95757
v -2.41626 0.73787 5.05077
v -2.19126 0.95000 5.27577
v -2.32306 0.95000 5.59397
v -2.64126 0.95000 5.72577
v -2.95946 0.95000 5.59397
v -3.09126 0.95000 5.27577
v -2.95946 0.95000 4.95757
v -2.64126 0.95000 4.82577
v -2.32306 0.95000 4.95757
v -2.32306 1.16213 5.27577
v -2.41626 1.16213 5.50077
v -2.64126 1.16213 5.59397
v -2.86626 1.16213 5.50077
v -2.95946 1.16213 5.27577
v -2.86626 1.16213 5.05077
v -2.64126 1.16213 4.95757
v -2.41626 1.16213 5.05077
v -2.64126 0.65000 5.27577
v -2.64126 1.25000 5.27577
v -4.91965 0.73787 2.71569
v -5.01284 0.73787 2.94069
v -5.23784 0.73787 3.03389
v -5.46284 0.73787 2.94069
v -5.55604 0.73787 2.71569
v -5.46284 0.73787 2.49069
v -5.23784 0.73787 2.39750
v -5.01284 0.73787 2.49069
v -4.78784 0.95000 2.71569
v -4.91965 0.95000 3.03389
v -5.23784 0.95000 3.16569
v -5.55604 0.95000 3.03389
v -5.68784 0.95000 2.71569
v -5.55604 0.95000 2.39750
v -5.23784 0.95000 2.26569
v -4.91965 0.95000 2.39750
v -4.91965 1.16213 2.71569
v -5.01284 1.16213 2.94069
v -5.23784 1.16213 3.03389
v -5.46284 1.16213 2.94069
v -5.55604 1.16213 2.71569
v -5.46284 1.16213 2.49069
v -5.23784 1.16213 2.39750
v -5.01284 1.16213 2.49069
v -5.23784 0.65000 2.71569
v -5.23784 1.25000 2.71569
v -5.51555 0.73787 -0.88168
v -5.60875 0.73787 -0.65668
v -5.83375 0.73787 -0.56349
v -6.05875 0.73787 -0.65668
v -6.15195 0.73787 -0.88168
v -6.05875 0.73787 -1.10668
v -5.83375 0.73787 -1.19988
v -5.60875 0.73787 -1.10668
v -5.38375 0.95000 -0.88168
v -5.51555 0.95000 -0.56349
v -5.83375 0.95000 -0.43168
v -6.15195 0.95000 -0.56349
v -6.28375 0.95000 -0.88168
v -6.15195 0.95000 -1.19988
v -5.83375 0.95000 -1.33168
v -5.51555 0.95000 -1.19988
v -5.51555 1.16213 -0.88168
v -5.60875 1.16213 -0.65668
v -5.83375 1.16213 -0.56349
v -6.05875 1.16213 -0.65668
v -6.15195 1.16213 -0.88168
v -6.05875 1.16213 -1.10668
v -5.83375 1.16213 -1.19988
v -5.60875 1.16213 -1.10668
v -5.83375 0.65000 -0.88168
v -5.83375 1.25000 -0.88168
v -3.88316 0.73787 -4.14229
v -3.97636 0.73787 -3.91729
v -4.20136 0.73787 -3.82409
v -4.42636 0.73787 -3.91729
v -4.51956 0.73787 -4.14229
v -4.42636 0.73787 -4.36729
v -4.20136 0.73787 -4.46049
v -3.97636 0.73787 -4.36729
v -3.75136 0.95000 -4.14229
v -3.88316 0.95000 -3.82409
v -4.20136 0.95000 -3.69229
v -4.51956 0.95000 -3.82409
v -4.65136 0.95000 -4.14229
v -4.51956 0.95000 -4.46049
v -4.20136 0.95000 -4.59229
v -3.88316 0.95000 -4.46049
v -3.88316 1.16213 -4.14229
v -3.97636 1.16213 -3.91729
v -4.20136 1.16213 -3.82409
v -4.42636 1.16213 -3.91729
v -4.51956 1.16213 -4.14229
v -4.42636 1.16213 -4.36729
v -4.20136 1.16213 -4.46049
v -3.97636 1.16213 -4.36729
v -4.20136 0.65000 -4.14229
v -4.20136 1.25000 -4.14229
v -0.64600 0.73787 -5.82068
v -0.73920 0.73787 -5.59568
v -0.96420 0.73787 -5.50248
v -1.18920 0.73787 -5.59568
v -1.28239 0.73787 -5.82068
v -1.18920 0.73787 -6.04568
v -0.96420 0.73787 -6.13888
v -0.73920 0.73787 -6.04568
v -0.51420 0.95000 -5.82068
v -0.64600 0.95000 -5.50248
v -0.96420 0.95000 -5.37068
v -1.28239 0.95000 -5.50248
v -1.41420 0.95000 -5.82068
v -1.28239 0.95000 -6.13888
v -0.96420 0.95000 -6.27068
v -0.64600 0.95000 -6.13888
v -0.64600 1.16213 -5.82068
v -0.73920 1.16213 -5.59568
v -0.96420 1.16213 -5.50248
v -1.18920 1.16213 -5.59568
v -1.28239 1.16213 -5.82068
v -1.18920 1.16213 -6.04568
v -0.96420 1.16213 -6.13888
v -0.73920 1.16213 -6.04568
v -0.96420 0.65000 -5.82068
v -0.96420 1.25000 -5.82068
v 2.95946 0.73787 -5.27577
v 2.86626 0.73787 -5.05077
v 2.64126 0.73787 -4.95757
v 2.41626 0.73787 -5.05077
v 2.32306 0.73787 -5.27577
v 2.41626 0.73787 -5.50077
v 2.64126 0.73787 -5.59397
v 2.86626 0.73787 -5.50077
v 3.09126 0.95000 -5.27577
v 2.95946 0.95000 -4.95757
v 2.64126 0.95000 -4.82577
v 2.32306 0.95000 -4.95757
v 2.19126 0.95000 -5.27577
v 2.32306 0.95000 -5.59397
v 2.64126 0.95000 -5.72577
v 2.95946 0.95000 -5.59397
v 2.95946 1.16213 -5.27577
v 2.86626 1.16213 -5.05077
v 2.64126 1.16213 -4.95757
v 2.41626 1.16213 -5.05077
v 2.32306 1.16213 -5.27577
v 2.41626 1.16213 -5.50077
v 2.64126 1.16213 -5.59397
v 2.86626 1.16213 -5.50077
v 2.64126 0.65000 -5.27577
v 2.64126 1.25000 -5.27577
v 5.55604 0.73787 -2.71569
v 5.46284 0.73787 -2.49069
v 5.23784 0.73787 -2.39750
v 5.01284 0.73787 -2.49069
v 4.91965 0.73787 -2.71569
v 5.01284 0.73787 -2.94069
v 5.23784 0.73787 -3.03389
v 5.46284 0.73787 -2.94069
v 5.68784 0.95000 -2.71569
v 5.55604 0.95000 -2.39750
v 5.23784 0.95000 -2.26569
v 4.91965 0.95000 -2.39750
v 4.78784 0.95000 -2.71569
v 4.91965 0.95000 -3.03389
v 5.23784 0.95000 -3.16569
v 5.55604 0.95000 -3.03389
v 5.55604 1.16213 -2.71569
v 5.46284 1.16213 -2.49069
v 5.23784 1.16213 -2.39750
v 5.01284 1.16213 -2.49069
v 4.91965 1.16213 -2.71569
v 5.01284 1.16213 -2.94069
v 5.23784 1.16213 -3.03389
v 5.46284 1.16213 -2.94069
v 5.23784 0.65000 -2.71569
v 5.23784 1.25000 -2.71569
v 0.00000 0.70000 0.00000
v 0.00000 0.70000 0.00000
v 0.00000 0.70000 0.00000
v 0.00000 0.70000 0.00000
v 0.00000 0.70000 0.00000
v 0.00000 0.70000 0.00000
v 0.00000 0.70000 0.00000
v -0.00000 0.70000 0.00000
v -0.00000 0.70000 0.00000
v -0.00000 0.70000 0.00000
v -0.00000 0.70000 0.00000
v -0.00000 0.70000 0.00000
v -0.00000 0.70000 0.00000
v -0.00000 0.70000 -0.00000
v -0.00000 0.70000 -0.00000
v -0.00000 0.70000 -0.00000
v -0.00000 0.70000 -0.00000
v -0.00000 0.70000 -0.00000
v -0.00000 0.70000 -0.00000
v 0.00000 0.70000 -0.00000
v 0.00000 0.70000 -0.00000
v 0.00000 0.70000 -0.00000
v 0.00000 0.70000 -0.00000
v 0.00000 0.70000 -0.00000
v 1.00000 0.70000 0.00000
v 0.96593 0.70000 0.25882
v 0.86603 0.70000 0.50000
v 0.70711 0.70000 0.70711
v 0.50000 0.70000 0.86603
v 0.25882 0.70000 0.96593
v 0.00000 0.70000 1.00000
v -0.25882 0.70000 0.96593
v -0.50000 0.70000 0.86603
v -0.70711 0.70000 0.70711
v -0.86603 0.70000 0.50000
v -0.96593 0.70000 0.25882
v -1.00000 0.70000 0.00000
v -0.96593 0.70000 -0.25882
v -0.86603 0.70000 -0.50000
v -0.70711 0.70000 -0.70711
v -0.50000 0.70000 -0.86603
v -0.25882 0.70000 -0.96593
v -0.00000 0.70000 -1.00000
v 0.25882 0.70000 -0.96593
v 0.50000 0.70000 -0.86603
v 0.70711 0.70000 -0.70711
v 0.86603 0.70000 -0.50000
v 0.96593 0.70000 -0.25882
v 0.70000 1.20000 0.00000
v 0.67615 1.20000 0.18117
v 0.60622 1.20000 0.35000
v 0.49497 1.20000 0.49497
v 0.35000 1.20000 0.60622
v 0.18117 1.20000 0.67615
v 0.00000 1.20000 0.70000
v -0.18117 1.20000 0.67615
v -0.35000 1.20000 0.60622
v -0.49497 1.20000 0.49497
v -0.60622 1.20000 0.35000
v -0.67615 1.20000 0.18117
v -0.70000 1.20000 0.00000
v -0.67615 1.20000 -0.18117
v -0.60622 1.20000 -0.35000
v -0.49497 1.20000 -0.49497
v -0.35000 1.20000 -0.60622
v -0.18117 1.20000 -0.67615
v -0.00000 1.20000 -0.70000
v 0.18117 1.20000 -0.67615
v 0.35000 1.20000 -0.60622
v 0.49497 1.20000 -0.49497
v 0.60622 1.20000 -0.35000
v 0.67615 1.20000 -0.18117
v 0.45000 2.00000 0.00000
v 0.43467 2.00000 0.11647
v 0.38971 2.00000 0.22500
v 0.31820 2.00000 0.31820
v 0.22500 2.00000 0.38971
v 0.11647 2.00000 0.43467
v 0.00000 2.00000 0.45000
v -0.11647 2.00000 0.43467
v -0.22500 2.00000 0.38971
v -0.31820 2.00000 0.31820
v -0.38971 2.00000 0.22500
v -0.43467 2.00000 0.11647
v -0.45000 2.00000 0.00000
v -0.43467 2.00000 -0.11647
v -0.38971 2.00000 -0.22500
v -0.31820 2.00000 -0.31820
v -0.22500 2.00000 -0.38971
v -0.11647 2.00000 -0.43467
v -0.00000 2.00000 -0.45000
v 0.11647 2.00000 -0.43467
v 0.22500 2.00000 -0.38971
v 0.31820 2.00000 -0.31820
v 0.38971 2.00000 -0.22500
v 0.43467 2.00000 -0.11647
v 0.50000 2.80000 0.00000
v 0.48296 2.80000 0.12941
v 0.43301 2.80000 0.25000
v 0.35355 2.80000 0.35355
v 0.25000 2.80000 0.43301
v 0.12941 2.80000 0.48296
v 0.00000 2.80000 0.50000
v -0.12941 2.80000 0.48296
v -0.25000 2.80000 0.43301
v -0.35355 2.80000 0.35355
v -0.43301 2.80000 0.25000
v -0.48296 2.80000 0.12941
v -0.50000 2.80000 0.00000
v -0.48296 2.80000 -0.12941
v -0.43301 2.80000 -0.25000
v -0.35355 2.80000 -0.35355
v -0.25000 2.80000 -0.43301
v -0.12941 2.80000 -0.48296
v -0.00000 2.80000 -0.50000
v 0.12941 2.80000 -0.48296
v 0.25000 2.80000 -0.43301
v 0.35355 2.80000 -0.35355
v 0.43301 2.80000 -0.25000
v 0.48296 2.80000 -0.12941
v 0.45000 3.60000 0.00000
v 0.43467 3.60000 0.11647
v 0.38971 3.60000 0.22500
v 0.31820 3.60000 0.31820
v 0.22500 3.60000 0.38971
v 0.11647 3.60000 0.43467
v 0.00000 3.60000 0.45000
v -0.11647 3.60000 0.43467
v -0.22500 3.60000 0.38971
v -0.31820 3.60000 0.31820
v -0.38971 3.60000 0.22500
v -0.43467 3.60000 0.11647
v -0.45000 3.60000 0.00000
v -0.43467 3.60000 -0.11647
v -0.38971 3.60000 -0.22500
v -0.31820 3.60000 -0.31820
v -0.22500 3.60000 -0.38971
v -0.11647 3.60000 -0.43467
v -0.00000 3.60000 -0.45000
v 0.11647 3.60000 -0.43467
v 0.22500 3.60000 -0.38971
v 0.31820 3.60000 -0.31820
v 0.38971 3.60000 -0.22500
v 0.43467 3.60000 -0.11647
v 1.10000 4.10000 0.00000
v 1.06252 4.10000 0.28470
v 0.95263 4.10000 0.55000
v 0.77782 4.10000 0.77782
v 0.55000 4.10000 0.95263
v 0.28470 4.10000 1.06252
v 0.00000 4.10000 1.10000
v -0.28470 4.10000 1.06252
v -0.55000 4.10000 0.95263
v -0.77782 4.10000 0.77782
v -0.95263 4.10000 0.55000
v -1.06252 4.10000 0.28470
v -1.10000 4.10000 0.00000
v -1.06252 4.10000 -0.28470
v -0.95263 4.10000 -0.55000
v -0.77782 4.10000 -0.77782
v -0.55000 4.10000 -0.95263
v -0.28470 4.10000 -1.06252
v -0.00000 4.10000 -1.10000
v 0.28470 4.10000 -1.06252
v 0.55000 4.10000 -0.95263
v 0.77782 4.10000 -0.77782
v 0.95263 4.10000 -0.55000
v 1.06252 4.10000 -0.28470
v 0.00000 4.50000 0.00000
v 0.00000 4.50000 0.00000
v 0.00000 4.50000 0.00000
v 0.00000 4.50000 0.00000
v 0.00000 4.50000 0.00000
v 0.00000 4.50000 0.00000
v 0.00000 4.50000 0.00000
v -0.00000 4.50000 0.00000
v -0.00000 4.50000 0.00000
v -0.00000 4.50000 0.00000
v -0.00000 4.50000 0.00000
v -0.00000 4.50000 0.00000
v -0.00000 4.50000 0.00000
v -0.00000 4.50000 -0.00000
v -0.00000 4.50000 -0.00000
v -0.00000 4.50000 -0.00000
v -0.00000 4.50000 -0.00000
v -0.00000 4.50000 -0.00000
v -0.00000 4.50000 -0.00000
v 0.00000 4.50000 -0.00000
v 0.00000 4.50000 -0.00000
v 0.00000 4.50000 -0.00000
v 0.00000 4.50000 -0.00000
v 0.00000 4.50000 -0.00000
v 0.00000 0.95000 0.14000
v 0.00000 0.85101 0.09899
v 0.00000 0.81000 0.00000
v 0.00000 0.85101 -0.09899
v 0.00000 0.95000 -0.14000
v 0.00000 1.04899 -0.09899
v 0.00000 1.09000 -0.00000
v 0.00000 1.04899 0.09899
v 4.40000 0.95000 0.14000
v 4.40000 0.85101 0.09899
v 4.40000 0.81000 0.00000
v 4.40000 0.85101 -0.09899
v 4.40000 0.95000 -0.14000
v 4.40000 1.04899 -0.09899
v 4.40000 1.09000 -0.00000
v 4.40000 1.04899 0.09899
v 0.00000 0.95000 0.00000
v 4.40000 0.95000 0.00000
v 5.60000 0.74000 0.00000
v 5.60000 0.90000 0.00000
v 5.54127 0.74000 0.37082
v 5.54127 0.90000 0.37082
v 5.37082 0.74000 0.70534
v 5.37082 0.90000 0.70534
v 5.10534 0.74000 0.97082
v 5.10534 0.90000 0.97082
v 4.77082 0.74000 1.14127
v 4.77082 0.90000 1.14127
v 4.40000 0.74000 1.20000
v 4.40000 0.90000 1.20000
v 4.02918 0.74000 1.14127
v 4.02918 0.90000 1.14127
v 3.69466 0.74000 0.97082
v 3.69466 0.90000 0.97082
v 3.42918 0.74000 0.70534
v 3.42918 0.90000 0.70534
v 3.25873 0.74000 0.37082
v 3.25873 0.90000 0.37082
v 3.20000 0.74000 0.00000
v 3.20000 0.90000 0.00000
v 3.25873 0.74000 -0.37082
v 3.25873 0.90000 -0.37082
v 3.42918 0.74000 -0.70534
v 3.42918 0.90000 -0.70534
v 3.69466 0.74000 -0.97082
v 3.69466 0.90000 -0.97082
v 4.02918 0.74000 -1.14127
v 4.02918 0.90000 -1.14127
v 4.40000 0.74000 -1.20000
v 4.40000 0.90000 -1.20000
v 4.77082 0.74000 -1.14127
v 4.77082 0.90000 -1.14127
v 5.10534 0.74000 -0.97082
v 5.10534 0.90000 -0.97082
v 5.37082 0.74000 -0.70534
v 5.37082 0.90000 -0.70534
v 5.54127 0.74000 -0.37082
v 5.54127 0.90000 -0.37082
v 4.40000 0.74000 0.00000
v 4.40000 0.90000 0.00000
v -0.12124 0.95000 0.07000
v -0.08573 0.85101 0.04950
v -0.00000 0.81000 0.00000
v 0.08573 0.85101 -0.04950
v 0.12124 0.95000 -0.07000
v 0.08573 1.04899 -0.04950
v 0.00000 1.09000 -0.00000
v -0.08573 1.04899 0.04950
v 2.07876 0.95000 3.88051
v 2.11427 0.85101 3.86001
v 2.20000 0.81000 3.81051
v 2.28573 0.85101 3.76101
v 2.32124 0.95000 3.74051
v 2.28573 1.04899 3.76101
v 2.20000 1.09000 3.81051
v 2.11427 1.04899 3.86001
v 0.00000 0.95000 0.00000
v 2.20000 0.95000 3.81051
v 3.40000 0.74000 3.81051
v 3.40000 0.90000 3.81051
v 3.34127 0.74000 4.18133
v 3.34127 0.90000 4.18133
v 3.17082 0.74000 4.51585
v 3.17082 0.90000 4.51585
v 2.90534 0.74000 4.78133
v 2.90534 0.90000 4.78133
v 2.57082 0.74000 4.95178
v 2.57082 0.90000 4.95178
v 2.20000 0.74000 5.01051
v 2.20000 0.90000 5.01051
v 1.82918 0.74000 4.95178
v 1.82918 0.90000 4.95178
v 1.49466 0.74000 4.78133
v 1.49466 0.90000 4.78133
v 1.22918 0.74000 4.51585
v 1.22918 0.90000 4.51585
v 1.05873 0.74000 4.18133
v 1.05873 0.90000 4.18133
v 1.00000 0.74000 3.81051
v 1.00000 0.90000 3.81051
v 1.05873 0.74000 3.43969
v 1.05873 0.90000 3.43969
v 1.22918 0.74000 3.10517
v 1.22918 0.90000 3.10517
v 1.49466 0.74000 2.83969
v 1.49466 0.90000 2.83969
v 1.82918 0.74000 2.66924
v 1.82918 0.90000 2.66924
v 2.20000 0.74000 2.61051
v 2.20000 0.90000 2.61051
v 2.57082 0.74000 2.66924
v 2.57082 0.90000 2.66924
v 2.90534 0.74000 2.83969
v 2.90534 0.90000 2.83969
v 3.17082 0.74000 3.10517
v 3.17082 0.90000 3.10517
v 3.34127 0.74000 3.43969
v 3.34127 0.90000 3.43969
v 2.20000 0.74000 3.81051
v 2.20000 0.90000 3.81051
v -0.12124 0.95000 -0.07000
v -0.08573 0.85101 -0.04950
v -0.00000 0.81000 -0.00000
v 0.08573 0.85101 0.04950
v 0.12124 0.95000 0.07000
v 0.08573 1.04899 0.04950
v 0.00000 1.09000 0.00000
v -0.08573 1.04899 -0.04950
v -2.32124 0.95000 3.74051
v -2.28573 0.85101 3.76101
v -2.20000 0.81000 3.81051
v -2.11427 0.85101 3.86001
v -2.07876 0.95000 3.88051
v -2.11427 1.04899 3.86001
v -2.20000 1.09000 3.81051
v -2.28573 1.04899 3.76101
v 0.00000 0.95000 0.00000
v -2.20000 0.95000 3.81051
v -1.00000 0.74000 3.81051
v -1.00000 0.90000 3.81051
v -1.05873 0.74000 4.18133
v -1.05873 0.90000 4.18133
v -1.22918 0.74000 4.51585
v -1.22918 0.90000 4.51585
v -1.49466 0.74000 4.78133
v -1.49466 0.90000 4.78133
v -1.82918 0.74000 4.95178
v -1.82918 0.90000 4.95178
v -2.20000 0.74000 5.01051
v -2.20000 0.90000 5.01051
v -2.57082 0.74000 4.95178
v -2.57082 0.90000 4.95178
v -2.90534 0.74000 4.78133
v -2.90534 0.90000 4.78133
v -3.17082 0.74000 4.51585
v -3.17082 0.90000 4.51585
v -3.34127 0.74000 4.18133
v -3.34127 0.90000 4.18133
v -3.40000 0.74000 3.81051
v -3.40000 0.90000 3.81051
v -3.34127 0.74000 3.43969
v -3.34127 0.90000 3.43969
v -3.17082 0.74000 3.10517
v -3.17082 0.90000 3.10517
v -2.90534 0.74000 2.83969
v -2.90534 0.90000 2.83969
v -2.57082 0.74000 2.66924
v -2.57082 0.90000 2.66924
v -2.20000 0.74000 2.61051
v -2.20000 0.90000 2.61051
v -1.82918 0.74000 2.66924
v -1.82918 0.90000 2.66924
v -1.49466 0.74000 2.83969
v -1.49466 0.90000 2.83969
v -1.22918 0.74000 3.10517
v -1.22918 0.90000 3.10517
v -1.05873 0.74000 3.43969
v -1.05873 0.90000 3.43969
v -2.20000 0.74000 3.81051
v -2.20000 0.90000 3.81051
v -0.00000 0.95000 -0.14000
v -0.00000 0.85101 -0.09899
v -0.00000 0.81000 -0.00000
v 0.00000 0.85101 0.09899
v 0.00000 0.95000 0.14000
v 0.00000 1.04899 0.09899
v 0.00000 1.09000 0.00000
v -0.00000 1.04899 -0.09899
v -4.40000 0.95000 -0.14000
v -4.40000 0.85101 -0.09899
v -4.40000 0.81000 0.00000
v -4.40000 0.85101 0.09899
v -4.40000 0.95000 0.14000
v -4.40000 1.04899 0.09899
v -4.40000 1.09000 0.00000
v -4.40000 1.04899 -0.09899
v 0.00000 0.95000 0.00000
v -4.40000 0.95000 0.00000
v -3.20000 0.74000 0.00000
v -3.20000 0.90000 0.00000
v -3.25873 0.74000 0.37082
v -3.25873 0.90000 0.37082
v -3.42918 0.74000 0.70534
v -3.42918 0.90000 0.70534
v -3.69466 0.74000 0.97082
v -3.69466 0.90000 0.97082
v -4.02918 0.74000 1.14127
v -4.02918 0.90000 1.14127
v -4.40000 0.74000 1.20000
v -4.40000 0.90000 1.20000
v -4.77082 0.74000 1.14127
v -4.77082 0.90000 1.14127
v -5.10534 0.74000 0.97082
v -5.10534 0.90000 0.97082
v -5.37082 0.74000 0.70534
v -5.37082 0.90000 0.70534
v -5.54127 0.74000 0.37082
v -5.54127 0.90000 0.37082
v -5.60000 0.74000 0.00000
v -5.60000 0.90000 0.00000
v -5.54127 0.74000 -0.37082
v -5.54127 0.90000 -0.37082
v -5.37082 0.74000 -0.70534
v -5.37082 0.90000 -0.70534
v -5.10534 0.74000 -0.97082
v -5.10534 0.90000 -0.97082
v -4.77082 0.74000 -1.14127
v -4.77082 0.90000 -1.14127
v -4.40000 0.74000 -1.20000
v -4.40000 0.90000 -1.20000
v -4.02918 0.74000 -1.14127
v -4.02918 0.90000 -1.14127
v -3.69466 0.74000 -0.97082
v -3.69466 0.90000 -0.97082
v -3.42918 0.74000 -0.70534
v -3.42918 0.90000 -0.70534
v -3.25873 0.74000 -0.37082
v -3.25873 0.90000 -0.37082
v -4.40000 0.74000 0.00000
v -4.40000 0.90000 0.00000
v 0.12124 0.95000 -0.07000
v 0.08573 0.85101 -0.04950
v 0.00000 0.81000 -0.00000
v -0.08573 0.85101 0.04950
v -0.12124 0.95000 0.07000
v -0.08573 1.04899 0.04950
v -0.00000 1.09000 0.00000
v 0.08573 1.04899 -0.04950
v -2.07876 0.95000 -3.88051
v -2.11427 0.85101 -3.86001
v -2.20000 0.81000 -3.81051
v -2.28573 0.85101 -3.76101
v -2.32124 0.95000 -3.74051
v -2.28573 1.04899 -3.76101
v -2.20000 1.09000 -3.81051
v -2.11427 1.04899 -3.86001
v 0.00000 0.95000 0.00000
v -2.20000 0.95000 -3.81051
v -1.00000 0.74000 -3.81051
v -1.00000 0.90000 -3.81051
v -1.05873 0.74000 -3.43969
v -1.05873 0.90000 -3.43969
v -1.22918 0.74000 -3.10517
v -1.22918 0.90000 -3.10517
v -1.49466 0.74000 -2.83969
v -1.49466 0.90000 -2.83969
v -1.82918 0.74000 -2.66924
v -1.82918 0.90000 -2.66924
v -2.20000 0.74000 -2.61051
v -2.20000 0.90000 -2.61051
v -2.57082 0.74000 -2.66924
v -2.57082 0.90000 -2.66924
v -2.90534 0.74000 -2.83969
v -2.90534 0.90000 -2.83969
v -3.17082 0.74000 -3.10517
v -3.17082 0.90000 -3.10517
v -3.34127 0.74000 -3.43969
v -3.34127 0.90000 -3.43969
v -3.40000 0.74000 -3.81051
v -3.40000 0.90000 -3.81051
v -3.34127 0.74000 -4.18133
v -3.34127 0.90000 -4.18133
v -3.17082 0.74000 -4.51585
v -3.17082 0.90000 -4.51585
v -2.90534 0.74000 -4.78133
v -2.90534 0.90000 -4.78133
v -2.57082 0.74000 -4.95178
v -2.57082 0.90000 -4.95178
v -2.20000 0.74000 -5.01051
v -2.20000 0.90000 -5.01051
v -1.82918 0.74000 -4.95178
v -1.82918 0.90000 -4.95178
v -1.49466 0.74000 -4.78133
v -1.49466 0.90000 -4.78133
v -1.22918 0.74000 -4.51585
v -1.22918 0.90000 -4.51585
v -1.05873 0.74000 -4.18133
v -1.05873 0.90000 -4.18133
v -2.20000 0.74000 -3.81051
v -2.20000 0.90000 -3.81051
v 0.12124 0.95000 0.07000
v 0.08573 0.85101 0.04950
v 0.00000 0.81000 0.00000
v -0.08573 0.85101 -0.04950
v -0.12124 0.95000 -0.07000
v -0.08573 1.04899 -0.04950
v -0.00000 1.09000 -0.00000
v 0.08573 1.04899 0.04950
v 2.32124 0.95000 -3.74051
v 2.28573 0.85101 -3.76101
v 2.20000 0.81000 -3.81051
v 2.11427 0.85101 -3.86001
v 2.07876 0.95000 -3.88051
v 2.11427 1.04899 -3.86001
v 2.20000 1.09000 -3.81051
v 2.28573 1.04899 -3.76101
v 0.00000 0.95000 0.00000
v 2.20000 0.95000 -3.81051
v 3.40000 0.74000 -3.81051
v 3.40000 0.90000 -3.81051
v 3.34127 0.74000 -3.43969
v 3.34127 0.90000 -3.43969
v 3.17082 0.74000 -3.10517
v 3.17082 0.90000 -3.10517
v 2.90534 0.74000 -2.83969
v 2.90534 0.90000 -2.83969
v 2.57082 0.74000 -2.66924
v 2.57082 0.90000 -2.66924
v 2.20000 0.74000 -2.61051
v 2.20000 0.90000 -2.61051
v 1.82918 0.74000 -2.66924
v 1.82918 0.90000 -2.66924
v 1.49466 0.74000 -2.83969
v 1.49466 0.90000 -2.83969
v 1.22918 0.74000 -3.10517
v 1.22918 0.90000 -3.10517
v 1.05873 0.74000 -3.43969
v 1.05873 0.90000 -3.43969
v 1.00000 0.74000 -3.81051
v 1.00000 0.90000 -3.81051
v 1.05873 0.74000 -4.18133
v 1.05873 0.90000 -4.18133
v 1.22918 0.74000 -4.51585
v 1.22918 0.90000 -4.51585
v 1.49466 0.74000 -4.78133
v 1.49466 0.90000 -4.78133
v 1.82918 0.74000 -4.95178
v 1.82918 0.90000 -4.95178
v 2.20000 0.74000 -5.01051
v 2.20000 0.90000 -5.01051
v 2.57082 0.74000 -4.95178
v 2.57082 0.90000 -4.95178
v 2.90534 0.74000 -4.78133
v 2.90534 0.90000 -4.78133
v 3.17082 0.74000 -4.51585
v 3.17082 0.90000 -4.51585
v 3.34127 0.74000 -4.18133
v 3.34127 0.90000 -4.18133
v 2.20000 0.74000 -3.81051
v 2.20000 0.90000 -3.81051
v 0.00000 5.55000 -0.12000
v -0.11374 5.25654 -0.12000
v -0.42798 5.23906 -0.12000
v -0.18403 5.04021 -0.12000
v -0.26450 4.73594 -0.12000
v -0.00000 4.90650 -0.12000
v 0.26450 4.73594 -0.12000
v 0.18403 5.04021 -0.12000
v 0.42798 5.23906 -0.12000
v 0.11374 5.25654 -0.12000
v 0.00000 5.55000 0.12000
v -0.11374 5.25654 0.12000
v -0.42798 5.23906 0.12000
v -0.18403 5.04021 0.12000
v -0.26450 4.73594 0.12000
v -0.00000 4.90650 0.12000
v 0.26450 4.73594 0.12000
v 0.18403 5.04021 0.12000
v 0.42798 5.23906 0.12000
v 0.11374 5.25654 0.12000
v 0.00000 5.10000 -0.12000
v 0.00000 5.10000 0.12000
vt 0.05000 0.50000
vt 0.15000 0.50000
vt 0.25000 0.50000
vt 0.35000 0.50000
vt 0.45000 0.50000
vt 0.55000 0.50000
vt 0.65000 0.50000
vt 0.75000 0.50000
vt 0.85000 0.50000
vt 0.95000 0.50000
usemtl cream
f 2/1 4/1 3/1 1/1
f 1/1 3/1 81/1
f 4/1 2/1 82/1
f 4/1 6/1 5/1 3/1
f 3/1 5/1 81/1
f 6/1 4/1 82/1
f 6/1 8/1 7/1 5/1
f 5/1 7/1 81/1
f 8/1 6/1 82/1
f 8/1 10/1 9/1 7/1
f 7/1 9/1 81/1
f 10/1 8/1 82/1
f 10/1 12/1 11/1 9/1
f 9/1 11/1 81/1
f 12/1 10/1 82/1
f 12/1 14/1 13/1 11/1
f 11/1 13/1 81/1
f 14/1 12/1 82/1
f 14/1 16/1 15/1 13/1
f 13/1 15/1 81/1
f 16/1 14/1 82/1
f 16/1 18/1 17/1 15/1
f 15/1 17/1 81/1
f 18/1 16/1 82/1
f 18/1 20/1 19/1 17/1
f 17/1 19/1 81/1
f 20/1 18/1 82/1
f 20/1 22/1 21/1 19/1
f 19/1 21/1 81/1
f 22/1 20/1 82/1
f 22/1 24/1 23/1 21/1
f 21/1 23/1 81/1
f 24/1 22/1 82/1
f 24/1 26/1 25/1 23/1
f 23/1 25/1 81/1
f 26/1 24/1 82/1
f 26/1 28/1 27/1 25/1
f 25/1 27/1 81/1
f 28/1 26/1 82/1
f 28/1 30/1 29/1 27/1
f 27/1 29/1 81/1
f 30/1 28/1 82/1
f 30/1 32/1 31/1 29/1
f 29/1 31/1 81/1
f 32/1 30/1 82/1
f 32/1 34/1 33/1 31/1
f 31/1 33/1 81/1
f 34/1 32/1 82/1
f 34/1 36/1 35/1 33/1
f 33/1 35/1 81/1
f 36/1 34/1 82/1
f 36/1 38/1 37/1 35/1
f 35/1 37/1 81/1
f 38/1 36/1 82/1
f 38/1 40/1 39/1 37/1
f 37/1 39/1 81/1
f 40/1 38/1 82/1
f 40/1 42/1 41/1 39/1
f 39/1 41/1 81/1
f 42/1 40/1 82/1
f 42/1 44/1 43/1 41/1
f 41/1 43/1 81/1
f 44/1 42/1 82/1
f 44/1 46/1 45/1 43/1
f 43/1 45/1 81/1
f 46/1 44/1 82/1
f 46/1 48/1 47/1 45/1
f 45/1 47/1 81/1
f 48/1 46/1 82/1
f 48/1 50/1 49/1 47/1
f 47/1 49/1 81/1
f 50/1 48/1 82/1
f 50/1 52/1 51/1 49/1
f 49/1 51/1 81/1
f 52/1 50/1 82/1
f 52/1 54/1 53/1 51/1
f 51/1 53/1 81/1
f 54/1 52/1 82/1
f 54/1 56/1 55/1 53/1
f 53/1 55/1 81/1
f 56/1 54/1 82/1
f 56/1 58/1 57/1 55/1
f 55/1 57/1 81/1
f 58/1 56/1 82/1
f 58/1 60/1 59/1 57/1
f 57/1 59/1 81/1
f 60/1 58/1 82/1
f 60/1 62/1 61/1 59/1
f 59/1 61/1 81/1
f 62/1 60/1 82/1
f 62/1 64/1 63/1 61/1
f 61/1 63/1 81/1
f 64/1 62/1 82/1
f 64/1 66/1 65/1 63/1
f 63/1 65/1 81/1
f 66/1 64/1 82/1
f 66/1 68/1 67/1 65/1
f 65/1 67/1 81/1
f 68/1 66/1 82/1
f 68/1 70/1 69/1 67/1
f 67/1 69/1 81/1
f 70/1 68/1 82/1
f 70/1 72/1 71/1 69/1
f 69/1 71/1 81/1
f 72/1 70/1 82/1
f 72/1 74/1 73/1 71/1
f 71/1 73/1 81/1
f 74/1 72/1 82/1
f 74/1 76/1 75/1 73/1
f 73/1 75/1 81/1
f 76/1 74/1 82/1
f 76/1 78/1 77/1 75/1
f 75/1 77/1 81/1
f 78/1 76/1 82/1
f 78/1 80/1 79/1 77/1
f 77/1 79/1 81/1
f 80/1 78/1 82/1
f 80/1 2/1 1/1 79/1
f 79/1 1/1 81/1
f 2/1 80/1 82/1
f 405/1 406/1 429/1
f 422/1 421/1 430/1
f 406/1 407/1 429/1
f 423/1 422/1 430/1
f 407/1 408/1 429/1
f 424/1 423/1 430/1
f 408/1 409/1 429/1
f 425/1 424/1 430/1
f 409/1 410/1 429/1
f 426/1 425/1 430/1
f 410/1 411/1 429/1
f 427/1 426/1 430/1
f 411/1 412/1 429/1
f 428/1 427/1 430/1
f 412/1 405/1 429/1
f 421/1 428/1 430/1
f 413/1 414/1 406/1 405/1
f 414/1 415/1 407/1 406/1
f 415/1 416/1 408/1 407/1
f 416/1 417/1 409/1 408/1
f 417/1 418/1 410/1 409/1
f 418/1 419/1 411/1 410/1
f 419/1 420/1 412/1 411/1
f 420/1 413/1 405/1 412/1
f 421/1 422/1 414/1 413/1
f 422/1 423/1 415/1 414/1
f 423/1 424/1 416/1 415/1
f 424/1 425/1 417/1 416/1
f 425/1 426/1 418/1 417/1
f 426/1 427/1 419/1 418/1
f 427/1 428/1 420/1 419/1
f 428/1 421/1 413/1 420/1
f 431/1 432/1 455/1
f 448/1 447/1 456/1
f 432/1 433/1 455/1
f 449/1 448/1 456/1
f 433/1 434/1 455/1
f 450/1 449/1 456/1
f 434/1 435/1 455/1
f 451/1 450/1 456/1
f 435/1 436/1 455/1
f 452/1 451/1 456/1
f 436/1 437/1 455/1
f 453/1 452/1 456/1
f 437/1 438/1 455/1
f 454/1 453/1 456/1
f 438/1 431/1 455/1
f 447/1 454/1 456/1
f 439/1 440/1 432/1 431/1
f 440/1 441/1 433/1 432/1
f 441/1 442/1 434/1 433/1
f 442/1 443/1 435/1 434/1
f 443/1 444/1 436/1 435/1
f 444/1 445/1 437/1 436/1
f 445/1 446/1 438/1 437/1
f 446/1 439/1 431/1 438/1
f 447/1 448/1 440/1 439/1
f 448/1 449/1 441/1 440/1
f 449/1 450/1 442/1 441/1
f 450/1 451/1 443/1 442/1
f 451/1 452/1 444/1 443/1
f 452/1 453/1 445/1 444/1
f 453/1 454/1 446/1 445/1
f 454/1 447/1 439/1 446/1
f 457/1 458/1 481/1
f 474/1 473/1 482/1
f 458/1 459/1 481/1
f 475/1 474/1 482/1
f 459/1 460/1 481/1
f 476/1 475/1 482/1
f 460/1 461/1 481/1
f 477/1 476/1 482/1
f 461/1 462/1 481/1
f 478/1 477/1 482/1
f 462/1 463/1 481/1
f 479/1 478/1 482/1
f 463/1 464/1 481/1
f 480/1 479/1 482/1
f 464/1 457/1 481/1
f 473/1 480/1 482/1
f 465/1 466/1 458/1 457/1
f 466/1 467/1 459/1 458/1
f 467/1 468/1 460/1 459/1
f 468/1 469/1 461/1 460/1
f 469/1 470/1 462/1 461/1
f 470/1 471/1 463/1 462/1
f 471/1 472/1 464/1 463/1
f 472/1 465/1 457/1 464/1
f 473/1 474/1 466/1 465/1
f 474/1 475/1 467/1 466/1
f 475/1 476/1 468/1 467/1
f 476/1 477/1 469/1 468/1
f 477/1 478/1 470/1 469/1
f 478/1 479/1 471/1 470/1
f 479/1 480/1 472/1 471/1
f 480/1 473/1 465/1 472/1
f 483/1 484/1 507/1
f 500/1 499/1 508/1
f 484/1 485/1 507/1
f 501/1 500/1 508/1
f 485/1 486/1 507/1
f 502/1 501/1 508/1
f 486/1 487/1 507/1
f 503/1 502/1 508/1
f 487/1 488/1 507/1
f 504/1 503/1 508/1
f 488/1 489/1 507/1
f 505/1 504/1 508/1
f 489/1 490/1 507/1
f 506/1 505/1 508/1
f 490/1 483/1 507/1
f 499/1 506/1 508/1
f 491/1 492/1 484/1 483/1
f 492/1 493/1 485/1 484/1
f 493/1 494/1 486/1 485/1
f 494/1 495/1 487/1 486/1
f 495/1 496/1 488/1 487/1
f 496/1 497/1 489/1 488/1
f 497/1 498/1 490/1 489/1
f 498/1 491/1 483/1 490/1
f 499/1 500/1 492/1 491/1
f 500/1 501/1 493/1 492/1
f 501/1 502/1 494/1 493/1
f 502/1 503/1 495/1 494/1
f 503/1 504/1 496/1 495/1
f 504/1 505/1 497/1 496/1
f 505/1 506/1 498/1 497/1
f 506/1 499/1 491/1 498/1
f 509/1 510/1 533/1
f 526/1 525/1 534/1
f 510/1 511/1 533/1
f 527/1 526/1 534/1
f 511/1 512/1 533/1
f 528/1 527/1 534/1
f 512/1 513/1 533/1
f 529/1 528/1 534/1
f 513/1 514/1 533/1
f 530/1 529/1 534/1
f 514/1 515/1 533/1
f 531/1 530/1 534/1
f 515/1 516/1 533/1
f 532/1 531/1 534/1
f 516/1 509/1 533/1
f 525/1 532/1 534/1
f 517/1 518/1 510/1 509/1
f 518/1 519/1 511/1 510/1
f 519/1 520/1 512/1 511/1
f 520/1 521/1 513/1 512/1
f 521/1 522/1 514/1 513/1
f 522/1 523/1 515/1 514/1
f 523/1 524/1 516/1 515/1
f 524/1 517/1 509/1 516/1
f 525/1 526/1 518/1 517/1
f 526/1 527/1 519/1 518/1
f 527/1 528/1 520/1 519/1
f 528/1 529/1 521/1 520/1
f 529/1 530/1 522/1 521/1
f 530/1 531/1 523/1 522/1
f 531/1 532/1 524/1 523/1
f 532/1 525/1 517/1 524/1
f 535/1 536/1 559/1
f 552/1 551/1 560/1
f 536/1 537/1 559/1
f 553/1 552/1 560/1
f 537/1 538/1 559/1
f 554/1 553/1 560/1
f 538/1 539/1 559/1
f 555/1 554/1 560/1
f 539/1 540/1 559/1
f 556/1 555/1 560/1
f 540/1 541/1 559/1
f 557/1 556/1 560/1
f 541/1 542/1 559/1
f 558/1 557/1 560/1
f 542/1 535/1 559/1
f 551/1 558/1 560/1
f 543/1 544/1 536/1 535/1
f 544/1 545/1 537/1 536/1
f 545/1 546/1 538/1 537/1
f 546/1 547/1 539/1 538/1
f 547/1 548/1 540/1 539/1
f 548/1 549/1 541/1 540/1
f 549/1 550/1 542/1 541/1
f 550/1 543/1 535/1 542/1
f 551/1 552/1 544/1 543/1
f 552/1 553/1 545/1 544/1
f 553/1 554/1 546/1 545/1
f 554/1 555/1 547/1 546/1
f 555/1 556/1 548/1 547/1
f 556/1 557/1 549/1 548/1
f 557/1 558/1 550/1 549/1
f 558/1 551/1 543/1 550/1
f 561/1 562/1 585/1
f 578/1 577/1 586/1
f 562/1 563/1 585/1
f 579/1 578/1 586/1
f 563/1 564/1 585/1
f 580/1 579/1 586/1
f 564/1 565/1 585/1
f 581/1 580/1 586/1
f 565/1 566/1 585/1
f 582/1 581/1 586/1
f 566/1 567/1 585/1
f 583/1 582/1 586/1
f 567/1 568/1 585/1
f 584/1 583/1 586/1
f 568/1 561/1 585/1
f 577/1 584/1 586/1
f 569/1 570/1 562/1 561/1
f 570/1 571/1 563/1 562/1
f 571/1 572/1 564/1 563/1
f 572/1 573/1 565/1 564/1
f 573/1 574/1 566/1 565/1
f 574/1 575/1 567/1 566/1
f 575/1 576/1 568/1 567/1
f 576/1 569/1 561/1 568/1
f 577/1 578/1 570/1 569/1
f 578/1 579/1 571/1 570/1
f 579/1 580/1 572/1 571/1
f 580/1 581/1 573/1 572/1
f 581/1 582/1 574/1 573/1
f 582/1 583/1 575/1 574/1
f 583/1 584/1 576/1 575/1
f 584/1 577/1 569/1 576/1
f 587/1 588/1 611/1
f 604/1 603/1 612/1
f 588/1 589/1 611/1
f 605/1 604/1 612/1
f 589/1 590/1 611/1
f 606/1 605/1 612/1
f 590/1 591/1 611/1
f 607/1 606/1 612/1
f 591/1 592/1 611/1
f 608/1 607/1 612/1
f 592/1 593/1 611/1
f 609/1 608/1 612/1
f 593/1 594/1 611/1
f 610/1 609/1 612/1
f 594/1 587/1 611/1
f 603/1 610/1 612/1
f 595/1 596/1 588/1 587/1
f 596/1 597/1 589/1 588/1
f 597/1 598/1 590/1 589/1
f 598/1 599/1 591/1 590/1
f 599/1 600/1 592/1 591/1
f 600/1 601/1 593/1 592/1
f 601/1 602/1 594/1 593/1
f 602/1 595/1 587/1 594/1
f 603/1 604/1 596/1 595/1
f 604/1 605/1 597/1 596/1
f 605/1 606/1 598/1 597/1
f 606/1 607/1 599/1 598/1
f 607/1 608/1 600/1 599/1
f 608/1 609/1 601/1 600/1
f 609/1 610/1 602/1 601/1
f 610/1 603/1 595/1 602/1
f 613/1 614/1 637/1
f 630/1 629/1 638/1
f 614/1 615/1 637/1
f 631/1 630/1 638/1
f 615/1 616/1 637/1
f 632/1 631/1 638/1
f 616/1 617/1 637/1
f 633/1 632/1 638/1
f 617/1 618/1 637/1
f 634/1 633/1 638/1
f 618/1 619/1 637/1
f 635/1 634/1 638/1
f 619/1 620/1 637/1
f 636/1 635/1 638/1
f 620/1 613/1 637/1
f 629/1 636/1 638/1
f 621/1 622/1 614/1 613/1
f 622/1 623/1 615/1 614/1
f 623/1 624/1 616/1 615/1
f 624/1 625/1 617/1 616/1
f 625/1 626/1 618/1 617/1
f 626/1 627/1 619/1 618/1
f 627/1 628/1 620/1 619/1
f 628/1 621/1 613/1 620/1
f 629/1 630/1 622/1 621/1
f 630/1 631/1 623/1 622/1
f 631/1 632/1 624/1 623/1
f 632/1 633/1 625/1 624/1
f 633/1 634/1 626/1 625/1
f 634/1 635/1 627/1 626/1
f 635/1 636/1 628/1 627/1
f 636/1 629/1 621/1 628/1
f 639/1 640/1 663/1
f 656/1 655/1 664/1
f 640/1 641/1 663/1
f 657/1 656/1 664/1
f 641/1 642/1 663/1
f 658/1 657/1 664/1
f 642/1 643/1 663/1
f 659/1 658/1 664/1
f 643/1 644/1 663/1
f 660/1 659/1 664/1
f 644/1 645/1 663/1
f 661/1 660/1 664/1
f 645/1 646/1 663/1
f 662/1 661/1 664/1
f 646/1 639/1 663/1
f 655/1 662/1 664/1
f 647/1 648/1 640/1 639/1
f 648/1 649/1 641/1 640/1
f 649/1 650/1 642/1 641/1
f 650/1 651/1 643/1 642/1
f 651/1 652/1 644/1 643/1
f 652/1 653/1 645/1 644/1
f 653/1 654/1 646/1 645/1
f 654/1 647/1 639/1 646/1
f 655/1 656/1 648/1 647/1
f 656/1 657/1 649/1 648/1
f 657/1 658/1 650/1 649/1
f 658/1 659/1 651/1 650/1
f 659/1 660/1 652/1 651/1
f 660/1 661/1 653/1 652/1
f 661/1 662/1 654/1 653/1
f 662/1 655/1 647/1 654/1
f 737/1 738/1 714/1 713/1
f 738/1 739/1 715/1 714/1
f 739/1 740/1 716/1 715/1
f 740/1 741/1 717/1 716/1
f 741/1 742/1 718/1 717/1
f 742/1 743/1 719/1 718/1
f 743/1 744/1 720/1 719/1
f 744/1 745/1 721/1 720/1
f 745/1 746/1 722/1 721/1
f 746/1 747/1 723/1 722/1
f 747/1 748/1 724/1 723/1
f 748/1 749/1 725/1 724/1
f 749/1 750/1 726/1 725/1
f 750/1 751/1 727/1 726/1
f 751/1 752/1 728/1 727/1
f 752/1 753/1 729/1 728/1
f 753/1 754/1 730/1 729/1
f 754/1 755/1 731/1 730/1
f 755/1 756/1 732/1 731/1
f 756/1 757/1 733/1 732/1
f 757/1 758/1 734/1 733/1
f 758/1 759/1 735/1 734/1
f 759/1 760/1 736/1 735/1
f 760/1 737/1 713/1 736/1
f 785/1 786/1 762/1 761/1
f 786/1 787/1 763/1 762/1
f 787/1 788/1 764/1 763/1
f 788/1 789/1 765/1 764/1
f 789/1 790/1 766/1 765/1
f 790/1 791/1 767/1 766/1
f 791/1 792/1 768/1 767/1
f 792/1 793/1 769/1 768/1
f 793/1 794/1 770/1 769/1
f 794/1 795/1 771/1 770/1
f 795/1 796/1 772/1 771/1
f 796/1 797/1 773/1 772/1
f 797/1 798/1 774/1 773/1
f 798/1 799/1 775/1 774/1
f 799/1 800/1 776/1 775/1
f 800/1 801/1 777/1 776/1
f 801/1 802/1 778/1 777/1
f 802/1 803/1 779/1 778/1
f 803/1 804/1 780/1 779/1
f 804/1 805/1 781/1 780/1
f 805/1 806/1 782/1 781/1
f 806/1 807/1 783/1 782/1
f 807/1 808/1 784/1 783/1
f 808/1 785/1 761/1 784/1
f 833/1 834/1 810/1 809/1
f 834/1 835/1 811/1 810/1
f 835/1 836/1 812/1 811/1
f 836/1 837/1 813/1 812/1
f 837/1 838/1 814/1 813/1
f 838/1 839/1 815/1 814/1
f 839/1 840/1 816/1 815/1
f 840/1 841/1 817/1 816/1
f 841/1 842/1 818/1 817/1
f 842/1 843/1 819/1 818/1
f 843/1 844/1 820/1 819/1
f 844/1 845/1 821/1 820/1
f 845/1 846/1 822/1 821/1
f 846/1 847/1 823/1 822/1
f 847/1 848/1 824/1 823/1
f 848/1 849/1 825/1 824/1
f 849/1 850/1 826/1 825/1
f 850/1 851/1 827/1 826/1
f 851/1 852/1 828/1 827/1
f 852/1 853/1 829/1 828/1
f 853/1 854/1 830/1 829/1
f 854/1 855/1 831/1 830/1
f 855/1 856/1 832/1 831/1
f 856/1 833/1 809/1 832/1
usemtl faded_mint
f 84/9 86/9 85/9 83/9
f 83/9 85/9 163/9
f 86/9 84/9 164/9
f 86/9 88/9 87/9 85/9
f 85/9 87/9 163/9
f 88/9 86/9 164/9
f 88/9 90/9 89/9 87/9
f 87/9 89/9 163/9
f 90/9 88/9 164/9
f 90/9 92/9 91/9 89/9
f 89/9 91/9 163/9
f 92/9 90/9 164/9
f 92/9 94/9 93/9 91/9
f 91/9 93/9 163/9
f 94/9 92/9 164/9
f 94/9 96/9 95/9 93/9
f 93/9 95/9 163/9
f 96/9 94/9 164/9
f 96/9 98/9 97/9 95/9
f 95/9 97/9 163/9
f 98/9 96/9 164/9
f 98/9 100/9 99/9 97/9
f 97/9 99/9 163/9
f 100/9 98/9 164/9
f 100/9 102/9 101/9 99/9
f 99/9 101/9 163/9
f 102/9 100/9 164/9
f 102/9 104/9 103/9 101/9
f 101/9 103/9 163/9
f 104/9 102/9 164/9
f 104/9 106/9 105/9 103/9
f 103/9 105/9 163/9
f 106/9 104/9 164/9
f 106/9 108/9 107/9 105/9
f 105/9 107/9 163/9
f 108/9 106/9 164/9
f 108/9 110/9 109/9 107/9
f 107/9 109/9 163/9
f 110/9 108/9 164/9
f 110/9 112/9 111/9 109/9
f 109/9 111/9 163/9
f 112/9 110/9 164/9
f 112/9 114/9 113/9 111/9
f 111/9 113/9 163/9
f 114/9 112/9 164/9
f 114/9 116/9 115/9 113/9
f 113/9 115/9 163/9
f 116/9 114/9 164/9
f 116/9 118/9 117/9 115/9
f 115/9 117/9 163/9
f 118/9 116/9 164/9
f 118/9 120/9 119/9 117/9
f 117/9 119/9 163/9
f 120/9 118/9 164/9
f 120/9 122/9 121/9 119/9
f 119/9 121/9 163/9
f 122/9 120/9 164/9
f 122/9 124/9 123/9 121/9
f 121/9 123/9 163/9
f 124/9 122/9 164/9
f 124/9 126/9 125/9 123/9
f 123/9 125/9 163/9
f 126/9 124/9 164/9
f 126/9 128/9 127/9 125/9
f 125/9 127/9 163/9
f 128/9 126/9 164/9
f 128/9 130/9 129/9 127/9
f 127/9 129/9 163/9
f 130/9 128/9 164/9
f 130/9 132/9 131/9 129/9
f 129/9 131/9 163/9
f 132/9 130/9 164/9
f 132/9 134/9 133/9 131/9
f 131/9 133/9 163/9
f 134/9 132/9 164/9
f 134/9 136/9 135/9 133/9
f 133/9 135/9 163/9
f 136/9 134/9 164/9
f 136/9 138/9 137/9 135/9
f 135/9 137/9 163/9
f 138/9 136/9 164/9
f 138/9 140/9 139/9 137/9
f 137/9 139/9 163/9
f 140/9 138/9 164/9
f 140/9 142/9 141/9 139/9
f 139/9 141/9 163/9
f 142/9 140/9 164/9
f 142/9 144/9 143/9 141/9
f 141/9 143/9 163/9
f 144/9 142/9 164/9
f 144/9 146/9 145/9 143/9
f 143/9 145/9 163/9
f 146/9 144/9 164/9
f 146/9 148/9 147/9 145/9
f 145/9 147/9 163/9
f 148/9 146/9 164/9
f 148/9 150/9 149/9 147/9
f 147/9 149/9 163/9
f 150/9 148/9 164/9
f 150/9 152/9 151/9 149/9
f 149/9 151/9 163/9
f 152/9 150/9 164/9
f 152/9 154/9 153/9 151/9
f 151/9 153/9 163/9
f 154/9 152/9 164/9
f 154/9 156/9 155/9 153/9
f 153/9 155/9 163/9
f 156/9 154/9 164/9
f 156/9 158/9 157/9 155/9
f 155/9 157/9 163/9
f 158/9 156/9 164/9
f 158/9 160/9 159/9 157/9
f 157/9 159/9 163/9
f 160/9 158/9 164/9
f 160/9 162/9 161/9 159/9
f 159/9 161/9 163/9
f 162/9 160/9 164/9
f 162/9 84/9 83/9 161/9
f 161/9 83/9 163/9
f 84/9 162/9 164/9
usemtl coral
f 165/2 166/2 172/2 171/2
f 166/2 167/2 173/2 172/2
f 167/2 168/2 174/2 173/2
f 168/2 169/2 175/2 174/2
f 169/2 170/2 176/2 175/2
f 170/2 165/2 171/2 176/2
f 171/2 172/2 178/2 177/2
f 172/2 173/2 179/2 178/2
f 173/2 174/2 180/2 179/2
f 174/2 175/2 181/2 180/2
f 175/2 176/2 182/2 181/2
f 176/2 171/2 177/2 182/2
f 177/2 178/2 184/2 183/2
f 178/2 179/2 185/2 184/2
f 179/2 180/2 186/2 185/2
f 180/2 181/2 187/2 186/2
f 181/2 182/2 188/2 187/2
f 182/2 177/2 183/2 188/2
f 183/2 184/2 190/2 189/2
f 184/2 185/2 191/2 190/2
f 185/2 186/2 192/2 191/2
f 186/2 187/2 193/2 192/2
f 187/2 188/2 194/2 193/2
f 188/2 183/2 189/2 194/2
f 189/2 190/2 196/2 195/2
f 190/2 191/2 197/2 196/2
f 191/2 192/2 198/2 197/2
f 192/2 193/2 199/2 198/2
f 193/2 194/2 200/2 199/2
f 194/2 189/2 195/2 200/2
f 195/2 196/2 202/2 201/2
f 196/2 197/2 203/2 202/2
f 197/2 198/2 204/2 203/2
f 198/2 199/2 205/2 204/2
f 199/2 200/2 206/2 205/2
f 200/2 195/2 201/2 206/2
f 201/2 202/2 208/2 207/2
f 202/2 203/2 209/2 208/2
f 203/2 204/2 210/2 209/2
f 204/2 205/2 211/2 210/2
f 205/2 206/2 212/2 211/2
f 206/2 201/2 207/2 212/2
f 207/2 208/2 214/2 213/2
f 208/2 209/2 215/2 214/2
f 209/2 210/2 216/2 215/2
f 210/2 211/2 217/2 216/2
f 211/2 212/2 218/2 217/2
f 212/2 207/2 213/2 218/2
f 213/2 214/2 220/2 219/2
f 214/2 215/2 221/2 220/2
f 215/2 216/2 222/2 221/2
f 216/2 217/2 223/2 222/2
f 217/2 218/2 224/2 223/2
f 218/2 213/2 219/2 224/2
f 219/2 220/2 226/2 225/2
f 220/2 221/2 227/2 226/2
f 221/2 222/2 228/2 227/2
f 222/2 223/2 229/2 228/2
f 223/2 224/2 230/2 229/2
f 224/2 219/2 225/2 230/2
f 225/2 226/2 232/2 231/2
f 226/2 227/2 233/2 232/2
f 227/2 228/2 234/2 233/2
f 228/2 229/2 235/2 234/2
f 229/2 230/2 236/2 235/2
f 230/2 225/2 231/2 236/2
f 231/2 232/2 238/2 237/2
f 232/2 233/2 239/2 238/2
f 233/2 234/2 240/2 239/2
f 234/2 235/2 241/2 240/2
f 235/2 236/2 242/2 241/2
f 236/2 231/2 237/2 242/2
f 237/2 238/2 244/2 243/2
f 238/2 239/2 245/2 244/2
f 239/2 240/2 246/2 245/2
f 240/2 241/2 247/2 246/2
f 241/2 242/2 248/2 247/2
f 242/2 237/2 243/2 248/2
f 243/2 244/2 250/2 249/2
f 244/2 245/2 251/2 250/2
f 245/2 246/2 252/2 251/2
f 246/2 247/2 253/2 252/2
f 247/2 248/2 254/2 253/2
f 248/2 243/2 249/2 254/2
f 249/2 250/2 256/2 255/2
f 250/2 251/2 257/2 256/2
f 251/2 252/2 258/2 257/2
f 252/2 253/2 259/2 258/2
f 253/2 254/2 260/2 259/2
f 254/2 249/2 255/2 260/2
f 255/2 256/2 262/2 261/2
f 256/2 257/2 263/2 262/2
f 257/2 258/2 264/2 263/2
f 258/2 259/2 265/2 264/2
f 259/2 260/2 266/2 265/2
f 260/2 255/2 261/2 266/2
f 261/2 262/2 268/2 267/2
f 262/2 263/2 269/2 268/2
f 263/2 264/2 270/2 269/2
f 264/2 265/2 271/2 270/2
f 265/2 266/2 272/2 271/2
f 266/2 261/2 267/2 272/2
f 267/2 268/2 274/2 273/2
f 268/2 269/2 275/2 274/2
f 269/2 270/2 276/2 275/2
f 270/2 271/2 277/2 276/2
f 271/2 272/2 278/2 277/2
f 272/2 267/2 273/2 278/2
f 273/2 274/2 280/2 279/2
f 274/2 275/2 281/2 280/2
f 275/2 276/2 282/2 281/2
f 276/2 277/2 283/2 282/2
f 277/2 278/2 284/2 283/2
f 278/2 273/2 279/2 284/2
f 279/2 280/2 286/2 285/2
f 280/2 281/2 287/2 286/2
f 281/2 282/2 288/2 287/2
f 282/2 283/2 289/2 288/2
f 283/2 284/2 290/2 289/2
f 284/2 279/2 285/2 290/2
f 285/2 286/2 292/2 291/2
f 286/2 287/2 293/2 292/2
f 287/2 288/2 294/2 293/2
f 288/2 289/2 295/2 294/2
f 289/2 290/2 296/2 295/2
f 290/2 285/2 291/2 296/2
f 291/2 292/2 298/2 297/2
f 292/2 293/2 299/2 298/2
f 293/2 294/2 300/2 299/2
f 294/2 295/2 301/2 300/2
f 295/2 296/2 302/2 301/2
f 296/2 291/2 297/2 302/2
f 297/2 298/2 304/2 303/2
f 298/2 299/2 305/2 304/2
f 299/2 300/2 306/2 305/2
f 300/2 301/2 307/2 306/2
f 301/2 302/2 308/2 307/2
f 302/2 297/2 303/2 308/2
f 303/2 304/2 310/2 309/2
f 304/2 305/2 311/2 310/2
f 305/2 306/2 312/2 311/2
f 306/2 307/2 313/2 312/2
f 307/2 308/2 314/2 313/2
f 308/2 303/2 309/2 314/2
f 309/2 310/2 316/2 315/2
f 310/2 311/2 317/2 316/2
f 311/2 312/2 318/2 317/2
f 312/2 313/2 319/2 318/2
f 313/2 314/2 320/2 319/2
f 314/2 309/2 315/2 320/2
f 315/2 316/2 322/2 321/2
f 316/2 317/2 323/2 322/2
f 317/2 318/2 324/2 323/2
f 318/2 319/2 325/2 324/2
f 319/2 320/2 326/2 325/2
f 320/2 315/2 321/2 326/2
f 321/2 322/2 328/2 327/2
f 322/2 323/2 329/2 328/2
f 323/2 324/2 330/2 329/2
f 324/2 325/2 331/2 330/2
f 325/2 326/2 332/2 331/2
f 326/2 321/2 327/2 332/2
f 327/2 328/2 334/2 333/2
f 328/2 329/2 335/2 334/2
f 329/2 330/2 336/2 335/2
f 330/2 331/2 337/2 336/2
f 331/2 332/2 338/2 337/2
f 332/2 327/2 333/2 338/2
f 333/2 334/2 340/2 339/2
f 334/2 335/2 341/2 340/2
f 335/2 336/2 342/2 341/2
f 336/2 337/2 343/2 342/2
f 337/2 338/2 344/2 343/2
f 338/2 333/2 339/2 344/2
f 339/2 340/2 346/2 345/2
f 340/2 341/2 347/2 346/2
f 341/2 342/2 348/2 347/2
f 342/2 343/2 349/2 348/2
f 343/2 344/2 350/2 349/2
f 344/2 339/2 345/2 350/2
f 345/2 346/2 352/2 351/2
f 346/2 347/2 353/2 352/2
f 347/2 348/2 354/2 353/2
f 348/2 349/2 355/2 354/2
f 349/2 350/2 356/2 355/2
f 350/2 345/2 351/2 356/2
f 351/2 352/2 358/2 357/2
f 352/2 353/2 359/2 358/2
f 353/2 354/2 360/2 359/2
f 354/2 355/2 361/2 360/2
f 355/2 356/2 362/2 361/2
f 356/2 351/2 357/2 362/2
f 357/2 358/2 364/2 363/2
f 358/2 359/2 365/2 364/2
f 359/2 360/2 366/2 365/2
f 360/2 361/2 367/2 366/2
f 361/2 362/2 368/2 367/2
f 362/2 357/2 363/2 368/2
f 363/2 364/2 370/2 369/2
f 364/2 365/2 371/2 370/2
f 365/2 366/2 372/2 371/2
f 366/2 367/2 373/2 372/2
f 367/2 368/2 374/2 373/2
f 368/2 363/2 369/2 374/2
f 369/2 370/2 376/2 375/2
f 370/2 371/2 377/2 376/2
f 371/2 372/2 378/2 377/2
f 372/2 373/2 379/2 378/2
f 373/2 374/2 380/2 379/2
f 374/2 369/2 375/2 380/2
f 375/2 376/2 382/2 381/2
f 376/2 377/2 383/2 382/2
f 377/2 378/2 384/2 383/2
f 378/2 379/2 385/2 384/2
f 379/2 380/2 386/2 385/2
f 380/2 375/2 381/2 386/2
f 381/2 382/2 388/2 387/2
f 382/2 383/2 389/2 388/2
f 383/2 384/2 390/2 389/2
f 384/2 385/2 391/2 390/2
f 385/2 386/2 392/2 391/2
f 386/2 381/2 387/2 392/2
f 387/2 388/2 394/2 393/2
f 388/2 389/2 395/2 394/2
f 389/2 390/2 396/2 395/2
f 390/2 391/2 397/2 396/2
f 391/2 392/2 398/2 397/2
f 392/2 387/2 393/2 398/2
f 393/2 394/2 400/2 399/2
f 394/2 395/2 401/2 400/2
f 395/2 396/2 402/2 401/2
f 396/2 397/2 403/2 402/2
f 397/2 398/2 404/2 403/2
f 398/2 393/2 399/2 404/2
f 399/2 400/2 166/2 165/2
f 400/2 401/2 167/2 166/2
f 401/2 402/2 168/2 167/2
f 402/2 403/2 169/2 168/2
f 403/2 404/2 170/2 169/2
f 404/2 399/2 165/2 170/2
f 713/2 714/2 690/2 689/2
f 714/2 715/2 691/2 690/2
f 715/2 716/2 692/2 691/2
f 716/2 717/2 693/2 692/2
f 717/2 718/2 694/2 693/2
f 718/2 719/2 695/2 694/2
f 719/2 720/2 696/2 695/2
f 720/2 721/2 697/2 696/2
f 721/2 722/2 698/2 697/2
f 722/2 723/2 699/2 698/2
f 723/2 724/2 700/2 699/2
f 724/2 725/2 701/2 700/2
f 725/2 726/2 702/2 701/2
f 726/2 727/2 703/2 702/2
f 727/2 728/2 704/2 703/2
f 728/2 729/2 705/2 704/2
f 729/2 730/2 706/2 705/2
f 730/2 731/2 707/2 706/2
f 731/2 732/2 708/2 707/2
f 732/2 733/2 709/2 708/2
f 733/2 734/2 710/2 709/2
f 734/2 735/2 711/2 710/2
f 735/2 736/2 712/2 711/2
f 736/2 713/2 689/2 712/2
f 761/2 762/2 738/2 737/2
f 762/2 763/2 739/2 738/2
f 763/2 764/2 740/2 739/2
f 764/2 765/2 741/2 740/2
f 765/2 766/2 742/2 741/2
f 766/2 767/2 743/2 742/2
f 767/2 768/2 744/2 743/2
f 768/2 769/2 745/2 744/2
f 769/2 770/2 746/2 745/2
f 770/2 771/2 747/2 746/2
f 771/2 772/2 748/2 747/2
f 772/2 773/2 749/2 748/2
f 773/2 774/2 750/2 749/2
f 774/2 775/2 751/2 750/2
f 775/2 776/2 752/2 751/2
f 776/2 777/2 753/2 752/2
f 777/2 778/2 754/2 753/2
f 778/2 779/2 755/2 754/2
f 779/2 780/2 756/2 755/2
f 780/2 781/2 757/2 756/2
f 781/2 782/2 758/2 757/2
f 782/2 783/2 759/2 758/2
f 783/2 784/2 760/2 759/2
f 784/2 761/2 737/2 760/2
f 857/2 858/2 866/2 865/2
f 873/2 858/2 857/2
f 874/2 865/2 866/2
f 858/2 859/2 867/2 866/2
f 873/2 859/2 858/2
f 874/2 866/2 867/2
f 859/2 860/2 868/2 867/2
f 873/2 860/2 859/2
f 874/2 867/2 868/2
f 860/2 861/2 869/2 868/2
f 873/2 861/2 860/2
f 874/2 868/2 869/2
f 861/2 862/2 870/2 869/2
f 873/2 862/2 861/2
f 874/2 869/2 870/2
f 862/2 863/2 871/2 870/2
f 873/2 863/2 862/2
f 874/2 870/2 871/2
f 863/2 864/2 872/2 871/2
f 873/2 864/2 863/2
f 874/2 871/2 872/2
f 864/2 857/2 865/2 872/2
f 873/2 857/2 864/2
f 874/2 872/2 865/2
f 917/2 918/2 926/2 925/2
f 933/2 918/2 917/2
f 934/2 925/2 926/2
f 918/2 919/2 927/2 926/2
f 933/2 919/2 918/2
f 934/2 926/2 927/2
f 919/2 920/2 928/2 927/2
f 933/2 920/2 919/2
f 934/2 927/2 928/2
f 920/2 921/2 929/2 928/2
f 933/2 921/2 920/2
f 934/2 928/2 929/2
f 921/2 922/2 930/2 929/2
f 933/2 922/2 921/2
f 934/2 929/2 930/2
f 922/2 923/2 931/2 930/2
f 933/2 923/2 922/2
f 934/2 930/2 931/2
f 923/2 924/2 932/2 931/2
f 933/2 924/2 923/2
f 934/2 931/2 932/2
f 924/2 917/2 925/2 932/2
f 933/2 917/2 924/2
f 934/2 932/2 925/2
f 977/2 978/2 986/2 985/2
f 993/2 978/2 977/2
f 994/2 985/2 986/2
f 978/2 979/2 987/2 986/2
f 993/2 979/2 978/2
f 994/2 986/2 987/2
f 979/2 980/2 988/2 987/2
f 993/2 980/2 979/2
f 994/2 987/2 988/2
f 980/2 981/2 989/2 988/2
f 993/2 981/2 980/2
f 994/2 988/2 989/2
f 981/2 982/2 990/2 989/2
f 993/2 982/2 981/2
f 994/2 989/2 990/2
f 982/2 983/2 991/2 990/2
f 993/2 983/2 982/2
f 994/2 990/2 991/2
f 983/2 984/2 992/2 991/2
f 993/2 984/2 983/2
f 994/2 991/2 992/2
f 984/2 977/2 985/2 992/2
f 993/2 977/2 984/2
f 994/2 992/2 985/2
f 1037/2 1038/2 1046/2 1045/2
f 1053/2 1038/2 1037/2
f 1054/2 1045/2 1046/2
f 1038/2 1039/2 1047/2 1046/2
f 1053/2 1039/2 1038/2
f 1054/2 1046/2 1047/2
f 1039/2 1040/2 1048/2 1047/2
f 1053/2 1040/2 1039/2
f 1054/2 1047/2 1048/2
f 1040/2 1041/2 1049/2 1048/2
f 1053/2 1041/2 1040/2
f 1054/2 1048/2 1049/2
f 1041/2 1042/2 1050/2 1049/2
f 1053/2 1042/2 1041/2
f 1054/2 1049/2 1050/2
f 1042/2 1043/2 1051/2 1050/2
f 1053/2 1043/2 1042/2
f 1054/2 1050/2 1051/2
f 1043/2 1044/2 1052/2 1051/2
f 1053/2 1044/2 1043/2
f 1054/2 1051/2 1052/2
f 1044/2 1037/2 1045/2 1052/2
f 1053/2 1037/2 1044/2
f 1054/2 1052/2 1045/2
f 1097/2 1098/2 1106/2 1105/2
f 1113/2 1098/2 1097/2
f 1114/2 1105/2 1106/2
f 1098/2 1099/2 1107/2 1106/2
f 1113/2 1099/2 1098/2
f 1114/2 1106/2 1107/2
f 1099/2 1100/2 1108/2 1107/2
f 1113/2 1100/2 1099/2
f 1114/2 1107/2 1108/2
f 1100/2 1101/2 1109/2 1108/2
f 1113/2 1101/2 1100/2
f 1114/2 1108/2 1109/2
f 1101/2 1102/2 1110/2 1109/2
f 1113/2 1102/2 1101/2
f 1114/2 1109/2 1110/2
f 1102/2 1103/2 1111/2 1110/2
f 1113/2 1103/2 1102/2
f 1114/2 1110/2 1111/2
f 1103/2 1104/2 1112/2 1111/2
f 1113/2 1104/2 1103/2
f 1114/2 1111/2 1112/2
f 1104/2 1097/2 1105/2 1112/2
f 1113/2 1097/2 1104/2
f 1114/2 1112/2 1105/2
f 1157/2 1158/2 1166/2 1165/2
f 1173/2 1158/2 1157/2
f 1174/2 1165/2 1166/2
f 1158/2 1159/2 1167/2 1166/2
f 1173/2 1159/2 1158/2
f 1174/2 1166/2 1167/2
f 1159/2 1160/2 1168/2 1167/2
f 1173/2 1160/2 1159/2
f 1174/2 1167/2 1168/2
f 1160/2 1161/2 1169/2 1168/2
f 1173/2 1161/2 1160/2
f 1174/2 1168/2 1169/2
f 1161/2 1162/2 1170/2 1169/2
f 1173/2 1162/2 1161/2
f 1174/2 1169/2 1170/2
f 1162/2 1163/2 1171/2 1170/2
f 1173/2 1163/2 1162/2
f 1174/2 1170/2 1171/2
f 1163/2 1164/2 1172/2 1171/2
f 1173/2 1164/2 1163/2
f 1174/2 1171/2 1172/2
f 1164/2 1157/2 1165/2 1172/2
f 1173/2 1157/2 1164/2
f 1174/2 1172/2 1165/2
usemtl wood
f 689/5 690/5 666/5 665/5
f 690/5 691/5 667/5 666/5
f 691/5 692/5 668/5 667/5
f 692/5 693/5 669/5 668/5
f 693/5 694/5 670/5 669/5
f 694/5 695/5 671/5 670/5
f 695/5 696/5 672/5 671/5
f 696/5 697/5 673/5 672/5
f 697/5 698/5 674/5 673/5
f 698/5 699/5 675/5 674/5
f 699/5 700/5 676/5 675/5
f 700/5 701/5 677/5 676/5
f 701/5 702/5 678/5 677/5
f 702/5 703/5 679/5 678/5
f 703/5 704/5 680/5 679/5
f 704/5 705/5 681/5 680/5
f 705/5 706/5 682/5 681/5
f 706/5 707/5 683/5 682/5
f 707/5 708/5 684/5 683/5
f 708/5 709/5 685/5 684/5
f 709/5 710/5 686/5 685/5
f 710/5 711/5 687/5 686/5
f 711/5 712/5 688/5 687/5
f 712/5 689/5 665/5 688/5
usemtl mint
f 809/3 810/3 786/3 785/3
f 810/3 811/3 787/3 786/3
f 811/3 812/3 788/3 787/3
f 812/3 813/3 789/3 788/3
f 813/3 814/3 790/3 789/3
f 814/3 815/3 791/3 790/3
f 815/3 816/3 792/3 791/3
f 816/3 817/3 793/3 792/3
f 817/3 818/3 794/3 793/3
f 818/3 819/3 795/3 794/3
f 819/3 820/3 796/3 795/3
f 820/3 821/3 797/3 796/3
f 821/3 822/3 798/3 797/3
f 822/3 823/3 799/3 798/3
f 823/3 824/3 800/3 799/3
f 824/3 825/3 801/3 800/3
f 825/3 826/3 802/3 801/3
f 826/3 827/3 803/3 802/3
f 827/3 828/3 804/3 803/3
f 828/3 829/3 805/3 804/3
f 829/3 830/3 806/3 805/3
f 830/3 831/3 807/3 806/3
f 831/3 832/3 808/3 807/3
f 832/3 809/3 785/3 808/3
f 876/3 878/3 877/3 875/3
f 875/3 877/3 915/3
f 878/3 876/3 916/3
f 878/3 880/3 879/3 877/3
f 877/3 879/3 915/3
f 880/3 878/3 916/3
f 880/3 882/3 881/3 879/3
f 879/3 881/3 915/3
f 882/3 880/3 916/3
f 882/3 884/3 883/3 881/3
f 881/3 883/3 915/3
f 884/3 882/3 916/3
f 884/3 886/3 885/3 883/3
f 883/3 885/3 915/3
f 886/3 884/3 916/3
f 886/3 888/3 887/3 885/3
f 885/3 887/3 915/3
f 888/3 886/3 916/3
f 888/3 890/3 889/3 887/3
f 887/3 889/3 915/3
f 890/3 888/3 916/3
f 890/3 892/3 891/3 889/3
f 889/3 891/3 915/3
f 892/3 890/3 916/3
f 892/3 894/3 893/3 891/3
f 891/3 893/3 915/3
f 894/3 892/3 916/3
f 894/3 896/3 895/3 893/3
f 893/3 895/3 915/3
f 896/3 894/3 916/3
f 896/3 898/3 897/3 895/3
f 895/3 897/3 915/3
f 898/3 896/3 916/3
f 898/3 900/3 899/3 897/3
f 897/3 899/3 915/3
f 900/3 898/3 916/3
f 900/3 902/3 901/3 899/3
f 899/3 901/3 915/3
f 902/3 900/3 916/3
f 902/3 904/3 903/3 901/3
f 901/3 903/3 915/3
f 904/3 902/3 916/3
f 904/3 906/3 905/3 903/3
f 903/3 905/3 915/3
f 906/3 904/3 916/3
f 906/3 908/3 907/3 905/3
f 905/3 907/3 915/3
f 908/3 906/3 916/3
f 908/3 910/3 909/3 907/3
f 907/3 909/3 915/3
f 910/3 908/3 916/3
f 910/3 912/3 911/3 909/3
f 909/3 911/3 915/3
f 912/3 910/3 916/3
f 912/3 914/3 913/3 911/3
f 911/3 913/3 915/3
f 914/3 912/3 916/3
f 914/3 876/3 875/3 913/3
f 913/3 875/3 915/3
f 876/3 914/3 916/3
f 936/3 938/3 937/3 935/3
f 935/3 937/3 975/3
f 938/3 936/3 976/3
f 938/3 940/3 939/3 937/3
f 937/3 939/3 975/3
f 940/3 938/3 976/3
f 940/3 942/3 941/3 939/3
f 939/3 941/3 975/3
f 942/3 940/3 976/3
f 942/3 944/3 943/3 941/3
f 941/3 943/3 975/3
f 944/3 942/3 976/3
f 944/3 946/3 945/3 943/3
f 943/3 945/3 975/3
f 946/3 944/3 976/3
f 946/3 948/3 947/3 945/3
f 945/3 947/3 975/3
f 948/3 946/3 976/3
f 948/3 950/3 949/3 947/3
f 947/3 949/3 975/3
f 950/3 948/3 976/3
f 950/3 952/3 951/3 949/3
f 949/3 951/3 975/3
f 952/3 950/3 976/3
f 952/3 954/3 953/3 951/3
f 951/3 953/3 975/3
f 954/3 952/3 976/3
f 954/3 956/3 955/3 953/3
f 953/3 955/3 975/3
f 956/3 954/3 976/3
f 956/3 958/3 957/3 955/3
f 955/3 957/3 975/3
f 958/3 956/3 976/3
f 958/3 960/3 959/3 957/3
f 957/3 959/3 975/3
f 960/3 958/3 976/3
f 960/3 962/3 961/3 959/3
f 959/3 961/3 975/3
f 962/3 960/3 976/3
f 962/3 964/3 963/3 961/3
f 961/3 963/3 975/3
f 964/3 962/3 976/3
f 964/3 966/3 965/3 963/3
f 963/3 965/3 975/3
f 966/3 964/3 976/3
f 966/3 968/3 967/3 965/3
f 965/3 967/3 975/3
f 968/3 966/3 976/3
f 968/3 970/3 969/3 967/3
f 967/3 969/3 975/3
f 970/3 968/3 976/3
f 970/3 972/3 971/3 969/3
f 969/3 971/3 975/3
f 972/3 970/3 976/3
f 972/3 974/3 973/3 971/3
f 971/3 973/3 975/3
f 974/3 972/3 976/3
f 974/3 936/3 935/3 973/3
f 973/3 935/3 975/3
f 936/3 974/3 976/3
f 996/3 998/3 997/3 995/3
f 995/3 997/3 1035/3
f 998/3 996/3 1036/3
f 998/3 1000/3 999/3 997/3
f 997/3 999/3 1035/3
f 1000/3 998/3 1036/3
f 1000/3 1002/3 1001/3 999/3
f 999/3 1001/3 1035/3
f 1002/3 1000/3 1036/3
f 1002/3 1004/3 1003/3 1001/3
f 1001/3 1003/3 1035/3
f 1004/3 1002/3 1036/3
f 1004/3 1006/3 1005/3 1003/3
f 1003/3 1005/3 1035/3
f 1006/3 1004/3 1036/3
f 1006/3 1008/3 1007/3 1005/3
f 1005/3 1007/3 1035/3
f 1008/3 1006/3 1036/3
f 1008/3 1010/3 1009/3 1007/3
f 1007/3 1009/3 1035/3
f 1010/3 1008/3 1036/3
f 1010/3 1012/3 1011/3 1009/3
f 1009/3 1011/3 1035/3
f 1012/3 1010/3 1036/3
f 1012/3 1014/3 1013/3 1011/3
f 1011/3 1013/3 1035/3
f 1014/3 1012/3 1036/3
f 1014/3 1016/3 1015/3 1013/3
f 1013/3 1015/3 1035/3
f 1016/3 1014/3 1036/3
f 1016/3 1018/3 1017/3 1015/3
f 1015/3 1017/3 1035/3
f 1018/3 1016/3 1036/3
f 1018/3 1020/3 1019/3 1017/3
f 1017/3 1019/3 1035/3
f 1020/3 1018/3 1036/3
f 1020/3 1022/3 1021/3 1019/3
f 1019/3 1021/3 1035/3
f 1022/3 1020/3 1036/3
f 1022/3 1024/3 1023/3 1021/3
f 1021/3 1023/3 1035/3
f 1024/3 1022/3 1036/3
f 1024/3 1026/3 1025/3 1023/3
f 1023/3 1025/3 1035/3
f 1026/3 1024/3 1036/3
f 1026/3 1028/3 1027/3 1025/3
f 1025/3 1027/3 1035/3
f 1028/3 1026/3 1036/3
f 1028/3 1030/3 1029/3 1027/3
f 1027/3 1029/3 1035/3
f 1030/3 1028/3 1036/3
f 1030/3 1032/3 1031/3 1029/3
f 1029/3 1031/3 1035/3
f 1032/3 1030/3 1036/3
f 1032/3 1034/3 1033/3 1031/3
f 1031/3 1033/3 1035/3
f 1034/3 1032/3 1036/3
f 1034/3 996/3 995/3 1033/3
f 1033/3 995/3 1035/3
f 996/3 1034/3 1036/3
f 1056/3 1058/3 1057/3 1055/3
f 1055/3 1057/3 1095/3
f 1058/3 1056/3 1096/3
f 1058/3 1060/3 1059/3 1057/3
f 1057/3 1059/3 1095/3
f 1060/3 1058/3 1096/3
f 1060/3 1062/3 1061/3 1059/3
f 1059/3 1061/3 1095/3
f 1062/3 1060/3 1096/3
f 1062/3 1064/3 1063/3 1061/3
f 1061/3 1063/3 1095/3
f 1064/3 1062/3 1096/3
f 1064/3 1066/3 1065/3 1063/3
f 1063/3 1065/3 1095/3
f 1066/3 1064/3 1096/3
f 1066/3 1068/3 1067/3 1065/3
f 1065/3 1067/3 1095/3
f 1068/3 1066/3 1096/3
f 1068/3 1070/3 1069/3 1067/3
f 1067/3 1069/3 1095/3
f 1070/3 1068/3 1096/3
f 1070/3 1072/3 1071/3 1069/3
f 1069/3 1071/3 1095/3
f 1072/3 1070/3 1096/3
f 1072/3 1074/3 1073/3 1071/3
f 1071/3 1073/3 1095/3
f 1074/3 1072/3 1096/3
f 1074/3 1076/3 1075/3 1073/3
f 1073/3 1075/3 1095/3
f 1076/3 1074/3 1096/3
f 1076/3 1078/3 1077/3 1075/3
f 1075/3 1077/3 1095/3
f 1078/3 1076/3 1096/3
f 1078/3 1080/3 1079/3 1077/3
f 1077/3 1079/3 1095/3
f 1080/3 1078/3 1096/3
f 1080/3 1082/3 1081/3 1079/3
f 1079/3 1081/3 1095/3
f 1082/3 1080/3 1096/3
f 1082/3 1084/3 1083/3 1081/3
f 1081/3 1083/3 1095/3
f 1084/3 1082/3 1096/3
f 1084/3 1086/3 1085/3 1083/3
f 1083/3 1085/3 1095/3
f 1086/3 1084/3 1096/3
f 1086/3 1088/3 1087/3 1085/3
f 1085/3 1087/3 1095/3
f 1088/3 1086/3 1096/3
f 1088/3 1090/3 1089/3 1087/3
f 1087/3 1089/3 1095/3
f 1090/3 1088/3 1096/3
f 1090/3 1092/3 1091/3 1089/3
f 1089/3 1091/3 1095/3
f 1092/3 1090/3 1096/3
f 1092/3 1094/3 1093/3 1091/3
f 1091/3 1093/3 1095/3
f 1094/3 1092/3 1096/3
f 1094/3 1056/3 1055/3 1093/3
f 1093/3 1055/3 1095/3
f 1056/3 1094/3 1096/3
f 1116/3 1118/3 1117/3 1115/3
f 1115/3 1117/3 1155/3
f 1118/3 1116/3 1156/3
f 1118/3 1120/3 1119/3 1117/3
f 1117/3 1119/3 1155/3
f 1120/3 1118/3 1156/3
f 1120/3 1122/3 1121/3 1119/3
f 1119/3 1121/3 1155/3
f 1122/3 1120/3 1156/3
f 1122/3 1124/3 1123/3 1121/3
f 1121/3 1123/3 1155/3
f 1124/3 1122/3 1156/3
f 1124/3 1126/3 1125/3 1123/3
f 1123/3 1125/3 1155/3
f 1126/3 1124/3 1156/3
f 1126/3 1128/3 1127/3 1125/3
f 1125/3 1127/3 1155/3
f 1128/3 1126/3 1156/3
f 1128/3 1130/3 1129/3 1127/3
f 1127/3 1129/3 1155/3
f 1130/3 1128/3 1156/3
f 1130/3 1132/3 1131/3 1129/3
f 1129/3 1131/3 1155/3
f 1132/3 1130/3 1156/3
f 1132/3 1134/3 1133/3 1131/3
f 1131/3 1133/3 1155/3
f 1134/3 1132/3 1156/3
f 1134/3 1136/3 1135/3 1133/3
f 1133/3 1135/3 1155/3
f 1136/3 1134/3 1156/3
f 1136/3 1138/3 1137/3 1135/3
f 1135/3 1137/3 1155/3
f 1138/3 1136/3 1156/3
f 1138/3 1140/3 1139/3 1137/3
f 1137/3 1139/3 1155/3
f 1140/3 1138/3 1156/3
f 1140/3 1142/3 1141/3 1139/3
f 1139/3 1141/3 1155/3
f 1142/3 1140/3 1156/3
f 1142/3 1144/3 1143/3 1141/3
f 1141/3 1143/3 1155/3
f 1144/3 1142/3 1156/3
f 1144/3 1146/3 1145/3 1143/3
f 1143/3 1145/3 1155/3
f 1146/3 1144/3 1156/3
f 1146/3 1148/3 1147/3 1145/3
f 1145/3 1147/3 1155/3
f 1148/3 1146/3 1156/3
f 1148/3 1150/3 1149/3 1147/3
f 1147/3 1149/3 1155/3
f 1150/3 1148/3 1156/3
f 1150/3 1152/3 1151/3 1149/3
f 1149/3 1151/3 1155/3
f 1152/3 1150/3 1156/3
f 1152/3 1154/3 1153/3 1151/3
f 1151/3 1153/3 1155/3
f 1154/3 1152/3 1156/3
f 1154/3 1116/3 1115/3 1153/3
f 1153/3 1115/3 1155/3
f 1116/3 1154/3 1156/3
f 1176/3 1178/3 1177/3 1175/3
f 1175/3 1177/3 1215/3
f 1178/3 1176/3 1216/3
f 1178/3 1180/3 1179/3 1177/3
f 1177/3 1179/3 1215/3
f 1180/3 1178/3 1216/3
f 1180/3 1182/3 1181/3 1179/3
f 1179/3 1181/3 1215/3
f 1182/3 1180/3 1216/3
f 1182/3 1184/3 1183/3 1181/3
f 1181/3 1183/3 1215/3
f 1184/3 1182/3 1216/3
f 1184/3 1186/3 1185/3 1183/3
f 1183/3 1185/3 1215/3
f 1186/3 1184/3 1216/3
f 1186/3 1188/3 1187/3 1185/3
f 1185/3 1187/3 1215/3
f 1188/3 1186/3 1216/3
f 1188/3 1190/3 1189/3 1187/3
f 1187/3 1189/3 1215/3
f 1190/3 1188/3 1216/3
f 1190/3 1192/3 1191/3 1189/3
f 1189/3 1191/3 1215/3
f 1192/3 1190/3 1216/3
f 1192/3 1194/3 1193/3 1191/3
f 1191/3 1193/3 1215/3
f 1194/3 1192/3 1216/3
f 1194/3 1196/3 1195/3 1193/3
f 1193/3 1195/3 1215/3
f 1196/3 1194/3 1216/3
f 1196/3 1198/3 1197/3 1195/3
f 1195/3 1197/3 1215/3
f 1198/3 1196/3 1216/3
f 1198/3 1200/3 1199/3 1197/3
f 1197/3 1199/3 1215/3
f 1200/3 1198/3 1216/3
f 1200/3 1202/3 1201/3 1199/3
f 1199/3 1201/3 1215/3
f 1202/3 1200/3 1216/3
f 1202/3 1204/3 1203/3 1201/3
f 1201/3 1203/3 1215/3
f 1204/3 1202/3 1216/3
f 1204/3 1206/3 1205/3 1203/3
f 1203/3 1205/3 1215/3
f 1206/3 1204/3 1216/3
f 1206/3 1208/3 1207/3 1205/3
f 1205/3 1207/3 1215/3
f 1208/3 1206/3 1216/3
f 1208/3 1210/3 1209/3 1207/3
f 1207/3 1209/3 1215/3
f 1210/3 1208/3 1216/3
f 1210/3 1212/3 1211/3 1209/3
f 1209/3 1211/3 1215/3
f 1212/3 1210/3 1216/3
f 1212/3 1214/3 1213/3 1211/3
f 1211/3 1213/3 1215/3
f 1214/3 1212/3 1216/3
f 1214/3 1176/3 1175/3 1213/3
f 1213/3 1175/3 1215/3
f 1176/3 1214/3 1216/3
usemtl gold
f 1218/4 1217/4 1237/4
f 1227/4 1228/4 1238/4
f 1218/4 1228/4 1227/4 1217/4
f 1219/4 1218/4 1237/4
f 1228/4 1229/4 1238/4
f 1219/4 1229/4 1228/4 1218/4
f 1220/4 1219/4 1237/4
f 1229/4 1230/4 1238/4
f 1220/4 1230/4 1229/4 1219/4
f 1221/4 1220/4 1237/4
f 1230/4 1231/4 1238/4
f 1221/4 1231/4 1230/4 1220/4
f 1222/4 1221/4 1237/4
f 1231/4 1232/4 1238/4
f 1222/4 1232/4 1231/4 1221/4
f 1223/4 1222/4 1237/4
f 1232/4 1233/4 1238/4
f 1223/4 1233/4 1232/4 1222/4
f 1224/4 1223/4 1237/4
f 1233/4 1234/4 1238/4
f 1224/4 1234/4 1233/4 1223/4
f 1225/4 1224/4 1237/4
f 1234/4 1235/4 1238/4
f 1225/4 1235/4 1234/4 1224/4
f 1226/4 1225/4 1237/4
f 1235/4 1236/4 1238/4
f 1226/4 1236/4 1235/4 1225/4
f 1217/4 1226/4 1237/4
f 1236/4 1227/4 1238/4
f 1217/4 1227/4 1236/4 1226/4
