# ParkParkBunnyHub — ParkPark original fairground mesh
mtllib ParkParkFairground.mtl
o ParkParkBunnyHub
v 6.80000 0.00000 0.00000
v 6.80000 0.50000 0.00000
v 6.71628 0.00000 1.06375
v 6.71628 0.50000 1.06375
v 6.46718 0.00000 2.10132
v 6.46718 0.50000 2.10132
v 6.05884 0.00000 3.08714
v 6.05884 0.50000 3.08714
v 5.50132 0.00000 3.99694
v 5.50132 0.50000 3.99694
v 4.80833 0.00000 4.80833
v 4.80833 0.50000 4.80833
v 3.99694 0.00000 5.50132
v 3.99694 0.50000 5.50132
v 3.08714 0.00000 6.05884
v 3.08714 0.50000 6.05884
v 2.10132 0.00000 6.46718
v 2.10132 0.50000 6.46718
v 1.06375 0.00000 6.71628
v 1.06375 0.50000 6.71628
v 0.00000 0.00000 6.80000
v 0.00000 0.50000 6.80000
v -1.06375 0.00000 6.71628
v -1.06375 0.50000 6.71628
v -2.10132 0.00000 6.46718
v -2.10132 0.50000 6.46718
v -3.08714 0.00000 6.05884
v -3.08714 0.50000 6.05884
v -3.99694 0.00000 5.50132
v -3.99694 0.50000 5.50132
v -4.80833 0.00000 4.80833
v -4.80833 0.50000 4.80833
v -5.50132 0.00000 3.99694
v -5.50132 0.50000 3.99694
v -6.05884 0.00000 3.08714
v -6.05884 0.50000 3.08714
v -6.46718 0.00000 2.10132
v -6.46718 0.50000 2.10132
v -6.71628 0.00000 1.06375
v -6.71628 0.50000 1.06375
v -6.80000 0.00000 0.00000
v -6.80000 0.50000 0.00000
v -6.71628 0.00000 -1.06375
v -6.71628 0.50000 -1.06375
v -6.46718 0.00000 -2.10132
v -6.46718 0.50000 -2.10132
v -6.05884 0.00000 -3.08714
v -6.05884 0.50000 -3.08714
v -5.50132 0.00000 -3.99694
v -5.50132 0.50000 -3.99694
v -4.80833 0.00000 -4.80833
v -4.80833 0.50000 -4.80833
v -3.99694 0.00000 -5.50132
v -3.99694 0.50000 -5.50132
v -3.08714 0.00000 -6.05884
v -3.08714 0.50000 -6.05884
v -2.10132 0.00000 -6.46718
v -2.10132 0.50000 -6.46718
v -1.06375 0.00000 -6.71628
v -1.06375 0.50000 -6.71628
v -0.00000 0.00000 -6.80000
v -0.00000 0.50000 -6.80000
v 1.06375 0.00000 -6.71628
v 1.06375 0.50000 -6.71628
v 2.10132 0.00000 -6.46718
v 2.10132 0.50000 -6.46718
v 3.08714 0.00000 -6.05884
v 3.08714 0.50000 -6.05884
v 3.99694 0.00000 -5.50132
v 3.99694 0.50000 -5.50132
v 4.80833 0.00000 -4.80833
v 4.80833 0.50000 -4.80833
v 5.50132 0.00000 -3.99694
v 5.50132 0.50000 -3.99694
v 6.05884 0.00000 -3.08714
v 6.05884 0.50000 -3.08714
v 6.46718 0.00000 -2.10132
v 6.46718 0.50000 -2.10132
v 6.71628 0.00000 -1.06375
v 6.71628 0.50000 -1.06375
v 0.00000 0.00000 0.00000
v 0.00000 0.50000 0.00000
v 6.50000 0.50000 0.00000
v 6.50000 0.72000 0.00000
v 6.41997 0.50000 1.01682
v 6.41997 0.72000 1.01682
v 6.18187 0.50000 2.00861
v 6.18187 0.72000 2.00861
v 5.79154 0.50000 2.95094
v 5.79154 0.72000 2.95094
v 5.25861 0.50000 3.82060
v 5.25861 0.72000 3.82060
v 4.59619 0.50000 4.59619
v 4.59619 0.72000 4.59619
v 3.82060 0.50000 5.25861
v 3.82060 0.72000 5.25861
v 2.95094 0.50000 5.79154
v 2.95094 0.72000 5.79154
v 2.00861 0.50000 6.18187
v 2.00861 0.72000 6.18187
v 1.01682 0.50000 6.41997
v 1.01682 0.72000 6.41997
v 0.00000 0.50000 6.50000
v 0.00000 0.72000 6.50000
v -1.01682 0.50000 6.41997
v -1.01682 0.72000 6.41997
v -2.00861 0.50000 6.18187
v -2.00861 0.72000 6.18187
v -2.95094 0.50000 5.79154
v -2.95094 0.72000 5.79154
v -3.82060 0.50000 5.25861
v -3.82060 0.72000 5.25861
v -4.59619 0.50000 4.59619
v -4.59619 0.72000 4.59619
v -5.25861 0.50000 3.82060
v -5.25861 0.72000 3.82060
v -5.79154 0.50000 2.95094
v -5.79154 0.72000 2.95094
v -6.18187 0.50000 2.00861
v -6.18187 0.72000 2.00861
v -6.41997 0.50000 1.01682
v -6.41997 0.72000 1.01682
v -6.50000 0.50000 0.00000
v -6.50000 0.72000 0.00000
v -6.41997 0.50000 -1.01682
v -6.41997 0.72000 -1.01682
v -6.18187 0.50000 -2.00861
v -6.18187 0.72000 -2.00861
v -5.79154 0.50000 -2.95094
v -5.79154 0.72000 -2.95094
v -5.25861 0.50000 -3.82060
v -5.25861 0.72000 -3.82060
v -4.59619 0.50000 -4.59619
v -4.59619 0.72000 -4.59619
v -3.82060 0.50000 -5.25861
v -3.82060 0.72000 -5.25861
v -2.95094 0.50000 -5.79154
v -2.95094 0.72000 -5.79154
v -2.00861 0.50000 -6.18187
v -2.00861 0.72000 -6.18187
v -1.01682 0.50000 -6.41997
v -1.01682 0.72000 -6.41997
v -0.00000 0.50000 -6.50000
v -0.00000 0.72000 -6.50000
v 1.01682 0.50000 -6.41997
v 1.01682 0.72000 -6.41997
v 2.00861 0.50000 -6.18187
v 2.00861 0.72000 -6.18187
v 2.95094 0.50000 -5.79154
v 2.95094 0.72000 -5.79154
v 3.82060 0.50000 -5.25861
v 3.82060 0.72000 -5.25861
v 4.59619 0.50000 -4.59619
v 4.59619 0.72000 -4.59619
v 5.25861 0.50000 -3.82060
v 5.25861 0.72000 -3.82060
v 5.79154 0.50000 -2.95094
v 5.79154 0.72000 -2.95094
v 6.18187 0.50000 -2.00861
v 6.18187 0.72000 -2.00861
v 6.41997 0.50000 -1.01682
v 6.41997 0.72000 -1.01682
v 0.00000 0.50000 0.00000
v 0.00000 0.72000 0.00000
v 6.72000 0.74000 0.00000
v 6.66000 0.84392 0.00000
v 6.54000 0.84392 0.00000
v 6.48000 0.74000 0.00000
v 6.54000 0.63608 0.00000
v 6.66000 0.63608 0.00000
v 6.63727 0.74000 1.05124
v 6.57800 0.84392 1.04185
v 6.45948 0.84392 1.02308
v 6.40022 0.74000 1.01370
v 6.45948 0.63608 1.02308
v 6.57800 0.63608 1.04185
v 6.39110 0.74000 2.07659
v 6.33404 0.84392 2.05805
v 6.21991 0.84392 2.02097
v 6.16285 0.74000 2.00243
v 6.21991 0.63608 2.02097
v 6.33404 0.63608 2.05805
v 5.98756 0.74000 3.05082
v 5.93410 0.84392 3.02358
v 5.82718 0.84392 2.96910
v 5.77372 0.74000 2.94186
v 5.82718 0.63608 2.96910
v 5.93410 0.63608 3.02358
v 5.43659 0.74000 3.94992
v 5.38805 0.84392 3.91465
v 5.29097 0.84392 3.84412
v 5.24243 0.74000 3.80885
v 5.29097 0.63608 3.84412
v 5.38805 0.63608 3.91465
v 4.75176 0.74000 4.75176
v 4.70933 0.84392 4.70933
v 4.62448 0.84392 4.62448
v 4.58205 0.74000 4.58205
v 4.62448 0.63608 4.62448
v 4.70933 0.63608 4.70933
v 3.94992 0.74000 5.43659
v 3.91465 0.84392 5.38805
v 3.84412 0.84392 5.29097
v 3.80885 0.74000 5.24243
v 3.84412 0.63608 5.29097
v 3.91465 0.63608 5.38805
v 3.05082 0.74000 5.98756
v 3.02358 0.84392 5.93410
v 2.96910 0.84392 5.82718
v 2.94186 0.74000 5.77372
v 2.96910 0.63608 5.82718
v 3.02358 0.63608 5.93410
v 2.07659 0.74000 6.39110
v 2.05805 0.84392 6.33404
v 2.02097 0.84392 6.21991
v 2.00243 0.74000 6.16285
v 2.02097 0.63608 6.21991
v 2.05805 0.63608 6.33404
v 1.05124 0.74000 6.63727
v 1.04185 0.84392 6.57800
v 1.02308 0.84392 6.45948
v 1.01370 0.74000 6.40022
v 1.02308 0.63608 6.45948
v 1.04185 0.63608 6.57800
v 0.00000 0.74000 6.72000
v 0.00000 0.84392 6.66000
v 0.00000 0.84392 6.54000
v 0.00000 0.74000 6.48000
v 0.00000 0.63608 6.54000
v 0.00000 0.63608 6.66000
v -1.05124 0.74000 6.63727
v -1.04185 0.84392 6.57800
v -1.02308 0.84392 6.45948
v -1.01370 0.74000 6.40022
v -1.02308 0.63608 6.45948
v -1.04185 0.63608 6.57800
v -2.07659 0.74000 6.39110
v -2.05805 0.84392 6.33404
v -2.02097 0.84392 6.21991
v -2.00243 0.74000 6.16285
v -2.02097 0.63608 6.21991
v -2.05805 0.63608 6.33404
v -3.05082 0.74000 5.98756
v -3.02358 0.84392 5.93410
v -2.96910 0.84392 5.82718
v -2.94186 0.74000 5.77372
v -2.96910 0.63608 5.82718
v -3.02358 0.63608 5.93410
v -3.94992 0.74000 5.43659
v -3.91465 0.84392 5.38805
v -3.84412 0.84392 5.29097
v -3.80885 0.74000 5.24243
v -3.84412 0.63608 5.29097
v -3.91465 0.63608 5.38805
v -4.75176 0.74000 4.75176
v -4.70933 0.84392 4.70933
v -4.62448 0.84392 4.62448
v -4.58205 0.74000 4.58205
v -4.62448 0.63608 4.62448
v -4.70933 0.63608 4.70933
v -5.43659 0.74000 3.94992
v -5.38805 0.84392 3.91465
v -5.29097 0.84392 3.84412
v -5.24243 0.74000 3.80885
v -5.29097 0.63608 3.84412
v -5.38805 0.63608 3.91465
v -5.98756 0.74000 3.05082
v -5.93410 0.84392 3.02358
v -5.82718 0.84392 2.96910
v -5.77372 0.74000 2.94186
v -5.82718 0.63608 2.96910
v -5.93410 0.63608 3.02358
v -6.39110 0.74000 2.07659
v -6.33404 0.84392 2.05805
v -6.21991 0.84392 2.02097
v -6.16285 0.74000 2.00243
v -6.21991 0.63608 2.02097
v -6.33404 0.63608 2.05805
v -6.63727 0.74000 1.05124
v -6.57800 0.84392 1.04185
v -6.45948 0.84392 1.02308
v -6.40022 0.74000 1.01370
v -6.45948 0.63608 1.02308
v -6.57800 0.63608 1.04185
v -6.72000 0.74000 0.00000
v -6.66000 0.84392 0.00000
v -6.54000 0.84392 0.00000
v -6.48000 0.74000 0.00000
v -6.54000 0.63608 0.00000
v -6.66000 0.63608 0.00000
v -6.63727 0.74000 -1.05124
v -6.57800 0.84392 -1.04185
v -6.45948 0.84392 -1.02308
v -6.40022 0.74000 -1.01370
v -6.45948 0.63608 -1.02308
v -6.57800 0.63608 -1.04185
v -6.39110 0.74000 -2.07659
v -6.33404 0.84392 -2.05805
v -6.21991 0.84392 -2.02097
v -6.16285 0.74000 -2.00243
v -6.21991 0.63608 -2.02097
v -6.33404 0.63608 -2.05805
v -5.98756 0.74000 -3.05082
v -5.93410 0.84392 -3.02358
v -5.82718 0.84392 -2.96910
v -5.77372 0.74000 -2.94186
v -5.82718 0.63608 -2.96910
v -5.93410 0.63608 -3.02358
v -5.43659 0.74000 -3.94992
v -5.38805 0.84392 -3.91465
v -5.29097 0.84392 -3.84412
v -5.24243 0.74000 -3.80885
v -5.29097 0.63608 -3.84412
v -5.38805 0.63608 -3.91465
v -4.75176 0.74000 -4.75176
v -4.70933 0.84392 -4.70933
v -4.62448 0.84392 -4.62448
v -4.58205 0.74000 -4.58205
v -4.62448 0.63608 -4.62448
v -4.70933 0.63608 -4.70933
v -3.94992 0.74000 -5.43659
v -3.91465 0.84392 -5.38805
v -3.84412 0.84392 -5.29097
v -3.80885 0.74000 -5.24243
v -3.84412 0.63608 -5.29097
v -3.91465 0.63608 -5.38805
v -3.05082 0.74000 -5.98756
v -3.02358 0.84392 -5.93410
v -2.96910 0.84392 -5.82718
v -2.94186 0.74000 -5.77372
v -2.96910 0.63608 -5.82718
v -3.02358 0.63608 -5.93410
v -2.07659 0.74000 -6.39110
v -2.05805 0.84392 -6.33404
v -2.02097 0.84392 -6.21991
v -2.00243 0.74000 -6.16285
v -2.02097 0.63608 -6.21991
v -2.05805 0.63608 -6.33404
v -1.05124 0.74000 -6.63727
v -1.04185 0.84392 -6.57800
v -1.02308 0.84392 -6.45948
v -1.01370 0.74000 -6.40022
v -1.02308 0.63608 -6.45948
v -1.04185 0.63608 -6.57800
v -0.00000 0.74000 -6.72000
v -0.00000 0.84392 -6.66000
v -0.00000 0.84392 -6.54000
v -0.00000 0.74000 -6.48000
v -0.00000 0.63608 -6.54000
v -0.00000 0.63608 -6.66000
v 1.05124 0.74000 -6.63727
v 1.04185 0.84392 -6.57800
v 1.02308 0.84392 -6.45948
v 1.01370 0.74000 -6.40022
v 1.02308 0.63608 -6.45948
v 1.04185 0.63608 -6.57800
v 2.07659 0.74000 -6.39110
v 2.05805 0.84392 -6.33404
v 2.02097 0.84392 -6.21991
v 2.00243 0.74000 -6.16285
v 2.02097 0.63608 -6.21991
v 2.05805 0.63608 -6.33404
v 3.05082 0.74000 -5.98756
v 3.02358 0.84392 -5.93410
v 2.96910 0.84392 -5.82718
v 2.94186 0.74000 -5.77372
v 2.96910 0.63608 -5.82718
v 3.02358 0.63608 -5.93410
v 3.94992 0.74000 -5.43659
v 3.91465 0.84392 -5.38805
v 3.84412 0.84392 -5.29097
v 3.80885 0.74000 -5.24243
v 3.84412 0.63608 -5.29097
v 3.91465 0.63608 -5.38805
v 4.75176 0.74000 -4.75176
v 4.70933 0.84392 -4.70933
v 4.62448 0.84392 -4.62448
v 4.58205 0.74000 -4.58205
v 4.62448 0.63608 -4.62448
v 4.70933 0.63608 -4.70933
v 5.43659 0.74000 -3.94992
v 5.38805 0.84392 -3.91465
v 5.29097 0.84392 -3.84412
v 5.24243 0.74000 -3.80885
v 5.29097 0.63608 -3.84412
v 5.38805 0.63608 -3.91465
v 5.98756 0.74000 -3.05082
v 5.93410 0.84392 -3.02358
v 5.82718 0.84392 -2.96910
v 5.77372 0.74000 -2.94186
v 5.82718 0.63608 -2.96910
v 5.93410 0.63608 -3.02358
v 6.39110 0.74000 -2.07659
v 6.33404 0.84392 -2.05805
v 6.21991 0.84392 -2.02097
v 6.16285 0.74000 -2.00243
v 6.21991 0.63608 -2.02097
v 6.33404 0.63608 -2.05805
v 6.63727 0.74000 -1.05124
v 6.57800 0.84392 -1.04185
v 6.45948 0.84392 -1.02308
v 6.40022 0.74000 -1.01370
v 6.45948 0.63608 -1.02308
v 6.57800 0.63608 -1.04185
v 0.00000 0.70000 0.00000
v 0.00000 0.70000 0.00000
v 0.00000 0.70000 0.00000
v 0.00000 0.70000 0.00000
v 0.00000 0.70000 0.00000
v 0.00000 0.70000 0.00000
v 0.00000 0.70000 0.00000
v -0.00000 0.70000 0.00000
v -0.00000 0.70000 0.00000
v -0.00000 0.70000 0.00000
v -0.00000 0.70000 0.00000
v -0.00000 0.70000 0.00000
v -0.00000 0.70000 0.00000
v -0.00000 0.70000 -0.00000
v -0.00000 0.70000 -0.00000
v -0.00000 0.70000 -0.00000
v -0.00000 0.70000 -0.00000
v -0.00000 0.70000 -0.00000
v -0.00000 0.70000 -0.00000
v 0.00000 0.70000 -0.00000
v 0.00000 0.70000 -0.00000
v 0.00000 0.70000 -0.00000
v 0.00000 0.70000 -0.00000
v 0.00000 0.70000 -0.00000
v 0.90000 0.70000 0.00000
v 0.86933 0.70000 0.23294
v 0.77942 0.70000 0.45000
v 0.63640 0.70000 0.63640
v 0.45000 0.70000 0.77942
v 0.23294 0.70000 0.86933
v 0.00000 0.70000 0.90000
v -0.23294 0.70000 0.86933
v -0.45000 0.70000 0.77942
v -0.63640 0.70000 0.63640
v -0.77942 0.70000 0.45000
v -0.86933 0.70000 0.23294
v -0.90000 0.70000 0.00000
v -0.86933 0.70000 -0.23294
v -0.77942 0.70000 -0.45000
v -0.63640 0.70000 -0.63640
v -0.45000 0.70000 -0.77942
v -0.23294 0.70000 -0.86933
v -0.00000 0.70000 -0.90000
v 0.23294 0.70000 -0.86933
v 0.45000 0.70000 -0.77942
v 0.63640 0.70000 -0.63640
v 0.77942 0.70000 -0.45000
v 0.86933 0.70000 -0.23294
v 0.60000 1.20000 0.00000
v 0.57956 1.20000 0.15529
v 0.51962 1.20000 0.30000
v 0.42426 1.20000 0.42426
v 0.30000 1.20000 0.51962
v 0.15529 1.20000 0.57956
v 0.00000 1.20000 0.60000
v -0.15529 1.20000 0.57956
v -0.30000 1.20000 0.51962
v -0.42426 1.20000 0.42426
v -0.51962 1.20000 0.30000
v -0.57956 1.20000 0.15529
v -0.60000 1.20000 0.00000
v -0.57956 1.20000 -0.15529
v -0.51962 1.20000 -0.30000
v -0.42426 1.20000 -0.42426
v -0.30000 1.20000 -0.51962
v -0.15529 1.20000 -0.57956
v -0.00000 1.20000 -0.60000
v 0.15529 1.20000 -0.57956
v 0.30000 1.20000 -0.51962
v 0.42426 1.20000 -0.42426
v 0.51962 1.20000 -0.30000
v 0.57956 1.20000 -0.15529
v 0.50000 5.40000 0.00000
v 0.48296 5.40000 0.12941
v 0.43301 5.40000 0.25000
v 0.35355 5.40000 0.35355
v 0.25000 5.40000 0.43301
v 0.12941 5.40000 0.48296
v 0.00000 5.40000 0.50000
v -0.12941 5.40000 0.48296
v -0.25000 5.40000 0.43301
v -0.35355 5.40000 0.35355
v -0.43301 5.40000 0.25000
v -0.48296 5.40000 0.12941
v -0.50000 5.40000 0.00000
v -0.48296 5.40000 -0.12941
v -0.43301 5.40000 -0.25000
v -0.35355 5.40000 -0.35355
v -0.25000 5.40000 -0.43301
v -0.12941 5.40000 -0.48296
v -0.00000 5.40000 -0.50000
v 0.12941 5.40000 -0.48296
v 0.25000 5.40000 -0.43301
v 0.35355 5.40000 -0.35355
v 0.43301 5.40000 -0.25000
v 0.48296 5.40000 -0.12941
v 0.80000 5.50000 0.00000
v 0.77274 5.50000 0.20706
v 0.69282 5.50000 0.40000
v 0.56569 5.50000 0.56569
v 0.40000 5.50000 0.69282
v 0.20706 5.50000 0.77274
v 0.00000 5.50000 0.80000
v -0.20706 5.50000 0.77274
v -0.40000 5.50000 0.69282
v -0.56569 5.50000 0.56569
v -0.69282 5.50000 0.40000
v -0.77274 5.50000 0.20706
v -0.80000 5.50000 0.00000
v -0.77274 5.50000 -0.20706
v -0.69282 5.50000 -0.40000
v -0.56569 5.50000 -0.56569
v -0.40000 5.50000 -0.69282
v -0.20706 5.50000 -0.77274
v -0.00000 5.50000 -0.80000
v 0.20706 5.50000 -0.77274
v 0.40000 5.50000 -0.69282
v 0.56569 5.50000 -0.56569
v 0.69282 5.50000 -0.40000
v 0.77274 5.50000 -0.20706
v 4.40000 0.72000 -0.11000
v 4.32222 0.72000 -0.07778
v 4.29000 0.72000 -0.00000
v 4.32222 0.72000 0.07778
v 4.40000 0.72000 0.11000
v 4.47778 0.72000 0.07778
v 4.51000 0.72000 0.00000
v 4.47778 0.72000 -0.07778
v 4.40000 5.20000 -0.11000
v 4.32222 5.20000 -0.07778
v 4.29000 5.20000 -0.00000
v 4.32222 5.20000 0.07778
v 4.40000 5.20000 0.11000
v 4.47778 5.20000 0.07778
v 4.51000 5.20000 0.00000
v 4.47778 5.20000 -0.07778
v 4.40000 0.72000 0.00000
v 4.40000 5.20000 0.00000
v 2.20000 0.72000 3.70051
v 2.12222 0.72000 3.73273
v 2.09000 0.72000 3.81051
v 2.12222 0.72000 3.88829
v 2.20000 0.72000 3.92051
v 2.27778 0.72000 3.88829
v 2.31000 0.72000 3.81051
v 2.27778 0.72000 3.73273
v 2.20000 5.20000 3.70051
v 2.12222 5.20000 3.73273
v 2.09000 5.20000 3.81051
v 2.12222 5.20000 3.88829
v 2.20000 5.20000 3.92051
v 2.27778 5.20000 3.88829
v 2.31000 5.20000 3.81051
v 2.27778 5.20000 3.73273
v 2.20000 0.72000 3.81051
v 2.20000 5.20000 3.81051
v -2.20000 0.72000 3.70051
v -2.27778 0.72000 3.73273
v -2.31000 0.72000 3.81051
v -2.27778 0.72000 3.88829
v -2.20000 0.72000 3.92051
v -2.12222 0.72000 3.88829
v -2.09000 0.72000 3.81051
v -2.12222 0.72000 3.73273
v -2.20000 5.20000 3.70051
v -2.27778 5.20000 3.73273
v -2.31000 5.20000 3.81051
v -2.27778 5.20000 3.88829
v -2.20000 5.20000 3.92051
v -2.12222 5.20000 3.88829
v -2.09000 5.20000 3.81051
v -2.12222 5.20000 3.73273
v -2.20000 0.72000 3.81051
v -2.20000 5.20000 3.81051
v -4.40000 0.72000 -0.11000
v -4.47778 0.72000 -0.07778
v -4.51000 0.72000 0.00000
v -4.47778 0.72000 0.07778
v -4.40000 0.72000 0.11000
v -4.32222 0.72000 0.07778
v -4.29000 0.72000 0.00000
v -4.32222 0.72000 -0.07778
v -4.40000 5.20000 -0.11000
v -4.47778 5.20000 -0.07778
v -4.51000 5.20000 0.00000
v -4.47778 5.20000 0.07778
v -4.40000 5.20000 0.11000
v -4.32222 5.20000 0.07778
v -4.29000 5.20000 0.00000
v -4.32222 5.20000 -0.07778
v -4.40000 0.72000 0.00000
v -4.40000 5.20000 0.00000
v -2.20000 0.72000 -3.92051
v -2.27778 0.72000 -3.88829
v -2.31000 0.72000 -3.81051
v -2.27778 0.72000 -3.73273
v -2.20000 0.72000 -3.70051
v -2.12222 0.72000 -3.73273
v -2.09000 0.72000 -3.81051
v -2.12222 0.72000 -3.88829
v -2.20000 5.20000 -3.92051
v -2.27778 5.20000 -3.88829
v -2.31000 5.20000 -3.81051
v -2.27778 5.20000 -3.73273
v -2.20000 5.20000 -3.70051
v -2.12222 5.20000 -3.73273
v -2.09000 5.20000 -3.81051
v -2.12222 5.20000 -3.88829
v -2.20000 0.72000 -3.81051
v -2.20000 5.20000 -3.81051
v 2.20000 0.72000 -3.92051
v 2.12222 0.72000 -3.88829
v 2.09000 0.72000 -3.81051
v 2.12222 0.72000 -3.73273
v 2.20000 0.72000 -3.70051
v 2.27778 0.72000 -3.73273
v 2.31000 0.72000 -3.81051
v 2.27778 0.72000 -3.88829
v 2.20000 5.20000 -3.92051
v 2.12222 5.20000 -3.88829
v 2.09000 5.20000 -3.81051
v 2.12222 5.20000 -3.73273
v 2.20000 5.20000 -3.70051
v 2.27778 5.20000 -3.73273
v 2.31000 5.20000 -3.81051
v 2.27778 5.20000 -3.88829
v 2.20000 0.72000 -3.81051
v 2.20000 5.20000 -3.81051
v 6.60000 5.10000 0.00000
v 6.49973 5.10000 1.14608
v 6.20197 5.10000 2.25733
v 5.71577 5.10000 3.30000
v 5.05589 5.10000 4.24240
v 4.24240 5.10000 5.05589
v 3.30000 5.10000 5.71577
v 2.25733 5.10000 6.20197
v 1.14608 5.10000 6.49973
v 0.00000 5.10000 6.60000
v -1.14608 5.10000 6.49973
v -2.25733 5.10000 6.20197
v -3.30000 5.10000 5.71577
v -4.24240 5.10000 5.05589
v -5.05589 5.10000 4.24240
v -5.71577 5.10000 3.30000
v -6.20197 5.10000 2.25733
v -6.49973 5.10000 1.14608
v -6.60000 5.10000 0.00000
v -6.49973 5.10000 -1.14608
v -6.20197 5.10000 -2.25733
v -5.71577 5.10000 -3.30000
v -5.05589 5.10000 -4.24240
v -4.24240 5.10000 -5.05589
v -3.30000 5.10000 -5.71577
v -2.25733 5.10000 -6.20197
v -1.14608 5.10000 -6.49973
v -0.00000 5.10000 -6.60000
v 1.14608 5.10000 -6.49973
v 2.25733 5.10000 -6.20197
v 3.30000 5.10000 -5.71577
v 4.24240 5.10000 -5.05589
v 5.05589 5.10000 -4.24240
v 5.71577 5.10000 -3.30000
v 6.20197 5.10000 -2.25733
v 6.49973 5.10000 -1.14608
v 6.80000 5.50000 0.00000
v 6.69669 5.50000 1.18081
v 6.38991 5.50000 2.32574
v 5.88897 5.50000 3.40000
v 5.20910 5.50000 4.37096
v 4.37096 5.50000 5.20910
v 3.40000 5.50000 5.88897
v 2.32574 5.50000 6.38991
v 1.18081 5.50000 6.69669
v 0.00000 5.50000 6.80000
v -1.18081 5.50000 6.69669
v -2.32574 5.50000 6.38991
v -3.40000 5.50000 5.88897
v -4.37096 5.50000 5.20910
v -5.20910 5.50000 4.37096
v -5.88897 5.50000 3.40000
v -6.38991 5.50000 2.32574
v -6.69669 5.50000 1.18081
v -6.80000 5.50000 0.00000
v -6.69669 5.50000 -1.18081
v -6.38991 5.50000 -2.32574
v -5.88897 5.50000 -3.40000
v -5.20910 5.50000 -4.37096
v -4.37096 5.50000 -5.20910
v -3.40000 5.50000 -5.88897
v -2.32574 5.50000 -6.38991
v -1.18081 5.50000 -6.69669
v -0.00000 5.50000 -6.80000
v 1.18081 5.50000 -6.69669
v 2.32574 5.50000 -6.38991
v 3.40000 5.50000 -5.88897
v 4.37096 5.50000 -5.20910
v 5.20910 5.50000 -4.37096
v 5.88897 5.50000 -3.40000
v 6.38991 5.50000 -2.32574
v 6.69669 5.50000 -1.18081
v 6.40000 5.70000 0.00000
v 6.30277 5.70000 1.11135
v 6.01403 5.70000 2.18893
v 5.54256 5.70000 3.20000
v 4.90268 5.70000 4.11384
v 4.11384 5.70000 4.90268
v 3.20000 5.70000 5.54256
v 2.18893 5.70000 6.01403
v 1.11135 5.70000 6.30277
v 0.00000 5.70000 6.40000
v -1.11135 5.70000 6.30277
v -2.18893 5.70000 6.01403
v -3.20000 5.70000 5.54256
v -4.11384 5.70000 4.90268
v -4.90268 5.70000 4.11384
v -5.54256 5.70000 3.20000
v -6.01403 5.70000 2.18893
v -6.30277 5.70000 1.11135
v -6.40000 5.70000 0.00000
v -6.30277 5.70000 -1.11135
v -6.01403 5.70000 -2.18893
v -5.54256 5.70000 -3.20000
v -4.90268 5.70000 -4.11384
v -4.11384 5.70000 -4.90268
v -3.20000 5.70000 -5.54256
v -2.18893 5.70000 -6.01403
v -1.11135 5.70000 -6.30277
v -0.00000 5.70000 -6.40000
v 1.11135 5.70000 -6.30277
v 2.18893 5.70000 -6.01403
v 3.20000 5.70000 -5.54256
v 4.11384 5.70000 -4.90268
v 4.90268 5.70000 -4.11384
v 5.54256 5.70000 -3.20000
v 6.01403 5.70000 -2.18893
v 6.30277 5.70000 -1.11135
v 3.40000 6.50000 0.00000
v 3.34835 6.50000 0.59040
v 3.19495 6.50000 1.16287
v 2.94449 6.50000 1.70000
v 2.60455 6.50000 2.18548
v 2.18548 6.50000 2.60455
v 1.70000 6.50000 2.94449
v 1.16287 6.50000 3.19495
v 0.59040 6.50000 3.34835
v 0.00000 6.50000 3.40000
v -0.59040 6.50000 3.34835
v -1.16287 6.50000 3.19495
v -1.70000 6.50000 2.94449
v -2.18548 6.50000 2.60455
v -2.60455 6.50000 2.18548
v -2.94449 6.50000 1.70000
v -3.19495 6.50000 1.16287
v -3.34835 6.50000 0.59040
v -3.40000 6.50000 0.00000
v -3.34835 6.50000 -0.59040
v -3.19495 6.50000 -1.16287
v -2.94449 6.50000 -1.70000
v -2.60455 6.50000 -2.18548
v -2.18548 6.50000 -2.60455
v -1.70000 6.50000 -2.94449
v -1.16287 6.50000 -3.19495
v -0.59040 6.50000 -3.34835
v -0.00000 6.50000 -3.40000
v 0.59040 6.50000 -3.34835
v 1.16287 6.50000 -3.19495
v 1.70000 6.50000 -2.94449
v 2.18548 6.50000 -2.60455
v 2.60455 6.50000 -2.18548
v 2.94449 6.50000 -1.70000
v 3.19495 6.50000 -1.16287
v 3.34835 6.50000 -0.59040
v 1.00000 7.30000 0.00000
v 0.98481 7.30000 0.17365
v 0.93969 7.30000 0.34202
v 0.86603 7.30000 0.50000
v 0.76604 7.30000 0.64279
v 0.64279 7.30000 0.76604
v 0.50000 7.30000 0.86603
v 0.34202 7.30000 0.93969
v 0.17365 7.30000 0.98481
v 0.00000 7.30000 1.00000
v -0.17365 7.30000 0.98481
v -0.34202 7.30000 0.93969
v -0.50000 7.30000 0.86603
v -0.64279 7.30000 0.76604
v -0.76604 7.30000 0.64279
v -0.86603 7.30000 0.50000
v -0.93969 7.30000 0.34202
v -0.98481 7.30000 0.17365
v -1.00000 7.30000 0.00000
v -0.98481 7.30000 -0.17365
v -0.93969 7.30000 -0.34202
v -0.86603 7.30000 -0.50000
v -0.76604 7.30000 -0.64279
v -0.64279 7.30000 -0.76604
v -0.50000 7.30000 -0.86603
v -0.34202 7.30000 -0.93969
v -0.17365 7.30000 -0.98481
v -0.00000 7.30000 -1.00000
v 0.17365 7.30000 -0.98481
v 0.34202 7.30000 -0.93969
v 0.50000 7.30000 -0.86603
v 0.64279 7.30000 -0.76604
v 0.76604 7.30000 -0.64279
v 0.86603 7.30000 -0.50000
v 0.93969 7.30000 -0.34202
v 0.98481 7.30000 -0.17365
v 0.00000 7.80000 0.00000
v 0.00000 7.80000 0.00000
v 0.00000 7.80000 0.00000
v 0.00000 7.80000 0.00000
v 0.00000 7.80000 0.00000
v 0.00000 7.80000 0.00000
v 0.00000 7.80000 0.00000
v 0.00000 7.80000 0.00000
v 0.00000 7.80000 0.00000
v 0.00000 7.80000 0.00000
v -0.00000 7.80000 0.00000
v -0.00000 7.80000 0.00000
v -0.00000 7.80000 0.00000
v -0.00000 7.80000 0.00000
v -0.00000 7.80000 0.00000
v -0.00000 7.80000 0.00000
v -0.00000 7.80000 0.00000
v -0.00000 7.80000 0.00000
v -0.00000 7.80000 0.00000
v -0.00000 7.80000 -0.00000
v -0.00000 7.80000 -0.00000
v -0.00000 7.80000 -0.00000
v -0.00000 7.80000 -0.00000
v -0.00000 7.80000 -0.00000
v -0.00000 7.80000 -0.00000
v -0.00000 7.80000 -0.00000
v -0.00000 7.80000 -0.00000
v -0.00000 7.80000 -0.00000
v 0.00000 7.80000 -0.00000
v 0.00000 7.80000 -0.00000
v 0.00000 7.80000 -0.00000
v 0.00000 7.80000 -0.00000
v 0.00000 7.80000 -0.00000
v 0.00000 7.80000 -0.00000
v 0.00000 7.80000 -0.00000
v 0.00000 7.80000 -0.00000
v 6.84445 4.95000 0.00000
v 6.69722 4.95000 0.25500
v 6.40278 4.95000 0.25500
v 6.25555 4.95000 0.00000
v 6.40278 4.95000 -0.25500
v 6.69722 4.95000 -0.25500
v 6.84445 5.15000 0.00000
v 6.69722 5.15000 0.25500
v 6.40278 5.15000 0.25500
v 6.25555 5.15000 0.00000
v 6.40278 5.15000 -0.25500
v 6.69722 5.15000 -0.25500
v 6.55000 4.85000 0.00000
v 6.55000 5.25000 0.00000
v 6.44944 4.95000 2.24023
v 6.30221 4.95000 2.49523
v 6.00776 4.95000 2.49523
v 5.86054 4.95000 2.24023
v 6.00776 4.95000 1.98523
v 6.30221 4.95000 1.98523
v 6.44944 5.15000 2.24023
v 6.30221 5.15000 2.49523
v 6.00776 5.15000 2.49523
v 5.86054 5.15000 2.24023
v 6.00776 5.15000 1.98523
v 6.30221 5.15000 1.98523
v 6.15499 4.85000 2.24023
v 6.15499 5.25000 2.24023
v 5.31204 4.95000 4.21026
v 5.16482 4.95000 4.46526
v 4.87037 4.95000 4.46526
v 4.72314 4.95000 4.21026
v 4.87037 4.95000 3.95526
v 5.16482 4.95000 3.95526
v 5.31204 5.15000 4.21026
v 5.16482 5.15000 4.46526
v 4.87037 5.15000 4.46526
v 4.72314 5.15000 4.21026
v 4.87037 5.15000 3.95526
v 5.16482 5.15000 3.95526
v 5.01759 4.85000 4.21026
v 5.01759 5.25000 4.21026
v 3.56945 4.95000 5.67247
v 3.42222 4.95000 5.92747
v 3.12778 4.95000 5.92747
v 2.98055 4.95000 5.67247
v 3.12778 4.95000 5.41747
v 3.42222 4.95000 5.41747
v 3.56945 5.15000 5.67247
v 3.42222 5.15000 5.92747
v 3.12778 5.15000 5.92747
v 2.98055 5.15000 5.67247
v 3.12778 5.15000 5.41747
v 3.42222 5.15000 5.41747
v 3.27500 4.85000 5.67247
v 3.27500 5.25000 5.67247
v 1.43184 4.95000 6.45049
v 1.28462 4.95000 6.70549
v 0.99017 4.95000 6.70549
v 0.84295 4.95000 6.45049
v 0.99017 4.95000 6.19549
v 1.28462 4.95000 6.19549
v 1.43184 5.15000 6.45049
v 1.28462 5.15000 6.70549
v 0.99017 5.15000 6.70549
v 0.84295 5.15000 6.45049
v 0.99017 5.15000 6.19549
v 1.28462 5.15000 6.19549
v 1.13740 4.85000 6.45049
v 1.13740 5.25000 6.45049
v -0.84295 4.95000 6.45049
v -0.99017 4.95000 6.70549
v -1.28462 4.95000 6.70549
v -1.43184 4.95000 6.45049
v -1.28462 4.95000 6.19549
v -0.99017 4.95000 6.19549
v -0.84295 5.15000 6.45049
v -0.99017 5.15000 6.70549
v -1.28462 5.15000 6.70549
v -1.43184 5.15000 6.45049
v -1.28462 5.15000 6.19549
v -0.99017 5.15000 6.19549
v -1.13740 4.85000 6.45049
v -1.13740 5.25000 6.45049
v -2.98055 4.95000 5.67247
v -3.12778 4.95000 5.92747
v -3.42222 4.95000 5.92747
v -3.56945 4.95000 5.67247
v -3.42222 4.95000 5.41747
v -3.12778 4.95000 5.41747
v -2.98055 5.15000 5.67247
v -3.12778 5.15000 5.92747
v -3.42222 5.15000 5.92747
v -3.56945 5.15000 5.67247
v -3.42222 5.15000 5.41747
v -3.12778 5.15000 5.41747
v -3.27500 4.85000 5.67247
v -3.27500 5.25000 5.67247
v -4.72314 4.95000 4.21026
v -4.87037 4.95000 4.46526
v -5.16482 4.95000 4.46526
v -5.31204 4.95000 4.21026
v -5.16482 4.95000 3.95526
v -4.87037 4.95000 3.95526
v -4.72314 5.15000 4.21026
v -4.87037 5.15000 4.46526
v -5.16482 5.15000 4.46526
v -5.31204 5.15000 4.21026
v -5.16482 5.15000 3.95526
v -4.87037 5.15000 3.95526
v -5.01759 4.85000 4.21026
v -5.01759 5.25000 4.21026
v -5.86054 4.95000 2.24023
v -6.00776 4.95000 2.49523
v -6.30221 4.95000 2.49523
v -6.44944 4.95000 2.24023
v -6.30221 4.95000 1.98523
v -6.00776 4.95000 1.98523
v -5.86054 5.15000 2.24023
v -6.00776 5.15000 2.49523
v -6.30221 5.15000 2.49523
v -6.44944 5.15000 2.24023
v -6.30221 5.15000 1.98523
v -6.00776 5.15000 1.98523
v -6.15499 4.85000 2.24023
v -6.15499 5.25000 2.24023
v -6.25555 4.95000 0.00000
v -6.40278 4.95000 0.25500
v -6.69722 4.95000 0.25500
v -6.84445 4.95000 0.00000
v -6.69722 4.95000 -0.25500
v -6.40278 4.95000 -0.25500
v -6.25555 5.15000 0.00000
v -6.40278 5.15000 0.25500
v -6.69722 5.15000 0.25500
v -6.84445 5.15000 0.00000
v -6.69722 5.15000 -0.25500
v -6.40278 5.15000 -0.25500
v -6.55000 4.85000 0.00000
v -6.55000 5.25000 0.00000
v -5.86054 4.95000 -2.24023
v -6.00776 4.95000 -1.98523
v -6.30221 4.95000 -1.98523
v -6.44944 4.95000 -2.24023
v -6.30221 4.95000 -2.49523
v -6.00776 4.95000 -2.49523
v -5.86054 5.15000 -2.24023
v -6.00776 5.15000 -1.98523
v -6.30221 5.15000 -1.98523
v -6.44944 5.15000 -2.24023
v -6.30221 5.15000 -2.49523
v -6.00776 5.15000 -2.49523
v -6.15499 4.85000 -2.24023
v -6.15499 5.25000 -2.24023
v -4.72314 4.95000 -4.21026
v -4.87037 4.95000 -3.95526
v -5.16482 4.95000 -3.95526
v -5.31204 4.95000 -4.21026
v -5.16482 4.95000 -4.46526
v -4.87037 4.95000 -4.46526
v -4.72314 5.15000 -4.21026
v -4.87037 5.15000 -3.95526
v -5.16482 5.15000 -3.95526
v -5.31204 5.15000 -4.21026
v -5.16482 5.15000 -4.46526
v -4.87037 5.15000 -4.46526
v -5.01759 4.85000 -4.21026
v -5.01759 5.25000 -4.21026
v -2.98055 4.95000 -5.67247
v -3.12778 4.95000 -5.41747
v -3.42222 4.95000 -5.41747
v -3.56945 4.95000 -5.67247
v -3.42222 4.95000 -5.92747
v -3.12778 4.95000 -5.92747
v -2.98055 5.15000 -5.67247
v -3.12778 5.15000 -5.41747
v -3.42222 5.15000 -5.41747
v -3.56945 5.15000 -5.67247
v -3.42222 5.15000 -5.92747
v -3.12778 5.15000 -5.92747
v -3.27500 4.85000 -5.67247
v -3.27500 5.25000 -5.67247
v -0.84295 4.95000 -6.45049
v -0.99017 4.95000 -6.19549
v -1.28462 4.95000 -6.19549
v -1.43184 4.95000 -6.45049
v -1.28462 4.95000 -6.70549
v -0.99017 4.95000 -6.70549
v -0.84295 5.15000 -6.45049
v -0.99017 5.15000 -6.19549
v -1.28462 5.15000 -6.19549
v -1.43184 5.15000 -6.45049
v -1.28462 5.15000 -6.70549
v -0.99017 5.15000 -6.70549
v -1.13740 4.85000 -6.45049
v -1.13740 5.25000 -6.45049
v 1.43184 4.95000 -6.45049
v 1.28462 4.95000 -6.19549
v 0.99017 4.95000 -6.19549
v 0.84295 4.95000 -6.45049
v 0.99017 4.95000 -6.70549
v 1.28462 4.95000 -6.70549
v 1.43184 5.15000 -6.45049
v 1.28462 5.15000 -6.19549
v 0.99017 5.15000 -6.19549
v 0.84295 5.15000 -6.45049
v 0.99017 5.15000 -6.70549
v 1.28462 5.15000 -6.70549
v 1.13740 4.85000 -6.45049
v 1.13740 5.25000 -6.45049
v 3.56945 4.95000 -5.67247
v 3.42222 4.95000 -5.41747
v 3.12778 4.95000 -5.41747
v 2.98055 4.95000 -5.67247
v 3.12778 4.95000 -5.92747
v 3.42222 4.95000 -5.92747
v 3.56945 5.15000 -5.67247
v 3.42222 5.15000 -5.41747
v 3.12778 5.15000 -5.41747
v 2.98055 5.15000 -5.67247
v 3.12778 5.15000 -5.92747
v 3.42222 5.15000 -5.92747
v 3.27500 4.85000 -5.67247
v 3.27500 5.25000 -5.67247
v 5.31204 4.95000 -4.21026
v 5.16482 4.95000 -3.95526
v 4.87037 4.95000 -3.95526
v 4.72314 4.95000 -4.21026
v 4.87037 4.95000 -4.46526
v 5.16482 4.95000 -4.46526
v 5.31204 5.15000 -4.21026
v 5.16482 5.15000 -3.95526
v 4.87037 5.15000 -3.95526
v 4.72314 5.15000 -4.21026
v 4.87037 5.15000 -4.46526
v 5.16482 5.15000 -4.46526
v 5.01759 4.85000 -4.21026
v 5.01759 5.25000 -4.21026
v 6.44944 4.95000 -2.24023
v 6.30221 4.95000 -1.98523
v 6.00776 4.95000 -1.98523
v 5.86054 4.95000 -2.24023
v 6.00776 4.95000 -2.49523
v 6.30221 4.95000 -2.49523
v 6.44944 5.15000 -2.24023
v 6.30221 5.15000 -1.98523
v 6.00776 5.15000 -1.98523
v 5.86054 5.15000 -2.24023
v 6.00776 5.15000 -2.49523
v 6.30221 5.15000 -2.49523
v 6.15499 4.85000 -2.24023
v 6.15499 5.25000 -2.24023
v 0.00000 8.80000 -0.12000
v -0.12637 8.47394 -0.12000
v -0.47553 8.45451 -0.12000
v -0.20448 8.23356 -0.12000
v -0.29389 7.89549 -0.12000
v -0.00000 8.08500 -0.12000
v 0.29389 7.89549 -0.12000
v 0.20448 8.23356 -0.12000
v 0.47553 8.45451 -0.12000
v 0.12637 8.47394 -0.12000
v 0.00000 8.80000 0.12000
v -0.12637 8.47394 0.12000
v -0.47553 8.45451 0.12000
v -0.20448 8.23356 0.12000
v -0.29389 7.89549 0.12000
v -0.00000 8.08500 0.12000
v 0.29389 7.89549 0.12000
v 0.20448 8.23356 0.12000
v 0.47553 8.45451 0.12000
v 0.12637 8.47394 0.12000
v 0.00000 8.30000 -0.12000
v 0.00000 8.30000 0.12000
vt 0.05000 0.50000
vt 0.15000 0.50000
vt 0.25000 0.50000
vt 0.35000 0.50000
vt 0.45000 0.50000
vt 0.55000 0.50000
vt 0.65000 0.50000
vt 0.75000 0.50000
vt 0.85000 0.50000
vt 0.95000 0.50000
usemtl gold
f 2/4 4/4 3/4 1/4
f 1/4 3/4 81/4
f 4/4 2/4 82/4
f 4/4 6/4 5/4 3/4
f 3/4 5/4 81/4
f 6/4 4/4 82/4
f 6/4 8/4 7/4 5/4
f 5/4 7/4 81/4
f 8/4 6/4 82/4
f 8/4 10/4 9/4 7/4
f 7/4 9/4 81/4
f 10/4 8/4 82/4
f 10/4 12/4 11/4 9/4
f 9/4 11/4 81/4
f 12/4 10/4 82/4
f 12/4 14/4 13/4 11/4
f 11/4 13/4 81/4
f 14/4 12/4 82/4
f 14/4 16/4 15/4 13/4
f 13/4 15/4 81/4
f 16/4 14/4 82/4
f 16/4 18/4 17/4 15/4
f 15/4 17/4 81/4
f 18/4 16/4 82/4
f 18/4 20/4 19/4 17/4
f 17/4 19/4 81/4
f 20/4 18/4 82/4
f 20/4 22/4 21/4 19/4
f 19/4 21/4 81/4
f 22/4 20/4 82/4
f 22/4 24/4 23/4 21/4
f 21/4 23/4 81/4
f 24/4 22/4 82/4
f 24/4 26/4 25/4 23/4
f 23/4 25/4 81/4
f 26/4 24/4 82/4
f 26/4 28/4 27/4 25/4
f 25/4 27/4 81/4
f 28/4 26/4 82/4
f 28/4 30/4 29/4 27/4
f 27/4 29/4 81/4
f 30/4 28/4 82/4
f 30/4 32/4 31/4 29/4
f 29/4 31/4 81/4
f 32/4 30/4 82/4
f 32/4 34/4 33/4 31/4
f 31/4 33/4 81/4
f 34/4 32/4 82/4
f 34/4 36/4 35/4 33/4
f 33/4 35/4 81/4
f 36/4 34/4 82/4
f 36/4 38/4 37/4 35/4
f 35/4 37/4 81/4
f 38/4 36/4 82/4
f 38/4 40/4 39/4 37/4
f 37/4 39/4 81/4
f 40/4 38/4 82/4
f 40/4 42/4 41/4 39/4
f 39/4 41/4 81/4
f 42/4 40/4 82/4
f 42/4 44/4 43/4 41/4
f 41/4 43/4 81/4
f 44/4 42/4 82/4
f 44/4 46/4 45/4 43/4
f 43/4 45/4 81/4
f 46/4 44/4 82/4
f 46/4 48/4 47/4 45/4
f 45/4 47/4 81/4
f 48/4 46/4 82/4
f 48/4 50/4 49/4 47/4
f 47/4 49/4 81/4
f 50/4 48/4 82/4
f 50/4 52/4 51/4 49/4
f 49/4 51/4 81/4
f 52/4 50/4 82/4
f 52/4 54/4 53/4 51/4
f 51/4 53/4 81/4
f 54/4 52/4 82/4
f 54/4 56/4 55/4 53/4
f 53/4 55/4 81/4
f 56/4 54/4 82/4
f 56/4 58/4 57/4 55/4
f 55/4 57/4 81/4
f 58/4 56/4 82/4
f 58/4 60/4 59/4 57/4
f 57/4 59/4 81/4
f 60/4 58/4 82/4
f 60/4 62/4 61/4 59/4
f 59/4 61/4 81/4
f 62/4 60/4 82/4
f 62/4 64/4 63/4 61/4
f 61/4 63/4 81/4
f 64/4 62/4 82/4
f 64/4 66/4 65/4 63/4
f 63/4 65/4 81/4
f 66/4 64/4 82/4
f 66/4 68/4 67/4 65/4
f 65/4 67/4 81/4
f 68/4 66/4 82/4
f 68/4 70/4 69/4 67/4
f 67/4 69/4 81/4
f 70/4 68/4 82/4
f 70/4 72/4 71/4 69/4
f 69/4 71/4 81/4
f 72/4 70/4 82/4
f 72/4 74/4 73/4 71/4
f 71/4 73/4 81/4
f 74/4 72/4 82/4
f 74/4 76/4 75/4 73/4
f 73/4 75/4 81/4
f 76/4 74/4 82/4
f 76/4 78/4 77/4 75/4
f 75/4 77/4 81/4
f 78/4 76/4 82/4
f 78/4 80/4 79/4 77/4
f 77/4 79/4 81/4
f 80/4 78/4 82/4
f 80/4 2/4 1/4 79/4
f 79/4 1/4 81/4
f 2/4 80/4 82/4
f 453/4 454/4 430/4 429/4
f 454/4 455/4 431/4 430/4
f 455/4 456/4 432/4 431/4
f 456/4 457/4 433/4 432/4
f 457/4 458/4 434/4 433/4
f 458/4 459/4 435/4 434/4
f 459/4 460/4 436/4 435/4
f 460/4 461/4 437/4 436/4
f 461/4 462/4 438/4 437/4
f 462/4 463/4 439/4 438/4
f 463/4 464/4 440/4 439/4
f 464/4 465/4 441/4 440/4
f 465/4 466/4 442/4 441/4
f 466/4 467/4 443/4 442/4
f 467/4 468/4 444/4 443/4
f 468/4 469/4 445/4 444/4
f 469/4 470/4 446/4 445/4
f 470/4 471/4 447/4 446/4
f 471/4 472/4 448/4 447/4
f 472/4 473/4 449/4 448/4
f 473/4 474/4 450/4 449/4
f 474/4 475/4 451/4 450/4
f 475/4 476/4 452/4 451/4
f 476/4 453/4 429/4 452/4
f 501/4 502/4 478/4 477/4
f 502/4 503/4 479/4 478/4
f 503/4 504/4 480/4 479/4
f 504/4 505/4 481/4 480/4
f 505/4 506/4 482/4 481/4
f 506/4 507/4 483/4 482/4
f 507/4 508/4 484/4 483/4
f 508/4 509/4 485/4 484/4
f 509/4 510/4 486/4 485/4
f 510/4 511/4 487/4 486/4
f 511/4 512/4 488/4 487/4
f 512/4 513/4 489/4 488/4
f 513/4 514/4 490/4 489/4
f 514/4 515/4 491/4 490/4
f 515/4 516/4 492/4 491/4
f 516/4 517/4 493/4 492/4
f 517/4 518/4 494/4 493/4
f 518/4 519/4 495/4 494/4
f 519/4 520/4 496/4 495/4
f 520/4 521/4 497/4 496/4
f 521/4 522/4 498/4 497/4
f 522/4 523/4 499/4 498/4
f 523/4 524/4 500/4 499/4
f 524/4 501/4 477/4 500/4
f 525/4 526/4 534/4 533/4
f 541/4 526/4 525/4
f 542/4 533/4 534/4
f 526/4 527/4 535/4 534/4
f 541/4 527/4 526/4
f 542/4 534/4 535/4
f 527/4 528/4 536/4 535/4
f 541/4 528/4 527/4
f 542/4 535/4 536/4
f 528/4 529/4 537/4 536/4
f 541/4 529/4 528/4
f 542/4 536/4 537/4
f 529/4 530/4 538/4 537/4
f 541/4 530/4 529/4
f 542/4 537/4 538/4
f 530/4 531/4 539/4 538/4
f 541/4 531/4 530/4
f 542/4 538/4 539/4
f 531/4 532/4 540/4 539/4
f 541/4 532/4 531/4
f 542/4 539/4 540/4
f 532/4 525/4 533/4 540/4
f 541/4 525/4 532/4
f 542/4 540/4 533/4
f 543/4 544/4 552/4 551/4
f 559/4 544/4 543/4
f 560/4 551/4 552/4
f 544/4 545/4 553/4 552/4
f 559/4 545/4 544/4
f 560/4 552/4 553/4
f 545/4 546/4 554/4 553/4
f 559/4 546/4 545/4
f 560/4 553/4 554/4
f 546/4 547/4 555/4 554/4
f 559/4 547/4 546/4
f 560/4 554/4 555/4
f 547/4 548/4 556/4 555/4
f 559/4 548/4 547/4
f 560/4 555/4 556/4
f 548/4 549/4 557/4 556/4
f 559/4 549/4 548/4
f 560/4 556/4 557/4
f 549/4 550/4 558/4 557/4
f 559/4 550/4 549/4
f 560/4 557/4 558/4
f 550/4 543/4 551/4 558/4
f 559/4 543/4 550/4
f 560/4 558/4 551/4
f 561/4 562/4 570/4 569/4
f 577/4 562/4 561/4
f 578/4 569/4 570/4
f 562/4 563/4 571/4 570/4
f 577/4 563/4 562/4
f 578/4 570/4 571/4
f 563/4 564/4 572/4 571/4
f 577/4 564/4 563/4
f 578/4 571/4 572/4
f 564/4 565/4 573/4 572/4
f 577/4 565/4 564/4
f 578/4 572/4 573/4
f 565/4 566/4 574/4 573/4
f 577/4 566/4 565/4
f 578/4 573/4 574/4
f 566/4 567/4 575/4 574/4
f 577/4 567/4 566/4
f 578/4 574/4 575/4
f 567/4 568/4 576/4 575/4
f 577/4 568/4 567/4
f 578/4 575/4 576/4
f 568/4 561/4 569/4 576/4
f 577/4 561/4 568/4
f 578/4 576/4 569/4
f 579/4 580/4 588/4 587/4
f 595/4 580/4 579/4
f 596/4 587/4 588/4
f 580/4 581/4 589/4 588/4
f 595/4 581/4 580/4
f 596/4 588/4 589/4
f 581/4 582/4 590/4 589/4
f 595/4 582/4 581/4
f 596/4 589/4 590/4
f 582/4 583/4 591/4 590/4
f 595/4 583/4 582/4
f 596/4 590/4 591/4
f 583/4 584/4 592/4 591/4
f 595/4 584/4 583/4
f 596/4 591/4 592/4
f 584/4 585/4 593/4 592/4
f 595/4 585/4 584/4
f 596/4 592/4 593/4
f 585/4 586/4 594/4 593/4
f 595/4 586/4 585/4
f 596/4 593/4 594/4
f 586/4 579/4 587/4 594/4
f 595/4 579/4 586/4
f 596/4 594/4 587/4
f 597/4 598/4 606/4 605/4
f 613/4 598/4 597/4
f 614/4 605/4 606/4
f 598/4 599/4 607/4 606/4
f 613/4 599/4 598/4
f 614/4 606/4 607/4
f 599/4 600/4 608/4 607/4
f 613/4 600/4 599/4
f 614/4 607/4 608/4
f 600/4 601/4 609/4 608/4
f 613/4 601/4 600/4
f 614/4 608/4 609/4
f 601/4 602/4 610/4 609/4
f 613/4 602/4 601/4
f 614/4 609/4 610/4
f 602/4 603/4 611/4 610/4
f 613/4 603/4 602/4
f 614/4 610/4 611/4
f 603/4 604/4 612/4 611/4
f 613/4 604/4 603/4
f 614/4 611/4 612/4
f 604/4 597/4 605/4 612/4
f 613/4 597/4 604/4
f 614/4 612/4 605/4
f 615/4 616/4 624/4 623/4
f 631/4 616/4 615/4
f 632/4 623/4 624/4
f 616/4 617/4 625/4 624/4
f 631/4 617/4 616/4
f 632/4 624/4 625/4
f 617/4 618/4 626/4 625/4
f 631/4 618/4 617/4
f 632/4 625/4 626/4
f 618/4 619/4 627/4 626/4
f 631/4 619/4 618/4
f 632/4 626/4 627/4
f 619/4 620/4 628/4 627/4
f 631/4 620/4 619/4
f 632/4 627/4 628/4
f 620/4 621/4 629/4 628/4
f 631/4 621/4 620/4
f 632/4 628/4 629/4
f 621/4 622/4 630/4 629/4
f 631/4 622/4 621/4
f 632/4 629/4 630/4
f 622/4 615/4 623/4 630/4
f 631/4 615/4 622/4
f 632/4 630/4 623/4
f 813/4 814/4 778/4 777/4
f 814/4 815/4 779/4 778/4
f 815/4 816/4 780/4 779/4
f 816/4 817/4 781/4 780/4
f 817/4 818/4 782/4 781/4
f 818/4 819/4 783/4 782/4
f 819/4 820/4 784/4 783/4
f 820/4 821/4 785/4 784/4
f 821/4 822/4 786/4 785/4
f 822/4 823/4 787/4 786/4
f 823/4 824/4 788/4 787/4
f 824/4 825/4 789/4 788/4
f 825/4 826/4 790/4 789/4
f 826/4 827/4 791/4 790/4
f 827/4 828/4 792/4 791/4
f 828/4 829/4 793/4 792/4
f 829/4 830/4 794/4 793/4
f 830/4 831/4 795/4 794/4
f 831/4 832/4 796/4 795/4
f 832/4 833/4 797/4 796/4
f 833/4 834/4 798/4 797/4
f 834/4 835/4 799/4 798/4
f 835/4 836/4 800/4 799/4
f 836/4 837/4 801/4 800/4
f 837/4 838/4 802/4 801/4
f 838/4 839/4 803/4 802/4
f 839/4 840/4 804/4 803/4
f 840/4 841/4 805/4 804/4
f 841/4 842/4 806/4 805/4
f 842/4 843/4 807/4 806/4
f 843/4 844/4 808/4 807/4
f 844/4 845/4 809/4 808/4
f 845/4 846/4 810/4 809/4
f 846/4 847/4 811/4 810/4
f 847/4 848/4 812/4 811/4
f 848/4 813/4 777/4 812/4
f 863/4 864/4 875/4
f 870/4 869/4 876/4
f 864/4 865/4 875/4
f 871/4 870/4 876/4
f 865/4 866/4 875/4
f 872/4 871/4 876/4
f 866/4 867/4 875/4
f 873/4 872/4 876/4
f 867/4 868/4 875/4
f 874/4 873/4 876/4
f 868/4 863/4 875/4
f 869/4 874/4 876/4
f 869/4 870/4 864/4 863/4
f 870/4 871/4 865/4 864/4
f 871/4 872/4 866/4 865/4
f 872/4 873/4 867/4 866/4
f 873/4 874/4 868/4 867/4
f 874/4 869/4 863/4 868/4
f 891/4 892/4 903/4
f 898/4 897/4 904/4
f 892/4 893/4 903/4
f 899/4 898/4 904/4
f 893/4 894/4 903/4
f 900/4 899/4 904/4
f 894/4 895/4 903/4
f 901/4 900/4 904/4
f 895/4 896/4 903/4
f 902/4 901/4 904/4
f 896/4 891/4 903/4
f 897/4 902/4 904/4
f 897/4 898/4 892/4 891/4
f 898/4 899/4 893/4 892/4
f 899/4 900/4 894/4 893/4
f 900/4 901/4 895/4 894/4
f 901/4 902/4 896/4 895/4
f 902/4 897/4 891/4 896/4
f 919/4 920/4 931/4
f 926/4 925/4 932/4
f 920/4 921/4 931/4
f 927/4 926/4 932/4
f 921/4 922/4 931/4
f 928/4 927/4 932/4
f 922/4 923/4 931/4
f 929/4 928/4 932/4
f 923/4 924/4 931/4
f 930/4 929/4 932/4
f 924/4 919/4 931/4
f 925/4 930/4 932/4
f 925/4 926/4 920/4 919/4
f 926/4 927/4 921/4 920/4
f 927/4 928/4 922/4 921/4
f 928/4 929/4 923/4 922/4
f 929/4 930/4 924/4 923/4
f 930/4 925/4 919/4 924/4
f 947/4 948/4 959/4
f 954/4 953/4 960/4
f 948/4 949/4 959/4
f 955/4 954/4 960/4
f 949/4 950/4 959/4
f 956/4 955/4 960/4
f 950/4 951/4 959/4
f 957/4 956/4 960/4
f 951/4 952/4 959/4
f 958/4 957/4 960/4
f 952/4 947/4 959/4
f 953/4 958/4 960/4
f 953/4 954/4 948/4 947/4
f 954/4 955/4 949/4 948/4
f 955/4 956/4 950/4 949/4
f 956/4 957/4 951/4 950/4
f 957/4 958/4 952/4 951/4
f 958/4 953/4 947/4 952/4
f 975/4 976/4 987/4
f 982/4 981/4 988/4
f 976/4 977/4 987/4
f 983/4 982/4 988/4
f 977/4 978/4 987/4
f 984/4 983/4 988/4
f 978/4 979/4 987/4
f 985/4 984/4 988/4
f 979/4 980/4 987/4
f 986/4 985/4 988/4
f 980/4 975/4 987/4
f 981/4 986/4 988/4
f 981/4 982/4 976/4 975/4
f 982/4 983/4 977/4 976/4
f 983/4 984/4 978/4 977/4
f 984/4 985/4 979/4 978/4
f 985/4 986/4 980/4 979/4
f 986/4 981/4 975/4 980/4
f 1003/4 1004/4 1015/4
f 1010/4 1009/4 1016/4
f 1004/4 1005/4 1015/4
f 1011/4 1010/4 1016/4
f 1005/4 1006/4 1015/4
f 1012/4 1011/4 1016/4
f 1006/4 1007/4 1015/4
f 1013/4 1012/4 1016/4
f 1007/4 1008/4 1015/4
f 1014/4 1013/4 1016/4
f 1008/4 1003/4 1015/4
f 1009/4 1014/4 1016/4
f 1009/4 1010/4 1004/4 1003/4
f 1010/4 1011/4 1005/4 1004/4
f 1011/4 1012/4 1006/4 1005/4
f 1012/4 1013/4 1007/4 1006/4
f 1013/4 1014/4 1008/4 1007/4
f 1014/4 1009/4 1003/4 1008/4
f 1031/4 1032/4 1043/4
f 1038/4 1037/4 1044/4
f 1032/4 1033/4 1043/4
f 1039/4 1038/4 1044/4
f 1033/4 1034/4 1043/4
f 1040/4 1039/4 1044/4
f 1034/4 1035/4 1043/4
f 1041/4 1040/4 1044/4
f 1035/4 1036/4 1043/4
f 1042/4 1041/4 1044/4
f 1036/4 1031/4 1043/4
f 1037/4 1042/4 1044/4
f 1037/4 1038/4 1032/4 1031/4
f 1038/4 1039/4 1033/4 1032/4
f 1039/4 1040/4 1034/4 1033/4
f 1040/4 1041/4 1035/4 1034/4
f 1041/4 1042/4 1036/4 1035/4
f 1042/4 1037/4 1031/4 1036/4
f 1059/4 1060/4 1071/4
f 1066/4 1065/4 1072/4
f 1060/4 1061/4 1071/4
f 1067/4 1066/4 1072/4
f 1061/4 1062/4 1071/4
f 1068/4 1067/4 1072/4
f 1062/4 1063/4 1071/4
f 1069/4 1068/4 1072/4
f 1063/4 1064/4 1071/4
f 1070/4 1069/4 1072/4
f 1064/4 1059/4 1071/4
f 1065/4 1070/4 1072/4
f 1065/4 1066/4 1060/4 1059/4
f 1066/4 1067/4 1061/4 1060/4
f 1067/4 1068/4 1062/4 1061/4
f 1068/4 1069/4 1063/4 1062/4
f 1069/4 1070/4 1064/4 1063/4
f 1070/4 1065/4 1059/4 1064/4
f 1087/4 1088/4 1099/4
f 1094/4 1093/4 1100/4
f 1088/4 1089/4 1099/4
f 1095/4 1094/4 1100/4
f 1089/4 1090/4 1099/4
f 1096/4 1095/4 1100/4
f 1090/4 1091/4 1099/4
f 1097/4 1096/4 1100/4
f 1091/4 1092/4 1099/4
f 1098/4 1097/4 1100/4
f 1092/4 1087/4 1099/4
f 1093/4 1098/4 1100/4
f 1093/4 1094/4 1088/4 1087/4
f 1094/4 1095/4 1089/4 1088/4
f 1095/4 1096/4 1090/4 1089/4
f 1096/4 1097/4 1091/4 1090/4
f 1097/4 1098/4 1092/4 1091/4
f 1098/4 1093/4 1087/4 1092/4
f 1102/4 1101/4 1121/4
f 1111/4 1112/4 1122/4
f 1102/4 1112/4 1111/4 1101/4
f 1103/4 1102/4 1121/4
f 1112/4 1113/4 1122/4
f 1103/4 1113/4 1112/4 1102/4
f 1104/4 1103/4 1121/4
f 1113/4 1114/4 1122/4
f 1104/4 1114/4 1113/4 1103/4
f 1105/4 1104/4 1121/4
f 1114/4 1115/4 1122/4
f 1105/4 1115/4 1114/4 1104/4
f 1106/4 1105/4 1121/4
f 1115/4 1116/4 1122/4
f 1106/4 1116/4 1115/4 1105/4
f 1107/4 1106/4 1121/4
f 1116/4 1117/4 1122/4
f 1107/4 1117/4 1116/4 1106/4
f 1108/4 1107/4 1121/4
f 1117/4 1118/4 1122/4
f 1108/4 1118/4 1117/4 1107/4
f 1109/4 1108/4 1121/4
f 1118/4 1119/4 1122/4
f 1109/4 1119/4 1118/4 1108/4
f 1110/4 1109/4 1121/4
f 1119/4 1120/4 1122/4
f 1110/4 1120/4 1119/4 1109/4
f 1101/4 1110/4 1121/4
f 1120/4 1111/4 1122/4
f 1101/4 1111/4 1120/4 1110/4
usemtl mint
f 84/3 86/3 85/3 83/3
f 83/3 85/3 163/3
f 86/3 84/3 164/3
f 86/3 88/3 87/3 85/3
f 85/3 87/3 163/3
f 88/3 86/3 164/3
f 88/3 90/3 89/3 87/3
f 87/3 89/3 163/3
f 90/3 88/3 164/3
f 90/3 92/3 91/3 89/3
f 89/3 91/3 163/3
f 92/3 90/3 164/3
f 92/3 94/3 93/3 91/3
f 91/3 93/3 163/3
f 94/3 92/3 164/3
f 94/3 96/3 95/3 93/3
f 93/3 95/3 163/3
f 96/3 94/3 164/3
f 96/3 98/3 97/3 95/3
f 95/3 97/3 163/3
f 98/3 96/3 164/3
f 98/3 100/3 99/3 97/3
f 97/3 99/3 163/3
f 100/3 98/3 164/3
f 100/3 102/3 101/3 99/3
f 99/3 101/3 163/3
f 102/3 100/3 164/3
f 102/3 104/3 103/3 101/3
f 101/3 103/3 163/3
f 104/3 102/3 164/3
f 104/3 106/3 105/3 103/3
f 103/3 105/3 163/3
f 106/3 104/3 164/3
f 106/3 108/3 107/3 105/3
f 105/3 107/3 163/3
f 108/3 106/3 164/3
f 108/3 110/3 109/3 107/3
f 107/3 109/3 163/3
f 110/3 108/3 164/3
f 110/3 112/3 111/3 109/3
f 109/3 111/3 163/3
f 112/3 110/3 164/3
f 112/3 114/3 113/3 111/3
f 111/3 113/3 163/3
f 114/3 112/3 164/3
f 114/3 116/3 115/3 113/3
f 113/3 115/3 163/3
f 116/3 114/3 164/3
f 116/3 118/3 117/3 115/3
f 115/3 117/3 163/3
f 118/3 116/3 164/3
f 118/3 120/3 119/3 117/3
f 117/3 119/3 163/3
f 120/3 118/3 164/3
f 120/3 122/3 121/3 119/3
f 119/3 121/3 163/3
f 122/3 120/3 164/3
f 122/3 124/3 123/3 121/3
f 121/3 123/3 163/3
f 124/3 122/3 164/3
f 124/3 126/3 125/3 123/3
f 123/3 125/3 163/3
f 126/3 124/3 164/3
f 126/3 128/3 127/3 125/3
f 125/3 127/3 163/3
f 128/3 126/3 164/3
f 128/3 130/3 129/3 127/3
f 127/3 129/3 163/3
f 130/3 128/3 164/3
f 130/3 132/3 131/3 129/3
f 129/3 131/3 163/3
f 132/3 130/3 164/3
f 132/3 134/3 133/3 131/3
f 131/3 133/3 163/3
f 134/3 132/3 164/3
f 134/3 136/3 135/3 133/3
f 133/3 135/3 163/3
f 136/3 134/3 164/3
f 136/3 138/3 137/3 135/3
f 135/3 137/3 163/3
f 138/3 136/3 164/3
f 138/3 140/3 139/3 137/3
f 137/3 139/3 163/3
f 140/3 138/3 164/3
f 140/3 142/3 141/3 139/3
f 139/3 141/3 163/3
f 142/3 140/3 164/3
f 142/3 144/3 143/3 141/3
f 141/3 143/3 163/3
f 144/3 142/3 164/3
f 144/3 146/3 145/3 143/3
f 143/3 145/3 163/3
f 146/3 144/3 164/3
f 146/3 148/3 147/3 145/3
f 145/3 147/3 163/3
f 148/3 146/3 164/3
f 148/3 150/3 149/3 147/3
f 147/3 149/3 163/3
f 150/3 148/3 164/3
f 150/3 152/3 151/3 149/3
f 149/3 151/3 163/3
f 152/3 150/3 164/3
f 152/3 154/3 153/3 151/3
f 151/3 153/3 163/3
f 154/3 152/3 164/3
f 154/3 156/3 155/3 153/3
f 153/3 155/3 163/3
f 156/3 154/3 164/3
f 156/3 158/3 157/3 155/3
f 155/3 157/3 163/3
f 158/3 156/3 164/3
f 158/3 160/3 159/3 157/3
f 157/3 159/3 163/3
f 160/3 158/3 164/3
f 160/3 162/3 161/3 159/3
f 159/3 161/3 163/3
f 162/3 160/3 164/3
f 162/3 84/3 83/3 161/3
f 161/3 83/3 163/3
f 84/3 162/3 164/3
usemtl coral
f 165/2 166/2 172/2 171/2
f 166/2 167/2 173/2 172/2
f 167/2 168/2 174/2 173/2
f 168/2 169/2 175/2 174/2
f 169/2 170/2 176/2 175/2
f 170/2 165/2 171/2 176/2
f 171/2 172/2 178/2 177/2
f 172/2 173/2 179/2 178/2
f 173/2 174/2 180/2 179/2
f 174/2 175/2 181/2 180/2
f 175/2 176/2 182/2 181/2
f 176/2 171/2 177/2 182/2
f 177/2 178/2 184/2 183/2
f 178/2 179/2 185/2 184/2
f 179/2 180/2 186/2 185/2
f 180/2 181/2 187/2 186/2
f 181/2 182/2 188/2 187/2
f 182/2 177/2 183/2 188/2
f 183/2 184/2 190/2 189/2
f 184/2 185/2 191/2 190/2
f 185/2 186/2 192/2 191/2
f 186/2 187/2 193/2 192/2
f 187/2 188/2 194/2 193/2
f 188/2 183/2 189/2 194/2
f 189/2 190/2 196/2 195/2
f 190/2 191/2 197/2 196/2
f 191/2 192/2 198/2 197/2
f 192/2 193/2 199/2 198/2
f 193/2 194/2 200/2 199/2
f 194/2 189/2 195/2 200/2
f 195/2 196/2 202/2 201/2
f 196/2 197/2 203/2 202/2
f 197/2 198/2 204/2 203/2
f 198/2 199/2 205/2 204/2
f 199/2 200/2 206/2 205/2
f 200/2 195/2 201/2 206/2
f 201/2 202/2 208/2 207/2
f 202/2 203/2 209/2 208/2
f 203/2 204/2 210/2 209/2
f 204/2 205/2 211/2 210/2
f 205/2 206/2 212/2 211/2
f 206/2 201/2 207/2 212/2
f 207/2 208/2 214/2 213/2
f 208/2 209/2 215/2 214/2
f 209/2 210/2 216/2 215/2
f 210/2 211/2 217/2 216/2
f 211/2 212/2 218/2 217/2
f 212/2 207/2 213/2 218/2
f 213/2 214/2 220/2 219/2
f 214/2 215/2 221/2 220/2
f 215/2 216/2 222/2 221/2
f 216/2 217/2 223/2 222/2
f 217/2 218/2 224/2 223/2
f 218/2 213/2 219/2 224/2
f 219/2 220/2 226/2 225/2
f 220/2 221/2 227/2 226/2
f 221/2 222/2 228/2 227/2
f 222/2 223/2 229/2 228/2
f 223/2 224/2 230/2 229/2
f 224/2 219/2 225/2 230/2
f 225/2 226/2 232/2 231/2
f 226/2 227/2 233/2 232/2
f 227/2 228/2 234/2 233/2
f 228/2 229/2 235/2 234/2
f 229/2 230/2 236/2 235/2
f 230/2 225/2 231/2 236/2
f 231/2 232/2 238/2 237/2
f 232/2 233/2 239/2 238/2
f 233/2 234/2 240/2 239/2
f 234/2 235/2 241/2 240/2
f 235/2 236/2 242/2 241/2
f 236/2 231/2 237/2 242/2
f 237/2 238/2 244/2 243/2
f 238/2 239/2 245/2 244/2
f 239/2 240/2 246/2 245/2
f 240/2 241/2 247/2 246/2
f 241/2 242/2 248/2 247/2
f 242/2 237/2 243/2 248/2
f 243/2 244/2 250/2 249/2
f 244/2 245/2 251/2 250/2
f 245/2 246/2 252/2 251/2
f 246/2 247/2 253/2 252/2
f 247/2 248/2 254/2 253/2
f 248/2 243/2 249/2 254/2
f 249/2 250/2 256/2 255/2
f 250/2 251/2 257/2 256/2
f 251/2 252/2 258/2 257/2
f 252/2 253/2 259/2 258/2
f 253/2 254/2 260/2 259/2
f 254/2 249/2 255/2 260/2
f 255/2 256/2 262/2 261/2
f 256/2 257/2 263/2 262/2
f 257/2 258/2 264/2 263/2
f 258/2 259/2 265/2 264/2
f 259/2 260/2 266/2 265/2
f 260/2 255/2 261/2 266/2
f 261/2 262/2 268/2 267/2
f 262/2 263/2 269/2 268/2
f 263/2 264/2 270/2 269/2
f 264/2 265/2 271/2 270/2
f 265/2 266/2 272/2 271/2
f 266/2 261/2 267/2 272/2
f 267/2 268/2 274/2 273/2
f 268/2 269/2 275/2 274/2
f 269/2 270/2 276/2 275/2
f 270/2 271/2 277/2 276/2
f 271/2 272/2 278/2 277/2
f 272/2 267/2 273/2 278/2
f 273/2 274/2 280/2 279/2
f 274/2 275/2 281/2 280/2
f 275/2 276/2 282/2 281/2
f 276/2 277/2 283/2 282/2
f 277/2 278/2 284/2 283/2
f 278/2 273/2 279/2 284/2
f 279/2 280/2 286/2 285/2
f 280/2 281/2 287/2 286/2
f 281/2 282/2 288/2 287/2
f 282/2 283/2 289/2 288/2
f 283/2 284/2 290/2 289/2
f 284/2 279/2 285/2 290/2
f 285/2 286/2 292/2 291/2
f 286/2 287/2 293/2 292/2
f 287/2 288/2 294/2 293/2
f 288/2 289/2 295/2 294/2
f 289/2 290/2 296/2 295/2
f 290/2 285/2 291/2 296/2
f 291/2 292/2 298/2 297/2
f 292/2 293/2 299/2 298/2
f 293/2 294/2 300/2 299/2
f 294/2 295/2 301/2 300/2
f 295/2 296/2 302/2 301/2
f 296/2 291/2 297/2 302/2
f 297/2 298/2 304/2 303/2
f 298/2 299/2 305/2 304/2
f 299/2 300/2 306/2 305/2
f 300/2 301/2 307/2 306/2
f 301/2 302/2 308/2 307/2
f 302/2 297/2 303/2 308/2
f 303/2 304/2 310/2 309/2
f 304/2 305/2 311/2 310/2
f 305/2 306/2 312/2 311/2
f 306/2 307/2 313/2 312/2
f 307/2 308/2 314/2 313/2
f 308/2 303/2 309/2 314/2
f 309/2 310/2 316/2 315/2
f 310/2 311/2 317/2 316/2
f 311/2 312/2 318/2 317/2
f 312/2 313/2 319/2 318/2
f 313/2 314/2 320/2 319/2
f 314/2 309/2 315/2 320/2
f 315/2 316/2 322/2 321/2
f 316/2 317/2 323/2 322/2
f 317/2 318/2 324/2 323/2
f 318/2 319/2 325/2 324/2
f 319/2 320/2 326/2 325/2
f 320/2 315/2 321/2 326/2
f 321/2 322/2 328/2 327/2
f 322/2 323/2 329/2 328/2
f 323/2 324/2 330/2 329/2
f 324/2 325/2 331/2 330/2
f 325/2 326/2 332/2 331/2
f 326/2 321/2 327/2 332/2
f 327/2 328/2 334/2 333/2
f 328/2 329/2 335/2 334/2
f 329/2 330/2 336/2 335/2
f 330/2 331/2 337/2 336/2
f 331/2 332/2 338/2 337/2
f 332/2 327/2 333/2 338/2
f 333/2 334/2 340/2 339/2
f 334/2 335/2 341/2 340/2
f 335/2 336/2 342/2 341/2
f 336/2 337/2 343/2 342/2
f 337/2 338/2 344/2 343/2
f 338/2 333/2 339/2 344/2
f 339/2 340/2 346/2 345/2
f 340/2 341/2 347/2 346/2
f 341/2 342/2 348/2 347/2
f 342/2 343/2 349/2 348/2
f 343/2 344/2 350/2 349/2
f 344/2 339/2 345/2 350/2
f 345/2 346/2 352/2 351/2
f 346/2 347/2 353/2 352/2
f 347/2 348/2 354/2 353/2
f 348/2 349/2 355/2 354/2
f 349/2 350/2 356/2 355/2
f 350/2 345/2 351/2 356/2
f 351/2 352/2 358/2 357/2
f 352/2 353/2 359/2 358/2
f 353/2 354/2 360/2 359/2
f 354/2 355/2 361/2 360/2
f 355/2 356/2 362/2 361/2
f 356/2 351/2 357/2 362/2
f 357/2 358/2 364/2 363/2
f 358/2 359/2 365/2 364/2
f 359/2 360/2 366/2 365/2
f 360/2 361/2 367/2 366/2
f 361/2 362/2 368/2 367/2
f 362/2 357/2 363/2 368/2
f 363/2 364/2 370/2 369/2
f 364/2 365/2 371/2 370/2
f 365/2 366/2 372/2 371/2
f 366/2 367/2 373/2 372/2
f 367/2 368/2 374/2 373/2
f 368/2 363/2 369/2 374/2
f 369/2 370/2 376/2 375/2
f 370/2 371/2 377/2 376/2
f 371/2 372/2 378/2 377/2
f 372/2 373/2 379/2 378/2
f 373/2 374/2 380/2 379/2
f 374/2 369/2 375/2 380/2
f 375/2 376/2 382/2 381/2
f 376/2 377/2 383/2 382/2
f 377/2 378/2 384/2 383/2
f 378/2 379/2 385/2 384/2
f 379/2 380/2 386/2 385/2
f 380/2 375/2 381/2 386/2
f 381/2 382/2 388/2 387/2
f 382/2 383/2 389/2 388/2
f 383/2 384/2 390/2 389/2
f 384/2 385/2 391/2 390/2
f 385/2 386/2 392/2 391/2
f 386/2 381/2 387/2 392/2
f 387/2 388/2 394/2 393/2
f 388/2 389/2 395/2 394/2
f 389/2 390/2 396/2 395/2
f 390/2 391/2 397/2 396/2
f 391/2 392/2 398/2 397/2
f 392/2 387/2 393/2 398/2
f 393/2 394/2 400/2 399/2
f 394/2 395/2 401/2 400/2
f 395/2 396/2 402/2 401/2
f 396/2 397/2 403/2 402/2
f 397/2 398/2 404/2 403/2
f 398/2 393/2 399/2 404/2
f 399/2 400/2 166/2 165/2
f 400/2 401/2 167/2 166/2
f 401/2 402/2 168/2 167/2
f 402/2 403/2 169/2 168/2
f 403/2 404/2 170/2 169/2
f 404/2 399/2 165/2 170/2
f 705/2 706/2 670/2 669/2
f 706/2 707/2 671/2 670/2
f 707/2 708/2 672/2 671/2
f 708/2 709/2 673/2 672/2
f 709/2 710/2 674/2 673/2
f 710/2 711/2 675/2 674/2
f 711/2 712/2 676/2 675/2
f 712/2 713/2 677/2 676/2
f 713/2 714/2 678/2 677/2
f 714/2 715/2 679/2 678/2
f 715/2 716/2 680/2 679/2
f 716/2 717/2 681/2 680/2
f 717/2 718/2 682/2 681/2
f 718/2 719/2 683/2 682/2
f 719/2 720/2 684/2 683/2
f 720/2 721/2 685/2 684/2
f 721/2 722/2 686/2 685/2
f 722/2 723/2 687/2 686/2
f 723/2 724/2 688/2 687/2
f 724/2 725/2 689/2 688/2
f 725/2 726/2 690/2 689/2
f 726/2 727/2 691/2 690/2
f 727/2 728/2 692/2 691/2
f 728/2 729/2 693/2 692/2
f 729/2 730/2 694/2 693/2
f 730/2 731/2 695/2 694/2
f 731/2 732/2 696/2 695/2
f 732/2 733/2 697/2 696/2
f 733/2 734/2 698/2 697/2
f 734/2 735/2 699/2 698/2
f 735/2 736/2 700/2 699/2
f 736/2 737/2 701/2 700/2
f 737/2 738/2 702/2 701/2
f 738/2 739/2 703/2 702/2
f 739/2 740/2 704/2 703/2
f 740/2 705/2 669/2 704/2
f 777/2 778/2 742/2 741/2
f 778/2 779/2 743/2 742/2
f 779/2 780/2 744/2 743/2
f 780/2 781/2 745/2 744/2
f 781/2 782/2 746/2 745/2
f 782/2 783/2 747/2 746/2
f 783/2 784/2 748/2 747/2
f 784/2 785/2 749/2 748/2
f 785/2 786/2 750/2 749/2
f 786/2 787/2 751/2 750/2
f 787/2 788/2 752/2 751/2
f 788/2 789/2 753/2 752/2
f 789/2 790/2 754/2 753/2
f 790/2 791/2 755/2 754/2
f 791/2 792/2 756/2 755/2
f 792/2 793/2 757/2 756/2
f 793/2 794/2 758/2 757/2
f 794/2 795/2 759/2 758/2
f 795/2 796/2 760/2 759/2
f 796/2 797/2 761/2 760/2
f 797/2 798/2 762/2 761/2
f 798/2 799/2 763/2 762/2
f 799/2 800/2 764/2 763/2
f 800/2 801/2 765/2 764/2
f 801/2 802/2 766/2 765/2
f 802/2 803/2 767/2 766/2
f 803/2 804/2 768/2 767/2
f 804/2 805/2 769/2 768/2
f 805/2 806/2 770/2 769/2
f 806/2 807/2 771/2 770/2
f 807/2 808/2 772/2 771/2
f 808/2 809/2 773/2 772/2
f 809/2 810/2 774/2 773/2
f 810/2 811/2 775/2 774/2
f 811/2 812/2 776/2 775/2
f 812/2 777/2 741/2 776/2
usemtl wood
f 429/5 430/5 406/5 405/5
f 430/5 431/5 407/5 406/5
f 431/5 432/5 408/5 407/5
f 432/5 433/5 409/5 408/5
f 433/5 434/5 410/5 409/5
f 434/5 435/5 411/5 410/5
f 435/5 436/5 412/5 411/5
f 436/5 437/5 413/5 412/5
f 437/5 438/5 414/5 413/5
f 438/5 439/5 415/5 414/5
f 439/5 440/5 416/5 415/5
f 440/5 441/5 417/5 416/5
f 441/5 442/5 418/5 417/5
f 442/5 443/5 419/5 418/5
f 443/5 444/5 420/5 419/5
f 444/5 445/5 421/5 420/5
f 445/5 446/5 422/5 421/5
f 446/5 447/5 423/5 422/5
f 447/5 448/5 424/5 423/5
f 448/5 449/5 425/5 424/5
f 449/5 450/5 426/5 425/5
f 450/5 451/5 427/5 426/5
f 451/5 452/5 428/5 427/5
f 452/5 429/5 405/5 428/5
usemtl cream
f 477/1 478/1 454/1 453/1
f 478/1 479/1 455/1 454/1
f 479/1 480/1 456/1 455/1
f 480/1 481/1 457/1 456/1
f 481/1 482/1 458/1 457/1
f 482/1 483/1 459/1 458/1
f 483/1 484/1 460/1 459/1
f 484/1 485/1 461/1 460/1
f 485/1 486/1 462/1 461/1
f 486/1 487/1 463/1 462/1
f 487/1 488/1 464/1 463/1
f 488/1 489/1 465/1 464/1
f 489/1 490/1 466/1 465/1
f 490/1 491/1 467/1 466/1
f 491/1 492/1 468/1 467/1
f 492/1 493/1 469/1 468/1
f 493/1 494/1 470/1 469/1
f 494/1 495/1 471/1 470/1
f 495/1 496/1 472/1 471/1
f 496/1 497/1 473/1 472/1
f 497/1 498/1 474/1 473/1
f 498/1 499/1 475/1 474/1
f 499/1 500/1 476/1 475/1
f 500/1 477/1 453/1 476/1
f 669/1 670/1 634/1 633/1
f 670/1 671/1 635/1 634/1
f 671/1 672/1 636/1 635/1
f 672/1 673/1 637/1 636/1
f 673/1 674/1 638/1 637/1
f 674/1 675/1 639/1 638/1
f 675/1 676/1 640/1 639/1
f 676/1 677/1 641/1 640/1
f 677/1 678/1 642/1 641/1
f 678/1 679/1 643/1 642/1
f 679/1 680/1 644/1 643/1
f 680/1 681/1 645/1 644/1
f 681/1 682/1 646/1 645/1
f 682/1 683/1 647/1 646/1
f 683/1 684/1 648/1 647/1
f 684/1 685/1 649/1 648/1
f 685/1 686/1 650/1 649/1
f 686/1 687/1 651/1 650/1
f 687/1 688/1 652/1 651/1
f 688/1 689/1 653/1 652/1
f 689/1 690/1 654/1 653/1
f 690/1 691/1 655/1 654/1
f 691/1 692/1 656/1 655/1
f 692/1 693/1 657/1 656/1
f 693/1 694/1 658/1 657/1
f 694/1 695/1 659/1 658/1
f 695/1 696/1 660/1 659/1
f 696/1 697/1 661/1 660/1
f 697/1 698/1 662/1 661/1
f 698/1 699/1 663/1 662/1
f 699/1 700/1 664/1 663/1
f 700/1 701/1 665/1 664/1
f 701/1 702/1 666/1 665/1
f 702/1 703/1 667/1 666/1
f 703/1 704/1 668/1 667/1
f 704/1 669/1 633/1 668/1
f 741/1 742/1 706/1 705/1
f 742/1 743/1 707/1 706/1
f 743/1 744/1 708/1 707/1
f 744/1 745/1 709/1 708/1
f 745/1 746/1 710/1 709/1
f 746/1 747/1 711/1 710/1
f 747/1 748/1 712/1 711/1
f 748/1 749/1 713/1 712/1
f 749/1 750/1 714/1 713/1
f 750/1 751/1 715/1 714/1
f 751/1 752/1 716/1 715/1
f 752/1 753/1 717/1 716/1
f 753/1 754/1 718/1 717/1
f 754/1 755/1 719/1 718/1
f 755/1 756/1 720/1 719/1
f 756/1 757/1 721/1 720/1
f 757/1 758/1 722/1 721/1
f 758/1 759/1 723/1 722/1
f 759/1 760/1 724/1 723/1
f 760/1 761/1 725/1 724/1
f 761/1 762/1 726/1 725/1
f 762/1 763/1 727/1 726/1
f 763/1 764/1 728/1 727/1
f 764/1 765/1 729/1 728/1
f 765/1 766/1 730/1 729/1
f 766/1 767/1 731/1 730/1
f 767/1 768/1 732/1 731/1
f 768/1 769/1 733/1 732/1
f 769/1 770/1 734/1 733/1
f 770/1 771/1 735/1 734/1
f 771/1 772/1 736/1 735/1
f 772/1 773/1 737/1 736/1
f 773/1 774/1 738/1 737/1
f 774/1 775/1 739/1 738/1
f 775/1 776/1 740/1 739/1
f 776/1 741/1 705/1 740/1
f 849/1 850/1 861/1
f 856/1 855/1 862/1
f 850/1 851/1 861/1
f 857/1 856/1 862/1
f 851/1 852/1 861/1
f 858/1 857/1 862/1
f 852/1 853/1 861/1
f 859/1 858/1 862/1
f 853/1 854/1 861/1
f 860/1 859/1 862/1
f 854/1 849/1 861/1
f 855/1 860/1 862/1
f 855/1 856/1 850/1 849/1
f 856/1 857/1 851/1 850/1
f 857/1 858/1 852/1 851/1
f 858/1 859/1 853/1 852/1
f 859/1 860/1 854/1 853/1
f 860/1 855/1 849/1 854/1
f 877/1 878/1 889/1
f 884/1 883/1 890/1
f 878/1 879/1 889/1
f 885/1 884/1 890/1
f 879/1 880/1 889/1
f 886/1 885/1 890/1
f 880/1 881/1 889/1
f 887/1 886/1 890/1
f 881/1 882/1 889/1
f 888/1 887/1 890/1
f 882/1 877/1 889/1
f 883/1 888/1 890/1
f 883/1 884/1 878/1 877/1
f 884/1 885/1 879/1 878/1
f 885/1 886/1 880/1 879/1
f 886/1 887/1 881/1 880/1
f 887/1 888/1 882/1 881/1
f 888/1 883/1 877/1 882/1
f 905/1 906/1 917/1
f 912/1 911/1 918/1
f 906/1 907/1 917/1
f 913/1 912/1 918/1
f 907/1 908/1 917/1
f 914/1 913/1 918/1
f 908/1 909/1 917/1
f 915/1 914/1 918/1
f 909/1 910/1 917/1
f 916/1 915/1 918/1
f 910/1 905/1 917/1
f 911/1 916/1 918/1
f 911/1 912/1 906/1 905/1
f 912/1 913/1 907/1 906/1
f 913/1 914/1 908/1 907/1
f 914/1 915/1 909/1 908/1
f 915/1 916/1 910/1 909/1
f 916/1 911/1 905/1 910/1
f 933/1 934/1 945/1
f 940/1 939/1 946/1
f 934/1 935/1 945/1
f 941/1 940/1 946/1
f 935/1 936/1 945/1
f 942/1 941/1 946/1
f 936/1 937/1 945/1
f 943/1 942/1 946/1
f 937/1 938/1 945/1
f 944/1 943/1 946/1
f 938/1 933/1 945/1
f 939/1 944/1 946/1
f 939/1 940/1 934/1 933/1
f 940/1 941/1 935/1 934/1
f 941/1 942/1 936/1 935/1
f 942/1 943/1 937/1 936/1
f 943/1 944/1 938/1 937/1
f 944/1 939/1 933/1 938/1
f 961/1 962/1 973/1
f 968/1 967/1 974/1
f 962/1 963/1 973/1
f 969/1 968/1 974/1
f 963/1 964/1 973/1
f 970/1 969/1 974/1
f 964/1 965/1 973/1
f 971/1 970/1 974/1
f 965/1 966/1 973/1
f 972/1 971/1 974/1
f 966/1 961/1 973/1
f 967/1 972/1 974/1
f 967/1 968/1 962/1 961/1
f 968/1 969/1 963/1 962/1
f 969/1 970/1 964/1 963/1
f 970/1 971/1 965/1 964/1
f 971/1 972/1 966/1 965/1
f 972/1 967/1 961/1 966/1
f 989/1 990/1 1001/1
f 996/1 995/1 1002/1
f 990/1 991/1 1001/1
f 997/1 996/1 1002/1
f 991/1 992/1 1001/1
f 998/1 997/1 1002/1
f 992/1 993/1 1001/1
f 999/1 998/1 1002/1
f 993/1 994/1 1001/1
f 1000/1 999/1 1002/1
f 994/1 989/1 1001/1
f 995/1 1000/1 1002/1
f 995/1 996/1 990/1 989/1
f 996/1 997/1 991/1 990/1
f 997/1 998/1 992/1 991/1
f 998/1 999/1 993/1 992/1
f 999/1 1000/1 994/1 993/1
f 1000/1 995/1 989/1 994/1
f 1017/1 1018/1 1029/1
f 1024/1 1023/1 1030/1
f 1018/1 1019/1 1029/1
f 1025/1 1024/1 1030/1
f 1019/1 1020/1 1029/1
f 1026/1 1025/1 1030/1
f 1020/1 1021/1 1029/1
f 1027/1 1026/1 1030/1
f 1021/1 1022/1 1029/1
f 1028/1 1027/1 1030/1
f 1022/1 1017/1 1029/1
f 1023/1 1028/1 1030/1
f 1023/1 1024/1 1018/1 1017/1
f 1024/1 1025/1 1019/1 1018/1
f 1025/1 1026/1 1020/1 1019/1
f 1026/1 1027/1 1021/1 1020/1
f 1027/1 1028/1 1022/1 1021/1
f 1028/1 1023/1 1017/1 1022/1
f 1045/1 1046/1 1057/1
f 1052/1 1051/1 1058/1
f 1046/1 1047/1 1057/1
f 1053/1 1052/1 1058/1
f 1047/1 1048/1 1057/1
f 1054/1 1053/1 1058/1
f 1048/1 1049/1 1057/1
f 1055/1 1054/1 1058/1
f 1049/1 1050/1 1057/1
f 1056/1 1055/1 1058/1
f 1050/1 1045/1 1057/1
f 1051/1 1056/1 1058/1
f 1051/1 1052/1 1046/1 1045/1
f 1052/1 1053/1 1047/1 1046/1
f 1053/1 1054/1 1048/1 1047/1
f 1054/1 1055/1 1049/1 1048/1
f 1055/1 1056/1 1050/1 1049/1
f 1056/1 1051/1 1045/1 1050/1
f 1073/1 1074/1 1085/1
f 1080/1 1079/1 1086/1
f 1074/1 1075/1 1085/1
f 1081/1 1080/1 1086/1
f 1075/1 1076/1 1085/1
f 1082/1 1081/1 1086/1
f 1076/1 1077/1 1085/1
f 1083/1 1082/1 1086/1
f 1077/1 1078/1 1085/1
f 1084/1 1083/1 1086/1
f 1078/1 1073/1 1085/1
f 1079/1 1084/1 1086/1
f 1079/1 1080/1 1074/1 1073/1
f 1080/1 1081/1 1075/1 1074/1
f 1081/1 1082/1 1076/1 1075/1
f 1082/1 1083/1 1077/1 1076/1
f 1083/1 1084/1 1078/1 1077/1
f 1084/1 1079/1 1073/1 1078/1
