# ParkParkCorsairHub — ParkPark original fairground mesh
mtllib ParkParkFairground.mtl
o ParkParkCorsairHub
v 8.20000 0.00000 0.00000
v 8.20000 0.60000 0.00000
v 8.11654 0.00000 1.16698
v 8.11654 0.60000 1.16698
v 7.86784 0.00000 2.31021
v 7.86784 0.60000 2.31021
v 7.45898 0.00000 3.40640
v 7.45898 0.60000 3.40640
v 6.89828 0.00000 4.43325
v 6.89828 0.60000 4.43325
v 6.19715 0.00000 5.36986
v 6.19715 0.60000 5.36986
v 5.36986 0.00000 6.19715
v 5.36986 0.60000 6.19715
v 4.43325 0.00000 6.89828
v 4.43325 0.60000 6.89828
v 3.40640 0.00000 7.45898
v 3.40640 0.60000 7.45898
v 2.31021 0.00000 7.86784
v 2.31021 0.60000 7.86784
v 1.16698 0.00000 8.11654
v 1.16698 0.60000 8.11654
v 0.00000 0.00000 8.20000
v 0.00000 0.60000 8.20000
v -1.16698 0.00000 8.11654
v -1.16698 0.60000 8.11654
v -2.31021 0.00000 7.86784
v -2.31021 0.60000 7.86784
v -3.40640 0.00000 7.45898
v -3.40640 0.60000 7.45898
v -4.43325 0.00000 6.89828
v -4.43325 0.60000 6.89828
v -5.36986 0.00000 6.19715
v -5.36986 0.60000 6.19715
v -6.19715 0.00000 5.36986
v -6.19715 0.60000 5.36986
v -6.89828 0.00000 4.43325
v -6.89828 0.60000 4.43325
v -7.45898 0.00000 3.40640
v -7.45898 0.60000 3.40640
v -7.86784 0.00000 2.31021
v -7.86784 0.60000 2.31021
v -8.11654 0.00000 1.16698
v -8.11654 0.60000 1.16698
v -8.20000 0.00000 0.00000
v -8.20000 0.60000 0.00000
v -8.11654 0.00000 -1.16698
v -8.11654 0.60000 -1.16698
v -7.86784 0.00000 -2.31021
v -7.86784 0.60000 -2.31021
v -7.45898 0.00000 -3.40640
v -7.45898 0.60000 -3.40640
v -6.89828 0.00000 -4.43325
v -6.89828 0.60000 -4.43325
v -6.19715 0.00000 -5.36986
v -6.19715 0.60000 -5.36986
v -5.36986 0.00000 -6.19715
v -5.36986 0.60000 -6.19715
v -4.43325 0.00000 -6.89828
v -4.43325 0.60000 -6.89828
v -3.40640 0.00000 -7.45898
v -3.40640 0.60000 -7.45898
v -2.31021 0.00000 -7.86784
v -2.31021 0.60000 -7.86784
v -1.16698 0.00000 -8.11654
v -1.16698 0.60000 -8.11654
v -0.00000 0.00000 -8.20000
v -0.00000 0.60000 -8.20000
v 1.16698 0.00000 -8.11654
v 1.16698 0.60000 -8.11654
v 2.31021 0.00000 -7.86784
v 2.31021 0.60000 -7.86784
v 3.40640 0.00000 -7.45898
v 3.40640 0.60000 -7.45898
v 4.43325 0.00000 -6.89828
v 4.43325 0.60000 -6.89828
v 5.36986 0.00000 -6.19715
v 5.36986 0.60000 -6.19715
v 6.19715 0.00000 -5.36986
v 6.19715 0.60000 -5.36986
v 6.89828 0.00000 -4.43325
v 6.89828 0.60000 -4.43325
v 7.45898 0.00000 -3.40640
v 7.45898 0.60000 -3.40640
v 7.86784 0.00000 -2.31021
v 7.86784 0.60000 -2.31021
v 8.11654 0.00000 -1.16698
v 8.11654 0.60000 -1.16698
v 0.00000 0.00000 0.00000
v 0.00000 0.60000 0.00000
v 8.25000 0.00000 0.00000
v 8.25000 0.45000 0.00000
v 8.16603 0.00000 1.17410
v 8.16603 0.45000 1.17410
v 7.91582 0.00000 2.32429
v 7.91582 0.45000 2.32429
v 7.50446 0.00000 3.42717
v 7.50446 0.45000 3.42717
v 6.94034 0.00000 4.46029
v 6.94034 0.45000 4.46029
v 6.23493 0.00000 5.40260
v 6.23493 0.45000 5.40260
v 5.40260 0.00000 6.23493
v 5.40260 0.45000 6.23493
v 4.46029 0.00000 6.94034
v 4.46029 0.45000 6.94034
v 3.42717 0.00000 7.50446
v 3.42717 0.45000 7.50446
v 2.32429 0.00000 7.91582
v 2.32429 0.45000 7.91582
v 1.17410 0.00000 8.16603
v 1.17410 0.45000 8.16603
v 0.00000 0.00000 8.25000
v 0.00000 0.45000 8.25000
v -1.17410 0.00000 8.16603
v -1.17410 0.45000 8.16603
v -2.32429 0.00000 7.91582
v -2.32429 0.45000 7.91582
v -3.42717 0.00000 7.50446
v -3.42717 0.45000 7.50446
v -4.46029 0.00000 6.94034
v -4.46029 0.45000 6.94034
v -5.40260 0.00000 6.23493
v -5.40260 0.45000 6.23493
v -6.23493 0.00000 5.40260
v -6.23493 0.45000 5.40260
v -6.94034 0.00000 4.46029
v -6.94034 0.45000 4.46029
v -7.50446 0.00000 3.42717
v -7.50446 0.45000 3.42717
v -7.91582 0.00000 2.32429
v -7.91582 0.45000 2.32429
v -8.16603 0.00000 1.17410
v -8.16603 0.45000 1.17410
v -8.25000 0.00000 0.00000
v -8.25000 0.45000 0.00000
v -8.16603 0.00000 -1.17410
v -8.16603 0.45000 -1.17410
v -7.91582 0.00000 -2.32429
v -7.91582 0.45000 -2.32429
v -7.50446 0.00000 -3.42717
v -7.50446 0.45000 -3.42717
v -6.94034 0.00000 -4.46029
v -6.94034 0.45000 -4.46029
v -6.23493 0.00000 -5.40260
v -6.23493 0.45000 -5.40260
v -5.40260 0.00000 -6.23493
v -5.40260 0.45000 -6.23493
v -4.46029 0.00000 -6.94034
v -4.46029 0.45000 -6.94034
v -3.42717 0.00000 -7.50446
v -3.42717 0.45000 -7.50446
v -2.32429 0.00000 -7.91582
v -2.32429 0.45000 -7.91582
v -1.17410 0.00000 -8.16603
v -1.17410 0.45000 -8.16603
v -0.00000 0.00000 -8.25000
v -0.00000 0.45000 -8.25000
v 1.17410 0.00000 -8.16603
v 1.17410 0.45000 -8.16603
v 2.32429 0.00000 -7.91582
v 2.32429 0.45000 -7.91582
v 3.42717 0.00000 -7.50446
v 3.42717 0.45000 -7.50446
v 4.46029 0.00000 -6.94034
v 4.46029 0.45000 -6.94034
v 5.40260 0.00000 -6.23493
v 5.40260 0.45000 -6.23493
v 6.23493 0.00000 -5.40260
v 6.23493 0.45000 -5.40260
v 6.94034 0.00000 -4.46029
v 6.94034 0.45000 -4.46029
v 7.50446 0.00000 -3.42717
v 7.50446 0.45000 -3.42717
v 7.91582 0.00000 -2.32429
v 7.91582 0.45000 -2.32429
v 8.16603 0.00000 -1.17410
v 8.16603 0.45000 -1.17410
v 0.00000 0.00000 0.00000
v 0.00000 0.45000 0.00000
v 8.14000 0.62000 0.00000
v 8.07000 0.74124 0.00000
v 7.93000 0.74124 0.00000
v 7.86000 0.62000 0.00000
v 7.93000 0.49876 0.00000
v 8.07000 0.49876 0.00000
v 8.05715 0.62000 1.15844
v 7.98786 0.74124 1.14848
v 7.84928 0.74124 1.12856
v 7.78000 0.62000 1.11859
v 7.84928 0.49876 1.12856
v 7.98786 0.49876 1.14848
v 7.81027 0.62000 2.29330
v 7.74311 0.74124 2.27358
v 7.60878 0.74124 2.23414
v 7.54161 0.62000 2.21442
v 7.60878 0.49876 2.23414
v 7.74311 0.49876 2.27358
v 7.40440 0.62000 3.38148
v 7.34073 0.74124 3.35240
v 7.21338 0.74124 3.29424
v 7.14971 0.62000 3.26516
v 7.21338 0.49876 3.29424
v 7.34073 0.49876 3.35240
v 6.84780 0.62000 4.40082
v 6.78892 0.74124 4.36297
v 6.67114 0.74124 4.28728
v 6.61225 0.62000 4.24944
v 6.67114 0.49876 4.28728
v 6.78892 0.49876 4.36297
v 6.15180 0.62000 5.33057
v 6.09890 0.74124 5.28473
v 5.99309 0.74124 5.19305
v 5.94019 0.62000 5.14721
v 5.99309 0.49876 5.19305
v 6.09890 0.49876 5.28473
v 5.33057 0.62000 6.15180
v 5.28473 0.74124 6.09890
v 5.19305 0.74124 5.99309
v 5.14721 0.62000 5.94019
v 5.19305 0.49876 5.99309
v 5.28473 0.49876 6.09890
v 4.40082 0.62000 6.84780
v 4.36297 0.74124 6.78892
v 4.28728 0.74124 6.67114
v 4.24944 0.62000 6.61225
v 4.28728 0.49876 6.67114
v 4.36297 0.49876 6.78892
v 3.38148 0.62000 7.40440
v 3.35240 0.74124 7.34073
v 3.29424 0.74124 7.21338
v 3.26516 0.62000 7.14971
v 3.29424 0.49876 7.21338
v 3.35240 0.49876 7.34073
v 2.29330 0.62000 7.81027
v 2.27358 0.74124 7.74311
v 2.23414 0.74124 7.60878
v 2.21442 0.62000 7.54161
v 2.23414 0.49876 7.60878
v 2.27358 0.49876 7.74311
v 1.15844 0.62000 8.05715
v 1.14848 0.74124 7.98786
v 1.12856 0.74124 7.84928
v 1.11859 0.62000 7.78000
v 1.12856 0.49876 7.84928
v 1.14848 0.49876 7.98786
v 0.00000 0.62000 8.14000
v 0.00000 0.74124 8.07000
v 0.00000 0.74124 7.93000
v 0.00000 0.62000 7.86000
v 0.00000 0.49876 7.93000
v 0.00000 0.49876 8.07000
v -1.15844 0.62000 8.05715
v -1.14848 0.74124 7.98786
v -1.12856 0.74124 7.84928
v -1.11859 0.62000 7.78000
v -1.12856 0.49876 7.84928
v -1.14848 0.49876 7.98786
v -2.29330 0.62000 7.81027
v -2.27358 0.74124 7.74311
v -2.23414 0.74124 7.60878
v -2.21442 0.62000 7.54161
v -2.23414 0.49876 7.60878
v -2.27358 0.49876 7.74311
v -3.38148 0.62000 7.40440
v -3.35240 0.74124 7.34073
v -3.29424 0.74124 7.21338
v -3.26516 0.62000 7.14971
v -3.29424 0.49876 7.21338
v -3.35240 0.49876 7.34073
v -4.40082 0.62000 6.84780
v -4.36297 0.74124 6.78892
v -4.28728 0.74124 6.67114
v -4.24944 0.62000 6.61225
v -4.28728 0.49876 6.67114
v -4.36297 0.49876 6.78892
v -5.33057 0.62000 6.15180
v -5.28473 0.74124 6.09890
v -5.19305 0.74124 5.99309
v -5.14721 0.62000 5.94019
v -5.19305 0.49876 5.99309
v -5.28473 0.49876 6.09890
v -6.15180 0.62000 5.33057
v -6.09890 0.74124 5.28473
v -5.99309 0.74124 5.19305
v -5.94019 0.62000 5.14721
v -5.99309 0.49876 5.19305
v -6.09890 0.49876 5.28473
v -6.84780 0.62000 4.40082
v -6.78892 0.74124 4.36297
v -6.67114 0.74124 4.28728
v -6.61225 0.62000 4.24944
v -6.67114 0.49876 4.28728
v -6.78892 0.49876 4.36297
v -7.40440 0.62000 3.38148
v -7.34073 0.74124 3.35240
v -7.21338 0.74124 3.29424
v -7.14971 0.62000 3.26516
v -7.21338 0.49876 3.29424
v -7.34073 0.49876 3.35240
v -7.81027 0.62000 2.29330
v -7.74311 0.74124 2.27358
v -7.60878 0.74124 2.23414
v -7.54161 0.62000 2.21442
v -7.60878 0.49876 2.23414
v -7.74311 0.49876 2.27358
v -8.05715 0.62000 1.15844
v -7.98786 0.74124 1.14848
v -7.84928 0.74124 1.12856
v -7.78000 0.62000 1.11859
v -7.84928 0.49876 1.12856
v -7.98786 0.49876 1.14848
v -8.14000 0.62000 0.00000
v -8.07000 0.74124 0.00000
v -7.93000 0.74124 0.00000
v -7.86000 0.62000 0.00000
v -7.93000 0.49876 0.00000
v -8.07000 0.49876 0.00000
v -8.05715 0.62000 -1.15844
v -7.98786 0.74124 -1.14848
v -7.84928 0.74124 -1.12856
v -7.78000 0.62000 -1.11859
v -7.84928 0.49876 -1.12856
v -7.98786 0.49876 -1.14848
v -7.81027 0.62000 -2.29330
v -7.74311 0.74124 -2.27358
v -7.60878 0.74124 -2.23414
v -7.54161 0.62000 -2.21442
v -7.60878 0.49876 -2.23414
v -7.74311 0.49876 -2.27358
v -7.40440 0.62000 -3.38148
v -7.34073 0.74124 -3.35240
v -7.21338 0.74124 -3.29424
v -7.14971 0.62000 -3.26516
v -7.21338 0.49876 -3.29424
v -7.34073 0.49876 -3.35240
v -6.84780 0.62000 -4.40082
v -6.78892 0.74124 -4.36297
v -6.67114 0.74124 -4.28728
v -6.61225 0.62000 -4.24944
v -6.67114 0.49876 -4.28728
v -6.78892 0.49876 -4.36297
v -6.15180 0.62000 -5.33057
v -6.09890 0.74124 -5.28473
v -5.99309 0.74124 -5.19305
v -5.94019 0.62000 -5.14721
v -5.99309 0.49876 -5.19305
v -6.09890 0.49876 -5.28473
v -5.33057 0.62000 -6.15180
v -5.28473 0.74124 -6.09890
v -5.19305 0.74124 -5.99309
v -5.14721 0.62000 -5.94019
v -5.19305 0.49876 -5.99309
v -5.28473 0.49876 -6.09890
v -4.40082 0.62000 -6.84780
v -4.36297 0.74124 -6.78892
v -4.28728 0.74124 -6.67114
v -4.24944 0.62000 -6.61225
v -4.28728 0.49876 -6.67114
v -4.36297 0.49876 -6.78892
v -3.38148 0.62000 -7.40440
v -3.35240 0.74124 -7.34073
v -3.29424 0.74124 -7.21338
v -3.26516 0.62000 -7.14971
v -3.29424 0.49876 -7.21338
v -3.35240 0.49876 -7.34073
v -2.29330 0.62000 -7.81027
v -2.27358 0.74124 -7.74311
v -2.23414 0.74124 -7.60878
v -2.21442 0.62000 -7.54161
v -2.23414 0.49876 -7.60878
v -2.27358 0.49876 -7.74311
v -1.15844 0.62000 -8.05715
v -1.14848 0.74124 -7.98786
v -1.12856 0.74124 -7.84928
v -1.11859 0.62000 -7.78000
v -1.12856 0.49876 -7.84928
v -1.14848 0.49876 -7.98786
v -0.00000 0.62000 -8.14000
v -0.00000 0.74124 -8.07000
v -0.00000 0.74124 -7.93000
v -0.00000 0.62000 -7.86000
v -0.00000 0.49876 -7.93000
v -0.00000 0.49876 -8.07000
v 1.15844 0.62000 -8.05715
v 1.14848 0.74124 -7.98786
v 1.12856 0.74124 -7.84928
v 1.11859 0.62000 -7.78000
v 1.12856 0.49876 -7.84928
v 1.14848 0.49876 -7.98786
v 2.29330 0.62000 -7.81027
v 2.27358 0.74124 -7.74311
v 2.23414 0.74124 -7.60878
v 2.21442 0.62000 -7.54161
v 2.23414 0.49876 -7.60878
v 2.27358 0.49876 -7.74311
v 3.38148 0.62000 -7.40440
v 3.35240 0.74124 -7.34073
v 3.29424 0.74124 -7.21338
v 3.26516 0.62000 -7.14971
v 3.29424 0.49876 -7.21338
v 3.35240 0.49876 -7.34073
v 4.40082 0.62000 -6.84780
v 4.36297 0.74124 -6.78892
v 4.28728 0.74124 -6.67114
v 4.24944 0.62000 -6.61225
v 4.28728 0.49876 -6.67114
v 4.36297 0.49876 -6.78892
v 5.33057 0.62000 -6.15180
v 5.28473 0.74124 -6.09890
v 5.19305 0.74124 -5.99309
v 5.14721 0.62000 -5.94019
v 5.19305 0.49876 -5.99309
v 5.28473 0.49876 -6.09890
v 6.15180 0.62000 -5.33057
v 6.09890 0.74124 -5.28473
v 5.99309 0.74124 -5.19305
v 5.94019 0.62000 -5.14721
v 5.99309 0.49876 -5.19305
v 6.09890 0.49876 -5.28473
v 6.84780 0.62000 -4.40082
v 6.78892 0.74124 -4.36297
v 6.67114 0.74124 -4.28728
v 6.61225 0.62000 -4.24944
v 6.67114 0.49876 -4.28728
v 6.78892 0.49876 -4.36297
v 7.40440 0.62000 -3.38148
v 7.34073 0.74124 -3.35240
v 7.21338 0.74124 -3.29424
v 7.14971 0.62000 -3.26516
v 7.21338 0.49876 -3.29424
v 7.34073 0.49876 -3.35240
v 7.81027 0.62000 -2.29330
v 7.74311 0.74124 -2.27358
v 7.60878 0.74124 -2.23414
v 7.54161 0.62000 -2.21442
v 7.60878 0.49876 -2.23414
v 7.74311 0.49876 -2.27358
v 8.05715 0.62000 -1.15844
v 7.98786 0.74124 -1.14848
v 7.84928 0.74124 -1.12856
v 7.78000 0.62000 -1.11859
v 7.84928 0.49876 -1.12856
v 7.98786 0.49876 -1.14848
v 0.00000 0.64000 0.07000
v 0.00000 0.57000 0.00000
v 0.00000 0.64000 -0.07000
v 0.00000 0.71000 -0.00000
v 7.60000 0.64000 0.07000
v 7.60000 0.57000 0.00000
v 7.60000 0.64000 -0.07000
v 7.60000 0.71000 -0.00000
v 0.00000 0.64000 0.00000
v 7.60000 0.64000 0.00000
v -0.03500 0.64000 0.06062
v -0.00000 0.57000 0.00000
v 0.03500 0.64000 -0.06062
v 0.00000 0.71000 -0.00000
v 6.54679 0.64000 3.86062
v 6.58179 0.57000 3.80000
v 6.61679 0.64000 3.73938
v 6.58179 0.71000 3.80000
v 0.00000 0.64000 0.00000
v 6.58179 0.64000 3.80000
v -0.06062 0.64000 0.03500
v -0.00000 0.57000 0.00000
v 0.06062 0.64000 -0.03500
v 0.00000 0.71000 -0.00000
v 3.73938 0.64000 6.61679
v 3.80000 0.57000 6.58179
v 3.86062 0.64000 6.54679
v 3.80000 0.71000 6.58179
v 0.00000 0.64000 0.00000
v 3.80000 0.64000 6.58179
v -0.07000 0.64000 0.00000
v -0.00000 0.57000 0.00000
v 0.07000 0.64000 -0.00000
v 0.00000 0.71000 -0.00000
v -0.07000 0.64000 7.60000
v 0.00000 0.57000 7.60000
v 0.07000 0.64000 7.60000
v 0.00000 0.71000 7.60000
v 0.00000 0.64000 0.00000
v 0.00000 0.64000 7.60000
v -0.06062 0.64000 -0.03500
v -0.00000 0.57000 -0.00000
v 0.06062 0.64000 0.03500
v 0.00000 0.71000 0.00000
v -3.86062 0.64000 6.54679
v -3.80000 0.57000 6.58179
v -3.73938 0.64000 6.61679
v -3.80000 0.71000 6.58179
v 0.00000 0.64000 0.00000
v -3.80000 0.64000 6.58179
v -0.03500 0.64000 -0.06062
v -0.00000 0.57000 -0.00000
v 0.03500 0.64000 0.06062
v 0.00000 0.71000 0.00000
v -6.61679 0.64000 3.73938
v -6.58179 0.57000 3.80000
v -6.54679 0.64000 3.86062
v -6.58179 0.71000 3.80000
v 0.00000 0.64000 0.00000
v -6.58179 0.64000 3.80000
v -0.00000 0.64000 -0.07000
v -0.00000 0.57000 -0.00000
v 0.00000 0.64000 0.07000
v 0.00000 0.71000 0.00000
v -7.60000 0.64000 -0.07000
v -7.60000 0.57000 0.00000
v -7.60000 0.64000 0.07000
v -7.60000 0.71000 0.00000
v 0.00000 0.64000 0.00000
v -7.60000 0.64000 0.00000
v 0.03500 0.64000 -0.06062
v 0.00000 0.57000 -0.00000
v -0.03500 0.64000 0.06062
v -0.00000 0.71000 0.00000
v -6.54679 0.64000 -3.86062
v -6.58179 0.57000 -3.80000
v -6.61679 0.64000 -3.73938
v -6.58179 0.71000 -3.80000
v 0.00000 0.64000 0.00000
v -6.58179 0.64000 -3.80000
v 0.06062 0.64000 -0.03500
v 0.00000 0.57000 -0.00000
v -0.06062 0.64000 0.03500
v -0.00000 0.71000 0.00000
v -3.73938 0.64000 -6.61679
v -3.80000 0.57000 -6.58179
v -3.86062 0.64000 -6.54679
v -3.80000 0.71000 -6.58179
v 0.00000 0.64000 0.00000
v -3.80000 0.64000 -6.58179
v 0.07000 0.64000 -0.00000
v 0.00000 0.57000 -0.00000
v -0.07000 0.64000 0.00000
v -0.00000 0.71000 0.00000
v 0.07000 0.64000 -7.60000
v -0.00000 0.57000 -7.60000
v -0.07000 0.64000 -7.60000
v -0.00000 0.71000 -7.60000
v 0.00000 0.64000 0.00000
v -0.00000 0.64000 -7.60000
v 0.06062 0.64000 0.03500
v 0.00000 0.57000 0.00000
v -0.06062 0.64000 -0.03500
v -0.00000 0.71000 -0.00000
v 3.86062 0.64000 -6.54679
v 3.80000 0.57000 -6.58179
v 3.73938 0.64000 -6.61679
v 3.80000 0.71000 -6.58179
v 0.00000 0.64000 0.00000
v 3.80000 0.64000 -6.58179
v 0.03500 0.64000 0.06062
v 0.00000 0.57000 0.00000
v -0.03500 0.64000 -0.06062
v -0.00000 0.71000 -0.00000
v 6.61679 0.64000 -3.73938
v 6.58179 0.57000 -3.80000
v 6.54679 0.64000 -3.86062
v 6.58179 0.71000 -3.80000
v 0.00000 0.64000 0.00000
v 6.58179 0.64000 -3.80000
v 0.00000 0.60000 0.00000
v 0.00000 0.60000 0.00000
v 0.00000 0.60000 0.00000
v 0.00000 0.60000 0.00000
v -0.00000 0.60000 0.00000
v -0.00000 0.60000 0.00000
v -0.00000 0.60000 0.00000
v -0.00000 0.60000 0.00000
v -0.00000 0.60000 -0.00000
v -0.00000 0.60000 -0.00000
v -0.00000 0.60000 -0.00000
v 0.00000 0.60000 -0.00000
v 0.00000 0.60000 -0.00000
v 0.00000 0.60000 -0.00000
v 1.30000 0.60000 0.00000
v 1.17126 0.60000 0.56405
v 0.81054 0.60000 1.01638
v 0.28928 0.60000 1.26741
v -0.28928 0.60000 1.26741
v -0.81054 0.60000 1.01638
v -1.17126 0.60000 0.56405
v -1.30000 0.60000 0.00000
v -1.17126 0.60000 -0.56405
v -0.81054 0.60000 -1.01638
v -0.28928 0.60000 -1.26741
v 0.28928 0.60000 -1.26741
v 0.81054 0.60000 -1.01638
v 1.17126 0.60000 -0.56405
v 0.70000 1.30000 0.00000
v 0.63068 1.30000 0.30372
v 0.43644 1.30000 0.54728
v 0.15576 1.30000 0.68245
v -0.15576 1.30000 0.68245
v -0.43644 1.30000 0.54728
v -0.63068 1.30000 0.30372
v -0.70000 1.30000 0.00000
v -0.63068 1.30000 -0.30372
v -0.43644 1.30000 -0.54728
v -0.15576 1.30000 -0.68245
v 0.15576 1.30000 -0.68245
v 0.43644 1.30000 -0.54728
v 0.63068 1.30000 -0.30372
v 0.00000 1.40000 0.00000
v 0.00000 1.40000 0.00000
v 0.00000 1.40000 0.00000
v 0.00000 1.40000 0.00000
v -0.00000 1.40000 0.00000
v -0.00000 1.40000 0.00000
v -0.00000 1.40000 0.00000
v -0.00000 1.40000 0.00000
v -0.00000 1.40000 -0.00000
v -0.00000 1.40000 -0.00000
v -0.00000 1.40000 -0.00000
v 0.00000 1.40000 -0.00000
v 0.00000 1.40000 -0.00000
v 0.00000 1.40000 -0.00000
v 0.00000 1.20000 -0.32000
v -0.22627 1.20000 -0.22627
v -0.32000 1.20000 -0.00000
v -0.22627 1.20000 0.22627
v -0.00000 1.20000 0.32000
v 0.22627 1.20000 0.22627
v 0.32000 1.20000 0.00000
v 0.22627 1.20000 -0.22627
v 0.00000 7.40000 -0.22000
v -0.15556 7.40000 -0.15556
v -0.22000 7.40000 -0.00000
v -0.15556 7.40000 0.15556
v -0.00000 7.40000 0.22000
v 0.15556 7.40000 0.15556
v 0.22000 7.40000 0.00000
v 0.15556 7.40000 -0.15556
v 0.00000 1.20000 0.00000
v 0.00000 7.40000 0.00000
v -2.10000 3.40000 -0.01000
v 2.10000 3.40000 -0.01000
v 2.10000 6.60000 -0.01000
v -2.10000 6.60000 -0.01000
v -2.10000 3.40000 0.11000
v 2.10000 3.40000 0.11000
v 2.10000 6.60000 0.11000
v -2.10000 6.60000 0.11000
v -2.20000 6.61000 -0.05000
v 2.20000 6.61000 -0.05000
v 2.20000 6.79000 -0.05000
v -2.20000 6.79000 -0.05000
v -2.20000 6.61000 0.15000
v 2.20000 6.61000 0.15000
v 2.20000 6.79000 0.15000
v -2.20000 6.79000 0.15000
v 0.20000 6.70000 -0.03000
v 1.60000 6.70000 -0.03000
v 1.60000 7.50000 -0.03000
v 0.20000 7.50000 -0.03000
v 0.20000 6.70000 0.03000
v 1.60000 6.70000 0.03000
v 1.60000 7.50000 0.03000
v 0.20000 7.50000 0.03000
v 1.04142 7.05858 0.05000
v 0.97071 7.05858 0.07449
v 0.82929 7.05858 0.07449
v 0.75858 7.05858 0.05000
v 0.82929 7.05858 0.02551
v 0.97071 7.05858 0.02551
v 1.10000 7.20000 0.05000
v 1.00000 7.20000 0.08464
v 0.80000 7.20000 0.08464
v 0.70000 7.20000 0.05000
v 0.80000 7.20000 0.01536
v 1.00000 7.20000 0.01536
v 1.04142 7.34142 0.05000
v 0.97071 7.34142 0.07449
v 0.82929 7.34142 0.07449
v 0.75858 7.34142 0.05000
v 0.82929 7.34142 0.02551
v 0.97071 7.34142 0.02551
v 0.90000 7.00000 0.05000
v 0.90000 7.40000 0.05000
v 0.00000 0.90000 0.16000
v 0.00000 0.78686 0.11314
v 0.00000 0.74000 0.00000
v 0.00000 0.78686 -0.11314
v 0.00000 0.90000 -0.16000
v 0.00000 1.01314 -0.11314
v 0.00000 1.06000 -0.00000
v 0.00000 1.01314 0.11314
v 5.40000 0.90000 0.16000
v 5.40000 0.78686 0.11314
v 5.40000 0.74000 0.00000
v 5.40000 0.78686 -0.11314
v 5.40000 0.90000 -0.16000
v 5.40000 1.01314 -0.11314
v 5.40000 1.06000 -0.00000
v 5.40000 1.01314 0.11314
v 0.00000 0.90000 0.00000
v 5.40000 0.90000 0.00000
v 6.80000 0.60000 0.00000
v 6.80000 0.90000 0.00000
v 6.75230 0.60000 0.36235
v 6.75230 0.90000 0.36235
v 6.61244 0.60000 0.70000
v 6.61244 0.90000 0.70000
v 6.38995 0.60000 0.98995
v 6.38995 0.90000 0.98995
v 6.10000 0.60000 1.21244
v 6.10000 0.90000 1.21244
v 5.76235 0.60000 1.35230
v 5.76235 0.90000 1.35230
v 5.40000 0.60000 1.40000
v 5.40000 0.90000 1.40000
v 5.03765 0.60000 1.35230
v 5.03765 0.90000 1.35230
v 4.70000 0.60000 1.21244
v 4.70000 0.90000 1.21244
v 4.41005 0.60000 0.98995
v 4.41005 0.90000 0.98995
v 4.18756 0.60000 0.70000
v 4.18756 0.90000 0.70000
v 4.04770 0.60000 0.36235
v 4.04770 0.90000 0.36235
v 4.00000 0.60000 0.00000
v 4.00000 0.90000 0.00000
v 4.04770 0.60000 -0.36235
v 4.04770 0.90000 -0.36235
v 4.18756 0.60000 -0.70000
v 4.18756 0.90000 -0.70000
v 4.41005 0.60000 -0.98995
v 4.41005 0.90000 -0.98995
v 4.70000 0.60000 -1.21244
v 4.70000 0.90000 -1.21244
v 5.03765 0.60000 -1.35230
v 5.03765 0.90000 -1.35230
v 5.40000 0.60000 -1.40000
v 5.40000 0.90000 -1.40000
v 5.76235 0.60000 -1.35230
v 5.76235 0.90000 -1.35230
v 6.10000 0.60000 -1.21244
v 6.10000 0.90000 -1.21244
v 6.38995 0.60000 -0.98995
v 6.38995 0.90000 -0.98995
v 6.61244 0.60000 -0.70000
v 6.61244 0.90000 -0.70000
v 6.75230 0.60000 -0.36235
v 6.75230 0.90000 -0.36235
v 5.40000 0.60000 0.00000
v 5.40000 0.90000 0.00000
v -0.13856 0.90000 0.08000
v -0.09798 0.78686 0.05657
v -0.00000 0.74000 0.00000
v 0.09798 0.78686 -0.05657
v 0.13856 0.90000 -0.08000
v 0.09798 1.01314 -0.05657
v 0.00000 1.06000 -0.00000
v -0.09798 1.01314 0.05657
v 2.56144 0.90000 4.75654
v 2.60202 0.78686 4.73311
v 2.70000 0.74000 4.67654
v 2.79798 0.78686 4.61997
v 2.83856 0.90000 4.59654
v 2.79798 1.01314 4.61997
v 2.70000 1.06000 4.67654
v 2.60202 1.01314 4.73311
v 0.00000 0.90000 0.00000
v 2.70000 0.90000 4.67654
v 4.10000 0.60000 4.67654
v 4.10000 0.90000 4.67654
v 4.05230 0.60000 5.03888
v 4.05230 0.90000 5.03888
v 3.91244 0.60000 5.37654
v 3.91244 0.90000 5.37654
v 3.68995 0.60000 5.66649
v 3.68995 0.90000 5.66649
v 3.40000 0.60000 5.88897
v 3.40000 0.90000 5.88897
v 3.06235 0.60000 6.02883
v 3.06235 0.90000 6.02883
v 2.70000 0.60000 6.07654
v 2.70000 0.90000 6.07654
v 2.33765 0.60000 6.02883
v 2.33765 0.90000 6.02883
v 2.00000 0.60000 5.88897
v 2.00000 0.90000 5.88897
v 1.71005 0.60000 5.66649
v 1.71005 0.90000 5.66649
v 1.48756 0.60000 5.37654
v 1.48756 0.90000 5.37654
v 1.34770 0.60000 5.03888
v 1.34770 0.90000 5.03888
v 1.30000 0.60000 4.67654
v 1.30000 0.90000 4.67654
v 1.34770 0.60000 4.31419
v 1.34770 0.90000 4.31419
v 1.48756 0.60000 3.97654
v 1.48756 0.90000 3.97654
v 1.71005 0.60000 3.68659
v 1.71005 0.90000 3.68659
v 2.00000 0.60000 3.46410
v 2.00000 0.90000 3.46410
v 2.33765 0.60000 3.32424
v 2.33765 0.90000 3.32424
v 2.70000 0.60000 3.27654
v 2.70000 0.90000 3.27654
v 3.06235 0.60000 3.32424
v 3.06235 0.90000 3.32424
v 3.40000 0.60000 3.46410
v 3.40000 0.90000 3.46410
v 3.68995 0.60000 3.68659
v 3.68995 0.90000 3.68659
v 3.91244 0.60000 3.97654
v 3.91244 0.90000 3.97654
v 4.05230 0.60000 4.31419
v 4.05230 0.90000 4.31419
v 2.70000 0.60000 4.67654
v 2.70000 0.90000 4.67654
v -0.13856 0.90000 -0.08000
v -0.09798 0.78686 -0.05657
v -0.00000 0.74000 -0.00000
v 0.09798 0.78686 0.05657
v 0.13856 0.90000 0.08000
v 0.09798 1.01314 0.05657
v 0.00000 1.06000 0.00000
v -0.09798 1.01314 -0.05657
v -2.83856 0.90000 4.59654
v -2.79798 0.78686 4.61997
v -2.70000 0.74000 4.67654
v -2.60202 0.78686 4.73311
v -2.56144 0.90000 4.75654
v -2.60202 1.01314 4.73311
v -2.70000 1.06000 4.67654
v -2.79798 1.01314 4.61997
v 0.00000 0.90000 0.00000
v -2.70000 0.90000 4.67654
v -1.30000 0.60000 4.67654
v -1.30000 0.90000 4.67654
v -1.34770 0.60000 5.03888
v -1.34770 0.90000 5.03888
v -1.48756 0.60000 5.37654
v -1.48756 0.90000 5.37654
v -1.71005 0.60000 5.66649
v -1.71005 0.90000 5.66649
v -2.00000 0.60000 5.88897
v -2.00000 0.90000 5.88897
v -2.33765 0.60000 6.02883
v -2.33765 0.90000 6.02883
v -2.70000 0.60000 6.07654
v -2.70000 0.90000 6.07654
v -3.06235 0.60000 6.02883
v -3.06235 0.90000 6.02883
v -3.40000 0.60000 5.88897
v -3.40000 0.90000 5.88897
v -3.68995 0.60000 5.66649
v -3.68995 0.90000 5.66649
v -3.91244 0.60000 5.37654
v -3.91244 0.90000 5.37654
v -4.05230 0.60000 5.03888
v -4.05230 0.90000 5.03888
v -4.10000 0.60000 4.67654
v -4.10000 0.90000 4.67654
v -4.05230 0.60000 4.31419
v -4.05230 0.90000 4.31419
v -3.91244 0.60000 3.97654
v -3.91244 0.90000 3.97654
v -3.68995 0.60000 3.68659
v -3.68995 0.90000 3.68659
v -3.40000 0.60000 3.46410
v -3.40000 0.90000 3.46410
v -3.06235 0.60000 3.32424
v -3.06235 0.90000 3.32424
v -2.70000 0.60000 3.27654
v -2.70000 0.90000 3.27654
v -2.33765 0.60000 3.32424
v -2.33765 0.90000 3.32424
v -2.00000 0.60000 3.46410
v -2.00000 0.90000 3.46410
v -1.71005 0.60000 3.68659
v -1.71005 0.90000 3.68659
v -1.48756 0.60000 3.97654
v -1.48756 0.90000 3.97654
v -1.34770 0.60000 4.31419
v -1.34770 0.90000 4.31419
v -2.70000 0.60000 4.67654
v -2.70000 0.90000 4.67654
v -0.00000 0.90000 -0.16000
v -0.00000 0.78686 -0.11314
v -0.00000 0.74000 -0.00000
v 0.00000 0.78686 0.11314
v 0.00000 0.90000 0.16000
v 0.00000 1.01314 0.11314
v 0.00000 1.06000 0.00000
v -0.00000 1.01314 -0.11314
v -5.40000 0.90000 -0.16000
v -5.40000 0.78686 -0.11314
v -5.40000 0.74000 0.00000
v -5.40000 0.78686 0.11314
v -5.40000 0.90000 0.16000
v -5.40000 1.01314 0.11314
v -5.40000 1.06000 0.00000
v -5.40000 1.01314 -0.11314
v 0.00000 0.90000 0.00000
v -5.40000 0.90000 0.00000
v -4.00000 0.60000 0.00000
v -4.00000 0.90000 0.00000
v -4.04770 0.60000 0.36235
v -4.04770 0.90000 0.36235
v -4.18756 0.60000 0.70000
v -4.18756 0.90000 0.70000
v -4.41005 0.60000 0.98995
v -4.41005 0.90000 0.98995
v -4.70000 0.60000 1.21244
v -4.70000 0.90000 1.21244
v -5.03765 0.60000 1.35230
v -5.03765 0.90000 1.35230
v -5.40000 0.60000 1.40000
v -5.40000 0.90000 1.40000
v -5.76235 0.60000 1.35230
v -5.76235 0.90000 1.35230
v -6.10000 0.60000 1.21244
v -6.10000 0.90000 1.21244
v -6.38995 0.60000 0.98995
v -6.38995 0.90000 0.98995
v -6.61244 0.60000 0.70000
v -6.61244 0.90000 0.70000
v -6.75230 0.60000 0.36235
v -6.75230 0.90000 0.36235
v -6.80000 0.60000 0.00000
v -6.80000 0.90000 0.00000
v -6.75230 0.60000 -0.36235
v -6.75230 0.90000 -0.36235
v -6.61244 0.60000 -0.70000
v -6.61244 0.90000 -0.70000
v -6.38995 0.60000 -0.98995
v -6.38995 0.90000 -0.98995
v -6.10000 0.60000 -1.21244
v -6.10000 0.90000 -1.21244
v -5.76235 0.60000 -1.35230
v -5.76235 0.90000 -1.35230
v -5.40000 0.60000 -1.40000
v -5.40000 0.90000 -1.40000
v -5.03765 0.60000 -1.35230
v -5.03765 0.90000 -1.35230
v -4.70000 0.60000 -1.21244
v -4.70000 0.90000 -1.21244
v -4.41005 0.60000 -0.98995
v -4.41005 0.90000 -0.98995
v -4.18756 0.60000 -0.70000
v -4.18756 0.90000 -0.70000
v -4.04770 0.60000 -0.36235
v -4.04770 0.90000 -0.36235
v -5.40000 0.60000 0.00000
v -5.40000 0.90000 0.00000
v 0.13856 0.90000 -0.08000
v 0.09798 0.78686 -0.05657
v 0.00000 0.74000 -0.00000
v -0.09798 0.78686 0.05657
v -0.13856 0.90000 0.08000
v -0.09798 1.01314 0.05657
v -0.00000 1.06000 0.00000
v 0.09798 1.01314 -0.05657
v -2.56144 0.90000 -4.75654
v -2.60202 0.78686 -4.73311
v -2.70000 0.74000 -4.67654
v -2.79798 0.78686 -4.61997
v -2.83856 0.90000 -4.59654
v -2.79798 1.01314 -4.61997
v -2.70000 1.06000 -4.67654
v -2.60202 1.01314 -4.73311
v 0.00000 0.90000 0.00000
v -2.70000 0.90000 -4.67654
v -1.30000 0.60000 -4.67654
v -1.30000 0.90000 -4.67654
v -1.34770 0.60000 -4.31419
v -1.34770 0.90000 -4.31419
v -1.48756 0.60000 -3.97654
v -1.48756 0.90000 -3.97654
v -1.71005 0.60000 -3.68659
v -1.71005 0.90000 -3.68659
v -2.00000 0.60000 -3.46410
v -2.00000 0.90000 -3.46410
v -2.33765 0.60000 -3.32424
v -2.33765 0.90000 -3.32424
v -2.70000 0.60000 -3.27654
v -2.70000 0.90000 -3.27654
v -3.06235 0.60000 -3.32424
v -3.06235 0.90000 -3.32424
v -3.40000 0.60000 -3.46410
v -3.40000 0.90000 -3.46410
v -3.68995 0.60000 -3.68659
v -3.68995 0.90000 -3.68659
v -3.91244 0.60000 -3.97654
v -3.91244 0.90000 -3.97654
v -4.05230 0.60000 -4.31419
v -4.05230 0.90000 -4.31419
v -4.10000 0.60000 -4.67654
v -4.10000 0.90000 -4.67654
v -4.05230 0.60000 -5.03888
v -4.05230 0.90000 -5.03888
v -3.91244 0.60000 -5.37654
v -3.91244 0.90000 -5.37654
v -3.68995 0.60000 -5.66649
v -3.68995 0.90000 -5.66649
v -3.40000 0.60000 -5.88897
v -3.40000 0.90000 -5.88897
v -3.06235 0.60000 -6.02883
v -3.06235 0.90000 -6.02883
v -2.70000 0.60000 -6.07654
v -2.70000 0.90000 -6.07654
v -2.33765 0.60000 -6.02883
v -2.33765 0.90000 -6.02883
v -2.00000 0.60000 -5.88897
v -2.00000 0.90000 -5.88897
v -1.71005 0.60000 -5.66649
v -1.71005 0.90000 -5.66649
v -1.48756 0.60000 -5.37654
v -1.48756 0.90000 -5.37654
v -1.34770 0.60000 -5.03888
v -1.34770 0.90000 -5.03888
v -2.70000 0.60000 -4.67654
v -2.70000 0.90000 -4.67654
v 0.13856 0.90000 0.08000
v 0.09798 0.78686 0.05657
v 0.00000 0.74000 0.00000
v -0.09798 0.78686 -0.05657
v -0.13856 0.90000 -0.08000
v -0.09798 1.01314 -0.05657
v -0.00000 1.06000 -0.00000
v 0.09798 1.01314 0.05657
v 2.83856 0.90000 -4.59654
v 2.79798 0.78686 -4.61997
v 2.70000 0.74000 -4.67654
v 2.60202 0.78686 -4.73311
v 2.56144 0.90000 -4.75654
v 2.60202 1.01314 -4.73311
v 2.70000 1.06000 -4.67654
v 2.79798 1.01314 -4.61997
v 0.00000 0.90000 0.00000
v 2.70000 0.90000 -4.67654
v 4.10000 0.60000 -4.67654
v 4.10000 0.90000 -4.67654
v 4.05230 0.60000 -4.31419
v 4.05230 0.90000 -4.31419
v 3.91244 0.60000 -3.97654
v 3.91244 0.90000 -3.97654
v 3.68995 0.60000 -3.68659
v 3.68995 0.90000 -3.68659
v 3.40000 0.60000 -3.46410
v 3.40000 0.90000 -3.46410
v 3.06235 0.60000 -3.32424
v 3.06235 0.90000 -3.32424
v 2.70000 0.60000 -3.27654
v 2.70000 0.90000 -3.27654
v 2.33765 0.60000 -3.32424
v 2.33765 0.90000 -3.32424
v 2.00000 0.60000 -3.46410
v 2.00000 0.90000 -3.46410
v 1.71005 0.60000 -3.68659
v 1.71005 0.90000 -3.68659
v 1.48756 0.60000 -3.97654
v 1.48756 0.90000 -3.97654
v 1.34770 0.60000 -4.31419
v 1.34770 0.90000 -4.31419
v 1.30000 0.60000 -4.67654
v 1.30000 0.90000 -4.67654
v 1.34770 0.60000 -5.03888
v 1.34770 0.90000 -5.03888
v 1.48756 0.60000 -5.37654
v 1.48756 0.90000 -5.37654
v 1.71005 0.60000 -5.66649
v 1.71005 0.90000 -5.66649
v 2.00000 0.60000 -5.88897
v 2.00000 0.90000 -5.88897
v 2.33765 0.60000 -6.02883
v 2.33765 0.90000 -6.02883
v 2.70000 0.60000 -6.07654
v 2.70000 0.90000 -6.07654
v 3.06235 0.60000 -6.02883
v 3.06235 0.90000 -6.02883
v 3.40000 0.60000 -5.88897
v 3.40000 0.90000 -5.88897
v 3.68995 0.60000 -5.66649
v 3.68995 0.90000 -5.66649
v 3.91244 0.60000 -5.37654
v 3.91244 0.90000 -5.37654
v 4.05230 0.60000 -5.03888
v 4.05230 0.90000 -5.03888
v 2.70000 0.60000 -4.67654
v 2.70000 0.90000 -4.67654
vt 0.05000 0.50000
vt 0.15000 0.50000
vt 0.25000 0.50000
vt 0.35000 0.50000
vt 0.45000 0.50000
vt 0.55000 0.50000
vt 0.65000 0.50000
vt 0.75000 0.50000
vt 0.85000 0.50000
vt 0.95000 0.50000
usemtl wood
f 2/5 4/5 3/5 1/5
f 1/5 3/5 89/5
f 4/5 2/5 90/5
f 4/5 6/5 5/5 3/5
f 3/5 5/5 89/5
f 6/5 4/5 90/5
f 6/5 8/5 7/5 5/5
f 5/5 7/5 89/5
f 8/5 6/5 90/5
f 8/5 10/5 9/5 7/5
f 7/5 9/5 89/5
f 10/5 8/5 90/5
f 10/5 12/5 11/5 9/5
f 9/5 11/5 89/5
f 12/5 10/5 90/5
f 12/5 14/5 13/5 11/5
f 11/5 13/5 89/5
f 14/5 12/5 90/5
f 14/5 16/5 15/5 13/5
f 13/5 15/5 89/5
f 16/5 14/5 90/5
f 16/5 18/5 17/5 15/5
f 15/5 17/5 89/5
f 18/5 16/5 90/5
f 18/5 20/5 19/5 17/5
f 17/5 19/5 89/5
f 20/5 18/5 90/5
f 20/5 22/5 21/5 19/5
f 19/5 21/5 89/5
f 22/5 20/5 90/5
f 22/5 24/5 23/5 21/5
f 21/5 23/5 89/5
f 24/5 22/5 90/5
f 24/5 26/5 25/5 23/5
f 23/5 25/5 89/5
f 26/5 24/5 90/5
f 26/5 28/5 27/5 25/5
f 25/5 27/5 89/5
f 28/5 26/5 90/5
f 28/5 30/5 29/5 27/5
f 27/5 29/5 89/5
f 30/5 28/5 90/5
f 30/5 32/5 31/5 29/5
f 29/5 31/5 89/5
f 32/5 30/5 90/5
f 32/5 34/5 33/5 31/5
f 31/5 33/5 89/5
f 34/5 32/5 90/5
f 34/5 36/5 35/5 33/5
f 33/5 35/5 89/5
f 36/5 34/5 90/5
f 36/5 38/5 37/5 35/5
f 35/5 37/5 89/5
f 38/5 36/5 90/5
f 38/5 40/5 39/5 37/5
f 37/5 39/5 89/5
f 40/5 38/5 90/5
f 40/5 42/5 41/5 39/5
f 39/5 41/5 89/5
f 42/5 40/5 90/5
f 42/5 44/5 43/5 41/5
f 41/5 43/5 89/5
f 44/5 42/5 90/5
f 44/5 46/5 45/5 43/5
f 43/5 45/5 89/5
f 46/5 44/5 90/5
f 46/5 48/5 47/5 45/5
f 45/5 47/5 89/5
f 48/5 46/5 90/5
f 48/5 50/5 49/5 47/5
f 47/5 49/5 89/5
f 50/5 48/5 90/5
f 50/5 52/5 51/5 49/5
f 49/5 51/5 89/5
f 52/5 50/5 90/5
f 52/5 54/5 53/5 51/5
f 51/5 53/5 89/5
f 54/5 52/5 90/5
f 54/5 56/5 55/5 53/5
f 53/5 55/5 89/5
f 56/5 54/5 90/5
f 56/5 58/5 57/5 55/5
f 55/5 57/5 89/5
f 58/5 56/5 90/5
f 58/5 60/5 59/5 57/5
f 57/5 59/5 89/5
f 60/5 58/5 90/5
f 60/5 62/5 61/5 59/5
f 59/5 61/5 89/5
f 62/5 60/5 90/5
f 62/5 64/5 63/5 61/5
f 61/5 63/5 89/5
f 64/5 62/5 90/5
f 64/5 66/5 65/5 63/5
f 63/5 65/5 89/5
f 66/5 64/5 90/5
f 66/5 68/5 67/5 65/5
f 65/5 67/5 89/5
f 68/5 66/5 90/5
f 68/5 70/5 69/5 67/5
f 67/5 69/5 89/5
f 70/5 68/5 90/5
f 70/5 72/5 71/5 69/5
f 69/5 71/5 89/5
f 72/5 70/5 90/5
f 72/5 74/5 73/5 71/5
f 71/5 73/5 89/5
f 74/5 72/5 90/5
f 74/5 76/5 75/5 73/5
f 73/5 75/5 89/5
f 76/5 74/5 90/5
f 76/5 78/5 77/5 75/5
f 75/5 77/5 89/5
f 78/5 76/5 90/5
f 78/5 80/5 79/5 77/5
f 77/5 79/5 89/5
f 80/5 78/5 90/5
f 80/5 82/5 81/5 79/5
f 79/5 81/5 89/5
f 82/5 80/5 90/5
f 82/5 84/5 83/5 81/5
f 81/5 83/5 89/5
f 84/5 82/5 90/5
f 84/5 86/5 85/5 83/5
f 83/5 85/5 89/5
f 86/5 84/5 90/5
f 86/5 88/5 87/5 85/5
f 85/5 87/5 89/5
f 88/5 86/5 90/5
f 88/5 2/5 1/5 87/5
f 87/5 1/5 89/5
f 2/5 88/5 90/5
f 579/5 580/5 566/5 565/5
f 580/5 581/5 567/5 566/5
f 581/5 582/5 568/5 567/5
f 582/5 583/5 569/5 568/5
f 583/5 584/5 570/5 569/5
f 584/5 585/5 571/5 570/5
f 585/5 586/5 572/5 571/5
f 586/5 587/5 573/5 572/5
f 587/5 588/5 574/5 573/5
f 588/5 589/5 575/5 574/5
f 589/5 590/5 576/5 575/5
f 590/5 591/5 577/5 576/5
f 591/5 592/5 578/5 577/5
f 592/5 579/5 565/5 578/5
f 593/5 594/5 580/5 579/5
f 594/5 595/5 581/5 580/5
f 595/5 596/5 582/5 581/5
f 596/5 597/5 583/5 582/5
f 597/5 598/5 584/5 583/5
f 598/5 599/5 585/5 584/5
f 599/5 600/5 586/5 585/5
f 600/5 601/5 587/5 586/5
f 601/5 602/5 588/5 587/5
f 602/5 603/5 589/5 588/5
f 603/5 604/5 590/5 589/5
f 604/5 605/5 591/5 590/5
f 605/5 606/5 592/5 591/5
f 606/5 593/5 579/5 592/5
f 607/5 608/5 594/5 593/5
f 608/5 609/5 595/5 594/5
f 609/5 610/5 596/5 595/5
f 610/5 611/5 597/5 596/5
f 611/5 612/5 598/5 597/5
f 612/5 613/5 599/5 598/5
f 613/5 614/5 600/5 599/5
f 614/5 615/5 601/5 600/5
f 615/5 616/5 602/5 601/5
f 616/5 617/5 603/5 602/5
f 617/5 618/5 604/5 603/5
f 618/5 619/5 605/5 604/5
f 619/5 620/5 606/5 605/5
f 620/5 607/5 593/5 606/5
f 621/5 622/5 630/5 629/5
f 637/5 622/5 621/5
f 638/5 629/5 630/5
f 622/5 623/5 631/5 630/5
f 637/5 623/5 622/5
f 638/5 630/5 631/5
f 623/5 624/5 632/5 631/5
f 637/5 624/5 623/5
f 638/5 631/5 632/5
f 624/5 625/5 633/5 632/5
f 637/5 625/5 624/5
f 638/5 632/5 633/5
f 625/5 626/5 634/5 633/5
f 637/5 626/5 625/5
f 638/5 633/5 634/5
f 626/5 627/5 635/5 634/5
f 637/5 627/5 626/5
f 638/5 634/5 635/5
f 627/5 628/5 636/5 635/5
f 637/5 628/5 627/5
f 638/5 635/5 636/5
f 628/5 621/5 629/5 636/5
f 637/5 621/5 628/5
f 638/5 636/5 629/5
f 647/5 650/5 649/5 648/5
f 651/5 652/5 653/5 654/5
f 647/5 651/5 654/5 650/5
f 648/5 649/5 653/5 652/5
f 647/5 648/5 652/5 651/5
f 650/5 654/5 653/5 649/5
f 691/5 692/5 684/5 683/5
f 683/5 684/5 699/5
f 692/5 691/5 700/5
f 692/5 693/5 685/5 684/5
f 684/5 685/5 699/5
f 693/5 692/5 700/5
f 693/5 694/5 686/5 685/5
f 685/5 686/5 699/5
f 694/5 693/5 700/5
f 694/5 695/5 687/5 686/5
f 686/5 687/5 699/5
f 695/5 694/5 700/5
f 695/5 696/5 688/5 687/5
f 687/5 688/5 699/5
f 696/5 695/5 700/5
f 696/5 697/5 689/5 688/5
f 688/5 689/5 699/5
f 697/5 696/5 700/5
f 697/5 698/5 690/5 689/5
f 689/5 690/5 699/5
f 698/5 697/5 700/5
f 698/5 691/5 683/5 690/5
f 690/5 683/5 699/5
f 691/5 698/5 700/5
f 759/5 760/5 752/5 751/5
f 751/5 752/5 767/5
f 760/5 759/5 768/5
f 760/5 761/5 753/5 752/5
f 752/5 753/5 767/5
f 761/5 760/5 768/5
f 761/5 762/5 754/5 753/5
f 753/5 754/5 767/5
f 762/5 761/5 768/5
f 762/5 763/5 755/5 754/5
f 754/5 755/5 767/5
f 763/5 762/5 768/5
f 763/5 764/5 756/5 755/5
f 755/5 756/5 767/5
f 764/5 763/5 768/5
f 764/5 765/5 757/5 756/5
f 756/5 757/5 767/5
f 765/5 764/5 768/5
f 765/5 766/5 758/5 757/5
f 757/5 758/5 767/5
f 766/5 765/5 768/5
f 766/5 759/5 751/5 758/5
f 758/5 751/5 767/5
f 759/5 766/5 768/5
f 827/5 828/5 820/5 819/5
f 819/5 820/5 835/5
f 828/5 827/5 836/5
f 828/5 829/5 821/5 820/5
f 820/5 821/5 835/5
f 829/5 828/5 836/5
f 829/5 830/5 822/5 821/5
f 821/5 822/5 835/5
f 830/5 829/5 836/5
f 830/5 831/5 823/5 822/5
f 822/5 823/5 835/5
f 831/5 830/5 836/5
f 831/5 832/5 824/5 823/5
f 823/5 824/5 835/5
f 832/5 831/5 836/5
f 832/5 833/5 825/5 824/5
f 824/5 825/5 835/5
f 833/5 832/5 836/5
f 833/5 834/5 826/5 825/5
f 825/5 826/5 835/5
f 834/5 833/5 836/5
f 834/5 827/5 819/5 826/5
f 826/5 819/5 835/5
f 827/5 834/5 836/5
f 895/5 896/5 888/5 887/5
f 887/5 888/5 903/5
f 896/5 895/5 904/5
f 896/5 897/5 889/5 888/5
f 888/5 889/5 903/5
f 897/5 896/5 904/5
f 897/5 898/5 890/5 889/5
f 889/5 890/5 903/5
f 898/5 897/5 904/5
f 898/5 899/5 891/5 890/5
f 890/5 891/5 903/5
f 899/5 898/5 904/5
f 899/5 900/5 892/5 891/5
f 891/5 892/5 903/5
f 900/5 899/5 904/5
f 900/5 901/5 893/5 892/5
f 892/5 893/5 903/5
f 901/5 900/5 904/5
f 901/5 902/5 894/5 893/5
f 893/5 894/5 903/5
f 902/5 901/5 904/5
f 902/5 895/5 887/5 894/5
f 894/5 887/5 903/5
f 895/5 902/5 904/5
f 963/5 964/5 956/5 955/5
f 955/5 956/5 971/5
f 964/5 963/5 972/5
f 964/5 965/5 957/5 956/5
f 956/5 957/5 971/5
f 965/5 964/5 972/5
f 965/5 966/5 958/5 957/5
f 957/5 958/5 971/5
f 966/5 965/5 972/5
f 966/5 967/5 959/5 958/5
f 958/5 959/5 971/5
f 967/5 966/5 972/5
f 967/5 968/5 960/5 959/5
f 959/5 960/5 971/5
f 968/5 967/5 972/5
f 968/5 969/5 961/5 960/5
f 960/5 961/5 971/5
f 969/5 968/5 972/5
f 969/5 970/5 962/5 961/5
f 961/5 962/5 971/5
f 970/5 969/5 972/5
f 970/5 963/5 955/5 962/5
f 962/5 955/5 971/5
f 963/5 970/5 972/5
f 1031/5 1032/5 1024/5 1023/5
f 1023/5 1024/5 1039/5
f 1032/5 1031/5 1040/5
f 1032/5 1033/5 1025/5 1024/5
f 1024/5 1025/5 1039/5
f 1033/5 1032/5 1040/5
f 1033/5 1034/5 1026/5 1025/5
f 1025/5 1026/5 1039/5
f 1034/5 1033/5 1040/5
f 1034/5 1035/5 1027/5 1026/5
f 1026/5 1027/5 1039/5
f 1035/5 1034/5 1040/5
f 1035/5 1036/5 1028/5 1027/5
f 1027/5 1028/5 1039/5
f 1036/5 1035/5 1040/5
f 1036/5 1037/5 1029/5 1028/5
f 1028/5 1029/5 1039/5
f 1037/5 1036/5 1040/5
f 1037/5 1038/5 1030/5 1029/5
f 1029/5 1030/5 1039/5
f 1038/5 1037/5 1040/5
f 1038/5 1031/5 1023/5 1030/5
f 1030/5 1023/5 1039/5
f 1031/5 1038/5 1040/5
usemtl ink
f 92/6 94/6 93/6 91/6
f 91/6 93/6 179/6
f 94/6 92/6 180/6
f 94/6 96/6 95/6 93/6
f 93/6 95/6 179/6
f 96/6 94/6 180/6
f 96/6 98/6 97/6 95/6
f 95/6 97/6 179/6
f 98/6 96/6 180/6
f 98/6 100/6 99/6 97/6
f 97/6 99/6 179/6
f 100/6 98/6 180/6
f 100/6 102/6 101/6 99/6
f 99/6 101/6 179/6
f 102/6 100/6 180/6
f 102/6 104/6 103/6 101/6
f 101/6 103/6 179/6
f 104/6 102/6 180/6
f 104/6 106/6 105/6 103/6
f 103/6 105/6 179/6
f 106/6 104/6 180/6
f 106/6 108/6 107/6 105/6
f 105/6 107/6 179/6
f 108/6 106/6 180/6
f 108/6 110/6 109/6 107/6
f 107/6 109/6 179/6
f 110/6 108/6 180/6
f 110/6 112/6 111/6 109/6
f 109/6 111/6 179/6
f 112/6 110/6 180/6
f 112/6 114/6 113/6 111/6
f 111/6 113/6 179/6
f 114/6 112/6 180/6
f 114/6 116/6 115/6 113/6
f 113/6 115/6 179/6
f 116/6 114/6 180/6
f 116/6 118/6 117/6 115/6
f 115/6 117/6 179/6
f 118/6 116/6 180/6
f 118/6 120/6 119/6 117/6
f 117/6 119/6 179/6
f 120/6 118/6 180/6
f 120/6 122/6 121/6 119/6
f 119/6 121/6 179/6
f 122/6 120/6 180/6
f 122/6 124/6 123/6 121/6
f 121/6 123/6 179/6
f 124/6 122/6 180/6
f 124/6 126/6 125/6 123/6
f 123/6 125/6 179/6
f 126/6 124/6 180/6
f 126/6 128/6 127/6 125/6
f 125/6 127/6 179/6
f 128/6 126/6 180/6
f 128/6 130/6 129/6 127/6
f 127/6 129/6 179/6
f 130/6 128/6 180/6
f 130/6 132/6 131/6 129/6
f 129/6 131/6 179/6
f 132/6 130/6 180/6
f 132/6 134/6 133/6 131/6
f 131/6 133/6 179/6
f 134/6 132/6 180/6
f 134/6 136/6 135/6 133/6
f 133/6 135/6 179/6
f 136/6 134/6 180/6
f 136/6 138/6 137/6 135/6
f 135/6 137/6 179/6
f 138/6 136/6 180/6
f 138/6 140/6 139/6 137/6
f 137/6 139/6 179/6
f 140/6 138/6 180/6
f 140/6 142/6 141/6 139/6
f 139/6 141/6 179/6
f 142/6 140/6 180/6
f 142/6 144/6 143/6 141/6
f 141/6 143/6 179/6
f 144/6 142/6 180/6
f 144/6 146/6 145/6 143/6
f 143/6 145/6 179/6
f 146/6 144/6 180/6
f 146/6 148/6 147/6 145/6
f 145/6 147/6 179/6
f 148/6 146/6 180/6
f 148/6 150/6 149/6 147/6
f 147/6 149/6 179/6
f 150/6 148/6 180/6
f 150/6 152/6 151/6 149/6
f 149/6 151/6 179/6
f 152/6 150/6 180/6
f 152/6 154/6 153/6 151/6
f 151/6 153/6 179/6
f 154/6 152/6 180/6
f 154/6 156/6 155/6 153/6
f 153/6 155/6 179/6
f 156/6 154/6 180/6
f 156/6 158/6 157/6 155/6
f 155/6 157/6 179/6
f 158/6 156/6 180/6
f 158/6 160/6 159/6 157/6
f 157/6 159/6 179/6
f 160/6 158/6 180/6
f 160/6 162/6 161/6 159/6
f 159/6 161/6 179/6
f 162/6 160/6 180/6
f 162/6 164/6 163/6 161/6
f 161/6 163/6 179/6
f 164/6 162/6 180/6
f 164/6 166/6 165/6 163/6
f 163/6 165/6 179/6
f 166/6 164/6 180/6
f 166/6 168/6 167/6 165/6
f 165/6 167/6 179/6
f 168/6 166/6 180/6
f 168/6 170/6 169/6 167/6
f 167/6 169/6 179/6
f 170/6 168/6 180/6
f 170/6 172/6 171/6 169/6
f 169/6 171/6 179/6
f 172/6 170/6 180/6
f 172/6 174/6 173/6 171/6
f 171/6 173/6 179/6
f 174/6 172/6 180/6
f 174/6 176/6 175/6 173/6
f 173/6 175/6 179/6
f 176/6 174/6 180/6
f 176/6 178/6 177/6 175/6
f 175/6 177/6 179/6
f 178/6 176/6 180/6
f 178/6 92/6 91/6 177/6
f 177/6 91/6 179/6
f 92/6 178/6 180/6
f 445/6 446/6 450/6 449/6
f 453/6 446/6 445/6
f 454/6 449/6 450/6
f 446/6 447/6 451/6 450/6
f 453/6 447/6 446/6
f 454/6 450/6 451/6
f 447/6 448/6 452/6 451/6
f 453/6 448/6 447/6
f 454/6 451/6 452/6
f 448/6 445/6 449/6 452/6
f 453/6 445/6 448/6
f 454/6 452/6 449/6
f 455/6 456/6 460/6 459/6
f 463/6 456/6 455/6
f 464/6 459/6 460/6
f 456/6 457/6 461/6 460/6
f 463/6 457/6 456/6
f 464/6 460/6 461/6
f 457/6 458/6 462/6 461/6
f 463/6 458/6 457/6
f 464/6 461/6 462/6
f 458/6 455/6 459/6 462/6
f 463/6 455/6 458/6
f 464/6 462/6 459/6
f 465/6 466/6 470/6 469/6
f 473/6 466/6 465/6
f 474/6 469/6 470/6
f 466/6 467/6 471/6 470/6
f 473/6 467/6 466/6
f 474/6 470/6 471/6
f 467/6 468/6 472/6 471/6
f 473/6 468/6 467/6
f 474/6 471/6 472/6
f 468/6 465/6 469/6 472/6
f 473/6 465/6 468/6
f 474/6 472/6 469/6
f 475/6 476/6 480/6 479/6
f 483/6 476/6 475/6
f 484/6 479/6 480/6
f 476/6 477/6 481/6 480/6
f 483/6 477/6 476/6
f 484/6 480/6 481/6
f 477/6 478/6 482/6 481/6
f 483/6 478/6 477/6
f 484/6 481/6 482/6
f 478/6 475/6 479/6 482/6
f 483/6 475/6 478/6
f 484/6 482/6 479/6
f 485/6 486/6 490/6 489/6
f 493/6 486/6 485/6
f 494/6 489/6 490/6
f 486/6 487/6 491/6 490/6
f 493/6 487/6 486/6
f 494/6 490/6 491/6
f 487/6 488/6 492/6 491/6
f 493/6 488/6 487/6
f 494/6 491/6 492/6
f 488/6 485/6 489/6 492/6
f 493/6 485/6 488/6
f 494/6 492/6 489/6
f 495/6 496/6 500/6 499/6
f 503/6 496/6 495/6
f 504/6 499/6 500/6
f 496/6 497/6 501/6 500/6
f 503/6 497/6 496/6
f 504/6 500/6 501/6
f 497/6 498/6 502/6 501/6
f 503/6 498/6 497/6
f 504/6 501/6 502/6
f 498/6 495/6 499/6 502/6
f 503/6 495/6 498/6
f 504/6 502/6 499/6
f 505/6 506/6 510/6 509/6
f 513/6 506/6 505/6
f 514/6 509/6 510/6
f 506/6 507/6 511/6 510/6
f 513/6 507/6 506/6
f 514/6 510/6 511/6
f 507/6 508/6 512/6 511/6
f 513/6 508/6 507/6
f 514/6 511/6 512/6
f 508/6 505/6 509/6 512/6
f 513/6 505/6 508/6
f 514/6 512/6 509/6
f 515/6 516/6 520/6 519/6
f 523/6 516/6 515/6
f 524/6 519/6 520/6
f 516/6 517/6 521/6 520/6
f 523/6 517/6 516/6
f 524/6 520/6 521/6
f 517/6 518/6 522/6 521/6
f 523/6 518/6 517/6
f 524/6 521/6 522/6
f 518/6 515/6 519/6 522/6
f 523/6 515/6 518/6
f 524/6 522/6 519/6
f 525/6 526/6 530/6 529/6
f 533/6 526/6 525/6
f 534/6 529/6 530/6
f 526/6 527/6 531/6 530/6
f 533/6 527/6 526/6
f 534/6 530/6 531/6
f 527/6 528/6 532/6 531/6
f 533/6 528/6 527/6
f 534/6 531/6 532/6
f 528/6 525/6 529/6 532/6
f 533/6 525/6 528/6
f 534/6 532/6 529/6
f 535/6 536/6 540/6 539/6
f 543/6 536/6 535/6
f 544/6 539/6 540/6
f 536/6 537/6 541/6 540/6
f 543/6 537/6 536/6
f 544/6 540/6 541/6
f 537/6 538/6 542/6 541/6
f 543/6 538/6 537/6
f 544/6 541/6 542/6
f 538/6 535/6 539/6 542/6
f 543/6 535/6 538/6
f 544/6 542/6 539/6
f 545/6 546/6 550/6 549/6
f 553/6 546/6 545/6
f 554/6 549/6 550/6
f 546/6 547/6 551/6 550/6
f 553/6 547/6 546/6
f 554/6 550/6 551/6
f 547/6 548/6 552/6 551/6
f 553/6 548/6 547/6
f 554/6 551/6 552/6
f 548/6 545/6 549/6 552/6
f 553/6 545/6 548/6
f 554/6 552/6 549/6
f 555/6 556/6 560/6 559/6
f 563/6 556/6 555/6
f 564/6 559/6 560/6
f 556/6 557/6 561/6 560/6
f 563/6 557/6 556/6
f 564/6 560/6 561/6
f 557/6 558/6 562/6 561/6
f 563/6 558/6 557/6
f 564/6 561/6 562/6
f 558/6 555/6 559/6 562/6
f 563/6 555/6 558/6
f 564/6 562/6 559/6
f 655/6 658/6 657/6 656/6
f 659/6 660/6 661/6 662/6
f 655/6 659/6 662/6 658/6
f 656/6 657/6 661/6 660/6
f 655/6 656/6 660/6 659/6
f 658/6 662/6 661/6 657/6
f 702/6 704/6 703/6 701/6
f 701/6 703/6 749/6
f 704/6 702/6 750/6
f 704/6 706/6 705/6 703/6
f 703/6 705/6 749/6
f 706/6 704/6 750/6
f 706/6 708/6 707/6 705/6
f 705/6 707/6 749/6
f 708/6 706/6 750/6
f 708/6 710/6 709/6 707/6
f 707/6 709/6 749/6
f 710/6 708/6 750/6
f 710/6 712/6 711/6 709/6
f 709/6 711/6 749/6
f 712/6 710/6 750/6
f 712/6 714/6 713/6 711/6
f 711/6 713/6 749/6
f 714/6 712/6 750/6
f 714/6 716/6 715/6 713/6
f 713/6 715/6 749/6
f 716/6 714/6 750/6
f 716/6 718/6 717/6 715/6
f 715/6 717/6 749/6
f 718/6 716/6 750/6
f 718/6 720/6 719/6 717/6
f 717/6 719/6 749/6
f 720/6 718/6 750/6
f 720/6 722/6 721/6 719/6
f 719/6 721/6 749/6
f 722/6 720/6 750/6
f 722/6 724/6 723/6 721/6
f 721/6 723/6 749/6
f 724/6 722/6 750/6
f 724/6 726/6 725/6 723/6
f 723/6 725/6 749/6
f 726/6 724/6 750/6
f 726/6 728/6 727/6 725/6
f 725/6 727/6 749/6
f 728/6 726/6 750/6
f 728/6 730/6 729/6 727/6
f 727/6 729/6 749/6
f 730/6 728/6 750/6
f 730/6 732/6 731/6 729/6
f 729/6 731/6 749/6
f 732/6 730/6 750/6
f 732/6 734/6 733/6 731/6
f 731/6 733/6 749/6
f 734/6 732/6 750/6
f 734/6 736/6 735/6 733/6
f 733/6 735/6 749/6
f 736/6 734/6 750/6
f 736/6 738/6 737/6 735/6
f 735/6 737/6 749/6
f 738/6 736/6 750/6
f 738/6 740/6 739/6 737/6
f 737/6 739/6 749/6
f 740/6 738/6 750/6
f 740/6 742/6 741/6 739/6
f 739/6 741/6 749/6
f 742/6 740/6 750/6
f 742/6 744/6 743/6 741/6
f 741/6 743/6 749/6
f 744/6 742/6 750/6
f 744/6 746/6 745/6 743/6
f 743/6 745/6 749/6
f 746/6 744/6 750/6
f 746/6 748/6 747/6 745/6
f 745/6 747/6 749/6
f 748/6 746/6 750/6
f 748/6 702/6 701/6 747/6
f 747/6 701/6 749/6
f 702/6 748/6 750/6
f 770/6 772/6 771/6 769/6
f 769/6 771/6 817/6
f 772/6 770/6 818/6
f 772/6 774/6 773/6 771/6
f 771/6 773/6 817/6
f 774/6 772/6 818/6
f 774/6 776/6 775/6 773/6
f 773/6 775/6 817/6
f 776/6 774/6 818/6
f 776/6 778/6 777/6 775/6
f 775/6 777/6 817/6
f 778/6 776/6 818/6
f 778/6 780/6 779/6 777/6
f 777/6 779/6 817/6
f 780/6 778/6 818/6
f 780/6 782/6 781/6 779/6
f 779/6 781/6 817/6
f 782/6 780/6 818/6
f 782/6 784/6 783/6 781/6
f 781/6 783/6 817/6
f 784/6 782/6 818/6
f 784/6 786/6 785/6 783/6
f 783/6 785/6 817/6
f 786/6 784/6 818/6
f 786/6 788/6 787/6 785/6
f 785/6 787/6 817/6
f 788/6 786/6 818/6
f 788/6 790/6 789/6 787/6
f 787/6 789/6 817/6
f 790/6 788/6 818/6
f 790/6 792/6 791/6 789/6
f 789/6 791/6 817/6
f 792/6 790/6 818/6
f 792/6 794/6 793/6 791/6
f 791/6 793/6 817/6
f 794/6 792/6 818/6
f 794/6 796/6 795/6 793/6
f 793/6 795/6 817/6
f 796/6 794/6 818/6
f 796/6 798/6 797/6 795/6
f 795/6 797/6 817/6
f 798/6 796/6 818/6
f 798/6 800/6 799/6 797/6
f 797/6 799/6 817/6
f 800/6 798/6 818/6
f 800/6 802/6 801/6 799/6
f 799/6 801/6 817/6
f 802/6 800/6 818/6
f 802/6 804/6 803/6 801/6
f 801/6 803/6 817/6
f 804/6 802/6 818/6
f 804/6 806/6 805/6 803/6
f 803/6 805/6 817/6
f 806/6 804/6 818/6
f 806/6 808/6 807/6 805/6
f 805/6 807/6 817/6
f 808/6 806/6 818/6
f 808/6 810/6 809/6 807/6
f 807/6 809/6 817/6
f 810/6 808/6 818/6
f 810/6 812/6 811/6 809/6
f 809/6 811/6 817/6
f 812/6 810/6 818/6
f 812/6 814/6 813/6 811/6
f 811/6 813/6 817/6
f 814/6 812/6 818/6
f 814/6 816/6 815/6 813/6
f 813/6 815/6 817/6
f 816/6 814/6 818/6
f 816/6 770/6 769/6 815/6
f 815/6 769/6 817/6
f 770/6 816/6 818/6
f 838/6 840/6 839/6 837/6
f 837/6 839/6 885/6
f 840/6 838/6 886/6
f 840/6 842/6 841/6 839/6
f 839/6 841/6 885/6
f 842/6 840/6 886/6
f 842/6 844/6 843/6 841/6
f 841/6 843/6 885/6
f 844/6 842/6 886/6
f 844/6 846/6 845/6 843/6
f 843/6 845/6 885/6
f 846/6 844/6 886/6
f 846/6 848/6 847/6 845/6
f 845/6 847/6 885/6
f 848/6 846/6 886/6
f 848/6 850/6 849/6 847/6
f 847/6 849/6 885/6
f 850/6 848/6 886/6
f 850/6 852/6 851/6 849/6
f 849/6 851/6 885/6
f 852/6 850/6 886/6
f 852/6 854/6 853/6 851/6
f 851/6 853/6 885/6
f 854/6 852/6 886/6
f 854/6 856/6 855/6 853/6
f 853/6 855/6 885/6
f 856/6 854/6 886/6
f 856/6 858/6 857/6 855/6
f 855/6 857/6 885/6
f 858/6 856/6 886/6
f 858/6 860/6 859/6 857/6
f 857/6 859/6 885/6
f 860/6 858/6 886/6
f 860/6 862/6 861/6 859/6
f 859/6 861/6 885/6
f 862/6 860/6 886/6
f 862/6 864/6 863/6 861/6
f 861/6 863/6 885/6
f 864/6 862/6 886/6
f 864/6 866/6 865/6 863/6
f 863/6 865/6 885/6
f 866/6 864/6 886/6
f 866/6 868/6 867/6 865/6
f 865/6 867/6 885/6
f 868/6 866/6 886/6
f 868/6 870/6 869/6 867/6
f 867/6 869/6 885/6
f 870/6 868/6 886/6
f 870/6 872/6 871/6 869/6
f 869/6 871/6 885/6
f 872/6 870/6 886/6
f 872/6 874/6 873/6 871/6
f 871/6 873/6 885/6
f 874/6 872/6 886/6
f 874/6 876/6 875/6 873/6
f 873/6 875/6 885/6
f 876/6 874/6 886/6
f 876/6 878/6 877/6 875/6
f 875/6 877/6 885/6
f 878/6 876/6 886/6
f 878/6 880/6 879/6 877/6
f 877/6 879/6 885/6
f 880/6 878/6 886/6
f 880/6 882/6 881/6 879/6
f 879/6 881/6 885/6
f 882/6 880/6 886/6
f 882/6 884/6 883/6 881/6
f 881/6 883/6 885/6
f 884/6 882/6 886/6
f 884/6 838/6 837/6 883/6
f 883/6 837/6 885/6
f 838/6 884/6 886/6
f 906/6 908/6 907/6 905/6
f 905/6 907/6 953/6
f 908/6 906/6 954/6
f 908/6 910/6 909/6 907/6
f 907/6 909/6 953/6
f 910/6 908/6 954/6
f 910/6 912/6 911/6 909/6
f 909/6 911/6 953/6
f 912/6 910/6 954/6
f 912/6 914/6 913/6 911/6
f 911/6 913/6 953/6
f 914/6 912/6 954/6
f 914/6 916/6 915/6 913/6
f 913/6 915/6 953/6
f 916/6 914/6 954/6
f 916/6 918/6 917/6 915/6
f 915/6 917/6 953/6
f 918/6 916/6 954/6
f 918/6 920/6 919/6 917/6
f 917/6 919/6 953/6
f 920/6 918/6 954/6
f 920/6 922/6 921/6 919/6
f 919/6 921/6 953/6
f 922/6 920/6 954/6
f 922/6 924/6 923/6 921/6
f 921/6 923/6 953/6
f 924/6 922/6 954/6
f 924/6 926/6 925/6 923/6
f 923/6 925/6 953/6
f 926/6 924/6 954/6
f 926/6 928/6 927/6 925/6
f 925/6 927/6 953/6
f 928/6 926/6 954/6
f 928/6 930/6 929/6 927/6
f 927/6 929/6 953/6
f 930/6 928/6 954/6
f 930/6 932/6 931/6 929/6
f 929/6 931/6 953/6
f 932/6 930/6 954/6
f 932/6 934/6 933/6 931/6
f 931/6 933/6 953/6
f 934/6 932/6 954/6
f 934/6 936/6 935/6 933/6
f 933/6 935/6 953/6
f 936/6 934/6 954/6
f 936/6 938/6 937/6 935/6
f 935/6 937/6 953/6
f 938/6 936/6 954/6
f 938/6 940/6 939/6 937/6
f 937/6 939/6 953/6
f 940/6 938/6 954/6
f 940/6 942/6 941/6 939/6
f 939/6 941/6 953/6
f 942/6 940/6 954/6
f 942/6 944/6 943/6 941/6
f 941/6 943/6 953/6
f 944/6 942/6 954/6
f 944/6 946/6 945/6 943/6
f 943/6 945/6 953/6
f 946/6 944/6 954/6
f 946/6 948/6 947/6 945/6
f 945/6 947/6 953/6
f 948/6 946/6 954/6
f 948/6 950/6 949/6 947/6
f 947/6 949/6 953/6
f 950/6 948/6 954/6
f 950/6 952/6 951/6 949/6
f 949/6 951/6 953/6
f 952/6 950/6 954/6
f 952/6 906/6 905/6 951/6
f 951/6 905/6 953/6
f 906/6 952/6 954/6
f 974/6 976/6 975/6 973/6
f 973/6 975/6 1021/6
f 976/6 974/6 1022/6
f 976/6 978/6 977/6 975/6
f 975/6 977/6 1021/6
f 978/6 976/6 1022/6
f 978/6 980/6 979/6 977/6
f 977/6 979/6 1021/6
f 980/6 978/6 1022/6
f 980/6 982/6 981/6 979/6
f 979/6 981/6 1021/6
f 982/6 980/6 1022/6
f 982/6 984/6 983/6 981/6
f 981/6 983/6 1021/6
f 984/6 982/6 1022/6
f 984/6 986/6 985/6 983/6
f 983/6 985/6 1021/6
f 986/6 984/6 1022/6
f 986/6 988/6 987/6 985/6
f 985/6 987/6 1021/6
f 988/6 986/6 1022/6
f 988/6 990/6 989/6 987/6
f 987/6 989/6 1021/6
f 990/6 988/6 1022/6
f 990/6 992/6 991/6 989/6
f 989/6 991/6 1021/6
f 992/6 990/6 1022/6
f 992/6 994/6 993/6 991/6
f 991/6 993/6 1021/6
f 994/6 992/6 1022/6
f 994/6 996/6 995/6 993/6
f 993/6 995/6 1021/6
f 996/6 994/6 1022/6
f 996/6 998/6 997/6 995/6
f 995/6 997/6 1021/6
f 998/6 996/6 1022/6
f 998/6 1000/6 999/6 997/6
f 997/6 999/6 1021/6
f 1000/6 998/6 1022/6
f 1000/6 1002/6 1001/6 999/6
f 999/6 1001/6 1021/6
f 1002/6 1000/6 1022/6
f 1002/6 1004/6 1003/6 1001/6
f 1001/6 1003/6 1021/6
f 1004/6 1002/6 1022/6
f 1004/6 1006/6 1005/6 1003/6
f 1003/6 1005/6 1021/6
f 1006/6 1004/6 1022/6
f 1006/6 1008/6 1007/6 1005/6
f 1005/6 1007/6 1021/6
f 1008/6 1006/6 1022/6
f 1008/6 1010/6 1009/6 1007/6
f 1007/6 1009/6 1021/6
f 1010/6 1008/6 1022/6
f 1010/6 1012/6 1011/6 1009/6
f 1009/6 1011/6 1021/6
f 1012/6 1010/6 1022/6
f 1012/6 1014/6 1013/6 1011/6
f 1011/6 1013/6 1021/6
f 1014/6 1012/6 1022/6
f 1014/6 1016/6 1015/6 1013/6
f 1013/6 1015/6 1021/6
f 1016/6 1014/6 1022/6
f 1016/6 1018/6 1017/6 1015/6
f 1015/6 1017/6 1021/6
f 1018/6 1016/6 1022/6
f 1018/6 1020/6 1019/6 1017/6
f 1017/6 1019/6 1021/6
f 1020/6 1018/6 1022/6
f 1020/6 974/6 973/6 1019/6
f 1019/6 973/6 1021/6
f 974/6 1020/6 1022/6
f 1042/6 1044/6 1043/6 1041/6
f 1041/6 1043/6 1089/6
f 1044/6 1042/6 1090/6
f 1044/6 1046/6 1045/6 1043/6
f 1043/6 1045/6 1089/6
f 1046/6 1044/6 1090/6
f 1046/6 1048/6 1047/6 1045/6
f 1045/6 1047/6 1089/6
f 1048/6 1046/6 1090/6
f 1048/6 1050/6 1049/6 1047/6
f 1047/6 1049/6 1089/6
f 1050/6 1048/6 1090/6
f 1050/6 1052/6 1051/6 1049/6
f 1049/6 1051/6 1089/6
f 1052/6 1050/6 1090/6
f 1052/6 1054/6 1053/6 1051/6
f 1051/6 1053/6 1089/6
f 1054/6 1052/6 1090/6
f 1054/6 1056/6 1055/6 1053/6
f 1053/6 1055/6 1089/6
f 1056/6 1054/6 1090/6
f 1056/6 1058/6 1057/6 1055/6
f 1055/6 1057/6 1089/6
f 1058/6 1056/6 1090/6
f 1058/6 1060/6 1059/6 1057/6
f 1057/6 1059/6 1089/6
f 1060/6 1058/6 1090/6
f 1060/6 1062/6 1061/6 1059/6
f 1059/6 1061/6 1089/6
f 1062/6 1060/6 1090/6
f 1062/6 1064/6 1063/6 1061/6
f 1061/6 1063/6 1089/6
f 1064/6 1062/6 1090/6
f 1064/6 1066/6 1065/6 1063/6
f 1063/6 1065/6 1089/6
f 1066/6 1064/6 1090/6
f 1066/6 1068/6 1067/6 1065/6
f 1065/6 1067/6 1089/6
f 1068/6 1066/6 1090/6
f 1068/6 1070/6 1069/6 1067/6
f 1067/6 1069/6 1089/6
f 1070/6 1068/6 1090/6
f 1070/6 1072/6 1071/6 1069/6
f 1069/6 1071/6 1089/6
f 1072/6 1070/6 1090/6
f 1072/6 1074/6 1073/6 1071/6
f 1071/6 1073/6 1089/6
f 1074/6 1072/6 1090/6
f 1074/6 1076/6 1075/6 1073/6
f 1073/6 1075/6 1089/6
f 1076/6 1074/6 1090/6
f 1076/6 1078/6 1077/6 1075/6
f 1075/6 1077/6 1089/6
f 1078/6 1076/6 1090/6
f 1078/6 1080/6 1079/6 1077/6
f 1077/6 1079/6 1089/6
f 1080/6 1078/6 1090/6
f 1080/6 1082/6 1081/6 1079/6
f 1079/6 1081/6 1089/6
f 1082/6 1080/6 1090/6
f 1082/6 1084/6 1083/6 1081/6
f 1081/6 1083/6 1089/6
f 1084/6 1082/6 1090/6
f 1084/6 1086/6 1085/6 1083/6
f 1083/6 1085/6 1089/6
f 1086/6 1084/6 1090/6
f 1086/6 1088/6 1087/6 1085/6
f 1085/6 1087/6 1089/6
f 1088/6 1086/6 1090/6
f 1088/6 1042/6 1041/6 1087/6
f 1087/6 1041/6 1089/6
f 1042/6 1088/6 1090/6
usemtl gold
f 181/4 182/4 188/4 187/4
f 182/4 183/4 189/4 188/4
f 183/4 184/4 190/4 189/4
f 184/4 185/4 191/4 190/4
f 185/4 186/4 192/4 191/4
f 186/4 181/4 187/4 192/4
f 187/4 188/4 194/4 193/4
f 188/4 189/4 195/4 194/4
f 189/4 190/4 196/4 195/4
f 190/4 191/4 197/4 196/4
f 191/4 192/4 198/4 197/4
f 192/4 187/4 193/4 198/4
f 193/4 194/4 200/4 199/4
f 194/4 195/4 201/4 200/4
f 195/4 196/4 202/4 201/4
f 196/4 197/4 203/4 202/4
f 197/4 198/4 204/4 203/4
f 198/4 193/4 199/4 204/4
f 199/4 200/4 206/4 205/4
f 200/4 201/4 207/4 206/4
f 201/4 202/4 208/4 207/4
f 202/4 203/4 209/4 208/4
f 203/4 204/4 210/4 209/4
f 204/4 199/4 205/4 210/4
f 205/4 206/4 212/4 211/4
f 206/4 207/4 213/4 212/4
f 207/4 208/4 214/4 213/4
f 208/4 209/4 215/4 214/4
f 209/4 210/4 216/4 215/4
f 210/4 205/4 211/4 216/4
f 211/4 212/4 218/4 217/4
f 212/4 213/4 219/4 218/4
f 213/4 214/4 220/4 219/4
f 214/4 215/4 221/4 220/4
f 215/4 216/4 222/4 221/4
f 216/4 211/4 217/4 222/4
f 217/4 218/4 224/4 223/4
f 218/4 219/4 225/4 224/4
f 219/4 220/4 226/4 225/4
f 220/4 221/4 227/4 226/4
f 221/4 222/4 228/4 227/4
f 222/4 217/4 223/4 228/4
f 223/4 224/4 230/4 229/4
f 224/4 225/4 231/4 230/4
f 225/4 226/4 232/4 231/4
f 226/4 227/4 233/4 232/4
f 227/4 228/4 234/4 233/4
f 228/4 223/4 229/4 234/4
f 229/4 230/4 236/4 235/4
f 230/4 231/4 237/4 236/4
f 231/4 232/4 238/4 237/4
f 232/4 233/4 239/4 238/4
f 233/4 234/4 240/4 239/4
f 234/4 229/4 235/4 240/4
f 235/4 236/4 242/4 241/4
f 236/4 237/4 243/4 242/4
f 237/4 238/4 244/4 243/4
f 238/4 239/4 245/4 244/4
f 239/4 240/4 246/4 245/4
f 240/4 235/4 241/4 246/4
f 241/4 242/4 248/4 247/4
f 242/4 243/4 249/4 248/4
f 243/4 244/4 250/4 249/4
f 244/4 245/4 251/4 250/4
f 245/4 246/4 252/4 251/4
f 246/4 241/4 247/4 252/4
f 247/4 248/4 254/4 253/4
f 248/4 249/4 255/4 254/4
f 249/4 250/4 256/4 255/4
f 250/4 251/4 257/4 256/4
f 251/4 252/4 258/4 257/4
f 252/4 247/4 253/4 258/4
f 253/4 254/4 260/4 259/4
f 254/4 255/4 261/4 260/4
f 255/4 256/4 262/4 261/4
f 256/4 257/4 263/4 262/4
f 257/4 258/4 264/4 263/4
f 258/4 253/4 259/4 264/4
f 259/4 260/4 266/4 265/4
f 260/4 261/4 267/4 266/4
f 261/4 262/4 268/4 267/4
f 262/4 263/4 269/4 268/4
f 263/4 264/4 270/4 269/4
f 264/4 259/4 265/4 270/4
f 265/4 266/4 272/4 271/4
f 266/4 267/4 273/4 272/4
f 267/4 268/4 274/4 273/4
f 268/4 269/4 275/4 274/4
f 269/4 270/4 276/4 275/4
f 270/4 265/4 271/4 276/4
f 271/4 272/4 278/4 277/4
f 272/4 273/4 279/4 278/4
f 273/4 274/4 280/4 279/4
f 274/4 275/4 281/4 280/4
f 275/4 276/4 282/4 281/4
f 276/4 271/4 277/4 282/4
f 277/4 278/4 284/4 283/4
f 278/4 279/4 285/4 284/4
f 279/4 280/4 286/4 285/4
f 280/4 281/4 287/4 286/4
f 281/4 282/4 288/4 287/4
f 282/4 277/4 283/4 288/4
f 283/4 284/4 290/4 289/4
f 284/4 285/4 291/4 290/4
f 285/4 286/4 292/4 291/4
f 286/4 287/4 293/4 292/4
f 287/4 288/4 294/4 293/4
f 288/4 283/4 289/4 294/4
f 289/4 290/4 296/4 295/4
f 290/4 291/4 297/4 296/4
f 291/4 292/4 298/4 297/4
f 292/4 293/4 299/4 298/4
f 293/4 294/4 300/4 299/4
f 294/4 289/4 295/4 300/4
f 295/4 296/4 302/4 301/4
f 296/4 297/4 303/4 302/4
f 297/4 298/4 304/4 303/4
f 298/4 299/4 305/4 304/4
f 299/4 300/4 306/4 305/4
f 300/4 295/4 301/4 306/4
f 301/4 302/4 308/4 307/4
f 302/4 303/4 309/4 308/4
f 303/4 304/4 310/4 309/4
f 304/4 305/4 311/4 310/4
f 305/4 306/4 312/4 311/4
f 306/4 301/4 307/4 312/4
f 307/4 308/4 314/4 313/4
f 308/4 309/4 315/4 314/4
f 309/4 310/4 316/4 315/4
f 310/4 311/4 317/4 316/4
f 311/4 312/4 318/4 317/4
f 312/4 307/4 313/4 318/4
f 313/4 314/4 320/4 319/4
f 314/4 315/4 321/4 320/4
f 315/4 316/4 322/4 321/4
f 316/4 317/4 323/4 322/4
f 317/4 318/4 324/4 323/4
f 318/4 313/4 319/4 324/4
f 319/4 320/4 326/4 325/4
f 320/4 321/4 327/4 326/4
f 321/4 322/4 328/4 327/4
f 322/4 323/4 329/4 328/4
f 323/4 324/4 330/4 329/4
f 324/4 319/4 325/4 330/4
f 325/4 326/4 332/4 331/4
f 326/4 327/4 333/4 332/4
f 327/4 328/4 334/4 333/4
f 328/4 329/4 335/4 334/4
f 329/4 330/4 336/4 335/4
f 330/4 325/4 331/4 336/4
f 331/4 332/4 338/4 337/4
f 332/4 333/4 339/4 338/4
f 333/4 334/4 340/4 339/4
f 334/4 335/4 341/4 340/4
f 335/4 336/4 342/4 341/4
f 336/4 331/4 337/4 342/4
f 337/4 338/4 344/4 343/4
f 338/4 339/4 345/4 344/4
f 339/4 340/4 346/4 345/4
f 340/4 341/4 347/4 346/4
f 341/4 342/4 348/4 347/4
f 342/4 337/4 343/4 348/4
f 343/4 344/4 350/4 349/4
f 344/4 345/4 351/4 350/4
f 345/4 346/4 352/4 351/4
f 346/4 347/4 353/4 352/4
f 347/4 348/4 354/4 353/4
f 348/4 343/4 349/4 354/4
f 349/4 350/4 356/4 355/4
f 350/4 351/4 357/4 356/4
f 351/4 352/4 358/4 357/4
f 352/4 353/4 359/4 358/4
f 353/4 354/4 360/4 359/4
f 354/4 349/4 355/4 360/4
f 355/4 356/4 362/4 361/4
f 356/4 357/4 363/4 362/4
f 357/4 358/4 364/4 363/4
f 358/4 359/4 365/4 364/4
f 359/4 360/4 366/4 365/4
f 360/4 355/4 361/4 366/4
f 361/4 362/4 368/4 367/4
f 362/4 363/4 369/4 368/4
f 363/4 364/4 370/4 369/4
f 364/4 365/4 371/4 370/4
f 365/4 366/4 372/4 371/4
f 366/4 361/4 367/4 372/4
f 367/4 368/4 374/4 373/4
f 368/4 369/4 375/4 374/4
f 369/4 370/4 376/4 375/4
f 370/4 371/4 377/4 376/4
f 371/4 372/4 378/4 377/4
f 372/4 367/4 373/4 378/4
f 373/4 374/4 380/4 379/4
f 374/4 375/4 381/4 380/4
f 375/4 376/4 382/4 381/4
f 376/4 377/4 383/4 382/4
f 377/4 378/4 384/4 383/4
f 378/4 373/4 379/4 384/4
f 379/4 380/4 386/4 385/4
f 380/4 381/4 387/4 386/4
f 381/4 382/4 388/4 387/4
f 382/4 383/4 389/4 388/4
f 383/4 384/4 390/4 389/4
f 384/4 379/4 385/4 390/4
f 385/4 386/4 392/4 391/4
f 386/4 387/4 393/4 392/4
f 387/4 388/4 394/4 393/4
f 388/4 389/4 395/4 394/4
f 389/4 390/4 396/4 395/4
f 390/4 385/4 391/4 396/4
f 391/4 392/4 398/4 397/4
f 392/4 393/4 399/4 398/4
f 393/4 394/4 400/4 399/4
f 394/4 395/4 401/4 400/4
f 395/4 396/4 402/4 401/4
f 396/4 391/4 397/4 402/4
f 397/4 398/4 404/4 403/4
f 398/4 399/4 405/4 404/4
f 399/4 400/4 406/4 405/4
f 400/4 401/4 407/4 406/4
f 401/4 402/4 408/4 407/4
f 402/4 397/4 403/4 408/4
f 403/4 404/4 410/4 409/4
f 404/4 405/4 411/4 410/4
f 405/4 406/4 412/4 411/4
f 406/4 407/4 413/4 412/4
f 407/4 408/4 414/4 413/4
f 408/4 403/4 409/4 414/4
f 409/4 410/4 416/4 415/4
f 410/4 411/4 417/4 416/4
f 411/4 412/4 418/4 417/4
f 412/4 413/4 419/4 418/4
f 413/4 414/4 420/4 419/4
f 414/4 409/4 415/4 420/4
f 415/4 416/4 422/4 421/4
f 416/4 417/4 423/4 422/4
f 417/4 418/4 424/4 423/4
f 418/4 419/4 425/4 424/4
f 419/4 420/4 426/4 425/4
f 420/4 415/4 421/4 426/4
f 421/4 422/4 428/4 427/4
f 422/4 423/4 429/4 428/4
f 423/4 424/4 430/4 429/4
f 424/4 425/4 431/4 430/4
f 425/4 426/4 432/4 431/4
f 426/4 421/4 427/4 432/4
f 427/4 428/4 434/4 433/4
f 428/4 429/4 435/4 434/4
f 429/4 430/4 436/4 435/4
f 430/4 431/4 437/4 436/4
f 431/4 432/4 438/4 437/4
f 432/4 427/4 433/4 438/4
f 433/4 434/4 440/4 439/4
f 434/4 435/4 441/4 440/4
f 435/4 436/4 442/4 441/4
f 436/4 437/4 443/4 442/4
f 437/4 438/4 444/4 443/4
f 438/4 433/4 439/4 444/4
f 439/4 440/4 182/4 181/4
f 440/4 441/4 183/4 182/4
f 441/4 442/4 184/4 183/4
f 442/4 443/4 185/4 184/4
f 443/4 444/4 186/4 185/4
f 444/4 439/4 181/4 186/4
usemtl cream
f 639/1 642/1 641/1 640/1
f 643/1 644/1 645/1 646/1
f 639/1 643/1 646/1 642/1
f 640/1 641/1 645/1 644/1
f 639/1 640/1 644/1 643/1
f 642/1 646/1 645/1 641/1
f 663/1 664/1 681/1
f 676/1 675/1 682/1
f 664/1 665/1 681/1
f 677/1 676/1 682/1
f 665/1 666/1 681/1
f 678/1 677/1 682/1
f 666/1 667/1 681/1
f 679/1 678/1 682/1
f 667/1 668/1 681/1
f 680/1 679/1 682/1
f 668/1 663/1 681/1
f 675/1 680/1 682/1
f 669/1 670/1 664/1 663/1
f 670/1 671/1 665/1 664/1
f 671/1 672/1 666/1 665/1
f 672/1 673/1 667/1 666/1
f 673/1 674/1 668/1 667/1
f 674/1 669/1 663/1 668/1
f 675/1 676/1 670/1 669/1
f 676/1 677/1 671/1 670/1
f 677/1 678/1 672/1 671/1
f 678/1 679/1 673/1 672/1
f 679/1 680/1 674/1 673/1
f 680/1 675/1 669/1 674/1
