# ParkParkCanopyRestored — ParkPark original fairground mesh
mtllib ParkParkFairground.mtl
o ParkParkCanopyRestored
v 1.04983 14.10000 0.01890
v 1.04983 13.98000 0.01890
v 1.02794 14.10000 0.21410
v 1.02794 13.98000 0.21410
v 0.97007 14.10000 0.40182
v 0.97007 13.98000 0.40182
v 0.87826 14.10000 0.57547
v 0.87826 13.98000 0.57547
v 0.75571 14.10000 0.72898
v 0.75571 13.98000 0.72898
v 3.09950 14.65000 0.05580
v 3.09950 14.53000 0.05580
v 3.03487 14.65000 0.63212
v 3.03487 14.53000 0.63212
v 2.86403 14.65000 1.18632
v 2.86403 14.53000 1.18632
v 2.59295 14.65000 1.69900
v 2.59295 14.53000 1.69900
v 2.23113 14.65000 2.15222
v 2.23113 14.53000 2.15222
v 6.09901 14.00000 0.10979
v 6.09901 13.88000 0.10979
v 5.97184 14.00000 1.24385
v 5.97184 13.88000 1.24385
v 5.63567 14.00000 2.33437
v 5.63567 13.88000 2.33437
v 5.10226 14.00000 3.34319
v 5.10226 13.88000 3.34319
v 4.39029 14.00000 4.23502
v 4.39029 13.88000 4.23502
v 9.34849 12.35000 0.16829
v 9.34849 12.23000 0.16829
v 9.15355 12.35000 1.90655
v 9.15355 12.23000 1.90655
v 8.63827 12.35000 3.57809
v 8.63827 12.23000 3.57809
v 7.82068 12.35000 5.12440
v 7.82068 12.23000 5.12440
v 6.72938 12.35000 6.49138
v 6.72938 12.23000 6.49138
v 0.72898 14.10000 0.75571
v 0.72898 13.98000 0.75571
v 0.57547 14.10000 0.87826
v 0.57547 13.98000 0.87826
v 0.40182 14.10000 0.97007
v 0.40182 13.98000 0.97007
v 0.21410 14.10000 1.02794
v 0.21410 13.98000 1.02794
v 0.01890 14.10000 1.04983
v 0.01890 13.98000 1.04983
v 2.15222 14.65000 2.23113
v 2.15222 14.53000 2.23113
v 1.69900 14.65000 2.59295
v 1.69900 14.53000 2.59295
v 1.18632 14.65000 2.86403
v 1.18632 14.53000 2.86403
v 0.63212 14.65000 3.03487
v 0.63212 14.53000 3.03487
v 0.05580 14.65000 3.09950
v 0.05580 14.53000 3.09950
v 4.23502 14.00000 4.39029
v 4.23502 13.88000 4.39029
v 3.34319 14.00000 5.10226
v 3.34319 13.88000 5.10226
v 2.33437 14.00000 5.63567
v 2.33437 13.88000 5.63567
v 1.24385 14.00000 5.97184
v 1.24385 13.88000 5.97184
v 0.10979 14.00000 6.09901
v 0.10979 13.88000 6.09901
v 6.49138 12.35000 6.72938
v 6.49138 12.23000 6.72938
v 5.12440 12.35000 7.82068
v 5.12440 12.23000 7.82068
v 3.57809 12.35000 8.63827
v 3.57809 12.23000 8.63827
v 1.90655 12.35000 9.15355
v 1.90655 12.23000 9.15355
v 0.16829 12.35000 9.34849
v 0.16829 12.23000 9.34849
v -0.01890 14.10000 1.04983
v -0.01890 13.98000 1.04983
v -0.21410 14.10000 1.02794
v -0.21410 13.98000 1.02794
v -0.40182 14.10000 0.97007
v -0.40182 13.98000 0.97007
v -0.57547 14.10000 0.87826
v -0.57547 13.98000 0.87826
v -0.72898 14.10000 0.75571
v -0.72898 13.98000 0.75571
v -0.05580 14.65000 3.09950
v -0.05580 14.53000 3.09950
v -0.63212 14.65000 3.03487
v -0.63212 14.53000 3.03487
v -1.18632 14.65000 2.86403
v -1.18632 14.53000 2.86403
v -1.69900 14.65000 2.59295
v -1.69900 14.53000 2.59295
v -2.15222 14.65000 2.23113
v -2.15222 14.53000 2.23113
v -0.10979 14.00000 6.09901
v -0.10979 13.88000 6.09901
v -1.24385 14.00000 5.97184
v -1.24385 13.88000 5.97184
v -2.33437 14.00000 5.63567
v -2.33437 13.88000 5.63567
v -3.34319 14.00000 5.10226
v -3.34319 13.88000 5.10226
v -4.23502 14.00000 4.39029
v -4.23502 13.88000 4.39029
v -0.16829 12.35000 9.34849
v -0.16829 12.23000 9.34849
v -1.90655 12.35000 9.15355
v -1.90655 12.23000 9.15355
v -3.57809 12.35000 8.63827
v -3.57809 12.23000 8.63827
v -5.12440 12.35000 7.82068
v -5.12440 12.23000 7.82068
v -6.49138 12.35000 6.72938
v -6.49138 12.23000 6.72938
v -0.75571 14.10000 0.72898
v -0.75571 13.98000 0.72898
v -0.87826 14.10000 0.57547
v -0.87826 13.98000 0.57547
v -0.97007 14.10000 0.40182
v -0.97007 13.98000 0.40182
v -1.02794 14.10000 0.21410
v -1.02794 13.98000 0.21410
v -1.04983 14.10000 0.01890
v -1.04983 13.98000 0.01890
v -2.23113 14.65000 2.15222
v -2.23113 14.53000 2.15222
v -2.59295 14.65000 1.69900
v -2.59295 14.53000 1.69900
v -2.86403 14.65000 1.18632
v -2.86403 14.53000 1.18632
v -3.03487 14.65000 0.63212
v -3.03487 14.53000 0.63212
v -3.09950 14.65000 0.05580
v -3.09950 14.53000 0.05580
v -4.39029 14.00000 4.23502
v -4.39029 13.88000 4.23502
v -5.10226 14.00000 3.34319
v -5.10226 13.88000 3.34319
v -5.63567 14.00000 2.33437
v -5.63567 13.88000 2.33437
v -5.97184 14.00000 1.24385
v -5.97184 13.88000 1.24385
v -6.09901 14.00000 0.10979
v -6.09901 13.88000 0.10979
v -6.72938 12.35000 6.49138
v -6.72938 12.23000 6.49138
v -7.82068 12.35000 5.12440
v -7.82068 12.23000 5.12440
v -8.63827 12.35000 3.57809
v -8.63827 12.23000 3.57809
v -9.15355 12.35000 1.90655
v -9.15355 12.23000 1.90655
v -9.34849 12.35000 0.16829
v -9.34849 12.23000 0.16829
v -1.04983 14.10000 -0.01890
v -1.04983 13.98000 -0.01890
v -1.02794 14.10000 -0.21410
v -1.02794 13.98000 -0.21410
v -0.97007 14.10000 -0.40182
v -0.97007 13.98000 -0.40182
v -0.87826 14.10000 -0.57547
v -0.87826 13.98000 -0.57547
v -0.75571 14.10000 -0.72898
v -0.75571 13.98000 -0.72898
v -3.09950 14.65000 -0.05580
v -3.09950 14.53000 -0.05580
v -3.03487 14.65000 -0.63212
v -3.03487 14.53000 -0.63212
v -2.86403 14.65000 -1.18632
v -2.86403 14.53000 -1.18632
v -2.59295 14.65000 -1.69900
v -2.59295 14.53000 -1.69900
v -2.23113 14.65000 -2.15222
v -2.23113 14.53000 -2.15222
v -6.09901 14.00000 -0.10979
v -6.09901 13.88000 -0.10979
v -5.97184 14.00000 -1.24385
v -5.97184 13.88000 -1.24385
v -5.63567 14.00000 -2.33437
v -5.63567 13.88000 -2.33437
v -5.10226 14.00000 -3.34319
v -5.10226 13.88000 -3.34319
v -4.39029 14.00000 -4.23502
v -4.39029 13.88000 -4.23502
v -9.34849 12.35000 -0.16829
v -9.34849 12.23000 -0.16829
v -9.15355 12.35000 -1.90655
v -9.15355 12.23000 -1.90655
v -8.63827 12.35000 -3.57809
v -8.63827 12.23000 -3.57809
v -7.82068 12.35000 -5.12440
v -7.82068 12.23000 -5.12440
v -6.72938 12.35000 -6.49138
v -6.72938 12.23000 -6.49138
v -0.72898 14.10000 -0.75571
v -0.72898 13.98000 -0.75571
v -0.57547 14.10000 -0.87826
v -0.57547 13.98000 -0.87826
v -0.40182 14.10000 -0.97007
v -0.40182 13.98000 -0.97007
v -0.21410 14.10000 -1.02794
v -0.21410 13.98000 -1.02794
v -0.01890 14.10000 -1.04983
v -0.01890 13.98000 -1.04983
v -2.15222 14.65000 -2.23113
v -2.15222 14.53000 -2.23113
v -1.69900 14.65000 -2.59295
v -1.69900 14.53000 -2.59295
v -1.18632 14.65000 -2.86403
v -1.18632 14.53000 -2.86403
v -0.63212 14.65000 -3.03487
v -0.63212 14.53000 -3.03487
v -0.05580 14.65000 -3.09950
v -0.05580 14.53000 -3.09950
v -4.23502 14.00000 -4.39029
v -4.23502 13.88000 -4.39029
v -3.34319 14.00000 -5.10226
v -3.34319 13.88000 -5.10226
v -2.33437 14.00000 -5.63567
v -2.33437 13.88000 -5.63567
v -1.24385 14.00000 -5.97184
v -1.24385 13.88000 -5.97184
v -0.10979 14.00000 -6.09901
v -0.10979 13.88000 -6.09901
v -6.49138 12.35000 -6.72938
v -6.49138 12.23000 -6.72938
v -5.12440 12.35000 -7.82068
v -5.12440 12.23000 -7.82068
v -3.57809 12.35000 -8.63827
v -3.57809 12.23000 -8.63827
v -1.90655 12.35000 -9.15355
v -1.90655 12.23000 -9.15355
v -0.16829 12.35000 -9.34849
v -0.16829 12.23000 -9.34849
v 0.01890 14.10000 -1.04983
v 0.01890 13.98000 -1.04983
v 0.21410 14.10000 -1.02794
v 0.21410 13.98000 -1.02794
v 0.40182 14.10000 -0.97007
v 0.40182 13.98000 -0.97007
v 0.57547 14.10000 -0.87826
v 0.57547 13.98000 -0.87826
v 0.72898 14.10000 -0.75571
v 0.72898 13.98000 -0.75571
v 0.05580 14.65000 -3.09950
v 0.05580 14.53000 -3.09950
v 0.63212 14.65000 -3.03487
v 0.63212 14.53000 -3.03487
v 1.18632 14.65000 -2.86403
v 1.18632 14.53000 -2.86403
v 1.69900 14.65000 -2.59295
v 1.69900 14.53000 -2.59295
v 2.15222 14.65000 -2.23113
v 2.15222 14.53000 -2.23113
v 0.10979 14.00000 -6.09901
v 0.10979 13.88000 -6.09901
v 1.24385 14.00000 -5.97184
v 1.24385 13.88000 -5.97184
v 2.33437 14.00000 -5.63567
v 2.33437 13.88000 -5.63567
v 3.34319 14.00000 -5.10226
v 3.34319 13.88000 -5.10226
v 4.23502 14.00000 -4.39029
v 4.23502 13.88000 -4.39029
v 0.16829 12.35000 -9.34849
v 0.16829 12.23000 -9.34849
v 1.90655 12.35000 -9.15355
v 1.90655 12.23000 -9.15355
v 3.57809 12.35000 -8.63827
v 3.57809 12.23000 -8.63827
v 5.12440 12.35000 -7.82068
v 5.12440 12.23000 -7.82068
v 6.49138 12.35000 -6.72938
v 6.49138 12.23000 -6.72938
v 0.75571 14.10000 -0.72898
v 0.75571 13.98000 -0.72898
v 0.87826 14.10000 -0.57547
v 0.87826 13.98000 -0.57547
v 0.97007 14.10000 -0.40182
v 0.97007 13.98000 -0.40182
v 1.02794 14.10000 -0.21410
v 1.02794 13.98000 -0.21410
v 1.04983 14.10000 -0.01890
v 1.04983 13.98000 -0.01890
v 2.23113 14.65000 -2.15222
v 2.23113 14.53000 -2.15222
v 2.59295 14.65000 -1.69900
v 2.59295 14.53000 -1.69900
v 2.86403 14.65000 -1.18632
v 2.86403 14.53000 -1.18632
v 3.03487 14.65000 -0.63212
v 3.03487 14.53000 -0.63212
v 3.09950 14.65000 -0.05580
v 3.09950 14.53000 -0.05580
v 4.39029 14.00000 -4.23502
v 4.39029 13.88000 -4.23502
v 5.10226 14.00000 -3.34319
v 5.10226 13.88000 -3.34319
v 5.63567 14.00000 -2.33437
v 5.63567 13.88000 -2.33437
v 5.97184 14.00000 -1.24385
v 5.97184 13.88000 -1.24385
v 6.09901 14.00000 -0.10979
v 6.09901 13.88000 -0.10979
v 6.72938 12.35000 -6.49138
v 6.72938 12.23000 -6.49138
v 7.82068 12.35000 -5.12440
v 7.82068 12.23000 -5.12440
v 8.63827 12.35000 -3.57809
v 8.63827 12.23000 -3.57809
v 9.15355 12.35000 -1.90655
v 9.15355 12.23000 -1.90655
v 9.34849 12.35000 -0.16829
v 9.34849 12.23000 -0.16829
v 0.00000 14.00000 0.10000
v -0.01413 13.92310 0.06235
v -0.01762 13.90411 -0.02225
v -0.00784 13.95733 -0.09010
v 0.00784 14.04267 -0.09010
v 0.01762 14.09589 -0.02225
v 0.01413 14.07690 0.06235
v 9.25000 12.30000 0.07500
v 9.23940 12.24233 0.04676
v 9.23678 12.22808 -0.01669
v 9.24412 12.26799 -0.06757
v 9.25588 12.33201 -0.06757
v 9.26322 12.37192 -0.01669
v 9.26060 12.35767 0.04676
v 0.00000 14.00000 0.00000
v 9.25000 12.30000 0.00000
v -0.07071 14.00000 0.07071
v -0.05408 13.92310 0.03409
v 0.00327 13.90411 -0.02820
v 0.05816 13.95733 -0.06925
v 0.06925 14.04267 -0.05816
v 0.02820 14.09589 -0.00327
v -0.03409 14.07690 0.05408
v 6.48770 12.30000 6.59377
v 6.50018 12.24233 6.56631
v 6.54319 12.22808 6.51959
v 6.58436 12.26799 6.48880
v 6.59268 12.33201 6.49712
v 6.56188 12.37192 6.53828
v 6.51517 12.35767 6.58130
v 0.00000 14.00000 0.00000
v 6.54074 12.30000 6.54074
v -0.10000 14.00000 0.00000
v -0.06235 13.92310 -0.01413
v 0.02225 13.90411 -0.01762
v 0.09010 13.95733 -0.00784
v 0.09010 14.04267 0.00784
v 0.02225 14.09589 0.01762
v -0.06235 14.07690 0.01413
v -0.07500 12.30000 9.25000
v -0.04676 12.24233 9.23940
v 0.01669 12.22808 9.23678
v 0.06757 12.26799 9.24412
v 0.06757 12.33201 9.25588
v 0.01669 12.37192 9.26322
v -0.04676 12.35767 9.26060
v 0.00000 14.00000 0.00000
v 0.00000 12.30000 9.25000
v -0.07071 14.00000 -0.07071
v -0.03409 13.92310 -0.05408
v 0.02820 13.90411 0.00327
v 0.06925 13.95733 0.05816
v 0.05816 14.04267 0.06925
v 0.00327 14.09589 0.02820
v -0.05408 14.07690 -0.03409
v -6.59377 12.30000 6.48770
v -6.56631 12.24233 6.50018
v -6.51959 12.22808 6.54319
v -6.48880 12.26799 6.58436
v -6.49712 12.33201 6.59268
v -6.53828 12.37192 6.56188
v -6.58130 12.35767 6.51517
v 0.00000 14.00000 0.00000
v -6.54074 12.30000 6.54074
v -0.00000 14.00000 -0.10000
v 0.01413 13.92310 -0.06235
v 0.01762 13.90411 0.02225
v 0.00784 13.95733 0.09010
v -0.00784 14.04267 0.09010
v -0.01762 14.09589 0.02225
v -0.01413 14.07690 -0.06235
v -9.25000 12.30000 -0.07500
v -9.23940 12.24233 -0.04676
v -9.23678 12.22808 0.01669
v -9.24412 12.26799 0.06757
v -9.25588 12.33201 0.06757
v -9.26322 12.37192 0.01669
v -9.26060 12.35767 -0.04676
v 0.00000 14.00000 0.00000
v -9.25000 12.30000 0.00000
v 0.07071 14.00000 -0.07071
v 0.05408 13.92310 -0.03409
v -0.00327 13.90411 0.02820
v -0.05816 13.95733 0.06925
v -0.06925 14.04267 0.05816
v -0.02820 14.09589 0.00327
v 0.03409 14.07690 -0.05408
v -6.48770 12.30000 -6.59377
v -6.50018 12.24233 -6.56631
v -6.54319 12.22808 -6.51959
v -6.58436 12.26799 -6.48880
v -6.59268 12.33201 -6.49712
v -6.56188 12.37192 -6.53828
v -6.51517 12.35767 -6.58130
v 0.00000 14.00000 0.00000
v -6.54074 12.30000 -6.54074
v 0.10000 14.00000 -0.00000
v 0.06235 13.92310 0.01413
v -0.02225 13.90411 0.01762
v -0.09010 13.95733 0.00784
v -0.09010 14.04267 -0.00784
v -0.02225 14.09589 -0.01762
v 0.06235 14.07690 -0.01413
v 0.07500 12.30000 -9.25000
v 0.04676 12.24233 -9.23940
v -0.01669 12.22808 -9.23678
v -0.06757 12.26799 -9.24412
v -0.06757 12.33201 -9.25588
v -0.01669 12.37192 -9.26322
v 0.04676 12.35767 -9.26060
v 0.00000 14.00000 0.00000
v -0.00000 12.30000 -9.25000
v 0.07071 14.00000 0.07071
v 0.03409 13.92310 0.05408
v -0.02820 13.90411 -0.00327
v -0.06925 13.95733 -0.05816
v -0.05816 14.04267 -0.06925
v -0.00327 14.09589 -0.02820
v 0.05408 14.07690 0.03409
v 6.59377 12.30000 -6.48770
v 6.56631 12.24233 -6.50018
v 6.51959 12.22808 -6.54319
v 6.48880 12.26799 -6.58436
v 6.49712 12.33201 -6.59268
v 6.53828 12.37192 -6.56188
v 6.58130 12.35767 -6.51517
v 0.00000 14.00000 0.00000
v 6.54074 12.30000 -6.54074
v 9.37000 12.28000 0.00000
v 9.32899 12.37899 0.00000
v 9.23000 12.42000 0.00000
v 9.13101 12.37899 0.00000
v 9.09000 12.28000 0.00000
v 9.13101 12.18101 0.00000
v 9.23000 12.14000 0.00000
v 9.32899 12.18101 0.00000
v 9.32488 12.28000 0.91842
v 9.28407 12.37899 0.91440
v 9.18556 12.42000 0.90470
v 9.08704 12.37899 0.89500
v 9.04623 12.28000 0.89098
v 9.08704 12.18101 0.89500
v 9.18556 12.14000 0.90470
v 9.28407 12.18101 0.91440
v 9.18996 12.28000 1.82800
v 9.14974 12.37899 1.82000
v 9.05265 12.42000 1.80068
v 8.95556 12.37899 1.78137
v 8.91534 12.28000 1.77337
v 8.95556 12.18101 1.78137
v 9.05265 12.14000 1.80068
v 9.14974 12.18101 1.82000
v 8.96653 12.28000 2.71997
v 8.92729 12.37899 2.70806
v 8.83256 12.42000 2.67933
v 8.73783 12.37899 2.65059
v 8.69859 12.28000 2.63869
v 8.73783 12.18101 2.65059
v 8.83256 12.14000 2.67933
v 8.92729 12.18101 2.70806
v 8.65675 12.28000 3.58574
v 8.61887 12.37899 3.57005
v 8.52741 12.42000 3.53217
v 8.43595 12.37899 3.49428
v 8.39806 12.28000 3.47859
v 8.43595 12.18101 3.49428
v 8.52741 12.14000 3.53217
v 8.61887 12.18101 3.57005
v 8.26360 12.28000 4.41699
v 8.22744 12.37899 4.39766
v 8.14013 12.42000 4.35099
v 8.05283 12.37899 4.30433
v 8.01666 12.28000 4.28500
v 8.05283 12.18101 4.30433
v 8.14013 12.14000 4.35099
v 8.22744 12.18101 4.39766
v 7.79087 12.28000 5.20569
v 7.75678 12.37899 5.18291
v 7.67446 12.42000 5.12791
v 7.59215 12.37899 5.07291
v 7.55806 12.28000 5.05013
v 7.59215 12.18101 5.07291
v 7.67446 12.14000 5.12791
v 7.75678 12.18101 5.18291
v 7.24311 12.28000 5.94427
v 7.21141 12.37899 5.91825
v 7.13489 12.42000 5.85545
v 7.05836 12.37899 5.79265
v 7.02667 12.28000 5.76663
v 7.05836 12.18101 5.79265
v 7.13489 12.14000 5.85545
v 7.21141 12.18101 5.91825
v 6.62559 12.28000 6.62559
v 6.59660 12.37899 6.59660
v 6.52660 12.42000 6.52660
v 6.45660 12.37899 6.45660
v 6.42760 12.28000 6.42760
v 6.45660 12.18101 6.45660
v 6.52660 12.14000 6.52660
v 6.59660 12.18101 6.59660
v 5.94427 12.28000 7.24311
v 5.91825 12.37899 7.21141
v 5.85545 12.42000 7.13489
v 5.79265 12.37899 7.05836
v 5.76663 12.28000 7.02667
v 5.79265 12.18101 7.05836
v 5.85545 12.14000 7.13489
v 5.91825 12.18101 7.21141
v 5.20569 12.28000 7.79087
v 5.18291 12.37899 7.75678
v 5.12791 12.42000 7.67446
v 5.07291 12.37899 7.59215
v 5.05013 12.28000 7.55806
v 5.07291 12.18101 7.59215
v 5.12791 12.14000 7.67446
v 5.18291 12.18101 7.75678
v 4.41699 12.28000 8.26360
v 4.39766 12.37899 8.22744
v 4.35099 12.42000 8.14013
v 4.30433 12.37899 8.05283
v 4.28500 12.28000 8.01666
v 4.30433 12.18101 8.05283
v 4.35099 12.14000 8.14013
v 4.39766 12.18101 8.22744
v 3.58574 12.28000 8.65675
v 3.57005 12.37899 8.61887
v 3.53217 12.42000 8.52741
v 3.49428 12.37899 8.43595
v 3.47859 12.28000 8.39806
v 3.49428 12.18101 8.43595
v 3.53217 12.14000 8.52741
v 3.57005 12.18101 8.61887
v 2.71997 12.28000 8.96653
v 2.70806 12.37899 8.92729
v 2.67933 12.42000 8.83256
v 2.65059 12.37899 8.73783
v 2.63869 12.28000 8.69859
v 2.65059 12.18101 8.73783
v 2.67933 12.14000 8.83256
v 2.70806 12.18101 8.92729
v 1.82800 12.28000 9.18996
v 1.82000 12.37899 9.14974
v 1.80068 12.42000 9.05265
v 1.78137 12.37899 8.95556
v 1.77337 12.28000 8.91534
v 1.78137 12.18101 8.95556
v 1.80068 12.14000 9.05265
v 1.82000 12.18101 9.14974
v 0.91842 12.28000 9.32488
v 0.91440 12.37899 9.28407
v 0.90470 12.42000 9.18556
v 0.89500 12.37899 9.08704
v 0.89098 12.28000 9.04623
v 0.89500 12.18101 9.08704
v 0.90470 12.14000 9.18556
v 0.91440 12.18101 9.28407
v 0.00000 12.28000 9.37000
v 0.00000 12.37899 9.32899
v 0.00000 12.42000 9.23000
v 0.00000 12.37899 9.13101
v 0.00000 12.28000 9.09000
v 0.00000 12.18101 9.13101
v 0.00000 12.14000 9.23000
v 0.00000 12.18101 9.32899
v -0.91842 12.28000 9.32488
v -0.91440 12.37899 9.28407
v -0.90470 12.42000 9.18556
v -0.89500 12.37899 9.08704
v -0.89098 12.28000 9.04623
v -0.89500 12.18101 9.08704
v -0.90470 12.14000 9.18556
v -0.91440 12.18101 9.28407
v -1.82800 12.28000 9.18996
v -1.82000 12.37899 9.14974
v -1.80068 12.42000 9.05265
v -1.78137 12.37899 8.95556
v -1.77337 12.28000 8.91534
v -1.78137 12.18101 8.95556
v -1.80068 12.14000 9.05265
v -1.82000 12.18101 9.14974
v -2.71997 12.28000 8.96653
v -2.70806 12.37899 8.92729
v -2.67933 12.42000 8.83256
v -2.65059 12.37899 8.73783
v -2.63869 12.28000 8.69859
v -2.65059 12.18101 8.73783
v -2.67933 12.14000 8.83256
v -2.70806 12.18101 8.92729
v -3.58574 12.28000 8.65675
v -3.57005 12.37899 8.61887
v -3.53217 12.42000 8.52741
v -3.49428 12.37899 8.43595
v -3.47859 12.28000 8.39806
v -3.49428 12.18101 8.43595
v -3.53217 12.14000 8.52741
v -3.57005 12.18101 8.61887
v -4.41699 12.28000 8.26360
v -4.39766 12.37899 8.22744
v -4.35099 12.42000 8.14013
v -4.30433 12.37899 8.05283
v -4.28500 12.28000 8.01666
v -4.30433 12.18101 8.05283
v -4.35099 12.14000 8.14013
v -4.39766 12.18101 8.22744
v -5.20569 12.28000 7.79087
v -5.18291 12.37899 7.75678
v -5.12791 12.42000 7.67446
v -5.07291 12.37899 7.59215
v -5.05013 12.28000 7.55806
v -5.07291 12.18101 7.59215
v -5.12791 12.14000 7.67446
v -5.18291 12.18101 7.75678
v -5.94427 12.28000 7.24311
v -5.91825 12.37899 7.21141
v -5.85545 12.42000 7.13489
v -5.79265 12.37899 7.05836
v -5.76663 12.28000 7.02667
v -5.79265 12.18101 7.05836
v -5.85545 12.14000 7.13489
v -5.91825 12.18101 7.21141
v -6.62559 12.28000 6.62559
v -6.59660 12.37899 6.59660
v -6.52660 12.42000 6.52660
v -6.45660 12.37899 6.45660
v -6.42760 12.28000 6.42760
v -6.45660 12.18101 6.45660
v -6.52660 12.14000 6.52660
v -6.59660 12.18101 6.59660
v -7.24311 12.28000 5.94427
v -7.21141 12.37899 5.91825
v -7.13489 12.42000 5.85545
v -7.05836 12.37899 5.79265
v -7.02667 12.28000 5.76663
v -7.05836 12.18101 5.79265
v -7.13489 12.14000 5.85545
v -7.21141 12.18101 5.91825
v -7.79087 12.28000 5.20569
v -7.75678 12.37899 5.18291
v -7.67446 12.42000 5.12791
v -7.59215 12.37899 5.07291
v -7.55806 12.28000 5.05013
v -7.59215 12.18101 5.07291
v -7.67446 12.14000 5.12791
v -7.75678 12.18101 5.18291
v -8.26360 12.28000 4.41699
v -8.22744 12.37899 4.39766
v -8.14013 12.42000 4.35099
v -8.05283 12.37899 4.30433
v -8.01666 12.28000 4.28500
v -8.05283 12.18101 4.30433
v -8.14013 12.14000 4.35099
v -8.22744 12.18101 4.39766
v -8.65675 12.28000 3.58574
v -8.61887 12.37899 3.57005
v -8.52741 12.42000 3.53217
v -8.43595 12.37899 3.49428
v -8.39806 12.28000 3.47859
v -8.43595 12.18101 3.49428
v -8.52741 12.14000 3.53217
v -8.61887 12.18101 3.57005
v -8.96653 12.28000 2.71997
v -8.92729 12.37899 2.70806
v -8.83256 12.42000 2.67933
v -8.73783 12.37899 2.65059
v -8.69859 12.28000 2.63869
v -8.73783 12.18101 2.65059
v -8.83256 12.14000 2.67933
v -8.92729 12.18101 2.70806
v -9.18996 12.28000 1.82800
v -9.14974 12.37899 1.82000
v -9.05265 12.42000 1.80068
v -8.95556 12.37899 1.78137
v -8.91534 12.28000 1.77337
v -8.95556 12.18101 1.78137
v -9.05265 12.14000 1.80068
v -9.14974 12.18101 1.82000
v -9.32488 12.28000 0.91842
v -9.28407 12.37899 0.91440
v -9.18556 12.42000 0.90470
v -9.08704 12.37899 0.89500
v -9.04623 12.28000 0.89098
v -9.08704 12.18101 0.89500
v -9.18556 12.14000 0.90470
v -9.28407 12.18101 0.91440
v -9.37000 12.28000 0.00000
v -9.32899 12.37899 0.00000
v -9.23000 12.42000 0.00000
v -9.13101 12.37899 0.00000
v -9.09000 12.28000 0.00000
v -9.13101 12.18101 0.00000
v -9.23000 12.14000 0.00000
v -9.32899 12.18101 0.00000
v -9.32488 12.28000 -0.91842
v -9.28407 12.37899 -0.91440
v -9.18556 12.42000 -0.90470
v -9.08704 12.37899 -0.89500
v -9.04623 12.28000 -0.89098
v -9.08704 12.18101 -0.89500
v -9.18556 12.14000 -0.90470
v -9.28407 12.18101 -0.91440
v -9.18996 12.28000 -1.82800
v -9.14974 12.37899 -1.82000
v -9.05265 12.42000 -1.80068
v -8.95556 12.37899 -1.78137
v -8.91534 12.28000 -1.77337
v -8.95556 12.18101 -1.78137
v -9.05265 12.14000 -1.80068
v -9.14974 12.18101 -1.82000
v -8.96653 12.28000 -2.71997
v -8.92729 12.37899 -2.70806
v -8.83256 12.42000 -2.67933
v -8.73783 12.37899 -2.65059
v -8.69859 12.28000 -2.63869
v -8.73783 12.18101 -2.65059
v -8.83256 12.14000 -2.67933
v -8.92729 12.18101 -2.70806
v -8.65675 12.28000 -3.58574
v -8.61887 12.37899 -3.57005
v -8.52741 12.42000 -3.53217
v -8.43595 12.37899 -3.49428
v -8.39806 12.28000 -3.47859
v -8.43595 12.18101 -3.49428
v -8.52741 12.14000 -3.53217
v -8.61887 12.18101 -3.57005
v -8.26360 12.28000 -4.41699
v -8.22744 12.37899 -4.39766
v -8.14013 12.42000 -4.35099
v -8.05283 12.37899 -4.30433
v -8.01666 12.28000 -4.28500
v -8.05283 12.18101 -4.30433
v -8.14013 12.14000 -4.35099
v -8.22744 12.18101 -4.39766
v -7.79087 12.28000 -5.20569
v -7.75678 12.37899 -5.18291
v -7.67446 12.42000 -5.12791
v -7.59215 12.37899 -5.07291
v -7.55806 12.28000 -5.05013
v -7.59215 12.18101 -5.07291
v -7.67446 12.14000 -5.12791
v -7.75678 12.18101 -5.18291
v -7.24311 12.28000 -5.94427
v -7.21141 12.37899 -5.91825
v -7.13489 12.42000 -5.85545
v -7.05836 12.37899 -5.79265
v -7.02667 12.28000 -5.76663
v -7.05836 12.18101 -5.79265
v -7.13489 12.14000 -5.85545
v -7.21141 12.18101 -5.91825
v -6.62559 12.28000 -6.62559
v -6.59660 12.37899 -6.59660
v -6.52660 12.42000 -6.52660
v -6.45660 12.37899 -6.45660
v -6.42760 12.28000 -6.42760
v -6.45660 12.18101 -6.45660
v -6.52660 12.14000 -6.52660
v -6.59660 12.18101 -6.59660
v -5.94427 12.28000 -7.24311
v -5.91825 12.37899 -7.21141
v -5.85545 12.42000 -7.13489
v -5.79265 12.37899 -7.05836
v -5.76663 12.28000 -7.02667
v -5.79265 12.18101 -7.05836
v -5.85545 12.14000 -7.13489
v -5.91825 12.18101 -7.21141
v -5.20569 12.28000 -7.79087
v -5.18291 12.37899 -7.75678
v -5.12791 12.42000 -7.67446
v -5.07291 12.37899 -7.59215
v -5.05013 12.28000 -7.55806
v -5.07291 12.18101 -7.59215
v -5.12791 12.14000 -7.67446
v -5.18291 12.18101 -7.75678
v -4.41699 12.28000 -8.26360
v -4.39766 12.37899 -8.22744
v -4.35099 12.42000 -8.14013
v -4.30433 12.37899 -8.05283
v -4.28500 12.28000 -8.01666
v -4.30433 12.18101 -8.05283
v -4.35099 12.14000 -8.14013
v -4.39766 12.18101 -8.22744
v -3.58574 12.28000 -8.65675
v -3.57005 12.37899 -8.61887
v -3.53217 12.42000 -8.52741
v -3.49428 12.37899 -8.43595
v -3.47859 12.28000 -8.39806
v -3.49428 12.18101 -8.43595
v -3.53217 12.14000 -8.52741
v -3.57005 12.18101 -8.61887
v -2.71997 12.28000 -8.96653
v -2.70806 12.37899 -8.92729
v -2.67933 12.42000 -8.83256
v -2.65059 12.37899 -8.73783
v -2.63869 12.28000 -8.69859
v -2.65059 12.18101 -8.73783
v -2.67933 12.14000 -8.83256
v -2.70806 12.18101 -8.92729
v -1.82800 12.28000 -9.18996
v -1.82000 12.37899 -9.14974
v -1.80068 12.42000 -9.05265
v -1.78137 12.37899 -8.95556
v -1.77337 12.28000 -8.91534
v -1.78137 12.18101 -8.95556
v -1.80068 12.14000 -9.05265
v -1.82000 12.18101 -9.14974
v -0.91842 12.28000 -9.32488
v -0.91440 12.37899 -9.28407
v -0.90470 12.42000 -9.18556
v -0.89500 12.37899 -9.08704
v -0.89098 12.28000 -9.04623
v -0.89500 12.18101 -9.08704
v -0.90470 12.14000 -9.18556
v -0.91440 12.18101 -9.28407
v -0.00000 12.28000 -9.37000
v -0.00000 12.37899 -9.32899
v -0.00000 12.42000 -9.23000
v -0.00000 12.37899 -9.13101
v -0.00000 12.28000 -9.09000
v -0.00000 12.18101 -9.13101
v -0.00000 12.14000 -9.23000
v -0.00000 12.18101 -9.32899
v 0.91842 12.28000 -9.32488
v 0.91440 12.37899 -9.28407
v 0.90470 12.42000 -9.18556
v 0.89500 12.37899 -9.08704
v 0.89098 12.28000 -9.04623
v 0.89500 12.18101 -9.08704
v 0.90470 12.14000 -9.18556
v 0.91440 12.18101 -9.28407
v 1.82800 12.28000 -9.18996
v 1.82000 12.37899 -9.14974
v 1.80068 12.42000 -9.05265
v 1.78137 12.37899 -8.95556
v 1.77337 12.28000 -8.91534
v 1.78137 12.18101 -8.95556
v 1.80068 12.14000 -9.05265
v 1.82000 12.18101 -9.14974
v 2.71997 12.28000 -8.96653
v 2.70806 12.37899 -8.92729
v 2.67933 12.42000 -8.83256
v 2.65059 12.37899 -8.73783
v 2.63869 12.28000 -8.69859
v 2.65059 12.18101 -8.73783
v 2.67933 12.14000 -8.83256
v 2.70806 12.18101 -8.92729
v 3.58574 12.28000 -8.65675
v 3.57005 12.37899 -8.61887
v 3.53217 12.42000 -8.52741
v 3.49428 12.37899 -8.43595
v 3.47859 12.28000 -8.39806
v 3.49428 12.18101 -8.43595
v 3.53217 12.14000 -8.52741
v 3.57005 12.18101 -8.61887
v 4.41699 12.28000 -8.26360
v 4.39766 12.37899 -8.22744
v 4.35099 12.42000 -8.14013
v 4.30433 12.37899 -8.05283
v 4.28500 12.28000 -8.01666
v 4.30433 12.18101 -8.05283
v 4.35099 12.14000 -8.14013
v 4.39766 12.18101 -8.22744
v 5.20569 12.28000 -7.79087
v 5.18291 12.37899 -7.75678
v 5.12791 12.42000 -7.67446
v 5.07291 12.37899 -7.59215
v 5.05013 12.28000 -7.55806
v 5.07291 12.18101 -7.59215
v 5.12791 12.14000 -7.67446
v 5.18291 12.18101 -7.75678
v 5.94427 12.28000 -7.24311
v 5.91825 12.37899 -7.21141
v 5.85545 12.42000 -7.13489
v 5.79265 12.37899 -7.05836
v 5.76663 12.28000 -7.02667
v 5.79265 12.18101 -7.05836
v 5.85545 12.14000 -7.13489
v 5.91825 12.18101 -7.21141
v 6.62559 12.28000 -6.62559
v 6.59660 12.37899 -6.59660
v 6.52660 12.42000 -6.52660
v 6.45660 12.37899 -6.45660
v 6.42760 12.28000 -6.42760
v 6.45660 12.18101 -6.45660
v 6.52660 12.14000 -6.52660
v 6.59660 12.18101 -6.59660
v 7.24311 12.28000 -5.94427
v 7.21141 12.37899 -5.91825
v 7.13489 12.42000 -5.85545
v 7.05836 12.37899 -5.79265
v 7.02667 12.28000 -5.76663
v 7.05836 12.18101 -5.79265
v 7.13489 12.14000 -5.85545
v 7.21141 12.18101 -5.91825
v 7.79087 12.28000 -5.20569
v 7.75678 12.37899 -5.18291
v 7.67446 12.42000 -5.12791
v 7.59215 12.37899 -5.07291
v 7.55806 12.28000 -5.05013
v 7.59215 12.18101 -5.07291
v 7.67446 12.14000 -5.12791
v 7.75678 12.18101 -5.18291
v 8.26360 12.28000 -4.41699
v 8.22744 12.37899 -4.39766
v 8.14013 12.42000 -4.35099
v 8.05283 12.37899 -4.30433
v 8.01666 12.28000 -4.28500
v 8.05283 12.18101 -4.30433
v 8.14013 12.14000 -4.35099
v 8.22744 12.18101 -4.39766
v 8.65675 12.28000 -3.58574
v 8.61887 12.37899 -3.57005
v 8.52741 12.42000 -3.53217
v 8.43595 12.37899 -3.49428
v 8.39806 12.28000 -3.47859
v 8.43595 12.18101 -3.49428
v 8.52741 12.14000 -3.53217
v 8.61887 12.18101 -3.57005
v 8.96653 12.28000 -2.71997
v 8.92729 12.37899 -2.70806
v 8.83256 12.42000 -2.67933
v 8.73783 12.37899 -2.65059
v 8.69859 12.28000 -2.63869
v 8.73783 12.18101 -2.65059
v 8.83256 12.14000 -2.67933
v 8.92729 12.18101 -2.70806
v 9.18996 12.28000 -1.82800
v 9.14974 12.37899 -1.82000
v 9.05265 12.42000 -1.80068
v 8.95556 12.37899 -1.78137
v 8.91534 12.28000 -1.77337
v 8.95556 12.18101 -1.78137
v 9.05265 12.14000 -1.80068
v 9.14974 12.18101 -1.82000
v 9.32488 12.28000 -0.91842
v 9.28407 12.37899 -0.91440
v 9.18556 12.42000 -0.90470
v 9.08704 12.37899 -0.89500
v 9.04623 12.28000 -0.89098
v 9.08704 12.18101 -0.89500
v 9.18556 12.14000 -0.90470
v 9.28407 12.18101 -0.91440
v 9.28607 11.90858 0.00000
v 9.24613 11.90858 0.08293
v 9.15640 11.90858 0.10341
v 9.08444 11.90858 0.04602
v 9.08444 11.90858 -0.04602
v 9.15640 11.90858 -0.10341
v 9.24613 11.90858 -0.08293
v 9.33000 12.05000 0.00000
v 9.27352 12.05000 0.11727
v 9.14662 12.05000 0.14624
v 9.04485 12.05000 0.06508
v 9.04485 12.05000 -0.06508
v 9.14662 12.05000 -0.14624
v 9.27352 12.05000 -0.11727
v 9.28607 12.19142 0.00000
v 9.24613 12.19142 0.08293
v 9.15640 12.19142 0.10341
v 9.08444 12.19142 0.04602
v 9.08444 12.19142 -0.04602
v 9.15640 12.19142 -0.10341
v 9.24613 12.19142 -0.08293
v 9.18000 11.85000 0.00000
v 9.18000 12.25000 0.00000
v 8.97327 11.90858 2.37596
v 8.93333 11.90858 2.45888
v 8.84360 11.90858 2.47937
v 8.77164 11.90858 2.42198
v 8.77164 11.90858 2.32994
v 8.84360 11.90858 2.27255
v 8.93333 11.90858 2.29303
v 9.01720 12.05000 2.37596
v 8.96072 12.05000 2.49323
v 8.83382 12.05000 2.52220
v 8.73205 12.05000 2.44104
v 8.73205 12.05000 2.31088
v 8.83382 12.05000 2.22972
v 8.96072 12.05000 2.25868
v 8.97327 12.19142 2.37596
v 8.93333 12.19142 2.45888
v 8.84360 12.19142 2.47937
v 8.77164 12.19142 2.42198
v 8.77164 12.19142 2.32994
v 8.84360 12.19142 2.27255
v 8.93333 12.19142 2.29303
v 8.86720 11.85000 2.37596
v 8.86720 12.25000 2.37596
v 8.05618 11.90858 4.59000
v 8.01624 11.90858 4.67293
v 7.92651 11.90858 4.69341
v 7.85455 11.90858 4.63602
v 7.85455 11.90858 4.54398
v 7.92651 11.90858 4.48659
v 8.01624 11.90858 4.50707
v 8.10011 12.05000 4.59000
v 8.04364 12.05000 4.70727
v 7.91674 12.05000 4.73624
v 7.81497 12.05000 4.65508
v 7.81497 12.05000 4.52492
v 7.91674 12.05000 4.44376
v 8.04364 12.05000 4.47273
v 8.05618 12.19142 4.59000
v 8.01624 12.19142 4.67293
v 7.92651 12.19142 4.69341
v 7.85455 12.19142 4.63602
v 7.85455 12.19142 4.54398
v 7.92651 12.19142 4.48659
v 8.01624 12.19142 4.50707
v 7.95011 11.85000 4.59000
v 7.95011 12.25000 4.59000
v 6.59731 11.90858 6.49124
v 6.55737 11.90858 6.57417
v 6.46764 11.90858 6.59465
v 6.39568 11.90858 6.53726
v 6.39568 11.90858 6.44522
v 6.46764 11.90858 6.38783
v 6.55737 11.90858 6.40831
v 6.64124 12.05000 6.49124
v 6.58476 12.05000 6.60851
v 6.45786 12.05000 6.63748
v 6.35609 12.05000 6.55632
v 6.35609 12.05000 6.42616
v 6.45786 12.05000 6.34500
v 6.58476 12.05000 6.37397
v 6.59731 12.19142 6.49124
v 6.55737 12.19142 6.57417
v 6.46764 12.19142 6.59465
v 6.39568 12.19142 6.53726
v 6.39568 12.19142 6.44522
v 6.46764 12.19142 6.38783
v 6.55737 12.19142 6.40831
v 6.49124 11.85000 6.49124
v 6.49124 12.25000 6.49124
v 4.69607 11.90858 7.95011
v 4.65613 11.90858 8.03304
v 4.56640 11.90858 8.05352
v 4.49444 11.90858 7.99613
v 4.49444 11.90858 7.90409
v 4.56640 11.90858 7.84671
v 4.65613 11.90858 7.86719
v 4.74000 12.05000 7.95011
v 4.68352 12.05000 8.06739
v 4.55662 12.05000 8.09635
v 4.45485 12.05000 8.01520
v 4.45485 12.05000 7.88503
v 4.55662 12.05000 7.80387
v 4.68352 12.05000 7.83284
v 4.69607 12.19142 7.95011
v 4.65613 12.19142 8.03304
v 4.56640 12.19142 8.05352
v 4.49444 12.19142 7.99613
v 4.49444 12.19142 7.90409
v 4.56640 12.19142 7.84671
v 4.65613 12.19142 7.86719
v 4.59000 11.85000 7.95011
v 4.59000 12.25000 7.95011
v 2.48202 11.90858 8.86720
v 2.44209 11.90858 8.95012
v 2.35236 11.90858 8.97061
v 2.28040 11.90858 8.91322
v 2.28040 11.90858 8.82118
v 2.35236 11.90858 8.76379
v 2.44209 11.90858 8.78427
v 2.52596 12.05000 8.86720
v 2.46948 12.05000 8.98447
v 2.34258 12.05000 9.01344
v 2.24081 12.05000 8.93228
v 2.24081 12.05000 8.80212
v 2.34258 12.05000 8.72096
v 2.46948 12.05000 8.74992
v 2.48202 12.19142 8.86720
v 2.44209 12.19142 8.95012
v 2.35236 12.19142 8.97061
v 2.28040 12.19142 8.91322
v 2.28040 12.19142 8.82118
v 2.35236 12.19142 8.76379
v 2.44209 12.19142 8.78427
v 2.37596 11.85000 8.86720
v 2.37596 12.25000 8.86720
v 0.10607 11.90858 9.18000
v 0.06613 11.90858 9.26293
v -0.02360 11.90858 9.28341
v -0.09556 11.90858 9.22602
v -0.09556 11.90858 9.13398
v -0.02360 11.90858 9.07659
v 0.06613 11.90858 9.09707
v 0.15000 12.05000 9.18000
v 0.09352 12.05000 9.29727
v -0.03338 12.05000 9.32624
v -0.13515 12.05000 9.24508
v -0.13515 12.05000 9.11492
v -0.03338 12.05000 9.03376
v 0.09352 12.05000 9.06273
v 0.10607 12.19142 9.18000
v 0.06613 12.19142 9.26293
v -0.02360 12.19142 9.28341
v -0.09556 12.19142 9.22602
v -0.09556 12.19142 9.13398
v -0.02360 12.19142 9.07659
v 0.06613 12.19142 9.09707
v 0.00000 11.85000 9.18000
v 0.00000 12.25000 9.18000
v -2.26989 11.90858 8.86720
v -2.30983 11.90858 8.95012
v -2.39956 11.90858 8.97061
v -2.47152 11.90858 8.91322
v -2.47152 11.90858 8.82118
v -2.39956 11.90858 8.76379
v -2.30983 11.90858 8.78427
v -2.22596 12.05000 8.86720
v -2.28244 12.05000 8.98447
v -2.40934 12.05000 9.01344
v -2.51110 12.05000 8.93228
v -2.51110 12.05000 8.80212
v -2.40934 12.05000 8.72096
v -2.28244 12.05000 8.74992
v -2.26989 12.19142 8.86720
v -2.30983 12.19142 8.95012
v -2.39956 12.19142 8.97061
v -2.47152 12.19142 8.91322
v -2.47152 12.19142 8.82118
v -2.39956 12.19142 8.76379
v -2.30983 12.19142 8.78427
v -2.37596 11.85000 8.86720
v -2.37596 12.25000 8.86720
v -4.48393 11.90858 7.95011
v -4.52387 11.90858 8.03304
v -4.61360 11.90858 8.05352
v -4.68556 11.90858 7.99613
v -4.68556 11.90858 7.90409
v -4.61360 11.90858 7.84671
v -4.52387 11.90858 7.86719
v -4.44000 12.05000 7.95011
v -4.49648 12.05000 8.06739
v -4.62338 12.05000 8.09635
v -4.72515 12.05000 8.01520
v -4.72515 12.05000 7.88503
v -4.62338 12.05000 7.80387
v -4.49648 12.05000 7.83284
v -4.48393 12.19142 7.95011
v -4.52387 12.19142 8.03304
v -4.61360 12.19142 8.05352
v -4.68556 12.19142 7.99613
v -4.68556 12.19142 7.90409
v -4.61360 12.19142 7.84671
v -4.52387 12.19142 7.86719
v -4.59000 11.85000 7.95011
v -4.59000 12.25000 7.95011
v -6.38517 11.90858 6.49124
v -6.42511 11.90858 6.57417
v -6.51484 11.90858 6.59465
v -6.58680 11.90858 6.53726
v -6.58680 11.90858 6.44522
v -6.51484 11.90858 6.38783
v -6.42511 11.90858 6.40831
v -6.34124 12.05000 6.49124
v -6.39772 12.05000 6.60851
v -6.52462 12.05000 6.63748
v -6.62639 12.05000 6.55632
v -6.62639 12.05000 6.42616
v -6.52462 12.05000 6.34500
v -6.39772 12.05000 6.37397
v -6.38517 12.19142 6.49124
v -6.42511 12.19142 6.57417
v -6.51484 12.19142 6.59465
v -6.58680 12.19142 6.53726
v -6.58680 12.19142 6.44522
v -6.51484 12.19142 6.38783
v -6.42511 12.19142 6.40831
v -6.49124 11.85000 6.49124
v -6.49124 12.25000 6.49124
v -7.84405 11.90858 4.59000
v -7.88398 11.90858 4.67293
v -7.97372 11.90858 4.69341
v -8.04568 11.90858 4.63602
v -8.04568 11.90858 4.54398
v -7.97372 11.90858 4.48659
v -7.88398 11.90858 4.50707
v -7.80011 12.05000 4.59000
v -7.85659 12.05000 4.70727
v -7.98349 12.05000 4.73624
v -8.08526 12.05000 4.65508
v -8.08526 12.05000 4.52492
v -7.98349 12.05000 4.44376
v -7.85659 12.05000 4.47273
v -7.84405 12.19142 4.59000
v -7.88398 12.19142 4.67293
v -7.97372 12.19142 4.69341
v -8.04568 12.19142 4.63602
v -8.04568 12.19142 4.54398
v -7.97372 12.19142 4.48659
v -7.88398 12.19142 4.50707
v -7.95011 11.85000 4.59000
v -7.95011 12.25000 4.59000
v -8.76113 11.90858 2.37596
v -8.80107 11.90858 2.45888
v -8.89080 11.90858 2.47937
v -8.96276 11.90858 2.42198
v -8.96276 11.90858 2.32994
v -8.89080 11.90858 2.27255
v -8.80107 11.90858 2.29303
v -8.71720 12.05000 2.37596
v -8.77368 12.05000 2.49323
v -8.90058 12.05000 2.52220
v -9.00234 12.05000 2.44104
v -9.00234 12.05000 2.31088
v -8.90058 12.05000 2.22972
v -8.77368 12.05000 2.25868
v -8.76113 12.19142 2.37596
v -8.80107 12.19142 2.45888
v -8.89080 12.19142 2.47937
v -8.96276 12.19142 2.42198
v -8.96276 12.19142 2.32994
v -8.89080 12.19142 2.27255
v -8.80107 12.19142 2.29303
v -8.86720 11.85000 2.37596
v -8.86720 12.25000 2.37596
v -9.07393 11.90858 0.00000
v -9.11387 11.90858 0.08293
v -9.20360 11.90858 0.10341
v -9.27556 11.90858 0.04602
v -9.27556 11.90858 -0.04602
v -9.20360 11.90858 -0.10341
v -9.11387 11.90858 -0.08293
v -9.03000 12.05000 0.00000
v -9.08648 12.05000 0.11727
v -9.21338 12.05000 0.14624
v -9.31515 12.05000 0.06508
v -9.31515 12.05000 -0.06508
v -9.21338 12.05000 -0.14624
v -9.08648 12.05000 -0.11727
v -9.07393 12.19142 0.00000
v -9.11387 12.19142 0.08293
v -9.20360 12.19142 0.10341
v -9.27556 12.19142 0.04602
v -9.27556 12.19142 -0.04602
v -9.20360 12.19142 -0.10341
v -9.11387 12.19142 -0.08293
v -9.18000 11.85000 0.00000
v -9.18000 12.25000 0.00000
v -8.76113 11.90858 -2.37596
v -8.80107 11.90858 -2.29303
v -8.89080 11.90858 -2.27255
v -8.96276 11.90858 -2.32994
v -8.96276 11.90858 -2.42198
v -8.89080 11.90858 -2.47937
v -8.80107 11.90858 -2.45888
v -8.71720 12.05000 -2.37596
v -8.77368 12.05000 -2.25868
v -8.90058 12.05000 -2.22972
v -9.00234 12.05000 -2.31088
v -9.00234 12.05000 -2.44104
v -8.90058 12.05000 -2.52220
v -8.77368 12.05000 -2.49323
v -8.76113 12.19142 -2.37596
v -8.80107 12.19142 -2.29303
v -8.89080 12.19142 -2.27255
v -8.96276 12.19142 -2.32994
v -8.96276 12.19142 -2.42198
v -8.89080 12.19142 -2.47937
v -8.80107 12.19142 -2.45888
v -8.86720 11.85000 -2.37596
v -8.86720 12.25000 -2.37596
v -7.84405 11.90858 -4.59000
v -7.88398 11.90858 -4.50707
v -7.97372 11.90858 -4.48659
v -8.04568 11.90858 -4.54398
v -8.04568 11.90858 -4.63602
v -7.97372 11.90858 -4.69341
v -7.88398 11.90858 -4.67293
v -7.80011 12.05000 -4.59000
v -7.85659 12.05000 -4.47273
v -7.98349 12.05000 -4.44376
v -8.08526 12.05000 -4.52492
v -8.08526 12.05000 -4.65508
v -7.98349 12.05000 -4.73624
v -7.85659 12.05000 -4.70727
v -7.84405 12.19142 -4.59000
v -7.88398 12.19142 -4.50707
v -7.97372 12.19142 -4.48659
v -8.04568 12.19142 -4.54398
v -8.04568 12.19142 -4.63602
v -7.97372 12.19142 -4.69341
v -7.88398 12.19142 -4.67293
v -7.95011 11.85000 -4.59000
v -7.95011 12.25000 -4.59000
v -6.38517 11.90858 -6.49124
v -6.42511 11.90858 -6.40831
v -6.51484 11.90858 -6.38783
v -6.58680 11.90858 -6.44522
v -6.58680 11.90858 -6.53726
v -6.51484 11.90858 -6.59465
v -6.42511 11.90858 -6.57417
v -6.34124 12.05000 -6.49124
v -6.39772 12.05000 -6.37397
v -6.52462 12.05000 -6.34500
v -6.62639 12.05000 -6.42616
v -6.62639 12.05000 -6.55632
v -6.52462 12.05000 -6.63748
v -6.39772 12.05000 -6.60851
v -6.38517 12.19142 -6.49124
v -6.42511 12.19142 -6.40831
v -6.51484 12.19142 -6.38783
v -6.58680 12.19142 -6.44522
v -6.58680 12.19142 -6.53726
v -6.51484 12.19142 -6.59465
v -6.42511 12.19142 -6.57417
v -6.49124 11.85000 -6.49124
v -6.49124 12.25000 -6.49124
v -4.48393 11.90858 -7.95011
v -4.52387 11.90858 -7.86719
v -4.61360 11.90858 -7.84671
v -4.68556 11.90858 -7.90409
v -4.68556 11.90858 -7.99613
v -4.61360 11.90858 -8.05352
v -4.52387 11.90858 -8.03304
v -4.44000 12.05000 -7.95011
v -4.49648 12.05000 -7.83284
v -4.62338 12.05000 -7.80387
v -4.72515 12.05000 -7.88503
v -4.72515 12.05000 -8.01520
v -4.62338 12.05000 -8.09635
v -4.49648 12.05000 -8.06739
v -4.48393 12.19142 -7.95011
v -4.52387 12.19142 -7.86719
v -4.61360 12.19142 -7.84671
v -4.68556 12.19142 -7.90409
v -4.68556 12.19142 -7.99613
v -4.61360 12.19142 -8.05352
v -4.52387 12.19142 -8.03304
v -4.59000 11.85000 -7.95011
v -4.59000 12.25000 -7.95011
v -2.26989 11.90858 -8.86720
v -2.30983 11.90858 -8.78427
v -2.39956 11.90858 -8.76379
v -2.47152 11.90858 -8.82118
v -2.47152 11.90858 -8.91322
v -2.39956 11.90858 -8.97061
v -2.30983 11.90858 -8.95012
v -2.22596 12.05000 -8.86720
v -2.28244 12.05000 -8.74992
v -2.40934 12.05000 -8.72096
v -2.51110 12.05000 -8.80212
v -2.51110 12.05000 -8.93228
v -2.40934 12.05000 -9.01344
v -2.28244 12.05000 -8.98447
v -2.26989 12.19142 -8.86720
v -2.30983 12.19142 -8.78427
v -2.39956 12.19142 -8.76379
v -2.47152 12.19142 -8.82118
v -2.47152 12.19142 -8.91322
v -2.39956 12.19142 -8.97061
v -2.30983 12.19142 -8.95012
v -2.37596 11.85000 -8.86720
v -2.37596 12.25000 -8.86720
v 0.10607 11.90858 -9.18000
v 0.06613 11.90858 -9.09707
v -0.02360 11.90858 -9.07659
v -0.09556 11.90858 -9.13398
v -0.09556 11.90858 -9.22602
v -0.02360 11.90858 -9.28341
v 0.06613 11.90858 -9.26293
v 0.15000 12.05000 -9.18000
v 0.09352 12.05000 -9.06273
v -0.03338 12.05000 -9.03376
v -0.13515 12.05000 -9.11492
v -0.13515 12.05000 -9.24508
v -0.03338 12.05000 -9.32624
v 0.09352 12.05000 -9.29727
v 0.10607 12.19142 -9.18000
v 0.06613 12.19142 -9.09707
v -0.02360 12.19142 -9.07659
v -0.09556 12.19142 -9.13398
v -0.09556 12.19142 -9.22602
v -0.02360 12.19142 -9.28341
v 0.06613 12.19142 -9.26293
v -0.00000 11.85000 -9.18000
v -0.00000 12.25000 -9.18000
v 2.48202 11.90858 -8.86720
v 2.44209 11.90858 -8.78427
v 2.35236 11.90858 -8.76379
v 2.28040 11.90858 -8.82118
v 2.28040 11.90858 -8.91322
v 2.35236 11.90858 -8.97061
v 2.44209 11.90858 -8.95012
v 2.52596 12.05000 -8.86720
v 2.46948 12.05000 -8.74992
v 2.34258 12.05000 -8.72096
v 2.24081 12.05000 -8.80212
v 2.24081 12.05000 -8.93228
v 2.34258 12.05000 -9.01344
v 2.46948 12.05000 -8.98447
v 2.48202 12.19142 -8.86720
v 2.44209 12.19142 -8.78427
v 2.35236 12.19142 -8.76379
v 2.28040 12.19142 -8.82118
v 2.28040 12.19142 -8.91322
v 2.35236 12.19142 -8.97061
v 2.44209 12.19142 -8.95012
v 2.37596 11.85000 -8.86720
v 2.37596 12.25000 -8.86720
v 4.69607 11.90858 -7.95011
v 4.65613 11.90858 -7.86719
v 4.56640 11.90858 -7.84671
v 4.49444 11.90858 -7.90409
v 4.49444 11.90858 -7.99613
v 4.56640 11.90858 -8.05352
v 4.65613 11.90858 -8.03304
v 4.74000 12.05000 -7.95011
v 4.68352 12.05000 -7.83284
v 4.55662 12.05000 -7.80387
v 4.45485 12.05000 -7.88503
v 4.45485 12.05000 -8.01520
v 4.55662 12.05000 -8.09635
v 4.68352 12.05000 -8.06739
v 4.69607 12.19142 -7.95011
v 4.65613 12.19142 -7.86719
v 4.56640 12.19142 -7.84671
v 4.49444 12.19142 -7.90409
v 4.49444 12.19142 -7.99613
v 4.56640 12.19142 -8.05352
v 4.65613 12.19142 -8.03304
v 4.59000 11.85000 -7.95011
v 4.59000 12.25000 -7.95011
v 6.59731 11.90858 -6.49124
v 6.55737 11.90858 -6.40831
v 6.46764 11.90858 -6.38783
v 6.39568 11.90858 -6.44522
v 6.39568 11.90858 -6.53726
v 6.46764 11.90858 -6.59465
v 6.55737 11.90858 -6.57417
v 6.64124 12.05000 -6.49124
v 6.58476 12.05000 -6.37397
v 6.45786 12.05000 -6.34500
v 6.35609 12.05000 -6.42616
v 6.35609 12.05000 -6.55632
v 6.45786 12.05000 -6.63748
v 6.58476 12.05000 -6.60851
v 6.59731 12.19142 -6.49124
v 6.55737 12.19142 -6.40831
v 6.46764 12.19142 -6.38783
v 6.39568 12.19142 -6.44522
v 6.39568 12.19142 -6.53726
v 6.46764 12.19142 -6.59465
v 6.55737 12.19142 -6.57417
v 6.49124 11.85000 -6.49124
v 6.49124 12.25000 -6.49124
v 8.05618 11.90858 -4.59000
v 8.01624 11.90858 -4.50707
v 7.92651 11.90858 -4.48659
v 7.85455 11.90858 -4.54398
v 7.85455 11.90858 -4.63602
v 7.92651 11.90858 -4.69341
v 8.01624 11.90858 -4.67293
v 8.10011 12.05000 -4.59000
v 8.04364 12.05000 -4.47273
v 7.91674 12.05000 -4.44376
v 7.81497 12.05000 -4.52492
v 7.81497 12.05000 -4.65508
v 7.91674 12.05000 -4.73624
v 8.04364 12.05000 -4.70727
v 8.05618 12.19142 -4.59000
v 8.01624 12.19142 -4.50707
v 7.92651 12.19142 -4.48659
v 7.85455 12.19142 -4.54398
v 7.85455 12.19142 -4.63602
v 7.92651 12.19142 -4.69341
v 8.01624 12.19142 -4.67293
v 7.95011 11.85000 -4.59000
v 7.95011 12.25000 -4.59000
v 8.97327 11.90858 -2.37596
v 8.93333 11.90858 -2.29303
v 8.84360 11.90858 -2.27255
v 8.77164 11.90858 -2.32994
v 8.77164 11.90858 -2.42198
v 8.84360 11.90858 -2.47937
v 8.93333 11.90858 -2.45888
v 9.01720 12.05000 -2.37596
v 8.96072 12.05000 -2.25868
v 8.83382 12.05000 -2.22972
v 8.73205 12.05000 -2.31088
v 8.73205 12.05000 -2.44104
v 8.83382 12.05000 -2.52220
v 8.96072 12.05000 -2.49323
v 8.97327 12.19142 -2.37596
v 8.93333 12.19142 -2.29303
v 8.84360 12.19142 -2.27255
v 8.77164 12.19142 -2.32994
v 8.77164 12.19142 -2.42198
v 8.84360 12.19142 -2.47937
v 8.93333 12.19142 -2.45888
v 8.86720 11.85000 -2.37596
v 8.86720 12.25000 -2.37596
v 0.00000 14.10000 0.00000
v 0.00000 14.10000 0.00000
v 0.00000 14.10000 0.00000
v 0.00000 14.10000 0.00000
v 0.00000 14.10000 0.00000
v 0.00000 14.10000 0.00000
v 0.00000 14.10000 0.00000
v -0.00000 14.10000 0.00000
v -0.00000 14.10000 0.00000
v -0.00000 14.10000 0.00000
v -0.00000 14.10000 0.00000
v -0.00000 14.10000 0.00000
v -0.00000 14.10000 0.00000
v -0.00000 14.10000 -0.00000
v -0.00000 14.10000 -0.00000
v -0.00000 14.10000 -0.00000
v -0.00000 14.10000 -0.00000
v -0.00000 14.10000 -0.00000
v -0.00000 14.10000 -0.00000
v 0.00000 14.10000 -0.00000
v 0.00000 14.10000 -0.00000
v 0.00000 14.10000 -0.00000
v 0.00000 14.10000 -0.00000
v 0.00000 14.10000 -0.00000
v 0.70000 14.10000 0.00000
v 0.67615 14.10000 0.18117
v 0.60622 14.10000 0.35000
v 0.49497 14.10000 0.49497
v 0.35000 14.10000 0.60622
v 0.18117 14.10000 0.67615
v 0.00000 14.10000 0.70000
v -0.18117 14.10000 0.67615
v -0.35000 14.10000 0.60622
v -0.49497 14.10000 0.49497
v -0.60622 14.10000 0.35000
v -0.67615 14.10000 0.18117
v -0.70000 14.10000 0.00000
v -0.67615 14.10000 -0.18117
v -0.60622 14.10000 -0.35000
v -0.49497 14.10000 -0.49497
v -0.35000 14.10000 -0.60622
v -0.18117 14.10000 -0.67615
v -0.00000 14.10000 -0.70000
v 0.18117 14.10000 -0.67615
v 0.35000 14.10000 -0.60622
v 0.49497 14.10000 -0.49497
v 0.60622 14.10000 -0.35000
v 0.67615 14.10000 -0.18117
v 0.64000 14.45000 0.00000
v 0.61819 14.45000 0.16564
v 0.55426 14.45000 0.32000
v 0.45255 14.45000 0.45255
v 0.32000 14.45000 0.55426
v 0.16564 14.45000 0.61819
v 0.00000 14.45000 0.64000
v -0.16564 14.45000 0.61819
v -0.32000 14.45000 0.55426
v -0.45255 14.45000 0.45255
v -0.55426 14.45000 0.32000
v -0.61819 14.45000 0.16564
v -0.64000 14.45000 0.00000
v -0.61819 14.45000 -0.16564
v -0.55426 14.45000 -0.32000
v -0.45255 14.45000 -0.45255
v -0.32000 14.45000 -0.55426
v -0.16564 14.45000 -0.61819
v -0.00000 14.45000 -0.64000
v 0.16564 14.45000 -0.61819
v 0.32000 14.45000 -0.55426
v 0.45255 14.45000 -0.45255
v 0.55426 14.45000 -0.32000
v 0.61819 14.45000 -0.16564
v 0.50000 14.90000 0.00000
v 0.48296 14.90000 0.12941
v 0.43301 14.90000 0.25000
v 0.35355 14.90000 0.35355
v 0.25000 14.90000 0.43301
v 0.12941 14.90000 0.48296
v 0.00000 14.90000 0.50000
v -0.12941 14.90000 0.48296
v -0.25000 14.90000 0.43301
v -0.35355 14.90000 0.35355
v -0.43301 14.90000 0.25000
v -0.48296 14.90000 0.12941
v -0.50000 14.90000 0.00000
v -0.48296 14.90000 -0.12941
v -0.43301 14.90000 -0.25000
v -0.35355 14.90000 -0.35355
v -0.25000 14.90000 -0.43301
v -0.12941 14.90000 -0.48296
v -0.00000 14.90000 -0.50000
v 0.12941 14.90000 -0.48296
v 0.25000 14.90000 -0.43301
v 0.35355 14.90000 -0.35355
v 0.43301 14.90000 -0.25000
v 0.48296 14.90000 -0.12941
v 0.37000 15.35000 0.00000
v 0.35739 15.35000 0.09576
v 0.32043 15.35000 0.18500
v 0.26163 15.35000 0.26163
v 0.18500 15.35000 0.32043
v 0.09576 15.35000 0.35739
v 0.00000 15.35000 0.37000
v -0.09576 15.35000 0.35739
v -0.18500 15.35000 0.32043
v -0.26163 15.35000 0.26163
v -0.32043 15.35000 0.18500
v -0.35739 15.35000 0.09576
v -0.37000 15.35000 0.00000
v -0.35739 15.35000 -0.09576
v -0.32043 15.35000 -0.18500
v -0.26163 15.35000 -0.26163
v -0.18500 15.35000 -0.32043
v -0.09576 15.35000 -0.35739
v -0.00000 15.35000 -0.37000
v 0.09576 15.35000 -0.35739
v 0.18500 15.35000 -0.32043
v 0.26163 15.35000 -0.26163
v 0.32043 15.35000 -0.18500
v 0.35739 15.35000 -0.09576
v 0.18000 15.80000 0.00000
v 0.17387 15.80000 0.04659
v 0.15588 15.80000 0.09000
v 0.12728 15.80000 0.12728
v 0.09000 15.80000 0.15588
v 0.04659 15.80000 0.17387
v 0.00000 15.80000 0.18000
v -0.04659 15.80000 0.17387
v -0.09000 15.80000 0.15588
v -0.12728 15.80000 0.12728
v -0.15588 15.80000 0.09000
v -0.17387 15.80000 0.04659
v -0.18000 15.80000 0.00000
v -0.17387 15.80000 -0.04659
v -0.15588 15.80000 -0.09000
v -0.12728 15.80000 -0.12728
v -0.09000 15.80000 -0.15588
v -0.04659 15.80000 -0.17387
v -0.00000 15.80000 -0.18000
v 0.04659 15.80000 -0.17387
v 0.09000 15.80000 -0.15588
v 0.12728 15.80000 -0.12728
v 0.15588 15.80000 -0.09000
v 0.17387 15.80000 -0.04659
v 0.00000 16.15000 0.00000
v 0.00000 16.15000 0.00000
v 0.00000 16.15000 0.00000
v 0.00000 16.15000 0.00000
v 0.00000 16.15000 0.00000
v 0.00000 16.15000 0.00000
v 0.00000 16.15000 0.00000
v -0.00000 16.15000 0.00000
v -0.00000 16.15000 0.00000
v -0.00000 16.15000 0.00000
v -0.00000 16.15000 0.00000
v -0.00000 16.15000 0.00000
v -0.00000 16.15000 0.00000
v -0.00000 16.15000 -0.00000
v -0.00000 16.15000 -0.00000
v -0.00000 16.15000 -0.00000
v -0.00000 16.15000 -0.00000
v -0.00000 16.15000 -0.00000
v -0.00000 16.15000 -0.00000
v 0.00000 16.15000 -0.00000
v 0.00000 16.15000 -0.00000
v 0.00000 16.15000 -0.00000
v 0.00000 16.15000 -0.00000
v 0.00000 16.15000 -0.00000
v 0.00000 17.37000 -0.12000
v -0.18198 16.90047 -0.12000
v -0.68476 16.87249 -0.12000
v -0.29445 16.55433 -0.12000
v -0.42321 16.06751 -0.12000
v -0.00000 16.34040 -0.12000
v 0.42321 16.06751 -0.12000
v 0.29445 16.55433 -0.12000
v 0.68476 16.87249 -0.12000
v 0.18198 16.90047 -0.12000
v 0.00000 17.37000 0.12000
v -0.18198 16.90047 0.12000
v -0.68476 16.87249 0.12000
v -0.29445 16.55433 0.12000
v -0.42321 16.06751 0.12000
v -0.00000 16.34040 0.12000
v 0.42321 16.06751 0.12000
v 0.29445 16.55433 0.12000
v 0.68476 16.87249 0.12000
v 0.18198 16.90047 0.12000
v 0.00000 16.65000 -0.12000
v 0.00000 16.65000 0.12000
vt 0.05000 0.50000
vt 0.15000 0.50000
vt 0.25000 0.50000
vt 0.35000 0.50000
vt 0.45000 0.50000
vt 0.55000 0.50000
vt 0.65000 0.50000
vt 0.75000 0.50000
vt 0.85000 0.50000
vt 0.95000 0.50000
usemtl coral
f 1/2 3/2 13/2 11/2
f 3/2 5/2 15/2 13/2
f 5/2 7/2 17/2 15/2
f 7/2 9/2 19/2 17/2
f 11/2 13/2 23/2 21/2
f 13/2 15/2 25/2 23/2
f 15/2 17/2 27/2 25/2
f 17/2 19/2 29/2 27/2
f 21/2 23/2 33/2 31/2
f 23/2 25/2 35/2 33/2
f 25/2 27/2 37/2 35/2
f 27/2 29/2 39/2 37/2
f 81/2 83/2 93/2 91/2
f 83/2 85/2 95/2 93/2
f 85/2 87/2 97/2 95/2
f 87/2 89/2 99/2 97/2
f 91/2 93/2 103/2 101/2
f 93/2 95/2 105/2 103/2
f 95/2 97/2 107/2 105/2
f 97/2 99/2 109/2 107/2
f 101/2 103/2 113/2 111/2
f 103/2 105/2 115/2 113/2
f 105/2 107/2 117/2 115/2
f 107/2 109/2 119/2 117/2
f 161/2 163/2 173/2 171/2
f 163/2 165/2 175/2 173/2
f 165/2 167/2 177/2 175/2
f 167/2 169/2 179/2 177/2
f 171/2 173/2 183/2 181/2
f 173/2 175/2 185/2 183/2
f 175/2 177/2 187/2 185/2
f 177/2 179/2 189/2 187/2
f 181/2 183/2 193/2 191/2
f 183/2 185/2 195/2 193/2
f 185/2 187/2 197/2 195/2
f 187/2 189/2 199/2 197/2
f 241/2 243/2 253/2 251/2
f 243/2 245/2 255/2 253/2
f 245/2 247/2 257/2 255/2
f 247/2 249/2 259/2 257/2
f 251/2 253/2 263/2 261/2
f 253/2 255/2 265/2 263/2
f 255/2 257/2 267/2 265/2
f 257/2 259/2 269/2 267/2
f 261/2 263/2 273/2 271/2
f 263/2 265/2 275/2 273/2
f 265/2 267/2 277/2 275/2
f 267/2 269/2 279/2 277/2
f 984/2 985/2 1005/2
f 999/2 998/2 1006/2
f 985/2 986/2 1005/2
f 1000/2 999/2 1006/2
f 986/2 987/2 1005/2
f 1001/2 1000/2 1006/2
f 987/2 988/2 1005/2
f 1002/2 1001/2 1006/2
f 988/2 989/2 1005/2
f 1003/2 1002/2 1006/2
f 989/2 990/2 1005/2
f 1004/2 1003/2 1006/2
f 990/2 984/2 1005/2
f 998/2 1004/2 1006/2
f 991/2 992/2 985/2 984/2
f 992/2 993/2 986/2 985/2
f 993/2 994/2 987/2 986/2
f 994/2 995/2 988/2 987/2
f 995/2 996/2 989/2 988/2
f 996/2 997/2 990/2 989/2
f 997/2 991/2 984/2 990/2
f 998/2 999/2 992/2 991/2
f 999/2 1000/2 993/2 992/2
f 1000/2 1001/2 994/2 993/2
f 1001/2 1002/2 995/2 994/2
f 1002/2 1003/2 996/2 995/2
f 1003/2 1004/2 997/2 996/2
f 1004/2 998/2 991/2 997/2
f 1030/2 1031/2 1051/2
f 1045/2 1044/2 1052/2
f 1031/2 1032/2 1051/2
f 1046/2 1045/2 1052/2
f 1032/2 1033/2 1051/2
f 1047/2 1046/2 1052/2
f 1033/2 1034/2 1051/2
f 1048/2 1047/2 1052/2
f 1034/2 1035/2 1051/2
f 1049/2 1048/2 1052/2
f 1035/2 1036/2 1051/2
f 1050/2 1049/2 1052/2
f 1036/2 1030/2 1051/2
f 1044/2 1050/2 1052/2
f 1037/2 1038/2 1031/2 1030/2
f 1038/2 1039/2 1032/2 1031/2
f 1039/2 1040/2 1033/2 1032/2
f 1040/2 1041/2 1034/2 1033/2
f 1041/2 1042/2 1035/2 1034/2
f 1042/2 1043/2 1036/2 1035/2
f 1043/2 1037/2 1030/2 1036/2
f 1044/2 1045/2 1038/2 1037/2
f 1045/2 1046/2 1039/2 1038/2
f 1046/2 1047/2 1040/2 1039/2
f 1047/2 1048/2 1041/2 1040/2
f 1048/2 1049/2 1042/2 1041/2
f 1049/2 1050/2 1043/2 1042/2
f 1050/2 1044/2 1037/2 1043/2
f 1076/2 1077/2 1097/2
f 1091/2 1090/2 1098/2
f 1077/2 1078/2 1097/2
f 1092/2 1091/2 1098/2
f 1078/2 1079/2 1097/2
f 1093/2 1092/2 1098/2
f 1079/2 1080/2 1097/2
f 1094/2 1093/2 1098/2
f 1080/2 1081/2 1097/2
f 1095/2 1094/2 1098/2
f 1081/2 1082/2 1097/2
f 1096/2 1095/2 1098/2
f 1082/2 1076/2 1097/2
f 1090/2 1096/2 1098/2
f 1083/2 1084/2 1077/2 1076/2
f 1084/2 1085/2 1078/2 1077/2
f 1085/2 1086/2 1079/2 1078/2
f 1086/2 1087/2 1080/2 1079/2
f 1087/2 1088/2 1081/2 1080/2
f 1088/2 1089/2 1082/2 1081/2
f 1089/2 1083/2 1076/2 1082/2
f 1090/2 1091/2 1084/2 1083/2
f 1091/2 1092/2 1085/2 1084/2
f 1092/2 1093/2 1086/2 1085/2
f 1093/2 1094/2 1087/2 1086/2
f 1094/2 1095/2 1088/2 1087/2
f 1095/2 1096/2 1089/2 1088/2
f 1096/2 1090/2 1083/2 1089/2
f 1122/2 1123/2 1143/2
f 1137/2 1136/2 1144/2
f 1123/2 1124/2 1143/2
f 1138/2 1137/2 1144/2
f 1124/2 1125/2 1143/2
f 1139/2 1138/2 1144/2
f 1125/2 1126/2 1143/2
f 1140/2 1139/2 1144/2
f 1126/2 1127/2 1143/2
f 1141/2 1140/2 1144/2
f 1127/2 1128/2 1143/2
f 1142/2 1141/2 1144/2
f 1128/2 1122/2 1143/2
f 1136/2 1142/2 1144/2
f 1129/2 1130/2 1123/2 1122/2
f 1130/2 1131/2 1124/2 1123/2
f 1131/2 1132/2 1125/2 1124/2
f 1132/2 1133/2 1126/2 1125/2
f 1133/2 1134/2 1127/2 1126/2
f 1134/2 1135/2 1128/2 1127/2
f 1135/2 1129/2 1122/2 1128/2
f 1136/2 1137/2 1130/2 1129/2
f 1137/2 1138/2 1131/2 1130/2
f 1138/2 1139/2 1132/2 1131/2
f 1139/2 1140/2 1133/2 1132/2
f 1140/2 1141/2 1134/2 1133/2
f 1141/2 1142/2 1135/2 1134/2
f 1142/2 1136/2 1129/2 1135/2
f 1168/2 1169/2 1189/2
f 1183/2 1182/2 1190/2
f 1169/2 1170/2 1189/2
f 1184/2 1183/2 1190/2
f 1170/2 1171/2 1189/2
f 1185/2 1184/2 1190/2
f 1171/2 1172/2 1189/2
f 1186/2 1185/2 1190/2
f 1172/2 1173/2 1189/2
f 1187/2 1186/2 1190/2
f 1173/2 1174/2 1189/2
f 1188/2 1187/2 1190/2
f 1174/2 1168/2 1189/2
f 1182/2 1188/2 1190/2
f 1175/2 1176/2 1169/2 1168/2
f 1176/2 1177/2 1170/2 1169/2
f 1177/2 1178/2 1171/2 1170/2
f 1178/2 1179/2 1172/2 1171/2
f 1179/2 1180/2 1173/2 1172/2
f 1180/2 1181/2 1174/2 1173/2
f 1181/2 1175/2 1168/2 1174/2
f 1182/2 1183/2 1176/2 1175/2
f 1183/2 1184/2 1177/2 1176/2
f 1184/2 1185/2 1178/2 1177/2
f 1185/2 1186/2 1179/2 1178/2
f 1186/2 1187/2 1180/2 1179/2
f 1187/2 1188/2 1181/2 1180/2
f 1188/2 1182/2 1175/2 1181/2
f 1214/2 1215/2 1235/2
f 1229/2 1228/2 1236/2
f 1215/2 1216/2 1235/2
f 1230/2 1229/2 1236/2
f 1216/2 1217/2 1235/2
f 1231/2 1230/2 1236/2
f 1217/2 1218/2 1235/2
f 1232/2 1231/2 1236/2
f 1218/2 1219/2 1235/2
f 1233/2 1232/2 1236/2
f 1219/2 1220/2 1235/2
f 1234/2 1233/2 1236/2
f 1220/2 1214/2 1235/2
f 1228/2 1234/2 1236/2
f 1221/2 1222/2 1215/2 1214/2
f 1222/2 1223/2 1216/2 1215/2
f 1223/2 1224/2 1217/2 1216/2
f 1224/2 1225/2 1218/2 1217/2
f 1225/2 1226/2 1219/2 1218/2
f 1226/2 1227/2 1220/2 1219/2
f 1227/2 1221/2 1214/2 1220/2
f 1228/2 1229/2 1222/2 1221/2
f 1229/2 1230/2 1223/2 1222/2
f 1230/2 1231/2 1224/2 1223/2
f 1231/2 1232/2 1225/2 1224/2
f 1232/2 1233/2 1226/2 1225/2
f 1233/2 1234/2 1227/2 1226/2
f 1234/2 1228/2 1221/2 1227/2
f 1260/2 1261/2 1281/2
f 1275/2 1274/2 1282/2
f 1261/2 1262/2 1281/2
f 1276/2 1275/2 1282/2
f 1262/2 1263/2 1281/2
f 1277/2 1276/2 1282/2
f 1263/2 1264/2 1281/2
f 1278/2 1277/2 1282/2
f 1264/2 1265/2 1281/2
f 1279/2 1278/2 1282/2
f 1265/2 1266/2 1281/2
f 1280/2 1279/2 1282/2
f 1266/2 1260/2 1281/2
f 1274/2 1280/2 1282/2
f 1267/2 1268/2 1261/2 1260/2
f 1268/2 1269/2 1262/2 1261/2
f 1269/2 1270/2 1263/2 1262/2
f 1270/2 1271/2 1264/2 1263/2
f 1271/2 1272/2 1265/2 1264/2
f 1272/2 1273/2 1266/2 1265/2
f 1273/2 1267/2 1260/2 1266/2
f 1274/2 1275/2 1268/2 1267/2
f 1275/2 1276/2 1269/2 1268/2
f 1276/2 1277/2 1270/2 1269/2
f 1277/2 1278/2 1271/2 1270/2
f 1278/2 1279/2 1272/2 1271/2
f 1279/2 1280/2 1273/2 1272/2
f 1280/2 1274/2 1267/2 1273/2
f 1306/2 1307/2 1327/2
f 1321/2 1320/2 1328/2
f 1307/2 1308/2 1327/2
f 1322/2 1321/2 1328/2
f 1308/2 1309/2 1327/2
f 1323/2 1322/2 1328/2
f 1309/2 1310/2 1327/2
f 1324/2 1323/2 1328/2
f 1310/2 1311/2 1327/2
f 1325/2 1324/2 1328/2
f 1311/2 1312/2 1327/2
f 1326/2 1325/2 1328/2
f 1312/2 1306/2 1327/2
f 1320/2 1326/2 1328/2
f 1313/2 1314/2 1307/2 1306/2
f 1314/2 1315/2 1308/2 1307/2
f 1315/2 1316/2 1309/2 1308/2
f 1316/2 1317/2 1310/2 1309/2
f 1317/2 1318/2 1311/2 1310/2
f 1318/2 1319/2 1312/2 1311/2
f 1319/2 1313/2 1306/2 1312/2
f 1320/2 1321/2 1314/2 1313/2
f 1321/2 1322/2 1315/2 1314/2
f 1322/2 1323/2 1316/2 1315/2
f 1323/2 1324/2 1317/2 1316/2
f 1324/2 1325/2 1318/2 1317/2
f 1325/2 1326/2 1319/2 1318/2
f 1326/2 1320/2 1313/2 1319/2
f 1352/2 1353/2 1373/2
f 1367/2 1366/2 1374/2
f 1353/2 1354/2 1373/2
f 1368/2 1367/2 1374/2
f 1354/2 1355/2 1373/2
f 1369/2 1368/2 1374/2
f 1355/2 1356/2 1373/2
f 1370/2 1369/2 1374/2
f 1356/2 1357/2 1373/2
f 1371/2 1370/2 1374/2
f 1357/2 1358/2 1373/2
f 1372/2 1371/2 1374/2
f 1358/2 1352/2 1373/2
f 1366/2 1372/2 1374/2
f 1359/2 1360/2 1353/2 1352/2
f 1360/2 1361/2 1354/2 1353/2
f 1361/2 1362/2 1355/2 1354/2
f 1362/2 1363/2 1356/2 1355/2
f 1363/2 1364/2 1357/2 1356/2
f 1364/2 1365/2 1358/2 1357/2
f 1365/2 1359/2 1352/2 1358/2
f 1366/2 1367/2 1360/2 1359/2
f 1367/2 1368/2 1361/2 1360/2
f 1368/2 1369/2 1362/2 1361/2
f 1369/2 1370/2 1363/2 1362/2
f 1370/2 1371/2 1364/2 1363/2
f 1371/2 1372/2 1365/2 1364/2
f 1372/2 1366/2 1359/2 1365/2
f 1398/2 1399/2 1419/2
f 1413/2 1412/2 1420/2
f 1399/2 1400/2 1419/2
f 1414/2 1413/2 1420/2
f 1400/2 1401/2 1419/2
f 1415/2 1414/2 1420/2
f 1401/2 1402/2 1419/2
f 1416/2 1415/2 1420/2
f 1402/2 1403/2 1419/2
f 1417/2 1416/2 1420/2
f 1403/2 1404/2 1419/2
f 1418/2 1417/2 1420/2
f 1404/2 1398/2 1419/2
f 1412/2 1418/2 1420/2
f 1405/2 1406/2 1399/2 1398/2
f 1406/2 1407/2 1400/2 1399/2
f 1407/2 1408/2 1401/2 1400/2
f 1408/2 1409/2 1402/2 1401/2
f 1409/2 1410/2 1403/2 1402/2
f 1410/2 1411/2 1404/2 1403/2
f 1411/2 1405/2 1398/2 1404/2
f 1412/2 1413/2 1406/2 1405/2
f 1413/2 1414/2 1407/2 1406/2
f 1414/2 1415/2 1408/2 1407/2
f 1415/2 1416/2 1409/2 1408/2
f 1416/2 1417/2 1410/2 1409/2
f 1417/2 1418/2 1411/2 1410/2
f 1418/2 1412/2 1405/2 1411/2
f 1444/2 1445/2 1465/2
f 1459/2 1458/2 1466/2
f 1445/2 1446/2 1465/2
f 1460/2 1459/2 1466/2
f 1446/2 1447/2 1465/2
f 1461/2 1460/2 1466/2
f 1447/2 1448/2 1465/2
f 1462/2 1461/2 1466/2
f 1448/2 1449/2 1465/2
f 1463/2 1462/2 1466/2
f 1449/2 1450/2 1465/2
f 1464/2 1463/2 1466/2
f 1450/2 1444/2 1465/2
f 1458/2 1464/2 1466/2
f 1451/2 1452/2 1445/2 1444/2
f 1452/2 1453/2 1446/2 1445/2
f 1453/2 1454/2 1447/2 1446/2
f 1454/2 1455/2 1448/2 1447/2
f 1455/2 1456/2 1449/2 1448/2
f 1456/2 1457/2 1450/2 1449/2
f 1457/2 1451/2 1444/2 1450/2
f 1458/2 1459/2 1452/2 1451/2
f 1459/2 1460/2 1453/2 1452/2
f 1460/2 1461/2 1454/2 1453/2
f 1461/2 1462/2 1455/2 1454/2
f 1462/2 1463/2 1456/2 1455/2
f 1463/2 1464/2 1457/2 1456/2
f 1464/2 1458/2 1451/2 1457/2
f 1490/2 1491/2 1511/2
f 1505/2 1504/2 1512/2
f 1491/2 1492/2 1511/2
f 1506/2 1505/2 1512/2
f 1492/2 1493/2 1511/2
f 1507/2 1506/2 1512/2
f 1493/2 1494/2 1511/2
f 1508/2 1507/2 1512/2
f 1494/2 1495/2 1511/2
f 1509/2 1508/2 1512/2
f 1495/2 1496/2 1511/2
f 1510/2 1509/2 1512/2
f 1496/2 1490/2 1511/2
f 1504/2 1510/2 1512/2
f 1497/2 1498/2 1491/2 1490/2
f 1498/2 1499/2 1492/2 1491/2
f 1499/2 1500/2 1493/2 1492/2
f 1500/2 1501/2 1494/2 1493/2
f 1501/2 1502/2 1495/2 1494/2
f 1502/2 1503/2 1496/2 1495/2
f 1503/2 1497/2 1490/2 1496/2
f 1504/2 1505/2 1498/2 1497/2
f 1505/2 1506/2 1499/2 1498/2
f 1506/2 1507/2 1500/2 1499/2
f 1507/2 1508/2 1501/2 1500/2
f 1508/2 1509/2 1502/2 1501/2
f 1509/2 1510/2 1503/2 1502/2
f 1510/2 1504/2 1497/2 1503/2
f 1537/2 1538/2 1514/2 1513/2
f 1538/2 1539/2 1515/2 1514/2
f 1539/2 1540/2 1516/2 1515/2
f 1540/2 1541/2 1517/2 1516/2
f 1541/2 1542/2 1518/2 1517/2
f 1542/2 1543/2 1519/2 1518/2
f 1543/2 1544/2 1520/2 1519/2
f 1544/2 1545/2 1521/2 1520/2
f 1545/2 1546/2 1522/2 1521/2
f 1546/2 1547/2 1523/2 1522/2
f 1547/2 1548/2 1524/2 1523/2
f 1548/2 1549/2 1525/2 1524/2
f 1549/2 1550/2 1526/2 1525/2
f 1550/2 1551/2 1527/2 1526/2
f 1551/2 1552/2 1528/2 1527/2
f 1552/2 1553/2 1529/2 1528/2
f 1553/2 1554/2 1530/2 1529/2
f 1554/2 1555/2 1531/2 1530/2
f 1555/2 1556/2 1532/2 1531/2
f 1556/2 1557/2 1533/2 1532/2
f 1557/2 1558/2 1534/2 1533/2
f 1558/2 1559/2 1535/2 1534/2
f 1559/2 1560/2 1536/2 1535/2
f 1560/2 1537/2 1513/2 1536/2
f 1585/2 1586/2 1562/2 1561/2
f 1586/2 1587/2 1563/2 1562/2
f 1587/2 1588/2 1564/2 1563/2
f 1588/2 1589/2 1565/2 1564/2
f 1589/2 1590/2 1566/2 1565/2
f 1590/2 1591/2 1567/2 1566/2
f 1591/2 1592/2 1568/2 1567/2
f 1592/2 1593/2 1569/2 1568/2
f 1593/2 1594/2 1570/2 1569/2
f 1594/2 1595/2 1571/2 1570/2
f 1595/2 1596/2 1572/2 1571/2
f 1596/2 1597/2 1573/2 1572/2
f 1597/2 1598/2 1574/2 1573/2
f 1598/2 1599/2 1575/2 1574/2
f 1599/2 1600/2 1576/2 1575/2
f 1600/2 1601/2 1577/2 1576/2
f 1601/2 1602/2 1578/2 1577/2
f 1602/2 1603/2 1579/2 1578/2
f 1603/2 1604/2 1580/2 1579/2
f 1604/2 1605/2 1581/2 1580/2
f 1605/2 1606/2 1582/2 1581/2
f 1606/2 1607/2 1583/2 1582/2
f 1607/2 1608/2 1584/2 1583/2
f 1608/2 1585/2 1561/2 1584/2
usemtl wood
f 4/5 2/5 12/5 14/5
f 6/5 4/5 14/5 16/5
f 8/5 6/5 16/5 18/5
f 10/5 8/5 18/5 20/5
f 14/5 12/5 22/5 24/5
f 16/5 14/5 24/5 26/5
f 18/5 16/5 26/5 28/5
f 20/5 18/5 28/5 30/5
f 24/5 22/5 32/5 34/5
f 26/5 24/5 34/5 36/5
f 28/5 26/5 36/5 38/5
f 30/5 28/5 38/5 40/5
f 44/5 42/5 52/5 54/5
f 46/5 44/5 54/5 56/5
f 48/5 46/5 56/5 58/5
f 50/5 48/5 58/5 60/5
f 54/5 52/5 62/5 64/5
f 56/5 54/5 64/5 66/5
f 58/5 56/5 66/5 68/5
f 60/5 58/5 68/5 70/5
f 64/5 62/5 72/5 74/5
f 66/5 64/5 74/5 76/5
f 68/5 66/5 76/5 78/5
f 70/5 68/5 78/5 80/5
f 84/5 82/5 92/5 94/5
f 86/5 84/5 94/5 96/5
f 88/5 86/5 96/5 98/5
f 90/5 88/5 98/5 100/5
f 94/5 92/5 102/5 104/5
f 96/5 94/5 104/5 106/5
f 98/5 96/5 106/5 108/5
f 100/5 98/5 108/5 110/5
f 104/5 102/5 112/5 114/5
f 106/5 104/5 114/5 116/5
f 108/5 106/5 116/5 118/5
f 110/5 108/5 118/5 120/5
f 124/5 122/5 132/5 134/5
f 126/5 124/5 134/5 136/5
f 128/5 126/5 136/5 138/5
f 130/5 128/5 138/5 140/5
f 134/5 132/5 142/5 144/5
f 136/5 134/5 144/5 146/5
f 138/5 136/5 146/5 148/5
f 140/5 138/5 148/5 150/5
f 144/5 142/5 152/5 154/5
f 146/5 144/5 154/5 156/5
f 148/5 146/5 156/5 158/5
f 150/5 148/5 158/5 160/5
f 164/5 162/5 172/5 174/5
f 166/5 164/5 174/5 176/5
f 168/5 166/5 176/5 178/5
f 170/5 168/5 178/5 180/5
f 174/5 172/5 182/5 184/5
f 176/5 174/5 184/5 186/5
f 178/5 176/5 186/5 188/5
f 180/5 178/5 188/5 190/5
f 184/5 182/5 192/5 194/5
f 186/5 184/5 194/5 196/5
f 188/5 186/5 196/5 198/5
f 190/5 188/5 198/5 200/5
f 204/5 202/5 212/5 214/5
f 206/5 204/5 214/5 216/5
f 208/5 206/5 216/5 218/5
f 210/5 208/5 218/5 220/5
f 214/5 212/5 222/5 224/5
f 216/5 214/5 224/5 226/5
f 218/5 216/5 226/5 228/5
f 220/5 218/5 228/5 230/5
f 224/5 222/5 232/5 234/5
f 226/5 224/5 234/5 236/5
f 228/5 226/5 236/5 238/5
f 230/5 228/5 238/5 240/5
f 244/5 242/5 252/5 254/5
f 246/5 244/5 254/5 256/5
f 248/5 246/5 256/5 258/5
f 250/5 248/5 258/5 260/5
f 254/5 252/5 262/5 264/5
f 256/5 254/5 264/5 266/5
f 258/5 256/5 266/5 268/5
f 260/5 258/5 268/5 270/5
f 264/5 262/5 272/5 274/5
f 266/5 264/5 274/5 276/5
f 268/5 266/5 276/5 278/5
f 270/5 268/5 278/5 280/5
f 284/5 282/5 292/5 294/5
f 286/5 284/5 294/5 296/5
f 288/5 286/5 296/5 298/5
f 290/5 288/5 298/5 300/5
f 294/5 292/5 302/5 304/5
f 296/5 294/5 304/5 306/5
f 298/5 296/5 306/5 308/5
f 300/5 298/5 308/5 310/5
f 304/5 302/5 312/5 314/5
f 306/5 304/5 314/5 316/5
f 308/5 306/5 316/5 318/5
f 310/5 308/5 318/5 320/5
usemtl gold
f 1/4 2/4 12/4 11/4
f 11/4 12/4 22/4 21/4
f 21/4 22/4 32/4 31/4
f 9/4 10/4 20/4 19/4
f 19/4 20/4 30/4 29/4
f 29/4 30/4 40/4 39/4
f 1/4 3/4 4/4 2/4
f 3/4 5/4 6/4 4/4
f 5/4 7/4 8/4 6/4
f 7/4 9/4 10/4 8/4
f 31/4 33/4 34/4 32/4
f 33/4 35/4 36/4 34/4
f 35/4 37/4 38/4 36/4
f 37/4 39/4 40/4 38/4
f 41/4 42/4 52/4 51/4
f 51/4 52/4 62/4 61/4
f 61/4 62/4 72/4 71/4
f 49/4 50/4 60/4 59/4
f 59/4 60/4 70/4 69/4
f 69/4 70/4 80/4 79/4
f 41/4 43/4 44/4 42/4
f 43/4 45/4 46/4 44/4
f 45/4 47/4 48/4 46/4
f 47/4 49/4 50/4 48/4
f 71/4 73/4 74/4 72/4
f 73/4 75/4 76/4 74/4
f 75/4 77/4 78/4 76/4
f 77/4 79/4 80/4 78/4
f 81/4 82/4 92/4 91/4
f 91/4 92/4 102/4 101/4
f 101/4 102/4 112/4 111/4
f 89/4 90/4 100/4 99/4
f 99/4 100/4 110/4 109/4
f 109/4 110/4 120/4 119/4
f 81/4 83/4 84/4 82/4
f 83/4 85/4 86/4 84/4
f 85/4 87/4 88/4 86/4
f 87/4 89/4 90/4 88/4
f 111/4 113/4 114/4 112/4
f 113/4 115/4 116/4 114/4
f 115/4 117/4 118/4 116/4
f 117/4 119/4 120/4 118/4
f 121/4 122/4 132/4 131/4
f 131/4 132/4 142/4 141/4
f 141/4 142/4 152/4 151/4
f 129/4 130/4 140/4 139/4
f 139/4 140/4 150/4 149/4
f 149/4 150/4 160/4 159/4
f 121/4 123/4 124/4 122/4
f 123/4 125/4 126/4 124/4
f 125/4 127/4 128/4 126/4
f 127/4 129/4 130/4 128/4
f 151/4 153/4 154/4 152/4
f 153/4 155/4 156/4 154/4
f 155/4 157/4 158/4 156/4
f 157/4 159/4 160/4 158/4
f 161/4 162/4 172/4 171/4
f 171/4 172/4 182/4 181/4
f 181/4 182/4 192/4 191/4
f 169/4 170/4 180/4 179/4
f 179/4 180/4 190/4 189/4
f 189/4 190/4 200/4 199/4
f 161/4 163/4 164/4 162/4
f 163/4 165/4 166/4 164/4
f 165/4 167/4 168/4 166/4
f 167/4 169/4 170/4 168/4
f 191/4 193/4 194/4 192/4
f 193/4 195/4 196/4 194/4
f 195/4 197/4 198/4 196/4
f 197/4 199/4 200/4 198/4
f 201/4 202/4 212/4 211/4
f 211/4 212/4 222/4 221/4
f 221/4 222/4 232/4 231/4
f 209/4 210/4 220/4 219/4
f 219/4 220/4 230/4 229/4
f 229/4 230/4 240/4 239/4
f 201/4 203/4 204/4 202/4
f 203/4 205/4 206/4 204/4
f 205/4 207/4 208/4 206/4
f 207/4 209/4 210/4 208/4
f 231/4 233/4 234/4 232/4
f 233/4 235/4 236/4 234/4
f 235/4 237/4 238/4 236/4
f 237/4 239/4 240/4 238/4
f 241/4 242/4 252/4 251/4
f 251/4 252/4 262/4 261/4
f 261/4 262/4 272/4 271/4
f 249/4 250/4 260/4 259/4
f 259/4 260/4 270/4 269/4
f 269/4 270/4 280/4 279/4
f 241/4 243/4 244/4 242/4
f 243/4 245/4 246/4 244/4
f 245/4 247/4 248/4 246/4
f 247/4 249/4 250/4 248/4
f 271/4 273/4 274/4 272/4
f 273/4 275/4 276/4 274/4
f 275/4 277/4 278/4 276/4
f 277/4 279/4 280/4 278/4
f 281/4 282/4 292/4 291/4
f 291/4 292/4 302/4 301/4
f 301/4 302/4 312/4 311/4
f 289/4 290/4 300/4 299/4
f 299/4 300/4 310/4 309/4
f 309/4 310/4 320/4 319/4
f 281/4 283/4 284/4 282/4
f 283/4 285/4 286/4 284/4
f 285/4 287/4 288/4 286/4
f 287/4 289/4 290/4 288/4
f 311/4 313/4 314/4 312/4
f 313/4 315/4 316/4 314/4
f 315/4 317/4 318/4 316/4
f 317/4 319/4 320/4 318/4
f 321/4 322/4 329/4 328/4
f 335/4 322/4 321/4
f 336/4 328/4 329/4
f 322/4 323/4 330/4 329/4
f 335/4 323/4 322/4
f 336/4 329/4 330/4
f 323/4 324/4 331/4 330/4
f 335/4 324/4 323/4
f 336/4 330/4 331/4
f 324/4 325/4 332/4 331/4
f 335/4 325/4 324/4
f 336/4 331/4 332/4
f 325/4 326/4 333/4 332/4
f 335/4 326/4 325/4
f 336/4 332/4 333/4
f 326/4 327/4 334/4 333/4
f 335/4 327/4 326/4
f 336/4 333/4 334/4
f 327/4 321/4 328/4 334/4
f 335/4 321/4 327/4
f 336/4 334/4 328/4
f 337/4 338/4 345/4 344/4
f 351/4 338/4 337/4
f 352/4 344/4 345/4
f 338/4 339/4 346/4 345/4
f 351/4 339/4 338/4
f 352/4 345/4 346/4
f 339/4 340/4 347/4 346/4
f 351/4 340/4 339/4
f 352/4 346/4 347/4
f 340/4 341/4 348/4 347/4
f 351/4 341/4 340/4
f 352/4 347/4 348/4
f 341/4 342/4 349/4 348/4
f 351/4 342/4 341/4
f 352/4 348/4 349/4
f 342/4 343/4 350/4 349/4
f 351/4 343/4 342/4
f 352/4 349/4 350/4
f 343/4 337/4 344/4 350/4
f 351/4 337/4 343/4
f 352/4 350/4 344/4
f 353/4 354/4 361/4 360/4
f 367/4 354/4 353/4
f 368/4 360/4 361/4
f 354/4 355/4 362/4 361/4
f 367/4 355/4 354/4
f 368/4 361/4 362/4
f 355/4 356/4 363/4 362/4
f 367/4 356/4 355/4
f 368/4 362/4 363/4
f 356/4 357/4 364/4 363/4
f 367/4 357/4 356/4
f 368/4 363/4 364/4
f 357/4 358/4 365/4 364/4
f 367/4 358/4 357/4
f 368/4 364/4 365/4
f 358/4 359/4 366/4 365/4
f 367/4 359/4 358/4
f 368/4 365/4 366/4
f 359/4 353/4 360/4 366/4
f 367/4 353/4 359/4
f 368/4 366/4 360/4
f 369/4 370/4 377/4 376/4
f 383/4 370/4 369/4
f 384/4 376/4 377/4
f 370/4 371/4 378/4 377/4
f 383/4 371/4 370/4
f 384/4 377/4 378/4
f 371/4 372/4 379/4 378/4
f 383/4 372/4 371/4
f 384/4 378/4 379/4
f 372/4 373/4 380/4 379/4
f 383/4 373/4 372/4
f 384/4 379/4 380/4
f 373/4 374/4 381/4 380/4
f 383/4 374/4 373/4
f 384/4 380/4 381/4
f 374/4 375/4 382/4 381/4
f 383/4 375/4 374/4
f 384/4 381/4 382/4
f 375/4 369/4 376/4 382/4
f 383/4 369/4 375/4
f 384/4 382/4 376/4
f 385/4 386/4 393/4 392/4
f 399/4 386/4 385/4
f 400/4 392/4 393/4
f 386/4 387/4 394/4 393/4
f 399/4 387/4 386/4
f 400/4 393/4 394/4
f 387/4 388/4 395/4 394/4
f 399/4 388/4 387/4
f 400/4 394/4 395/4
f 388/4 389/4 396/4 395/4
f 399/4 389/4 388/4
f 400/4 395/4 396/4
f 389/4 390/4 397/4 396/4
f 399/4 390/4 389/4
f 400/4 396/4 397/4
f 390/4 391/4 398/4 397/4
f 399/4 391/4 390/4
f 400/4 397/4 398/4
f 391/4 385/4 392/4 398/4
f 399/4 385/4 391/4
f 400/4 398/4 392/4
f 401/4 402/4 409/4 408/4
f 415/4 402/4 401/4
f 416/4 408/4 409/4
f 402/4 403/4 410/4 409/4
f 415/4 403/4 402/4
f 416/4 409/4 410/4
f 403/4 404/4 411/4 410/4
f 415/4 404/4 403/4
f 416/4 410/4 411/4
f 404/4 405/4 412/4 411/4
f 415/4 405/4 404/4
f 416/4 411/4 412/4
f 405/4 406/4 413/4 412/4
f 415/4 406/4 405/4
f 416/4 412/4 413/4
f 406/4 407/4 414/4 413/4
f 415/4 407/4 406/4
f 416/4 413/4 414/4
f 407/4 401/4 408/4 414/4
f 415/4 401/4 407/4
f 416/4 414/4 408/4
f 417/4 418/4 425/4 424/4
f 431/4 418/4 417/4
f 432/4 424/4 425/4
f 418/4 419/4 426/4 425/4
f 431/4 419/4 418/4
f 432/4 425/4 426/4
f 419/4 420/4 427/4 426/4
f 431/4 420/4 419/4
f 432/4 426/4 427/4
f 420/4 421/4 428/4 427/4
f 431/4 421/4 420/4
f 432/4 427/4 428/4
f 421/4 422/4 429/4 428/4
f 431/4 422/4 421/4
f 432/4 428/4 429/4
f 422/4 423/4 430/4 429/4
f 431/4 423/4 422/4
f 432/4 429/4 430/4
f 423/4 417/4 424/4 430/4
f 431/4 417/4 423/4
f 432/4 430/4 424/4
f 433/4 434/4 441/4 440/4
f 447/4 434/4 433/4
f 448/4 440/4 441/4
f 434/4 435/4 442/4 441/4
f 447/4 435/4 434/4
f 448/4 441/4 442/4
f 435/4 436/4 443/4 442/4
f 447/4 436/4 435/4
f 448/4 442/4 443/4
f 436/4 437/4 444/4 443/4
f 447/4 437/4 436/4
f 448/4 443/4 444/4
f 437/4 438/4 445/4 444/4
f 447/4 438/4 437/4
f 448/4 444/4 445/4
f 438/4 439/4 446/4 445/4
f 447/4 439/4 438/4
f 448/4 445/4 446/4
f 439/4 433/4 440/4 446/4
f 447/4 433/4 439/4
f 448/4 446/4 440/4
f 449/4 450/4 458/4 457/4
f 450/4 451/4 459/4 458/4
f 451/4 452/4 460/4 459/4
f 452/4 453/4 461/4 460/4
f 453/4 454/4 462/4 461/4
f 454/4 455/4 463/4 462/4
f 455/4 456/4 464/4 463/4
f 456/4 449/4 457/4 464/4
f 457/4 458/4 466/4 465/4
f 458/4 459/4 467/4 466/4
f 459/4 460/4 468/4 467/4
f 460/4 461/4 469/4 468/4
f 461/4 462/4 470/4 469/4
f 462/4 463/4 471/4 470/4
f 463/4 464/4 472/4 471/4
f 464/4 457/4 465/4 472/4
f 465/4 466/4 474/4 473/4
f 466/4 467/4 475/4 474/4
f 467/4 468/4 476/4 475/4
f 468/4 469/4 477/4 476/4
f 469/4 470/4 478/4 477/4
f 470/4 471/4 479/4 478/4
f 471/4 472/4 480/4 479/4
f 472/4 465/4 473/4 480/4
f 473/4 474/4 482/4 481/4
f 474/4 475/4 483/4 482/4
f 475/4 476/4 484/4 483/4
f 476/4 477/4 485/4 484/4
f 477/4 478/4 486/4 485/4
f 478/4 479/4 487/4 486/4
f 479/4 480/4 488/4 487/4
f 480/4 473/4 481/4 488/4
f 481/4 482/4 490/4 489/4
f 482/4 483/4 491/4 490/4
f 483/4 484/4 492/4 491/4
f 484/4 485/4 493/4 492/4
f 485/4 486/4 494/4 493/4
f 486/4 487/4 495/4 494/4
f 487/4 488/4 496/4 495/4
f 488/4 481/4 489/4 496/4
f 489/4 490/4 498/4 497/4
f 490/4 491/4 499/4 498/4
f 491/4 492/4 500/4 499/4
f 492/4 493/4 501/4 500/4
f 493/4 494/4 502/4 501/4
f 494/4 495/4 503/4 502/4
f 495/4 496/4 504/4 503/4
f 496/4 489/4 497/4 504/4
f 497/4 498/4 506/4 505/4
f 498/4 499/4 507/4 506/4
f 499/4 500/4 508/4 507/4
f 500/4 501/4 509/4 508/4
f 501/4 502/4 510/4 509/4
f 502/4 503/4 511/4 510/4
f 503/4 504/4 512/4 511/4
f 504/4 497/4 505/4 512/4
f 505/4 506/4 514/4 513/4
f 506/4 507/4 515/4 514/4
f 507/4 508/4 516/4 515/4
f 508/4 509/4 517/4 516/4
f 509/4 510/4 518/4 517/4
f 510/4 511/4 519/4 518/4
f 511/4 512/4 520/4 519/4
f 512/4 505/4 513/4 520/4
f 513/4 514/4 522/4 521/4
f 514/4 515/4 523/4 522/4
f 515/4 516/4 524/4 523/4
f 516/4 517/4 525/4 524/4
f 517/4 518/4 526/4 525/4
f 518/4 519/4 527/4 526/4
f 519/4 520/4 528/4 527/4
f 520/4 513/4 521/4 528/4
f 521/4 522/4 530/4 529/4
f 522/4 523/4 531/4 530/4
f 523/4 524/4 532/4 531/4
f 524/4 525/4 533/4 532/4
f 525/4 526/4 534/4 533/4
f 526/4 527/4 535/4 534/4
f 527/4 528/4 536/4 535/4
f 528/4 521/4 529/4 536/4
f 529/4 530/4 538/4 537/4
f 530/4 531/4 539/4 538/4
f 531/4 532/4 540/4 539/4
f 532/4 533/4 541/4 540/4
f 533/4 534/4 542/4 541/4
f 534/4 535/4 543/4 542/4
f 535/4 536/4 544/4 543/4
f 536/4 529/4 537/4 544/4
f 537/4 538/4 546/4 545/4
f 538/4 539/4 547/4 546/4
f 539/4 540/4 548/4 547/4
f 540/4 541/4 549/4 548/4
f 541/4 542/4 550/4 549/4
f 542/4 543/4 551/4 550/4
f 543/4 544/4 552/4 551/4
f 544/4 537/4 545/4 552/4
f 545/4 546/4 554/4 553/4
f 546/4 547/4 555/4 554/4
f 547/4 548/4 556/4 555/4
f 548/4 549/4 557/4 556/4
f 549/4 550/4 558/4 557/4
f 550/4 551/4 559/4 558/4
f 551/4 552/4 560/4 559/4
f 552/4 545/4 553/4 560/4
f 553/4 554/4 562/4 561/4
f 554/4 555/4 563/4 562/4
f 555/4 556/4 564/4 563/4
f 556/4 557/4 565/4 564/4
f 557/4 558/4 566/4 565/4
f 558/4 559/4 567/4 566/4
f 559/4 560/4 568/4 567/4
f 560/4 553/4 561/4 568/4
f 561/4 562/4 570/4 569/4
f 562/4 563/4 571/4 570/4
f 563/4 564/4 572/4 571/4
f 564/4 565/4 573/4 572/4
f 565/4 566/4 574/4 573/4
f 566/4 567/4 575/4 574/4
f 567/4 568/4 576/4 575/4
f 568/4 561/4 569/4 576/4
f 569/4 570/4 578/4 577/4
f 570/4 571/4 579/4 578/4
f 571/4 572/4 580/4 579/4
f 572/4 573/4 581/4 580/4
f 573/4 574/4 582/4 581/4
f 574/4 575/4 583/4 582/4
f 575/4 576/4 584/4 583/4
f 576/4 569/4 577/4 584/4
f 577/4 578/4 586/4 585/4
f 578/4 579/4 587/4 586/4
f 579/4 580/4 588/4 587/4
f 580/4 581/4 589/4 588/4
f 581/4 582/4 590/4 589/4
f 582/4 583/4 591/4 590/4
f 583/4 584/4 592/4 591/4
f 584/4 577/4 585/4 592/4
f 585/4 586/4 594/4 593/4
f 586/4 587/4 595/4 594/4
f 587/4 588/4 596/4 595/4
f 588/4 589/4 597/4 596/4
f 589/4 590/4 598/4 597/4
f 590/4 591/4 599/4 598/4
f 591/4 592/4 600/4 599/4
f 592/4 585/4 593/4 600/4
f 593/4 594/4 602/4 601/4
f 594/4 595/4 603/4 602/4
f 595/4 596/4 604/4 603/4
f 596/4 597/4 605/4 604/4
f 597/4 598/4 606/4 605/4
f 598/4 599/4 607/4 606/4
f 599/4 600/4 608/4 607/4
f 600/4 593/4 601/4 608/4
f 601/4 602/4 610/4 609/4
f 602/4 603/4 611/4 610/4
f 603/4 604/4 612/4 611/4
f 604/4 605/4 613/4 612/4
f 605/4 606/4 614/4 613/4
f 606/4 607/4 615/4 614/4
f 607/4 608/4 616/4 615/4
f 608/4 601/4 609/4 616/4
f 609/4 610/4 618/4 617/4
f 610/4 611/4 619/4 618/4
f 611/4 612/4 620/4 619/4
f 612/4 613/4 621/4 620/4
f 613/4 614/4 622/4 621/4
f 614/4 615/4 623/4 622/4
f 615/4 616/4 624/4 623/4
f 616/4 609/4 617/4 624/4
f 617/4 618/4 626/4 625/4
f 618/4 619/4 627/4 626/4
f 619/4 620/4 628/4 627/4
f 620/4 621/4 629/4 628/4
f 621/4 622/4 630/4 629/4
f 622/4 623/4 631/4 630/4
f 623/4 624/4 632/4 631/4
f 624/4 617/4 625/4 632/4
f 625/4 626/4 634/4 633/4
f 626/4 627/4 635/4 634/4
f 627/4 628/4 636/4 635/4
f 628/4 629/4 637/4 636/4
f 629/4 630/4 638/4 637/4
f 630/4 631/4 639/4 638/4
f 631/4 632/4 640/4 639/4
f 632/4 625/4 633/4 640/4
f 633/4 634/4 642/4 641/4
f 634/4 635/4 643/4 642/4
f 635/4 636/4 644/4 643/4
f 636/4 637/4 645/4 644/4
f 637/4 638/4 646/4 645/4
f 638/4 639/4 647/4 646/4
f 639/4 640/4 648/4 647/4
f 640/4 633/4 641/4 648/4
f 641/4 642/4 650/4 649/4
f 642/4 643/4 651/4 650/4
f 643/4 644/4 652/4 651/4
f 644/4 645/4 653/4 652/4
f 645/4 646/4 654/4 653/4
f 646/4 647/4 655/4 654/4
f 647/4 648/4 656/4 655/4
f 648/4 641/4 649/4 656/4
f 649/4 650/4 658/4 657/4
f 650/4 651/4 659/4 658/4
f 651/4 652/4 660/4 659/4
f 652/4 653/4 661/4 660/4
f 653/4 654/4 662/4 661/4
f 654/4 655/4 663/4 662/4
f 655/4 656/4 664/4 663/4
f 656/4 649/4 657/4 664/4
f 657/4 658/4 666/4 665/4
f 658/4 659/4 667/4 666/4
f 659/4 660/4 668/4 667/4
f 660/4 661/4 669/4 668/4
f 661/4 662/4 670/4 669/4
f 662/4 663/4 671/4 670/4
f 663/4 664/4 672/4 671/4
f 664/4 657/4 665/4 672/4
f 665/4 666/4 674/4 673/4
f 666/4 667/4 675/4 674/4
f 667/4 668/4 676/4 675/4
f 668/4 669/4 677/4 676/4
f 669/4 670/4 678/4 677/4
f 670/4 671/4 679/4 678/4
f 671/4 672/4 680/4 679/4
f 672/4 665/4 673/4 680/4
f 673/4 674/4 682/4 681/4
f 674/4 675/4 683/4 682/4
f 675/4 676/4 684/4 683/4
f 676/4 677/4 685/4 684/4
f 677/4 678/4 686/4 685/4
f 678/4 679/4 687/4 686/4
f 679/4 680/4 688/4 687/4
f 680/4 673/4 681/4 688/4
f 681/4 682/4 690/4 689/4
f 682/4 683/4 691/4 690/4
f 683/4 684/4 692/4 691/4
f 684/4 685/4 693/4 692/4
f 685/4 686/4 694/4 693/4
f 686/4 687/4 695/4 694/4
f 687/4 688/4 696/4 695/4
f 688/4 681/4 689/4 696/4
f 689/4 690/4 698/4 697/4
f 690/4 691/4 699/4 698/4
f 691/4 692/4 700/4 699/4
f 692/4 693/4 701/4 700/4
f 693/4 694/4 702/4 701/4
f 694/4 695/4 703/4 702/4
f 695/4 696/4 704/4 703/4
f 696/4 689/4 697/4 704/4
f 697/4 698/4 706/4 705/4
f 698/4 699/4 707/4 706/4
f 699/4 700/4 708/4 707/4
f 700/4 701/4 709/4 708/4
f 701/4 702/4 710/4 709/4
f 702/4 703/4 711/4 710/4
f 703/4 704/4 712/4 711/4
f 704/4 697/4 705/4 712/4
f 705/4 706/4 714/4 713/4
f 706/4 707/4 715/4 714/4
f 707/4 708/4 716/4 715/4
f 708/4 709/4 717/4 716/4
f 709/4 710/4 718/4 717/4
f 710/4 711/4 719/4 718/4
f 711/4 712/4 720/4 719/4
f 712/4 705/4 713/4 720/4
f 713/4 714/4 722/4 721/4
f 714/4 715/4 723/4 722/4
f 715/4 716/4 724/4 723/4
f 716/4 717/4 725/4 724/4
f 717/4 718/4 726/4 725/4
f 718/4 719/4 727/4 726/4
f 719/4 720/4 728/4 727/4
f 720/4 713/4 721/4 728/4
f 721/4 722/4 730/4 729/4
f 722/4 723/4 731/4 730/4
f 723/4 724/4 732/4 731/4
f 724/4 725/4 733/4 732/4
f 725/4 726/4 734/4 733/4
f 726/4 727/4 735/4 734/4
f 727/4 728/4 736/4 735/4
f 728/4 721/4 729/4 736/4
f 729/4 730/4 738/4 737/4
f 730/4 731/4 739/4 738/4
f 731/4 732/4 740/4 739/4
f 732/4 733/4 741/4 740/4
f 733/4 734/4 742/4 741/4
f 734/4 735/4 743/4 742/4
f 735/4 736/4 744/4 743/4
f 736/4 729/4 737/4 744/4
f 737/4 738/4 746/4 745/4
f 738/4 739/4 747/4 746/4
f 739/4 740/4 748/4 747/4
f 740/4 741/4 749/4 748/4
f 741/4 742/4 750/4 749/4
f 742/4 743/4 751/4 750/4
f 743/4 744/4 752/4 751/4
f 744/4 737/4 745/4 752/4
f 745/4 746/4 754/4 753/4
f 746/4 747/4 755/4 754/4
f 747/4 748/4 756/4 755/4
f 748/4 749/4 757/4 756/4
f 749/4 750/4 758/4 757/4
f 750/4 751/4 759/4 758/4
f 751/4 752/4 760/4 759/4
f 752/4 745/4 753/4 760/4
f 753/4 754/4 762/4 761/4
f 754/4 755/4 763/4 762/4
f 755/4 756/4 764/4 763/4
f 756/4 757/4 765/4 764/4
f 757/4 758/4 766/4 765/4
f 758/4 759/4 767/4 766/4
f 759/4 760/4 768/4 767/4
f 760/4 753/4 761/4 768/4
f 761/4 762/4 770/4 769/4
f 762/4 763/4 771/4 770/4
f 763/4 764/4 772/4 771/4
f 764/4 765/4 773/4 772/4
f 765/4 766/4 774/4 773/4
f 766/4 767/4 775/4 774/4
f 767/4 768/4 776/4 775/4
f 768/4 761/4 769/4 776/4
f 769/4 770/4 778/4 777/4
f 770/4 771/4 779/4 778/4
f 771/4 772/4 780/4 779/4
f 772/4 773/4 781/4 780/4
f 773/4 774/4 782/4 781/4
f 774/4 775/4 783/4 782/4
f 775/4 776/4 784/4 783/4
f 776/4 769/4 777/4 784/4
f 777/4 778/4 786/4 785/4
f 778/4 779/4 787/4 786/4
f 779/4 780/4 788/4 787/4
f 780/4 781/4 789/4 788/4
f 781/4 782/4 790/4 789/4
f 782/4 783/4 791/4 790/4
f 783/4 784/4 792/4 791/4
f 784/4 777/4 785/4 792/4
f 785/4 786/4 794/4 793/4
f 786/4 787/4 795/4 794/4
f 787/4 788/4 796/4 795/4
f 788/4 789/4 797/4 796/4
f 789/4 790/4 798/4 797/4
f 790/4 791/4 799/4 798/4
f 791/4 792/4 800/4 799/4
f 792/4 785/4 793/4 800/4
f 793/4 794/4 802/4 801/4
f 794/4 795/4 803/4 802/4
f 795/4 796/4 804/4 803/4
f 796/4 797/4 805/4 804/4
f 797/4 798/4 806/4 805/4
f 798/4 799/4 807/4 806/4
f 799/4 800/4 808/4 807/4
f 800/4 793/4 801/4 808/4
f 801/4 802/4 810/4 809/4
f 802/4 803/4 811/4 810/4
f 803/4 804/4 812/4 811/4
f 804/4 805/4 813/4 812/4
f 805/4 806/4 814/4 813/4
f 806/4 807/4 815/4 814/4
f 807/4 808/4 816/4 815/4
f 808/4 801/4 809/4 816/4
f 809/4 810/4 818/4 817/4
f 810/4 811/4 819/4 818/4
f 811/4 812/4 820/4 819/4
f 812/4 813/4 821/4 820/4
f 813/4 814/4 822/4 821/4
f 814/4 815/4 823/4 822/4
f 815/4 816/4 824/4 823/4
f 816/4 809/4 817/4 824/4
f 817/4 818/4 826/4 825/4
f 818/4 819/4 827/4 826/4
f 819/4 820/4 828/4 827/4
f 820/4 821/4 829/4 828/4
f 821/4 822/4 830/4 829/4
f 822/4 823/4 831/4 830/4
f 823/4 824/4 832/4 831/4
f 824/4 817/4 825/4 832/4
f 825/4 826/4 834/4 833/4
f 826/4 827/4 835/4 834/4
f 827/4 828/4 836/4 835/4
f 828/4 829/4 837/4 836/4
f 829/4 830/4 838/4 837/4
f 830/4 831/4 839/4 838/4
f 831/4 832/4 840/4 839/4
f 832/4 825/4 833/4 840/4
f 833/4 834/4 842/4 841/4
f 834/4 835/4 843/4 842/4
f 835/4 836/4 844/4 843/4
f 836/4 837/4 845/4 844/4
f 837/4 838/4 846/4 845/4
f 838/4 839/4 847/4 846/4
f 839/4 840/4 848/4 847/4
f 840/4 833/4 841/4 848/4
f 841/4 842/4 850/4 849/4
f 842/4 843/4 851/4 850/4
f 843/4 844/4 852/4 851/4
f 844/4 845/4 853/4 852/4
f 845/4 846/4 854/4 853/4
f 846/4 847/4 855/4 854/4
f 847/4 848/4 856/4 855/4
f 848/4 841/4 849/4 856/4
f 849/4 850/4 858/4 857/4
f 850/4 851/4 859/4 858/4
f 851/4 852/4 860/4 859/4
f 852/4 853/4 861/4 860/4
f 853/4 854/4 862/4 861/4
f 854/4 855/4 863/4 862/4
f 855/4 856/4 864/4 863/4
f 856/4 849/4 857/4 864/4
f 857/4 858/4 866/4 865/4
f 858/4 859/4 867/4 866/4
f 859/4 860/4 868/4 867/4
f 860/4 861/4 869/4 868/4
f 861/4 862/4 870/4 869/4
f 862/4 863/4 871/4 870/4
f 863/4 864/4 872/4 871/4
f 864/4 857/4 865/4 872/4
f 865/4 866/4 874/4 873/4
f 866/4 867/4 875/4 874/4
f 867/4 868/4 876/4 875/4
f 868/4 869/4 877/4 876/4
f 869/4 870/4 878/4 877/4
f 870/4 871/4 879/4 878/4
f 871/4 872/4 880/4 879/4
f 872/4 865/4 873/4 880/4
f 873/4 874/4 882/4 881/4
f 874/4 875/4 883/4 882/4
f 875/4 876/4 884/4 883/4
f 876/4 877/4 885/4 884/4
f 877/4 878/4 886/4 885/4
f 878/4 879/4 887/4 886/4
f 879/4 880/4 888/4 887/4
f 880/4 873/4 881/4 888/4
f 881/4 882/4 890/4 889/4
f 882/4 883/4 891/4 890/4
f 883/4 884/4 892/4 891/4
f 884/4 885/4 893/4 892/4
f 885/4 886/4 894/4 893/4
f 886/4 887/4 895/4 894/4
f 887/4 888/4 896/4 895/4
f 888/4 881/4 889/4 896/4
f 889/4 890/4 898/4 897/4
f 890/4 891/4 899/4 898/4
f 891/4 892/4 900/4 899/4
f 892/4 893/4 901/4 900/4
f 893/4 894/4 902/4 901/4
f 894/4 895/4 903/4 902/4
f 895/4 896/4 904/4 903/4
f 896/4 889/4 897/4 904/4
f 897/4 898/4 906/4 905/4
f 898/4 899/4 907/4 906/4
f 899/4 900/4 908/4 907/4
f 900/4 901/4 909/4 908/4
f 901/4 902/4 910/4 909/4
f 902/4 903/4 911/4 910/4
f 903/4 904/4 912/4 911/4
f 904/4 897/4 905/4 912/4
f 905/4 906/4 914/4 913/4
f 906/4 907/4 915/4 914/4
f 907/4 908/4 916/4 915/4
f 908/4 909/4 917/4 916/4
f 909/4 910/4 918/4 917/4
f 910/4 911/4 919/4 918/4
f 911/4 912/4 920/4 919/4
f 912/4 905/4 913/4 920/4
f 913/4 914/4 922/4 921/4
f 914/4 915/4 923/4 922/4
f 915/4 916/4 924/4 923/4
f 916/4 917/4 925/4 924/4
f 917/4 918/4 926/4 925/4
f 918/4 919/4 927/4 926/4
f 919/4 920/4 928/4 927/4
f 920/4 913/4 921/4 928/4
f 921/4 922/4 930/4 929/4
f 922/4 923/4 931/4 930/4
f 923/4 924/4 932/4 931/4
f 924/4 925/4 933/4 932/4
f 925/4 926/4 934/4 933/4
f 926/4 927/4 935/4 934/4
f 927/4 928/4 936/4 935/4
f 928/4 921/4 929/4 936/4
f 929/4 930/4 938/4 937/4
f 930/4 931/4 939/4 938/4
f 931/4 932/4 940/4 939/4
f 932/4 933/4 941/4 940/4
f 933/4 934/4 942/4 941/4
f 934/4 935/4 943/4 942/4
f 935/4 936/4 944/4 943/4
f 936/4 929/4 937/4 944/4
f 937/4 938/4 946/4 945/4
f 938/4 939/4 947/4 946/4
f 939/4 940/4 948/4 947/4
f 940/4 941/4 949/4 948/4
f 941/4 942/4 950/4 949/4
f 942/4 943/4 951/4 950/4
f 943/4 944/4 952/4 951/4
f 944/4 937/4 945/4 952/4
f 945/4 946/4 954/4 953/4
f 946/4 947/4 955/4 954/4
f 947/4 948/4 956/4 955/4
f 948/4 949/4 957/4 956/4
f 949/4 950/4 958/4 957/4
f 950/4 951/4 959/4 958/4
f 951/4 952/4 960/4 959/4
f 952/4 945/4 953/4 960/4
f 953/4 954/4 450/4 449/4
f 954/4 955/4 451/4 450/4
f 955/4 956/4 452/4 451/4
f 956/4 957/4 453/4 452/4
f 957/4 958/4 454/4 453/4
f 958/4 959/4 455/4 454/4
f 959/4 960/4 456/4 455/4
f 960/4 953/4 449/4 456/4
f 961/4 962/4 982/4
f 976/4 975/4 983/4
f 962/4 963/4 982/4
f 977/4 976/4 983/4
f 963/4 964/4 982/4
f 978/4 977/4 983/4
f 964/4 965/4 982/4
f 979/4 978/4 983/4
f 965/4 966/4 982/4
f 980/4 979/4 983/4
f 966/4 967/4 982/4
f 981/4 980/4 983/4
f 967/4 961/4 982/4
f 975/4 981/4 983/4
f 968/4 969/4 962/4 961/4
f 969/4 970/4 963/4 962/4
f 970/4 971/4 964/4 963/4
f 971/4 972/4 965/4 964/4
f 972/4 973/4 966/4 965/4
f 973/4 974/4 967/4 966/4
f 974/4 968/4 961/4 967/4
f 975/4 976/4 969/4 968/4
f 976/4 977/4 970/4 969/4
f 977/4 978/4 971/4 970/4
f 978/4 979/4 972/4 971/4
f 979/4 980/4 973/4 972/4
f 980/4 981/4 974/4 973/4
f 981/4 975/4 968/4 974/4
f 1007/4 1008/4 1028/4
f 1022/4 1021/4 1029/4
f 1008/4 1009/4 1028/4
f 1023/4 1022/4 1029/4
f 1009/4 1010/4 1028/4
f 1024/4 1023/4 1029/4
f 1010/4 1011/4 1028/4
f 1025/4 1024/4 1029/4
f 1011/4 1012/4 1028/4
f 1026/4 1025/4 1029/4
f 1012/4 1013/4 1028/4
f 1027/4 1026/4 1029/4
f 1013/4 1007/4 1028/4
f 1021/4 1027/4 1029/4
f 1014/4 1015/4 1008/4 1007/4
f 1015/4 1016/4 1009/4 1008/4
f 1016/4 1017/4 1010/4 1009/4
f 1017/4 1018/4 1011/4 1010/4
f 1018/4 1019/4 1012/4 1011/4
f 1019/4 1020/4 1013/4 1012/4
f 1020/4 1014/4 1007/4 1013/4
f 1021/4 1022/4 1015/4 1014/4
f 1022/4 1023/4 1016/4 1015/4
f 1023/4 1024/4 1017/4 1016/4
f 1024/4 1025/4 1018/4 1017/4
f 1025/4 1026/4 1019/4 1018/4
f 1026/4 1027/4 1020/4 1019/4
f 1027/4 1021/4 1014/4 1020/4
f 1053/4 1054/4 1074/4
f 1068/4 1067/4 1075/4
f 1054/4 1055/4 1074/4
f 1069/4 1068/4 1075/4
f 1055/4 1056/4 1074/4
f 1070/4 1069/4 1075/4
f 1056/4 1057/4 1074/4
f 1071/4 1070/4 1075/4
f 1057/4 1058/4 1074/4
f 1072/4 1071/4 1075/4
f 1058/4 1059/4 1074/4
f 1073/4 1072/4 1075/4
f 1059/4 1053/4 1074/4
f 1067/4 1073/4 1075/4
f 1060/4 1061/4 1054/4 1053/4
f 1061/4 1062/4 1055/4 1054/4
f 1062/4 1063/4 1056/4 1055/4
f 1063/4 1064/4 1057/4 1056/4
f 1064/4 1065/4 1058/4 1057/4
f 1065/4 1066/4 1059/4 1058/4
f 1066/4 1060/4 1053/4 1059/4
f 1067/4 1068/4 1061/4 1060/4
f 1068/4 1069/4 1062/4 1061/4
f 1069/4 1070/4 1063/4 1062/4
f 1070/4 1071/4 1064/4 1063/4
f 1071/4 1072/4 1065/4 1064/4
f 1072/4 1073/4 1066/4 1065/4
f 1073/4 1067/4 1060/4 1066/4
f 1099/4 1100/4 1120/4
f 1114/4 1113/4 1121/4
f 1100/4 1101/4 1120/4
f 1115/4 1114/4 1121/4
f 1101/4 1102/4 1120/4
f 1116/4 1115/4 1121/4
f 1102/4 1103/4 1120/4
f 1117/4 1116/4 1121/4
f 1103/4 1104/4 1120/4
f 1118/4 1117/4 1121/4
f 1104/4 1105/4 1120/4
f 1119/4 1118/4 1121/4
f 1105/4 1099/4 1120/4
f 1113/4 1119/4 1121/4
f 1106/4 1107/4 1100/4 1099/4
f 1107/4 1108/4 1101/4 1100/4
f 1108/4 1109/4 1102/4 1101/4
f 1109/4 1110/4 1103/4 1102/4
f 1110/4 1111/4 1104/4 1103/4
f 1111/4 1112/4 1105/4 1104/4
f 1112/4 1106/4 1099/4 1105/4
f 1113/4 1114/4 1107/4 1106/4
f 1114/4 1115/4 1108/4 1107/4
f 1115/4 1116/4 1109/4 1108/4
f 1116/4 1117/4 1110/4 1109/4
f 1117/4 1118/4 1111/4 1110/4
f 1118/4 1119/4 1112/4 1111/4
f 1119/4 1113/4 1106/4 1112/4
f 1145/4 1146/4 1166/4
f 1160/4 1159/4 1167/4
f 1146/4 1147/4 1166/4
f 1161/4 1160/4 1167/4
f 1147/4 1148/4 1166/4
f 1162/4 1161/4 1167/4
f 1148/4 1149/4 1166/4
f 1163/4 1162/4 1167/4
f 1149/4 1150/4 1166/4
f 1164/4 1163/4 1167/4
f 1150/4 1151/4 1166/4
f 1165/4 1164/4 1167/4
f 1151/4 1145/4 1166/4
f 1159/4 1165/4 1167/4
f 1152/4 1153/4 1146/4 1145/4
f 1153/4 1154/4 1147/4 1146/4
f 1154/4 1155/4 1148/4 1147/4
f 1155/4 1156/4 1149/4 1148/4
f 1156/4 1157/4 1150/4 1149/4
f 1157/4 1158/4 1151/4 1150/4
f 1158/4 1152/4 1145/4 1151/4
f 1159/4 1160/4 1153/4 1152/4
f 1160/4 1161/4 1154/4 1153/4
f 1161/4 1162/4 1155/4 1154/4
f 1162/4 1163/4 1156/4 1155/4
f 1163/4 1164/4 1157/4 1156/4
f 1164/4 1165/4 1158/4 1157/4
f 1165/4 1159/4 1152/4 1158/4
f 1191/4 1192/4 1212/4
f 1206/4 1205/4 1213/4
f 1192/4 1193/4 1212/4
f 1207/4 1206/4 1213/4
f 1193/4 1194/4 1212/4
f 1208/4 1207/4 1213/4
f 1194/4 1195/4 1212/4
f 1209/4 1208/4 1213/4
f 1195/4 1196/4 1212/4
f 1210/4 1209/4 1213/4
f 1196/4 1197/4 1212/4
f 1211/4 1210/4 1213/4
f 1197/4 1191/4 1212/4
f 1205/4 1211/4 1213/4
f 1198/4 1199/4 1192/4 1191/4
f 1199/4 1200/4 1193/4 1192/4
f 1200/4 1201/4 1194/4 1193/4
f 1201/4 1202/4 1195/4 1194/4
f 1202/4 1203/4 1196/4 1195/4
f 1203/4 1204/4 1197/4 1196/4
f 1204/4 1198/4 1191/4 1197/4
f 1205/4 1206/4 1199/4 1198/4
f 1206/4 1207/4 1200/4 1199/4
f 1207/4 1208/4 1201/4 1200/4
f 1208/4 1209/4 1202/4 1201/4
f 1209/4 1210/4 1203/4 1202/4
f 1210/4 1211/4 1204/4 1203/4
f 1211/4 1205/4 1198/4 1204/4
f 1237/4 1238/4 1258/4
f 1252/4 1251/4 1259/4
f 1238/4 1239/4 1258/4
f 1253/4 1252/4 1259/4
f 1239/4 1240/4 1258/4
f 1254/4 1253/4 1259/4
f 1240/4 1241/4 1258/4
f 1255/4 1254/4 1259/4
f 1241/4 1242/4 1258/4
f 1256/4 1255/4 1259/4
f 1242/4 1243/4 1258/4
f 1257/4 1256/4 1259/4
f 1243/4 1237/4 1258/4
f 1251/4 1257/4 1259/4
f 1244/4 1245/4 1238/4 1237/4
f 1245/4 1246/4 1239/4 1238/4
f 1246/4 1247/4 1240/4 1239/4
f 1247/4 1248/4 1241/4 1240/4
f 1248/4 1249/4 1242/4 1241/4
f 1249/4 1250/4 1243/4 1242/4
f 1250/4 1244/4 1237/4 1243/4
f 1251/4 1252/4 1245/4 1244/4
f 1252/4 1253/4 1246/4 1245/4
f 1253/4 1254/4 1247/4 1246/4
f 1254/4 1255/4 1248/4 1247/4
f 1255/4 1256/4 1249/4 1248/4
f 1256/4 1257/4 1250/4 1249/4
f 1257/4 1251/4 1244/4 1250/4
f 1283/4 1284/4 1304/4
f 1298/4 1297/4 1305/4
f 1284/4 1285/4 1304/4
f 1299/4 1298/4 1305/4
f 1285/4 1286/4 1304/4
f 1300/4 1299/4 1305/4
f 1286/4 1287/4 1304/4
f 1301/4 1300/4 1305/4
f 1287/4 1288/4 1304/4
f 1302/4 1301/4 1305/4
f 1288/4 1289/4 1304/4
f 1303/4 1302/4 1305/4
f 1289/4 1283/4 1304/4
f 1297/4 1303/4 1305/4
f 1290/4 1291/4 1284/4 1283/4
f 1291/4 1292/4 1285/4 1284/4
f 1292/4 1293/4 1286/4 1285/4
f 1293/4 1294/4 1287/4 1286/4
f 1294/4 1295/4 1288/4 1287/4
f 1295/4 1296/4 1289/4 1288/4
f 1296/4 1290/4 1283/4 1289/4
f 1297/4 1298/4 1291/4 1290/4
f 1298/4 1299/4 1292/4 1291/4
f 1299/4 1300/4 1293/4 1292/4
f 1300/4 1301/4 1294/4 1293/4
f 1301/4 1302/4 1295/4 1294/4
f 1302/4 1303/4 1296/4 1295/4
f 1303/4 1297/4 1290/4 1296/4
f 1329/4 1330/4 1350/4
f 1344/4 1343/4 1351/4
f 1330/4 1331/4 1350/4
f 1345/4 1344/4 1351/4
f 1331/4 1332/4 1350/4
f 1346/4 1345/4 1351/4
f 1332/4 1333/4 1350/4
f 1347/4 1346/4 1351/4
f 1333/4 1334/4 1350/4
f 1348/4 1347/4 1351/4
f 1334/4 1335/4 1350/4
f 1349/4 1348/4 1351/4
f 1335/4 1329/4 1350/4
f 1343/4 1349/4 1351/4
f 1336/4 1337/4 1330/4 1329/4
f 1337/4 1338/4 1331/4 1330/4
f 1338/4 1339/4 1332/4 1331/4
f 1339/4 1340/4 1333/4 1332/4
f 1340/4 1341/4 1334/4 1333/4
f 1341/4 1342/4 1335/4 1334/4
f 1342/4 1336/4 1329/4 1335/4
f 1343/4 1344/4 1337/4 1336/4
f 1344/4 1345/4 1338/4 1337/4
f 1345/4 1346/4 1339/4 1338/4
f 1346/4 1347/4 1340/4 1339/4
f 1347/4 1348/4 1341/4 1340/4
f 1348/4 1349/4 1342/4 1341/4
f 1349/4 1343/4 1336/4 1342/4
f 1375/4 1376/4 1396/4
f 1390/4 1389/4 1397/4
f 1376/4 1377/4 1396/4
f 1391/4 1390/4 1397/4
f 1377/4 1378/4 1396/4
f 1392/4 1391/4 1397/4
f 1378/4 1379/4 1396/4
f 1393/4 1392/4 1397/4
f 1379/4 1380/4 1396/4
f 1394/4 1393/4 1397/4
f 1380/4 1381/4 1396/4
f 1395/4 1394/4 1397/4
f 1381/4 1375/4 1396/4
f 1389/4 1395/4 1397/4
f 1382/4 1383/4 1376/4 1375/4
f 1383/4 1384/4 1377/4 1376/4
f 1384/4 1385/4 1378/4 1377/4
f 1385/4 1386/4 1379/4 1378/4
f 1386/4 1387/4 1380/4 1379/4
f 1387/4 1388/4 1381/4 1380/4
f 1388/4 1382/4 1375/4 1381/4
f 1389/4 1390/4 1383/4 1382/4
f 1390/4 1391/4 1384/4 1383/4
f 1391/4 1392/4 1385/4 1384/4
f 1392/4 1393/4 1386/4 1385/4
f 1393/4 1394/4 1387/4 1386/4
f 1394/4 1395/4 1388/4 1387/4
f 1395/4 1389/4 1382/4 1388/4
f 1421/4 1422/4 1442/4
f 1436/4 1435/4 1443/4
f 1422/4 1423/4 1442/4
f 1437/4 1436/4 1443/4
f 1423/4 1424/4 1442/4
f 1438/4 1437/4 1443/4
f 1424/4 1425/4 1442/4
f 1439/4 1438/4 1443/4
f 1425/4 1426/4 1442/4
f 1440/4 1439/4 1443/4
f 1426/4 1427/4 1442/4
f 1441/4 1440/4 1443/4
f 1427/4 1421/4 1442/4
f 1435/4 1441/4 1443/4
f 1428/4 1429/4 1422/4 1421/4
f 1429/4 1430/4 1423/4 1422/4
f 1430/4 1431/4 1424/4 1423/4
f 1431/4 1432/4 1425/4 1424/4
f 1432/4 1433/4 1426/4 1425/4
f 1433/4 1434/4 1427/4 1426/4
f 1434/4 1428/4 1421/4 1427/4
f 1435/4 1436/4 1429/4 1428/4
f 1436/4 1437/4 1430/4 1429/4
f 1437/4 1438/4 1431/4 1430/4
f 1438/4 1439/4 1432/4 1431/4
f 1439/4 1440/4 1433/4 1432/4
f 1440/4 1441/4 1434/4 1433/4
f 1441/4 1435/4 1428/4 1434/4
f 1467/4 1468/4 1488/4
f 1482/4 1481/4 1489/4
f 1468/4 1469/4 1488/4
f 1483/4 1482/4 1489/4
f 1469/4 1470/4 1488/4
f 1484/4 1483/4 1489/4
f 1470/4 1471/4 1488/4
f 1485/4 1484/4 1489/4
f 1471/4 1472/4 1488/4
f 1486/4 1485/4 1489/4
f 1472/4 1473/4 1488/4
f 1487/4 1486/4 1489/4
f 1473/4 1467/4 1488/4
f 1481/4 1487/4 1489/4
f 1474/4 1475/4 1468/4 1467/4
f 1475/4 1476/4 1469/4 1468/4
f 1476/4 1477/4 1470/4 1469/4
f 1477/4 1478/4 1471/4 1470/4
f 1478/4 1479/4 1472/4 1471/4
f 1479/4 1480/4 1473/4 1472/4
f 1480/4 1474/4 1467/4 1473/4
f 1481/4 1482/4 1475/4 1474/4
f 1482/4 1483/4 1476/4 1475/4
f 1483/4 1484/4 1477/4 1476/4
f 1484/4 1485/4 1478/4 1477/4
f 1485/4 1486/4 1479/4 1478/4
f 1486/4 1487/4 1480/4 1479/4
f 1487/4 1481/4 1474/4 1480/4
f 1609/4 1610/4 1586/4 1585/4
f 1610/4 1611/4 1587/4 1586/4
f 1611/4 1612/4 1588/4 1587/4
f 1612/4 1613/4 1589/4 1588/4
f 1613/4 1614/4 1590/4 1589/4
f 1614/4 1615/4 1591/4 1590/4
f 1615/4 1616/4 1592/4 1591/4
f 1616/4 1617/4 1593/4 1592/4
f 1617/4 1618/4 1594/4 1593/4
f 1618/4 1619/4 1595/4 1594/4
f 1619/4 1620/4 1596/4 1595/4
f 1620/4 1621/4 1597/4 1596/4
f 1621/4 1622/4 1598/4 1597/4
f 1622/4 1623/4 1599/4 1598/4
f 1623/4 1624/4 1600/4 1599/4
f 1624/4 1625/4 1601/4 1600/4
f 1625/4 1626/4 1602/4 1601/4
f 1626/4 1627/4 1603/4 1602/4
f 1627/4 1628/4 1604/4 1603/4
f 1628/4 1629/4 1605/4 1604/4
f 1629/4 1630/4 1606/4 1605/4
f 1630/4 1631/4 1607/4 1606/4
f 1631/4 1632/4 1608/4 1607/4
f 1632/4 1609/4 1585/4 1608/4
f 1633/4 1634/4 1610/4 1609/4
f 1634/4 1635/4 1611/4 1610/4
f 1635/4 1636/4 1612/4 1611/4
f 1636/4 1637/4 1613/4 1612/4
f 1637/4 1638/4 1614/4 1613/4
f 1638/4 1639/4 1615/4 1614/4
f 1639/4 1640/4 1616/4 1615/4
f 1640/4 1641/4 1617/4 1616/4
f 1641/4 1642/4 1618/4 1617/4
f 1642/4 1643/4 1619/4 1618/4
f 1643/4 1644/4 1620/4 1619/4
f 1644/4 1645/4 1621/4 1620/4
f 1645/4 1646/4 1622/4 1621/4
f 1646/4 1647/4 1623/4 1622/4
f 1647/4 1648/4 1624/4 1623/4
f 1648/4 1649/4 1625/4 1624/4
f 1649/4 1650/4 1626/4 1625/4
f 1650/4 1651/4 1627/4 1626/4
f 1651/4 1652/4 1628/4 1627/4
f 1652/4 1653/4 1629/4 1628/4
f 1653/4 1654/4 1630/4 1629/4
f 1654/4 1655/4 1631/4 1630/4
f 1655/4 1656/4 1632/4 1631/4
f 1656/4 1633/4 1609/4 1632/4
f 1657/4 1658/4 1634/4 1633/4
f 1658/4 1659/4 1635/4 1634/4
f 1659/4 1660/4 1636/4 1635/4
f 1660/4 1661/4 1637/4 1636/4
f 1661/4 1662/4 1638/4 1637/4
f 1662/4 1663/4 1639/4 1638/4
f 1663/4 1664/4 1640/4 1639/4
f 1664/4 1665/4 1641/4 1640/4
f 1665/4 1666/4 1642/4 1641/4
f 1666/4 1667/4 1643/4 1642/4
f 1667/4 1668/4 1644/4 1643/4
f 1668/4 1669/4 1645/4 1644/4
f 1669/4 1670/4 1646/4 1645/4
f 1670/4 1671/4 1647/4 1646/4
f 1671/4 1672/4 1648/4 1647/4
f 1672/4 1673/4 1649/4 1648/4
f 1673/4 1674/4 1650/4 1649/4
f 1674/4 1675/4 1651/4 1650/4
f 1675/4 1676/4 1652/4 1651/4
f 1676/4 1677/4 1653/4 1652/4
f 1677/4 1678/4 1654/4 1653/4
f 1678/4 1679/4 1655/4 1654/4
f 1679/4 1680/4 1656/4 1655/4
f 1680/4 1657/4 1633/4 1656/4
f 1682/4 1681/4 1701/4
f 1691/4 1692/4 1702/4
f 1682/4 1692/4 1691/4 1681/4
f 1683/4 1682/4 1701/4
f 1692/4 1693/4 1702/4
f 1683/4 1693/4 1692/4 1682/4
f 1684/4 1683/4 1701/4
f 1693/4 1694/4 1702/4
f 1684/4 1694/4 1693/4 1683/4
f 1685/4 1684/4 1701/4
f 1694/4 1695/4 1702/4
f 1685/4 1695/4 1694/4 1684/4
f 1686/4 1685/4 1701/4
f 1695/4 1696/4 1702/4
f 1686/4 1696/4 1695/4 1685/4
f 1687/4 1686/4 1701/4
f 1696/4 1697/4 1702/4
f 1687/4 1697/4 1696/4 1686/4
f 1688/4 1687/4 1701/4
f 1697/4 1698/4 1702/4
f 1688/4 1698/4 1697/4 1687/4
f 1689/4 1688/4 1701/4
f 1698/4 1699/4 1702/4
f 1689/4 1699/4 1698/4 1688/4
f 1690/4 1689/4 1701/4
f 1699/4 1700/4 1702/4
f 1690/4 1700/4 1699/4 1689/4
f 1681/4 1690/4 1701/4
f 1700/4 1691/4 1702/4
f 1681/4 1691/4 1700/4 1690/4
usemtl cream
f 41/1 43/1 53/1 51/1
f 43/1 45/1 55/1 53/1
f 45/1 47/1 57/1 55/1
f 47/1 49/1 59/1 57/1
f 51/1 53/1 63/1 61/1
f 53/1 55/1 65/1 63/1
f 55/1 57/1 67/1 65/1
f 57/1 59/1 69/1 67/1
f 61/1 63/1 73/1 71/1
f 63/1 65/1 75/1 73/1
f 65/1 67/1 77/1 75/1
f 67/1 69/1 79/1 77/1
f 121/1 123/1 133/1 131/1
f 123/1 125/1 135/1 133/1
f 125/1 127/1 137/1 135/1
f 127/1 129/1 139/1 137/1
f 131/1 133/1 143/1 141/1
f 133/1 135/1 145/1 143/1
f 135/1 137/1 147/1 145/1
f 137/1 139/1 149/1 147/1
f 141/1 143/1 153/1 151/1
f 143/1 145/1 155/1 153/1
f 145/1 147/1 157/1 155/1
f 147/1 149/1 159/1 157/1
f 201/1 203/1 213/1 211/1
f 203/1 205/1 215/1 213/1
f 205/1 207/1 217/1 215/1
f 207/1 209/1 219/1 217/1
f 211/1 213/1 223/1 221/1
f 213/1 215/1 225/1 223/1
f 215/1 217/1 227/1 225/1
f 217/1 219/1 229/1 227/1
f 221/1 223/1 233/1 231/1
f 223/1 225/1 235/1 233/1
f 225/1 227/1 237/1 235/1
f 227/1 229/1 239/1 237/1
f 281/1 283/1 293/1 291/1
f 283/1 285/1 295/1 293/1
f 285/1 287/1 297/1 295/1
f 287/1 289/1 299/1 297/1
f 291/1 293/1 303/1 301/1
f 293/1 295/1 305/1 303/1
f 295/1 297/1 307/1 305/1
f 297/1 299/1 309/1 307/1
f 301/1 303/1 313/1 311/1
f 303/1 305/1 315/1 313/1
f 305/1 307/1 317/1 315/1
f 307/1 309/1 319/1 317/1
f 1561/1 1562/1 1538/1 1537/1
f 1562/1 1563/1 1539/1 1538/1
f 1563/1 1564/1 1540/1 1539/1
f 1564/1 1565/1 1541/1 1540/1
f 1565/1 1566/1 1542/1 1541/1
f 1566/1 1567/1 1543/1 1542/1
f 1567/1 1568/1 1544/1 1543/1
f 1568/1 1569/1 1545/1 1544/1
f 1569/1 1570/1 1546/1 1545/1
f 1570/1 1571/1 1547/1 1546/1
f 1571/1 1572/1 1548/1 1547/1
f 1572/1 1573/1 1549/1 1548/1
f 1573/1 1574/1 1550/1 1549/1
f 1574/1 1575/1 1551/1 1550/1
f 1575/1 1576/1 1552/1 1551/1
f 1576/1 1577/1 1553/1 1552/1
f 1577/1 1578/1 1554/1 1553/1
f 1578/1 1579/1 1555/1 1554/1
f 1579/1 1580/1 1556/1 1555/1
f 1580/1 1581/1 1557/1 1556/1
f 1581/1 1582/1 1558/1 1557/1
f 1582/1 1583/1 1559/1 1558/1
f 1583/1 1584/1 1560/1 1559/1
f 1584/1 1561/1 1537/1 1560/1
