# ParkParkCoconutHub — ParkPark original fairground mesh
mtllib ParkParkFairground.mtl
o ParkParkCoconutHub
v 8.20000 0.00000 0.00000
v 8.20000 0.60000 0.00000
v 8.11654 0.00000 1.16698
v 8.11654 0.60000 1.16698
v 7.86784 0.00000 2.31021
v 7.86784 0.60000 2.31021
v 7.45898 0.00000 3.40640
v 7.45898 0.60000 3.40640
v 6.89828 0.00000 4.43325
v 6.89828 0.60000 4.43325
v 6.19715 0.00000 5.36986
v 6.19715 0.60000 5.36986
v 5.36986 0.00000 6.19715
v 5.36986 0.60000 6.19715
v 4.43325 0.00000 6.89828
v 4.43325 0.60000 6.89828
v 3.40640 0.00000 7.45898
v 3.40640 0.60000 7.45898
v 2.31021 0.00000 7.86784
v 2.31021 0.60000 7.86784
v 1.16698 0.00000 8.11654
v 1.16698 0.60000 8.11654
v 0.00000 0.00000 8.20000
v 0.00000 0.60000 8.20000
v -1.16698 0.00000 8.11654
v -1.16698 0.60000 8.11654
v -2.31021 0.00000 7.86784
v -2.31021 0.60000 7.86784
v -3.40640 0.00000 7.45898
v -3.40640 0.60000 7.45898
v -4.43325 0.00000 6.89828
v -4.43325 0.60000 6.89828
v -5.36986 0.00000 6.19715
v -5.36986 0.60000 6.19715
v -6.19715 0.00000 5.36986
v -6.19715 0.60000 5.36986
v -6.89828 0.00000 4.43325
v -6.89828 0.60000 4.43325
v -7.45898 0.00000 3.40640
v -7.45898 0.60000 3.40640
v -7.86784 0.00000 2.31021
v -7.86784 0.60000 2.31021
v -8.11654 0.00000 1.16698
v -8.11654 0.60000 1.16698
v -8.20000 0.00000 0.00000
v -8.20000 0.60000 0.00000
v -8.11654 0.00000 -1.16698
v -8.11654 0.60000 -1.16698
v -7.86784 0.00000 -2.31021
v -7.86784 0.60000 -2.31021
v -7.45898 0.00000 -3.40640
v -7.45898 0.60000 -3.40640
v -6.89828 0.00000 -4.43325
v -6.89828 0.60000 -4.43325
v -6.19715 0.00000 -5.36986
v -6.19715 0.60000 -5.36986
v -5.36986 0.00000 -6.19715
v -5.36986 0.60000 -6.19715
v -4.43325 0.00000 -6.89828
v -4.43325 0.60000 -6.89828
v -3.40640 0.00000 -7.45898
v -3.40640 0.60000 -7.45898
v -2.31021 0.00000 -7.86784
v -2.31021 0.60000 -7.86784
v -1.16698 0.00000 -8.11654
v -1.16698 0.60000 -8.11654
v -0.00000 0.00000 -8.20000
v -0.00000 0.60000 -8.20000
v 1.16698 0.00000 -8.11654
v 1.16698 0.60000 -8.11654
v 2.31021 0.00000 -7.86784
v 2.31021 0.60000 -7.86784
v 3.40640 0.00000 -7.45898
v 3.40640 0.60000 -7.45898
v 4.43325 0.00000 -6.89828
v 4.43325 0.60000 -6.89828
v 5.36986 0.00000 -6.19715
v 5.36986 0.60000 -6.19715
v 6.19715 0.00000 -5.36986
v 6.19715 0.60000 -5.36986
v 6.89828 0.00000 -4.43325
v 6.89828 0.60000 -4.43325
v 7.45898 0.00000 -3.40640
v 7.45898 0.60000 -3.40640
v 7.86784 0.00000 -2.31021
v 7.86784 0.60000 -2.31021
v 8.11654 0.00000 -1.16698
v 8.11654 0.60000 -1.16698
v 0.00000 0.00000 0.00000
v 0.00000 0.60000 0.00000
v 8.25000 0.00000 0.00000
v 8.25000 0.45000 0.00000
v 8.16603 0.00000 1.17410
v 8.16603 0.45000 1.17410
v 7.91582 0.00000 2.32429
v 7.91582 0.45000 2.32429
v 7.50446 0.00000 3.42717
v 7.50446 0.45000 3.42717
v 6.94034 0.00000 4.46029
v 6.94034 0.45000 4.46029
v 6.23493 0.00000 5.40260
v 6.23493 0.45000 5.40260
v 5.40260 0.00000 6.23493
v 5.40260 0.45000 6.23493
v 4.46029 0.00000 6.94034
v 4.46029 0.45000 6.94034
v 3.42717 0.00000 7.50446
v 3.42717 0.45000 7.50446
v 2.32429 0.00000 7.91582
v 2.32429 0.45000 7.91582
v 1.17410 0.00000 8.16603
v 1.17410 0.45000 8.16603
v 0.00000 0.00000 8.25000
v 0.00000 0.45000 8.25000
v -1.17410 0.00000 8.16603
v -1.17410 0.45000 8.16603
v -2.32429 0.00000 7.91582
v -2.32429 0.45000 7.91582
v -3.42717 0.00000 7.50446
v -3.42717 0.45000 7.50446
v -4.46029 0.00000 6.94034
v -4.46029 0.45000 6.94034
v -5.40260 0.00000 6.23493
v -5.40260 0.45000 6.23493
v -6.23493 0.00000 5.40260
v -6.23493 0.45000 5.40260
v -6.94034 0.00000 4.46029
v -6.94034 0.45000 4.46029
v -7.50446 0.00000 3.42717
v -7.50446 0.45000 3.42717
v -7.91582 0.00000 2.32429
v -7.91582 0.45000 2.32429
v -8.16603 0.00000 1.17410
v -8.16603 0.45000 1.17410
v -8.25000 0.00000 0.00000
v -8.25000 0.45000 0.00000
v -8.16603 0.00000 -1.17410
v -8.16603 0.45000 -1.17410
v -7.91582 0.00000 -2.32429
v -7.91582 0.45000 -2.32429
v -7.50446 0.00000 -3.42717
v -7.50446 0.45000 -3.42717
v -6.94034 0.00000 -4.46029
v -6.94034 0.45000 -4.46029
v -6.23493 0.00000 -5.40260
v -6.23493 0.45000 -5.40260
v -5.40260 0.00000 -6.23493
v -5.40260 0.45000 -6.23493
v -4.46029 0.00000 -6.94034
v -4.46029 0.45000 -6.94034
v -3.42717 0.00000 -7.50446
v -3.42717 0.45000 -7.50446
v -2.32429 0.00000 -7.91582
v -2.32429 0.45000 -7.91582
v -1.17410 0.00000 -8.16603
v -1.17410 0.45000 -8.16603
v -0.00000 0.00000 -8.25000
v -0.00000 0.45000 -8.25000
v 1.17410 0.00000 -8.16603
v 1.17410 0.45000 -8.16603
v 2.32429 0.00000 -7.91582
v 2.32429 0.45000 -7.91582
v 3.42717 0.00000 -7.50446
v 3.42717 0.45000 -7.50446
v 4.46029 0.00000 -6.94034
v 4.46029 0.45000 -6.94034
v 5.40260 0.00000 -6.23493
v 5.40260 0.45000 -6.23493
v 6.23493 0.00000 -5.40260
v 6.23493 0.45000 -5.40260
v 6.94034 0.00000 -4.46029
v 6.94034 0.45000 -4.46029
v 7.50446 0.00000 -3.42717
v 7.50446 0.45000 -3.42717
v 7.91582 0.00000 -2.32429
v 7.91582 0.45000 -2.32429
v 8.16603 0.00000 -1.17410
v 8.16603 0.45000 -1.17410
v 0.00000 0.00000 0.00000
v 0.00000 0.45000 0.00000
v 8.14000 0.62000 0.00000
v 8.07000 0.74124 0.00000
v 7.93000 0.74124 0.00000
v 7.86000 0.62000 0.00000
v 7.93000 0.49876 0.00000
v 8.07000 0.49876 0.00000
v 8.05715 0.62000 1.15844
v 7.98786 0.74124 1.14848
v 7.84928 0.74124 1.12856
v 7.78000 0.62000 1.11859
v 7.84928 0.49876 1.12856
v 7.98786 0.49876 1.14848
v 7.81027 0.62000 2.29330
v 7.74311 0.74124 2.27358
v 7.60878 0.74124 2.23414
v 7.54161 0.62000 2.21442
v 7.60878 0.49876 2.23414
v 7.74311 0.49876 2.27358
v 7.40440 0.62000 3.38148
v 7.34073 0.74124 3.35240
v 7.21338 0.74124 3.29424
v 7.14971 0.62000 3.26516
v 7.21338 0.49876 3.29424
v 7.34073 0.49876 3.35240
v 6.84780 0.62000 4.40082
v 6.78892 0.74124 4.36297
v 6.67114 0.74124 4.28728
v 6.61225 0.62000 4.24944
v 6.67114 0.49876 4.28728
v 6.78892 0.49876 4.36297
v 6.15180 0.62000 5.33057
v 6.09890 0.74124 5.28473
v 5.99309 0.74124 5.19305
v 5.94019 0.62000 5.14721
v 5.99309 0.49876 5.19305
v 6.09890 0.49876 5.28473
v 5.33057 0.62000 6.15180
v 5.28473 0.74124 6.09890
v 5.19305 0.74124 5.99309
v 5.14721 0.62000 5.94019
v 5.19305 0.49876 5.99309
v 5.28473 0.49876 6.09890
v 4.40082 0.62000 6.84780
v 4.36297 0.74124 6.78892
v 4.28728 0.74124 6.67114
v 4.24944 0.62000 6.61225
v 4.28728 0.49876 6.67114
v 4.36297 0.49876 6.78892
v 3.38148 0.62000 7.40440
v 3.35240 0.74124 7.34073
v 3.29424 0.74124 7.21338
v 3.26516 0.62000 7.14971
v 3.29424 0.49876 7.21338
v 3.35240 0.49876 7.34073
v 2.29330 0.62000 7.81027
v 2.27358 0.74124 7.74311
v 2.23414 0.74124 7.60878
v 2.21442 0.62000 7.54161
v 2.23414 0.49876 7.60878
v 2.27358 0.49876 7.74311
v 1.15844 0.62000 8.05715
v 1.14848 0.74124 7.98786
v 1.12856 0.74124 7.84928
v 1.11859 0.62000 7.78000
v 1.12856 0.49876 7.84928
v 1.14848 0.49876 7.98786
v 0.00000 0.62000 8.14000
v 0.00000 0.74124 8.07000
v 0.00000 0.74124 7.93000
v 0.00000 0.62000 7.86000
v 0.00000 0.49876 7.93000
v 0.00000 0.49876 8.07000
v -1.15844 0.62000 8.05715
v -1.14848 0.74124 7.98786
v -1.12856 0.74124 7.84928
v -1.11859 0.62000 7.78000
v -1.12856 0.49876 7.84928
v -1.14848 0.49876 7.98786
v -2.29330 0.62000 7.81027
v -2.27358 0.74124 7.74311
v -2.23414 0.74124 7.60878
v -2.21442 0.62000 7.54161
v -2.23414 0.49876 7.60878
v -2.27358 0.49876 7.74311
v -3.38148 0.62000 7.40440
v -3.35240 0.74124 7.34073
v -3.29424 0.74124 7.21338
v -3.26516 0.62000 7.14971
v -3.29424 0.49876 7.21338
v -3.35240 0.49876 7.34073
v -4.40082 0.62000 6.84780
v -4.36297 0.74124 6.78892
v -4.28728 0.74124 6.67114
v -4.24944 0.62000 6.61225
v -4.28728 0.49876 6.67114
v -4.36297 0.49876 6.78892
v -5.33057 0.62000 6.15180
v -5.28473 0.74124 6.09890
v -5.19305 0.74124 5.99309
v -5.14721 0.62000 5.94019
v -5.19305 0.49876 5.99309
v -5.28473 0.49876 6.09890
v -6.15180 0.62000 5.33057
v -6.09890 0.74124 5.28473
v -5.99309 0.74124 5.19305
v -5.94019 0.62000 5.14721
v -5.99309 0.49876 5.19305
v -6.09890 0.49876 5.28473
v -6.84780 0.62000 4.40082
v -6.78892 0.74124 4.36297
v -6.67114 0.74124 4.28728
v -6.61225 0.62000 4.24944
v -6.67114 0.49876 4.28728
v -6.78892 0.49876 4.36297
v -7.40440 0.62000 3.38148
v -7.34073 0.74124 3.35240
v -7.21338 0.74124 3.29424
v -7.14971 0.62000 3.26516
v -7.21338 0.49876 3.29424
v -7.34073 0.49876 3.35240
v -7.81027 0.62000 2.29330
v -7.74311 0.74124 2.27358
v -7.60878 0.74124 2.23414
v -7.54161 0.62000 2.21442
v -7.60878 0.49876 2.23414
v -7.74311 0.49876 2.27358
v -8.05715 0.62000 1.15844
v -7.98786 0.74124 1.14848
v -7.84928 0.74124 1.12856
v -7.78000 0.62000 1.11859
v -7.84928 0.49876 1.12856
v -7.98786 0.49876 1.14848
v -8.14000 0.62000 0.00000
v -8.07000 0.74124 0.00000
v -7.93000 0.74124 0.00000
v -7.86000 0.62000 0.00000
v -7.93000 0.49876 0.00000
v -8.07000 0.49876 0.00000
v -8.05715 0.62000 -1.15844
v -7.98786 0.74124 -1.14848
v -7.84928 0.74124 -1.12856
v -7.78000 0.62000 -1.11859
v -7.84928 0.49876 -1.12856
v -7.98786 0.49876 -1.14848
v -7.81027 0.62000 -2.29330
v -7.74311 0.74124 -2.27358
v -7.60878 0.74124 -2.23414
v -7.54161 0.62000 -2.21442
v -7.60878 0.49876 -2.23414
v -7.74311 0.49876 -2.27358
v -7.40440 0.62000 -3.38148
v -7.34073 0.74124 -3.35240
v -7.21338 0.74124 -3.29424
v -7.14971 0.62000 -3.26516
v -7.21338 0.49876 -3.29424
v -7.34073 0.49876 -3.35240
v -6.84780 0.62000 -4.40082
v -6.78892 0.74124 -4.36297
v -6.67114 0.74124 -4.28728
v -6.61225 0.62000 -4.24944
v -6.67114 0.49876 -4.28728
v -6.78892 0.49876 -4.36297
v -6.15180 0.62000 -5.33057
v -6.09890 0.74124 -5.28473
v -5.99309 0.74124 -5.19305
v -5.94019 0.62000 -5.14721
v -5.99309 0.49876 -5.19305
v -6.09890 0.49876 -5.28473
v -5.33057 0.62000 -6.15180
v -5.28473 0.74124 -6.09890
v -5.19305 0.74124 -5.99309
v -5.14721 0.62000 -5.94019
v -5.19305 0.49876 -5.99309
v -5.28473 0.49876 -6.09890
v -4.40082 0.62000 -6.84780
v -4.36297 0.74124 -6.78892
v -4.28728 0.74124 -6.67114
v -4.24944 0.62000 -6.61225
v -4.28728 0.49876 -6.67114
v -4.36297 0.49876 -6.78892
v -3.38148 0.62000 -7.40440
v -3.35240 0.74124 -7.34073
v -3.29424 0.74124 -7.21338
v -3.26516 0.62000 -7.14971
v -3.29424 0.49876 -7.21338
v -3.35240 0.49876 -7.34073
v -2.29330 0.62000 -7.81027
v -2.27358 0.74124 -7.74311
v -2.23414 0.74124 -7.60878
v -2.21442 0.62000 -7.54161
v -2.23414 0.49876 -7.60878
v -2.27358 0.49876 -7.74311
v -1.15844 0.62000 -8.05715
v -1.14848 0.74124 -7.98786
v -1.12856 0.74124 -7.84928
v -1.11859 0.62000 -7.78000
v -1.12856 0.49876 -7.84928
v -1.14848 0.49876 -7.98786
v -0.00000 0.62000 -8.14000
v -0.00000 0.74124 -8.07000
v -0.00000 0.74124 -7.93000
v -0.00000 0.62000 -7.86000
v -0.00000 0.49876 -7.93000
v -0.00000 0.49876 -8.07000
v 1.15844 0.62000 -8.05715
v 1.14848 0.74124 -7.98786
v 1.12856 0.74124 -7.84928
v 1.11859 0.62000 -7.78000
v 1.12856 0.49876 -7.84928
v 1.14848 0.49876 -7.98786
v 2.29330 0.62000 -7.81027
v 2.27358 0.74124 -7.74311
v 2.23414 0.74124 -7.60878
v 2.21442 0.62000 -7.54161
v 2.23414 0.49876 -7.60878
v 2.27358 0.49876 -7.74311
v 3.38148 0.62000 -7.40440
v 3.35240 0.74124 -7.34073
v 3.29424 0.74124 -7.21338
v 3.26516 0.62000 -7.14971
v 3.29424 0.49876 -7.21338
v 3.35240 0.49876 -7.34073
v 4.40082 0.62000 -6.84780
v 4.36297 0.74124 -6.78892
v 4.28728 0.74124 -6.67114
v 4.24944 0.62000 -6.61225
v 4.28728 0.49876 -6.67114
v 4.36297 0.49876 -6.78892
v 5.33057 0.62000 -6.15180
v 5.28473 0.74124 -6.09890
v 5.19305 0.74124 -5.99309
v 5.14721 0.62000 -5.94019
v 5.19305 0.49876 -5.99309
v 5.28473 0.49876 -6.09890
v 6.15180 0.62000 -5.33057
v 6.09890 0.74124 -5.28473
v 5.99309 0.74124 -5.19305
v 5.94019 0.62000 -5.14721
v 5.99309 0.49876 -5.19305
v 6.09890 0.49876 -5.28473
v 6.84780 0.62000 -4.40082
v 6.78892 0.74124 -4.36297
v 6.67114 0.74124 -4.28728
v 6.61225 0.62000 -4.24944
v 6.67114 0.49876 -4.28728
v 6.78892 0.49876 -4.36297
v 7.40440 0.62000 -3.38148
v 7.34073 0.74124 -3.35240
v 7.21338 0.74124 -3.29424
v 7.14971 0.62000 -3.26516
v 7.21338 0.49876 -3.29424
v 7.34073 0.49876 -3.35240
v 7.81027 0.62000 -2.29330
v 7.74311 0.74124 -2.27358
v 7.60878 0.74124 -2.23414
v 7.54161 0.62000 -2.21442
v 7.60878 0.49876 -2.23414
v 7.74311 0.49876 -2.27358
v 8.05715 0.62000 -1.15844
v 7.98786 0.74124 -1.14848
v 7.84928 0.74124 -1.12856
v 7.78000 0.62000 -1.11859
v 7.84928 0.49876 -1.12856
v 7.98786 0.49876 -1.14848
v 0.00000 0.64000 0.06000
v 0.00000 0.58000 0.00000
v 0.00000 0.64000 -0.06000
v 0.00000 0.70000 -0.00000
v 7.60000 0.64000 0.06000
v 7.60000 0.58000 0.00000
v 7.60000 0.64000 -0.06000
v 7.60000 0.70000 -0.00000
v 0.00000 0.64000 0.00000
v 7.60000 0.64000 0.00000
v -0.03000 0.64000 0.05196
v -0.00000 0.58000 0.00000
v 0.03000 0.64000 -0.05196
v 0.00000 0.70000 -0.00000
v 6.55179 0.64000 3.85196
v 6.58179 0.58000 3.80000
v 6.61179 0.64000 3.74804
v 6.58179 0.70000 3.80000
v 0.00000 0.64000 0.00000
v 6.58179 0.64000 3.80000
v -0.05196 0.64000 0.03000
v -0.00000 0.58000 0.00000
v 0.05196 0.64000 -0.03000
v 0.00000 0.70000 -0.00000
v 3.74804 0.64000 6.61179
v 3.80000 0.58000 6.58179
v 3.85196 0.64000 6.55179
v 3.80000 0.70000 6.58179
v 0.00000 0.64000 0.00000
v 3.80000 0.64000 6.58179
v -0.06000 0.64000 0.00000
v -0.00000 0.58000 0.00000
v 0.06000 0.64000 -0.00000
v 0.00000 0.70000 -0.00000
v -0.06000 0.64000 7.60000
v 0.00000 0.58000 7.60000
v 0.06000 0.64000 7.60000
v 0.00000 0.70000 7.60000
v 0.00000 0.64000 0.00000
v 0.00000 0.64000 7.60000
v -0.05196 0.64000 -0.03000
v -0.00000 0.58000 -0.00000
v 0.05196 0.64000 0.03000
v 0.00000 0.70000 0.00000
v -3.85196 0.64000 6.55179
v -3.80000 0.58000 6.58179
v -3.74804 0.64000 6.61179
v -3.80000 0.70000 6.58179
v 0.00000 0.64000 0.00000
v -3.80000 0.64000 6.58179
v -0.03000 0.64000 -0.05196
v -0.00000 0.58000 -0.00000
v 0.03000 0.64000 0.05196
v 0.00000 0.70000 0.00000
v -6.61179 0.64000 3.74804
v -6.58179 0.58000 3.80000
v -6.55179 0.64000 3.85196
v -6.58179 0.70000 3.80000
v 0.00000 0.64000 0.00000
v -6.58179 0.64000 3.80000
v -0.00000 0.64000 -0.06000
v -0.00000 0.58000 -0.00000
v 0.00000 0.64000 0.06000
v 0.00000 0.70000 0.00000
v -7.60000 0.64000 -0.06000
v -7.60000 0.58000 0.00000
v -7.60000 0.64000 0.06000
v -7.60000 0.70000 0.00000
v 0.00000 0.64000 0.00000
v -7.60000 0.64000 0.00000
v 0.03000 0.64000 -0.05196
v 0.00000 0.58000 -0.00000
v -0.03000 0.64000 0.05196
v -0.00000 0.70000 0.00000
v -6.55179 0.64000 -3.85196
v -6.58179 0.58000 -3.80000
v -6.61179 0.64000 -3.74804
v -6.58179 0.70000 -3.80000
v 0.00000 0.64000 0.00000
v -6.58179 0.64000 -3.80000
v 0.05196 0.64000 -0.03000
v 0.00000 0.58000 -0.00000
v -0.05196 0.64000 0.03000
v -0.00000 0.70000 0.00000
v -3.74804 0.64000 -6.61179
v -3.80000 0.58000 -6.58179
v -3.85196 0.64000 -6.55179
v -3.80000 0.70000 -6.58179
v 0.00000 0.64000 0.00000
v -3.80000 0.64000 -6.58179
v 0.06000 0.64000 -0.00000
v 0.00000 0.58000 -0.00000
v -0.06000 0.64000 0.00000
v -0.00000 0.70000 0.00000
v 0.06000 0.64000 -7.60000
v -0.00000 0.58000 -7.60000
v -0.06000 0.64000 -7.60000
v -0.00000 0.70000 -7.60000
v 0.00000 0.64000 0.00000
v -0.00000 0.64000 -7.60000
v 0.05196 0.64000 0.03000
v 0.00000 0.58000 0.00000
v -0.05196 0.64000 -0.03000
v -0.00000 0.70000 -0.00000
v 3.85196 0.64000 -6.55179
v 3.80000 0.58000 -6.58179
v 3.74804 0.64000 -6.61179
v 3.80000 0.70000 -6.58179
v 0.00000 0.64000 0.00000
v 3.80000 0.64000 -6.58179
v 0.03000 0.64000 0.05196
v 0.00000 0.58000 0.00000
v -0.03000 0.64000 -0.05196
v -0.00000 0.70000 -0.00000
v 6.61179 0.64000 -3.74804
v 6.58179 0.58000 -3.80000
v 6.55179 0.64000 -3.85196
v 6.58179 0.70000 -3.80000
v 0.00000 0.64000 0.00000
v 6.58179 0.64000 -3.80000
v -0.95000 0.60000 -0.95000
v 0.95000 0.60000 -0.95000
v 0.95000 2.00000 -0.95000
v -0.95000 2.00000 -0.95000
v -0.95000 0.60000 0.95000
v 0.95000 0.60000 0.95000
v 0.95000 2.00000 0.95000
v -0.95000 2.00000 0.95000
v -0.60000 1.05000 0.89000
v 0.60000 1.05000 0.89000
v 0.60000 1.55000 0.89000
v -0.60000 1.55000 0.89000
v -0.60000 1.05000 1.01000
v 0.60000 1.05000 1.01000
v 0.60000 1.55000 1.01000
v -0.60000 1.55000 1.01000
v -0.87500 2.10000 -0.87500
v 0.87500 2.10000 -0.87500
v 0.87500 3.50000 -0.87500
v -0.87500 3.50000 -0.87500
v -0.87500 2.10000 0.87500
v 0.87500 2.10000 0.87500
v 0.87500 3.50000 0.87500
v -0.87500 3.50000 0.87500
v -0.60000 2.55000 0.82000
v 0.60000 2.55000 0.82000
v 0.60000 3.05000 0.82000
v -0.60000 3.05000 0.82000
v -0.60000 2.55000 0.94000
v 0.60000 2.55000 0.94000
v 0.60000 3.05000 0.94000
v -0.60000 3.05000 0.94000
v -0.80000 3.60000 -0.80000
v 0.80000 3.60000 -0.80000
v 0.80000 5.00000 -0.80000
v -0.80000 5.00000 -0.80000
v -0.80000 3.60000 0.80000
v 0.80000 3.60000 0.80000
v 0.80000 5.00000 0.80000
v -0.80000 5.00000 0.80000
v -0.60000 4.05000 0.75000
v 0.60000 4.05000 0.75000
v 0.60000 4.55000 0.75000
v -0.60000 4.55000 0.75000
v -0.60000 4.05000 0.87000
v 0.60000 4.05000 0.87000
v 0.60000 4.55000 0.87000
v -0.60000 4.55000 0.87000
v -0.72500 5.10000 -0.72500
v 0.72500 5.10000 -0.72500
v 0.72500 6.50000 -0.72500
v -0.72500 6.50000 -0.72500
v -0.72500 5.10000 0.72500
v 0.72500 5.10000 0.72500
v 0.72500 6.50000 0.72500
v -0.72500 6.50000 0.72500
v -0.60000 5.55000 0.68000
v 0.60000 5.55000 0.68000
v 0.60000 6.05000 0.68000
v -0.60000 6.05000 0.68000
v -0.60000 5.55000 0.80000
v 0.60000 5.55000 0.80000
v 0.60000 6.05000 0.80000
v -0.60000 6.05000 0.80000
v -2.10000 7.02500 -0.25000
v 2.10000 7.02500 -0.25000
v 2.10000 7.37500 -0.25000
v -2.10000 7.37500 -0.25000
v -2.10000 7.02500 0.25000
v 2.10000 7.02500 0.25000
v 2.10000 7.37500 0.25000
v -2.10000 7.37500 0.25000
v 0.41145 7.33369 0.00000
v 0.29094 7.33369 0.29094
v 0.00000 7.33369 0.41145
v -0.29094 7.33369 0.29094
v -0.41145 7.33369 0.00000
v -0.29094 7.33369 -0.29094
v -0.00000 7.33369 -0.41145
v 0.29094 7.33369 -0.29094
v 0.66574 7.68369 0.00000
v 0.47075 7.68369 0.47075
v 0.00000 7.68369 0.66574
v -0.47075 7.68369 0.47075
v -0.66574 7.68369 0.00000
v -0.47075 7.68369 -0.47075
v -0.00000 7.68369 -0.66574
v 0.47075 7.68369 -0.47075
v 0.66574 8.11631 0.00000
v 0.47075 8.11631 0.47075
v 0.00000 8.11631 0.66574
v -0.47075 8.11631 0.47075
v -0.66574 8.11631 0.00000
v -0.47075 8.11631 -0.47075
v -0.00000 8.11631 -0.66574
v 0.47075 8.11631 -0.47075
v 0.41145 8.46631 0.00000
v 0.29094 8.46631 0.29094
v 0.00000 8.46631 0.41145
v -0.29094 8.46631 0.29094
v -0.41145 8.46631 0.00000
v -0.29094 8.46631 -0.29094
v -0.00000 8.46631 -0.41145
v 0.29094 8.46631 -0.29094
v 0.00000 7.20000 0.00000
v 0.00000 8.60000 0.00000
v 0.00000 0.90000 0.16000
v 0.00000 0.78686 0.11314
v 0.00000 0.74000 0.00000
v 0.00000 0.78686 -0.11314
v 0.00000 0.90000 -0.16000
v 0.00000 1.01314 -0.11314
v 0.00000 1.06000 -0.00000
v 0.00000 1.01314 0.11314
v 5.40000 0.90000 0.16000
v 5.40000 0.78686 0.11314
v 5.40000 0.74000 0.00000
v 5.40000 0.78686 -0.11314
v 5.40000 0.90000 -0.16000
v 5.40000 1.01314 -0.11314
v 5.40000 1.06000 -0.00000
v 5.40000 1.01314 0.11314
v 0.00000 0.90000 0.00000
v 5.40000 0.90000 0.00000
v 6.80000 0.60000 0.00000
v 6.80000 0.90000 0.00000
v 6.75230 0.60000 0.36235
v 6.75230 0.90000 0.36235
v 6.61244 0.60000 0.70000
v 6.61244 0.90000 0.70000
v 6.38995 0.60000 0.98995
v 6.38995 0.90000 0.98995
v 6.10000 0.60000 1.21244
v 6.10000 0.90000 1.21244
v 5.76235 0.60000 1.35230
v 5.76235 0.90000 1.35230
v 5.40000 0.60000 1.40000
v 5.40000 0.90000 1.40000
v 5.03765 0.60000 1.35230
v 5.03765 0.90000 1.35230
v 4.70000 0.60000 1.21244
v 4.70000 0.90000 1.21244
v 4.41005 0.60000 0.98995
v 4.41005 0.90000 0.98995
v 4.18756 0.60000 0.70000
v 4.18756 0.90000 0.70000
v 4.04770 0.60000 0.36235
v 4.04770 0.90000 0.36235
v 4.00000 0.60000 0.00000
v 4.00000 0.90000 0.00000
v 4.04770 0.60000 -0.36235
v 4.04770 0.90000 -0.36235
v 4.18756 0.60000 -0.70000
v 4.18756 0.90000 -0.70000
v 4.41005 0.60000 -0.98995
v 4.41005 0.90000 -0.98995
v 4.70000 0.60000 -1.21244
v 4.70000 0.90000 -1.21244
v 5.03765 0.60000 -1.35230
v 5.03765 0.90000 -1.35230
v 5.40000 0.60000 -1.40000
v 5.40000 0.90000 -1.40000
v 5.76235 0.60000 -1.35230
v 5.76235 0.90000 -1.35230
v 6.10000 0.60000 -1.21244
v 6.10000 0.90000 -1.21244
v 6.38995 0.60000 -0.98995
v 6.38995 0.90000 -0.98995
v 6.61244 0.60000 -0.70000
v 6.61244 0.90000 -0.70000
v 6.75230 0.60000 -0.36235
v 6.75230 0.90000 -0.36235
v 5.40000 0.60000 0.00000
v 5.40000 0.90000 0.00000
v 7.83000 0.60000 -0.08000
v 7.75392 0.60000 -0.02472
v 7.78298 0.60000 0.06472
v 7.87702 0.60000 0.06472
v 7.90608 0.60000 -0.02472
v 7.83000 2.40000 -0.08000
v 7.75392 2.40000 -0.02472
v 7.78298 2.40000 0.06472
v 7.87702 2.40000 0.06472
v 7.90608 2.40000 -0.02472
v 7.83000 0.60000 0.00000
v 7.83000 2.40000 0.00000
v 7.97142 2.38787 0.00000
v 7.90071 2.38787 0.12247
v 7.75929 2.38787 0.12247
v 7.68858 2.38787 0.00000
v 7.75929 2.38787 -0.12247
v 7.90071 2.38787 -0.12247
v 8.03000 2.60000 0.00000
v 7.93000 2.60000 0.17321
v 7.73000 2.60000 0.17321
v 7.63000 2.60000 0.00000
v 7.73000 2.60000 -0.17321
v 7.93000 2.60000 -0.17321
v 7.97142 2.81213 0.00000
v 7.90071 2.81213 0.12247
v 7.75929 2.81213 0.12247
v 7.68858 2.81213 0.00000
v 7.75929 2.81213 -0.12247
v 7.90071 2.81213 -0.12247
v 7.83000 2.30000 0.00000
v 7.83000 2.90000 0.00000
v -0.13856 0.90000 0.08000
v -0.09798 0.78686 0.05657
v -0.00000 0.74000 0.00000
v 0.09798 0.78686 -0.05657
v 0.13856 0.90000 -0.08000
v 0.09798 1.01314 -0.05657
v 0.00000 1.06000 -0.00000
v -0.09798 1.01314 0.05657
v 2.56144 0.90000 4.75654
v 2.60202 0.78686 4.73311
v 2.70000 0.74000 4.67654
v 2.79798 0.78686 4.61997
v 2.83856 0.90000 4.59654
v 2.79798 1.01314 4.61997
v 2.70000 1.06000 4.67654
v 2.60202 1.01314 4.73311
v 0.00000 0.90000 0.00000
v 2.70000 0.90000 4.67654
v 4.10000 0.60000 4.67654
v 4.10000 0.90000 4.67654
v 4.05230 0.60000 5.03888
v 4.05230 0.90000 5.03888
v 3.91244 0.60000 5.37654
v 3.91244 0.90000 5.37654
v 3.68995 0.60000 5.66649
v 3.68995 0.90000 5.66649
v 3.40000 0.60000 5.88897
v 3.40000 0.90000 5.88897
v 3.06235 0.60000 6.02883
v 3.06235 0.90000 6.02883
v 2.70000 0.60000 6.07654
v 2.70000 0.90000 6.07654
v 2.33765 0.60000 6.02883
v 2.33765 0.90000 6.02883
v 2.00000 0.60000 5.88897
v 2.00000 0.90000 5.88897
v 1.71005 0.60000 5.66649
v 1.71005 0.90000 5.66649
v 1.48756 0.60000 5.37654
v 1.48756 0.90000 5.37654
v 1.34770 0.60000 5.03888
v 1.34770 0.90000 5.03888
v 1.30000 0.60000 4.67654
v 1.30000 0.90000 4.67654
v 1.34770 0.60000 4.31419
v 1.34770 0.90000 4.31419
v 1.48756 0.60000 3.97654
v 1.48756 0.90000 3.97654
v 1.71005 0.60000 3.68659
v 1.71005 0.90000 3.68659
v 2.00000 0.60000 3.46410
v 2.00000 0.90000 3.46410
v 2.33765 0.60000 3.32424
v 2.33765 0.90000 3.32424
v 2.70000 0.60000 3.27654
v 2.70000 0.90000 3.27654
v 3.06235 0.60000 3.32424
v 3.06235 0.90000 3.32424
v 3.40000 0.60000 3.46410
v 3.40000 0.90000 3.46410
v 3.68995 0.60000 3.68659
v 3.68995 0.90000 3.68659
v 3.91244 0.60000 3.97654
v 3.91244 0.90000 3.97654
v 4.05230 0.60000 4.31419
v 4.05230 0.90000 4.31419
v 2.70000 0.60000 4.67654
v 2.70000 0.90000 4.67654
v 3.91500 0.60000 6.70098
v 3.83892 0.60000 6.75626
v 3.86798 0.60000 6.84570
v 3.96202 0.60000 6.84570
v 3.99108 0.60000 6.75626
v 3.91500 2.40000 6.70098
v 3.83892 2.40000 6.75626
v 3.86798 2.40000 6.84570
v 3.96202 2.40000 6.84570
v 3.99108 2.40000 6.75626
v 3.91500 0.60000 6.78098
v 3.91500 2.40000 6.78098
v 4.05642 2.38787 6.78098
v 3.98571 2.38787 6.90345
v 3.84429 2.38787 6.90345
v 3.77358 2.38787 6.78098
v 3.84429 2.38787 6.65850
v 3.98571 2.38787 6.65850
v 4.11500 2.60000 6.78098
v 4.01500 2.60000 6.95418
v 3.81500 2.60000 6.95418
v 3.71500 2.60000 6.78098
v 3.81500 2.60000 6.60777
v 4.01500 2.60000 6.60777
v 4.05642 2.81213 6.78098
v 3.98571 2.81213 6.90345
v 3.84429 2.81213 6.90345
v 3.77358 2.81213 6.78098
v 3.84429 2.81213 6.65850
v 3.98571 2.81213 6.65850
v 3.91500 2.30000 6.78098
v 3.91500 2.90000 6.78098
v -0.13856 0.90000 -0.08000
v -0.09798 0.78686 -0.05657
v -0.00000 0.74000 -0.00000
v 0.09798 0.78686 0.05657
v 0.13856 0.90000 0.08000
v 0.09798 1.01314 0.05657
v 0.00000 1.06000 0.00000
v -0.09798 1.01314 -0.05657
v -2.83856 0.90000 4.59654
v -2.79798 0.78686 4.61997
v -2.70000 0.74000 4.67654
v -2.60202 0.78686 4.73311
v -2.56144 0.90000 4.75654
v -2.60202 1.01314 4.73311
v -2.70000 1.06000 4.67654
v -2.79798 1.01314 4.61997
v 0.00000 0.90000 0.00000
v -2.70000 0.90000 4.67654
v -1.30000 0.60000 4.67654
v -1.30000 0.90000 4.67654
v -1.34770 0.60000 5.03888
v -1.34770 0.90000 5.03888
v -1.48756 0.60000 5.37654
v -1.48756 0.90000 5.37654
v -1.71005 0.60000 5.66649
v -1.71005 0.90000 5.66649
v -2.00000 0.60000 5.88897
v -2.00000 0.90000 5.88897
v -2.33765 0.60000 6.02883
v -2.33765 0.90000 6.02883
v -2.70000 0.60000 6.07654
v -2.70000 0.90000 6.07654
v -3.06235 0.60000 6.02883
v -3.06235 0.90000 6.02883
v -3.40000 0.60000 5.88897
v -3.40000 0.90000 5.88897
v -3.68995 0.60000 5.66649
v -3.68995 0.90000 5.66649
v -3.91244 0.60000 5.37654
v -3.91244 0.90000 5.37654
v -4.05230 0.60000 5.03888
v -4.05230 0.90000 5.03888
v -4.10000 0.60000 4.67654
v -4.10000 0.90000 4.67654
v -4.05230 0.60000 4.31419
v -4.05230 0.90000 4.31419
v -3.91244 0.60000 3.97654
v -3.91244 0.90000 3.97654
v -3.68995 0.60000 3.68659
v -3.68995 0.90000 3.68659
v -3.40000 0.60000 3.46410
v -3.40000 0.90000 3.46410
v -3.06235 0.60000 3.32424
v -3.06235 0.90000 3.32424
v -2.70000 0.60000 3.27654
v -2.70000 0.90000 3.27654
v -2.33765 0.60000 3.32424
v -2.33765 0.90000 3.32424
v -2.00000 0.60000 3.46410
v -2.00000 0.90000 3.46410
v -1.71005 0.60000 3.68659
v -1.71005 0.90000 3.68659
v -1.48756 0.60000 3.97654
v -1.48756 0.90000 3.97654
v -1.34770 0.60000 4.31419
v -1.34770 0.90000 4.31419
v -2.70000 0.60000 4.67654
v -2.70000 0.90000 4.67654
v -3.91500 0.60000 6.70098
v -3.99108 0.60000 6.75626
v -3.96202 0.60000 6.84570
v -3.86798 0.60000 6.84570
v -3.83892 0.60000 6.75626
v -3.91500 2.40000 6.70098
v -3.99108 2.40000 6.75626
v -3.96202 2.40000 6.84570
v -3.86798 2.40000 6.84570
v -3.83892 2.40000 6.75626
v -3.91500 0.60000 6.78098
v -3.91500 2.40000 6.78098
v -3.77358 2.38787 6.78098
v -3.84429 2.38787 6.90345
v -3.98571 2.38787 6.90345
v -4.05642 2.38787 6.78098
v -3.98571 2.38787 6.65850
v -3.84429 2.38787 6.65850
v -3.71500 2.60000 6.78098
v -3.81500 2.60000 6.95418
v -4.01500 2.60000 6.95418
v -4.11500 2.60000 6.78098
v -4.01500 2.60000 6.60777
v -3.81500 2.60000 6.60777
v -3.77358 2.81213 6.78098
v -3.84429 2.81213 6.90345
v -3.98571 2.81213 6.90345
v -4.05642 2.81213 6.78098
v -3.98571 2.81213 6.65850
v -3.84429 2.81213 6.65850
v -3.91500 2.30000 6.78098
v -3.91500 2.90000 6.78098
v -0.00000 0.90000 -0.16000
v -0.00000 0.78686 -0.11314
v -0.00000 0.74000 -0.00000
v 0.00000 0.78686 0.11314
v 0.00000 0.90000 0.16000
v 0.00000 1.01314 0.11314
v 0.00000 1.06000 0.00000
v -0.00000 1.01314 -0.11314
v -5.40000 0.90000 -0.16000
v -5.40000 0.78686 -0.11314
v -5.40000 0.74000 0.00000
v -5.40000 0.78686 0.11314
v -5.40000 0.90000 0.16000
v -5.40000 1.01314 0.11314
v -5.40000 1.06000 0.00000
v -5.40000 1.01314 -0.11314
v 0.00000 0.90000 0.00000
v -5.40000 0.90000 0.00000
v -4.00000 0.60000 0.00000
v -4.00000 0.90000 0.00000
v -4.04770 0.60000 0.36235
v -4.04770 0.90000 0.36235
v -4.18756 0.60000 0.70000
v -4.18756 0.90000 0.70000
v -4.41005 0.60000 0.98995
v -4.41005 0.90000 0.98995
v -4.70000 0.60000 1.21244
v -4.70000 0.90000 1.21244
v -5.03765 0.60000 1.35230
v -5.03765 0.90000 1.35230
v -5.40000 0.60000 1.40000
v -5.40000 0.90000 1.40000
v -5.76235 0.60000 1.35230
v -5.76235 0.90000 1.35230
v -6.10000 0.60000 1.21244
v -6.10000 0.90000 1.21244
v -6.38995 0.60000 0.98995
v -6.38995 0.90000 0.98995
v -6.61244 0.60000 0.70000
v -6.61244 0.90000 0.70000
v -6.75230 0.60000 0.36235
v -6.75230 0.90000 0.36235
v -6.80000 0.60000 0.00000
v -6.80000 0.90000 0.00000
v -6.75230 0.60000 -0.36235
v -6.75230 0.90000 -0.36235
v -6.61244 0.60000 -0.70000
v -6.61244 0.90000 -0.70000
v -6.38995 0.60000 -0.98995
v -6.38995 0.90000 -0.98995
v -6.10000 0.60000 -1.21244
v -6.10000 0.90000 -1.21244
v -5.76235 0.60000 -1.35230
v -5.76235 0.90000 -1.35230
v -5.40000 0.60000 -1.40000
v -5.40000 0.90000 -1.40000
v -5.03765 0.60000 -1.35230
v -5.03765 0.90000 -1.35230
v -4.70000 0.60000 -1.21244
v -4.70000 0.90000 -1.21244
v -4.41005 0.60000 -0.98995
v -4.41005 0.90000 -0.98995
v -4.18756 0.60000 -0.70000
v -4.18756 0.90000 -0.70000
v -4.04770 0.60000 -0.36235
v -4.04770 0.90000 -0.36235
v -5.40000 0.60000 0.00000
v -5.40000 0.90000 0.00000
v -7.83000 0.60000 -0.08000
v -7.90608 0.60000 -0.02472
v -7.87702 0.60000 0.06472
v -7.78298 0.60000 0.06472
v -7.75392 0.60000 -0.02472
v -7.83000 2.40000 -0.08000
v -7.90608 2.40000 -0.02472
v -7.87702 2.40000 0.06472
v -7.78298 2.40000 0.06472
v -7.75392 2.40000 -0.02472
v -7.83000 0.60000 0.00000
v -7.83000 2.40000 0.00000
v -7.68858 2.38787 0.00000
v -7.75929 2.38787 0.12247
v -7.90071 2.38787 0.12247
v -7.97142 2.38787 0.00000
v -7.90071 2.38787 -0.12247
v -7.75929 2.38787 -0.12247
v -7.63000 2.60000 0.00000
v -7.73000 2.60000 0.17321
v -7.93000 2.60000 0.17321
v -8.03000 2.60000 0.00000
v -7.93000 2.60000 -0.17321
v -7.73000 2.60000 -0.17321
v -7.68858 2.81213 0.00000
v -7.75929 2.81213 0.12247
v -7.90071 2.81213 0.12247
v -7.97142 2.81213 0.00000
v -7.90071 2.81213 -0.12247
v -7.75929 2.81213 -0.12247
v -7.83000 2.30000 0.00000
v -7.83000 2.90000 0.00000
v 0.13856 0.90000 -0.08000
v 0.09798 0.78686 -0.05657
v 0.00000 0.74000 -0.00000
v -0.09798 0.78686 0.05657
v -0.13856 0.90000 0.08000
v -0.09798 1.01314 0.05657
v -0.00000 1.06000 0.00000
v 0.09798 1.01314 -0.05657
v -2.56144 0.90000 -4.75654
v -2.60202 0.78686 -4.73311
v -2.70000 0.74000 -4.67654
v -2.79798 0.78686 -4.61997
v -2.83856 0.90000 -4.59654
v -2.79798 1.01314 -4.61997
v -2.70000 1.06000 -4.67654
v -2.60202 1.01314 -4.73311
v 0.00000 0.90000 0.00000
v -2.70000 0.90000 -4.67654
v -1.30000 0.60000 -4.67654
v -1.30000 0.90000 -4.67654
v -1.34770 0.60000 -4.31419
v -1.34770 0.90000 -4.31419
v -1.48756 0.60000 -3.97654
v -1.48756 0.90000 -3.97654
v -1.71005 0.60000 -3.68659
v -1.71005 0.90000 -3.68659
v -2.00000 0.60000 -3.46410
v -2.00000 0.90000 -3.46410
v -2.33765 0.60000 -3.32424
v -2.33765 0.90000 -3.32424
v -2.70000 0.60000 -3.27654
v -2.70000 0.90000 -3.27654
v -3.06235 0.60000 -3.32424
v -3.06235 0.90000 -3.32424
v -3.40000 0.60000 -3.46410
v -3.40000 0.90000 -3.46410
v -3.68995 0.60000 -3.68659
v -3.68995 0.90000 -3.68659
v -3.91244 0.60000 -3.97654
v -3.91244 0.90000 -3.97654
v -4.05230 0.60000 -4.31419
v -4.05230 0.90000 -4.31419
v -4.10000 0.60000 -4.67654
v -4.10000 0.90000 -4.67654
v -4.05230 0.60000 -5.03888
v -4.05230 0.90000 -5.03888
v -3.91244 0.60000 -5.37654
v -3.91244 0.90000 -5.37654
v -3.68995 0.60000 -5.66649
v -3.68995 0.90000 -5.66649
v -3.40000 0.60000 -5.88897
v -3.40000 0.90000 -5.88897
v -3.06235 0.60000 -6.02883
v -3.06235 0.90000 -6.02883
v -2.70000 0.60000 -6.07654
v -2.70000 0.90000 -6.07654
v -2.33765 0.60000 -6.02883
v -2.33765 0.90000 -6.02883
v -2.00000 0.60000 -5.88897
v -2.00000 0.90000 -5.88897
v -1.71005 0.60000 -5.66649
v -1.71005 0.90000 -5.66649
v -1.48756 0.60000 -5.37654
v -1.48756 0.90000 -5.37654
v -1.34770 0.60000 -5.03888
v -1.34770 0.90000 -5.03888
v -2.70000 0.60000 -4.67654
v -2.70000 0.90000 -4.67654
v -3.91500 0.60000 -6.86098
v -3.99108 0.60000 -6.80570
v -3.96202 0.60000 -6.71626
v -3.86798 0.60000 -6.71626
v -3.83892 0.60000 -6.80570
v -3.91500 2.40000 -6.86098
v -3.99108 2.40000 -6.80570
v -3.96202 2.40000 -6.71626
v -3.86798 2.40000 -6.71626
v -3.83892 2.40000 -6.80570
v -3.91500 0.60000 -6.78098
v -3.91500 2.40000 -6.78098
v -3.77358 2.38787 -6.78098
v -3.84429 2.38787 -6.65850
v -3.98571 2.38787 -6.65850
v -4.05642 2.38787 -6.78098
v -3.98571 2.38787 -6.90345
v -3.84429 2.38787 -6.90345
v -3.71500 2.60000 -6.78098
v -3.81500 2.60000 -6.60777
v -4.01500 2.60000 -6.60777
v -4.11500 2.60000 -6.78098
v -4.01500 2.60000 -6.95418
v -3.81500 2.60000 -6.95418
v -3.77358 2.81213 -6.78098
v -3.84429 2.81213 -6.65850
v -3.98571 2.81213 -6.65850
v -4.05642 2.81213 -6.78098
v -3.98571 2.81213 -6.90345
v -3.84429 2.81213 -6.90345
v -3.91500 2.30000 -6.78098
v -3.91500 2.90000 -6.78098
v 0.13856 0.90000 0.08000
v 0.09798 0.78686 0.05657
v 0.00000 0.74000 0.00000
v -0.09798 0.78686 -0.05657
v -0.13856 0.90000 -0.08000
v -0.09798 1.01314 -0.05657
v -0.00000 1.06000 -0.00000
v 0.09798 1.01314 0.05657
v 2.83856 0.90000 -4.59654
v 2.79798 0.78686 -4.61997
v 2.70000 0.74000 -4.67654
v 2.60202 0.78686 -4.73311
v 2.56144 0.90000 -4.75654
v 2.60202 1.01314 -4.73311
v 2.70000 1.06000 -4.67654
v 2.79798 1.01314 -4.61997
v 0.00000 0.90000 0.00000
v 2.70000 0.90000 -4.67654
v 4.10000 0.60000 -4.67654
v 4.10000 0.90000 -4.67654
v 4.05230 0.60000 -4.31419
v 4.05230 0.90000 -4.31419
v 3.91244 0.60000 -3.97654
v 3.91244 0.90000 -3.97654
v 3.68995 0.60000 -3.68659
v 3.68995 0.90000 -3.68659
v 3.40000 0.60000 -3.46410
v 3.40000 0.90000 -3.46410
v 3.06235 0.60000 -3.32424
v 3.06235 0.90000 -3.32424
v 2.70000 0.60000 -3.27654
v 2.70000 0.90000 -3.27654
v 2.33765 0.60000 -3.32424
v 2.33765 0.90000 -3.32424
v 2.00000 0.60000 -3.46410
v 2.00000 0.90000 -3.46410
v 1.71005 0.60000 -3.68659
v 1.71005 0.90000 -3.68659
v 1.48756 0.60000 -3.97654
v 1.48756 0.90000 -3.97654
v 1.34770 0.60000 -4.31419
v 1.34770 0.90000 -4.31419
v 1.30000 0.60000 -4.67654
v 1.30000 0.90000 -4.67654
v 1.34770 0.60000 -5.03888
v 1.34770 0.90000 -5.03888
v 1.48756 0.60000 -5.37654
v 1.48756 0.90000 -5.37654
v 1.71005 0.60000 -5.66649
v 1.71005 0.90000 -5.66649
v 2.00000 0.60000 -5.88897
v 2.00000 0.90000 -5.88897
v 2.33765 0.60000 -6.02883
v 2.33765 0.90000 -6.02883
v 2.70000 0.60000 -6.07654
v 2.70000 0.90000 -6.07654
v 3.06235 0.60000 -6.02883
v 3.06235 0.90000 -6.02883
v 3.40000 0.60000 -5.88897
v 3.40000 0.90000 -5.88897
v 3.68995 0.60000 -5.66649
v 3.68995 0.90000 -5.66649
v 3.91244 0.60000 -5.37654
v 3.91244 0.90000 -5.37654
v 4.05230 0.60000 -5.03888
v 4.05230 0.90000 -5.03888
v 2.70000 0.60000 -4.67654
v 2.70000 0.90000 -4.67654
v 3.91500 0.60000 -6.86098
v 3.83892 0.60000 -6.80570
v 3.86798 0.60000 -6.71626
v 3.96202 0.60000 -6.71626
v 3.99108 0.60000 -6.80570
v 3.91500 2.40000 -6.86098
v 3.83892 2.40000 -6.80570
v 3.86798 2.40000 -6.71626
v 3.96202 2.40000 -6.71626
v 3.99108 2.40000 -6.80570
v 3.91500 0.60000 -6.78098
v 3.91500 2.40000 -6.78098
v 4.05642 2.38787 -6.78098
v 3.98571 2.38787 -6.65850
v 3.84429 2.38787 -6.65850
v 3.77358 2.38787 -6.78098
v 3.84429 2.38787 -6.90345
v 3.98571 2.38787 -6.90345
v 4.11500 2.60000 -6.78098
v 4.01500 2.60000 -6.60777
v 3.81500 2.60000 -6.60777
v 3.71500 2.60000 -6.78098
v 3.81500 2.60000 -6.95418
v 4.01500 2.60000 -6.95418
v 4.05642 2.81213 -6.78098
v 3.98571 2.81213 -6.65850
v 3.84429 2.81213 -6.65850
v 3.77358 2.81213 -6.78098
v 3.84429 2.81213 -6.90345
v 3.98571 2.81213 -6.90345
v 3.91500 2.30000 -6.78098
v 3.91500 2.90000 -6.78098
vt 0.05000 0.50000
vt 0.15000 0.50000
vt 0.25000 0.50000
vt 0.35000 0.50000
vt 0.45000 0.50000
vt 0.55000 0.50000
vt 0.65000 0.50000
vt 0.75000 0.50000
vt 0.85000 0.50000
vt 0.95000 0.50000
usemtl wood
f 2/5 4/5 3/5 1/5
f 1/5 3/5 89/5
f 4/5 2/5 90/5
f 4/5 6/5 5/5 3/5
f 3/5 5/5 89/5
f 6/5 4/5 90/5
f 6/5 8/5 7/5 5/5
f 5/5 7/5 89/5
f 8/5 6/5 90/5
f 8/5 10/5 9/5 7/5
f 7/5 9/5 89/5
f 10/5 8/5 90/5
f 10/5 12/5 11/5 9/5
f 9/5 11/5 89/5
f 12/5 10/5 90/5
f 12/5 14/5 13/5 11/5
f 11/5 13/5 89/5
f 14/5 12/5 90/5
f 14/5 16/5 15/5 13/5
f 13/5 15/5 89/5
f 16/5 14/5 90/5
f 16/5 18/5 17/5 15/5
f 15/5 17/5 89/5
f 18/5 16/5 90/5
f 18/5 20/5 19/5 17/5
f 17/5 19/5 89/5
f 20/5 18/5 90/5
f 20/5 22/5 21/5 19/5
f 19/5 21/5 89/5
f 22/5 20/5 90/5
f 22/5 24/5 23/5 21/5
f 21/5 23/5 89/5
f 24/5 22/5 90/5
f 24/5 26/5 25/5 23/5
f 23/5 25/5 89/5
f 26/5 24/5 90/5
f 26/5 28/5 27/5 25/5
f 25/5 27/5 89/5
f 28/5 26/5 90/5
f 28/5 30/5 29/5 27/5
f 27/5 29/5 89/5
f 30/5 28/5 90/5
f 30/5 32/5 31/5 29/5
f 29/5 31/5 89/5
f 32/5 30/5 90/5
f 32/5 34/5 33/5 31/5
f 31/5 33/5 89/5
f 34/5 32/5 90/5
f 34/5 36/5 35/5 33/5
f 33/5 35/5 89/5
f 36/5 34/5 90/5
f 36/5 38/5 37/5 35/5
f 35/5 37/5 89/5
f 38/5 36/5 90/5
f 38/5 40/5 39/5 37/5
f 37/5 39/5 89/5
f 40/5 38/5 90/5
f 40/5 42/5 41/5 39/5
f 39/5 41/5 89/5
f 42/5 40/5 90/5
f 42/5 44/5 43/5 41/5
f 41/5 43/5 89/5
f 44/5 42/5 90/5
f 44/5 46/5 45/5 43/5
f 43/5 45/5 89/5
f 46/5 44/5 90/5
f 46/5 48/5 47/5 45/5
f 45/5 47/5 89/5
f 48/5 46/5 90/5
f 48/5 50/5 49/5 47/5
f 47/5 49/5 89/5
f 50/5 48/5 90/5
f 50/5 52/5 51/5 49/5
f 49/5 51/5 89/5
f 52/5 50/5 90/5
f 52/5 54/5 53/5 51/5
f 51/5 53/5 89/5
f 54/5 52/5 90/5
f 54/5 56/5 55/5 53/5
f 53/5 55/5 89/5
f 56/5 54/5 90/5
f 56/5 58/5 57/5 55/5
f 55/5 57/5 89/5
f 58/5 56/5 90/5
f 58/5 60/5 59/5 57/5
f 57/5 59/5 89/5
f 60/5 58/5 90/5
f 60/5 62/5 61/5 59/5
f 59/5 61/5 89/5
f 62/5 60/5 90/5
f 62/5 64/5 63/5 61/5
f 61/5 63/5 89/5
f 64/5 62/5 90/5
f 64/5 66/5 65/5 63/5
f 63/5 65/5 89/5
f 66/5 64/5 90/5
f 66/5 68/5 67/5 65/5
f 65/5 67/5 89/5
f 68/5 66/5 90/5
f 68/5 70/5 69/5 67/5
f 67/5 69/5 89/5
f 70/5 68/5 90/5
f 70/5 72/5 71/5 69/5
f 69/5 71/5 89/5
f 72/5 70/5 90/5
f 72/5 74/5 73/5 71/5
f 71/5 73/5 89/5
f 74/5 72/5 90/5
f 74/5 76/5 75/5 73/5
f 73/5 75/5 89/5
f 76/5 74/5 90/5
f 76/5 78/5 77/5 75/5
f 75/5 77/5 89/5
f 78/5 76/5 90/5
f 78/5 80/5 79/5 77/5
f 77/5 79/5 89/5
f 80/5 78/5 90/5
f 80/5 82/5 81/5 79/5
f 79/5 81/5 89/5
f 82/5 80/5 90/5
f 82/5 84/5 83/5 81/5
f 81/5 83/5 89/5
f 84/5 82/5 90/5
f 84/5 86/5 85/5 83/5
f 83/5 85/5 89/5
f 86/5 84/5 90/5
f 86/5 88/5 87/5 85/5
f 85/5 87/5 89/5
f 88/5 86/5 90/5
f 88/5 2/5 1/5 87/5
f 87/5 1/5 89/5
f 2/5 88/5 90/5
f 629/5 632/5 631/5 630/5
f 633/5 634/5 635/5 636/5
f 629/5 633/5 636/5 632/5
f 630/5 631/5 635/5 634/5
f 629/5 630/5 634/5 633/5
f 632/5 636/5 635/5 631/5
f 679/5 680/5 672/5 671/5
f 671/5 672/5 687/5
f 680/5 679/5 688/5
f 680/5 681/5 673/5 672/5
f 672/5 673/5 687/5
f 681/5 680/5 688/5
f 681/5 682/5 674/5 673/5
f 673/5 674/5 687/5
f 682/5 681/5 688/5
f 682/5 683/5 675/5 674/5
f 674/5 675/5 687/5
f 683/5 682/5 688/5
f 683/5 684/5 676/5 675/5
f 675/5 676/5 687/5
f 684/5 683/5 688/5
f 684/5 685/5 677/5 676/5
f 676/5 677/5 687/5
f 685/5 684/5 688/5
f 685/5 686/5 678/5 677/5
f 677/5 678/5 687/5
f 686/5 685/5 688/5
f 686/5 679/5 671/5 678/5
f 678/5 671/5 687/5
f 679/5 686/5 688/5
f 739/5 740/5 745/5 744/5
f 749/5 740/5 739/5
f 750/5 744/5 745/5
f 740/5 741/5 746/5 745/5
f 749/5 741/5 740/5
f 750/5 745/5 746/5
f 741/5 742/5 747/5 746/5
f 749/5 742/5 741/5
f 750/5 746/5 747/5
f 742/5 743/5 748/5 747/5
f 749/5 743/5 742/5
f 750/5 747/5 748/5
f 743/5 739/5 744/5 748/5
f 749/5 739/5 743/5
f 750/5 748/5 744/5
f 779/5 780/5 772/5 771/5
f 771/5 772/5 787/5
f 780/5 779/5 788/5
f 780/5 781/5 773/5 772/5
f 772/5 773/5 787/5
f 781/5 780/5 788/5
f 781/5 782/5 774/5 773/5
f 773/5 774/5 787/5
f 782/5 781/5 788/5
f 782/5 783/5 775/5 774/5
f 774/5 775/5 787/5
f 783/5 782/5 788/5
f 783/5 784/5 776/5 775/5
f 775/5 776/5 787/5
f 784/5 783/5 788/5
f 784/5 785/5 777/5 776/5
f 776/5 777/5 787/5
f 785/5 784/5 788/5
f 785/5 786/5 778/5 777/5
f 777/5 778/5 787/5
f 786/5 785/5 788/5
f 786/5 779/5 771/5 778/5
f 778/5 771/5 787/5
f 779/5 786/5 788/5
f 839/5 840/5 845/5 844/5
f 849/5 840/5 839/5
f 850/5 844/5 845/5
f 840/5 841/5 846/5 845/5
f 849/5 841/5 840/5
f 850/5 845/5 846/5
f 841/5 842/5 847/5 846/5
f 849/5 842/5 841/5
f 850/5 846/5 847/5
f 842/5 843/5 848/5 847/5
f 849/5 843/5 842/5
f 850/5 847/5 848/5
f 843/5 839/5 844/5 848/5
f 849/5 839/5 843/5
f 850/5 848/5 844/5
f 879/5 880/5 872/5 871/5
f 871/5 872/5 887/5
f 880/5 879/5 888/5
f 880/5 881/5 873/5 872/5
f 872/5 873/5 887/5
f 881/5 880/5 888/5
f 881/5 882/5 874/5 873/5
f 873/5 874/5 887/5
f 882/5 881/5 888/5
f 882/5 883/5 875/5 874/5
f 874/5 875/5 887/5
f 883/5 882/5 888/5
f 883/5 884/5 876/5 875/5
f 875/5 876/5 887/5
f 884/5 883/5 888/5
f 884/5 885/5 877/5 876/5
f 876/5 877/5 887/5
f 885/5 884/5 888/5
f 885/5 886/5 878/5 877/5
f 877/5 878/5 887/5
f 886/5 885/5 888/5
f 886/5 879/5 871/5 878/5
f 878/5 871/5 887/5
f 879/5 886/5 888/5
f 939/5 940/5 945/5 944/5
f 949/5 940/5 939/5
f 950/5 944/5 945/5
f 940/5 941/5 946/5 945/5
f 949/5 941/5 940/5
f 950/5 945/5 946/5
f 941/5 942/5 947/5 946/5
f 949/5 942/5 941/5
f 950/5 946/5 947/5
f 942/5 943/5 948/5 947/5
f 949/5 943/5 942/5
f 950/5 947/5 948/5
f 943/5 939/5 944/5 948/5
f 949/5 939/5 943/5
f 950/5 948/5 944/5
f 979/5 980/5 972/5 971/5
f 971/5 972/5 987/5
f 980/5 979/5 988/5
f 980/5 981/5 973/5 972/5
f 972/5 973/5 987/5
f 981/5 980/5 988/5
f 981/5 982/5 974/5 973/5
f 973/5 974/5 987/5
f 982/5 981/5 988/5
f 982/5 983/5 975/5 974/5
f 974/5 975/5 987/5
f 983/5 982/5 988/5
f 983/5 984/5 976/5 975/5
f 975/5 976/5 987/5
f 984/5 983/5 988/5
f 984/5 985/5 977/5 976/5
f 976/5 977/5 987/5
f 985/5 984/5 988/5
f 985/5 986/5 978/5 977/5
f 977/5 978/5 987/5
f 986/5 985/5 988/5
f 986/5 979/5 971/5 978/5
f 978/5 971/5 987/5
f 979/5 986/5 988/5
f 1039/5 1040/5 1045/5 1044/5
f 1049/5 1040/5 1039/5
f 1050/5 1044/5 1045/5
f 1040/5 1041/5 1046/5 1045/5
f 1049/5 1041/5 1040/5
f 1050/5 1045/5 1046/5
f 1041/5 1042/5 1047/5 1046/5
f 1049/5 1042/5 1041/5
f 1050/5 1046/5 1047/5
f 1042/5 1043/5 1048/5 1047/5
f 1049/5 1043/5 1042/5
f 1050/5 1047/5 1048/5
f 1043/5 1039/5 1044/5 1048/5
f 1049/5 1039/5 1043/5
f 1050/5 1048/5 1044/5
f 1079/5 1080/5 1072/5 1071/5
f 1071/5 1072/5 1087/5
f 1080/5 1079/5 1088/5
f 1080/5 1081/5 1073/5 1072/5
f 1072/5 1073/5 1087/5
f 1081/5 1080/5 1088/5
f 1081/5 1082/5 1074/5 1073/5
f 1073/5 1074/5 1087/5
f 1082/5 1081/5 1088/5
f 1082/5 1083/5 1075/5 1074/5
f 1074/5 1075/5 1087/5
f 1083/5 1082/5 1088/5
f 1083/5 1084/5 1076/5 1075/5
f 1075/5 1076/5 1087/5
f 1084/5 1083/5 1088/5
f 1084/5 1085/5 1077/5 1076/5
f 1076/5 1077/5 1087/5
f 1085/5 1084/5 1088/5
f 1085/5 1086/5 1078/5 1077/5
f 1077/5 1078/5 1087/5
f 1086/5 1085/5 1088/5
f 1086/5 1079/5 1071/5 1078/5
f 1078/5 1071/5 1087/5
f 1079/5 1086/5 1088/5
f 1139/5 1140/5 1145/5 1144/5
f 1149/5 1140/5 1139/5
f 1150/5 1144/5 1145/5
f 1140/5 1141/5 1146/5 1145/5
f 1149/5 1141/5 1140/5
f 1150/5 1145/5 1146/5
f 1141/5 1142/5 1147/5 1146/5
f 1149/5 1142/5 1141/5
f 1150/5 1146/5 1147/5
f 1142/5 1143/5 1148/5 1147/5
f 1149/5 1143/5 1142/5
f 1150/5 1147/5 1148/5
f 1143/5 1139/5 1144/5 1148/5
f 1149/5 1139/5 1143/5
f 1150/5 1148/5 1144/5
f 1179/5 1180/5 1172/5 1171/5
f 1171/5 1172/5 1187/5
f 1180/5 1179/5 1188/5
f 1180/5 1181/5 1173/5 1172/5
f 1172/5 1173/5 1187/5
f 1181/5 1180/5 1188/5
f 1181/5 1182/5 1174/5 1173/5
f 1173/5 1174/5 1187/5
f 1182/5 1181/5 1188/5
f 1182/5 1183/5 1175/5 1174/5
f 1174/5 1175/5 1187/5
f 1183/5 1182/5 1188/5
f 1183/5 1184/5 1176/5 1175/5
f 1175/5 1176/5 1187/5
f 1184/5 1183/5 1188/5
f 1184/5 1185/5 1177/5 1176/5
f 1176/5 1177/5 1187/5
f 1185/5 1184/5 1188/5
f 1185/5 1186/5 1178/5 1177/5
f 1177/5 1178/5 1187/5
f 1186/5 1185/5 1188/5
f 1186/5 1179/5 1171/5 1178/5
f 1178/5 1171/5 1187/5
f 1179/5 1186/5 1188/5
f 1239/5 1240/5 1245/5 1244/5
f 1249/5 1240/5 1239/5
f 1250/5 1244/5 1245/5
f 1240/5 1241/5 1246/5 1245/5
f 1249/5 1241/5 1240/5
f 1250/5 1245/5 1246/5
f 1241/5 1242/5 1247/5 1246/5
f 1249/5 1242/5 1241/5
f 1250/5 1246/5 1247/5
f 1242/5 1243/5 1248/5 1247/5
f 1249/5 1243/5 1242/5
f 1250/5 1247/5 1248/5
f 1243/5 1239/5 1244/5 1248/5
f 1249/5 1239/5 1243/5
f 1250/5 1248/5 1244/5
usemtl ink
f 92/6 94/6 93/6 91/6
f 91/6 93/6 179/6
f 94/6 92/6 180/6
f 94/6 96/6 95/6 93/6
f 93/6 95/6 179/6
f 96/6 94/6 180/6
f 96/6 98/6 97/6 95/6
f 95/6 97/6 179/6
f 98/6 96/6 180/6
f 98/6 100/6 99/6 97/6
f 97/6 99/6 179/6
f 100/6 98/6 180/6
f 100/6 102/6 101/6 99/6
f 99/6 101/6 179/6
f 102/6 100/6 180/6
f 102/6 104/6 103/6 101/6
f 101/6 103/6 179/6
f 104/6 102/6 180/6
f 104/6 106/6 105/6 103/6
f 103/6 105/6 179/6
f 106/6 104/6 180/6
f 106/6 108/6 107/6 105/6
f 105/6 107/6 179/6
f 108/6 106/6 180/6
f 108/6 110/6 109/6 107/6
f 107/6 109/6 179/6
f 110/6 108/6 180/6
f 110/6 112/6 111/6 109/6
f 109/6 111/6 179/6
f 112/6 110/6 180/6
f 112/6 114/6 113/6 111/6
f 111/6 113/6 179/6
f 114/6 112/6 180/6
f 114/6 116/6 115/6 113/6
f 113/6 115/6 179/6
f 116/6 114/6 180/6
f 116/6 118/6 117/6 115/6
f 115/6 117/6 179/6
f 118/6 116/6 180/6
f 118/6 120/6 119/6 117/6
f 117/6 119/6 179/6
f 120/6 118/6 180/6
f 120/6 122/6 121/6 119/6
f 119/6 121/6 179/6
f 122/6 120/6 180/6
f 122/6 124/6 123/6 121/6
f 121/6 123/6 179/6
f 124/6 122/6 180/6
f 124/6 126/6 125/6 123/6
f 123/6 125/6 179/6
f 126/6 124/6 180/6
f 126/6 128/6 127/6 125/6
f 125/6 127/6 179/6
f 128/6 126/6 180/6
f 128/6 130/6 129/6 127/6
f 127/6 129/6 179/6
f 130/6 128/6 180/6
f 130/6 132/6 131/6 129/6
f 129/6 131/6 179/6
f 132/6 130/6 180/6
f 132/6 134/6 133/6 131/6
f 131/6 133/6 179/6
f 134/6 132/6 180/6
f 134/6 136/6 135/6 133/6
f 133/6 135/6 179/6
f 136/6 134/6 180/6
f 136/6 138/6 137/6 135/6
f 135/6 137/6 179/6
f 138/6 136/6 180/6
f 138/6 140/6 139/6 137/6
f 137/6 139/6 179/6
f 140/6 138/6 180/6
f 140/6 142/6 141/6 139/6
f 139/6 141/6 179/6
f 142/6 140/6 180/6
f 142/6 144/6 143/6 141/6
f 141/6 143/6 179/6
f 144/6 142/6 180/6
f 144/6 146/6 145/6 143/6
f 143/6 145/6 179/6
f 146/6 144/6 180/6
f 146/6 148/6 147/6 145/6
f 145/6 147/6 179/6
f 148/6 146/6 180/6
f 148/6 150/6 149/6 147/6
f 147/6 149/6 179/6
f 150/6 148/6 180/6
f 150/6 152/6 151/6 149/6
f 149/6 151/6 179/6
f 152/6 150/6 180/6
f 152/6 154/6 153/6 151/6
f 151/6 153/6 179/6
f 154/6 152/6 180/6
f 154/6 156/6 155/6 153/6
f 153/6 155/6 179/6
f 156/6 154/6 180/6
f 156/6 158/6 157/6 155/6
f 155/6 157/6 179/6
f 158/6 156/6 180/6
f 158/6 160/6 159/6 157/6
f 157/6 159/6 179/6
f 160/6 158/6 180/6
f 160/6 162/6 161/6 159/6
f 159/6 161/6 179/6
f 162/6 160/6 180/6
f 162/6 164/6 163/6 161/6
f 161/6 163/6 179/6
f 164/6 162/6 180/6
f 164/6 166/6 165/6 163/6
f 163/6 165/6 179/6
f 166/6 164/6 180/6
f 166/6 168/6 167/6 165/6
f 165/6 167/6 179/6
f 168/6 166/6 180/6
f 168/6 170/6 169/6 167/6
f 167/6 169/6 179/6
f 170/6 168/6 180/6
f 170/6 172/6 171/6 169/6
f 169/6 171/6 179/6
f 172/6 170/6 180/6
f 172/6 174/6 173/6 171/6
f 171/6 173/6 179/6
f 174/6 172/6 180/6
f 174/6 176/6 175/6 173/6
f 173/6 175/6 179/6
f 176/6 174/6 180/6
f 176/6 178/6 177/6 175/6
f 175/6 177/6 179/6
f 178/6 176/6 180/6
f 178/6 92/6 91/6 177/6
f 177/6 91/6 179/6
f 92/6 178/6 180/6
f 445/6 446/6 450/6 449/6
f 453/6 446/6 445/6
f 454/6 449/6 450/6
f 446/6 447/6 451/6 450/6
f 453/6 447/6 446/6
f 454/6 450/6 451/6
f 447/6 448/6 452/6 451/6
f 453/6 448/6 447/6
f 454/6 451/6 452/6
f 448/6 445/6 449/6 452/6
f 453/6 445/6 448/6
f 454/6 452/6 449/6
f 455/6 456/6 460/6 459/6
f 463/6 456/6 455/6
f 464/6 459/6 460/6
f 456/6 457/6 461/6 460/6
f 463/6 457/6 456/6
f 464/6 460/6 461/6
f 457/6 458/6 462/6 461/6
f 463/6 458/6 457/6
f 464/6 461/6 462/6
f 458/6 455/6 459/6 462/6
f 463/6 455/6 458/6
f 464/6 462/6 459/6
f 465/6 466/6 470/6 469/6
f 473/6 466/6 465/6
f 474/6 469/6 470/6
f 466/6 467/6 471/6 470/6
f 473/6 467/6 466/6
f 474/6 470/6 471/6
f 467/6 468/6 472/6 471/6
f 473/6 468/6 467/6
f 474/6 471/6 472/6
f 468/6 465/6 469/6 472/6
f 473/6 465/6 468/6
f 474/6 472/6 469/6
f 475/6 476/6 480/6 479/6
f 483/6 476/6 475/6
f 484/6 479/6 480/6
f 476/6 477/6 481/6 480/6
f 483/6 477/6 476/6
f 484/6 480/6 481/6
f 477/6 478/6 482/6 481/6
f 483/6 478/6 477/6
f 484/6 481/6 482/6
f 478/6 475/6 479/6 482/6
f 483/6 475/6 478/6
f 484/6 482/6 479/6
f 485/6 486/6 490/6 489/6
f 493/6 486/6 485/6
f 494/6 489/6 490/6
f 486/6 487/6 491/6 490/6
f 493/6 487/6 486/6
f 494/6 490/6 491/6
f 487/6 488/6 492/6 491/6
f 493/6 488/6 487/6
f 494/6 491/6 492/6
f 488/6 485/6 489/6 492/6
f 493/6 485/6 488/6
f 494/6 492/6 489/6
f 495/6 496/6 500/6 499/6
f 503/6 496/6 495/6
f 504/6 499/6 500/6
f 496/6 497/6 501/6 500/6
f 503/6 497/6 496/6
f 504/6 500/6 501/6
f 497/6 498/6 502/6 501/6
f 503/6 498/6 497/6
f 504/6 501/6 502/6
f 498/6 495/6 499/6 502/6
f 503/6 495/6 498/6
f 504/6 502/6 499/6
f 505/6 506/6 510/6 509/6
f 513/6 506/6 505/6
f 514/6 509/6 510/6
f 506/6 507/6 511/6 510/6
f 513/6 507/6 506/6
f 514/6 510/6 511/6
f 507/6 508/6 512/6 511/6
f 513/6 508/6 507/6
f 514/6 511/6 512/6
f 508/6 505/6 509/6 512/6
f 513/6 505/6 508/6
f 514/6 512/6 509/6
f 515/6 516/6 520/6 519/6
f 523/6 516/6 515/6
f 524/6 519/6 520/6
f 516/6 517/6 521/6 520/6
f 523/6 517/6 516/6
f 524/6 520/6 521/6
f 517/6 518/6 522/6 521/6
f 523/6 518/6 517/6
f 524/6 521/6 522/6
f 518/6 515/6 519/6 522/6
f 523/6 515/6 518/6
f 524/6 522/6 519/6
f 525/6 526/6 530/6 529/6
f 533/6 526/6 525/6
f 534/6 529/6 530/6
f 526/6 527/6 531/6 530/6
f 533/6 527/6 526/6
f 534/6 530/6 531/6
f 527/6 528/6 532/6 531/6
f 533/6 528/6 527/6
f 534/6 531/6 532/6
f 528/6 525/6 529/6 532/6
f 533/6 525/6 528/6
f 534/6 532/6 529/6
f 535/6 536/6 540/6 539/6
f 543/6 536/6 535/6
f 544/6 539/6 540/6
f 536/6 537/6 541/6 540/6
f 543/6 537/6 536/6
f 544/6 540/6 541/6
f 537/6 538/6 542/6 541/6
f 543/6 538/6 537/6
f 544/6 541/6 542/6
f 538/6 535/6 539/6 542/6
f 543/6 535/6 538/6
f 544/6 542/6 539/6
f 545/6 546/6 550/6 549/6
f 553/6 546/6 545/6
f 554/6 549/6 550/6
f 546/6 547/6 551/6 550/6
f 553/6 547/6 546/6
f 554/6 550/6 551/6
f 547/6 548/6 552/6 551/6
f 553/6 548/6 547/6
f 554/6 551/6 552/6
f 548/6 545/6 549/6 552/6
f 553/6 545/6 548/6
f 554/6 552/6 549/6
f 555/6 556/6 560/6 559/6
f 563/6 556/6 555/6
f 564/6 559/6 560/6
f 556/6 557/6 561/6 560/6
f 563/6 557/6 556/6
f 564/6 560/6 561/6
f 557/6 558/6 562/6 561/6
f 563/6 558/6 557/6
f 564/6 561/6 562/6
f 558/6 555/6 559/6 562/6
f 563/6 555/6 558/6
f 564/6 562/6 559/6
f 573/6 576/6 575/6 574/6
f 577/6 578/6 579/6 580/6
f 573/6 577/6 580/6 576/6
f 574/6 575/6 579/6 578/6
f 573/6 574/6 578/6 577/6
f 576/6 580/6 579/6 575/6
f 589/6 592/6 591/6 590/6
f 593/6 594/6 595/6 596/6
f 589/6 593/6 596/6 592/6
f 590/6 591/6 595/6 594/6
f 589/6 590/6 594/6 593/6
f 592/6 596/6 595/6 591/6
f 605/6 608/6 607/6 606/6
f 609/6 610/6 611/6 612/6
f 605/6 609/6 612/6 608/6
f 606/6 607/6 611/6 610/6
f 605/6 606/6 610/6 609/6
f 608/6 612/6 611/6 607/6
f 621/6 624/6 623/6 622/6
f 625/6 626/6 627/6 628/6
f 621/6 625/6 628/6 624/6
f 622/6 623/6 627/6 626/6
f 621/6 622/6 626/6 625/6
f 624/6 628/6 627/6 623/6
f 690/6 692/6 691/6 689/6
f 689/6 691/6 737/6
f 692/6 690/6 738/6
f 692/6 694/6 693/6 691/6
f 691/6 693/6 737/6
f 694/6 692/6 738/6
f 694/6 696/6 695/6 693/6
f 693/6 695/6 737/6
f 696/6 694/6 738/6
f 696/6 698/6 697/6 695/6
f 695/6 697/6 737/6
f 698/6 696/6 738/6
f 698/6 700/6 699/6 697/6
f 697/6 699/6 737/6
f 700/6 698/6 738/6
f 700/6 702/6 701/6 699/6
f 699/6 701/6 737/6
f 702/6 700/6 738/6
f 702/6 704/6 703/6 701/6
f 701/6 703/6 737/6
f 704/6 702/6 738/6
f 704/6 706/6 705/6 703/6
f 703/6 705/6 737/6
f 706/6 704/6 738/6
f 706/6 708/6 707/6 705/6
f 705/6 707/6 737/6
f 708/6 706/6 738/6
f 708/6 710/6 709/6 707/6
f 707/6 709/6 737/6
f 710/6 708/6 738/6
f 710/6 712/6 711/6 709/6
f 709/6 711/6 737/6
f 712/6 710/6 738/6
f 712/6 714/6 713/6 711/6
f 711/6 713/6 737/6
f 714/6 712/6 738/6
f 714/6 716/6 715/6 713/6
f 713/6 715/6 737/6
f 716/6 714/6 738/6
f 716/6 718/6 717/6 715/6
f 715/6 717/6 737/6
f 718/6 716/6 738/6
f 718/6 720/6 719/6 717/6
f 717/6 719/6 737/6
f 720/6 718/6 738/6
f 720/6 722/6 721/6 719/6
f 719/6 721/6 737/6
f 722/6 720/6 738/6
f 722/6 724/6 723/6 721/6
f 721/6 723/6 737/6
f 724/6 722/6 738/6
f 724/6 726/6 725/6 723/6
f 723/6 725/6 737/6
f 726/6 724/6 738/6
f 726/6 728/6 727/6 725/6
f 725/6 727/6 737/6
f 728/6 726/6 738/6
f 728/6 730/6 729/6 727/6
f 727/6 729/6 737/6
f 730/6 728/6 738/6
f 730/6 732/6 731/6 729/6
f 729/6 731/6 737/6
f 732/6 730/6 738/6
f 732/6 734/6 733/6 731/6
f 731/6 733/6 737/6
f 734/6 732/6 738/6
f 734/6 736/6 735/6 733/6
f 733/6 735/6 737/6
f 736/6 734/6 738/6
f 736/6 690/6 689/6 735/6
f 735/6 689/6 737/6
f 690/6 736/6 738/6
f 790/6 792/6 791/6 789/6
f 789/6 791/6 837/6
f 792/6 790/6 838/6
f 792/6 794/6 793/6 791/6
f 791/6 793/6 837/6
f 794/6 792/6 838/6
f 794/6 796/6 795/6 793/6
f 793/6 795/6 837/6
f 796/6 794/6 838/6
f 796/6 798/6 797/6 795/6
f 795/6 797/6 837/6
f 798/6 796/6 838/6
f 798/6 800/6 799/6 797/6
f 797/6 799/6 837/6
f 800/6 798/6 838/6
f 800/6 802/6 801/6 799/6
f 799/6 801/6 837/6
f 802/6 800/6 838/6
f 802/6 804/6 803/6 801/6
f 801/6 803/6 837/6
f 804/6 802/6 838/6
f 804/6 806/6 805/6 803/6
f 803/6 805/6 837/6
f 806/6 804/6 838/6
f 806/6 808/6 807/6 805/6
f 805/6 807/6 837/6
f 808/6 806/6 838/6
f 808/6 810/6 809/6 807/6
f 807/6 809/6 837/6
f 810/6 808/6 838/6
f 810/6 812/6 811/6 809/6
f 809/6 811/6 837/6
f 812/6 810/6 838/6
f 812/6 814/6 813/6 811/6
f 811/6 813/6 837/6
f 814/6 812/6 838/6
f 814/6 816/6 815/6 813/6
f 813/6 815/6 837/6
f 816/6 814/6 838/6
f 816/6 818/6 817/6 815/6
f 815/6 817/6 837/6
f 818/6 816/6 838/6
f 818/6 820/6 819/6 817/6
f 817/6 819/6 837/6
f 820/6 818/6 838/6
f 820/6 822/6 821/6 819/6
f 819/6 821/6 837/6
f 822/6 820/6 838/6
f 822/6 824/6 823/6 821/6
f 821/6 823/6 837/6
f 824/6 822/6 838/6
f 824/6 826/6 825/6 823/6
f 823/6 825/6 837/6
f 826/6 824/6 838/6
f 826/6 828/6 827/6 825/6
f 825/6 827/6 837/6
f 828/6 826/6 838/6
f 828/6 830/6 829/6 827/6
f 827/6 829/6 837/6
f 830/6 828/6 838/6
f 830/6 832/6 831/6 829/6
f 829/6 831/6 837/6
f 832/6 830/6 838/6
f 832/6 834/6 833/6 831/6
f 831/6 833/6 837/6
f 834/6 832/6 838/6
f 834/6 836/6 835/6 833/6
f 833/6 835/6 837/6
f 836/6 834/6 838/6
f 836/6 790/6 789/6 835/6
f 835/6 789/6 837/6
f 790/6 836/6 838/6
f 890/6 892/6 891/6 889/6
f 889/6 891/6 937/6
f 892/6 890/6 938/6
f 892/6 894/6 893/6 891/6
f 891/6 893/6 937/6
f 894/6 892/6 938/6
f 894/6 896/6 895/6 893/6
f 893/6 895/6 937/6
f 896/6 894/6 938/6
f 896/6 898/6 897/6 895/6
f 895/6 897/6 937/6
f 898/6 896/6 938/6
f 898/6 900/6 899/6 897/6
f 897/6 899/6 937/6
f 900/6 898/6 938/6
f 900/6 902/6 901/6 899/6
f 899/6 901/6 937/6
f 902/6 900/6 938/6
f 902/6 904/6 903/6 901/6
f 901/6 903/6 937/6
f 904/6 902/6 938/6
f 904/6 906/6 905/6 903/6
f 903/6 905/6 937/6
f 906/6 904/6 938/6
f 906/6 908/6 907/6 905/6
f 905/6 907/6 937/6
f 908/6 906/6 938/6
f 908/6 910/6 909/6 907/6
f 907/6 909/6 937/6
f 910/6 908/6 938/6
f 910/6 912/6 911/6 909/6
f 909/6 911/6 937/6
f 912/6 910/6 938/6
f 912/6 914/6 913/6 911/6
f 911/6 913/6 937/6
f 914/6 912/6 938/6
f 914/6 916/6 915/6 913/6
f 913/6 915/6 937/6
f 916/6 914/6 938/6
f 916/6 918/6 917/6 915/6
f 915/6 917/6 937/6
f 918/6 916/6 938/6
f 918/6 920/6 919/6 917/6
f 917/6 919/6 937/6
f 920/6 918/6 938/6
f 920/6 922/6 921/6 919/6
f 919/6 921/6 937/6
f 922/6 920/6 938/6
f 922/6 924/6 923/6 921/6
f 921/6 923/6 937/6
f 924/6 922/6 938/6
f 924/6 926/6 925/6 923/6
f 923/6 925/6 937/6
f 926/6 924/6 938/6
f 926/6 928/6 927/6 925/6
f 925/6 927/6 937/6
f 928/6 926/6 938/6
f 928/6 930/6 929/6 927/6
f 927/6 929/6 937/6
f 930/6 928/6 938/6
f 930/6 932/6 931/6 929/6
f 929/6 931/6 937/6
f 932/6 930/6 938/6
f 932/6 934/6 933/6 931/6
f 931/6 933/6 937/6
f 934/6 932/6 938/6
f 934/6 936/6 935/6 933/6
f 933/6 935/6 937/6
f 936/6 934/6 938/6
f 936/6 890/6 889/6 935/6
f 935/6 889/6 937/6
f 890/6 936/6 938/6
f 990/6 992/6 991/6 989/6
f 989/6 991/6 1037/6
f 992/6 990/6 1038/6
f 992/6 994/6 993/6 991/6
f 991/6 993/6 1037/6
f 994/6 992/6 1038/6
f 994/6 996/6 995/6 993/6
f 993/6 995/6 1037/6
f 996/6 994/6 1038/6
f 996/6 998/6 997/6 995/6
f 995/6 997/6 1037/6
f 998/6 996/6 1038/6
f 998/6 1000/6 999/6 997/6
f 997/6 999/6 1037/6
f 1000/6 998/6 1038/6
f 1000/6 1002/6 1001/6 999/6
f 999/6 1001/6 1037/6
f 1002/6 1000/6 1038/6
f 1002/6 1004/6 1003/6 1001/6
f 1001/6 1003/6 1037/6
f 1004/6 1002/6 1038/6
f 1004/6 1006/6 1005/6 1003/6
f 1003/6 1005/6 1037/6
f 1006/6 1004/6 1038/6
f 1006/6 1008/6 1007/6 1005/6
f 1005/6 1007/6 1037/6
f 1008/6 1006/6 1038/6
f 1008/6 1010/6 1009/6 1007/6
f 1007/6 1009/6 1037/6
f 1010/6 1008/6 1038/6
f 1010/6 1012/6 1011/6 1009/6
f 1009/6 1011/6 1037/6
f 1012/6 1010/6 1038/6
f 1012/6 1014/6 1013/6 1011/6
f 1011/6 1013/6 1037/6
f 1014/6 1012/6 1038/6
f 1014/6 1016/6 1015/6 1013/6
f 1013/6 1015/6 1037/6
f 1016/6 1014/6 1038/6
f 1016/6 1018/6 1017/6 1015/6
f 1015/6 1017/6 1037/6
f 1018/6 1016/6 1038/6
f 1018/6 1020/6 1019/6 1017/6
f 1017/6 1019/6 1037/6
f 1020/6 1018/6 1038/6
f 1020/6 1022/6 1021/6 1019/6
f 1019/6 1021/6 1037/6
f 1022/6 1020/6 1038/6
f 1022/6 1024/6 1023/6 1021/6
f 1021/6 1023/6 1037/6
f 1024/6 1022/6 1038/6
f 1024/6 1026/6 1025/6 1023/6
f 1023/6 1025/6 1037/6
f 1026/6 1024/6 1038/6
f 1026/6 1028/6 1027/6 1025/6
f 1025/6 1027/6 1037/6
f 1028/6 1026/6 1038/6
f 1028/6 1030/6 1029/6 1027/6
f 1027/6 1029/6 1037/6
f 1030/6 1028/6 1038/6
f 1030/6 1032/6 1031/6 1029/6
f 1029/6 1031/6 1037/6
f 1032/6 1030/6 1038/6
f 1032/6 1034/6 1033/6 1031/6
f 1031/6 1033/6 1037/6
f 1034/6 1032/6 1038/6
f 1034/6 1036/6 1035/6 1033/6
f 1033/6 1035/6 1037/6
f 1036/6 1034/6 1038/6
f 1036/6 990/6 989/6 1035/6
f 1035/6 989/6 1037/6
f 990/6 1036/6 1038/6
f 1090/6 1092/6 1091/6 1089/6
f 1089/6 1091/6 1137/6
f 1092/6 1090/6 1138/6
f 1092/6 1094/6 1093/6 1091/6
f 1091/6 1093/6 1137/6
f 1094/6 1092/6 1138/6
f 1094/6 1096/6 1095/6 1093/6
f 1093/6 1095/6 1137/6
f 1096/6 1094/6 1138/6
f 1096/6 1098/6 1097/6 1095/6
f 1095/6 1097/6 1137/6
f 1098/6 1096/6 1138/6
f 1098/6 1100/6 1099/6 1097/6
f 1097/6 1099/6 1137/6
f 1100/6 1098/6 1138/6
f 1100/6 1102/6 1101/6 1099/6
f 1099/6 1101/6 1137/6
f 1102/6 1100/6 1138/6
f 1102/6 1104/6 1103/6 1101/6
f 1101/6 1103/6 1137/6
f 1104/6 1102/6 1138/6
f 1104/6 1106/6 1105/6 1103/6
f 1103/6 1105/6 1137/6
f 1106/6 1104/6 1138/6
f 1106/6 1108/6 1107/6 1105/6
f 1105/6 1107/6 1137/6
f 1108/6 1106/6 1138/6
f 1108/6 1110/6 1109/6 1107/6
f 1107/6 1109/6 1137/6
f 1110/6 1108/6 1138/6
f 1110/6 1112/6 1111/6 1109/6
f 1109/6 1111/6 1137/6
f 1112/6 1110/6 1138/6
f 1112/6 1114/6 1113/6 1111/6
f 1111/6 1113/6 1137/6
f 1114/6 1112/6 1138/6
f 1114/6 1116/6 1115/6 1113/6
f 1113/6 1115/6 1137/6
f 1116/6 1114/6 1138/6
f 1116/6 1118/6 1117/6 1115/6
f 1115/6 1117/6 1137/6
f 1118/6 1116/6 1138/6
f 1118/6 1120/6 1119/6 1117/6
f 1117/6 1119/6 1137/6
f 1120/6 1118/6 1138/6
f 1120/6 1122/6 1121/6 1119/6
f 1119/6 1121/6 1137/6
f 1122/6 1120/6 1138/6
f 1122/6 1124/6 1123/6 1121/6
f 1121/6 1123/6 1137/6
f 1124/6 1122/6 1138/6
f 1124/6 1126/6 1125/6 1123/6
f 1123/6 1125/6 1137/6
f 1126/6 1124/6 1138/6
f 1126/6 1128/6 1127/6 1125/6
f 1125/6 1127/6 1137/6
f 1128/6 1126/6 1138/6
f 1128/6 1130/6 1129/6 1127/6
f 1127/6 1129/6 1137/6
f 1130/6 1128/6 1138/6
f 1130/6 1132/6 1131/6 1129/6
f 1129/6 1131/6 1137/6
f 1132/6 1130/6 1138/6
f 1132/6 1134/6 1133/6 1131/6
f 1131/6 1133/6 1137/6
f 1134/6 1132/6 1138/6
f 1134/6 1136/6 1135/6 1133/6
f 1133/6 1135/6 1137/6
f 1136/6 1134/6 1138/6
f 1136/6 1090/6 1089/6 1135/6
f 1135/6 1089/6 1137/6
f 1090/6 1136/6 1138/6
f 1190/6 1192/6 1191/6 1189/6
f 1189/6 1191/6 1237/6
f 1192/6 1190/6 1238/6
f 1192/6 1194/6 1193/6 1191/6
f 1191/6 1193/6 1237/6
f 1194/6 1192/6 1238/6
f 1194/6 1196/6 1195/6 1193/6
f 1193/6 1195/6 1237/6
f 1196/6 1194/6 1238/6
f 1196/6 1198/6 1197/6 1195/6
f 1195/6 1197/6 1237/6
f 1198/6 1196/6 1238/6
f 1198/6 1200/6 1199/6 1197/6
f 1197/6 1199/6 1237/6
f 1200/6 1198/6 1238/6
f 1200/6 1202/6 1201/6 1199/6
f 1199/6 1201/6 1237/6
f 1202/6 1200/6 1238/6
f 1202/6 1204/6 1203/6 1201/6
f 1201/6 1203/6 1237/6
f 1204/6 1202/6 1238/6
f 1204/6 1206/6 1205/6 1203/6
f 1203/6 1205/6 1237/6
f 1206/6 1204/6 1238/6
f 1206/6 1208/6 1207/6 1205/6
f 1205/6 1207/6 1237/6
f 1208/6 1206/6 1238/6
f 1208/6 1210/6 1209/6 1207/6
f 1207/6 1209/6 1237/6
f 1210/6 1208/6 1238/6
f 1210/6 1212/6 1211/6 1209/6
f 1209/6 1211/6 1237/6
f 1212/6 1210/6 1238/6
f 1212/6 1214/6 1213/6 1211/6
f 1211/6 1213/6 1237/6
f 1214/6 1212/6 1238/6
f 1214/6 1216/6 1215/6 1213/6
f 1213/6 1215/6 1237/6
f 1216/6 1214/6 1238/6
f 1216/6 1218/6 1217/6 1215/6
f 1215/6 1217/6 1237/6
f 1218/6 1216/6 1238/6
f 1218/6 1220/6 1219/6 1217/6
f 1217/6 1219/6 1237/6
f 1220/6 1218/6 1238/6
f 1220/6 1222/6 1221/6 1219/6
f 1219/6 1221/6 1237/6
f 1222/6 1220/6 1238/6
f 1222/6 1224/6 1223/6 1221/6
f 1221/6 1223/6 1237/6
f 1224/6 1222/6 1238/6
f 1224/6 1226/6 1225/6 1223/6
f 1223/6 1225/6 1237/6
f 1226/6 1224/6 1238/6
f 1226/6 1228/6 1227/6 1225/6
f 1225/6 1227/6 1237/6
f 1228/6 1226/6 1238/6
f 1228/6 1230/6 1229/6 1227/6
f 1227/6 1229/6 1237/6
f 1230/6 1228/6 1238/6
f 1230/6 1232/6 1231/6 1229/6
f 1229/6 1231/6 1237/6
f 1232/6 1230/6 1238/6
f 1232/6 1234/6 1233/6 1231/6
f 1231/6 1233/6 1237/6
f 1234/6 1232/6 1238/6
f 1234/6 1236/6 1235/6 1233/6
f 1233/6 1235/6 1237/6
f 1236/6 1234/6 1238/6
f 1236/6 1190/6 1189/6 1235/6
f 1235/6 1189/6 1237/6
f 1190/6 1236/6 1238/6
usemtl gold
f 181/4 182/4 188/4 187/4
f 182/4 183/4 189/4 188/4
f 183/4 184/4 190/4 189/4
f 184/4 185/4 191/4 190/4
f 185/4 186/4 192/4 191/4
f 186/4 181/4 187/4 192/4
f 187/4 188/4 194/4 193/4
f 188/4 189/4 195/4 194/4
f 189/4 190/4 196/4 195/4
f 190/4 191/4 197/4 196/4
f 191/4 192/4 198/4 197/4
f 192/4 187/4 193/4 198/4
f 193/4 194/4 200/4 199/4
f 194/4 195/4 201/4 200/4
f 195/4 196/4 202/4 201/4
f 196/4 197/4 203/4 202/4
f 197/4 198/4 204/4 203/4
f 198/4 193/4 199/4 204/4
f 199/4 200/4 206/4 205/4
f 200/4 201/4 207/4 206/4
f 201/4 202/4 208/4 207/4
f 202/4 203/4 209/4 208/4
f 203/4 204/4 210/4 209/4
f 204/4 199/4 205/4 210/4
f 205/4 206/4 212/4 211/4
f 206/4 207/4 213/4 212/4
f 207/4 208/4 214/4 213/4
f 208/4 209/4 215/4 214/4
f 209/4 210/4 216/4 215/4
f 210/4 205/4 211/4 216/4
f 211/4 212/4 218/4 217/4
f 212/4 213/4 219/4 218/4
f 213/4 214/4 220/4 219/4
f 214/4 215/4 221/4 220/4
f 215/4 216/4 222/4 221/4
f 216/4 211/4 217/4 222/4
f 217/4 218/4 224/4 223/4
f 218/4 219/4 225/4 224/4
f 219/4 220/4 226/4 225/4
f 220/4 221/4 227/4 226/4
f 221/4 222/4 228/4 227/4
f 222/4 217/4 223/4 228/4
f 223/4 224/4 230/4 229/4
f 224/4 225/4 231/4 230/4
f 225/4 226/4 232/4 231/4
f 226/4 227/4 233/4 232/4
f 227/4 228/4 234/4 233/4
f 228/4 223/4 229/4 234/4
f 229/4 230/4 236/4 235/4
f 230/4 231/4 237/4 236/4
f 231/4 232/4 238/4 237/4
f 232/4 233/4 239/4 238/4
f 233/4 234/4 240/4 239/4
f 234/4 229/4 235/4 240/4
f 235/4 236/4 242/4 241/4
f 236/4 237/4 243/4 242/4
f 237/4 238/4 244/4 243/4
f 238/4 239/4 245/4 244/4
f 239/4 240/4 246/4 245/4
f 240/4 235/4 241/4 246/4
f 241/4 242/4 248/4 247/4
f 242/4 243/4 249/4 248/4
f 243/4 244/4 250/4 249/4
f 244/4 245/4 251/4 250/4
f 245/4 246/4 252/4 251/4
f 246/4 241/4 247/4 252/4
f 247/4 248/4 254/4 253/4
f 248/4 249/4 255/4 254/4
f 249/4 250/4 256/4 255/4
f 250/4 251/4 257/4 256/4
f 251/4 252/4 258/4 257/4
f 252/4 247/4 253/4 258/4
f 253/4 254/4 260/4 259/4
f 254/4 255/4 261/4 260/4
f 255/4 256/4 262/4 261/4
f 256/4 257/4 263/4 262/4
f 257/4 258/4 264/4 263/4
f 258/4 253/4 259/4 264/4
f 259/4 260/4 266/4 265/4
f 260/4 261/4 267/4 266/4
f 261/4 262/4 268/4 267/4
f 262/4 263/4 269/4 268/4
f 263/4 264/4 270/4 269/4
f 264/4 259/4 265/4 270/4
f 265/4 266/4 272/4 271/4
f 266/4 267/4 273/4 272/4
f 267/4 268/4 274/4 273/4
f 268/4 269/4 275/4 274/4
f 269/4 270/4 276/4 275/4
f 270/4 265/4 271/4 276/4
f 271/4 272/4 278/4 277/4
f 272/4 273/4 279/4 278/4
f 273/4 274/4 280/4 279/4
f 274/4 275/4 281/4 280/4
f 275/4 276/4 282/4 281/4
f 276/4 271/4 277/4 282/4
f 277/4 278/4 284/4 283/4
f 278/4 279/4 285/4 284/4
f 279/4 280/4 286/4 285/4
f 280/4 281/4 287/4 286/4
f 281/4 282/4 288/4 287/4
f 282/4 277/4 283/4 288/4
f 283/4 284/4 290/4 289/4
f 284/4 285/4 291/4 290/4
f 285/4 286/4 292/4 291/4
f 286/4 287/4 293/4 292/4
f 287/4 288/4 294/4 293/4
f 288/4 283/4 289/4 294/4
f 289/4 290/4 296/4 295/4
f 290/4 291/4 297/4 296/4
f 291/4 292/4 298/4 297/4
f 292/4 293/4 299/4 298/4
f 293/4 294/4 300/4 299/4
f 294/4 289/4 295/4 300/4
f 295/4 296/4 302/4 301/4
f 296/4 297/4 303/4 302/4
f 297/4 298/4 304/4 303/4
f 298/4 299/4 305/4 304/4
f 299/4 300/4 306/4 305/4
f 300/4 295/4 301/4 306/4
f 301/4 302/4 308/4 307/4
f 302/4 303/4 309/4 308/4
f 303/4 304/4 310/4 309/4
f 304/4 305/4 311/4 310/4
f 305/4 306/4 312/4 311/4
f 306/4 301/4 307/4 312/4
f 307/4 308/4 314/4 313/4
f 308/4 309/4 315/4 314/4
f 309/4 310/4 316/4 315/4
f 310/4 311/4 317/4 316/4
f 311/4 312/4 318/4 317/4
f 312/4 307/4 313/4 318/4
f 313/4 314/4 320/4 319/4
f 314/4 315/4 321/4 320/4
f 315/4 316/4 322/4 321/4
f 316/4 317/4 323/4 322/4
f 317/4 318/4 324/4 323/4
f 318/4 313/4 319/4 324/4
f 319/4 320/4 326/4 325/4
f 320/4 321/4 327/4 326/4
f 321/4 322/4 328/4 327/4
f 322/4 323/4 329/4 328/4
f 323/4 324/4 330/4 329/4
f 324/4 319/4 325/4 330/4
f 325/4 326/4 332/4 331/4
f 326/4 327/4 333/4 332/4
f 327/4 328/4 334/4 333/4
f 328/4 329/4 335/4 334/4
f 329/4 330/4 336/4 335/4
f 330/4 325/4 331/4 336/4
f 331/4 332/4 338/4 337/4
f 332/4 333/4 339/4 338/4
f 333/4 334/4 340/4 339/4
f 334/4 335/4 341/4 340/4
f 335/4 336/4 342/4 341/4
f 336/4 331/4 337/4 342/4
f 337/4 338/4 344/4 343/4
f 338/4 339/4 345/4 344/4
f 339/4 340/4 346/4 345/4
f 340/4 341/4 347/4 346/4
f 341/4 342/4 348/4 347/4
f 342/4 337/4 343/4 348/4
f 343/4 344/4 350/4 349/4
f 344/4 345/4 351/4 350/4
f 345/4 346/4 352/4 351/4
f 346/4 347/4 353/4 352/4
f 347/4 348/4 354/4 353/4
f 348/4 343/4 349/4 354/4
f 349/4 350/4 356/4 355/4
f 350/4 351/4 357/4 356/4
f 351/4 352/4 358/4 357/4
f 352/4 353/4 359/4 358/4
f 353/4 354/4 360/4 359/4
f 354/4 349/4 355/4 360/4
f 355/4 356/4 362/4 361/4
f 356/4 357/4 363/4 362/4
f 357/4 358/4 364/4 363/4
f 358/4 359/4 365/4 364/4
f 359/4 360/4 366/4 365/4
f 360/4 355/4 361/4 366/4
f 361/4 362/4 368/4 367/4
f 362/4 363/4 369/4 368/4
f 363/4 364/4 370/4 369/4
f 364/4 365/4 371/4 370/4
f 365/4 366/4 372/4 371/4
f 366/4 361/4 367/4 372/4
f 367/4 368/4 374/4 373/4
f 368/4 369/4 375/4 374/4
f 369/4 370/4 376/4 375/4
f 370/4 371/4 377/4 376/4
f 371/4 372/4 378/4 377/4
f 372/4 367/4 373/4 378/4
f 373/4 374/4 380/4 379/4
f 374/4 375/4 381/4 380/4
f 375/4 376/4 382/4 381/4
f 376/4 377/4 383/4 382/4
f 377/4 378/4 384/4 383/4
f 378/4 373/4 379/4 384/4
f 379/4 380/4 386/4 385/4
f 380/4 381/4 387/4 386/4
f 381/4 382/4 388/4 387/4
f 382/4 383/4 389/4 388/4
f 383/4 384/4 390/4 389/4
f 384/4 379/4 385/4 390/4
f 385/4 386/4 392/4 391/4
f 386/4 387/4 393/4 392/4
f 387/4 388/4 394/4 393/4
f 388/4 389/4 395/4 394/4
f 389/4 390/4 396/4 395/4
f 390/4 385/4 391/4 396/4
f 391/4 392/4 398/4 397/4
f 392/4 393/4 399/4 398/4
f 393/4 394/4 400/4 399/4
f 394/4 395/4 401/4 400/4
f 395/4 396/4 402/4 401/4
f 396/4 391/4 397/4 402/4
f 397/4 398/4 404/4 403/4
f 398/4 399/4 405/4 404/4
f 399/4 400/4 406/4 405/4
f 400/4 401/4 407/4 406/4
f 401/4 402/4 408/4 407/4
f 402/4 397/4 403/4 408/4
f 403/4 404/4 410/4 409/4
f 404/4 405/4 411/4 410/4
f 405/4 406/4 412/4 411/4
f 406/4 407/4 413/4 412/4
f 407/4 408/4 414/4 413/4
f 408/4 403/4 409/4 414/4
f 409/4 410/4 416/4 415/4
f 410/4 411/4 417/4 416/4
f 411/4 412/4 418/4 417/4
f 412/4 413/4 419/4 418/4
f 413/4 414/4 420/4 419/4
f 414/4 409/4 415/4 420/4
f 415/4 416/4 422/4 421/4
f 416/4 417/4 423/4 422/4
f 417/4 418/4 424/4 423/4
f 418/4 419/4 425/4 424/4
f 419/4 420/4 426/4 425/4
f 420/4 415/4 421/4 426/4
f 421/4 422/4 428/4 427/4
f 422/4 423/4 429/4 428/4
f 423/4 424/4 430/4 429/4
f 424/4 425/4 431/4 430/4
f 425/4 426/4 432/4 431/4
f 426/4 421/4 427/4 432/4
f 427/4 428/4 434/4 433/4
f 428/4 429/4 435/4 434/4
f 429/4 430/4 436/4 435/4
f 430/4 431/4 437/4 436/4
f 431/4 432/4 438/4 437/4
f 432/4 427/4 433/4 438/4
f 433/4 434/4 440/4 439/4
f 434/4 435/4 441/4 440/4
f 435/4 436/4 442/4 441/4
f 436/4 437/4 443/4 442/4
f 437/4 438/4 444/4 443/4
f 438/4 433/4 439/4 444/4
f 439/4 440/4 182/4 181/4
f 440/4 441/4 183/4 182/4
f 441/4 442/4 184/4 183/4
f 442/4 443/4 185/4 184/4
f 443/4 444/4 186/4 185/4
f 444/4 439/4 181/4 186/4
f 597/4 600/4 599/4 598/4
f 601/4 602/4 603/4 604/4
f 597/4 601/4 604/4 600/4
f 598/4 599/4 603/4 602/4
f 597/4 598/4 602/4 601/4
f 600/4 604/4 603/4 599/4
f 637/4 638/4 669/4
f 662/4 661/4 670/4
f 638/4 639/4 669/4
f 663/4 662/4 670/4
f 639/4 640/4 669/4
f 664/4 663/4 670/4
f 640/4 641/4 669/4
f 665/4 664/4 670/4
f 641/4 642/4 669/4
f 666/4 665/4 670/4
f 642/4 643/4 669/4
f 667/4 666/4 670/4
f 643/4 644/4 669/4
f 668/4 667/4 670/4
f 644/4 637/4 669/4
f 661/4 668/4 670/4
f 645/4 646/4 638/4 637/4
f 646/4 647/4 639/4 638/4
f 647/4 648/4 640/4 639/4
f 648/4 649/4 641/4 640/4
f 649/4 650/4 642/4 641/4
f 650/4 651/4 643/4 642/4
f 651/4 652/4 644/4 643/4
f 652/4 645/4 637/4 644/4
f 653/4 654/4 646/4 645/4
f 654/4 655/4 647/4 646/4
f 655/4 656/4 648/4 647/4
f 656/4 657/4 649/4 648/4
f 657/4 658/4 650/4 649/4
f 658/4 659/4 651/4 650/4
f 659/4 660/4 652/4 651/4
f 660/4 653/4 645/4 652/4
f 661/4 662/4 654/4 653/4
f 662/4 663/4 655/4 654/4
f 663/4 664/4 656/4 655/4
f 664/4 665/4 657/4 656/4
f 665/4 666/4 658/4 657/4
f 666/4 667/4 659/4 658/4
f 667/4 668/4 660/4 659/4
f 668/4 661/4 653/4 660/4
usemtl coral
f 565/2 568/2 567/2 566/2
f 569/2 570/2 571/2 572/2
f 565/2 569/2 572/2 568/2
f 566/2 567/2 571/2 570/2
f 565/2 566/2 570/2 569/2
f 568/2 572/2 571/2 567/2
f 613/2 616/2 615/2 614/2
f 617/2 618/2 619/2 620/2
f 613/2 617/2 620/2 616/2
f 614/2 615/2 619/2 618/2
f 613/2 614/2 618/2 617/2
f 616/2 620/2 619/2 615/2
f 751/2 752/2 769/2
f 764/2 763/2 770/2
f 752/2 753/2 769/2
f 765/2 764/2 770/2
f 753/2 754/2 769/2
f 766/2 765/2 770/2
f 754/2 755/2 769/2
f 767/2 766/2 770/2
f 755/2 756/2 769/2
f 768/2 767/2 770/2
f 756/2 751/2 769/2
f 763/2 768/2 770/2
f 757/2 758/2 752/2 751/2
f 758/2 759/2 753/2 752/2
f 759/2 760/2 754/2 753/2
f 760/2 761/2 755/2 754/2
f 761/2 762/2 756/2 755/2
f 762/2 757/2 751/2 756/2
f 763/2 764/2 758/2 757/2
f 764/2 765/2 759/2 758/2
f 765/2 766/2 760/2 759/2
f 766/2 767/2 761/2 760/2
f 767/2 768/2 762/2 761/2
f 768/2 763/2 757/2 762/2
f 851/2 852/2 869/2
f 864/2 863/2 870/2
f 852/2 853/2 869/2
f 865/2 864/2 870/2
f 853/2 854/2 869/2
f 866/2 865/2 870/2
f 854/2 855/2 869/2
f 867/2 866/2 870/2
f 855/2 856/2 869/2
f 868/2 867/2 870/2
f 856/2 851/2 869/2
f 863/2 868/2 870/2
f 857/2 858/2 852/2 851/2
f 858/2 859/2 853/2 852/2
f 859/2 860/2 854/2 853/2
f 860/2 861/2 855/2 854/2
f 861/2 862/2 856/2 855/2
f 862/2 857/2 851/2 856/2
f 863/2 864/2 858/2 857/2
f 864/2 865/2 859/2 858/2
f 865/2 866/2 860/2 859/2
f 866/2 867/2 861/2 860/2
f 867/2 868/2 862/2 861/2
f 868/2 863/2 857/2 862/2
f 951/2 952/2 969/2
f 964/2 963/2 970/2
f 952/2 953/2 969/2
f 965/2 964/2 970/2
f 953/2 954/2 969/2
f 966/2 965/2 970/2
f 954/2 955/2 969/2
f 967/2 966/2 970/2
f 955/2 956/2 969/2
f 968/2 967/2 970/2
f 956/2 951/2 969/2
f 963/2 968/2 970/2
f 957/2 958/2 952/2 951/2
f 958/2 959/2 953/2 952/2
f 959/2 960/2 954/2 953/2
f 960/2 961/2 955/2 954/2
f 961/2 962/2 956/2 955/2
f 962/2 957/2 951/2 956/2
f 963/2 964/2 958/2 957/2
f 964/2 965/2 959/2 958/2
f 965/2 966/2 960/2 959/2
f 966/2 967/2 961/2 960/2
f 967/2 968/2 962/2 961/2
f 968/2 963/2 957/2 962/2
f 1051/2 1052/2 1069/2
f 1064/2 1063/2 1070/2
f 1052/2 1053/2 1069/2
f 1065/2 1064/2 1070/2
f 1053/2 1054/2 1069/2
f 1066/2 1065/2 1070/2
f 1054/2 1055/2 1069/2
f 1067/2 1066/2 1070/2
f 1055/2 1056/2 1069/2
f 1068/2 1067/2 1070/2
f 1056/2 1051/2 1069/2
f 1063/2 1068/2 1070/2
f 1057/2 1058/2 1052/2 1051/2
f 1058/2 1059/2 1053/2 1052/2
f 1059/2 1060/2 1054/2 1053/2
f 1060/2 1061/2 1055/2 1054/2
f 1061/2 1062/2 1056/2 1055/2
f 1062/2 1057/2 1051/2 1056/2
f 1063/2 1064/2 1058/2 1057/2
f 1064/2 1065/2 1059/2 1058/2
f 1065/2 1066/2 1060/2 1059/2
f 1066/2 1067/2 1061/2 1060/2
f 1067/2 1068/2 1062/2 1061/2
f 1068/2 1063/2 1057/2 1062/2
f 1151/2 1152/2 1169/2
f 1164/2 1163/2 1170/2
f 1152/2 1153/2 1169/2
f 1165/2 1164/2 1170/2
f 1153/2 1154/2 1169/2
f 1166/2 1165/2 1170/2
f 1154/2 1155/2 1169/2
f 1167/2 1166/2 1170/2
f 1155/2 1156/2 1169/2
f 1168/2 1167/2 1170/2
f 1156/2 1151/2 1169/2
f 1163/2 1168/2 1170/2
f 1157/2 1158/2 1152/2 1151/2
f 1158/2 1159/2 1153/2 1152/2
f 1159/2 1160/2 1154/2 1153/2
f 1160/2 1161/2 1155/2 1154/2
f 1161/2 1162/2 1156/2 1155/2
f 1162/2 1157/2 1151/2 1156/2
f 1163/2 1164/2 1158/2 1157/2
f 1164/2 1165/2 1159/2 1158/2
f 1165/2 1166/2 1160/2 1159/2
f 1166/2 1167/2 1161/2 1160/2
f 1167/2 1168/2 1162/2 1161/2
f 1168/2 1163/2 1157/2 1162/2
f 1251/2 1252/2 1269/2
f 1264/2 1263/2 1270/2
f 1252/2 1253/2 1269/2
f 1265/2 1264/2 1270/2
f 1253/2 1254/2 1269/2
f 1266/2 1265/2 1270/2
f 1254/2 1255/2 1269/2
f 1267/2 1266/2 1270/2
f 1255/2 1256/2 1269/2
f 1268/2 1267/2 1270/2
f 1256/2 1251/2 1269/2
f 1263/2 1268/2 1270/2
f 1257/2 1258/2 1252/2 1251/2
f 1258/2 1259/2 1253/2 1252/2
f 1259/2 1260/2 1254/2 1253/2
f 1260/2 1261/2 1255/2 1254/2
f 1261/2 1262/2 1256/2 1255/2
f 1262/2 1257/2 1251/2 1256/2
f 1263/2 1264/2 1258/2 1257/2
f 1264/2 1265/2 1259/2 1258/2
f 1265/2 1266/2 1260/2 1259/2
f 1266/2 1267/2 1261/2 1260/2
f 1267/2 1268/2 1262/2 1261/2
f 1268/2 1263/2 1257/2 1262/2
usemtl mint
f 581/3 584/3 583/3 582/3
f 585/3 586/3 587/3 588/3
f 581/3 585/3 588/3 584/3
f 582/3 583/3 587/3 586/3
f 581/3 582/3 586/3 585/3
f 584/3 588/3 587/3 583/3
