# ParkParkOrbitHub — ParkPark original fairground mesh
mtllib ParkParkFairground.mtl
o ParkParkOrbitHub
v 8.20000 0.00000 0.00000
v 8.20000 0.60000 0.00000
v 8.11654 0.00000 1.16698
v 8.11654 0.60000 1.16698
v 7.86784 0.00000 2.31021
v 7.86784 0.60000 2.31021
v 7.45898 0.00000 3.40640
v 7.45898 0.60000 3.40640
v 6.89828 0.00000 4.43325
v 6.89828 0.60000 4.43325
v 6.19715 0.00000 5.36986
v 6.19715 0.60000 5.36986
v 5.36986 0.00000 6.19715
v 5.36986 0.60000 6.19715
v 4.43325 0.00000 6.89828
v 4.43325 0.60000 6.89828
v 3.40640 0.00000 7.45898
v 3.40640 0.60000 7.45898
v 2.31021 0.00000 7.86784
v 2.31021 0.60000 7.86784
v 1.16698 0.00000 8.11654
v 1.16698 0.60000 8.11654
v 0.00000 0.00000 8.20000
v 0.00000 0.60000 8.20000
v -1.16698 0.00000 8.11654
v -1.16698 0.60000 8.11654
v -2.31021 0.00000 7.86784
v -2.31021 0.60000 7.86784
v -3.40640 0.00000 7.45898
v -3.40640 0.60000 7.45898
v -4.43325 0.00000 6.89828
v -4.43325 0.60000 6.89828
v -5.36986 0.00000 6.19715
v -5.36986 0.60000 6.19715
v -6.19715 0.00000 5.36986
v -6.19715 0.60000 5.36986
v -6.89828 0.00000 4.43325
v -6.89828 0.60000 4.43325
v -7.45898 0.00000 3.40640
v -7.45898 0.60000 3.40640
v -7.86784 0.00000 2.31021
v -7.86784 0.60000 2.31021
v -8.11654 0.00000 1.16698
v -8.11654 0.60000 1.16698
v -8.20000 0.00000 0.00000
v -8.20000 0.60000 0.00000
v -8.11654 0.00000 -1.16698
v -8.11654 0.60000 -1.16698
v -7.86784 0.00000 -2.31021
v -7.86784 0.60000 -2.31021
v -7.45898 0.00000 -3.40640
v -7.45898 0.60000 -3.40640
v -6.89828 0.00000 -4.43325
v -6.89828 0.60000 -4.43325
v -6.19715 0.00000 -5.36986
v -6.19715 0.60000 -5.36986
v -5.36986 0.00000 -6.19715
v -5.36986 0.60000 -6.19715
v -4.43325 0.00000 -6.89828
v -4.43325 0.60000 -6.89828
v -3.40640 0.00000 -7.45898
v -3.40640 0.60000 -7.45898
v -2.31021 0.00000 -7.86784
v -2.31021 0.60000 -7.86784
v -1.16698 0.00000 -8.11654
v -1.16698 0.60000 -8.11654
v -0.00000 0.00000 -8.20000
v -0.00000 0.60000 -8.20000
v 1.16698 0.00000 -8.11654
v 1.16698 0.60000 -8.11654
v 2.31021 0.00000 -7.86784
v 2.31021 0.60000 -7.86784
v 3.40640 0.00000 -7.45898
v 3.40640 0.60000 -7.45898
v 4.43325 0.00000 -6.89828
v 4.43325 0.60000 -6.89828
v 5.36986 0.00000 -6.19715
v 5.36986 0.60000 -6.19715
v 6.19715 0.00000 -5.36986
v 6.19715 0.60000 -5.36986
v 6.89828 0.00000 -4.43325
v 6.89828 0.60000 -4.43325
v 7.45898 0.00000 -3.40640
v 7.45898 0.60000 -3.40640
v 7.86784 0.00000 -2.31021
v 7.86784 0.60000 -2.31021
v 8.11654 0.00000 -1.16698
v 8.11654 0.60000 -1.16698
v 0.00000 0.00000 0.00000
v 0.00000 0.60000 0.00000
v 8.25000 0.00000 0.00000
v 8.25000 0.45000 0.00000
v 8.16603 0.00000 1.17410
v 8.16603 0.45000 1.17410
v 7.91582 0.00000 2.32429
v 7.91582 0.45000 2.32429
v 7.50446 0.00000 3.42717
v 7.50446 0.45000 3.42717
v 6.94034 0.00000 4.46029
v 6.94034 0.45000 4.46029
v 6.23493 0.00000 5.40260
v 6.23493 0.45000 5.40260
v 5.40260 0.00000 6.23493
v 5.40260 0.45000 6.23493
v 4.46029 0.00000 6.94034
v 4.46029 0.45000 6.94034
v 3.42717 0.00000 7.50446
v 3.42717 0.45000 7.50446
v 2.32429 0.00000 7.91582
v 2.32429 0.45000 7.91582
v 1.17410 0.00000 8.16603
v 1.17410 0.45000 8.16603
v 0.00000 0.00000 8.25000
v 0.00000 0.45000 8.25000
v -1.17410 0.00000 8.16603
v -1.17410 0.45000 8.16603
v -2.32429 0.00000 7.91582
v -2.32429 0.45000 7.91582
v -3.42717 0.00000 7.50446
v -3.42717 0.45000 7.50446
v -4.46029 0.00000 6.94034
v -4.46029 0.45000 6.94034
v -5.40260 0.00000 6.23493
v -5.40260 0.45000 6.23493
v -6.23493 0.00000 5.40260
v -6.23493 0.45000 5.40260
v -6.94034 0.00000 4.46029
v -6.94034 0.45000 4.46029
v -7.50446 0.00000 3.42717
v -7.50446 0.45000 3.42717
v -7.91582 0.00000 2.32429
v -7.91582 0.45000 2.32429
v -8.16603 0.00000 1.17410
v -8.16603 0.45000 1.17410
v -8.25000 0.00000 0.00000
v -8.25000 0.45000 0.00000
v -8.16603 0.00000 -1.17410
v -8.16603 0.45000 -1.17410
v -7.91582 0.00000 -2.32429
v -7.91582 0.45000 -2.32429
v -7.50446 0.00000 -3.42717
v -7.50446 0.45000 -3.42717
v -6.94034 0.00000 -4.46029
v -6.94034 0.45000 -4.46029
v -6.23493 0.00000 -5.40260
v -6.23493 0.45000 -5.40260
v -5.40260 0.00000 -6.23493
v -5.40260 0.45000 -6.23493
v -4.46029 0.00000 -6.94034
v -4.46029 0.45000 -6.94034
v -3.42717 0.00000 -7.50446
v -3.42717 0.45000 -7.50446
v -2.32429 0.00000 -7.91582
v -2.32429 0.45000 -7.91582
v -1.17410 0.00000 -8.16603
v -1.17410 0.45000 -8.16603
v -0.00000 0.00000 -8.25000
v -0.00000 0.45000 -8.25000
v 1.17410 0.00000 -8.16603
v 1.17410 0.45000 -8.16603
v 2.32429 0.00000 -7.91582
v 2.32429 0.45000 -7.91582
v 3.42717 0.00000 -7.50446
v 3.42717 0.45000 -7.50446
v 4.46029 0.00000 -6.94034
v 4.46029 0.45000 -6.94034
v 5.40260 0.00000 -6.23493
v 5.40260 0.45000 -6.23493
v 6.23493 0.00000 -5.40260
v 6.23493 0.45000 -5.40260
v 6.94034 0.00000 -4.46029
v 6.94034 0.45000 -4.46029
v 7.50446 0.00000 -3.42717
v 7.50446 0.45000 -3.42717
v 7.91582 0.00000 -2.32429
v 7.91582 0.45000 -2.32429
v 8.16603 0.00000 -1.17410
v 8.16603 0.45000 -1.17410
v 0.00000 0.00000 0.00000
v 0.00000 0.45000 0.00000
v 8.14000 0.62000 0.00000
v 8.07000 0.74124 0.00000
v 7.93000 0.74124 0.00000
v 7.86000 0.62000 0.00000
v 7.93000 0.49876 0.00000
v 8.07000 0.49876 0.00000
v 8.05715 0.62000 1.15844
v 7.98786 0.74124 1.14848
v 7.84928 0.74124 1.12856
v 7.78000 0.62000 1.11859
v 7.84928 0.49876 1.12856
v 7.98786 0.49876 1.14848
v 7.81027 0.62000 2.29330
v 7.74311 0.74124 2.27358
v 7.60878 0.74124 2.23414
v 7.54161 0.62000 2.21442
v 7.60878 0.49876 2.23414
v 7.74311 0.49876 2.27358
v 7.40440 0.62000 3.38148
v 7.34073 0.74124 3.35240
v 7.21338 0.74124 3.29424
v 7.14971 0.62000 3.26516
v 7.21338 0.49876 3.29424
v 7.34073 0.49876 3.35240
v 6.84780 0.62000 4.40082
v 6.78892 0.74124 4.36297
v 6.67114 0.74124 4.28728
v 6.61225 0.62000 4.24944
v 6.67114 0.49876 4.28728
v 6.78892 0.49876 4.36297
v 6.15180 0.62000 5.33057
v 6.09890 0.74124 5.28473
v 5.99309 0.74124 5.19305
v 5.94019 0.62000 5.14721
v 5.99309 0.49876 5.19305
v 6.09890 0.49876 5.28473
v 5.33057 0.62000 6.15180
v 5.28473 0.74124 6.09890
v 5.19305 0.74124 5.99309
v 5.14721 0.62000 5.94019
v 5.19305 0.49876 5.99309
v 5.28473 0.49876 6.09890
v 4.40082 0.62000 6.84780
v 4.36297 0.74124 6.78892
v 4.28728 0.74124 6.67114
v 4.24944 0.62000 6.61225
v 4.28728 0.49876 6.67114
v 4.36297 0.49876 6.78892
v 3.38148 0.62000 7.40440
v 3.35240 0.74124 7.34073
v 3.29424 0.74124 7.21338
v 3.26516 0.62000 7.14971
v 3.29424 0.49876 7.21338
v 3.35240 0.49876 7.34073
v 2.29330 0.62000 7.81027
v 2.27358 0.74124 7.74311
v 2.23414 0.74124 7.60878
v 2.21442 0.62000 7.54161
v 2.23414 0.49876 7.60878
v 2.27358 0.49876 7.74311
v 1.15844 0.62000 8.05715
v 1.14848 0.74124 7.98786
v 1.12856 0.74124 7.84928
v 1.11859 0.62000 7.78000
v 1.12856 0.49876 7.84928
v 1.14848 0.49876 7.98786
v 0.00000 0.62000 8.14000
v 0.00000 0.74124 8.07000
v 0.00000 0.74124 7.93000
v 0.00000 0.62000 7.86000
v 0.00000 0.49876 7.93000
v 0.00000 0.49876 8.07000
v -1.15844 0.62000 8.05715
v -1.14848 0.74124 7.98786
v -1.12856 0.74124 7.84928
v -1.11859 0.62000 7.78000
v -1.12856 0.49876 7.84928
v -1.14848 0.49876 7.98786
v -2.29330 0.62000 7.81027
v -2.27358 0.74124 7.74311
v -2.23414 0.74124 7.60878
v -2.21442 0.62000 7.54161
v -2.23414 0.49876 7.60878
v -2.27358 0.49876 7.74311
v -3.38148 0.62000 7.40440
v -3.35240 0.74124 7.34073
v -3.29424 0.74124 7.21338
v -3.26516 0.62000 7.14971
v -3.29424 0.49876 7.21338
v -3.35240 0.49876 7.34073
v -4.40082 0.62000 6.84780
v -4.36297 0.74124 6.78892
v -4.28728 0.74124 6.67114
v -4.24944 0.62000 6.61225
v -4.28728 0.49876 6.67114
v -4.36297 0.49876 6.78892
v -5.33057 0.62000 6.15180
v -5.28473 0.74124 6.09890
v -5.19305 0.74124 5.99309
v -5.14721 0.62000 5.94019
v -5.19305 0.49876 5.99309
v -5.28473 0.49876 6.09890
v -6.15180 0.62000 5.33057
v -6.09890 0.74124 5.28473
v -5.99309 0.74124 5.19305
v -5.94019 0.62000 5.14721
v -5.99309 0.49876 5.19305
v -6.09890 0.49876 5.28473
v -6.84780 0.62000 4.40082
v -6.78892 0.74124 4.36297
v -6.67114 0.74124 4.28728
v -6.61225 0.62000 4.24944
v -6.67114 0.49876 4.28728
v -6.78892 0.49876 4.36297
v -7.40440 0.62000 3.38148
v -7.34073 0.74124 3.35240
v -7.21338 0.74124 3.29424
v -7.14971 0.62000 3.26516
v -7.21338 0.49876 3.29424
v -7.34073 0.49876 3.35240
v -7.81027 0.62000 2.29330
v -7.74311 0.74124 2.27358
v -7.60878 0.74124 2.23414
v -7.54161 0.62000 2.21442
v -7.60878 0.49876 2.23414
v -7.74311 0.49876 2.27358
v -8.05715 0.62000 1.15844
v -7.98786 0.74124 1.14848
v -7.84928 0.74124 1.12856
v -7.78000 0.62000 1.11859
v -7.84928 0.49876 1.12856
v -7.98786 0.49876 1.14848
v -8.14000 0.62000 0.00000
v -8.07000 0.74124 0.00000
v -7.93000 0.74124 0.00000
v -7.86000 0.62000 0.00000
v -7.93000 0.49876 0.00000
v -8.07000 0.49876 0.00000
v -8.05715 0.62000 -1.15844
v -7.98786 0.74124 -1.14848
v -7.84928 0.74124 -1.12856
v -7.78000 0.62000 -1.11859
v -7.84928 0.49876 -1.12856
v -7.98786 0.49876 -1.14848
v -7.81027 0.62000 -2.29330
v -7.74311 0.74124 -2.27358
v -7.60878 0.74124 -2.23414
v -7.54161 0.62000 -2.21442
v -7.60878 0.49876 -2.23414
v -7.74311 0.49876 -2.27358
v -7.40440 0.62000 -3.38148
v -7.34073 0.74124 -3.35240
v -7.21338 0.74124 -3.29424
v -7.14971 0.62000 -3.26516
v -7.21338 0.49876 -3.29424
v -7.34073 0.49876 -3.35240
v -6.84780 0.62000 -4.40082
v -6.78892 0.74124 -4.36297
v -6.67114 0.74124 -4.28728
v -6.61225 0.62000 -4.24944
v -6.67114 0.49876 -4.28728
v -6.78892 0.49876 -4.36297
v -6.15180 0.62000 -5.33057
v -6.09890 0.74124 -5.28473
v -5.99309 0.74124 -5.19305
v -5.94019 0.62000 -5.14721
v -5.99309 0.49876 -5.19305
v -6.09890 0.49876 -5.28473
v -5.33057 0.62000 -6.15180
v -5.28473 0.74124 -6.09890
v -5.19305 0.74124 -5.99309
v -5.14721 0.62000 -5.94019
v -5.19305 0.49876 -5.99309
v -5.28473 0.49876 -6.09890
v -4.40082 0.62000 -6.84780
v -4.36297 0.74124 -6.78892
v -4.28728 0.74124 -6.67114
v -4.24944 0.62000 -6.61225
v -4.28728 0.49876 -6.67114
v -4.36297 0.49876 -6.78892
v -3.38148 0.62000 -7.40440
v -3.35240 0.74124 -7.34073
v -3.29424 0.74124 -7.21338
v -3.26516 0.62000 -7.14971
v -3.29424 0.49876 -7.21338
v -3.35240 0.49876 -7.34073
v -2.29330 0.62000 -7.81027
v -2.27358 0.74124 -7.74311
v -2.23414 0.74124 -7.60878
v -2.21442 0.62000 -7.54161
v -2.23414 0.49876 -7.60878
v -2.27358 0.49876 -7.74311
v -1.15844 0.62000 -8.05715
v -1.14848 0.74124 -7.98786
v -1.12856 0.74124 -7.84928
v -1.11859 0.62000 -7.78000
v -1.12856 0.49876 -7.84928
v -1.14848 0.49876 -7.98786
v -0.00000 0.62000 -8.14000
v -0.00000 0.74124 -8.07000
v -0.00000 0.74124 -7.93000
v -0.00000 0.62000 -7.86000
v -0.00000 0.49876 -7.93000
v -0.00000 0.49876 -8.07000
v 1.15844 0.62000 -8.05715
v 1.14848 0.74124 -7.98786
v 1.12856 0.74124 -7.84928
v 1.11859 0.62000 -7.78000
v 1.12856 0.49876 -7.84928
v 1.14848 0.49876 -7.98786
v 2.29330 0.62000 -7.81027
v 2.27358 0.74124 -7.74311
v 2.23414 0.74124 -7.60878
v 2.21442 0.62000 -7.54161
v 2.23414 0.49876 -7.60878
v 2.27358 0.49876 -7.74311
v 3.38148 0.62000 -7.40440
v 3.35240 0.74124 -7.34073
v 3.29424 0.74124 -7.21338
v 3.26516 0.62000 -7.14971
v 3.29424 0.49876 -7.21338
v 3.35240 0.49876 -7.34073
v 4.40082 0.62000 -6.84780
v 4.36297 0.74124 -6.78892
v 4.28728 0.74124 -6.67114
v 4.24944 0.62000 -6.61225
v 4.28728 0.49876 -6.67114
v 4.36297 0.49876 -6.78892
v 5.33057 0.62000 -6.15180
v 5.28473 0.74124 -6.09890
v 5.19305 0.74124 -5.99309
v 5.14721 0.62000 -5.94019
v 5.19305 0.49876 -5.99309
v 5.28473 0.49876 -6.09890
v 6.15180 0.62000 -5.33057
v 6.09890 0.74124 -5.28473
v 5.99309 0.74124 -5.19305
v 5.94019 0.62000 -5.14721
v 5.99309 0.49876 -5.19305
v 6.09890 0.49876 -5.28473
v 6.84780 0.62000 -4.40082
v 6.78892 0.74124 -4.36297
v 6.67114 0.74124 -4.28728
v 6.61225 0.62000 -4.24944
v 6.67114 0.49876 -4.28728
v 6.78892 0.49876 -4.36297
v 7.40440 0.62000 -3.38148
v 7.34073 0.74124 -3.35240
v 7.21338 0.74124 -3.29424
v 7.14971 0.62000 -3.26516
v 7.21338 0.49876 -3.29424
v 7.34073 0.49876 -3.35240
v 7.81027 0.62000 -2.29330
v 7.74311 0.74124 -2.27358
v 7.60878 0.74124 -2.23414
v 7.54161 0.62000 -2.21442
v 7.60878 0.49876 -2.23414
v 7.74311 0.49876 -2.27358
v 8.05715 0.62000 -1.15844
v 7.98786 0.74124 -1.14848
v 7.84928 0.74124 -1.12856
v 7.78000 0.62000 -1.11859
v 7.84928 0.49876 -1.12856
v 7.98786 0.49876 -1.14848
v 6.97341 0.63000 2.09819
v 6.87815 0.63000 2.26319
v 6.68763 0.63000 2.26319
v 6.59236 0.63000 2.09819
v 6.68763 0.63000 1.93319
v 6.87815 0.63000 1.93319
v 6.97341 0.73000 2.09819
v 6.87815 0.73000 2.26319
v 6.68763 0.73000 2.26319
v 6.59236 0.73000 2.09819
v 6.68763 0.73000 1.93319
v 6.87815 0.73000 1.93319
v 6.78289 0.58000 2.09819
v 6.78289 0.78000 2.09819
v 4.44471 0.63000 5.68436
v 4.34945 0.63000 5.84936
v 4.15892 0.63000 5.84936
v 4.06366 0.63000 5.68436
v 4.15892 0.63000 5.51936
v 4.34945 0.63000 5.51936
v 4.44471 0.73000 5.68436
v 4.34945 0.73000 5.84936
v 4.15892 0.73000 5.84936
v 4.06366 0.73000 5.68436
v 4.15892 0.73000 5.51936
v 4.34945 0.73000 5.51936
v 4.25419 0.58000 5.68436
v 4.25419 0.78000 5.68436
v 0.29105 0.63000 7.09929
v 0.19579 0.63000 7.26429
v 0.00526 0.63000 7.26429
v -0.09000 0.63000 7.09929
v 0.00526 0.63000 6.93429
v 0.19579 0.63000 6.93429
v 0.29105 0.73000 7.09929
v 0.19579 0.73000 7.26429
v 0.00526 0.73000 7.26429
v -0.09000 0.73000 7.09929
v 0.00526 0.73000 6.93429
v 0.19579 0.73000 6.93429
v 0.10053 0.58000 7.09929
v 0.10053 0.78000 7.09929
v -3.90100 0.63000 5.80253
v -3.99627 0.63000 5.96753
v -4.18679 0.63000 5.96753
v -4.28205 0.63000 5.80253
v -4.18679 0.63000 5.63753
v -3.99627 0.63000 5.63753
v -3.90100 0.73000 5.80253
v -3.99627 0.73000 5.96753
v -4.18679 0.73000 5.96753
v -4.28205 0.73000 5.80253
v -4.18679 0.73000 5.63753
v -3.99627 0.73000 5.63753
v -4.09153 0.58000 5.80253
v -4.09153 0.78000 5.80253
v -6.53023 0.63000 2.28941
v -6.62550 0.63000 2.45441
v -6.81602 0.63000 2.45441
v -6.91129 0.63000 2.28941
v -6.81602 0.63000 2.12441
v -6.62550 0.63000 2.12441
v -6.53023 0.73000 2.28941
v -6.62550 0.73000 2.45441
v -6.81602 0.73000 2.45441
v -6.91129 0.73000 2.28941
v -6.81602 0.73000 2.12441
v -6.62550 0.73000 2.12441
v -6.72076 0.58000 2.28941
v -6.72076 0.78000 2.28941
v -6.59236 0.63000 -2.09819
v -6.68763 0.63000 -1.93319
v -6.87815 0.63000 -1.93319
v -6.97341 0.63000 -2.09819
v -6.87815 0.63000 -2.26319
v -6.68763 0.63000 -2.26319
v -6.59236 0.73000 -2.09819
v -6.68763 0.73000 -1.93319
v -6.87815 0.73000 -1.93319
v -6.97341 0.73000 -2.09819
v -6.87815 0.73000 -2.26319
v -6.68763 0.73000 -2.26319
v -6.78289 0.58000 -2.09819
v -6.78289 0.78000 -2.09819
v -4.06366 0.63000 -5.68436
v -4.15892 0.63000 -5.51936
v -4.34945 0.63000 -5.51936
v -4.44471 0.63000 -5.68436
v -4.34945 0.63000 -5.84936
v -4.15892 0.63000 -5.84936
v -4.06366 0.73000 -5.68436
v -4.15892 0.73000 -5.51936
v -4.34945 0.73000 -5.51936
v -4.44471 0.73000 -5.68436
v -4.34945 0.73000 -5.84936
v -4.15892 0.73000 -5.84936
v -4.25419 0.58000 -5.68436
v -4.25419 0.78000 -5.68436
v 0.09000 0.63000 -7.09929
v -0.00526 0.63000 -6.93429
v -0.19579 0.63000 -6.93429
v -0.29105 0.63000 -7.09929
v -0.19579 0.63000 -7.26429
v -0.00526 0.63000 -7.26429
v 0.09000 0.73000 -7.09929
v -0.00526 0.73000 -6.93429
v -0.19579 0.73000 -6.93429
v -0.29105 0.73000 -7.09929
v -0.19579 0.73000 -7.26429
v -0.00526 0.73000 -7.26429
v -0.10053 0.58000 -7.09929
v -0.10053 0.78000 -7.09929
v 4.28205 0.63000 -5.80253
v 4.18679 0.63000 -5.63753
v 3.99627 0.63000 -5.63753
v 3.90100 0.63000 -5.80253
v 3.99627 0.63000 -5.96753
v 4.18679 0.63000 -5.96753
v 4.28205 0.73000 -5.80253
v 4.18679 0.73000 -5.63753
v 3.99627 0.73000 -5.63753
v 3.90100 0.73000 -5.80253
v 3.99627 0.73000 -5.96753
v 4.18679 0.73000 -5.96753
v 4.09153 0.58000 -5.80253
v 4.09153 0.78000 -5.80253
v 6.91129 0.63000 -2.28941
v 6.81602 0.63000 -2.12441
v 6.62550 0.63000 -2.12441
v 6.53023 0.63000 -2.28941
v 6.62550 0.63000 -2.45441
v 6.81602 0.63000 -2.45441
v 6.91129 0.73000 -2.28941
v 6.81602 0.73000 -2.12441
v 6.62550 0.73000 -2.12441
v 6.53023 0.73000 -2.28941
v 6.62550 0.73000 -2.45441
v 6.81602 0.73000 -2.45441
v 6.72076 0.58000 -2.28941
v 6.72076 0.78000 -2.28941
v 0.00000 0.60000 0.00000
v 0.00000 0.60000 0.00000
v 0.00000 0.60000 0.00000
v 0.00000 0.60000 0.00000
v 0.00000 0.60000 0.00000
v -0.00000 0.60000 0.00000
v -0.00000 0.60000 0.00000
v -0.00000 0.60000 0.00000
v -0.00000 0.60000 0.00000
v -0.00000 0.60000 -0.00000
v -0.00000 0.60000 -0.00000
v -0.00000 0.60000 -0.00000
v -0.00000 0.60000 -0.00000
v 0.00000 0.60000 -0.00000
v 0.00000 0.60000 -0.00000
v 0.00000 0.60000 -0.00000
v 1.30000 0.60000 0.00000
v 1.20104 0.60000 0.49749
v 0.91924 0.60000 0.91924
v 0.49749 0.60000 1.20104
v 0.00000 0.60000 1.30000
v -0.49749 0.60000 1.20104
v -0.91924 0.60000 0.91924
v -1.20104 0.60000 0.49749
v -1.30000 0.60000 0.00000
v -1.20104 0.60000 -0.49749
v -0.91924 0.60000 -0.91924
v -0.49749 0.60000 -1.20104
v -0.00000 0.60000 -1.30000
v 0.49749 0.60000 -1.20104
v 0.91924 0.60000 -0.91924
v 1.20104 0.60000 -0.49749
v 0.80000 1.40000 0.00000
v 0.73910 1.40000 0.30615
v 0.56569 1.40000 0.56569
v 0.30615 1.40000 0.73910
v 0.00000 1.40000 0.80000
v -0.30615 1.40000 0.73910
v -0.56569 1.40000 0.56569
v -0.73910 1.40000 0.30615
v -0.80000 1.40000 0.00000
v -0.73910 1.40000 -0.30615
v -0.56569 1.40000 -0.56569
v -0.30615 1.40000 -0.73910
v -0.00000 1.40000 -0.80000
v 0.30615 1.40000 -0.73910
v 0.56569 1.40000 -0.56569
v 0.73910 1.40000 -0.30615
v 0.50000 2.20000 0.00000
v 0.46194 2.20000 0.19134
v 0.35355 2.20000 0.35355
v 0.19134 2.20000 0.46194
v 0.00000 2.20000 0.50000
v -0.19134 2.20000 0.46194
v -0.35355 2.20000 0.35355
v -0.46194 2.20000 0.19134
v -0.50000 2.20000 0.00000
v -0.46194 2.20000 -0.19134
v -0.35355 2.20000 -0.35355
v -0.19134 2.20000 -0.46194
v -0.00000 2.20000 -0.50000
v 0.19134 2.20000 -0.46194
v 0.35355 2.20000 -0.35355
v 0.46194 2.20000 -0.19134
v 0.00000 2.40000 0.00000
v 0.00000 2.40000 0.00000
v 0.00000 2.40000 0.00000
v 0.00000 2.40000 0.00000
v 0.00000 2.40000 0.00000
v -0.00000 2.40000 0.00000
v -0.00000 2.40000 0.00000
v -0.00000 2.40000 0.00000
v -0.00000 2.40000 0.00000
v -0.00000 2.40000 -0.00000
v -0.00000 2.40000 -0.00000
v -0.00000 2.40000 -0.00000
v -0.00000 2.40000 -0.00000
v 0.00000 2.40000 -0.00000
v 0.00000 2.40000 -0.00000
v 0.00000 2.40000 -0.00000
v 0.61564 2.50855 0.00000
v 0.56877 2.50855 0.23559
v 0.43532 2.50855 0.43532
v 0.23559 2.50855 0.56877
v 0.00000 2.50855 0.61564
v -0.23559 2.50855 0.56877
v -0.43532 2.50855 0.43532
v -0.56877 2.50855 0.23559
v -0.61564 2.50855 0.00000
v -0.56877 2.50855 -0.23559
v -0.43532 2.50855 -0.43532
v -0.23559 2.50855 -0.56877
v -0.00000 2.50855 -0.61564
v 0.23559 2.50855 -0.56877
v 0.43532 2.50855 -0.43532
v 0.56877 2.50855 -0.23559
v 1.15702 2.82112 0.00000
v 1.06894 2.82112 0.44277
v 0.81814 2.82112 0.81814
v 0.44277 2.82112 1.06894
v 0.00000 2.82112 1.15702
v -0.44277 2.82112 1.06894
v -0.81814 2.82112 0.81814
v -1.06894 2.82112 0.44277
v -1.15702 2.82112 0.00000
v -1.06894 2.82112 -0.44277
v -0.81814 2.82112 -0.81814
v -0.44277 2.82112 -1.06894
v -0.00000 2.82112 -1.15702
v 0.44277 2.82112 -1.06894
v 0.81814 2.82112 -0.81814
v 1.06894 2.82112 -0.44277
v 1.55885 3.30000 0.00000
v 1.44019 3.30000 0.59654
v 1.10227 3.30000 1.10227
v 0.59654 3.30000 1.44019
v 0.00000 3.30000 1.55885
v -0.59654 3.30000 1.44019
v -1.10227 3.30000 1.10227
v -1.44019 3.30000 0.59654
v -1.55885 3.30000 0.00000
v -1.44019 3.30000 -0.59654
v -1.10227 3.30000 -1.10227
v -0.59654 3.30000 -1.44019
v -0.00000 3.30000 -1.55885
v 0.59654 3.30000 -1.44019
v 1.10227 3.30000 -1.10227
v 1.44019 3.30000 -0.59654
v 1.77265 3.88743 0.00000
v 1.63772 3.88743 0.67837
v 1.25346 3.88743 1.25346
v 0.67837 3.88743 1.63772
v 0.00000 3.88743 1.77265
v -0.67837 3.88743 1.63772
v -1.25346 3.88743 1.25346
v -1.63772 3.88743 0.67837
v -1.77265 3.88743 0.00000
v -1.63772 3.88743 -0.67837
v -1.25346 3.88743 -1.25346
v -0.67837 3.88743 -1.63772
v -0.00000 3.88743 -1.77265
v 0.67837 3.88743 -1.63772
v 1.25346 3.88743 -1.25346
v 1.63772 3.88743 -0.67837
v 1.77265 4.51257 0.00000
v 1.63772 4.51257 0.67837
v 1.25346 4.51257 1.25346
v 0.67837 4.51257 1.63772
v 0.00000 4.51257 1.77265
v -0.67837 4.51257 1.63772
v -1.25346 4.51257 1.25346
v -1.63772 4.51257 0.67837
v -1.77265 4.51257 0.00000
v -1.63772 4.51257 -0.67837
v -1.25346 4.51257 -1.25346
v -0.67837 4.51257 -1.63772
v -0.00000 4.51257 -1.77265
v 0.67837 4.51257 -1.63772
v 1.25346 4.51257 -1.25346
v 1.63772 4.51257 -0.67837
v 1.55885 5.10000 0.00000
v 1.44019 5.10000 0.59654
v 1.10227 5.10000 1.10227
v 0.59654 5.10000 1.44019
v 0.00000 5.10000 1.55885
v -0.59654 5.10000 1.44019
v -1.10227 5.10000 1.10227
v -1.44019 5.10000 0.59654
v -1.55885 5.10000 0.00000
v -1.44019 5.10000 -0.59654
v -1.10227 5.10000 -1.10227
v -0.59654 5.10000 -1.44019
v -0.00000 5.10000 -1.55885
v 0.59654 5.10000 -1.44019
v 1.10227 5.10000 -1.10227
v 1.44019 5.10000 -0.59654
v 1.15702 5.57888 0.00000
v 1.06894 5.57888 0.44277
v 0.81814 5.57888 0.81814
v 0.44277 5.57888 1.06894
v 0.00000 5.57888 1.15702
v -0.44277 5.57888 1.06894
v -0.81814 5.57888 0.81814
v -1.06894 5.57888 0.44277
v -1.15702 5.57888 0.00000
v -1.06894 5.57888 -0.44277
v -0.81814 5.57888 -0.81814
v -0.44277 5.57888 -1.06894
v -0.00000 5.57888 -1.15702
v 0.44277 5.57888 -1.06894
v 0.81814 5.57888 -0.81814
v 1.06894 5.57888 -0.44277
v 0.61564 5.89145 0.00000
v 0.56877 5.89145 0.23559
v 0.43532 5.89145 0.43532
v 0.23559 5.89145 0.56877
v 0.00000 5.89145 0.61564
v -0.23559 5.89145 0.56877
v -0.43532 5.89145 0.43532
v -0.56877 5.89145 0.23559
v -0.61564 5.89145 0.00000
v -0.56877 5.89145 -0.23559
v -0.43532 5.89145 -0.43532
v -0.23559 5.89145 -0.56877
v -0.00000 5.89145 -0.61564
v 0.23559 5.89145 -0.56877
v 0.43532 5.89145 -0.43532
v 0.56877 5.89145 -0.23559
v 0.00000 2.40000 0.00000
v 0.00000 6.00000 0.00000
v 2.98000 4.20000 0.00000
v 2.89000 4.35588 0.00000
v 2.71000 4.35588 0.00000
v 2.62000 4.20000 0.00000
v 2.71000 4.04412 0.00000
v 2.89000 4.04412 0.00000
v 2.90529 4.20000 0.66311
v 2.81754 4.35588 0.64309
v 2.64205 4.35588 0.60303
v 2.55431 4.20000 0.58300
v 2.64205 4.04412 0.60303
v 2.81754 4.04412 0.64309
v 2.68489 4.20000 1.29297
v 2.60380 4.35588 1.25392
v 2.44163 4.35588 1.17582
v 2.36054 4.20000 1.13678
v 2.44163 4.04412 1.17582
v 2.60380 4.04412 1.25392
v 2.32986 4.20000 1.85800
v 2.25949 4.35588 1.80189
v 2.11876 4.35588 1.68966
v 2.04840 4.20000 1.63354
v 2.11876 4.04412 1.68966
v 2.25949 4.04412 1.80189
v 1.85800 4.20000 2.32986
v 1.80189 4.35588 2.25949
v 1.68966 4.35588 2.11876
v 1.63354 4.20000 2.04840
v 1.68966 4.04412 2.11876
v 1.80189 4.04412 2.25949
v 1.29297 4.20000 2.68489
v 1.25392 4.35588 2.60380
v 1.17582 4.35588 2.44163
v 1.13678 4.20000 2.36054
v 1.17582 4.04412 2.44163
v 1.25392 4.04412 2.60380
v 0.66311 4.20000 2.90529
v 0.64309 4.35588 2.81754
v 0.60303 4.35588 2.64205
v 0.58300 4.20000 2.55431
v 0.60303 4.04412 2.64205
v 0.64309 4.04412 2.81754
v 0.00000 4.20000 2.98000
v 0.00000 4.35588 2.89000
v 0.00000 4.35588 2.71000
v 0.00000 4.20000 2.62000
v 0.00000 4.04412 2.71000
v 0.00000 4.04412 2.89000
v -0.66311 4.20000 2.90529
v -0.64309 4.35588 2.81754
v -0.60303 4.35588 2.64205
v -0.58300 4.20000 2.55431
v -0.60303 4.04412 2.64205
v -0.64309 4.04412 2.81754
v -1.29297 4.20000 2.68489
v -1.25392 4.35588 2.60380
v -1.17582 4.35588 2.44163
v -1.13678 4.20000 2.36054
v -1.17582 4.04412 2.44163
v -1.25392 4.04412 2.60380
v -1.85800 4.20000 2.32986
v -1.80189 4.35588 2.25949
v -1.68966 4.35588 2.11876
v -1.63354 4.20000 2.04840
v -1.68966 4.04412 2.11876
v -1.80189 4.04412 2.25949
v -2.32986 4.20000 1.85800
v -2.25949 4.35588 1.80189
v -2.11876 4.35588 1.68966
v -2.04840 4.20000 1.63354
v -2.11876 4.04412 1.68966
v -2.25949 4.04412 1.80189
v -2.68489 4.20000 1.29297
v -2.60380 4.35588 1.25392
v -2.44163 4.35588 1.17582
v -2.36054 4.20000 1.13678
v -2.44163 4.04412 1.17582
v -2.60380 4.04412 1.25392
v -2.90529 4.20000 0.66311
v -2.81754 4.35588 0.64309
v -2.64205 4.35588 0.60303
v -2.55431 4.20000 0.58300
v -2.64205 4.04412 0.60303
v -2.81754 4.04412 0.64309
v -2.98000 4.20000 0.00000
v -2.89000 4.35588 0.00000
v -2.71000 4.35588 0.00000
v -2.62000 4.20000 0.00000
v -2.71000 4.04412 0.00000
v -2.89000 4.04412 0.00000
v -2.90529 4.20000 -0.66311
v -2.81754 4.35588 -0.64309
v -2.64205 4.35588 -0.60303
v -2.55431 4.20000 -0.58300
v -2.64205 4.04412 -0.60303
v -2.81754 4.04412 -0.64309
v -2.68489 4.20000 -1.29297
v -2.60380 4.35588 -1.25392
v -2.44163 4.35588 -1.17582
v -2.36054 4.20000 -1.13678
v -2.44163 4.04412 -1.17582
v -2.60380 4.04412 -1.25392
v -2.32986 4.20000 -1.85800
v -2.25949 4.35588 -1.80189
v -2.11876 4.35588 -1.68966
v -2.04840 4.20000 -1.63354
v -2.11876 4.04412 -1.68966
v -2.25949 4.04412 -1.80189
v -1.85800 4.20000 -2.32986
v -1.80189 4.35588 -2.25949
v -1.68966 4.35588 -2.11876
v -1.63354 4.20000 -2.04840
v -1.68966 4.04412 -2.11876
v -1.80189 4.04412 -2.25949
v -1.29297 4.20000 -2.68489
v -1.25392 4.35588 -2.60380
v -1.17582 4.35588 -2.44163
v -1.13678 4.20000 -2.36054
v -1.17582 4.04412 -2.44163
v -1.25392 4.04412 -2.60380
v -0.66311 4.20000 -2.90529
v -0.64309 4.35588 -2.81754
v -0.60303 4.35588 -2.64205
v -0.58300 4.20000 -2.55431
v -0.60303 4.04412 -2.64205
v -0.64309 4.04412 -2.81754
v -0.00000 4.20000 -2.98000
v -0.00000 4.35588 -2.89000
v -0.00000 4.35588 -2.71000
v -0.00000 4.20000 -2.62000
v -0.00000 4.04412 -2.71000
v -0.00000 4.04412 -2.89000
v 0.66311 4.20000 -2.90529
v 0.64309 4.35588 -2.81754
v 0.60303 4.35588 -2.64205
v 0.58300 4.20000 -2.55431
v 0.60303 4.04412 -2.64205
v 0.64309 4.04412 -2.81754
v 1.29297 4.20000 -2.68489
v 1.25392 4.35588 -2.60380
v 1.17582 4.35588 -2.44163
v 1.13678 4.20000 -2.36054
v 1.17582 4.04412 -2.44163
v 1.25392 4.04412 -2.60380
v 1.85800 4.20000 -2.32986
v 1.80189 4.35588 -2.25949
v 1.68966 4.35588 -2.11876
v 1.63354 4.20000 -2.04840
v 1.68966 4.04412 -2.11876
v 1.80189 4.04412 -2.25949
v 2.32986 4.20000 -1.85800
v 2.25949 4.35588 -1.80189
v 2.11876 4.35588 -1.68966
v 2.04840 4.20000 -1.63354
v 2.11876 4.04412 -1.68966
v 2.25949 4.04412 -1.80189
v 2.68489 4.20000 -1.29297
v 2.60380 4.35588 -1.25392
v 2.44163 4.35588 -1.17582
v 2.36054 4.20000 -1.13678
v 2.44163 4.04412 -1.17582
v 2.60380 4.04412 -1.25392
v 2.90529 4.20000 -0.66311
v 2.81754 4.35588 -0.64309
v 2.64205 4.35588 -0.60303
v 2.55431 4.20000 -0.58300
v 2.64205 4.04412 -0.60303
v 2.81754 4.04412 -0.64309
v 2.63511 5.27639 0.60000
v 2.56625 5.27639 0.76625
v 2.40000 5.27639 0.83511
v 2.23375 5.27639 0.76625
v 2.16489 5.27639 0.60000
v 2.23375 5.27639 0.43375
v 2.40000 5.27639 0.36489
v 2.56625 5.27639 0.43375
v 2.78042 5.47639 0.60000
v 2.66900 5.47639 0.86900
v 2.40000 5.47639 0.98042
v 2.13100 5.47639 0.86900
v 2.01958 5.47639 0.60000
v 2.13100 5.47639 0.33100
v 2.40000 5.47639 0.21958
v 2.66900 5.47639 0.33100
v 2.78042 5.72361 0.60000
v 2.66900 5.72361 0.86900
v 2.40000 5.72361 0.98042
v 2.13100 5.72361 0.86900
v 2.01958 5.72361 0.60000
v 2.13100 5.72361 0.33100
v 2.40000 5.72361 0.21958
v 2.66900 5.72361 0.33100
v 2.63511 5.92361 0.60000
v 2.56625 5.92361 0.76625
v 2.40000 5.92361 0.83511
v 2.23375 5.92361 0.76625
v 2.16489 5.92361 0.60000
v 2.23375 5.92361 0.43375
v 2.40000 5.92361 0.36489
v 2.56625 5.92361 0.43375
v 2.40000 5.20000 0.60000
v 2.40000 6.00000 0.60000
v 0.00000 0.90000 0.18000
v 0.00000 0.77272 0.12728
v 0.00000 0.72000 0.00000
v 0.00000 0.77272 -0.12728
v 0.00000 0.90000 -0.18000
v 0.00000 1.02728 -0.12728
v 0.00000 1.08000 -0.00000
v 0.00000 1.02728 0.12728
v 5.40000 0.90000 0.18000
v 5.40000 0.77272 0.12728
v 5.40000 0.72000 0.00000
v 5.40000 0.77272 -0.12728
v 5.40000 0.90000 -0.18000
v 5.40000 1.02728 -0.12728
v 5.40000 1.08000 -0.00000
v 5.40000 1.02728 0.12728
v 0.00000 0.90000 0.00000
v 5.40000 0.90000 0.00000
v 6.90000 0.60000 0.00000
v 6.90000 0.90000 0.00000
v 6.84889 0.60000 0.38823
v 6.84889 0.90000 0.38823
v 6.69904 0.60000 0.75000
v 6.69904 0.90000 0.75000
v 6.46066 0.60000 1.06066
v 6.46066 0.90000 1.06066
v 6.15000 0.60000 1.29904
v 6.15000 0.90000 1.29904
v 5.78823 0.60000 1.44889
v 5.78823 0.90000 1.44889
v 5.40000 0.60000 1.50000
v 5.40000 0.90000 1.50000
v 5.01177 0.60000 1.44889
v 5.01177 0.90000 1.44889
v 4.65000 0.60000 1.29904
v 4.65000 0.90000 1.29904
v 4.33934 0.60000 1.06066
v 4.33934 0.90000 1.06066
v 4.10096 0.60000 0.75000
v 4.10096 0.90000 0.75000
v 3.95111 0.60000 0.38823
v 3.95111 0.90000 0.38823
v 3.90000 0.60000 0.00000
v 3.90000 0.90000 0.00000
v 3.95111 0.60000 -0.38823
v 3.95111 0.90000 -0.38823
v 4.10096 0.60000 -0.75000
v 4.10096 0.90000 -0.75000
v 4.33934 0.60000 -1.06066
v 4.33934 0.90000 -1.06066
v 4.65000 0.60000 -1.29904
v 4.65000 0.90000 -1.29904
v 5.01177 0.60000 -1.44889
v 5.01177 0.90000 -1.44889
v 5.40000 0.60000 -1.50000
v 5.40000 0.90000 -1.50000
v 5.78823 0.60000 -1.44889
v 5.78823 0.90000 -1.44889
v 6.15000 0.60000 -1.29904
v 6.15000 0.90000 -1.29904
v 6.46066 0.60000 -1.06066
v 6.46066 0.90000 -1.06066
v 6.69904 0.60000 -0.75000
v 6.69904 0.90000 -0.75000
v 6.84889 0.60000 -0.38823
v 6.84889 0.90000 -0.38823
v 5.40000 0.60000 0.00000
v 5.40000 0.90000 0.00000
v 6.60000 0.90000 0.00000
v 6.60000 0.98000 0.00000
v 6.55911 0.90000 0.31058
v 6.55911 0.98000 0.31058
v 6.43923 0.90000 0.60000
v 6.43923 0.98000 0.60000
v 6.24853 0.90000 0.84853
v 6.24853 0.98000 0.84853
v 6.00000 0.90000 1.03923
v 6.00000 0.98000 1.03923
v 5.71058 0.90000 1.15911
v 5.71058 0.98000 1.15911
v 5.40000 0.90000 1.20000
v 5.40000 0.98000 1.20000
v 5.08942 0.90000 1.15911
v 5.08942 0.98000 1.15911
v 4.80000 0.90000 1.03923
v 4.80000 0.98000 1.03923
v 4.55147 0.90000 0.84853
v 4.55147 0.98000 0.84853
v 4.36077 0.90000 0.60000
v 4.36077 0.98000 0.60000
v 4.24089 0.90000 0.31058
v 4.24089 0.98000 0.31058
v 4.20000 0.90000 0.00000
v 4.20000 0.98000 0.00000
v 4.24089 0.90000 -0.31058
v 4.24089 0.98000 -0.31058
v 4.36077 0.90000 -0.60000
v 4.36077 0.98000 -0.60000
v 4.55147 0.90000 -0.84853
v 4.55147 0.98000 -0.84853
v 4.80000 0.90000 -1.03923
v 4.80000 0.98000 -1.03923
v 5.08942 0.90000 -1.15911
v 5.08942 0.98000 -1.15911
v 5.40000 0.90000 -1.20000
v 5.40000 0.98000 -1.20000
v 5.71058 0.90000 -1.15911
v 5.71058 0.98000 -1.15911
v 6.00000 0.90000 -1.03923
v 6.00000 0.98000 -1.03923
v 6.24853 0.90000 -0.84853
v 6.24853 0.98000 -0.84853
v 6.43923 0.90000 -0.60000
v 6.43923 0.98000 -0.60000
v 6.55911 0.90000 -0.31058
v 6.55911 0.98000 -0.31058
v 5.40000 0.90000 0.00000
v 5.40000 0.98000 0.00000
v -0.15588 0.90000 0.09000
v -0.11023 0.77272 0.06364
v -0.00000 0.72000 0.00000
v 0.11023 0.77272 -0.06364
v 0.15588 0.90000 -0.09000
v 0.11023 1.02728 -0.06364
v 0.00000 1.08000 -0.00000
v -0.11023 1.02728 0.06364
v 2.54412 0.90000 4.76654
v 2.58977 0.77272 4.74018
v 2.70000 0.72000 4.67654
v 2.81023 0.77272 4.61290
v 2.85588 0.90000 4.58654
v 2.81023 1.02728 4.61290
v 2.70000 1.08000 4.67654
v 2.58977 1.02728 4.74018
v 0.00000 0.90000 0.00000
v 2.70000 0.90000 4.67654
v 4.20000 0.60000 4.67654
v 4.20000 0.90000 4.67654
v 4.14889 0.60000 5.06477
v 4.14889 0.90000 5.06477
v 3.99904 0.60000 5.42654
v 3.99904 0.90000 5.42654
v 3.76066 0.60000 5.73720
v 3.76066 0.90000 5.73720
v 3.45000 0.60000 5.97558
v 3.45000 0.90000 5.97558
v 3.08823 0.60000 6.12543
v 3.08823 0.90000 6.12543
v 2.70000 0.60000 6.17654
v 2.70000 0.90000 6.17654
v 2.31177 0.60000 6.12543
v 2.31177 0.90000 6.12543
v 1.95000 0.60000 5.97558
v 1.95000 0.90000 5.97558
v 1.63934 0.60000 5.73720
v 1.63934 0.90000 5.73720
v 1.40096 0.60000 5.42654
v 1.40096 0.90000 5.42654
v 1.25111 0.60000 5.06477
v 1.25111 0.90000 5.06477
v 1.20000 0.60000 4.67654
v 1.20000 0.90000 4.67654
v 1.25111 0.60000 4.28831
v 1.25111 0.90000 4.28831
v 1.40096 0.60000 3.92654
v 1.40096 0.90000 3.92654
v 1.63934 0.60000 3.61588
v 1.63934 0.90000 3.61588
v 1.95000 0.60000 3.37750
v 1.95000 0.90000 3.37750
v 2.31177 0.60000 3.22765
v 2.31177 0.90000 3.22765
v 2.70000 0.60000 3.17654
v 2.70000 0.90000 3.17654
v 3.08823 0.60000 3.22765
v 3.08823 0.90000 3.22765
v 3.45000 0.60000 3.37750
v 3.45000 0.90000 3.37750
v 3.76066 0.60000 3.61588
v 3.76066 0.90000 3.61588
v 3.99904 0.60000 3.92654
v 3.99904 0.90000 3.92654
v 4.14889 0.60000 4.28831
v 4.14889 0.90000 4.28831
v 2.70000 0.60000 4.67654
v 2.70000 0.90000 4.67654
v 3.90000 0.90000 4.67654
v 3.90000 0.98000 4.67654
v 3.85911 0.90000 4.98712
v 3.85911 0.98000 4.98712
v 3.73923 0.90000 5.27654
v 3.73923 0.98000 5.27654
v 3.54853 0.90000 5.52507
v 3.54853 0.98000 5.52507
v 3.30000 0.90000 5.71577
v 3.30000 0.98000 5.71577
v 3.01058 0.90000 5.83565
v 3.01058 0.98000 5.83565
v 2.70000 0.90000 5.87654
v 2.70000 0.98000 5.87654
v 2.38942 0.90000 5.83565
v 2.38942 0.98000 5.83565
v 2.10000 0.90000 5.71577
v 2.10000 0.98000 5.71577
v 1.85147 0.90000 5.52507
v 1.85147 0.98000 5.52507
v 1.66077 0.90000 5.27654
v 1.66077 0.98000 5.27654
v 1.54089 0.90000 4.98712
v 1.54089 0.98000 4.98712
v 1.50000 0.90000 4.67654
v 1.50000 0.98000 4.67654
v 1.54089 0.90000 4.36595
v 1.54089 0.98000 4.36595
v 1.66077 0.90000 4.07654
v 1.66077 0.98000 4.07654
v 1.85147 0.90000 3.82801
v 1.85147 0.98000 3.82801
v 2.10000 0.90000 3.63731
v 2.10000 0.98000 3.63731
v 2.38942 0.90000 3.51743
v 2.38942 0.98000 3.51743
v 2.70000 0.90000 3.47654
v 2.70000 0.98000 3.47654
v 3.01058 0.90000 3.51743
v 3.01058 0.98000 3.51743
v 3.30000 0.90000 3.63731
v 3.30000 0.98000 3.63731
v 3.54853 0.90000 3.82801
v 3.54853 0.98000 3.82801
v 3.73923 0.90000 4.07654
v 3.73923 0.98000 4.07654
v 3.85911 0.90000 4.36595
v 3.85911 0.98000 4.36595
v 2.70000 0.90000 4.67654
v 2.70000 0.98000 4.67654
v -0.15588 0.90000 -0.09000
v -0.11023 0.77272 -0.06364
v -0.00000 0.72000 -0.00000
v 0.11023 0.77272 0.06364
v 0.15588 0.90000 0.09000
v 0.11023 1.02728 0.06364
v 0.00000 1.08000 0.00000
v -0.11023 1.02728 -0.06364
v -2.85588 0.90000 4.58654
v -2.81023 0.77272 4.61290
v -2.70000 0.72000 4.67654
v -2.58977 0.77272 4.74018
v -2.54412 0.90000 4.76654
v -2.58977 1.02728 4.74018
v -2.70000 1.08000 4.67654
v -2.81023 1.02728 4.61290
v 0.00000 0.90000 0.00000
v -2.70000 0.90000 4.67654
v -1.20000 0.60000 4.67654
v -1.20000 0.90000 4.67654
v -1.25111 0.60000 5.06477
v -1.25111 0.90000 5.06477
v -1.40096 0.60000 5.42654
v -1.40096 0.90000 5.42654
v -1.63934 0.60000 5.73720
v -1.63934 0.90000 5.73720
v -1.95000 0.60000 5.97558
v -1.95000 0.90000 5.97558
v -2.31177 0.60000 6.12543
v -2.31177 0.90000 6.12543
v -2.70000 0.60000 6.17654
v -2.70000 0.90000 6.17654
v -3.08823 0.60000 6.12543
v -3.08823 0.90000 6.12543
v -3.45000 0.60000 5.97558
v -3.45000 0.90000 5.97558
v -3.76066 0.60000 5.73720
v -3.76066 0.90000 5.73720
v -3.99904 0.60000 5.42654
v -3.99904 0.90000 5.42654
v -4.14889 0.60000 5.06477
v -4.14889 0.90000 5.06477
v -4.20000 0.60000 4.67654
v -4.20000 0.90000 4.67654
v -4.14889 0.60000 4.28831
v -4.14889 0.90000 4.28831
v -3.99904 0.60000 3.92654
v -3.99904 0.90000 3.92654
v -3.76066 0.60000 3.61588
v -3.76066 0.90000 3.61588
v -3.45000 0.60000 3.37750
v -3.45000 0.90000 3.37750
v -3.08823 0.60000 3.22765
v -3.08823 0.90000 3.22765
v -2.70000 0.60000 3.17654
v -2.70000 0.90000 3.17654
v -2.31177 0.60000 3.22765
v -2.31177 0.90000 3.22765
v -1.95000 0.60000 3.37750
v -1.95000 0.90000 3.37750
v -1.63934 0.60000 3.61588
v -1.63934 0.90000 3.61588
v -1.40096 0.60000 3.92654
v -1.40096 0.90000 3.92654
v -1.25111 0.60000 4.28831
v -1.25111 0.90000 4.28831
v -2.70000 0.60000 4.67654
v -2.70000 0.90000 4.67654
v -1.50000 0.90000 4.67654
v -1.50000 0.98000 4.67654
v -1.54089 0.90000 4.98712
v -1.54089 0.98000 4.98712
v -1.66077 0.90000 5.27654
v -1.66077 0.98000 5.27654
v -1.85147 0.90000 5.52507
v -1.85147 0.98000 5.52507
v -2.10000 0.90000 5.71577
v -2.10000 0.98000 5.71577
v -2.38942 0.90000 5.83565
v -2.38942 0.98000 5.83565
v -2.70000 0.90000 5.87654
v -2.70000 0.98000 5.87654
v -3.01058 0.90000 5.83565
v -3.01058 0.98000 5.83565
v -3.30000 0.90000 5.71577
v -3.30000 0.98000 5.71577
v -3.54853 0.90000 5.52507
v -3.54853 0.98000 5.52507
v -3.73923 0.90000 5.27654
v -3.73923 0.98000 5.27654
v -3.85911 0.90000 4.98712
v -3.85911 0.98000 4.98712
v -3.90000 0.90000 4.67654
v -3.90000 0.98000 4.67654
v -3.85911 0.90000 4.36595
v -3.85911 0.98000 4.36595
v -3.73923 0.90000 4.07654
v -3.73923 0.98000 4.07654
v -3.54853 0.90000 3.82801
v -3.54853 0.98000 3.82801
v -3.30000 0.90000 3.63731
v -3.30000 0.98000 3.63731
v -3.01058 0.90000 3.51743
v -3.01058 0.98000 3.51743
v -2.70000 0.90000 3.47654
v -2.70000 0.98000 3.47654
v -2.38942 0.90000 3.51743
v -2.38942 0.98000 3.51743
v -2.10000 0.90000 3.63731
v -2.10000 0.98000 3.63731
v -1.85147 0.90000 3.82801
v -1.85147 0.98000 3.82801
v -1.66077 0.90000 4.07654
v -1.66077 0.98000 4.07654
v -1.54089 0.90000 4.36595
v -1.54089 0.98000 4.36595
v -2.70000 0.90000 4.67654
v -2.70000 0.98000 4.67654
v -0.00000 0.90000 -0.18000
v -0.00000 0.77272 -0.12728
v -0.00000 0.72000 -0.00000
v 0.00000 0.77272 0.12728
v 0.00000 0.90000 0.18000
v 0.00000 1.02728 0.12728
v 0.00000 1.08000 0.00000
v -0.00000 1.02728 -0.12728
v -5.40000 0.90000 -0.18000
v -5.40000 0.77272 -0.12728
v -5.40000 0.72000 0.00000
v -5.40000 0.77272 0.12728
v -5.40000 0.90000 0.18000
v -5.40000 1.02728 0.12728
v -5.40000 1.08000 0.00000
v -5.40000 1.02728 -0.12728
v 0.00000 0.90000 0.00000
v -5.40000 0.90000 0.00000
v -3.90000 0.60000 0.00000
v -3.90000 0.90000 0.00000
v -3.95111 0.60000 0.38823
v -3.95111 0.90000 0.38823
v -4.10096 0.60000 0.75000
v -4.10096 0.90000 0.75000
v -4.33934 0.60000 1.06066
v -4.33934 0.90000 1.06066
v -4.65000 0.60000 1.29904
v -4.65000 0.90000 1.29904
v -5.01177 0.60000 1.44889
v -5.01177 0.90000 1.44889
v -5.40000 0.60000 1.50000
v -5.40000 0.90000 1.50000
v -5.78823 0.60000 1.44889
v -5.78823 0.90000 1.44889
v -6.15000 0.60000 1.29904
v -6.15000 0.90000 1.29904
v -6.46066 0.60000 1.06066
v -6.46066 0.90000 1.06066
v -6.69904 0.60000 0.75000
v -6.69904 0.90000 0.75000
v -6.84889 0.60000 0.38823
v -6.84889 0.90000 0.38823
v -6.90000 0.60000 0.00000
v -6.90000 0.90000 0.00000
v -6.84889 0.60000 -0.38823
v -6.84889 0.90000 -0.38823
v -6.69904 0.60000 -0.75000
v -6.69904 0.90000 -0.75000
v -6.46066 0.60000 -1.06066
v -6.46066 0.90000 -1.06066
v -6.15000 0.60000 -1.29904
v -6.15000 0.90000 -1.29904
v -5.78823 0.60000 -1.44889
v -5.78823 0.90000 -1.44889
v -5.40000 0.60000 -1.50000
v -5.40000 0.90000 -1.50000
v -5.01177 0.60000 -1.44889
v -5.01177 0.90000 -1.44889
v -4.65000 0.60000 -1.29904
v -4.65000 0.90000 -1.29904
v -4.33934 0.60000 -1.06066
v -4.33934 0.90000 -1.06066
v -4.10096 0.60000 -0.75000
v -4.10096 0.90000 -0.75000
v -3.95111 0.60000 -0.38823
v -3.95111 0.90000 -0.38823
v -5.40000 0.60000 0.00000
v -5.40000 0.90000 0.00000
v -4.20000 0.90000 0.00000
v -4.20000 0.98000 0.00000
v -4.24089 0.90000 0.31058
v -4.24089 0.98000 0.31058
v -4.36077 0.90000 0.60000
v -4.36077 0.98000 0.60000
v -4.55147 0.90000 0.84853
v -4.55147 0.98000 0.84853
v -4.80000 0.90000 1.03923
v -4.80000 0.98000 1.03923
v -5.08942 0.90000 1.15911
v -5.08942 0.98000 1.15911
v -5.40000 0.90000 1.20000
v -5.40000 0.98000 1.20000
v -5.71058 0.90000 1.15911
v -5.71058 0.98000 1.15911
v -6.00000 0.90000 1.03923
v -6.00000 0.98000 1.03923
v -6.24853 0.90000 0.84853
v -6.24853 0.98000 0.84853
v -6.43923 0.90000 0.60000
v -6.43923 0.98000 0.60000
v -6.55911 0.90000 0.31058
v -6.55911 0.98000 0.31058
v -6.60000 0.90000 0.00000
v -6.60000 0.98000 0.00000
v -6.55911 0.90000 -0.31058
v -6.55911 0.98000 -0.31058
v -6.43923 0.90000 -0.60000
v -6.43923 0.98000 -0.60000
v -6.24853 0.90000 -0.84853
v -6.24853 0.98000 -0.84853
v -6.00000 0.90000 -1.03923
v -6.00000 0.98000 -1.03923
v -5.71058 0.90000 -1.15911
v -5.71058 0.98000 -1.15911
v -5.40000 0.90000 -1.20000
v -5.40000 0.98000 -1.20000
v -5.08942 0.90000 -1.15911
v -5.08942 0.98000 -1.15911
v -4.80000 0.90000 -1.03923
v -4.80000 0.98000 -1.03923
v -4.55147 0.90000 -0.84853
v -4.55147 0.98000 -0.84853
v -4.36077 0.90000 -0.60000
v -4.36077 0.98000 -0.60000
v -4.24089 0.90000 -0.31058
v -4.24089 0.98000 -0.31058
v -5.40000 0.90000 0.00000
v -5.40000 0.98000 0.00000
v 0.15588 0.90000 -0.09000
v 0.11023 0.77272 -0.06364
v 0.00000 0.72000 -0.00000
v -0.11023 0.77272 0.06364
v -0.15588 0.90000 0.09000
v -0.11023 1.02728 0.06364
v -0.00000 1.08000 0.00000
v 0.11023 1.02728 -0.06364
v -2.54412 0.90000 -4.76654
v -2.58977 0.77272 -4.74018
v -2.70000 0.72000 -4.67654
v -2.81023 0.77272 -4.61290
v -2.85588 0.90000 -4.58654
v -2.81023 1.02728 -4.61290
v -2.70000 1.08000 -4.67654
v -2.58977 1.02728 -4.74018
v 0.00000 0.90000 0.00000
v -2.70000 0.90000 -4.67654
v -1.20000 0.60000 -4.67654
v -1.20000 0.90000 -4.67654
v -1.25111 0.60000 -4.28831
v -1.25111 0.90000 -4.28831
v -1.40096 0.60000 -3.92654
v -1.40096 0.90000 -3.92654
v -1.63934 0.60000 -3.61588
v -1.63934 0.90000 -3.61588
v -1.95000 0.60000 -3.37750
v -1.95000 0.90000 -3.37750
v -2.31177 0.60000 -3.22765
v -2.31177 0.90000 -3.22765
v -2.70000 0.60000 -3.17654
v -2.70000 0.90000 -3.17654
v -3.08823 0.60000 -3.22765
v -3.08823 0.90000 -3.22765
v -3.45000 0.60000 -3.37750
v -3.45000 0.90000 -3.37750
v -3.76066 0.60000 -3.61588
v -3.76066 0.90000 -3.61588
v -3.99904 0.60000 -3.92654
v -3.99904 0.90000 -3.92654
v -4.14889 0.60000 -4.28831
v -4.14889 0.90000 -4.28831
v -4.20000 0.60000 -4.67654
v -4.20000 0.90000 -4.67654
v -4.14889 0.60000 -5.06477
v -4.14889 0.90000 -5.06477
v -3.99904 0.60000 -5.42654
v -3.99904 0.90000 -5.42654
v -3.76066 0.60000 -5.73720
v -3.76066 0.90000 -5.73720
v -3.45000 0.60000 -5.97558
v -3.45000 0.90000 -5.97558
v -3.08823 0.60000 -6.12543
v -3.08823 0.90000 -6.12543
v -2.70000 0.60000 -6.17654
v -2.70000 0.90000 -6.17654
v -2.31177 0.60000 -6.12543
v -2.31177 0.90000 -6.12543
v -1.95000 0.60000 -5.97558
v -1.95000 0.90000 -5.97558
v -1.63934 0.60000 -5.73720
v -1.63934 0.90000 -5.73720
v -1.40096 0.60000 -5.42654
v -1.40096 0.90000 -5.42654
v -1.25111 0.60000 -5.06477
v -1.25111 0.90000 -5.06477
v -2.70000 0.60000 -4.67654
v -2.70000 0.90000 -4.67654
v -1.50000 0.90000 -4.67654
v -1.50000 0.98000 -4.67654
v -1.54089 0.90000 -4.36595
v -1.54089 0.98000 -4.36595
v -1.66077 0.90000 -4.07654
v -1.66077 0.98000 -4.07654
v -1.85147 0.90000 -3.82801
v -1.85147 0.98000 -3.82801
v -2.10000 0.90000 -3.63731
v -2.10000 0.98000 -3.63731
v -2.38942 0.90000 -3.51743
v -2.38942 0.98000 -3.51743
v -2.70000 0.90000 -3.47654
v -2.70000 0.98000 -3.47654
v -3.01058 0.90000 -3.51743
v -3.01058 0.98000 -3.51743
v -3.30000 0.90000 -3.63731
v -3.30000 0.98000 -3.63731
v -3.54853 0.90000 -3.82801
v -3.54853 0.98000 -3.82801
v -3.73923 0.90000 -4.07654
v -3.73923 0.98000 -4.07654
v -3.85911 0.90000 -4.36595
v -3.85911 0.98000 -4.36595
v -3.90000 0.90000 -4.67654
v -3.90000 0.98000 -4.67654
v -3.85911 0.90000 -4.98712
v -3.85911 0.98000 -4.98712
v -3.73923 0.90000 -5.27654
v -3.73923 0.98000 -5.27654
v -3.54853 0.90000 -5.52507
v -3.54853 0.98000 -5.52507
v -3.30000 0.90000 -5.71577
v -3.30000 0.98000 -5.71577
v -3.01058 0.90000 -5.83565
v -3.01058 0.98000 -5.83565
v -2.70000 0.90000 -5.87654
v -2.70000 0.98000 -5.87654
v -2.38942 0.90000 -5.83565
v -2.38942 0.98000 -5.83565
v -2.10000 0.90000 -5.71577
v -2.10000 0.98000 -5.71577
v -1.85147 0.90000 -5.52507
v -1.85147 0.98000 -5.52507
v -1.66077 0.90000 -5.27654
v -1.66077 0.98000 -5.27654
v -1.54089 0.90000 -4.98712
v -1.54089 0.98000 -4.98712
v -2.70000 0.90000 -4.67654
v -2.70000 0.98000 -4.67654
v 0.15588 0.90000 0.09000
v 0.11023 0.77272 0.06364
v 0.00000 0.72000 0.00000
v -0.11023 0.77272 -0.06364
v -0.15588 0.90000 -0.09000
v -0.11023 1.02728 -0.06364
v -0.00000 1.08000 -0.00000
v 0.11023 1.02728 0.06364
v 2.85588 0.90000 -4.58654
v 2.81023 0.77272 -4.61290
v 2.70000 0.72000 -4.67654
v 2.58977 0.77272 -4.74018
v 2.54412 0.90000 -4.76654
v 2.58977 1.02728 -4.74018
v 2.70000 1.08000 -4.67654
v 2.81023 1.02728 -4.61290
v 0.00000 0.90000 0.00000
v 2.70000 0.90000 -4.67654
v 4.20000 0.60000 -4.67654
v 4.20000 0.90000 -4.67654
v 4.14889 0.60000 -4.28831
v 4.14889 0.90000 -4.28831
v 3.99904 0.60000 -3.92654
v 3.99904 0.90000 -3.92654
v 3.76066 0.60000 -3.61588
v 3.76066 0.90000 -3.61588
v 3.45000 0.60000 -3.37750
v 3.45000 0.90000 -3.37750
v 3.08823 0.60000 -3.22765
v 3.08823 0.90000 -3.22765
v 2.70000 0.60000 -3.17654
v 2.70000 0.90000 -3.17654
v 2.31177 0.60000 -3.22765
v 2.31177 0.90000 -3.22765
v 1.95000 0.60000 -3.37750
v 1.95000 0.90000 -3.37750
v 1.63934 0.60000 -3.61588
v 1.63934 0.90000 -3.61588
v 1.40096 0.60000 -3.92654
v 1.40096 0.90000 -3.92654
v 1.25111 0.60000 -4.28831
v 1.25111 0.90000 -4.28831
v 1.20000 0.60000 -4.67654
v 1.20000 0.90000 -4.67654
v 1.25111 0.60000 -5.06477
v 1.25111 0.90000 -5.06477
v 1.40096 0.60000 -5.42654
v 1.40096 0.90000 -5.42654
v 1.63934 0.60000 -5.73720
v 1.63934 0.90000 -5.73720
v 1.95000 0.60000 -5.97558
v 1.95000 0.90000 -5.97558
v 2.31177 0.60000 -6.12543
v 2.31177 0.90000 -6.12543
v 2.70000 0.60000 -6.17654
v 2.70000 0.90000 -6.17654
v 3.08823 0.60000 -6.12543
v 3.08823 0.90000 -6.12543
v 3.45000 0.60000 -5.97558
v 3.45000 0.90000 -5.97558
v 3.76066 0.60000 -5.73720
v 3.76066 0.90000 -5.73720
v 3.99904 0.60000 -5.42654
v 3.99904 0.90000 -5.42654
v 4.14889 0.60000 -5.06477
v 4.14889 0.90000 -5.06477
v 2.70000 0.60000 -4.67654
v 2.70000 0.90000 -4.67654
v 3.90000 0.90000 -4.67654
v 3.90000 0.98000 -4.67654
v 3.85911 0.90000 -4.36595
v 3.85911 0.98000 -4.36595
v 3.73923 0.90000 -4.07654
v 3.73923 0.98000 -4.07654
v 3.54853 0.90000 -3.82801
v 3.54853 0.98000 -3.82801
v 3.30000 0.90000 -3.63731
v 3.30000 0.98000 -3.63731
v 3.01058 0.90000 -3.51743
v 3.01058 0.98000 -3.51743
v 2.70000 0.90000 -3.47654
v 2.70000 0.98000 -3.47654
v 2.38942 0.90000 -3.51743
v 2.38942 0.98000 -3.51743
v 2.10000 0.90000 -3.63731
v 2.10000 0.98000 -3.63731
v 1.85147 0.90000 -3.82801
v 1.85147 0.98000 -3.82801
v 1.66077 0.90000 -4.07654
v 1.66077 0.98000 -4.07654
v 1.54089 0.90000 -4.36595
v 1.54089 0.98000 -4.36595
v 1.50000 0.90000 -4.67654
v 1.50000 0.98000 -4.67654
v 1.54089 0.90000 -4.98712
v 1.54089 0.98000 -4.98712
v 1.66077 0.90000 -5.27654
v 1.66077 0.98000 -5.27654
v 1.85147 0.90000 -5.52507
v 1.85147 0.98000 -5.52507
v 2.10000 0.90000 -5.71577
v 2.10000 0.98000 -5.71577
v 2.38942 0.90000 -5.83565
v 2.38942 0.98000 -5.83565
v 2.70000 0.90000 -5.87654
v 2.70000 0.98000 -5.87654
v 3.01058 0.90000 -5.83565
v 3.01058 0.98000 -5.83565
v 3.30000 0.90000 -5.71577
v 3.30000 0.98000 -5.71577
v 3.54853 0.90000 -5.52507
v 3.54853 0.98000 -5.52507
v 3.73923 0.90000 -5.27654
v 3.73923 0.98000 -5.27654
v 3.85911 0.90000 -4.98712
v 3.85911 0.98000 -4.98712
v 2.70000 0.90000 -4.67654
v 2.70000 0.98000 -4.67654
v 0.00000 7.50000 -0.12000
v -0.12637 7.17394 -0.12000
v -0.47553 7.15451 -0.12000
v -0.20448 6.93356 -0.12000
v -0.29389 6.59549 -0.12000
v -0.00000 6.78500 -0.12000
v 0.29389 6.59549 -0.12000
v 0.20448 6.93356 -0.12000
v 0.47553 7.15451 -0.12000
v 0.12637 7.17394 -0.12000
v 0.00000 7.50000 0.12000
v -0.12637 7.17394 0.12000
v -0.47553 7.15451 0.12000
v -0.20448 6.93356 0.12000
v -0.29389 6.59549 0.12000
v -0.00000 6.78500 0.12000
v 0.29389 6.59549 0.12000
v 0.20448 6.93356 0.12000
v 0.47553 7.15451 0.12000
v 0.12637 7.17394 0.12000
v 0.00000 7.00000 -0.12000
v 0.00000 7.00000 0.12000
vt 0.05000 0.50000
vt 0.15000 0.50000
vt 0.25000 0.50000
vt 0.35000 0.50000
vt 0.45000 0.50000
vt 0.55000 0.50000
vt 0.65000 0.50000
vt 0.75000 0.50000
vt 0.85000 0.50000
vt 0.95000 0.50000
usemtl ink
f 2/6 4/6 3/6 1/6
f 1/6 3/6 89/6
f 4/6 2/6 90/6
f 4/6 6/6 5/6 3/6
f 3/6 5/6 89/6
f 6/6 4/6 90/6
f 6/6 8/6 7/6 5/6
f 5/6 7/6 89/6
f 8/6 6/6 90/6
f 8/6 10/6 9/6 7/6
f 7/6 9/6 89/6
f 10/6 8/6 90/6
f 10/6 12/6 11/6 9/6
f 9/6 11/6 89/6
f 12/6 10/6 90/6
f 12/6 14/6 13/6 11/6
f 11/6 13/6 89/6
f 14/6 12/6 90/6
f 14/6 16/6 15/6 13/6
f 13/6 15/6 89/6
f 16/6 14/6 90/6
f 16/6 18/6 17/6 15/6
f 15/6 17/6 89/6
f 18/6 16/6 90/6
f 18/6 20/6 19/6 17/6
f 17/6 19/6 89/6
f 20/6 18/6 90/6
f 20/6 22/6 21/6 19/6
f 19/6 21/6 89/6
f 22/6 20/6 90/6
f 22/6 24/6 23/6 21/6
f 21/6 23/6 89/6
f 24/6 22/6 90/6
f 24/6 26/6 25/6 23/6
f 23/6 25/6 89/6
f 26/6 24/6 90/6
f 26/6 28/6 27/6 25/6
f 25/6 27/6 89/6
f 28/6 26/6 90/6
f 28/6 30/6 29/6 27/6
f 27/6 29/6 89/6
f 30/6 28/6 90/6
f 30/6 32/6 31/6 29/6
f 29/6 31/6 89/6
f 32/6 30/6 90/6
f 32/6 34/6 33/6 31/6
f 31/6 33/6 89/6
f 34/6 32/6 90/6
f 34/6 36/6 35/6 33/6
f 33/6 35/6 89/6
f 36/6 34/6 90/6
f 36/6 38/6 37/6 35/6
f 35/6 37/6 89/6
f 38/6 36/6 90/6
f 38/6 40/6 39/6 37/6
f 37/6 39/6 89/6
f 40/6 38/6 90/6
f 40/6 42/6 41/6 39/6
f 39/6 41/6 89/6
f 42/6 40/6 90/6
f 42/6 44/6 43/6 41/6
f 41/6 43/6 89/6
f 44/6 42/6 90/6
f 44/6 46/6 45/6 43/6
f 43/6 45/6 89/6
f 46/6 44/6 90/6
f 46/6 48/6 47/6 45/6
f 45/6 47/6 89/6
f 48/6 46/6 90/6
f 48/6 50/6 49/6 47/6
f 47/6 49/6 89/6
f 50/6 48/6 90/6
f 50/6 52/6 51/6 49/6
f 49/6 51/6 89/6
f 52/6 50/6 90/6
f 52/6 54/6 53/6 51/6
f 51/6 53/6 89/6
f 54/6 52/6 90/6
f 54/6 56/6 55/6 53/6
f 53/6 55/6 89/6
f 56/6 54/6 90/6
f 56/6 58/6 57/6 55/6
f 55/6 57/6 89/6
f 58/6 56/6 90/6
f 58/6 60/6 59/6 57/6
f 57/6 59/6 89/6
f 60/6 58/6 90/6
f 60/6 62/6 61/6 59/6
f 59/6 61/6 89/6
f 62/6 60/6 90/6
f 62/6 64/6 63/6 61/6
f 61/6 63/6 89/6
f 64/6 62/6 90/6
f 64/6 66/6 65/6 63/6
f 63/6 65/6 89/6
f 66/6 64/6 90/6
f 66/6 68/6 67/6 65/6
f 65/6 67/6 89/6
f 68/6 66/6 90/6
f 68/6 70/6 69/6 67/6
f 67/6 69/6 89/6
f 70/6 68/6 90/6
f 70/6 72/6 71/6 69/6
f 69/6 71/6 89/6
f 72/6 70/6 90/6
f 72/6 74/6 73/6 71/6
f 71/6 73/6 89/6
f 74/6 72/6 90/6
f 74/6 76/6 75/6 73/6
f 73/6 75/6 89/6
f 76/6 74/6 90/6
f 76/6 78/6 77/6 75/6
f 75/6 77/6 89/6
f 78/6 76/6 90/6
f 78/6 80/6 79/6 77/6
f 77/6 79/6 89/6
f 80/6 78/6 90/6
f 80/6 82/6 81/6 79/6
f 79/6 81/6 89/6
f 82/6 80/6 90/6
f 82/6 84/6 83/6 81/6
f 81/6 83/6 89/6
f 84/6 82/6 90/6
f 84/6 86/6 85/6 83/6
f 83/6 85/6 89/6
f 86/6 84/6 90/6
f 86/6 88/6 87/6 85/6
f 85/6 87/6 89/6
f 88/6 86/6 90/6
f 88/6 2/6 1/6 87/6
f 87/6 1/6 89/6
f 2/6 88/6 90/6
usemtl gold
f 92/4 94/4 93/4 91/4
f 91/4 93/4 179/4
f 94/4 92/4 180/4
f 94/4 96/4 95/4 93/4
f 93/4 95/4 179/4
f 96/4 94/4 180/4
f 96/4 98/4 97/4 95/4
f 95/4 97/4 179/4
f 98/4 96/4 180/4
f 98/4 100/4 99/4 97/4
f 97/4 99/4 179/4
f 100/4 98/4 180/4
f 100/4 102/4 101/4 99/4
f 99/4 101/4 179/4
f 102/4 100/4 180/4
f 102/4 104/4 103/4 101/4
f 101/4 103/4 179/4
f 104/4 102/4 180/4
f 104/4 106/4 105/4 103/4
f 103/4 105/4 179/4
f 106/4 104/4 180/4
f 106/4 108/4 107/4 105/4
f 105/4 107/4 179/4
f 108/4 106/4 180/4
f 108/4 110/4 109/4 107/4
f 107/4 109/4 179/4
f 110/4 108/4 180/4
f 110/4 112/4 111/4 109/4
f 109/4 111/4 179/4
f 112/4 110/4 180/4
f 112/4 114/4 113/4 111/4
f 111/4 113/4 179/4
f 114/4 112/4 180/4
f 114/4 116/4 115/4 113/4
f 113/4 115/4 179/4
f 116/4 114/4 180/4
f 116/4 118/4 117/4 115/4
f 115/4 117/4 179/4
f 118/4 116/4 180/4
f 118/4 120/4 119/4 117/4
f 117/4 119/4 179/4
f 120/4 118/4 180/4
f 120/4 122/4 121/4 119/4
f 119/4 121/4 179/4
f 122/4 120/4 180/4
f 122/4 124/4 123/4 121/4
f 121/4 123/4 179/4
f 124/4 122/4 180/4
f 124/4 126/4 125/4 123/4
f 123/4 125/4 179/4
f 126/4 124/4 180/4
f 126/4 128/4 127/4 125/4
f 125/4 127/4 179/4
f 128/4 126/4 180/4
f 128/4 130/4 129/4 127/4
f 127/4 129/4 179/4
f 130/4 128/4 180/4
f 130/4 132/4 131/4 129/4
f 129/4 131/4 179/4
f 132/4 130/4 180/4
f 132/4 134/4 133/4 131/4
f 131/4 133/4 179/4
f 134/4 132/4 180/4
f 134/4 136/4 135/4 133/4
f 133/4 135/4 179/4
f 136/4 134/4 180/4
f 136/4 138/4 137/4 135/4
f 135/4 137/4 179/4
f 138/4 136/4 180/4
f 138/4 140/4 139/4 137/4
f 137/4 139/4 179/4
f 140/4 138/4 180/4
f 140/4 142/4 141/4 139/4
f 139/4 141/4 179/4
f 142/4 140/4 180/4
f 142/4 144/4 143/4 141/4
f 141/4 143/4 179/4
f 144/4 142/4 180/4
f 144/4 146/4 145/4 143/4
f 143/4 145/4 179/4
f 146/4 144/4 180/4
f 146/4 148/4 147/4 145/4
f 145/4 147/4 179/4
f 148/4 146/4 180/4
f 148/4 150/4 149/4 147/4
f 147/4 149/4 179/4
f 150/4 148/4 180/4
f 150/4 152/4 151/4 149/4
f 149/4 151/4 179/4
f 152/4 150/4 180/4
f 152/4 154/4 153/4 151/4
f 151/4 153/4 179/4
f 154/4 152/4 180/4
f 154/4 156/4 155/4 153/4
f 153/4 155/4 179/4
f 156/4 154/4 180/4
f 156/4 158/4 157/4 155/4
f 155/4 157/4 179/4
f 158/4 156/4 180/4
f 158/4 160/4 159/4 157/4
f 157/4 159/4 179/4
f 160/4 158/4 180/4
f 160/4 162/4 161/4 159/4
f 159/4 161/4 179/4
f 162/4 160/4 180/4
f 162/4 164/4 163/4 161/4
f 161/4 163/4 179/4
f 164/4 162/4 180/4
f 164/4 166/4 165/4 163/4
f 163/4 165/4 179/4
f 166/4 164/4 180/4
f 166/4 168/4 167/4 165/4
f 165/4 167/4 179/4
f 168/4 166/4 180/4
f 168/4 170/4 169/4 167/4
f 167/4 169/4 179/4
f 170/4 168/4 180/4
f 170/4 172/4 171/4 169/4
f 169/4 171/4 179/4
f 172/4 170/4 180/4
f 172/4 174/4 173/4 171/4
f 171/4 173/4 179/4
f 174/4 172/4 180/4
f 174/4 176/4 175/4 173/4
f 173/4 175/4 179/4
f 176/4 174/4 180/4
f 176/4 178/4 177/4 175/4
f 175/4 177/4 179/4
f 178/4 176/4 180/4
f 178/4 92/4 91/4 177/4
f 177/4 91/4 179/4
f 92/4 178/4 180/4
f 445/4 446/4 457/4
f 452/4 451/4 458/4
f 446/4 447/4 457/4
f 453/4 452/4 458/4
f 447/4 448/4 457/4
f 454/4 453/4 458/4
f 448/4 449/4 457/4
f 455/4 454/4 458/4
f 449/4 450/4 457/4
f 456/4 455/4 458/4
f 450/4 445/4 457/4
f 451/4 456/4 458/4
f 451/4 452/4 446/4 445/4
f 452/4 453/4 447/4 446/4
f 453/4 454/4 448/4 447/4
f 454/4 455/4 449/4 448/4
f 455/4 456/4 450/4 449/4
f 456/4 451/4 445/4 450/4
f 459/4 460/4 471/4
f 466/4 465/4 472/4
f 460/4 461/4 471/4
f 467/4 466/4 472/4
f 461/4 462/4 471/4
f 468/4 467/4 472/4
f 462/4 463/4 471/4
f 469/4 468/4 472/4
f 463/4 464/4 471/4
f 470/4 469/4 472/4
f 464/4 459/4 471/4
f 465/4 470/4 472/4
f 465/4 466/4 460/4 459/4
f 466/4 467/4 461/4 460/4
f 467/4 468/4 462/4 461/4
f 468/4 469/4 463/4 462/4
f 469/4 470/4 464/4 463/4
f 470/4 465/4 459/4 464/4
f 473/4 474/4 485/4
f 480/4 479/4 486/4
f 474/4 475/4 485/4
f 481/4 480/4 486/4
f 475/4 476/4 485/4
f 482/4 481/4 486/4
f 476/4 477/4 485/4
f 483/4 482/4 486/4
f 477/4 478/4 485/4
f 484/4 483/4 486/4
f 478/4 473/4 485/4
f 479/4 484/4 486/4
f 479/4 480/4 474/4 473/4
f 480/4 481/4 475/4 474/4
f 481/4 482/4 476/4 475/4
f 482/4 483/4 477/4 476/4
f 483/4 484/4 478/4 477/4
f 484/4 479/4 473/4 478/4
f 487/4 488/4 499/4
f 494/4 493/4 500/4
f 488/4 489/4 499/4
f 495/4 494/4 500/4
f 489/4 490/4 499/4
f 496/4 495/4 500/4
f 490/4 491/4 499/4
f 497/4 496/4 500/4
f 491/4 492/4 499/4
f 498/4 497/4 500/4
f 492/4 487/4 499/4
f 493/4 498/4 500/4
f 493/4 494/4 488/4 487/4
f 494/4 495/4 489/4 488/4
f 495/4 496/4 490/4 489/4
f 496/4 497/4 491/4 490/4
f 497/4 498/4 492/4 491/4
f 498/4 493/4 487/4 492/4
f 501/4 502/4 513/4
f 508/4 507/4 514/4
f 502/4 503/4 513/4
f 509/4 508/4 514/4
f 503/4 504/4 513/4
f 510/4 509/4 514/4
f 504/4 505/4 513/4
f 511/4 510/4 514/4
f 505/4 506/4 513/4
f 512/4 511/4 514/4
f 506/4 501/4 513/4
f 507/4 512/4 514/4
f 507/4 508/4 502/4 501/4
f 508/4 509/4 503/4 502/4
f 509/4 510/4 504/4 503/4
f 510/4 511/4 505/4 504/4
f 511/4 512/4 506/4 505/4
f 512/4 507/4 501/4 506/4
f 515/4 516/4 527/4
f 522/4 521/4 528/4
f 516/4 517/4 527/4
f 523/4 522/4 528/4
f 517/4 518/4 527/4
f 524/4 523/4 528/4
f 518/4 519/4 527/4
f 525/4 524/4 528/4
f 519/4 520/4 527/4
f 526/4 525/4 528/4
f 520/4 515/4 527/4
f 521/4 526/4 528/4
f 521/4 522/4 516/4 515/4
f 522/4 523/4 517/4 516/4
f 523/4 524/4 518/4 517/4
f 524/4 525/4 519/4 518/4
f 525/4 526/4 520/4 519/4
f 526/4 521/4 515/4 520/4
f 529/4 530/4 541/4
f 536/4 535/4 542/4
f 530/4 531/4 541/4
f 537/4 536/4 542/4
f 531/4 532/4 541/4
f 538/4 537/4 542/4
f 532/4 533/4 541/4
f 539/4 538/4 542/4
f 533/4 534/4 541/4
f 540/4 539/4 542/4
f 534/4 529/4 541/4
f 535/4 540/4 542/4
f 535/4 536/4 530/4 529/4
f 536/4 537/4 531/4 530/4
f 537/4 538/4 532/4 531/4
f 538/4 539/4 533/4 532/4
f 539/4 540/4 534/4 533/4
f 540/4 535/4 529/4 534/4
f 543/4 544/4 555/4
f 550/4 549/4 556/4
f 544/4 545/4 555/4
f 551/4 550/4 556/4
f 545/4 546/4 555/4
f 552/4 551/4 556/4
f 546/4 547/4 555/4
f 553/4 552/4 556/4
f 547/4 548/4 555/4
f 554/4 553/4 556/4
f 548/4 543/4 555/4
f 549/4 554/4 556/4
f 549/4 550/4 544/4 543/4
f 550/4 551/4 545/4 544/4
f 551/4 552/4 546/4 545/4
f 552/4 553/4 547/4 546/4
f 553/4 554/4 548/4 547/4
f 554/4 549/4 543/4 548/4
f 557/4 558/4 569/4
f 564/4 563/4 570/4
f 558/4 559/4 569/4
f 565/4 564/4 570/4
f 559/4 560/4 569/4
f 566/4 565/4 570/4
f 560/4 561/4 569/4
f 567/4 566/4 570/4
f 561/4 562/4 569/4
f 568/4 567/4 570/4
f 562/4 557/4 569/4
f 563/4 568/4 570/4
f 563/4 564/4 558/4 557/4
f 564/4 565/4 559/4 558/4
f 565/4 566/4 560/4 559/4
f 566/4 567/4 561/4 560/4
f 567/4 568/4 562/4 561/4
f 568/4 563/4 557/4 562/4
f 571/4 572/4 583/4
f 578/4 577/4 584/4
f 572/4 573/4 583/4
f 579/4 578/4 584/4
f 573/4 574/4 583/4
f 580/4 579/4 584/4
f 574/4 575/4 583/4
f 581/4 580/4 584/4
f 575/4 576/4 583/4
f 582/4 581/4 584/4
f 576/4 571/4 583/4
f 577/4 582/4 584/4
f 577/4 578/4 572/4 571/4
f 578/4 579/4 573/4 572/4
f 579/4 580/4 574/4 573/4
f 580/4 581/4 575/4 574/4
f 581/4 582/4 576/4 575/4
f 582/4 577/4 571/4 576/4
f 617/4 618/4 602/4 601/4
f 618/4 619/4 603/4 602/4
f 619/4 620/4 604/4 603/4
f 620/4 621/4 605/4 604/4
f 621/4 622/4 606/4 605/4
f 622/4 623/4 607/4 606/4
f 623/4 624/4 608/4 607/4
f 624/4 625/4 609/4 608/4
f 625/4 626/4 610/4 609/4
f 626/4 627/4 611/4 610/4
f 627/4 628/4 612/4 611/4
f 628/4 629/4 613/4 612/4
f 629/4 630/4 614/4 613/4
f 630/4 631/4 615/4 614/4
f 631/4 632/4 616/4 615/4
f 632/4 617/4 601/4 616/4
f 795/4 796/4 802/4 801/4
f 796/4 797/4 803/4 802/4
f 797/4 798/4 804/4 803/4
f 798/4 799/4 805/4 804/4
f 799/4 800/4 806/4 805/4
f 800/4 795/4 801/4 806/4
f 801/4 802/4 808/4 807/4
f 802/4 803/4 809/4 808/4
f 803/4 804/4 810/4 809/4
f 804/4 805/4 811/4 810/4
f 805/4 806/4 812/4 811/4
f 806/4 801/4 807/4 812/4
f 807/4 808/4 814/4 813/4
f 808/4 809/4 815/4 814/4
f 809/4 810/4 816/4 815/4
f 810/4 811/4 817/4 816/4
f 811/4 812/4 818/4 817/4
f 812/4 807/4 813/4 818/4
f 813/4 814/4 820/4 819/4
f 814/4 815/4 821/4 820/4
f 815/4 816/4 822/4 821/4
f 816/4 817/4 823/4 822/4
f 817/4 818/4 824/4 823/4
f 818/4 813/4 819/4 824/4
f 819/4 820/4 826/4 825/4
f 820/4 821/4 827/4 826/4
f 821/4 822/4 828/4 827/4
f 822/4 823/4 829/4 828/4
f 823/4 824/4 830/4 829/4
f 824/4 819/4 825/4 830/4
f 825/4 826/4 832/4 831/4
f 826/4 827/4 833/4 832/4
f 827/4 828/4 834/4 833/4
f 828/4 829/4 835/4 834/4
f 829/4 830/4 836/4 835/4
f 830/4 825/4 831/4 836/4
f 831/4 832/4 838/4 837/4
f 832/4 833/4 839/4 838/4
f 833/4 834/4 840/4 839/4
f 834/4 835/4 841/4 840/4
f 835/4 836/4 842/4 841/4
f 836/4 831/4 837/4 842/4
f 837/4 838/4 844/4 843/4
f 838/4 839/4 845/4 844/4
f 839/4 840/4 846/4 845/4
f 840/4 841/4 847/4 846/4
f 841/4 842/4 848/4 847/4
f 842/4 837/4 843/4 848/4
f 843/4 844/4 850/4 849/4
f 844/4 845/4 851/4 850/4
f 845/4 846/4 852/4 851/4
f 846/4 847/4 853/4 852/4
f 847/4 848/4 854/4 853/4
f 848/4 843/4 849/4 854/4
f 849/4 850/4 856/4 855/4
f 850/4 851/4 857/4 856/4
f 851/4 852/4 858/4 857/4
f 852/4 853/4 859/4 858/4
f 853/4 854/4 860/4 859/4
f 854/4 849/4 855/4 860/4
f 855/4 856/4 862/4 861/4
f 856/4 857/4 863/4 862/4
f 857/4 858/4 864/4 863/4
f 858/4 859/4 865/4 864/4
f 859/4 860/4 866/4 865/4
f 860/4 855/4 861/4 866/4
f 861/4 862/4 868/4 867/4
f 862/4 863/4 869/4 868/4
f 863/4 864/4 870/4 869/4
f 864/4 865/4 871/4 870/4
f 865/4 866/4 872/4 871/4
f 866/4 861/4 867/4 872/4
f 867/4 868/4 874/4 873/4
f 868/4 869/4 875/4 874/4
f 869/4 870/4 876/4 875/4
f 870/4 871/4 877/4 876/4
f 871/4 872/4 878/4 877/4
f 872/4 867/4 873/4 878/4
f 873/4 874/4 880/4 879/4
f 874/4 875/4 881/4 880/4
f 875/4 876/4 882/4 881/4
f 876/4 877/4 883/4 882/4
f 877/4 878/4 884/4 883/4
f 878/4 873/4 879/4 884/4
f 879/4 880/4 886/4 885/4
f 880/4 881/4 887/4 886/4
f 881/4 882/4 888/4 887/4
f 882/4 883/4 889/4 888/4
f 883/4 884/4 890/4 889/4
f 884/4 879/4 885/4 890/4
f 885/4 886/4 892/4 891/4
f 886/4 887/4 893/4 892/4
f 887/4 888/4 894/4 893/4
f 888/4 889/4 895/4 894/4
f 889/4 890/4 896/4 895/4
f 890/4 885/4 891/4 896/4
f 891/4 892/4 898/4 897/4
f 892/4 893/4 899/4 898/4
f 893/4 894/4 900/4 899/4
f 894/4 895/4 901/4 900/4
f 895/4 896/4 902/4 901/4
f 896/4 891/4 897/4 902/4
f 897/4 898/4 904/4 903/4
f 898/4 899/4 905/4 904/4
f 899/4 900/4 906/4 905/4
f 900/4 901/4 907/4 906/4
f 901/4 902/4 908/4 907/4
f 902/4 897/4 903/4 908/4
f 903/4 904/4 910/4 909/4
f 904/4 905/4 911/4 910/4
f 905/4 906/4 912/4 911/4
f 906/4 907/4 913/4 912/4
f 907/4 908/4 914/4 913/4
f 908/4 903/4 909/4 914/4
f 909/4 910/4 916/4 915/4
f 910/4 911/4 917/4 916/4
f 911/4 912/4 918/4 917/4
f 912/4 913/4 919/4 918/4
f 913/4 914/4 920/4 919/4
f 914/4 909/4 915/4 920/4
f 915/4 916/4 922/4 921/4
f 916/4 917/4 923/4 922/4
f 917/4 918/4 924/4 923/4
f 918/4 919/4 925/4 924/4
f 919/4 920/4 926/4 925/4
f 920/4 915/4 921/4 926/4
f 921/4 922/4 928/4 927/4
f 922/4 923/4 929/4 928/4
f 923/4 924/4 930/4 929/4
f 924/4 925/4 931/4 930/4
f 925/4 926/4 932/4 931/4
f 926/4 921/4 927/4 932/4
f 927/4 928/4 934/4 933/4
f 928/4 929/4 935/4 934/4
f 929/4 930/4 936/4 935/4
f 930/4 931/4 937/4 936/4
f 931/4 932/4 938/4 937/4
f 932/4 927/4 933/4 938/4
f 933/4 934/4 940/4 939/4
f 934/4 935/4 941/4 940/4
f 935/4 936/4 942/4 941/4
f 936/4 937/4 943/4 942/4
f 937/4 938/4 944/4 943/4
f 938/4 933/4 939/4 944/4
f 939/4 940/4 946/4 945/4
f 940/4 941/4 947/4 946/4
f 941/4 942/4 948/4 947/4
f 942/4 943/4 949/4 948/4
f 943/4 944/4 950/4 949/4
f 944/4 939/4 945/4 950/4
f 945/4 946/4 952/4 951/4
f 946/4 947/4 953/4 952/4
f 947/4 948/4 954/4 953/4
f 948/4 949/4 955/4 954/4
f 949/4 950/4 956/4 955/4
f 950/4 945/4 951/4 956/4
f 951/4 952/4 958/4 957/4
f 952/4 953/4 959/4 958/4
f 953/4 954/4 960/4 959/4
f 954/4 955/4 961/4 960/4
f 955/4 956/4 962/4 961/4
f 956/4 951/4 957/4 962/4
f 957/4 958/4 796/4 795/4
f 958/4 959/4 797/4 796/4
f 959/4 960/4 798/4 797/4
f 960/4 961/4 799/4 798/4
f 961/4 962/4 800/4 799/4
f 962/4 957/4 795/4 800/4
f 1005/4 1006/4 998/4 997/4
f 997/4 998/4 1013/4
f 1006/4 1005/4 1014/4
f 1006/4 1007/4 999/4 998/4
f 998/4 999/4 1013/4
f 1007/4 1006/4 1014/4
f 1007/4 1008/4 1000/4 999/4
f 999/4 1000/4 1013/4
f 1008/4 1007/4 1014/4
f 1008/4 1009/4 1001/4 1000/4
f 1000/4 1001/4 1013/4
f 1009/4 1008/4 1014/4
f 1009/4 1010/4 1002/4 1001/4
f 1001/4 1002/4 1013/4
f 1010/4 1009/4 1014/4
f 1010/4 1011/4 1003/4 1002/4
f 1002/4 1003/4 1013/4
f 1011/4 1010/4 1014/4
f 1011/4 1012/4 1004/4 1003/4
f 1003/4 1004/4 1013/4
f 1012/4 1011/4 1014/4
f 1012/4 1005/4 997/4 1004/4
f 1004/4 997/4 1013/4
f 1005/4 1012/4 1014/4
f 1123/4 1124/4 1116/4 1115/4
f 1115/4 1116/4 1131/4
f 1124/4 1123/4 1132/4
f 1124/4 1125/4 1117/4 1116/4
f 1116/4 1117/4 1131/4
f 1125/4 1124/4 1132/4
f 1125/4 1126/4 1118/4 1117/4
f 1117/4 1118/4 1131/4
f 1126/4 1125/4 1132/4
f 1126/4 1127/4 1119/4 1118/4
f 1118/4 1119/4 1131/4
f 1127/4 1126/4 1132/4
f 1127/4 1128/4 1120/4 1119/4
f 1119/4 1120/4 1131/4
f 1128/4 1127/4 1132/4
f 1128/4 1129/4 1121/4 1120/4
f 1120/4 1121/4 1131/4
f 1129/4 1128/4 1132/4
f 1129/4 1130/4 1122/4 1121/4
f 1121/4 1122/4 1131/4
f 1130/4 1129/4 1132/4
f 1130/4 1123/4 1115/4 1122/4
f 1122/4 1115/4 1131/4
f 1123/4 1130/4 1132/4
f 1241/4 1242/4 1234/4 1233/4
f 1233/4 1234/4 1249/4
f 1242/4 1241/4 1250/4
f 1242/4 1243/4 1235/4 1234/4
f 1234/4 1235/4 1249/4
f 1243/4 1242/4 1250/4
f 1243/4 1244/4 1236/4 1235/4
f 1235/4 1236/4 1249/4
f 1244/4 1243/4 1250/4
f 1244/4 1245/4 1237/4 1236/4
f 1236/4 1237/4 1249/4
f 1245/4 1244/4 1250/4
f 1245/4 1246/4 1238/4 1237/4
f 1237/4 1238/4 1249/4
f 1246/4 1245/4 1250/4
f 1246/4 1247/4 1239/4 1238/4
f 1238/4 1239/4 1249/4
f 1247/4 1246/4 1250/4
f 1247/4 1248/4 1240/4 1239/4
f 1239/4 1240/4 1249/4
f 1248/4 1247/4 1250/4
f 1248/4 1241/4 1233/4 1240/4
f 1240/4 1233/4 1249/4
f 1241/4 1248/4 1250/4
f 1359/4 1360/4 1352/4 1351/4
f 1351/4 1352/4 1367/4
f 1360/4 1359/4 1368/4
f 1360/4 1361/4 1353/4 1352/4
f 1352/4 1353/4 1367/4
f 1361/4 1360/4 1368/4
f 1361/4 1362/4 1354/4 1353/4
f 1353/4 1354/4 1367/4
f 1362/4 1361/4 1368/4
f 1362/4 1363/4 1355/4 1354/4
f 1354/4 1355/4 1367/4
f 1363/4 1362/4 1368/4
f 1363/4 1364/4 1356/4 1355/4
f 1355/4 1356/4 1367/4
f 1364/4 1363/4 1368/4
f 1364/4 1365/4 1357/4 1356/4
f 1356/4 1357/4 1367/4
f 1365/4 1364/4 1368/4
f 1365/4 1366/4 1358/4 1357/4
f 1357/4 1358/4 1367/4
f 1366/4 1365/4 1368/4
f 1366/4 1359/4 1351/4 1358/4
f 1358/4 1351/4 1367/4
f 1359/4 1366/4 1368/4
f 1477/4 1478/4 1470/4 1469/4
f 1469/4 1470/4 1485/4
f 1478/4 1477/4 1486/4
f 1478/4 1479/4 1471/4 1470/4
f 1470/4 1471/4 1485/4
f 1479/4 1478/4 1486/4
f 1479/4 1480/4 1472/4 1471/4
f 1471/4 1472/4 1485/4
f 1480/4 1479/4 1486/4
f 1480/4 1481/4 1473/4 1472/4
f 1472/4 1473/4 1485/4
f 1481/4 1480/4 1486/4
f 1481/4 1482/4 1474/4 1473/4
f 1473/4 1474/4 1485/4
f 1482/4 1481/4 1486/4
f 1482/4 1483/4 1475/4 1474/4
f 1474/4 1475/4 1485/4
f 1483/4 1482/4 1486/4
f 1483/4 1484/4 1476/4 1475/4
f 1475/4 1476/4 1485/4
f 1484/4 1483/4 1486/4
f 1484/4 1477/4 1469/4 1476/4
f 1476/4 1469/4 1485/4
f 1477/4 1484/4 1486/4
f 1595/4 1596/4 1588/4 1587/4
f 1587/4 1588/4 1603/4
f 1596/4 1595/4 1604/4
f 1596/4 1597/4 1589/4 1588/4
f 1588/4 1589/4 1603/4
f 1597/4 1596/4 1604/4
f 1597/4 1598/4 1590/4 1589/4
f 1589/4 1590/4 1603/4
f 1598/4 1597/4 1604/4
f 1598/4 1599/4 1591/4 1590/4
f 1590/4 1591/4 1603/4
f 1599/4 1598/4 1604/4
f 1599/4 1600/4 1592/4 1591/4
f 1591/4 1592/4 1603/4
f 1600/4 1599/4 1604/4
f 1600/4 1601/4 1593/4 1592/4
f 1592/4 1593/4 1603/4
f 1601/4 1600/4 1604/4
f 1601/4 1602/4 1594/4 1593/4
f 1593/4 1594/4 1603/4
f 1602/4 1601/4 1604/4
f 1602/4 1595/4 1587/4 1594/4
f 1594/4 1587/4 1603/4
f 1595/4 1602/4 1604/4
f 1706/4 1705/4 1725/4
f 1715/4 1716/4 1726/4
f 1706/4 1716/4 1715/4 1705/4
f 1707/4 1706/4 1725/4
f 1716/4 1717/4 1726/4
f 1707/4 1717/4 1716/4 1706/4
f 1708/4 1707/4 1725/4
f 1717/4 1718/4 1726/4
f 1708/4 1718/4 1717/4 1707/4
f 1709/4 1708/4 1725/4
f 1718/4 1719/4 1726/4
f 1709/4 1719/4 1718/4 1708/4
f 1710/4 1709/4 1725/4
f 1719/4 1720/4 1726/4
f 1710/4 1720/4 1719/4 1709/4
f 1711/4 1710/4 1725/4
f 1720/4 1721/4 1726/4
f 1711/4 1721/4 1720/4 1710/4
f 1712/4 1711/4 1725/4
f 1721/4 1722/4 1726/4
f 1712/4 1722/4 1721/4 1711/4
f 1713/4 1712/4 1725/4
f 1722/4 1723/4 1726/4
f 1713/4 1723/4 1722/4 1712/4
f 1714/4 1713/4 1725/4
f 1723/4 1724/4 1726/4
f 1714/4 1724/4 1723/4 1713/4
f 1705/4 1714/4 1725/4
f 1724/4 1715/4 1726/4
f 1705/4 1715/4 1724/4 1714/4
usemtl mint
f 181/3 182/3 188/3 187/3
f 182/3 183/3 189/3 188/3
f 183/3 184/3 190/3 189/3
f 184/3 185/3 191/3 190/3
f 185/3 186/3 192/3 191/3
f 186/3 181/3 187/3 192/3
f 187/3 188/3 194/3 193/3
f 188/3 189/3 195/3 194/3
f 189/3 190/3 196/3 195/3
f 190/3 191/3 197/3 196/3
f 191/3 192/3 198/3 197/3
f 192/3 187/3 193/3 198/3
f 193/3 194/3 200/3 199/3
f 194/3 195/3 201/3 200/3
f 195/3 196/3 202/3 201/3
f 196/3 197/3 203/3 202/3
f 197/3 198/3 204/3 203/3
f 198/3 193/3 199/3 204/3
f 199/3 200/3 206/3 205/3
f 200/3 201/3 207/3 206/3
f 201/3 202/3 208/3 207/3
f 202/3 203/3 209/3 208/3
f 203/3 204/3 210/3 209/3
f 204/3 199/3 205/3 210/3
f 205/3 206/3 212/3 211/3
f 206/3 207/3 213/3 212/3
f 207/3 208/3 214/3 213/3
f 208/3 209/3 215/3 214/3
f 209/3 210/3 216/3 215/3
f 210/3 205/3 211/3 216/3
f 211/3 212/3 218/3 217/3
f 212/3 213/3 219/3 218/3
f 213/3 214/3 220/3 219/3
f 214/3 215/3 221/3 220/3
f 215/3 216/3 222/3 221/3
f 216/3 211/3 217/3 222/3
f 217/3 218/3 224/3 223/3
f 218/3 219/3 225/3 224/3
f 219/3 220/3 226/3 225/3
f 220/3 221/3 227/3 226/3
f 221/3 222/3 228/3 227/3
f 222/3 217/3 223/3 228/3
f 223/3 224/3 230/3 229/3
f 224/3 225/3 231/3 230/3
f 225/3 226/3 232/3 231/3
f 226/3 227/3 233/3 232/3
f 227/3 228/3 234/3 233/3
f 228/3 223/3 229/3 234/3
f 229/3 230/3 236/3 235/3
f 230/3 231/3 237/3 236/3
f 231/3 232/3 238/3 237/3
f 232/3 233/3 239/3 238/3
f 233/3 234/3 240/3 239/3
f 234/3 229/3 235/3 240/3
f 235/3 236/3 242/3 241/3
f 236/3 237/3 243/3 242/3
f 237/3 238/3 244/3 243/3
f 238/3 239/3 245/3 244/3
f 239/3 240/3 246/3 245/3
f 240/3 235/3 241/3 246/3
f 241/3 242/3 248/3 247/3
f 242/3 243/3 249/3 248/3
f 243/3 244/3 250/3 249/3
f 244/3 245/3 251/3 250/3
f 245/3 246/3 252/3 251/3
f 246/3 241/3 247/3 252/3
f 247/3 248/3 254/3 253/3
f 248/3 249/3 255/3 254/3
f 249/3 250/3 256/3 255/3
f 250/3 251/3 257/3 256/3
f 251/3 252/3 258/3 257/3
f 252/3 247/3 253/3 258/3
f 253/3 254/3 260/3 259/3
f 254/3 255/3 261/3 260/3
f 255/3 256/3 262/3 261/3
f 256/3 257/3 263/3 262/3
f 257/3 258/3 264/3 263/3
f 258/3 253/3 259/3 264/3
f 259/3 260/3 266/3 265/3
f 260/3 261/3 267/3 266/3
f 261/3 262/3 268/3 267/3
f 262/3 263/3 269/3 268/3
f 263/3 264/3 270/3 269/3
f 264/3 259/3 265/3 270/3
f 265/3 266/3 272/3 271/3
f 266/3 267/3 273/3 272/3
f 267/3 268/3 274/3 273/3
f 268/3 269/3 275/3 274/3
f 269/3 270/3 276/3 275/3
f 270/3 265/3 271/3 276/3
f 271/3 272/3 278/3 277/3
f 272/3 273/3 279/3 278/3
f 273/3 274/3 280/3 279/3
f 274/3 275/3 281/3 280/3
f 275/3 276/3 282/3 281/3
f 276/3 271/3 277/3 282/3
f 277/3 278/3 284/3 283/3
f 278/3 279/3 285/3 284/3
f 279/3 280/3 286/3 285/3
f 280/3 281/3 287/3 286/3
f 281/3 282/3 288/3 287/3
f 282/3 277/3 283/3 288/3
f 283/3 284/3 290/3 289/3
f 284/3 285/3 291/3 290/3
f 285/3 286/3 292/3 291/3
f 286/3 287/3 293/3 292/3
f 287/3 288/3 294/3 293/3
f 288/3 283/3 289/3 294/3
f 289/3 290/3 296/3 295/3
f 290/3 291/3 297/3 296/3
f 291/3 292/3 298/3 297/3
f 292/3 293/3 299/3 298/3
f 293/3 294/3 300/3 299/3
f 294/3 289/3 295/3 300/3
f 295/3 296/3 302/3 301/3
f 296/3 297/3 303/3 302/3
f 297/3 298/3 304/3 303/3
f 298/3 299/3 305/3 304/3
f 299/3 300/3 306/3 305/3
f 300/3 295/3 301/3 306/3
f 301/3 302/3 308/3 307/3
f 302/3 303/3 309/3 308/3
f 303/3 304/3 310/3 309/3
f 304/3 305/3 311/3 310/3
f 305/3 306/3 312/3 311/3
f 306/3 301/3 307/3 312/3
f 307/3 308/3 314/3 313/3
f 308/3 309/3 315/3 314/3
f 309/3 310/3 316/3 315/3
f 310/3 311/3 317/3 316/3
f 311/3 312/3 318/3 317/3
f 312/3 307/3 313/3 318/3
f 313/3 314/3 320/3 319/3
f 314/3 315/3 321/3 320/3
f 315/3 316/3 322/3 321/3
f 316/3 317/3 323/3 322/3
f 317/3 318/3 324/3 323/3
f 318/3 313/3 319/3 324/3
f 319/3 320/3 326/3 325/3
f 320/3 321/3 327/3 326/3
f 321/3 322/3 328/3 327/3
f 322/3 323/3 329/3 328/3
f 323/3 324/3 330/3 329/3
f 324/3 319/3 325/3 330/3
f 325/3 326/3 332/3 331/3
f 326/3 327/3 333/3 332/3
f 327/3 328/3 334/3 333/3
f 328/3 329/3 335/3 334/3
f 329/3 330/3 336/3 335/3
f 330/3 325/3 331/3 336/3
f 331/3 332/3 338/3 337/3
f 332/3 333/3 339/3 338/3
f 333/3 334/3 340/3 339/3
f 334/3 335/3 341/3 340/3
f 335/3 336/3 342/3 341/3
f 336/3 331/3 337/3 342/3
f 337/3 338/3 344/3 343/3
f 338/3 339/3 345/3 344/3
f 339/3 340/3 346/3 345/3
f 340/3 341/3 347/3 346/3
f 341/3 342/3 348/3 347/3
f 342/3 337/3 343/3 348/3
f 343/3 344/3 350/3 349/3
f 344/3 345/3 351/3 350/3
f 345/3 346/3 352/3 351/3
f 346/3 347/3 353/3 352/3
f 347/3 348/3 354/3 353/3
f 348/3 343/3 349/3 354/3
f 349/3 350/3 356/3 355/3
f 350/3 351/3 357/3 356/3
f 351/3 352/3 358/3 357/3
f 352/3 353/3 359/3 358/3
f 353/3 354/3 360/3 359/3
f 354/3 349/3 355/3 360/3
f 355/3 356/3 362/3 361/3
f 356/3 357/3 363/3 362/3
f 357/3 358/3 364/3 363/3
f 358/3 359/3 365/3 364/3
f 359/3 360/3 366/3 365/3
f 360/3 355/3 361/3 366/3
f 361/3 362/3 368/3 367/3
f 362/3 363/3 369/3 368/3
f 363/3 364/3 370/3 369/3
f 364/3 365/3 371/3 370/3
f 365/3 366/3 372/3 371/3
f 366/3 361/3 367/3 372/3
f 367/3 368/3 374/3 373/3
f 368/3 369/3 375/3 374/3
f 369/3 370/3 376/3 375/3
f 370/3 371/3 377/3 376/3
f 371/3 372/3 378/3 377/3
f 372/3 367/3 373/3 378/3
f 373/3 374/3 380/3 379/3
f 374/3 375/3 381/3 380/3
f 375/3 376/3 382/3 381/3
f 376/3 377/3 383/3 382/3
f 377/3 378/3 384/3 383/3
f 378/3 373/3 379/3 384/3
f 379/3 380/3 386/3 385/3
f 380/3 381/3 387/3 386/3
f 381/3 382/3 388/3 387/3
f 382/3 383/3 389/3 388/3
f 383/3 384/3 390/3 389/3
f 384/3 379/3 385/3 390/3
f 385/3 386/3 392/3 391/3
f 386/3 387/3 393/3 392/3
f 387/3 388/3 394/3 393/3
f 388/3 389/3 395/3 394/3
f 389/3 390/3 396/3 395/3
f 390/3 385/3 391/3 396/3
f 391/3 392/3 398/3 397/3
f 392/3 393/3 399/3 398/3
f 393/3 394/3 400/3 399/3
f 394/3 395/3 401/3 400/3
f 395/3 396/3 402/3 401/3
f 396/3 391/3 397/3 402/3
f 397/3 398/3 404/3 403/3
f 398/3 399/3 405/3 404/3
f 399/3 400/3 406/3 405/3
f 400/3 401/3 407/3 406/3
f 401/3 402/3 408/3 407/3
f 402/3 397/3 403/3 408/3
f 403/3 404/3 410/3 409/3
f 404/3 405/3 411/3 410/3
f 405/3 406/3 412/3 411/3
f 406/3 407/3 413/3 412/3
f 407/3 408/3 414/3 413/3
f 408/3 403/3 409/3 414/3
f 409/3 410/3 416/3 415/3
f 410/3 411/3 417/3 416/3
f 411/3 412/3 418/3 417/3
f 412/3 413/3 419/3 418/3
f 413/3 414/3 420/3 419/3
f 414/3 409/3 415/3 420/3
f 415/3 416/3 422/3 421/3
f 416/3 417/3 423/3 422/3
f 417/3 418/3 424/3 423/3
f 418/3 419/3 425/3 424/3
f 419/3 420/3 426/3 425/3
f 420/3 415/3 421/3 426/3
f 421/3 422/3 428/3 427/3
f 422/3 423/3 429/3 428/3
f 423/3 424/3 430/3 429/3
f 424/3 425/3 431/3 430/3
f 425/3 426/3 432/3 431/3
f 426/3 421/3 427/3 432/3
f 427/3 428/3 434/3 433/3
f 428/3 429/3 435/3 434/3
f 429/3 430/3 436/3 435/3
f 430/3 431/3 437/3 436/3
f 431/3 432/3 438/3 437/3
f 432/3 427/3 433/3 438/3
f 433/3 434/3 440/3 439/3
f 434/3 435/3 441/3 440/3
f 435/3 436/3 442/3 441/3
f 436/3 437/3 443/3 442/3
f 437/3 438/3 444/3 443/3
f 438/3 433/3 439/3 444/3
f 439/3 440/3 182/3 181/3
f 440/3 441/3 183/3 182/3
f 441/3 442/3 184/3 183/3
f 442/3 443/3 185/3 184/3
f 443/3 444/3 186/3 185/3
f 444/3 439/3 181/3 186/3
f 963/3 964/3 995/3
f 988/3 987/3 996/3
f 964/3 965/3 995/3
f 989/3 988/3 996/3
f 965/3 966/3 995/3
f 990/3 989/3 996/3
f 966/3 967/3 995/3
f 991/3 990/3 996/3
f 967/3 968/3 995/3
f 992/3 991/3 996/3
f 968/3 969/3 995/3
f 993/3 992/3 996/3
f 969/3 970/3 995/3
f 994/3 993/3 996/3
f 970/3 963/3 995/3
f 987/3 994/3 996/3
f 971/3 972/3 964/3 963/3
f 972/3 973/3 965/3 964/3
f 973/3 974/3 966/3 965/3
f 974/3 975/3 967/3 966/3
f 975/3 976/3 968/3 967/3
f 976/3 977/3 969/3 968/3
f 977/3 978/3 970/3 969/3
f 978/3 971/3 963/3 970/3
f 979/3 980/3 972/3 971/3
f 980/3 981/3 973/3 972/3
f 981/3 982/3 974/3 973/3
f 982/3 983/3 975/3 974/3
f 983/3 984/3 976/3 975/3
f 984/3 985/3 977/3 976/3
f 985/3 986/3 978/3 977/3
f 986/3 979/3 971/3 978/3
f 987/3 988/3 980/3 979/3
f 988/3 989/3 981/3 980/3
f 989/3 990/3 982/3 981/3
f 990/3 991/3 983/3 982/3
f 991/3 992/3 984/3 983/3
f 992/3 993/3 985/3 984/3
f 993/3 994/3 986/3 985/3
f 994/3 987/3 979/3 986/3
f 1016/3 1018/3 1017/3 1015/3
f 1015/3 1017/3 1063/3
f 1018/3 1016/3 1064/3
f 1018/3 1020/3 1019/3 1017/3
f 1017/3 1019/3 1063/3
f 1020/3 1018/3 1064/3
f 1020/3 1022/3 1021/3 1019/3
f 1019/3 1021/3 1063/3
f 1022/3 1020/3 1064/3
f 1022/3 1024/3 1023/3 1021/3
f 1021/3 1023/3 1063/3
f 1024/3 1022/3 1064/3
f 1024/3 1026/3 1025/3 1023/3
f 1023/3 1025/3 1063/3
f 1026/3 1024/3 1064/3
f 1026/3 1028/3 1027/3 1025/3
f 1025/3 1027/3 1063/3
f 1028/3 1026/3 1064/3
f 1028/3 1030/3 1029/3 1027/3
f 1027/3 1029/3 1063/3
f 1030/3 1028/3 1064/3
f 1030/3 1032/3 1031/3 1029/3
f 1029/3 1031/3 1063/3
f 1032/3 1030/3 1064/3
f 1032/3 1034/3 1033/3 1031/3
f 1031/3 1033/3 1063/3
f 1034/3 1032/3 1064/3
f 1034/3 1036/3 1035/3 1033/3
f 1033/3 1035/3 1063/3
f 1036/3 1034/3 1064/3
f 1036/3 1038/3 1037/3 1035/3
f 1035/3 1037/3 1063/3
f 1038/3 1036/3 1064/3
f 1038/3 1040/3 1039/3 1037/3
f 1037/3 1039/3 1063/3
f 1040/3 1038/3 1064/3
f 1040/3 1042/3 1041/3 1039/3
f 1039/3 1041/3 1063/3
f 1042/3 1040/3 1064/3
f 1042/3 1044/3 1043/3 1041/3
f 1041/3 1043/3 1063/3
f 1044/3 1042/3 1064/3
f 1044/3 1046/3 1045/3 1043/3
f 1043/3 1045/3 1063/3
f 1046/3 1044/3 1064/3
f 1046/3 1048/3 1047/3 1045/3
f 1045/3 1047/3 1063/3
f 1048/3 1046/3 1064/3
f 1048/3 1050/3 1049/3 1047/3
f 1047/3 1049/3 1063/3
f 1050/3 1048/3 1064/3
f 1050/3 1052/3 1051/3 1049/3
f 1049/3 1051/3 1063/3
f 1052/3 1050/3 1064/3
f 1052/3 1054/3 1053/3 1051/3
f 1051/3 1053/3 1063/3
f 1054/3 1052/3 1064/3
f 1054/3 1056/3 1055/3 1053/3
f 1053/3 1055/3 1063/3
f 1056/3 1054/3 1064/3
f 1056/3 1058/3 1057/3 1055/3
f 1055/3 1057/3 1063/3
f 1058/3 1056/3 1064/3
f 1058/3 1060/3 1059/3 1057/3
f 1057/3 1059/3 1063/3
f 1060/3 1058/3 1064/3
f 1060/3 1062/3 1061/3 1059/3
f 1059/3 1061/3 1063/3
f 1062/3 1060/3 1064/3
f 1062/3 1016/3 1015/3 1061/3
f 1061/3 1015/3 1063/3
f 1016/3 1062/3 1064/3
f 1134/3 1136/3 1135/3 1133/3
f 1133/3 1135/3 1181/3
f 1136/3 1134/3 1182/3
f 1136/3 1138/3 1137/3 1135/3
f 1135/3 1137/3 1181/3
f 1138/3 1136/3 1182/3
f 1138/3 1140/3 1139/3 1137/3
f 1137/3 1139/3 1181/3
f 1140/3 1138/3 1182/3
f 1140/3 1142/3 1141/3 1139/3
f 1139/3 1141/3 1181/3
f 1142/3 1140/3 1182/3
f 1142/3 1144/3 1143/3 1141/3
f 1141/3 1143/3 1181/3
f 1144/3 1142/3 1182/3
f 1144/3 1146/3 1145/3 1143/3
f 1143/3 1145/3 1181/3
f 1146/3 1144/3 1182/3
f 1146/3 1148/3 1147/3 1145/3
f 1145/3 1147/3 1181/3
f 1148/3 1146/3 1182/3
f 1148/3 1150/3 1149/3 1147/3
f 1147/3 1149/3 1181/3
f 1150/3 1148/3 1182/3
f 1150/3 1152/3 1151/3 1149/3
f 1149/3 1151/3 1181/3
f 1152/3 1150/3 1182/3
f 1152/3 1154/3 1153/3 1151/3
f 1151/3 1153/3 1181/3
f 1154/3 1152/3 1182/3
f 1154/3 1156/3 1155/3 1153/3
f 1153/3 1155/3 1181/3
f 1156/3 1154/3 1182/3
f 1156/3 1158/3 1157/3 1155/3
f 1155/3 1157/3 1181/3
f 1158/3 1156/3 1182/3
f 1158/3 1160/3 1159/3 1157/3
f 1157/3 1159/3 1181/3
f 1160/3 1158/3 1182/3
f 1160/3 1162/3 1161/3 1159/3
f 1159/3 1161/3 1181/3
f 1162/3 1160/3 1182/3
f 1162/3 1164/3 1163/3 1161/3
f 1161/3 1163/3 1181/3
f 1164/3 1162/3 1182/3
f 1164/3 1166/3 1165/3 1163/3
f 1163/3 1165/3 1181/3
f 1166/3 1164/3 1182/3
f 1166/3 1168/3 1167/3 1165/3
f 1165/3 1167/3 1181/3
f 1168/3 1166/3 1182/3
f 1168/3 1170/3 1169/3 1167/3
f 1167/3 1169/3 1181/3
f 1170/3 1168/3 1182/3
f 1170/3 1172/3 1171/3 1169/3
f 1169/3 1171/3 1181/3
f 1172/3 1170/3 1182/3
f 1172/3 1174/3 1173/3 1171/3
f 1171/3 1173/3 1181/3
f 1174/3 1172/3 1182/3
f 1174/3 1176/3 1175/3 1173/3
f 1173/3 1175/3 1181/3
f 1176/3 1174/3 1182/3
f 1176/3 1178/3 1177/3 1175/3
f 1175/3 1177/3 1181/3
f 1178/3 1176/3 1182/3
f 1178/3 1180/3 1179/3 1177/3
f 1177/3 1179/3 1181/3
f 1180/3 1178/3 1182/3
f 1180/3 1134/3 1133/3 1179/3
f 1179/3 1133/3 1181/3
f 1134/3 1180/3 1182/3
f 1252/3 1254/3 1253/3 1251/3
f 1251/3 1253/3 1299/3
f 1254/3 1252/3 1300/3
f 1254/3 1256/3 1255/3 1253/3
f 1253/3 1255/3 1299/3
f 1256/3 1254/3 1300/3
f 1256/3 1258/3 1257/3 1255/3
f 1255/3 1257/3 1299/3
f 1258/3 1256/3 1300/3
f 1258/3 1260/3 1259/3 1257/3
f 1257/3 1259/3 1299/3
f 1260/3 1258/3 1300/3
f 1260/3 1262/3 1261/3 1259/3
f 1259/3 1261/3 1299/3
f 1262/3 1260/3 1300/3
f 1262/3 1264/3 1263/3 1261/3
f 1261/3 1263/3 1299/3
f 1264/3 1262/3 1300/3
f 1264/3 1266/3 1265/3 1263/3
f 1263/3 1265/3 1299/3
f 1266/3 1264/3 1300/3
f 1266/3 1268/3 1267/3 1265/3
f 1265/3 1267/3 1299/3
f 1268/3 1266/3 1300/3
f 1268/3 1270/3 1269/3 1267/3
f 1267/3 1269/3 1299/3
f 1270/3 1268/3 1300/3
f 1270/3 1272/3 1271/3 1269/3
f 1269/3 1271/3 1299/3
f 1272/3 1270/3 1300/3
f 1272/3 1274/3 1273/3 1271/3
f 1271/3 1273/3 1299/3
f 1274/3 1272/3 1300/3
f 1274/3 1276/3 1275/3 1273/3
f 1273/3 1275/3 1299/3
f 1276/3 1274/3 1300/3
f 1276/3 1278/3 1277/3 1275/3
f 1275/3 1277/3 1299/3
f 1278/3 1276/3 1300/3
f 1278/3 1280/3 1279/3 1277/3
f 1277/3 1279/3 1299/3
f 1280/3 1278/3 1300/3
f 1280/3 1282/3 1281/3 1279/3
f 1279/3 1281/3 1299/3
f 1282/3 1280/3 1300/3
f 1282/3 1284/3 1283/3 1281/3
f 1281/3 1283/3 1299/3
f 1284/3 1282/3 1300/3
f 1284/3 1286/3 1285/3 1283/3
f 1283/3 1285/3 1299/3
f 1286/3 1284/3 1300/3
f 1286/3 1288/3 1287/3 1285/3
f 1285/3 1287/3 1299/3
f 1288/3 1286/3 1300/3
f 1288/3 1290/3 1289/3 1287/3
f 1287/3 1289/3 1299/3
f 1290/3 1288/3 1300/3
f 1290/3 1292/3 1291/3 1289/3
f 1289/3 1291/3 1299/3
f 1292/3 1290/3 1300/3
f 1292/3 1294/3 1293/3 1291/3
f 1291/3 1293/3 1299/3
f 1294/3 1292/3 1300/3
f 1294/3 1296/3 1295/3 1293/3
f 1293/3 1295/3 1299/3
f 1296/3 1294/3 1300/3
f 1296/3 1298/3 1297/3 1295/3
f 1295/3 1297/3 1299/3
f 1298/3 1296/3 1300/3
f 1298/3 1252/3 1251/3 1297/3
f 1297/3 1251/3 1299/3
f 1252/3 1298/3 1300/3
f 1370/3 1372/3 1371/3 1369/3
f 1369/3 1371/3 1417/3
f 1372/3 1370/3 1418/3
f 1372/3 1374/3 1373/3 1371/3
f 1371/3 1373/3 1417/3
f 1374/3 1372/3 1418/3
f 1374/3 1376/3 1375/3 1373/3
f 1373/3 1375/3 1417/3
f 1376/3 1374/3 1418/3
f 1376/3 1378/3 1377/3 1375/3
f 1375/3 1377/3 1417/3
f 1378/3 1376/3 1418/3
f 1378/3 1380/3 1379/3 1377/3
f 1377/3 1379/3 1417/3
f 1380/3 1378/3 1418/3
f 1380/3 1382/3 1381/3 1379/3
f 1379/3 1381/3 1417/3
f 1382/3 1380/3 1418/3
f 1382/3 1384/3 1383/3 1381/3
f 1381/3 1383/3 1417/3
f 1384/3 1382/3 1418/3
f 1384/3 1386/3 1385/3 1383/3
f 1383/3 1385/3 1417/3
f 1386/3 1384/3 1418/3
f 1386/3 1388/3 1387/3 1385/3
f 1385/3 1387/3 1417/3
f 1388/3 1386/3 1418/3
f 1388/3 1390/3 1389/3 1387/3
f 1387/3 1389/3 1417/3
f 1390/3 1388/3 1418/3
f 1390/3 1392/3 1391/3 1389/3
f 1389/3 1391/3 1417/3
f 1392/3 1390/3 1418/3
f 1392/3 1394/3 1393/3 1391/3
f 1391/3 1393/3 1417/3
f 1394/3 1392/3 1418/3
f 1394/3 1396/3 1395/3 1393/3
f 1393/3 1395/3 1417/3
f 1396/3 1394/3 1418/3
f 1396/3 1398/3 1397/3 1395/3
f 1395/3 1397/3 1417/3
f 1398/3 1396/3 1418/3
f 1398/3 1400/3 1399/3 1397/3
f 1397/3 1399/3 1417/3
f 1400/3 1398/3 1418/3
f 1400/3 1402/3 1401/3 1399/3
f 1399/3 1401/3 1417/3
f 1402/3 1400/3 1418/3
f 1402/3 1404/3 1403/3 1401/3
f 1401/3 1403/3 1417/3
f 1404/3 1402/3 1418/3
f 1404/3 1406/3 1405/3 1403/3
f 1403/3 1405/3 1417/3
f 1406/3 1404/3 1418/3
f 1406/3 1408/3 1407/3 1405/3
f 1405/3 1407/3 1417/3
f 1408/3 1406/3 1418/3
f 1408/3 1410/3 1409/3 1407/3
f 1407/3 1409/3 1417/3
f 1410/3 1408/3 1418/3
f 1410/3 1412/3 1411/3 1409/3
f 1409/3 1411/3 1417/3
f 1412/3 1410/3 1418/3
f 1412/3 1414/3 1413/3 1411/3
f 1411/3 1413/3 1417/3
f 1414/3 1412/3 1418/3
f 1414/3 1416/3 1415/3 1413/3
f 1413/3 1415/3 1417/3
f 1416/3 1414/3 1418/3
f 1416/3 1370/3 1369/3 1415/3
f 1415/3 1369/3 1417/3
f 1370/3 1416/3 1418/3
f 1488/3 1490/3 1489/3 1487/3
f 1487/3 1489/3 1535/3
f 1490/3 1488/3 1536/3
f 1490/3 1492/3 1491/3 1489/3
f 1489/3 1491/3 1535/3
f 1492/3 1490/3 1536/3
f 1492/3 1494/3 1493/3 1491/3
f 1491/3 1493/3 1535/3
f 1494/3 1492/3 1536/3
f 1494/3 1496/3 1495/3 1493/3
f 1493/3 1495/3 1535/3
f 1496/3 1494/3 1536/3
f 1496/3 1498/3 1497/3 1495/3
f 1495/3 1497/3 1535/3
f 1498/3 1496/3 1536/3
f 1498/3 1500/3 1499/3 1497/3
f 1497/3 1499/3 1535/3
f 1500/3 1498/3 1536/3
f 1500/3 1502/3 1501/3 1499/3
f 1499/3 1501/3 1535/3
f 1502/3 1500/3 1536/3
f 1502/3 1504/3 1503/3 1501/3
f 1501/3 1503/3 1535/3
f 1504/3 1502/3 1536/3
f 1504/3 1506/3 1505/3 1503/3
f 1503/3 1505/3 1535/3
f 1506/3 1504/3 1536/3
f 1506/3 1508/3 1507/3 1505/3
f 1505/3 1507/3 1535/3
f 1508/3 1506/3 1536/3
f 1508/3 1510/3 1509/3 1507/3
f 1507/3 1509/3 1535/3
f 1510/3 1508/3 1536/3
f 1510/3 1512/3 1511/3 1509/3
f 1509/3 1511/3 1535/3
f 1512/3 1510/3 1536/3
f 1512/3 1514/3 1513/3 1511/3
f 1511/3 1513/3 1535/3
f 1514/3 1512/3 1536/3
f 1514/3 1516/3 1515/3 1513/3
f 1513/3 1515/3 1535/3
f 1516/3 1514/3 1536/3
f 1516/3 1518/3 1517/3 1515/3
f 1515/3 1517/3 1535/3
f 1518/3 1516/3 1536/3
f 1518/3 1520/3 1519/3 1517/3
f 1517/3 1519/3 1535/3
f 1520/3 1518/3 1536/3
f 1520/3 1522/3 1521/3 1519/3
f 1519/3 1521/3 1535/3
f 1522/3 1520/3 1536/3
f 1522/3 1524/3 1523/3 1521/3
f 1521/3 1523/3 1535/3
f 1524/3 1522/3 1536/3
f 1524/3 1526/3 1525/3 1523/3
f 1523/3 1525/3 1535/3
f 1526/3 1524/3 1536/3
f 1526/3 1528/3 1527/3 1525/3
f 1525/3 1527/3 1535/3
f 1528/3 1526/3 1536/3
f 1528/3 1530/3 1529/3 1527/3
f 1527/3 1529/3 1535/3
f 1530/3 1528/3 1536/3
f 1530/3 1532/3 1531/3 1529/3
f 1529/3 1531/3 1535/3
f 1532/3 1530/3 1536/3
f 1532/3 1534/3 1533/3 1531/3
f 1531/3 1533/3 1535/3
f 1534/3 1532/3 1536/3
f 1534/3 1488/3 1487/3 1533/3
f 1533/3 1487/3 1535/3
f 1488/3 1534/3 1536/3
f 1606/3 1608/3 1607/3 1605/3
f 1605/3 1607/3 1653/3
f 1608/3 1606/3 1654/3
f 1608/3 1610/3 1609/3 1607/3
f 1607/3 1609/3 1653/3
f 1610/3 1608/3 1654/3
f 1610/3 1612/3 1611/3 1609/3
f 1609/3 1611/3 1653/3
f 1612/3 1610/3 1654/3
f 1612/3 1614/3 1613/3 1611/3
f 1611/3 1613/3 1653/3
f 1614/3 1612/3 1654/3
f 1614/3 1616/3 1615/3 1613/3
f 1613/3 1615/3 1653/3
f 1616/3 1614/3 1654/3
f 1616/3 1618/3 1617/3 1615/3
f 1615/3 1617/3 1653/3
f 1618/3 1616/3 1654/3
f 1618/3 1620/3 1619/3 1617/3
f 1617/3 1619/3 1653/3
f 1620/3 1618/3 1654/3
f 1620/3 1622/3 1621/3 1619/3
f 1619/3 1621/3 1653/3
f 1622/3 1620/3 1654/3
f 1622/3 1624/3 1623/3 1621/3
f 1621/3 1623/3 1653/3
f 1624/3 1622/3 1654/3
f 1624/3 1626/3 1625/3 1623/3
f 1623/3 1625/3 1653/3
f 1626/3 1624/3 1654/3
f 1626/3 1628/3 1627/3 1625/3
f 1625/3 1627/3 1653/3
f 1628/3 1626/3 1654/3
f 1628/3 1630/3 1629/3 1627/3
f 1627/3 1629/3 1653/3
f 1630/3 1628/3 1654/3
f 1630/3 1632/3 1631/3 1629/3
f 1629/3 1631/3 1653/3
f 1632/3 1630/3 1654/3
f 1632/3 1634/3 1633/3 1631/3
f 1631/3 1633/3 1653/3
f 1634/3 1632/3 1654/3
f 1634/3 1636/3 1635/3 1633/3
f 1633/3 1635/3 1653/3
f 1636/3 1634/3 1654/3
f 1636/3 1638/3 1637/3 1635/3
f 1635/3 1637/3 1653/3
f 1638/3 1636/3 1654/3
f 1638/3 1640/3 1639/3 1637/3
f 1637/3 1639/3 1653/3
f 1640/3 1638/3 1654/3
f 1640/3 1642/3 1641/3 1639/3
f 1639/3 1641/3 1653/3
f 1642/3 1640/3 1654/3
f 1642/3 1644/3 1643/3 1641/3
f 1641/3 1643/3 1653/3
f 1644/3 1642/3 1654/3
f 1644/3 1646/3 1645/3 1643/3
f 1643/3 1645/3 1653/3
f 1646/3 1644/3 1654/3
f 1646/3 1648/3 1647/3 1645/3
f 1645/3 1647/3 1653/3
f 1648/3 1646/3 1654/3
f 1648/3 1650/3 1649/3 1647/3
f 1647/3 1649/3 1653/3
f 1650/3 1648/3 1654/3
f 1650/3 1652/3 1651/3 1649/3
f 1649/3 1651/3 1653/3
f 1652/3 1650/3 1654/3
f 1652/3 1606/3 1605/3 1651/3
f 1651/3 1605/3 1653/3
f 1606/3 1652/3 1654/3
usemtl wood
f 601/5 602/5 586/5 585/5
f 602/5 603/5 587/5 586/5
f 603/5 604/5 588/5 587/5
f 604/5 605/5 589/5 588/5
f 605/5 606/5 590/5 589/5
f 606/5 607/5 591/5 590/5
f 607/5 608/5 592/5 591/5
f 608/5 609/5 593/5 592/5
f 609/5 610/5 594/5 593/5
f 610/5 611/5 595/5 594/5
f 611/5 612/5 596/5 595/5
f 612/5 613/5 597/5 596/5
f 613/5 614/5 598/5 597/5
f 614/5 615/5 599/5 598/5
f 615/5 616/5 600/5 599/5
f 616/5 601/5 585/5 600/5
usemtl cream
f 633/1 634/1 618/1 617/1
f 634/1 635/1 619/1 618/1
f 635/1 636/1 620/1 619/1
f 636/1 637/1 621/1 620/1
f 637/1 638/1 622/1 621/1
f 638/1 639/1 623/1 622/1
f 639/1 640/1 624/1 623/1
f 640/1 641/1 625/1 624/1
f 641/1 642/1 626/1 625/1
f 642/1 643/1 627/1 626/1
f 643/1 644/1 628/1 627/1
f 644/1 645/1 629/1 628/1
f 645/1 646/1 630/1 629/1
f 646/1 647/1 631/1 630/1
f 647/1 648/1 632/1 631/1
f 648/1 633/1 617/1 632/1
f 649/1 650/1 634/1 633/1
f 650/1 651/1 635/1 634/1
f 651/1 652/1 636/1 635/1
f 652/1 653/1 637/1 636/1
f 653/1 654/1 638/1 637/1
f 654/1 655/1 639/1 638/1
f 655/1 656/1 640/1 639/1
f 656/1 657/1 641/1 640/1
f 657/1 658/1 642/1 641/1
f 658/1 659/1 643/1 642/1
f 659/1 660/1 644/1 643/1
f 660/1 661/1 645/1 644/1
f 661/1 662/1 646/1 645/1
f 662/1 663/1 647/1 646/1
f 663/1 664/1 648/1 647/1
f 664/1 649/1 633/1 648/1
usemtl coral
f 665/2 666/2 793/2
f 778/2 777/2 794/2
f 666/2 667/2 793/2
f 779/2 778/2 794/2
f 667/2 668/2 793/2
f 780/2 779/2 794/2
f 668/2 669/2 793/2
f 781/2 780/2 794/2
f 669/2 670/2 793/2
f 782/2 781/2 794/2
f 670/2 671/2 793/2
f 783/2 782/2 794/2
f 671/2 672/2 793/2
f 784/2 783/2 794/2
f 672/2 673/2 793/2
f 785/2 784/2 794/2
f 673/2 674/2 793/2
f 786/2 785/2 794/2
f 674/2 675/2 793/2
f 787/2 786/2 794/2
f 675/2 676/2 793/2
f 788/2 787/2 794/2
f 676/2 677/2 793/2
f 789/2 788/2 794/2
f 677/2 678/2 793/2
f 790/2 789/2 794/2
f 678/2 679/2 793/2
f 791/2 790/2 794/2
f 679/2 680/2 793/2
f 792/2 791/2 794/2
f 680/2 665/2 793/2
f 777/2 792/2 794/2
f 681/2 682/2 666/2 665/2
f 682/2 683/2 667/2 666/2
f 683/2 684/2 668/2 667/2
f 684/2 685/2 669/2 668/2
f 685/2 686/2 670/2 669/2
f 686/2 687/2 671/2 670/2
f 687/2 688/2 672/2 671/2
f 688/2 689/2 673/2 672/2
f 689/2 690/2 674/2 673/2
f 690/2 691/2 675/2 674/2
f 691/2 692/2 676/2 675/2
f 692/2 693/2 677/2 676/2
f 693/2 694/2 678/2 677/2
f 694/2 695/2 679/2 678/2
f 695/2 696/2 680/2 679/2
f 696/2 681/2 665/2 680/2
f 697/2 698/2 682/2 681/2
f 698/2 699/2 683/2 682/2
f 699/2 700/2 684/2 683/2
f 700/2 701/2 685/2 684/2
f 701/2 702/2 686/2 685/2
f 702/2 703/2 687/2 686/2
f 703/2 704/2 688/2 687/2
f 704/2 705/2 689/2 688/2
f 705/2 706/2 690/2 689/2
f 706/2 707/2 691/2 690/2
f 707/2 708/2 692/2 691/2
f 708/2 709/2 693/2 692/2
f 709/2 710/2 694/2 693/2
f 710/2 711/2 695/2 694/2
f 711/2 712/2 696/2 695/2
f 712/2 697/2 681/2 696/2
f 713/2 714/2 698/2 697/2
f 714/2 715/2 699/2 698/2
f 715/2 716/2 700/2 699/2
f 716/2 717/2 701/2 700/2
f 717/2 718/2 702/2 701/2
f 718/2 719/2 703/2 702/2
f 719/2 720/2 704/2 703/2
f 720/2 721/2 705/2 704/2
f 721/2 722/2 706/2 705/2
f 722/2 723/2 707/2 706/2
f 723/2 724/2 708/2 707/2
f 724/2 725/2 709/2 708/2
f 725/2 726/2 710/2 709/2
f 726/2 727/2 711/2 710/2
f 727/2 728/2 712/2 711/2
f 728/2 713/2 697/2 712/2
f 729/2 730/2 714/2 713/2
f 730/2 731/2 715/2 714/2
f 731/2 732/2 716/2 715/2
f 732/2 733/2 717/2 716/2
f 733/2 734/2 718/2 717/2
f 734/2 735/2 719/2 718/2
f 735/2 736/2 720/2 719/2
f 736/2 737/2 721/2 720/2
f 737/2 738/2 722/2 721/2
f 738/2 739/2 723/2 722/2
f 739/2 740/2 724/2 723/2
f 740/2 741/2 725/2 724/2
f 741/2 742/2 726/2 725/2
f 742/2 743/2 727/2 726/2
f 743/2 744/2 728/2 727/2
f 744/2 729/2 713/2 728/2
f 745/2 746/2 730/2 729/2
f 746/2 747/2 731/2 730/2
f 747/2 748/2 732/2 731/2
f 748/2 749/2 733/2 732/2
f 749/2 750/2 734/2 733/2
f 750/2 751/2 735/2 734/2
f 751/2 752/2 736/2 735/2
f 752/2 753/2 737/2 736/2
f 753/2 754/2 738/2 737/2
f 754/2 755/2 739/2 738/2
f 755/2 756/2 740/2 739/2
f 756/2 757/2 741/2 740/2
f 757/2 758/2 742/2 741/2
f 758/2 759/2 743/2 742/2
f 759/2 760/2 744/2 743/2
f 760/2 745/2 729/2 744/2
f 761/2 762/2 746/2 745/2
f 762/2 763/2 747/2 746/2
f 763/2 764/2 748/2 747/2
f 764/2 765/2 749/2 748/2
f 765/2 766/2 750/2 749/2
f 766/2 767/2 751/2 750/2
f 767/2 768/2 752/2 751/2
f 768/2 769/2 753/2 752/2
f 769/2 770/2 754/2 753/2
f 770/2 771/2 755/2 754/2
f 771/2 772/2 756/2 755/2
f 772/2 773/2 757/2 756/2
f 773/2 774/2 758/2 757/2
f 774/2 775/2 759/2 758/2
f 775/2 776/2 760/2 759/2
f 776/2 761/2 745/2 760/2
f 777/2 778/2 762/2 761/2
f 778/2 779/2 763/2 762/2
f 779/2 780/2 764/2 763/2
f 780/2 781/2 765/2 764/2
f 781/2 782/2 766/2 765/2
f 782/2 783/2 767/2 766/2
f 783/2 784/2 768/2 767/2
f 784/2 785/2 769/2 768/2
f 785/2 786/2 770/2 769/2
f 786/2 787/2 771/2 770/2
f 787/2 788/2 772/2 771/2
f 788/2 789/2 773/2 772/2
f 789/2 790/2 774/2 773/2
f 790/2 791/2 775/2 774/2
f 791/2 792/2 776/2 775/2
f 792/2 777/2 761/2 776/2
f 1066/2 1068/2 1067/2 1065/2
f 1065/2 1067/2 1113/2
f 1068/2 1066/2 1114/2
f 1068/2 1070/2 1069/2 1067/2
f 1067/2 1069/2 1113/2
f 1070/2 1068/2 1114/2
f 1070/2 1072/2 1071/2 1069/2
f 1069/2 1071/2 1113/2
f 1072/2 1070/2 1114/2
f 1072/2 1074/2 1073/2 1071/2
f 1071/2 1073/2 1113/2
f 1074/2 1072/2 1114/2
f 1074/2 1076/2 1075/2 1073/2
f 1073/2 1075/2 1113/2
f 1076/2 1074/2 1114/2
f 1076/2 1078/2 1077/2 1075/2
f 1075/2 1077/2 1113/2
f 1078/2 1076/2 1114/2
f 1078/2 1080/2 1079/2 1077/2
f 1077/2 1079/2 1113/2
f 1080/2 1078/2 1114/2
f 1080/2 1082/2 1081/2 1079/2
f 1079/2 1081/2 1113/2
f 1082/2 1080/2 1114/2
f 1082/2 1084/2 1083/2 1081/2
f 1081/2 1083/2 1113/2
f 1084/2 1082/2 1114/2
f 1084/2 1086/2 1085/2 1083/2
f 1083/2 1085/2 1113/2
f 1086/2 1084/2 1114/2
f 1086/2 1088/2 1087/2 1085/2
f 1085/2 1087/2 1113/2
f 1088/2 1086/2 1114/2
f 1088/2 1090/2 1089/2 1087/2
f 1087/2 1089/2 1113/2
f 1090/2 1088/2 1114/2
f 1090/2 1092/2 1091/2 1089/2
f 1089/2 1091/2 1113/2
f 1092/2 1090/2 1114/2
f 1092/2 1094/2 1093/2 1091/2
f 1091/2 1093/2 1113/2
f 1094/2 1092/2 1114/2
f 1094/2 1096/2 1095/2 1093/2
f 1093/2 1095/2 1113/2
f 1096/2 1094/2 1114/2
f 1096/2 1098/2 1097/2 1095/2
f 1095/2 1097/2 1113/2
f 1098/2 1096/2 1114/2
f 1098/2 1100/2 1099/2 1097/2
f 1097/2 1099/2 1113/2
f 1100/2 1098/2 1114/2
f 1100/2 1102/2 1101/2 1099/2
f 1099/2 1101/2 1113/2
f 1102/2 1100/2 1114/2
f 1102/2 1104/2 1103/2 1101/2
f 1101/2 1103/2 1113/2
f 1104/2 1102/2 1114/2
f 1104/2 1106/2 1105/2 1103/2
f 1103/2 1105/2 1113/2
f 1106/2 1104/2 1114/2
f 1106/2 1108/2 1107/2 1105/2
f 1105/2 1107/2 1113/2
f 1108/2 1106/2 1114/2
f 1108/2 1110/2 1109/2 1107/2
f 1107/2 1109/2 1113/2
f 1110/2 1108/2 1114/2
f 1110/2 1112/2 1111/2 1109/2
f 1109/2 1111/2 1113/2
f 1112/2 1110/2 1114/2
f 1112/2 1066/2 1065/2 1111/2
f 1111/2 1065/2 1113/2
f 1066/2 1112/2 1114/2
f 1184/2 1186/2 1185/2 1183/2
f 1183/2 1185/2 1231/2
f 1186/2 1184/2 1232/2
f 1186/2 1188/2 1187/2 1185/2
f 1185/2 1187/2 1231/2
f 1188/2 1186/2 1232/2
f 1188/2 1190/2 1189/2 1187/2
f 1187/2 1189/2 1231/2
f 1190/2 1188/2 1232/2
f 1190/2 1192/2 1191/2 1189/2
f 1189/2 1191/2 1231/2
f 1192/2 1190/2 1232/2
f 1192/2 1194/2 1193/2 1191/2
f 1191/2 1193/2 1231/2
f 1194/2 1192/2 1232/2
f 1194/2 1196/2 1195/2 1193/2
f 1193/2 1195/2 1231/2
f 1196/2 1194/2 1232/2
f 1196/2 1198/2 1197/2 1195/2
f 1195/2 1197/2 1231/2
f 1198/2 1196/2 1232/2
f 1198/2 1200/2 1199/2 1197/2
f 1197/2 1199/2 1231/2
f 1200/2 1198/2 1232/2
f 1200/2 1202/2 1201/2 1199/2
f 1199/2 1201/2 1231/2
f 1202/2 1200/2 1232/2
f 1202/2 1204/2 1203/2 1201/2
f 1201/2 1203/2 1231/2
f 1204/2 1202/2 1232/2
f 1204/2 1206/2 1205/2 1203/2
f 1203/2 1205/2 1231/2
f 1206/2 1204/2 1232/2
f 1206/2 1208/2 1207/2 1205/2
f 1205/2 1207/2 1231/2
f 1208/2 1206/2 1232/2
f 1208/2 1210/2 1209/2 1207/2
f 1207/2 1209/2 1231/2
f 1210/2 1208/2 1232/2
f 1210/2 1212/2 1211/2 1209/2
f 1209/2 1211/2 1231/2
f 1212/2 1210/2 1232/2
f 1212/2 1214/2 1213/2 1211/2
f 1211/2 1213/2 1231/2
f 1214/2 1212/2 1232/2
f 1214/2 1216/2 1215/2 1213/2
f 1213/2 1215/2 1231/2
f 1216/2 1214/2 1232/2
f 1216/2 1218/2 1217/2 1215/2
f 1215/2 1217/2 1231/2
f 1218/2 1216/2 1232/2
f 1218/2 1220/2 1219/2 1217/2
f 1217/2 1219/2 1231/2
f 1220/2 1218/2 1232/2
f 1220/2 1222/2 1221/2 1219/2
f 1219/2 1221/2 1231/2
f 1222/2 1220/2 1232/2
f 1222/2 1224/2 1223/2 1221/2
f 1221/2 1223/2 1231/2
f 1224/2 1222/2 1232/2
f 1224/2 1226/2 1225/2 1223/2
f 1223/2 1225/2 1231/2
f 1226/2 1224/2 1232/2
f 1226/2 1228/2 1227/2 1225/2
f 1225/2 1227/2 1231/2
f 1228/2 1226/2 1232/2
f 1228/2 1230/2 1229/2 1227/2
f 1227/2 1229/2 1231/2
f 1230/2 1228/2 1232/2
f 1230/2 1184/2 1183/2 1229/2
f 1229/2 1183/2 1231/2
f 1184/2 1230/2 1232/2
f 1302/2 1304/2 1303/2 1301/2
f 1301/2 1303/2 1349/2
f 1304/2 1302/2 1350/2
f 1304/2 1306/2 1305/2 1303/2
f 1303/2 1305/2 1349/2
f 1306/2 1304/2 1350/2
f 1306/2 1308/2 1307/2 1305/2
f 1305/2 1307/2 1349/2
f 1308/2 1306/2 1350/2
f 1308/2 1310/2 1309/2 1307/2
f 1307/2 1309/2 1349/2
f 1310/2 1308/2 1350/2
f 1310/2 1312/2 1311/2 1309/2
f 1309/2 1311/2 1349/2
f 1312/2 1310/2 1350/2
f 1312/2 1314/2 1313/2 1311/2
f 1311/2 1313/2 1349/2
f 1314/2 1312/2 1350/2
f 1314/2 1316/2 1315/2 1313/2
f 1313/2 1315/2 1349/2
f 1316/2 1314/2 1350/2
f 1316/2 1318/2 1317/2 1315/2
f 1315/2 1317/2 1349/2
f 1318/2 1316/2 1350/2
f 1318/2 1320/2 1319/2 1317/2
f 1317/2 1319/2 1349/2
f 1320/2 1318/2 1350/2
f 1320/2 1322/2 1321/2 1319/2
f 1319/2 1321/2 1349/2
f 1322/2 1320/2 1350/2
f 1322/2 1324/2 1323/2 1321/2
f 1321/2 1323/2 1349/2
f 1324/2 1322/2 1350/2
f 1324/2 1326/2 1325/2 1323/2
f 1323/2 1325/2 1349/2
f 1326/2 1324/2 1350/2
f 1326/2 1328/2 1327/2 1325/2
f 1325/2 1327/2 1349/2
f 1328/2 1326/2 1350/2
f 1328/2 1330/2 1329/2 1327/2
f 1327/2 1329/2 1349/2
f 1330/2 1328/2 1350/2
f 1330/2 1332/2 1331/2 1329/2
f 1329/2 1331/2 1349/2
f 1332/2 1330/2 1350/2
f 1332/2 1334/2 1333/2 1331/2
f 1331/2 1333/2 1349/2
f 1334/2 1332/2 1350/2
f 1334/2 1336/2 1335/2 1333/2
f 1333/2 1335/2 1349/2
f 1336/2 1334/2 1350/2
f 1336/2 1338/2 1337/2 1335/2
f 1335/2 1337/2 1349/2
f 1338/2 1336/2 1350/2
f 1338/2 1340/2 1339/2 1337/2
f 1337/2 1339/2 1349/2
f 1340/2 1338/2 1350/2
f 1340/2 1342/2 1341/2 1339/2
f 1339/2 1341/2 1349/2
f 1342/2 1340/2 1350/2
f 1342/2 1344/2 1343/2 1341/2
f 1341/2 1343/2 1349/2
f 1344/2 1342/2 1350/2
f 1344/2 1346/2 1345/2 1343/2
f 1343/2 1345/2 1349/2
f 1346/2 1344/2 1350/2
f 1346/2 1348/2 1347/2 1345/2
f 1345/2 1347/2 1349/2
f 1348/2 1346/2 1350/2
f 1348/2 1302/2 1301/2 1347/2
f 1347/2 1301/2 1349/2
f 1302/2 1348/2 1350/2
f 1420/2 1422/2 1421/2 1419/2
f 1419/2 1421/2 1467/2
f 1422/2 1420/2 1468/2
f 1422/2 1424/2 1423/2 1421/2
f 1421/2 1423/2 1467/2
f 1424/2 1422/2 1468/2
f 1424/2 1426/2 1425/2 1423/2
f 1423/2 1425/2 1467/2
f 1426/2 1424/2 1468/2
f 1426/2 1428/2 1427/2 1425/2
f 1425/2 1427/2 1467/2
f 1428/2 1426/2 1468/2
f 1428/2 1430/2 1429/2 1427/2
f 1427/2 1429/2 1467/2
f 1430/2 1428/2 1468/2
f 1430/2 1432/2 1431/2 1429/2
f 1429/2 1431/2 1467/2
f 1432/2 1430/2 1468/2
f 1432/2 1434/2 1433/2 1431/2
f 1431/2 1433/2 1467/2
f 1434/2 1432/2 1468/2
f 1434/2 1436/2 1435/2 1433/2
f 1433/2 1435/2 1467/2
f 1436/2 1434/2 1468/2
f 1436/2 1438/2 1437/2 1435/2
f 1435/2 1437/2 1467/2
f 1438/2 1436/2 1468/2
f 1438/2 1440/2 1439/2 1437/2
f 1437/2 1439/2 1467/2
f 1440/2 1438/2 1468/2
f 1440/2 1442/2 1441/2 1439/2
f 1439/2 1441/2 1467/2
f 1442/2 1440/2 1468/2
f 1442/2 1444/2 1443/2 1441/2
f 1441/2 1443/2 1467/2
f 1444/2 1442/2 1468/2
f 1444/2 1446/2 1445/2 1443/2
f 1443/2 1445/2 1467/2
f 1446/2 1444/2 1468/2
f 1446/2 1448/2 1447/2 1445/2
f 1445/2 1447/2 1467/2
f 1448/2 1446/2 1468/2
f 1448/2 1450/2 1449/2 1447/2
f 1447/2 1449/2 1467/2
f 1450/2 1448/2 1468/2
f 1450/2 1452/2 1451/2 1449/2
f 1449/2 1451/2 1467/2
f 1452/2 1450/2 1468/2
f 1452/2 1454/2 1453/2 1451/2
f 1451/2 1453/2 1467/2
f 1454/2 1452/2 1468/2
f 1454/2 1456/2 1455/2 1453/2
f 1453/2 1455/2 1467/2
f 1456/2 1454/2 1468/2
f 1456/2 1458/2 1457/2 1455/2
f 1455/2 1457/2 1467/2
f 1458/2 1456/2 1468/2
f 1458/2 1460/2 1459/2 1457/2
f 1457/2 1459/2 1467/2
f 1460/2 1458/2 1468/2
f 1460/2 1462/2 1461/2 1459/2
f 1459/2 1461/2 1467/2
f 1462/2 1460/2 1468/2
f 1462/2 1464/2 1463/2 1461/2
f 1461/2 1463/2 1467/2
f 1464/2 1462/2 1468/2
f 1464/2 1466/2 1465/2 1463/2
f 1463/2 1465/2 1467/2
f 1466/2 1464/2 1468/2
f 1466/2 1420/2 1419/2 1465/2
f 1465/2 1419/2 1467/2
f 1420/2 1466/2 1468/2
f 1538/2 1540/2 1539/2 1537/2
f 1537/2 1539/2 1585/2
f 1540/2 1538/2 1586/2
f 1540/2 1542/2 1541/2 1539/2
f 1539/2 1541/2 1585/2
f 1542/2 1540/2 1586/2
f 1542/2 1544/2 1543/2 1541/2
f 1541/2 1543/2 1585/2
f 1544/2 1542/2 1586/2
f 1544/2 1546/2 1545/2 1543/2
f 1543/2 1545/2 1585/2
f 1546/2 1544/2 1586/2
f 1546/2 1548/2 1547/2 1545/2
f 1545/2 1547/2 1585/2
f 1548/2 1546/2 1586/2
f 1548/2 1550/2 1549/2 1547/2
f 1547/2 1549/2 1585/2
f 1550/2 1548/2 1586/2
f 1550/2 1552/2 1551/2 1549/2
f 1549/2 1551/2 1585/2
f 1552/2 1550/2 1586/2
f 1552/2 1554/2 1553/2 1551/2
f 1551/2 1553/2 1585/2
f 1554/2 1552/2 1586/2
f 1554/2 1556/2 1555/2 1553/2
f 1553/2 1555/2 1585/2
f 1556/2 1554/2 1586/2
f 1556/2 1558/2 1557/2 1555/2
f 1555/2 1557/2 1585/2
f 1558/2 1556/2 1586/2
f 1558/2 1560/2 1559/2 1557/2
f 1557/2 1559/2 1585/2
f 1560/2 1558/2 1586/2
f 1560/2 1562/2 1561/2 1559/2
f 1559/2 1561/2 1585/2
f 1562/2 1560/2 1586/2
f 1562/2 1564/2 1563/2 1561/2
f 1561/2 1563/2 1585/2
f 1564/2 1562/2 1586/2
f 1564/2 1566/2 1565/2 1563/2
f 1563/2 1565/2 1585/2
f 1566/2 1564/2 1586/2
f 1566/2 1568/2 1567/2 1565/2
f 1565/2 1567/2 1585/2
f 1568/2 1566/2 1586/2
f 1568/2 1570/2 1569/2 1567/2
f 1567/2 1569/2 1585/2
f 1570/2 1568/2 1586/2
f 1570/2 1572/2 1571/2 1569/2
f 1569/2 1571/2 1585/2
f 1572/2 1570/2 1586/2
f 1572/2 1574/2 1573/2 1571/2
f 1571/2 1573/2 1585/2
f 1574/2 1572/2 1586/2
f 1574/2 1576/2 1575/2 1573/2
f 1573/2 1575/2 1585/2
f 1576/2 1574/2 1586/2
f 1576/2 1578/2 1577/2 1575/2
f 1575/2 1577/2 1585/2
f 1578/2 1576/2 1586/2
f 1578/2 1580/2 1579/2 1577/2
f 1577/2 1579/2 1585/2
f 1580/2 1578/2 1586/2
f 1580/2 1582/2 1581/2 1579/2
f 1579/2 1581/2 1585/2
f 1582/2 1580/2 1586/2
f 1582/2 1584/2 1583/2 1581/2
f 1581/2 1583/2 1585/2
f 1584/2 1582/2 1586/2
f 1584/2 1538/2 1537/2 1583/2
f 1583/2 1537/2 1585/2
f 1538/2 1584/2 1586/2
f 1656/2 1658/2 1657/2 1655/2
f 1655/2 1657/2 1703/2
f 1658/2 1656/2 1704/2
f 1658/2 1660/2 1659/2 1657/2
f 1657/2 1659/2 1703/2
f 1660/2 1658/2 1704/2
f 1660/2 1662/2 1661/2 1659/2
f 1659/2 1661/2 1703/2
f 1662/2 1660/2 1704/2
f 1662/2 1664/2 1663/2 1661/2
f 1661/2 1663/2 1703/2
f 1664/2 1662/2 1704/2
f 1664/2 1666/2 1665/2 1663/2
f 1663/2 1665/2 1703/2
f 1666/2 1664/2 1704/2
f 1666/2 1668/2 1667/2 1665/2
f 1665/2 1667/2 1703/2
f 1668/2 1666/2 1704/2
f 1668/2 1670/2 1669/2 1667/2
f 1667/2 1669/2 1703/2
f 1670/2 1668/2 1704/2
f 1670/2 1672/2 1671/2 1669/2
f 1669/2 1671/2 1703/2
f 1672/2 1670/2 1704/2
f 1672/2 1674/2 1673/2 1671/2
f 1671/2 1673/2 1703/2
f 1674/2 1672/2 1704/2
f 1674/2 1676/2 1675/2 1673/2
f 1673/2 1675/2 1703/2
f 1676/2 1674/2 1704/2
f 1676/2 1678/2 1677/2 1675/2
f 1675/2 1677/2 1703/2
f 1678/2 1676/2 1704/2
f 1678/2 1680/2 1679/2 1677/2
f 1677/2 1679/2 1703/2
f 1680/2 1678/2 1704/2
f 1680/2 1682/2 1681/2 1679/2
f 1679/2 1681/2 1703/2
f 1682/2 1680/2 1704/2
f 1682/2 1684/2 1683/2 1681/2
f 1681/2 1683/2 1703/2
f 1684/2 1682/2 1704/2
f 1684/2 1686/2 1685/2 1683/2
f 1683/2 1685/2 1703/2
f 1686/2 1684/2 1704/2
f 1686/2 1688/2 1687/2 1685/2
f 1685/2 1687/2 1703/2
f 1688/2 1686/2 1704/2
f 1688/2 1690/2 1689/2 1687/2
f 1687/2 1689/2 1703/2
f 1690/2 1688/2 1704/2
f 1690/2 1692/2 1691/2 1689/2
f 1689/2 1691/2 1703/2
f 1692/2 1690/2 1704/2
f 1692/2 1694/2 1693/2 1691/2
f 1691/2 1693/2 1703/2
f 1694/2 1692/2 1704/2
f 1694/2 1696/2 1695/2 1693/2
f 1693/2 1695/2 1703/2
f 1696/2 1694/2 1704/2
f 1696/2 1698/2 1697/2 1695/2
f 1695/2 1697/2 1703/2
f 1698/2 1696/2 1704/2
f 1698/2 1700/2 1699/2 1697/2
f 1697/2 1699/2 1703/2
f 1700/2 1698/2 1704/2
f 1700/2 1702/2 1701/2 1699/2
f 1699/2 1701/2 1703/2
f 1702/2 1700/2 1704/2
f 1702/2 1656/2 1655/2 1701/2
f 1701/2 1655/2 1703/2
f 1656/2 1702/2 1704/2
