# ParkParkDecorPalm — ParkPark original fairground mesh
mtllib ParkParkFairground.mtl
o ParkParkDecorPalm
v 0.00000 0.00000 -0.62000
v -0.43818 0.01416 -0.43841
v -0.61968 0.02002 -0.00000
v -0.43818 0.01416 0.43841
v -0.00000 0.00000 0.62000
v 0.43818 -0.01416 0.43841
v 0.61968 -0.02002 0.00000
v 0.43818 -0.01416 -0.43841
v 0.03878 1.20000 -0.57429
v -0.36709 1.21311 -0.40608
v -0.53521 1.21855 -0.00000
v -0.36709 1.21311 0.40608
v 0.03878 1.20000 0.57429
v 0.44464 1.18689 0.40608
v 0.61276 1.18145 0.00000
v 0.44464 1.18689 -0.40608
v 0.00000 0.00000 0.00000
v 0.03878 1.20000 0.00000
v 0.03878 1.20000 -0.57429
v -0.36541 1.23918 -0.40608
v -0.53283 1.25541 -0.00000
v -0.36541 1.23918 0.40608
v 0.03878 1.20000 0.57429
v 0.44296 1.16082 0.40608
v 0.61038 1.14459 0.00000
v 0.44296 1.16082 -0.40608
v 0.15510 2.40000 -0.52857
v -0.21691 2.43606 -0.37376
v -0.37100 2.45100 -0.00000
v -0.21691 2.43606 0.37376
v 0.15510 2.40000 0.52857
v 0.52711 2.36394 0.37376
v 0.68121 2.34900 0.00000
v 0.52711 2.36394 -0.37376
v 0.03878 1.20000 0.00000
v 0.15510 2.40000 0.00000
v 0.15510 2.40000 -0.52857
v -0.21387 2.45961 -0.37376
v -0.36670 2.48431 -0.00000
v -0.21387 2.45961 0.37376
v 0.15510 2.40000 0.52857
v 0.52407 2.34039 0.37376
v 0.67691 2.31569 0.00000
v 0.52407 2.34039 -0.37376
v 0.34898 3.60000 -0.48286
v 0.01192 3.65446 -0.34143
v -0.12770 3.67701 -0.00000
v 0.01192 3.65446 0.34143
v 0.34898 3.60000 0.48286
v 0.68604 3.54554 0.34143
v 0.82566 3.52299 0.00000
v 0.68604 3.54554 -0.34143
v 0.15510 2.40000 0.00000
v 0.34898 3.60000 0.00000
v 0.34898 3.60000 -0.48286
v 0.01596 3.67533 -0.34143
v -0.12198 3.70653 -0.00000
v 0.01596 3.67533 0.34143
v 0.34898 3.60000 0.48286
v 0.68200 3.52467 0.34143
v 0.81994 3.49347 0.00000
v 0.68200 3.52467 -0.34143
v 0.62041 4.80000 -0.43714
v 0.31892 4.86819 -0.30911
v 0.19404 4.89644 -0.00000
v 0.31892 4.86819 0.30911
v 0.62041 4.80000 0.43714
v 0.92190 4.73181 0.30911
v 1.04678 4.70356 0.00000
v 0.92190 4.73181 -0.30911
v 0.34898 3.60000 0.00000
v 0.62041 4.80000 0.00000
v 0.62041 4.80000 -0.43714
v 0.32360 4.88632 -0.30911
v 0.20066 4.92207 -0.00000
v 0.32360 4.88632 0.30911
v 0.62041 4.80000 0.43714
v 0.91722 4.71368 0.30911
v 1.04016 4.67793 0.00000
v 0.91722 4.71368 -0.30911
v 0.96939 6.00000 -0.39143
v 0.70362 6.07729 -0.27678
v 0.59353 6.10931 -0.00000
v 0.70362 6.07729 0.27678
v 0.96939 6.00000 0.39143
v 1.23516 5.92271 0.27678
v 1.34524 5.89069 0.00000
v 1.23516 5.92271 -0.27678
v 0.62041 4.80000 0.00000
v 0.96939 6.00000 0.00000
v 0.96939 6.00000 -0.39143
v 0.70859 6.09270 -0.27678
v 0.60056 6.13110 -0.00000
v 0.70859 6.09270 0.27678
v 0.96939 6.00000 0.39143
v 1.23018 5.90730 0.27678
v 1.33821 5.86890 0.00000
v 1.23018 5.90730 -0.27678
v 1.39592 7.20000 -0.34571
v 1.16558 7.28187 -0.24446
v 1.07017 7.31578 -0.00000
v 1.16558 7.28187 0.24446
v 1.39592 7.20000 0.34571
v 1.62626 7.11813 0.24446
v 1.72167 7.08422 0.00000
v 1.62626 7.11813 -0.24446
v 0.96939 6.00000 0.00000
v 1.39592 7.20000 0.00000
v 1.39592 7.20000 -0.34571
v 1.17054 7.29467 -0.24446
v 1.07718 7.33389 -0.00000
v 1.17054 7.29467 0.24446
v 1.39592 7.20000 0.34571
v 1.62130 7.10533 0.24446
v 1.71465 7.06611 0.00000
v 1.62130 7.10533 -0.24446
v 1.90000 8.40000 -0.30000
v 1.70442 8.48216 -0.21213
v 1.62341 8.51619 -0.00000
v 1.70442 8.48216 0.21213
v 1.90000 8.40000 0.30000
v 2.09558 8.31784 0.21213
v 2.17659 8.28381 0.00000
v 2.09558 8.31784 -0.21213
v 1.39592 7.20000 0.00000
v 1.90000 8.40000 0.00000
v 1.90000 8.40000 0.10500
v 1.93554 8.30668 0.03245
v 1.92197 8.34232 -0.08495
v 1.87803 8.45768 -0.08495
v 1.86446 8.49332 0.03245
v 3.05000 8.83800 0.08500
v 3.07877 8.76245 0.02627
v 3.06778 8.79131 -0.06877
v 3.03222 8.88469 -0.06877
v 3.02123 8.91355 0.02627
v 1.90000 8.40000 0.00000
v 3.05000 8.83800 0.00000
v 3.34445 8.71300 -0.27500
v 3.19722 8.71300 -0.02000
v 2.90278 8.71300 -0.02000
v 2.75555 8.71300 -0.27500
v 2.90278 8.71300 -0.53000
v 3.19722 8.71300 -0.53000
v 3.34445 8.78300 -0.27500
v 3.19722 8.78300 -0.02000
v 2.90278 8.78300 -0.02000
v 2.75555 8.78300 -0.27500
v 2.90278 8.78300 -0.53000
v 3.19722 8.78300 -0.53000
v 3.05000 8.67800 -0.27500
v 3.05000 8.81800 -0.27500
v 3.34445 8.71300 0.27500
v 3.19722 8.71300 0.53000
v 2.90278 8.71300 0.53000
v 2.75555 8.71300 0.27500
v 2.90278 8.71300 0.02000
v 3.19722 8.71300 0.02000
v 3.34445 8.78300 0.27500
v 3.19722 8.78300 0.53000
v 2.90278 8.78300 0.53000
v 2.75555 8.78300 0.27500
v 2.90278 8.78300 0.02000
v 3.19722 8.78300 0.02000
v 3.05000 8.67800 0.27500
v 3.05000 8.81800 0.27500
v 3.05000 8.83800 0.09000
v 3.02599 8.75584 0.02781
v 3.03516 8.78722 -0.07281
v 3.06484 8.88878 -0.07281
v 3.07401 8.92016 0.02781
v 4.20000 8.50200 0.07000
v 4.18133 8.43810 0.02163
v 4.18846 8.46251 -0.05663
v 4.21154 8.54149 -0.05663
v 4.21867 8.56590 0.02163
v 3.05000 8.83800 0.00000
v 4.20000 8.50200 0.00000
v 4.49445 8.37700 -0.27500
v 4.34722 8.37700 -0.02000
v 4.05278 8.37700 -0.02000
v 3.90555 8.37700 -0.27500
v 4.05278 8.37700 -0.53000
v 4.34722 8.37700 -0.53000
v 4.49445 8.44700 -0.27500
v 4.34722 8.44700 -0.02000
v 4.05278 8.44700 -0.02000
v 3.90555 8.44700 -0.27500
v 4.05278 8.44700 -0.53000
v 4.34722 8.44700 -0.53000
v 4.20000 8.34200 -0.27500
v 4.20000 8.48200 -0.27500
v 4.49445 8.37700 0.27500
v 4.34722 8.37700 0.53000
v 4.05278 8.37700 0.53000
v 3.90555 8.37700 0.27500
v 4.05278 8.37700 0.02000
v 4.34722 8.37700 0.02000
v 4.49445 8.44700 0.27500
v 4.34722 8.44700 0.53000
v 4.05278 8.44700 0.53000
v 3.90555 8.44700 0.27500
v 4.05278 8.44700 0.02000
v 4.34722 8.44700 0.02000
v 4.20000 8.34200 0.27500
v 4.20000 8.48200 0.27500
v 4.20000 8.50200 0.07500
v 4.16877 8.43787 0.02318
v 4.18070 8.46237 -0.06068
v 4.21930 8.54163 -0.06068
v 4.23123 8.56613 0.02318
v 5.35000 7.94200 0.05500
v 5.32710 7.89497 0.01700
v 5.33585 7.91293 -0.04450
v 5.36415 7.97107 -0.04450
v 5.37290 7.98903 0.01700
v 4.20000 8.50200 0.00000
v 5.35000 7.94200 0.00000
v 5.64445 7.81700 -0.27500
v 5.49722 7.81700 -0.02000
v 5.20278 7.81700 -0.02000
v 5.05555 7.81700 -0.27500
v 5.20278 7.81700 -0.53000
v 5.49722 7.81700 -0.53000
v 5.64445 7.88700 -0.27500
v 5.49722 7.88700 -0.02000
v 5.20278 7.88700 -0.02000
v 5.05555 7.88700 -0.27500
v 5.20278 7.88700 -0.53000
v 5.49722 7.88700 -0.53000
v 5.35000 7.78200 -0.27500
v 5.35000 7.92200 -0.27500
v 5.64445 7.81700 0.27500
v 5.49722 7.81700 0.53000
v 5.20278 7.81700 0.53000
v 5.05555 7.81700 0.27500
v 5.20278 7.81700 0.02000
v 5.49722 7.81700 0.02000
v 5.64445 7.88700 0.27500
v 5.49722 7.88700 0.53000
v 5.20278 7.88700 0.53000
v 5.05555 7.88700 0.27500
v 5.20278 7.88700 0.02000
v 5.49722 7.88700 0.02000
v 5.35000 7.78200 0.27500
v 5.35000 7.92200 0.27500
v 5.35000 7.94200 0.06000
v 5.31786 7.89485 0.01854
v 5.33013 7.91286 -0.04854
v 5.36987 7.97114 -0.04854
v 5.38214 7.98915 0.01854
v 6.50000 7.15800 0.04000
v 6.47857 7.12657 0.01236
v 6.48676 7.13857 -0.03236
v 6.51324 7.17743 -0.03236
v 6.52143 7.18943 0.01236
v 5.35000 7.94200 0.00000
v 6.50000 7.15800 0.00000
v 6.79445 7.03300 -0.27500
v 6.64722 7.03300 -0.02000
v 6.35278 7.03300 -0.02000
v 6.20555 7.03300 -0.27500
v 6.35278 7.03300 -0.53000
v 6.64722 7.03300 -0.53000
v 6.79445 7.10300 -0.27500
v 6.64722 7.10300 -0.02000
v 6.35278 7.10300 -0.02000
v 6.20555 7.10300 -0.27500
v 6.35278 7.10300 -0.53000
v 6.64722 7.10300 -0.53000
v 6.50000 6.99800 -0.27500
v 6.50000 7.13800 -0.27500
v 6.79445 7.03300 0.27500
v 6.64722 7.03300 0.53000
v 6.35278 7.03300 0.53000
v 6.20555 7.03300 0.27500
v 6.35278 7.03300 0.02000
v 6.64722 7.03300 0.02000
v 6.79445 7.10300 0.27500
v 6.64722 7.10300 0.53000
v 6.35278 7.10300 0.53000
v 6.20555 7.10300 0.27500
v 6.35278 7.10300 0.02000
v 6.64722 7.10300 0.02000
v 6.50000 6.99800 0.27500
v 6.50000 7.13800 0.27500
v 1.82575 8.40000 0.07425
v 1.90219 8.30668 0.04808
v 1.97560 8.34232 -0.04453
v 1.94453 8.45768 -0.07560
v 1.85192 8.49332 -0.00219
v 2.65307 8.83800 0.87328
v 2.71495 8.76245 0.85209
v 2.77437 8.79131 0.77712
v 2.74922 8.88469 0.75197
v 2.67425 8.91355 0.81140
v 1.90000 8.40000 0.00000
v 2.71317 8.83800 0.81317
v 3.20208 8.71300 0.61872
v 3.05485 8.71300 0.87372
v 2.76040 8.71300 0.87372
v 2.61318 8.71300 0.61872
v 2.76040 8.71300 0.36372
v 3.05485 8.71300 0.36372
v 3.20208 8.78300 0.61872
v 3.05485 8.78300 0.87372
v 2.76040 8.78300 0.87372
v 2.61318 8.78300 0.61872
v 2.76040 8.78300 0.36372
v 3.05485 8.78300 0.36372
v 2.90763 8.67800 0.61872
v 2.90763 8.81800 0.61872
v 2.81317 8.71300 1.00763
v 2.66594 8.71300 1.26263
v 2.37149 8.71300 1.26263
v 2.22427 8.71300 1.00763
v 2.37149 8.71300 0.75263
v 2.66594 8.71300 0.75263
v 2.81317 8.78300 1.00763
v 2.66594 8.78300 1.26263
v 2.37149 8.78300 1.26263
v 2.22427 8.78300 1.00763
v 2.37149 8.78300 0.75263
v 2.66594 8.78300 0.75263
v 2.51872 8.67800 1.00763
v 2.51872 8.81800 1.00763
v 2.64953 8.83800 0.87681
v 2.67653 8.75584 0.81586
v 2.75417 8.78722 0.75120
v 2.77515 8.88878 0.77218
v 2.71048 8.92016 0.84981
v 3.47685 8.50200 1.67584
v 3.49785 8.43810 1.62844
v 3.55823 8.46251 1.57814
v 3.57455 8.54149 1.59446
v 3.52425 8.56590 1.65484
v 2.71317 8.83800 0.81317
v 3.52635 8.50200 1.62635
v 4.01525 8.37700 1.43189
v 3.86802 8.37700 1.68689
v 3.57358 8.37700 1.68689
v 3.42635 8.37700 1.43189
v 3.57358 8.37700 1.17689
v 3.86802 8.37700 1.17689
v 4.01525 8.44700 1.43189
v 3.86802 8.44700 1.68689
v 3.57358 8.44700 1.68689
v 3.42635 8.44700 1.43189
v 3.57358 8.44700 1.17689
v 3.86802 8.44700 1.17689
v 3.72080 8.34200 1.43189
v 3.72080 8.48200 1.43189
v 3.62634 8.37700 1.82080
v 3.47912 8.37700 2.07580
v 3.18467 8.37700 2.07580
v 3.03744 8.37700 1.82080
v 3.18467 8.37700 1.56580
v 3.47912 8.37700 1.56580
v 3.62634 8.44700 1.82080
v 3.47912 8.44700 2.07580
v 3.18467 8.44700 2.07580
v 3.03744 8.44700 1.82080
v 3.18467 8.44700 1.56580
v 3.47912 8.44700 1.56580
v 3.33189 8.34200 1.82080
v 3.33189 8.48200 1.82080
v 3.47331 8.50200 1.67938
v 3.48788 8.43787 1.62065
v 3.55560 8.46237 1.56979
v 3.58290 8.54163 1.59709
v 3.53204 8.56613 1.66482
v 4.30063 7.94200 2.47841
v 4.31131 7.89497 2.43534
v 4.36097 7.91293 2.39805
v 4.38099 7.97107 2.41806
v 4.34369 7.98903 2.46773
v 3.52635 8.50200 1.62635
v 4.33952 7.94200 2.43952
v 4.82842 7.81700 2.24506
v 4.68120 7.81700 2.50006
v 4.38675 7.81700 2.50006
v 4.23952 7.81700 2.24506
v 4.38675 7.81700 1.99006
v 4.68120 7.81700 1.99006
v 4.82842 7.88700 2.24506
v 4.68120 7.88700 2.50006
v 4.38675 7.88700 2.50006
v 4.23952 7.88700 2.24506
v 4.38675 7.88700 1.99006
v 4.68120 7.88700 1.99006
v 4.53397 7.78200 2.24506
v 4.53397 7.92200 2.24506
v 4.43951 7.81700 2.63397
v 4.29229 7.81700 2.88897
v 3.99784 7.81700 2.88897
v 3.85062 7.81700 2.63397
v 3.99784 7.81700 2.37897
v 4.29229 7.81700 2.37897
v 4.43951 7.88700 2.63397
v 4.29229 7.88700 2.88897
v 3.99784 7.88700 2.88897
v 3.85062 7.88700 2.63397
v 3.99784 7.88700 2.37897
v 4.29229 7.88700 2.37897
v 4.14506 7.78200 2.63397
v 4.14506 7.92200 2.63397
v 4.29709 7.94200 2.48194
v 4.30368 7.89485 2.42990
v 4.35979 7.91286 2.39115
v 4.38789 7.97114 2.41924
v 4.34914 7.98915 2.47536
v 5.12441 7.15800 3.28098
v 5.12880 7.12657 3.24628
v 5.16621 7.13857 3.22044
v 5.18494 7.17743 3.23917
v 5.15910 7.18943 3.27658
v 4.33952 7.94200 2.43952
v 5.15269 7.15800 3.25269
v 5.64159 7.03300 3.05824
v 5.49437 7.03300 3.31324
v 5.19992 7.03300 3.31324
v 5.05270 7.03300 3.05824
v 5.19992 7.03300 2.80324
v 5.49437 7.03300 2.80324
v 5.64159 7.10300 3.05824
v 5.49437 7.10300 3.31324
v 5.19992 7.10300 3.31324
v 5.05270 7.10300 3.05824
v 5.19992 7.10300 2.80324
v 5.49437 7.10300 2.80324
v 5.34715 6.99800 3.05824
v 5.34715 7.13800 3.05824
v 5.25269 7.03300 3.44715
v 5.10546 7.03300 3.70215
v 4.81101 7.03300 3.70215
v 4.66379 7.03300 3.44715
v 4.81101 7.03300 3.19215
v 5.10546 7.03300 3.19215
v 5.25269 7.10300 3.44715
v 5.10546 7.10300 3.70215
v 4.81101 7.10300 3.70215
v 4.66379 7.10300 3.44715
v 4.81101 7.10300 3.19215
v 5.10546 7.10300 3.19215
v 4.95824 6.99800 3.44715
v 4.95824 7.13800 3.44715
v 1.79500 8.40000 0.00000
v 1.86755 8.30668 0.03554
v 1.98495 8.34232 0.02197
v 1.98495 8.45768 -0.02197
v 1.86755 8.49332 -0.03554
v 1.81500 8.83800 1.15000
v 1.87373 8.76245 1.17877
v 1.96877 8.79131 1.16778
v 1.96877 8.88469 1.13222
v 1.87373 8.91355 1.12123
v 1.90000 8.40000 0.00000
v 1.90000 8.83800 1.15000
v 2.46945 8.71300 1.15000
v 2.32222 8.71300 1.40500
v 2.02778 8.71300 1.40500
v 1.88055 8.71300 1.15000
v 2.02778 8.71300 0.89500
v 2.32222 8.71300 0.89500
v 2.46945 8.78300 1.15000
v 2.32222 8.78300 1.40500
v 2.02778 8.78300 1.40500
v 1.88055 8.78300 1.15000
v 2.02778 8.78300 0.89500
v 2.32222 8.78300 0.89500
v 2.17500 8.67800 1.15000
v 2.17500 8.81800 1.15000
v 1.91945 8.71300 1.15000
v 1.77222 8.71300 1.40500
v 1.47778 8.71300 1.40500
v 1.33055 8.71300 1.15000
v 1.47778 8.71300 0.89500
v 1.77222 8.71300 0.89500
v 1.91945 8.78300 1.15000
v 1.77222 8.78300 1.40500
v 1.47778 8.78300 1.40500
v 1.33055 8.78300 1.15000
v 1.47778 8.78300 0.89500
v 1.77222 8.78300 0.89500
v 1.62500 8.67800 1.15000
v 1.62500 8.81800 1.15000
v 1.81000 8.83800 1.15000
v 1.87219 8.75584 1.12599
v 1.97281 8.78722 1.13516
v 1.97281 8.88878 1.16484
v 1.87219 8.92016 1.17401
v 1.83000 8.50200 2.30000
v 1.87837 8.43810 2.28133
v 1.95663 8.46251 2.28846
v 1.95663 8.54149 2.31154
v 1.87837 8.56590 2.31867
v 1.90000 8.83800 1.15000
v 1.90000 8.50200 2.30000
v 2.46945 8.37700 2.30000
v 2.32222 8.37700 2.55500
v 2.02778 8.37700 2.55500
v 1.88055 8.37700 2.30000
v 2.02778 8.37700 2.04500
v 2.32222 8.37700 2.04500
v 2.46945 8.44700 2.30000
v 2.32222 8.44700 2.55500
v 2.02778 8.44700 2.55500
v 1.88055 8.44700 2.30000
v 2.02778 8.44700 2.04500
v 2.32222 8.44700 2.04500
v 2.17500 8.34200 2.30000
v 2.17500 8.48200 2.30000
v 1.91945 8.37700 2.30000
v 1.77222 8.37700 2.55500
v 1.47778 8.37700 2.55500
v 1.33055 8.37700 2.30000
v 1.47778 8.37700 2.04500
v 1.77222 8.37700 2.04500
v 1.91945 8.44700 2.30000
v 1.77222 8.44700 2.55500
v 1.47778 8.44700 2.55500
v 1.33055 8.44700 2.30000
v 1.47778 8.44700 2.04500
v 1.77222 8.44700 2.04500
v 1.62500 8.34200 2.30000
v 1.62500 8.48200 2.30000
v 1.82500 8.50200 2.30000
v 1.87682 8.43787 2.26877
v 1.96068 8.46237 2.28070
v 1.96068 8.54163 2.31930
v 1.87682 8.56613 2.33123
v 1.84500 7.94200 3.45000
v 1.88300 7.89497 3.42710
v 1.94450 7.91293 3.43585
v 1.94450 7.97107 3.46415
v 1.88300 7.98903 3.47290
v 1.90000 8.50200 2.30000
v 1.90000 7.94200 3.45000
v 2.46945 7.81700 3.45000
v 2.32222 7.81700 3.70500
v 2.02778 7.81700 3.70500
v 1.88055 7.81700 3.45000
v 2.02778 7.81700 3.19500
v 2.32222 7.81700 3.19500
v 2.46945 7.88700 3.45000
v 2.32222 7.88700 3.70500
v 2.02778 7.88700 3.70500
v 1.88055 7.88700 3.45000
v 2.02778 7.88700 3.19500
v 2.32222 7.88700 3.19500
v 2.17500 7.78200 3.45000
v 2.17500 7.92200 3.45000
v 1.91945 7.81700 3.45000
v 1.77222 7.81700 3.70500
v 1.47778 7.81700 3.70500
v 1.33055 7.81700 3.45000
v 1.47778 7.81700 3.19500
v 1.77222 7.81700 3.19500
v 1.91945 7.88700 3.45000
v 1.77222 7.88700 3.70500
v 1.47778 7.88700 3.70500
v 1.33055 7.88700 3.45000
v 1.47778 7.88700 3.19500
v 1.77222 7.88700 3.19500
v 1.62500 7.78200 3.45000
v 1.62500 7.92200 3.45000
v 1.84000 7.94200 3.45000
v 1.88146 7.89485 3.41786
v 1.94854 7.91286 3.43013
v 1.94854 7.97114 3.46987
v 1.88146 7.98915 3.48214
v 1.86000 7.15800 4.60000
v 1.88764 7.12657 4.57857
v 1.93236 7.13857 4.58676
v 1.93236 7.17743 4.61324
v 1.88764 7.18943 4.62143
v 1.90000 7.94200 3.45000
v 1.90000 7.15800 4.60000
v 2.46945 7.03300 4.60000
v 2.32222 7.03300 4.85500
v 2.02778 7.03300 4.85500
v 1.88055 7.03300 4.60000
v 2.02778 7.03300 4.34500
v 2.32222 7.03300 4.34500
v 2.46945 7.10300 4.60000
v 2.32222 7.10300 4.85500
v 2.02778 7.10300 4.85500
v 1.88055 7.10300 4.60000
v 2.02778 7.10300 4.34500
v 2.32222 7.10300 4.34500
v 2.17500 6.99800 4.60000
v 2.17500 7.13800 4.60000
v 1.91945 7.03300 4.60000
v 1.77222 7.03300 4.85500
v 1.47778 7.03300 4.85500
v 1.33055 7.03300 4.60000
v 1.47778 7.03300 4.34500
v 1.77222 7.03300 4.34500
v 1.91945 7.10300 4.60000
v 1.77222 7.10300 4.85500
v 1.47778 7.10300 4.85500
v 1.33055 7.10300 4.60000
v 1.47778 7.10300 4.34500
v 1.77222 7.10300 4.34500
v 1.62500 6.99800 4.60000
v 1.62500 7.13800 4.60000
v 1.82575 8.40000 -0.07425
v 1.85192 8.30668 0.00219
v 1.94453 8.34232 0.07560
v 1.97560 8.45768 0.04453
v 1.90219 8.49332 -0.04808
v 1.02672 8.83800 0.75307
v 1.04791 8.76245 0.81495
v 1.12288 8.79131 0.87437
v 1.14803 8.88469 0.84922
v 1.08860 8.91355 0.77425
v 1.90000 8.40000 0.00000
v 1.08683 8.83800 0.81317
v 1.57573 8.71300 1.00763
v 1.42851 8.71300 1.26263
v 1.13406 8.71300 1.26263
v 0.98683 8.71300 1.00763
v 1.13406 8.71300 0.75263
v 1.42851 8.71300 0.75263
v 1.57573 8.78300 1.00763
v 1.42851 8.78300 1.26263
v 1.13406 8.78300 1.26263
v 0.98683 8.78300 1.00763
v 1.13406 8.78300 0.75263
v 1.42851 8.78300 0.75263
v 1.28128 8.67800 1.00763
v 1.28128 8.81800 1.00763
v 1.18682 8.71300 0.61872
v 1.03960 8.71300 0.87372
v 0.74515 8.71300 0.87372
v 0.59792 8.71300 0.61872
v 0.74515 8.71300 0.36372
v 1.03960 8.71300 0.36372
v 1.18682 8.78300 0.61872
v 1.03960 8.78300 0.87372
v 0.74515 8.78300 0.87372
v 0.59792 8.78300 0.61872
v 0.74515 8.78300 0.36372
v 1.03960 8.78300 0.36372
v 0.89237 8.67800 0.61872
v 0.89237 8.81800 0.61872
v 1.02319 8.83800 0.74953
v 1.08414 8.75584 0.77653
v 1.14880 8.78722 0.85417
v 1.12782 8.88878 0.87515
v 1.05019 8.92016 0.81048
v 0.22416 8.50200 1.57685
v 0.27156 8.43810 1.59785
v 0.32186 8.46251 1.65823
v 0.30554 8.54149 1.67455
v 0.24516 8.56590 1.62425
v 1.08683 8.83800 0.81317
v 0.27365 8.50200 1.62635
v 0.76256 8.37700 1.82080
v 0.61533 8.37700 2.07580
v 0.32088 8.37700 2.07580
v 0.17366 8.37700 1.82080
v 0.32088 8.37700 1.56580
v 0.61533 8.37700 1.56580
v 0.76256 8.44700 1.82080
v 0.61533 8.44700 2.07580
v 0.32088 8.44700 2.07580
v 0.17366 8.44700 1.82080
v 0.32088 8.44700 1.56580
v 0.61533 8.44700 1.56580
v 0.46811 8.34200 1.82080
v 0.46811 8.48200 1.82080
v 0.37365 8.37700 1.43189
v 0.22642 8.37700 1.68689
v -0.06802 8.37700 1.68689
v -0.21525 8.37700 1.43189
v -0.06802 8.37700 1.17689
v 0.22642 8.37700 1.17689
v 0.37365 8.44700 1.43189
v 0.22642 8.44700 1.68689
v -0.06802 8.44700 1.68689
v -0.21525 8.44700 1.43189
v -0.06802 8.44700 1.17689
v 0.22642 8.44700 1.17689
v 0.07920 8.34200 1.43189
v 0.07920 8.48200 1.43189
v 0.22062 8.50200 1.57331
v 0.27935 8.43787 1.58788
v 0.33021 8.46237 1.65560
v 0.30291 8.54163 1.68290
v 0.23518 8.56613 1.63204
v -0.57841 7.94200 2.40063
v -0.53534 7.89497 2.41131
v -0.49805 7.91293 2.46097
v -0.51806 7.97107 2.48099
v -0.56773 7.98903 2.44369
v 0.27365 8.50200 1.62635
v -0.53952 7.94200 2.43952
v -0.05062 7.81700 2.63397
v -0.19784 7.81700 2.88897
v -0.49229 7.81700 2.88897
v -0.63951 7.81700 2.63397
v -0.49229 7.81700 2.37897
v -0.19784 7.81700 2.37897
v -0.05062 7.88700 2.63397
v -0.19784 7.88700 2.88897
v -0.49229 7.88700 2.88897
v -0.63951 7.88700 2.63397
v -0.49229 7.88700 2.37897
v -0.19784 7.88700 2.37897
v -0.34506 7.78200 2.63397
v -0.34506 7.92200 2.63397
v -0.43952 7.81700 2.24506
v -0.58675 7.81700 2.50006
v -0.88120 7.81700 2.50006
v -1.02842 7.81700 2.24506
v -0.88120 7.81700 1.99006
v -0.58675 7.81700 1.99006
v -0.43952 7.88700 2.24506
v -0.58675 7.88700 2.50006
v -0.88120 7.88700 2.50006
v -1.02842 7.88700 2.24506
v -0.88120 7.88700 1.99006
v -0.58675 7.88700 1.99006
v -0.73397 7.78200 2.24506
v -0.73397 7.92200 2.24506
v -0.58194 7.94200 2.39709
v -0.52990 7.89485 2.40368
v -0.49115 7.91286 2.45979
v -0.51924 7.97114 2.48789
v -0.57536 7.98915 2.44914
v -1.38098 7.15800 3.22441
v -1.34628 7.12657 3.22880
v -1.32044 7.13857 3.26621
v -1.33917 7.17743 3.28494
v -1.37658 7.18943 3.25910
v -0.53952 7.94200 2.43952
v -1.35269 7.15800 3.25269
v -0.86379 7.03300 3.44715
v -1.01101 7.03300 3.70215
v -1.30546 7.03300 3.70215
v -1.45269 7.03300 3.44715
v -1.30546 7.03300 3.19215
v -1.01101 7.03300 3.19215
v -0.86379 7.10300 3.44715
v -1.01101 7.10300 3.70215
v -1.30546 7.10300 3.70215
v -1.45269 7.10300 3.44715
v -1.30546 7.10300 3.19215
v -1.01101 7.10300 3.19215
v -1.15824 6.99800 3.44715
v -1.15824 7.13800 3.44715
v -1.25270 7.03300 3.05824
v -1.39992 7.03300 3.31324
v -1.69437 7.03300 3.31324
v -1.84159 7.03300 3.05824
v -1.69437 7.03300 2.80324
v -1.39992 7.03300 2.80324
v -1.25270 7.10300 3.05824
v -1.39992 7.10300 3.31324
v -1.69437 7.10300 3.31324
v -1.84159 7.10300 3.05824
v -1.69437 7.10300 2.80324
v -1.39992 7.10300 2.80324
v -1.54715 6.99800 3.05824
v -1.54715 7.13800 3.05824
v 1.90000 8.40000 -0.10500
v 1.86446 8.30668 -0.03245
v 1.87803 8.34232 0.08495
v 1.92197 8.45768 0.08495
v 1.93554 8.49332 -0.03245
v 0.75000 8.83800 -0.08500
v 0.72123 8.76245 -0.02627
v 0.73222 8.79131 0.06877
v 0.76778 8.88469 0.06877
v 0.77877 8.91355 -0.02627
v 1.90000 8.40000 0.00000
v 0.75000 8.83800 0.00000
v 1.04445 8.71300 0.27500
v 0.89722 8.71300 0.53000
v 0.60278 8.71300 0.53000
v 0.45555 8.71300 0.27500
v 0.60278 8.71300 0.02000
v 0.89722 8.71300 0.02000
v 1.04445 8.78300 0.27500
v 0.89722 8.78300 0.53000
v 0.60278 8.78300 0.53000
v 0.45555 8.78300 0.27500
v 0.60278 8.78300 0.02000
v 0.89722 8.78300 0.02000
v 0.75000 8.67800 0.27500
v 0.75000 8.81800 0.27500
v 1.04445 8.71300 -0.27500
v 0.89722 8.71300 -0.02000
v 0.60278 8.71300 -0.02000
v 0.45555 8.71300 -0.27500
v 0.60278 8.71300 -0.53000
v 0.89722 8.71300 -0.53000
v 1.04445 8.78300 -0.27500
v 0.89722 8.78300 -0.02000
v 0.60278 8.78300 -0.02000
v 0.45555 8.78300 -0.27500
v 0.60278 8.78300 -0.53000
v 0.89722 8.78300 -0.53000
v 0.75000 8.67800 -0.27500
v 0.75000 8.81800 -0.27500
v 0.75000 8.83800 -0.09000
v 0.77401 8.75584 -0.02781
v 0.76484 8.78722 0.07281
v 0.73516 8.88878 0.07281
v 0.72599 8.92016 -0.02781
v -0.40000 8.50200 -0.07000
v -0.38133 8.43810 -0.02163
v -0.38846 8.46251 0.05663
v -0.41154 8.54149 0.05663
v -0.41867 8.56590 -0.02163
v 0.75000 8.83800 0.00000
v -0.40000 8.50200 0.00000
v -0.10555 8.37700 0.27500
v -0.25278 8.37700 0.53000
v -0.54722 8.37700 0.53000
v -0.69445 8.37700 0.27500
v -0.54722 8.37700 0.02000
v -0.25278 8.37700 0.02000
v -0.10555 8.44700 0.27500
v -0.25278 8.44700 0.53000
v -0.54722 8.44700 0.53000
v -0.69445 8.44700 0.27500
v -0.54722 8.44700 0.02000
v -0.25278 8.44700 0.02000
v -0.40000 8.34200 0.27500
v -0.40000 8.48200 0.27500
v -0.10555 8.37700 -0.27500
v -0.25278 8.37700 -0.02000
v -0.54722 8.37700 -0.02000
v -0.69445 8.37700 -0.27500
v -0.54722 8.37700 -0.53000
v -0.25278 8.37700 -0.53000
v -0.10555 8.44700 -0.27500
v -0.25278 8.44700 -0.02000
v -0.54722 8.44700 -0.02000
v -0.69445 8.44700 -0.27500
v -0.54722 8.44700 -0.53000
v -0.25278 8.44700 -0.53000
v -0.40000 8.34200 -0.27500
v -0.40000 8.48200 -0.27500
v -0.40000 8.50200 -0.07500
v -0.36877 8.43787 -0.02318
v -0.38070 8.46237 0.06068
v -0.41930 8.54163 0.06068
v -0.43123 8.56613 -0.02318
v -1.55000 7.94200 -0.05500
v -1.52710 7.89497 -0.01700
v -1.53585 7.91293 0.04450
v -1.56415 7.97107 0.04450
v -1.57290 7.98903 -0.01700
v -0.40000 8.50200 0.00000
v -1.55000 7.94200 0.00000
v -1.25555 7.81700 0.27500
v -1.40278 7.81700 0.53000
v -1.69722 7.81700 0.53000
v -1.84445 7.81700 0.27500
v -1.69722 7.81700 0.02000
v -1.40278 7.81700 0.02000
v -1.25555 7.88700 0.27500
v -1.40278 7.88700 0.53000
v -1.69722 7.88700 0.53000
v -1.84445 7.88700 0.27500
v -1.69722 7.88700 0.02000
v -1.40278 7.88700 0.02000
v -1.55000 7.78200 0.27500
v -1.55000 7.92200 0.27500
v -1.25555 7.81700 -0.27500
v -1.40278 7.81700 -0.02000
v -1.69722 7.81700 -0.02000
v -1.84445 7.81700 -0.27500
v -1.69722 7.81700 -0.53000
v -1.40278 7.81700 -0.53000
v -1.25555 7.88700 -0.27500
v -1.40278 7.88700 -0.02000
v -1.69722 7.88700 -0.02000
v -1.84445 7.88700 -0.27500
v -1.69722 7.88700 -0.53000
v -1.40278 7.88700 -0.53000
v -1.55000 7.78200 -0.27500
v -1.55000 7.92200 -0.27500
v -1.55000 7.94200 -0.06000
v -1.51786 7.89485 -0.01854
v -1.53013 7.91286 0.04854
v -1.56987 7.97114 0.04854
v -1.58214 7.98915 -0.01854
v -2.70000 7.15800 -0.04000
v -2.67857 7.12657 -0.01236
v -2.68676 7.13857 0.03236
v -2.71324 7.17743 0.03236
v -2.72143 7.18943 -0.01236
v -1.55000 7.94200 0.00000
v -2.70000 7.15800 0.00000
v -2.40555 7.03300 0.27500
v -2.55278 7.03300 0.53000
v -2.84722 7.03300 0.53000
v -2.99445 7.03300 0.27500
v -2.84722 7.03300 0.02000
v -2.55278 7.03300 0.02000
v -2.40555 7.10300 0.27500
v -2.55278 7.10300 0.53000
v -2.84722 7.10300 0.53000
v -2.99445 7.10300 0.27500
v -2.84722 7.10300 0.02000
v -2.55278 7.10300 0.02000
v -2.70000 6.99800 0.27500
v -2.70000 7.13800 0.27500
v -2.40555 7.03300 -0.27500
v -2.55278 7.03300 -0.02000
v -2.84722 7.03300 -0.02000
v -2.99445 7.03300 -0.27500
v -2.84722 7.03300 -0.53000
v -2.55278 7.03300 -0.53000
v -2.40555 7.10300 -0.27500
v -2.55278 7.10300 -0.02000
v -2.84722 7.10300 -0.02000
v -2.99445 7.10300 -0.27500
v -2.84722 7.10300 -0.53000
v -2.55278 7.10300 -0.53000
v -2.70000 6.99800 -0.27500
v -2.70000 7.13800 -0.27500
v 1.97425 8.40000 -0.07425
v 1.89781 8.30668 -0.04808
v 1.82440 8.34232 0.04453
v 1.85547 8.45768 0.07560
v 1.94808 8.49332 0.00219
v 1.14693 8.83800 -0.87328
v 1.08505 8.76245 -0.85209
v 1.02563 8.79131 -0.77712
v 1.05078 8.88469 -0.75197
v 1.12575 8.91355 -0.81140
v 1.90000 8.40000 0.00000
v 1.08683 8.83800 -0.81317
v 1.18682 8.71300 -0.61872
v 1.03960 8.71300 -0.36372
v 0.74515 8.71300 -0.36372
v 0.59792 8.71300 -0.61872
v 0.74515 8.71300 -0.87372
v 1.03960 8.71300 -0.87372
v 1.18682 8.78300 -0.61872
v 1.03960 8.78300 -0.36372
v 0.74515 8.78300 -0.36372
v 0.59792 8.78300 -0.61872
v 0.74515 8.78300 -0.87372
v 1.03960 8.78300 -0.87372
v 0.89237 8.67800 -0.61872
v 0.89237 8.81800 -0.61872
v 1.57573 8.71300 -1.00763
v 1.42851 8.71300 -0.75263
v 1.13406 8.71300 -0.75263
v 0.98683 8.71300 -1.00763
v 1.13406 8.71300 -1.26263
v 1.42851 8.71300 -1.26263
v 1.57573 8.78300 -1.00763
v 1.42851 8.78300 -0.75263
v 1.13406 8.78300 -0.75263
v 0.98683 8.78300 -1.00763
v 1.13406 8.78300 -1.26263
v 1.42851 8.78300 -1.26263
v 1.28128 8.67800 -1.00763
v 1.28128 8.81800 -1.00763
v 1.15047 8.83800 -0.87681
v 1.12347 8.75584 -0.81586
v 1.04583 8.78722 -0.75120
v 1.02485 8.88878 -0.77218
v 1.08952 8.92016 -0.84981
v 0.32315 8.50200 -1.67584
v 0.30215 8.43810 -1.62844
v 0.24177 8.46251 -1.57814
v 0.22545 8.54149 -1.59446
v 0.27575 8.56590 -1.65484
v 1.08683 8.83800 -0.81317
v 0.27365 8.50200 -1.62635
v 0.37365 8.37700 -1.43189
v 0.22642 8.37700 -1.17689
v -0.06802 8.37700 -1.17689
v -0.21525 8.37700 -1.43189
v -0.06802 8.37700 -1.68689
v 0.22642 8.37700 -1.68689
v 0.37365 8.44700 -1.43189
v 0.22642 8.44700 -1.17689
v -0.06802 8.44700 -1.17689
v -0.21525 8.44700 -1.43189
v -0.06802 8.44700 -1.68689
v 0.22642 8.44700 -1.68689
v 0.07920 8.34200 -1.43189
v 0.07920 8.48200 -1.43189
v 0.76256 8.37700 -1.82080
v 0.61533 8.37700 -1.56580
v 0.32088 8.37700 -1.56580
v 0.17366 8.37700 -1.82080
v 0.32088 8.37700 -2.07580
v 0.61533 8.37700 -2.07580
v 0.76256 8.44700 -1.82080
v 0.61533 8.44700 -1.56580
v 0.32088 8.44700 -1.56580
v 0.17366 8.44700 -1.82080
v 0.32088 8.44700 -2.07580
v 0.61533 8.44700 -2.07580
v 0.46811 8.34200 -1.82080
v 0.46811 8.48200 -1.82080
v 0.32669 8.50200 -1.67938
v 0.31212 8.43787 -1.62065
v 0.24440 8.46237 -1.56979
v 0.21710 8.54163 -1.59709
v 0.26796 8.56613 -1.66482
v -0.50063 7.94200 -2.47841
v -0.51131 7.89497 -2.43534
v -0.56097 7.91293 -2.39805
v -0.58099 7.97107 -2.41806
v -0.54369 7.98903 -2.46773
v 0.27365 8.50200 -1.62635
v -0.53952 7.94200 -2.43952
v -0.43952 7.81700 -2.24506
v -0.58675 7.81700 -1.99006
v -0.88120 7.81700 -1.99006
v -1.02842 7.81700 -2.24506
v -0.88120 7.81700 -2.50006
v -0.58675 7.81700 -2.50006
v -0.43952 7.88700 -2.24506
v -0.58675 7.88700 -1.99006
v -0.88120 7.88700 -1.99006
v -1.02842 7.88700 -2.24506
v -0.88120 7.88700 -2.50006
v -0.58675 7.88700 -2.50006
v -0.73397 7.78200 -2.24506
v -0.73397 7.92200 -2.24506
v -0.05062 7.81700 -2.63397
v -0.19784 7.81700 -2.37897
v -0.49229 7.81700 -2.37897
v -0.63951 7.81700 -2.63397
v -0.49229 7.81700 -2.88897
v -0.19784 7.81700 -2.88897
v -0.05062 7.88700 -2.63397
v -0.19784 7.88700 -2.37897
v -0.49229 7.88700 -2.37897
v -0.63951 7.88700 -2.63397
v -0.49229 7.88700 -2.88897
v -0.19784 7.88700 -2.88897
v -0.34506 7.78200 -2.63397
v -0.34506 7.92200 -2.63397
v -0.49709 7.94200 -2.48194
v -0.50368 7.89485 -2.42990
v -0.55979 7.91286 -2.39115
v -0.58789 7.97114 -2.41924
v -0.54914 7.98915 -2.47536
v -1.32441 7.15800 -3.28098
v -1.32880 7.12657 -3.24628
v -1.36621 7.13857 -3.22044
v -1.38494 7.17743 -3.23917
v -1.35910 7.18943 -3.27658
v -0.53952 7.94200 -2.43952
v -1.35269 7.15800 -3.25269
v -1.25270 7.03300 -3.05824
v -1.39992 7.03300 -2.80324
v -1.69437 7.03300 -2.80324
v -1.84159 7.03300 -3.05824
v -1.69437 7.03300 -3.31324
v -1.39992 7.03300 -3.31324
v -1.25270 7.10300 -3.05824
v -1.39992 7.10300 -2.80324
v -1.69437 7.10300 -2.80324
v -1.84159 7.10300 -3.05824
v -1.69437 7.10300 -3.31324
v -1.39992 7.10300 -3.31324
v -1.54715 6.99800 -3.05824
v -1.54715 7.13800 -3.05824
v -0.86379 7.03300 -3.44715
v -1.01101 7.03300 -3.19215
v -1.30546 7.03300 -3.19215
v -1.45269 7.03300 -3.44715
v -1.30546 7.03300 -3.70215
v -1.01101 7.03300 -3.70215
v -0.86379 7.10300 -3.44715
v -1.01101 7.10300 -3.19215
v -1.30546 7.10300 -3.19215
v -1.45269 7.10300 -3.44715
v -1.30546 7.10300 -3.70215
v -1.01101 7.10300 -3.70215
v -1.15824 6.99800 -3.44715
v -1.15824 7.13800 -3.44715
v 2.00500 8.40000 -0.00000
v 1.93245 8.30668 -0.03554
v 1.81505 8.34232 -0.02197
v 1.81505 8.45768 0.02197
v 1.93245 8.49332 0.03554
v 1.98500 8.83800 -1.15000
v 1.92627 8.76245 -1.17877
v 1.83123 8.79131 -1.16778
v 1.83123 8.88469 -1.13222
v 1.92627 8.91355 -1.12123
v 1.90000 8.40000 0.00000
v 1.90000 8.83800 -1.15000
v 1.91945 8.71300 -1.15000
v 1.77222 8.71300 -0.89500
v 1.47778 8.71300 -0.89500
v 1.33055 8.71300 -1.15000
v 1.47778 8.71300 -1.40500
v 1.77222 8.71300 -1.40500
v 1.91945 8.78300 -1.15000
v 1.77222 8.78300 -0.89500
v 1.47778 8.78300 -0.89500
v 1.33055 8.78300 -1.15000
v 1.47778 8.78300 -1.40500
v 1.77222 8.78300 -1.40500
v 1.62500 8.67800 -1.15000
v 1.62500 8.81800 -1.15000
v 2.46945 8.71300 -1.15000
v 2.32222 8.71300 -0.89500
v 2.02778 8.71300 -0.89500
v 1.88055 8.71300 -1.15000
v 2.02778 8.71300 -1.40500
v 2.32222 8.71300 -1.40500
v 2.46945 8.78300 -1.15000
v 2.32222 8.78300 -0.89500
v 2.02778 8.78300 -0.89500
v 1.88055 8.78300 -1.15000
v 2.02778 8.78300 -1.40500
v 2.32222 8.78300 -1.40500
v 2.17500 8.67800 -1.15000
v 2.17500 8.81800 -1.15000
v 1.99000 8.83800 -1.15000
v 1.92781 8.75584 -1.12599
v 1.82719 8.78722 -1.13516
v 1.82719 8.88878 -1.16484
v 1.92781 8.92016 -1.17401
v 1.97000 8.50200 -2.30000
v 1.92163 8.43810 -2.28133
v 1.84337 8.46251 -2.28846
v 1.84337 8.54149 -2.31154
v 1.92163 8.56590 -2.31867
v 1.90000 8.83800 -1.15000
v 1.90000 8.50200 -2.30000
v 1.91945 8.37700 -2.30000
v 1.77222 8.37700 -2.04500
v 1.47778 8.37700 -2.04500
v 1.33055 8.37700 -2.30000
v 1.47778 8.37700 -2.55500
v 1.77222 8.37700 -2.55500
v 1.91945 8.44700 -2.30000
v 1.77222 8.44700 -2.04500
v 1.47778 8.44700 -2.04500
v 1.33055 8.44700 -2.30000
v 1.47778 8.44700 -2.55500
v 1.77222 8.44700 -2.55500
v 1.62500 8.34200 -2.30000
v 1.62500 8.48200 -2.30000
v 2.46945 8.37700 -2.30000
v 2.32222 8.37700 -2.04500
v 2.02778 8.37700 -2.04500
v 1.88055 8.37700 -2.30000
v 2.02778 8.37700 -2.55500
v 2.32222 8.37700 -2.55500
v 2.46945 8.44700 -2.30000
v 2.32222 8.44700 -2.04500
v 2.02778 8.44700 -2.04500
v 1.88055 8.44700 -2.30000
v 2.02778 8.44700 -2.55500
v 2.32222 8.44700 -2.55500
v 2.17500 8.34200 -2.30000
v 2.17500 8.48200 -2.30000
v 1.97500 8.50200 -2.30000
v 1.92318 8.43787 -2.26877
v 1.83932 8.46237 -2.28070
v 1.83932 8.54163 -2.31930
v 1.92318 8.56613 -2.33123
v 1.95500 7.94200 -3.45000
v 1.91700 7.89497 -3.42710
v 1.85550 7.91293 -3.43585
v 1.85550 7.97107 -3.46415
v 1.91700 7.98903 -3.47290
v 1.90000 8.50200 -2.30000
v 1.90000 7.94200 -3.45000
v 1.91945 7.81700 -3.45000
v 1.77222 7.81700 -3.19500
v 1.47778 7.81700 -3.19500
v 1.33055 7.81700 -3.45000
v 1.47778 7.81700 -3.70500
v 1.77222 7.81700 -3.70500
v 1.91945 7.88700 -3.45000
v 1.77222 7.88700 -3.19500
v 1.47778 7.88700 -3.19500
v 1.33055 7.88700 -3.45000
v 1.47778 7.88700 -3.70500
v 1.77222 7.88700 -3.70500
v 1.62500 7.78200 -3.45000
v 1.62500 7.92200 -3.45000
v 2.46945 7.81700 -3.45000
v 2.32222 7.81700 -3.19500
v 2.02778 7.81700 -3.19500
v 1.88055 7.81700 -3.45000
v 2.02778 7.81700 -3.70500
v 2.32222 7.81700 -3.70500
v 2.46945 7.88700 -3.45000
v 2.32222 7.88700 -3.19500
v 2.02778 7.88700 -3.19500
v 1.88055 7.88700 -3.45000
v 2.02778 7.88700 -3.70500
v 2.32222 7.88700 -3.70500
v 2.17500 7.78200 -3.45000
v 2.17500 7.92200 -3.45000
v 1.96000 7.94200 -3.45000
v 1.91854 7.89485 -3.41786
v 1.85146 7.91286 -3.43013
v 1.85146 7.97114 -3.46987
v 1.91854 7.98915 -3.48214
v 1.94000 7.15800 -4.60000
v 1.91236 7.12657 -4.57857
v 1.86764 7.13857 -4.58676
v 1.86764 7.17743 -4.61324
v 1.91236 7.18943 -4.62143
v 1.90000 7.94200 -3.45000
v 1.90000 7.15800 -4.60000
v 1.91945 7.03300 -4.60000
v 1.77222 7.03300 -4.34500
v 1.47778 7.03300 -4.34500
v 1.33055 7.03300 -4.60000
v 1.47778 7.03300 -4.85500
v 1.77222 7.03300 -4.85500
v 1.91945 7.10300 -4.60000
v 1.77222 7.10300 -4.34500
v 1.47778 7.10300 -4.34500
v 1.33055 7.10300 -4.60000
v 1.47778 7.10300 -4.85500
v 1.77222 7.10300 -4.85500
v 1.62500 6.99800 -4.60000
v 1.62500 7.13800 -4.60000
v 2.46945 7.03300 -4.60000
v 2.32222 7.03300 -4.34500
v 2.02778 7.03300 -4.34500
v 1.88055 7.03300 -4.60000
v 2.02778 7.03300 -4.85500
v 2.32222 7.03300 -4.85500
v 2.46945 7.10300 -4.60000
v 2.32222 7.10300 -4.34500
v 2.02778 7.10300 -4.34500
v 1.88055 7.10300 -4.60000
v 2.02778 7.10300 -4.85500
v 2.32222 7.10300 -4.85500
v 2.17500 6.99800 -4.60000
v 2.17500 7.13800 -4.60000
v 1.97425 8.40000 0.07425
v 1.94808 8.30668 -0.00219
v 1.85547 8.34232 -0.07560
v 1.82440 8.45768 -0.04453
v 1.89781 8.49332 0.04808
v 2.77328 8.83800 -0.75307
v 2.75209 8.76245 -0.81495
v 2.67712 8.79131 -0.87437
v 2.65197 8.88469 -0.84922
v 2.71140 8.91355 -0.77425
v 1.90000 8.40000 0.00000
v 2.71317 8.83800 -0.81317
v 2.81317 8.71300 -1.00763
v 2.66594 8.71300 -0.75263
v 2.37149 8.71300 -0.75263
v 2.22427 8.71300 -1.00763
v 2.37149 8.71300 -1.26263
v 2.66594 8.71300 -1.26263
v 2.81317 8.78300 -1.00763
v 2.66594 8.78300 -0.75263
v 2.37149 8.78300 -0.75263
v 2.22427 8.78300 -1.00763
v 2.37149 8.78300 -1.26263
v 2.66594 8.78300 -1.26263
v 2.51872 8.67800 -1.00763
v 2.51872 8.81800 -1.00763
v 3.20208 8.71300 -0.61872
v 3.05485 8.71300 -0.36372
v 2.76040 8.71300 -0.36372
v 2.61318 8.71300 -0.61872
v 2.76040 8.71300 -0.87372
v 3.05485 8.71300 -0.87372
v 3.20208 8.78300 -0.61872
v 3.05485 8.78300 -0.36372
v 2.76040 8.78300 -0.36372
v 2.61318 8.78300 -0.61872
v 2.76040 8.78300 -0.87372
v 3.05485 8.78300 -0.87372
v 2.90763 8.67800 -0.61872
v 2.90763 8.81800 -0.61872
v 2.77681 8.83800 -0.74953
v 2.71586 8.75584 -0.77653
v 2.65120 8.78722 -0.85417
v 2.67218 8.88878 -0.87515
v 2.74981 8.92016 -0.81048
v 3.57584 8.50200 -1.57685
v 3.52844 8.43810 -1.59785
v 3.47814 8.46251 -1.65823
v 3.49446 8.54149 -1.67455
v 3.55484 8.56590 -1.62425
v 2.71317 8.83800 -0.81317
v 3.52635 8.50200 -1.62635
v 3.62634 8.37700 -1.82080
v 3.47912 8.37700 -1.56580
v 3.18467 8.37700 -1.56580
v 3.03744 8.37700 -1.82080
v 3.18467 8.37700 -2.07580
v 3.47912 8.37700 -2.07580
v 3.62634 8.44700 -1.82080
v 3.47912 8.44700 -1.56580
v 3.18467 8.44700 -1.56580
v 3.03744 8.44700 -1.82080
v 3.18467 8.44700 -2.07580
v 3.47912 8.44700 -2.07580
v 3.33189 8.34200 -1.82080
v 3.33189 8.48200 -1.82080
v 4.01525 8.37700 -1.43189
v 3.86802 8.37700 -1.17689
v 3.57358 8.37700 -1.17689
v 3.42635 8.37700 -1.43189
v 3.57358 8.37700 -1.68689
v 3.86802 8.37700 -1.68689
v 4.01525 8.44700 -1.43189
v 3.86802 8.44700 -1.17689
v 3.57358 8.44700 -1.17689
v 3.42635 8.44700 -1.43189
v 3.57358 8.44700 -1.68689
v 3.86802 8.44700 -1.68689
v 3.72080 8.34200 -1.43189
v 3.72080 8.48200 -1.43189
v 3.57938 8.50200 -1.57331
v 3.52065 8.43787 -1.58788
v 3.46979 8.46237 -1.65560
v 3.49709 8.54163 -1.68290
v 3.56482 8.56613 -1.63204
v 4.37841 7.94200 -2.40063
v 4.33534 7.89497 -2.41131
v 4.29805 7.91293 -2.46097
v 4.31806 7.97107 -2.48099
v 4.36773 7.98903 -2.44369
v 3.52635 8.50200 -1.62635
v 4.33952 7.94200 -2.43952
v 4.43951 7.81700 -2.63397
v 4.29229 7.81700 -2.37897
v 3.99784 7.81700 -2.37897
v 3.85062 7.81700 -2.63397
v 3.99784 7.81700 -2.88897
v 4.29229 7.81700 -2.88897
v 4.43951 7.88700 -2.63397
v 4.29229 7.88700 -2.37897
v 3.99784 7.88700 -2.37897
v 3.85062 7.88700 -2.63397
v 3.99784 7.88700 -2.88897
v 4.29229 7.88700 -2.88897
v 4.14506 7.78200 -2.63397
v 4.14506 7.92200 -2.63397
v 4.82842 7.81700 -2.24506
v 4.68120 7.81700 -1.99006
v 4.38675 7.81700 -1.99006
v 4.23952 7.81700 -2.24506
v 4.38675 7.81700 -2.50006
v 4.68120 7.81700 -2.50006
v 4.82842 7.88700 -2.24506
v 4.68120 7.88700 -1.99006
v 4.38675 7.88700 -1.99006
v 4.23952 7.88700 -2.24506
v 4.38675 7.88700 -2.50006
v 4.68120 7.88700 -2.50006
v 4.53397 7.78200 -2.24506
v 4.53397 7.92200 -2.24506
v 4.38194 7.94200 -2.39709
v 4.32990 7.89485 -2.40368
v 4.29115 7.91286 -2.45979
v 4.31924 7.97114 -2.48789
v 4.37536 7.98915 -2.44914
v 5.18098 7.15800 -3.22441
v 5.14628 7.12657 -3.22880
v 5.12044 7.13857 -3.26621
v 5.13917 7.17743 -3.28494
v 5.17658 7.18943 -3.25910
v 4.33952 7.94200 -2.43952
v 5.15269 7.15800 -3.25269
v 5.25269 7.03300 -3.44715
v 5.10546 7.03300 -3.19215
v 4.81101 7.03300 -3.19215
v 4.66379 7.03300 -3.44715
v 4.81101 7.03300 -3.70215
v 5.10546 7.03300 -3.70215
v 5.25269 7.10300 -3.44715
v 5.10546 7.10300 -3.19215
v 4.81101 7.10300 -3.19215
v 4.66379 7.10300 -3.44715
v 4.81101 7.10300 -3.70215
v 5.10546 7.10300 -3.70215
v 4.95824 6.99800 -3.44715
v 4.95824 7.13800 -3.44715
v 5.64159 7.03300 -3.05824
v 5.49437 7.03300 -2.80324
v 5.19992 7.03300 -2.80324
v 5.05270 7.03300 -3.05824
v 5.19992 7.03300 -3.31324
v 5.49437 7.03300 -3.31324
v 5.64159 7.10300 -3.05824
v 5.49437 7.10300 -2.80324
v 5.19992 7.10300 -2.80324
v 5.05270 7.10300 -3.05824
v 5.19992 7.10300 -3.31324
v 5.49437 7.10300 -3.31324
v 5.34715 6.99800 -3.05824
v 5.34715 7.13800 -3.05824
v 2.37859 7.96615 0.12461
v 2.30937 7.96615 0.26835
v 2.15383 7.96615 0.30385
v 2.02910 7.96615 0.20438
v 2.02910 7.96615 0.04485
v 2.15383 7.96615 -0.05462
v 2.30937 7.96615 -0.01912
v 2.45474 8.15000 0.12461
v 2.35685 8.15000 0.32789
v 2.13688 8.15000 0.37810
v 1.96049 8.15000 0.23742
v 1.96049 8.15000 0.01180
v 2.13688 8.15000 -0.12887
v 2.35685 8.15000 -0.07866
v 2.37859 8.33385 0.12461
v 2.30937 8.33385 0.26835
v 2.15383 8.33385 0.30385
v 2.02910 8.33385 0.20438
v 2.02910 8.33385 0.04485
v 2.15383 8.33385 -0.05462
v 2.30937 8.33385 -0.01912
v 2.19474 7.89000 0.12461
v 2.19474 8.41000 0.12461
v 1.89553 7.96615 0.25872
v 1.82631 7.96615 0.40246
v 1.67077 7.96615 0.43796
v 1.54604 7.96615 0.33849
v 1.54604 7.96615 0.17895
v 1.67077 7.96615 0.07948
v 1.82631 7.96615 0.11498
v 1.97168 8.15000 0.25872
v 1.87379 8.15000 0.46200
v 1.65382 8.15000 0.51220
v 1.47743 8.15000 0.37153
v 1.47743 8.15000 0.14591
v 1.65382 8.15000 0.00524
v 1.87379 8.15000 0.05544
v 1.89553 8.33385 0.25872
v 1.82631 8.33385 0.40246
v 1.67077 8.33385 0.43796
v 1.54604 8.33385 0.33849
v 1.54604 8.33385 0.17895
v 1.67077 8.33385 0.07948
v 1.82631 8.33385 0.11498
v 1.71168 7.89000 0.25872
v 1.71168 8.41000 0.25872
v 1.89990 7.96615 -0.26185
v 1.83068 7.96615 -0.11811
v 1.67515 7.96615 -0.08261
v 1.55042 7.96615 -0.18208
v 1.55042 7.96615 -0.34162
v 1.67515 7.96615 -0.44109
v 1.83068 7.96615 -0.40559
v 1.97606 8.15000 -0.26185
v 1.87816 8.15000 -0.05857
v 1.65820 8.15000 -0.00837
v 1.48180 8.15000 -0.14904
v 1.48180 8.15000 -0.37466
v 1.65820 8.15000 -0.51533
v 1.87816 8.15000 -0.46512
v 1.89990 8.33385 -0.26185
v 1.83068 8.33385 -0.11811
v 1.67515 8.33385 -0.08261
v 1.55042 8.33385 -0.18208
v 1.55042 8.33385 -0.34162
v 1.67515 8.33385 -0.44109
v 1.83068 8.33385 -0.40559
v 1.71606 7.89000 -0.26185
v 1.71606 8.41000 -0.26185
vt 0.05000 0.50000
vt 0.15000 0.50000
vt 0.25000 0.50000
vt 0.35000 0.50000
vt 0.45000 0.50000
vt 0.55000 0.50000
vt 0.65000 0.50000
vt 0.75000 0.50000
vt 0.85000 0.50000
vt 0.95000 0.50000
usemtl wood
f 1/5 2/5 10/5 9/5
f 17/5 2/5 1/5
f 18/5 9/5 10/5
f 2/5 3/5 11/5 10/5
f 17/5 3/5 2/5
f 18/5 10/5 11/5
f 3/5 4/5 12/5 11/5
f 17/5 4/5 3/5
f 18/5 11/5 12/5
f 4/5 5/5 13/5 12/5
f 17/5 5/5 4/5
f 18/5 12/5 13/5
f 5/5 6/5 14/5 13/5
f 17/5 6/5 5/5
f 18/5 13/5 14/5
f 6/5 7/5 15/5 14/5
f 17/5 7/5 6/5
f 18/5 14/5 15/5
f 7/5 8/5 16/5 15/5
f 17/5 8/5 7/5
f 18/5 15/5 16/5
f 8/5 1/5 9/5 16/5
f 17/5 1/5 8/5
f 18/5 16/5 9/5
f 37/5 38/5 46/5 45/5
f 53/5 38/5 37/5
f 54/5 45/5 46/5
f 38/5 39/5 47/5 46/5
f 53/5 39/5 38/5
f 54/5 46/5 47/5
f 39/5 40/5 48/5 47/5
f 53/5 40/5 39/5
f 54/5 47/5 48/5
f 40/5 41/5 49/5 48/5
f 53/5 41/5 40/5
f 54/5 48/5 49/5
f 41/5 42/5 50/5 49/5
f 53/5 42/5 41/5
f 54/5 49/5 50/5
f 42/5 43/5 51/5 50/5
f 53/5 43/5 42/5
f 54/5 50/5 51/5
f 43/5 44/5 52/5 51/5
f 53/5 44/5 43/5
f 54/5 51/5 52/5
f 44/5 37/5 45/5 52/5
f 53/5 37/5 44/5
f 54/5 52/5 45/5
f 73/5 74/5 82/5 81/5
f 89/5 74/5 73/5
f 90/5 81/5 82/5
f 74/5 75/5 83/5 82/5
f 89/5 75/5 74/5
f 90/5 82/5 83/5
f 75/5 76/5 84/5 83/5
f 89/5 76/5 75/5
f 90/5 83/5 84/5
f 76/5 77/5 85/5 84/5
f 89/5 77/5 76/5
f 90/5 84/5 85/5
f 77/5 78/5 86/5 85/5
f 89/5 78/5 77/5
f 90/5 85/5 86/5
f 78/5 79/5 87/5 86/5
f 89/5 79/5 78/5
f 90/5 86/5 87/5
f 79/5 80/5 88/5 87/5
f 89/5 80/5 79/5
f 90/5 87/5 88/5
f 80/5 73/5 81/5 88/5
f 89/5 73/5 80/5
f 90/5 88/5 81/5
f 109/5 110/5 118/5 117/5
f 125/5 110/5 109/5
f 126/5 117/5 118/5
f 110/5 111/5 119/5 118/5
f 125/5 111/5 110/5
f 126/5 118/5 119/5
f 111/5 112/5 120/5 119/5
f 125/5 112/5 111/5
f 126/5 119/5 120/5
f 112/5 113/5 121/5 120/5
f 125/5 113/5 112/5
f 126/5 120/5 121/5
f 113/5 114/5 122/5 121/5
f 125/5 114/5 113/5
f 126/5 121/5 122/5
f 114/5 115/5 123/5 122/5
f 125/5 115/5 114/5
f 126/5 122/5 123/5
f 115/5 116/5 124/5 123/5
f 125/5 116/5 115/5
f 126/5 123/5 124/5
f 116/5 109/5 117/5 124/5
f 125/5 109/5 116/5
f 126/5 124/5 117/5
f 1407/5 1408/5 1428/5
f 1422/5 1421/5 1429/5
f 1408/5 1409/5 1428/5
f 1423/5 1422/5 1429/5
f 1409/5 1410/5 1428/5
f 1424/5 1423/5 1429/5
f 1410/5 1411/5 1428/5
f 1425/5 1424/5 1429/5
f 1411/5 1412/5 1428/5
f 1426/5 1425/5 1429/5
f 1412/5 1413/5 1428/5
f 1427/5 1426/5 1429/5
f 1413/5 1407/5 1428/5
f 1421/5 1427/5 1429/5
f 1414/5 1415/5 1408/5 1407/5
f 1415/5 1416/5 1409/5 1408/5
f 1416/5 1417/5 1410/5 1409/5
f 1417/5 1418/5 1411/5 1410/5
f 1418/5 1419/5 1412/5 1411/5
f 1419/5 1420/5 1413/5 1412/5
f 1420/5 1414/5 1407/5 1413/5
f 1421/5 1422/5 1415/5 1414/5
f 1422/5 1423/5 1416/5 1415/5
f 1423/5 1424/5 1417/5 1416/5
f 1424/5 1425/5 1418/5 1417/5
f 1425/5 1426/5 1419/5 1418/5
f 1426/5 1427/5 1420/5 1419/5
f 1427/5 1421/5 1414/5 1420/5
f 1430/5 1431/5 1451/5
f 1445/5 1444/5 1452/5
f 1431/5 1432/5 1451/5
f 1446/5 1445/5 1452/5
f 1432/5 1433/5 1451/5
f 1447/5 1446/5 1452/5
f 1433/5 1434/5 1451/5
f 1448/5 1447/5 1452/5
f 1434/5 1435/5 1451/5
f 1449/5 1448/5 1452/5
f 1435/5 1436/5 1451/5
f 1450/5 1449/5 1452/5
f 1436/5 1430/5 1451/5
f 1444/5 1450/5 1452/5
f 1437/5 1438/5 1431/5 1430/5
f 1438/5 1439/5 1432/5 1431/5
f 1439/5 1440/5 1433/5 1432/5
f 1440/5 1441/5 1434/5 1433/5
f 1441/5 1442/5 1435/5 1434/5
f 1442/5 1443/5 1436/5 1435/5
f 1443/5 1437/5 1430/5 1436/5
f 1444/5 1445/5 1438/5 1437/5
f 1445/5 1446/5 1439/5 1438/5
f 1446/5 1447/5 1440/5 1439/5
f 1447/5 1448/5 1441/5 1440/5
f 1448/5 1449/5 1442/5 1441/5
f 1449/5 1450/5 1443/5 1442/5
f 1450/5 1444/5 1437/5 1443/5
f 1453/5 1454/5 1474/5
f 1468/5 1467/5 1475/5
f 1454/5 1455/5 1474/5
f 1469/5 1468/5 1475/5
f 1455/5 1456/5 1474/5
f 1470/5 1469/5 1475/5
f 1456/5 1457/5 1474/5
f 1471/5 1470/5 1475/5
f 1457/5 1458/5 1474/5
f 1472/5 1471/5 1475/5
f 1458/5 1459/5 1474/5
f 1473/5 1472/5 1475/5
f 1459/5 1453/5 1474/5
f 1467/5 1473/5 1475/5
f 1460/5 1461/5 1454/5 1453/5
f 1461/5 1462/5 1455/5 1454/5
f 1462/5 1463/5 1456/5 1455/5
f 1463/5 1464/5 1457/5 1456/5
f 1464/5 1465/5 1458/5 1457/5
f 1465/5 1466/5 1459/5 1458/5
f 1466/5 1460/5 1453/5 1459/5
f 1467/5 1468/5 1461/5 1460/5
f 1468/5 1469/5 1462/5 1461/5
f 1469/5 1470/5 1463/5 1462/5
f 1470/5 1471/5 1464/5 1463/5
f 1471/5 1472/5 1465/5 1464/5
f 1472/5 1473/5 1466/5 1465/5
f 1473/5 1467/5 1460/5 1466/5
usemtl faded_coral
f 19/8 20/8 28/8 27/8
f 35/8 20/8 19/8
f 36/8 27/8 28/8
f 20/8 21/8 29/8 28/8
f 35/8 21/8 20/8
f 36/8 28/8 29/8
f 21/8 22/8 30/8 29/8
f 35/8 22/8 21/8
f 36/8 29/8 30/8
f 22/8 23/8 31/8 30/8
f 35/8 23/8 22/8
f 36/8 30/8 31/8
f 23/8 24/8 32/8 31/8
f 35/8 24/8 23/8
f 36/8 31/8 32/8
f 24/8 25/8 33/8 32/8
f 35/8 25/8 24/8
f 36/8 32/8 33/8
f 25/8 26/8 34/8 33/8
f 35/8 26/8 25/8
f 36/8 33/8 34/8
f 26/8 19/8 27/8 34/8
f 35/8 19/8 26/8
f 36/8 34/8 27/8
f 55/8 56/8 64/8 63/8
f 71/8 56/8 55/8
f 72/8 63/8 64/8
f 56/8 57/8 65/8 64/8
f 71/8 57/8 56/8
f 72/8 64/8 65/8
f 57/8 58/8 66/8 65/8
f 71/8 58/8 57/8
f 72/8 65/8 66/8
f 58/8 59/8 67/8 66/8
f 71/8 59/8 58/8
f 72/8 66/8 67/8
f 59/8 60/8 68/8 67/8
f 71/8 60/8 59/8
f 72/8 67/8 68/8
f 60/8 61/8 69/8 68/8
f 71/8 61/8 60/8
f 72/8 68/8 69/8
f 61/8 62/8 70/8 69/8
f 71/8 62/8 61/8
f 72/8 69/8 70/8
f 62/8 55/8 63/8 70/8
f 71/8 55/8 62/8
f 72/8 70/8 63/8
f 91/8 92/8 100/8 99/8
f 107/8 92/8 91/8
f 108/8 99/8 100/8
f 92/8 93/8 101/8 100/8
f 107/8 93/8 92/8
f 108/8 100/8 101/8
f 93/8 94/8 102/8 101/8
f 107/8 94/8 93/8
f 108/8 101/8 102/8
f 94/8 95/8 103/8 102/8
f 107/8 95/8 94/8
f 108/8 102/8 103/8
f 95/8 96/8 104/8 103/8
f 107/8 96/8 95/8
f 108/8 103/8 104/8
f 96/8 97/8 105/8 104/8
f 107/8 97/8 96/8
f 108/8 104/8 105/8
f 97/8 98/8 106/8 105/8
f 107/8 98/8 97/8
f 108/8 105/8 106/8
f 98/8 91/8 99/8 106/8
f 107/8 91/8 98/8
f 108/8 106/8 99/8
usemtl mint
f 127/3 128/3 133/3 132/3
f 137/3 128/3 127/3
f 138/3 132/3 133/3
f 128/3 129/3 134/3 133/3
f 137/3 129/3 128/3
f 138/3 133/3 134/3
f 129/3 130/3 135/3 134/3
f 137/3 130/3 129/3
f 138/3 134/3 135/3
f 130/3 131/3 136/3 135/3
f 137/3 131/3 130/3
f 138/3 135/3 136/3
f 131/3 127/3 132/3 136/3
f 137/3 127/3 131/3
f 138/3 136/3 132/3
f 139/3 140/3 151/3
f 146/3 145/3 152/3
f 140/3 141/3 151/3
f 147/3 146/3 152/3
f 141/3 142/3 151/3
f 148/3 147/3 152/3
f 142/3 143/3 151/3
f 149/3 148/3 152/3
f 143/3 144/3 151/3
f 150/3 149/3 152/3
f 144/3 139/3 151/3
f 145/3 150/3 152/3
f 145/3 146/3 140/3 139/3
f 146/3 147/3 141/3 140/3
f 147/3 148/3 142/3 141/3
f 148/3 149/3 143/3 142/3
f 149/3 150/3 144/3 143/3
f 150/3 145/3 139/3 144/3
f 153/3 154/3 165/3
f 160/3 159/3 166/3
f 154/3 155/3 165/3
f 161/3 160/3 166/3
f 155/3 156/3 165/3
f 162/3 161/3 166/3
f 156/3 157/3 165/3
f 163/3 162/3 166/3
f 157/3 158/3 165/3
f 164/3 163/3 166/3
f 158/3 153/3 165/3
f 159/3 164/3 166/3
f 159/3 160/3 154/3 153/3
f 160/3 161/3 155/3 154/3
f 161/3 162/3 156/3 155/3
f 162/3 163/3 157/3 156/3
f 163/3 164/3 158/3 157/3
f 164/3 159/3 153/3 158/3
f 167/3 168/3 173/3 172/3
f 177/3 168/3 167/3
f 178/3 172/3 173/3
f 168/3 169/3 174/3 173/3
f 177/3 169/3 168/3
f 178/3 173/3 174/3
f 169/3 170/3 175/3 174/3
f 177/3 170/3 169/3
f 178/3 174/3 175/3
f 170/3 171/3 176/3 175/3
f 177/3 171/3 170/3
f 178/3 175/3 176/3
f 171/3 167/3 172/3 176/3
f 177/3 167/3 171/3
f 178/3 176/3 172/3
f 179/3 180/3 191/3
f 186/3 185/3 192/3
f 180/3 181/3 191/3
f 187/3 186/3 192/3
f 181/3 182/3 191/3
f 188/3 187/3 192/3
f 182/3 183/3 191/3
f 189/3 188/3 192/3
f 183/3 184/3 191/3
f 190/3 189/3 192/3
f 184/3 179/3 191/3
f 185/3 190/3 192/3
f 185/3 186/3 180/3 179/3
f 186/3 187/3 181/3 180/3
f 187/3 188/3 182/3 181/3
f 188/3 189/3 183/3 182/3
f 189/3 190/3 184/3 183/3
f 190/3 185/3 179/3 184/3
f 193/3 194/3 205/3
f 200/3 199/3 206/3
f 194/3 195/3 205/3
f 201/3 200/3 206/3
f 195/3 196/3 205/3
f 202/3 201/3 206/3
f 196/3 197/3 205/3
f 203/3 202/3 206/3
f 197/3 198/3 205/3
f 204/3 203/3 206/3
f 198/3 193/3 205/3
f 199/3 204/3 206/3
f 199/3 200/3 194/3 193/3
f 200/3 201/3 195/3 194/3
f 201/3 202/3 196/3 195/3
f 202/3 203/3 197/3 196/3
f 203/3 204/3 198/3 197/3
f 204/3 199/3 193/3 198/3
f 207/3 208/3 213/3 212/3
f 217/3 208/3 207/3
f 218/3 212/3 213/3
f 208/3 209/3 214/3 213/3
f 217/3 209/3 208/3
f 218/3 213/3 214/3
f 209/3 210/3 215/3 214/3
f 217/3 210/3 209/3
f 218/3 214/3 215/3
f 210/3 211/3 216/3 215/3
f 217/3 211/3 210/3
f 218/3 215/3 216/3
f 211/3 207/3 212/3 216/3
f 217/3 207/3 211/3
f 218/3 216/3 212/3
f 219/3 220/3 231/3
f 226/3 225/3 232/3
f 220/3 221/3 231/3
f 227/3 226/3 232/3
f 221/3 222/3 231/3
f 228/3 227/3 232/3
f 222/3 223/3 231/3
f 229/3 228/3 232/3
f 223/3 224/3 231/3
f 230/3 229/3 232/3
f 224/3 219/3 231/3
f 225/3 230/3 232/3
f 225/3 226/3 220/3 219/3
f 226/3 227/3 221/3 220/3
f 227/3 228/3 222/3 221/3
f 228/3 229/3 223/3 222/3
f 229/3 230/3 224/3 223/3
f 230/3 225/3 219/3 224/3
f 233/3 234/3 245/3
f 240/3 239/3 246/3
f 234/3 235/3 245/3
f 241/3 240/3 246/3
f 235/3 236/3 245/3
f 242/3 241/3 246/3
f 236/3 237/3 245/3
f 243/3 242/3 246/3
f 237/3 238/3 245/3
f 244/3 243/3 246/3
f 238/3 233/3 245/3
f 239/3 244/3 246/3
f 239/3 240/3 234/3 233/3
f 240/3 241/3 235/3 234/3
f 241/3 242/3 236/3 235/3
f 242/3 243/3 237/3 236/3
f 243/3 244/3 238/3 237/3
f 244/3 239/3 233/3 238/3
f 247/3 248/3 253/3 252/3
f 257/3 248/3 247/3
f 258/3 252/3 253/3
f 248/3 249/3 254/3 253/3
f 257/3 249/3 248/3
f 258/3 253/3 254/3
f 249/3 250/3 255/3 254/3
f 257/3 250/3 249/3
f 258/3 254/3 255/3
f 250/3 251/3 256/3 255/3
f 257/3 251/3 250/3
f 258/3 255/3 256/3
f 251/3 247/3 252/3 256/3
f 257/3 247/3 251/3
f 258/3 256/3 252/3
f 259/3 260/3 271/3
f 266/3 265/3 272/3
f 260/3 261/3 271/3
f 267/3 266/3 272/3
f 261/3 262/3 271/3
f 268/3 267/3 272/3
f 262/3 263/3 271/3
f 269/3 268/3 272/3
f 263/3 264/3 271/3
f 270/3 269/3 272/3
f 264/3 259/3 271/3
f 265/3 270/3 272/3
f 265/3 266/3 260/3 259/3
f 266/3 267/3 261/3 260/3
f 267/3 268/3 262/3 261/3
f 268/3 269/3 263/3 262/3
f 269/3 270/3 264/3 263/3
f 270/3 265/3 259/3 264/3
f 273/3 274/3 285/3
f 280/3 279/3 286/3
f 274/3 275/3 285/3
f 281/3 280/3 286/3
f 275/3 276/3 285/3
f 282/3 281/3 286/3
f 276/3 277/3 285/3
f 283/3 282/3 286/3
f 277/3 278/3 285/3
f 284/3 283/3 286/3
f 278/3 273/3 285/3
f 279/3 284/3 286/3
f 279/3 280/3 274/3 273/3
f 280/3 281/3 275/3 274/3
f 281/3 282/3 276/3 275/3
f 282/3 283/3 277/3 276/3
f 283/3 284/3 278/3 277/3
f 284/3 279/3 273/3 278/3
f 287/3 288/3 293/3 292/3
f 297/3 288/3 287/3
f 298/3 292/3 293/3
f 288/3 289/3 294/3 293/3
f 297/3 289/3 288/3
f 298/3 293/3 294/3
f 289/3 290/3 295/3 294/3
f 297/3 290/3 289/3
f 298/3 294/3 295/3
f 290/3 291/3 296/3 295/3
f 297/3 291/3 290/3
f 298/3 295/3 296/3
f 291/3 287/3 292/3 296/3
f 297/3 287/3 291/3
f 298/3 296/3 292/3
f 299/3 300/3 311/3
f 306/3 305/3 312/3
f 300/3 301/3 311/3
f 307/3 306/3 312/3
f 301/3 302/3 311/3
f 308/3 307/3 312/3
f 302/3 303/3 311/3
f 309/3 308/3 312/3
f 303/3 304/3 311/3
f 310/3 309/3 312/3
f 304/3 299/3 311/3
f 305/3 310/3 312/3
f 305/3 306/3 300/3 299/3
f 306/3 307/3 301/3 300/3
f 307/3 308/3 302/3 301/3
f 308/3 309/3 303/3 302/3
f 309/3 310/3 304/3 303/3
f 310/3 305/3 299/3 304/3
f 313/3 314/3 325/3
f 320/3 319/3 326/3
f 314/3 315/3 325/3
f 321/3 320/3 326/3
f 315/3 316/3 325/3
f 322/3 321/3 326/3
f 316/3 317/3 325/3
f 323/3 322/3 326/3
f 317/3 318/3 325/3
f 324/3 323/3 326/3
f 318/3 313/3 325/3
f 319/3 324/3 326/3
f 319/3 320/3 314/3 313/3
f 320/3 321/3 315/3 314/3
f 321/3 322/3 316/3 315/3
f 322/3 323/3 317/3 316/3
f 323/3 324/3 318/3 317/3
f 324/3 319/3 313/3 318/3
f 327/3 328/3 333/3 332/3
f 337/3 328/3 327/3
f 338/3 332/3 333/3
f 328/3 329/3 334/3 333/3
f 337/3 329/3 328/3
f 338/3 333/3 334/3
f 329/3 330/3 335/3 334/3
f 337/3 330/3 329/3
f 338/3 334/3 335/3
f 330/3 331/3 336/3 335/3
f 337/3 331/3 330/3
f 338/3 335/3 336/3
f 331/3 327/3 332/3 336/3
f 337/3 327/3 331/3
f 338/3 336/3 332/3
f 339/3 340/3 351/3
f 346/3 345/3 352/3
f 340/3 341/3 351/3
f 347/3 346/3 352/3
f 341/3 342/3 351/3
f 348/3 347/3 352/3
f 342/3 343/3 351/3
f 349/3 348/3 352/3
f 343/3 344/3 351/3
f 350/3 349/3 352/3
f 344/3 339/3 351/3
f 345/3 350/3 352/3
f 345/3 346/3 340/3 339/3
f 346/3 347/3 341/3 340/3
f 347/3 348/3 342/3 341/3
f 348/3 349/3 343/3 342/3
f 349/3 350/3 344/3 343/3
f 350/3 345/3 339/3 344/3
f 353/3 354/3 365/3
f 360/3 359/3 366/3
f 354/3 355/3 365/3
f 361/3 360/3 366/3
f 355/3 356/3 365/3
f 362/3 361/3 366/3
f 356/3 357/3 365/3
f 363/3 362/3 366/3
f 357/3 358/3 365/3
f 364/3 363/3 366/3
f 358/3 353/3 365/3
f 359/3 364/3 366/3
f 359/3 360/3 354/3 353/3
f 360/3 361/3 355/3 354/3
f 361/3 362/3 356/3 355/3
f 362/3 363/3 357/3 356/3
f 363/3 364/3 358/3 357/3
f 364/3 359/3 353/3 358/3
f 367/3 368/3 373/3 372/3
f 377/3 368/3 367/3
f 378/3 372/3 373/3
f 368/3 369/3 374/3 373/3
f 377/3 369/3 368/3
f 378/3 373/3 374/3
f 369/3 370/3 375/3 374/3
f 377/3 370/3 369/3
f 378/3 374/3 375/3
f 370/3 371/3 376/3 375/3
f 377/3 371/3 370/3
f 378/3 375/3 376/3
f 371/3 367/3 372/3 376/3
f 377/3 367/3 371/3
f 378/3 376/3 372/3
f 379/3 380/3 391/3
f 386/3 385/3 392/3
f 380/3 381/3 391/3
f 387/3 386/3 392/3
f 381/3 382/3 391/3
f 388/3 387/3 392/3
f 382/3 383/3 391/3
f 389/3 388/3 392/3
f 383/3 384/3 391/3
f 390/3 389/3 392/3
f 384/3 379/3 391/3
f 385/3 390/3 392/3
f 385/3 386/3 380/3 379/3
f 386/3 387/3 381/3 380/3
f 387/3 388/3 382/3 381/3
f 388/3 389/3 383/3 382/3
f 389/3 390/3 384/3 383/3
f 390/3 385/3 379/3 384/3
f 393/3 394/3 405/3
f 400/3 399/3 406/3
f 394/3 395/3 405/3
f 401/3 400/3 406/3
f 395/3 396/3 405/3
f 402/3 401/3 406/3
f 396/3 397/3 405/3
f 403/3 402/3 406/3
f 397/3 398/3 405/3
f 404/3 403/3 406/3
f 398/3 393/3 405/3
f 399/3 404/3 406/3
f 399/3 400/3 394/3 393/3
f 400/3 401/3 395/3 394/3
f 401/3 402/3 396/3 395/3
f 402/3 403/3 397/3 396/3
f 403/3 404/3 398/3 397/3
f 404/3 399/3 393/3 398/3
f 407/3 408/3 413/3 412/3
f 417/3 408/3 407/3
f 418/3 412/3 413/3
f 408/3 409/3 414/3 413/3
f 417/3 409/3 408/3
f 418/3 413/3 414/3
f 409/3 410/3 415/3 414/3
f 417/3 410/3 409/3
f 418/3 414/3 415/3
f 410/3 411/3 416/3 415/3
f 417/3 411/3 410/3
f 418/3 415/3 416/3
f 411/3 407/3 412/3 416/3
f 417/3 407/3 411/3
f 418/3 416/3 412/3
f 419/3 420/3 431/3
f 426/3 425/3 432/3
f 420/3 421/3 431/3
f 427/3 426/3 432/3
f 421/3 422/3 431/3
f 428/3 427/3 432/3
f 422/3 423/3 431/3
f 429/3 428/3 432/3
f 423/3 424/3 431/3
f 430/3 429/3 432/3
f 424/3 419/3 431/3
f 425/3 430/3 432/3
f 425/3 426/3 420/3 419/3
f 426/3 427/3 421/3 420/3
f 427/3 428/3 422/3 421/3
f 428/3 429/3 423/3 422/3
f 429/3 430/3 424/3 423/3
f 430/3 425/3 419/3 424/3
f 433/3 434/3 445/3
f 440/3 439/3 446/3
f 434/3 435/3 445/3
f 441/3 440/3 446/3
f 435/3 436/3 445/3
f 442/3 441/3 446/3
f 436/3 437/3 445/3
f 443/3 442/3 446/3
f 437/3 438/3 445/3
f 444/3 443/3 446/3
f 438/3 433/3 445/3
f 439/3 444/3 446/3
f 439/3 440/3 434/3 433/3
f 440/3 441/3 435/3 434/3
f 441/3 442/3 436/3 435/3
f 442/3 443/3 437/3 436/3
f 443/3 444/3 438/3 437/3
f 444/3 439/3 433/3 438/3
f 447/3 448/3 453/3 452/3
f 457/3 448/3 447/3
f 458/3 452/3 453/3
f 448/3 449/3 454/3 453/3
f 457/3 449/3 448/3
f 458/3 453/3 454/3
f 449/3 450/3 455/3 454/3
f 457/3 450/3 449/3
f 458/3 454/3 455/3
f 450/3 451/3 456/3 455/3
f 457/3 451/3 450/3
f 458/3 455/3 456/3
f 451/3 447/3 452/3 456/3
f 457/3 447/3 451/3
f 458/3 456/3 452/3
f 459/3 460/3 471/3
f 466/3 465/3 472/3
f 460/3 461/3 471/3
f 467/3 466/3 472/3
f 461/3 462/3 471/3
f 468/3 467/3 472/3
f 462/3 463/3 471/3
f 469/3 468/3 472/3
f 463/3 464/3 471/3
f 470/3 469/3 472/3
f 464/3 459/3 471/3
f 465/3 470/3 472/3
f 465/3 466/3 460/3 459/3
f 466/3 467/3 461/3 460/3
f 467/3 468/3 462/3 461/3
f 468/3 469/3 463/3 462/3
f 469/3 470/3 464/3 463/3
f 470/3 465/3 459/3 464/3
f 473/3 474/3 485/3
f 480/3 479/3 486/3
f 474/3 475/3 485/3
f 481/3 480/3 486/3
f 475/3 476/3 485/3
f 482/3 481/3 486/3
f 476/3 477/3 485/3
f 483/3 482/3 486/3
f 477/3 478/3 485/3
f 484/3 483/3 486/3
f 478/3 473/3 485/3
f 479/3 484/3 486/3
f 479/3 480/3 474/3 473/3
f 480/3 481/3 475/3 474/3
f 481/3 482/3 476/3 475/3
f 482/3 483/3 477/3 476/3
f 483/3 484/3 478/3 477/3
f 484/3 479/3 473/3 478/3
f 487/3 488/3 493/3 492/3
f 497/3 488/3 487/3
f 498/3 492/3 493/3
f 488/3 489/3 494/3 493/3
f 497/3 489/3 488/3
f 498/3 493/3 494/3
f 489/3 490/3 495/3 494/3
f 497/3 490/3 489/3
f 498/3 494/3 495/3
f 490/3 491/3 496/3 495/3
f 497/3 491/3 490/3
f 498/3 495/3 496/3
f 491/3 487/3 492/3 496/3
f 497/3 487/3 491/3
f 498/3 496/3 492/3
f 499/3 500/3 511/3
f 506/3 505/3 512/3
f 500/3 501/3 511/3
f 507/3 506/3 512/3
f 501/3 502/3 511/3
f 508/3 507/3 512/3
f 502/3 503/3 511/3
f 509/3 508/3 512/3
f 503/3 504/3 511/3
f 510/3 509/3 512/3
f 504/3 499/3 511/3
f 505/3 510/3 512/3
f 505/3 506/3 500/3 499/3
f 506/3 507/3 501/3 500/3
f 507/3 508/3 502/3 501/3
f 508/3 509/3 503/3 502/3
f 509/3 510/3 504/3 503/3
f 510/3 505/3 499/3 504/3
f 513/3 514/3 525/3
f 520/3 519/3 526/3
f 514/3 515/3 525/3
f 521/3 520/3 526/3
f 515/3 516/3 525/3
f 522/3 521/3 526/3
f 516/3 517/3 525/3
f 523/3 522/3 526/3
f 517/3 518/3 525/3
f 524/3 523/3 526/3
f 518/3 513/3 525/3
f 519/3 524/3 526/3
f 519/3 520/3 514/3 513/3
f 520/3 521/3 515/3 514/3
f 521/3 522/3 516/3 515/3
f 522/3 523/3 517/3 516/3
f 523/3 524/3 518/3 517/3
f 524/3 519/3 513/3 518/3
f 527/3 528/3 533/3 532/3
f 537/3 528/3 527/3
f 538/3 532/3 533/3
f 528/3 529/3 534/3 533/3
f 537/3 529/3 528/3
f 538/3 533/3 534/3
f 529/3 530/3 535/3 534/3
f 537/3 530/3 529/3
f 538/3 534/3 535/3
f 530/3 531/3 536/3 535/3
f 537/3 531/3 530/3
f 538/3 535/3 536/3
f 531/3 527/3 532/3 536/3
f 537/3 527/3 531/3
f 538/3 536/3 532/3
f 539/3 540/3 551/3
f 546/3 545/3 552/3
f 540/3 541/3 551/3
f 547/3 546/3 552/3
f 541/3 542/3 551/3
f 548/3 547/3 552/3
f 542/3 543/3 551/3
f 549/3 548/3 552/3
f 543/3 544/3 551/3
f 550/3 549/3 552/3
f 544/3 539/3 551/3
f 545/3 550/3 552/3
f 545/3 546/3 540/3 539/3
f 546/3 547/3 541/3 540/3
f 547/3 548/3 542/3 541/3
f 548/3 549/3 543/3 542/3
f 549/3 550/3 544/3 543/3
f 550/3 545/3 539/3 544/3
f 553/3 554/3 565/3
f 560/3 559/3 566/3
f 554/3 555/3 565/3
f 561/3 560/3 566/3
f 555/3 556/3 565/3
f 562/3 561/3 566/3
f 556/3 557/3 565/3
f 563/3 562/3 566/3
f 557/3 558/3 565/3
f 564/3 563/3 566/3
f 558/3 553/3 565/3
f 559/3 564/3 566/3
f 559/3 560/3 554/3 553/3
f 560/3 561/3 555/3 554/3
f 561/3 562/3 556/3 555/3
f 562/3 563/3 557/3 556/3
f 563/3 564/3 558/3 557/3
f 564/3 559/3 553/3 558/3
f 567/3 568/3 573/3 572/3
f 577/3 568/3 567/3
f 578/3 572/3 573/3
f 568/3 569/3 574/3 573/3
f 577/3 569/3 568/3
f 578/3 573/3 574/3
f 569/3 570/3 575/3 574/3
f 577/3 570/3 569/3
f 578/3 574/3 575/3
f 570/3 571/3 576/3 575/3
f 577/3 571/3 570/3
f 578/3 575/3 576/3
f 571/3 567/3 572/3 576/3
f 577/3 567/3 571/3
f 578/3 576/3 572/3
f 579/3 580/3 591/3
f 586/3 585/3 592/3
f 580/3 581/3 591/3
f 587/3 586/3 592/3
f 581/3 582/3 591/3
f 588/3 587/3 592/3
f 582/3 583/3 591/3
f 589/3 588/3 592/3
f 583/3 584/3 591/3
f 590/3 589/3 592/3
f 584/3 579/3 591/3
f 585/3 590/3 592/3
f 585/3 586/3 580/3 579/3
f 586/3 587/3 581/3 580/3
f 587/3 588/3 582/3 581/3
f 588/3 589/3 583/3 582/3
f 589/3 590/3 584/3 583/3
f 590/3 585/3 579/3 584/3
f 593/3 594/3 605/3
f 600/3 599/3 606/3
f 594/3 595/3 605/3
f 601/3 600/3 606/3
f 595/3 596/3 605/3
f 602/3 601/3 606/3
f 596/3 597/3 605/3
f 603/3 602/3 606/3
f 597/3 598/3 605/3
f 604/3 603/3 606/3
f 598/3 593/3 605/3
f 599/3 604/3 606/3
f 599/3 600/3 594/3 593/3
f 600/3 601/3 595/3 594/3
f 601/3 602/3 596/3 595/3
f 602/3 603/3 597/3 596/3
f 603/3 604/3 598/3 597/3
f 604/3 599/3 593/3 598/3
f 607/3 608/3 613/3 612/3
f 617/3 608/3 607/3
f 618/3 612/3 613/3
f 608/3 609/3 614/3 613/3
f 617/3 609/3 608/3
f 618/3 613/3 614/3
f 609/3 610/3 615/3 614/3
f 617/3 610/3 609/3
f 618/3 614/3 615/3
f 610/3 611/3 616/3 615/3
f 617/3 611/3 610/3
f 618/3 615/3 616/3
f 611/3 607/3 612/3 616/3
f 617/3 607/3 611/3
f 618/3 616/3 612/3
f 619/3 620/3 631/3
f 626/3 625/3 632/3
f 620/3 621/3 631/3
f 627/3 626/3 632/3
f 621/3 622/3 631/3
f 628/3 627/3 632/3
f 622/3 623/3 631/3
f 629/3 628/3 632/3
f 623/3 624/3 631/3
f 630/3 629/3 632/3
f 624/3 619/3 631/3
f 625/3 630/3 632/3
f 625/3 626/3 620/3 619/3
f 626/3 627/3 621/3 620/3
f 627/3 628/3 622/3 621/3
f 628/3 629/3 623/3 622/3
f 629/3 630/3 624/3 623/3
f 630/3 625/3 619/3 624/3
f 633/3 634/3 645/3
f 640/3 639/3 646/3
f 634/3 635/3 645/3
f 641/3 640/3 646/3
f 635/3 636/3 645/3
f 642/3 641/3 646/3
f 636/3 637/3 645/3
f 643/3 642/3 646/3
f 637/3 638/3 645/3
f 644/3 643/3 646/3
f 638/3 633/3 645/3
f 639/3 644/3 646/3
f 639/3 640/3 634/3 633/3
f 640/3 641/3 635/3 634/3
f 641/3 642/3 636/3 635/3
f 642/3 643/3 637/3 636/3
f 643/3 644/3 638/3 637/3
f 644/3 639/3 633/3 638/3
f 647/3 648/3 653/3 652/3
f 657/3 648/3 647/3
f 658/3 652/3 653/3
f 648/3 649/3 654/3 653/3
f 657/3 649/3 648/3
f 658/3 653/3 654/3
f 649/3 650/3 655/3 654/3
f 657/3 650/3 649/3
f 658/3 654/3 655/3
f 650/3 651/3 656/3 655/3
f 657/3 651/3 650/3
f 658/3 655/3 656/3
f 651/3 647/3 652/3 656/3
f 657/3 647/3 651/3
f 658/3 656/3 652/3
f 659/3 660/3 671/3
f 666/3 665/3 672/3
f 660/3 661/3 671/3
f 667/3 666/3 672/3
f 661/3 662/3 671/3
f 668/3 667/3 672/3
f 662/3 663/3 671/3
f 669/3 668/3 672/3
f 663/3 664/3 671/3
f 670/3 669/3 672/3
f 664/3 659/3 671/3
f 665/3 670/3 672/3
f 665/3 666/3 660/3 659/3
f 666/3 667/3 661/3 660/3
f 667/3 668/3 662/3 661/3
f 668/3 669/3 663/3 662/3
f 669/3 670/3 664/3 663/3
f 670/3 665/3 659/3 664/3
f 673/3 674/3 685/3
f 680/3 679/3 686/3
f 674/3 675/3 685/3
f 681/3 680/3 686/3
f 675/3 676/3 685/3
f 682/3 681/3 686/3
f 676/3 677/3 685/3
f 683/3 682/3 686/3
f 677/3 678/3 685/3
f 684/3 683/3 686/3
f 678/3 673/3 685/3
f 679/3 684/3 686/3
f 679/3 680/3 674/3 673/3
f 680/3 681/3 675/3 674/3
f 681/3 682/3 676/3 675/3
f 682/3 683/3 677/3 676/3
f 683/3 684/3 678/3 677/3
f 684/3 679/3 673/3 678/3
f 687/3 688/3 693/3 692/3
f 697/3 688/3 687/3
f 698/3 692/3 693/3
f 688/3 689/3 694/3 693/3
f 697/3 689/3 688/3
f 698/3 693/3 694/3
f 689/3 690/3 695/3 694/3
f 697/3 690/3 689/3
f 698/3 694/3 695/3
f 690/3 691/3 696/3 695/3
f 697/3 691/3 690/3
f 698/3 695/3 696/3
f 691/3 687/3 692/3 696/3
f 697/3 687/3 691/3
f 698/3 696/3 692/3
f 699/3 700/3 711/3
f 706/3 705/3 712/3
f 700/3 701/3 711/3
f 707/3 706/3 712/3
f 701/3 702/3 711/3
f 708/3 707/3 712/3
f 702/3 703/3 711/3
f 709/3 708/3 712/3
f 703/3 704/3 711/3
f 710/3 709/3 712/3
f 704/3 699/3 711/3
f 705/3 710/3 712/3
f 705/3 706/3 700/3 699/3
f 706/3 707/3 701/3 700/3
f 707/3 708/3 702/3 701/3
f 708/3 709/3 703/3 702/3
f 709/3 710/3 704/3 703/3
f 710/3 705/3 699/3 704/3
f 713/3 714/3 725/3
f 720/3 719/3 726/3
f 714/3 715/3 725/3
f 721/3 720/3 726/3
f 715/3 716/3 725/3
f 722/3 721/3 726/3
f 716/3 717/3 725/3
f 723/3 722/3 726/3
f 717/3 718/3 725/3
f 724/3 723/3 726/3
f 718/3 713/3 725/3
f 719/3 724/3 726/3
f 719/3 720/3 714/3 713/3
f 720/3 721/3 715/3 714/3
f 721/3 722/3 716/3 715/3
f 722/3 723/3 717/3 716/3
f 723/3 724/3 718/3 717/3
f 724/3 719/3 713/3 718/3
f 727/3 728/3 733/3 732/3
f 737/3 728/3 727/3
f 738/3 732/3 733/3
f 728/3 729/3 734/3 733/3
f 737/3 729/3 728/3
f 738/3 733/3 734/3
f 729/3 730/3 735/3 734/3
f 737/3 730/3 729/3
f 738/3 734/3 735/3
f 730/3 731/3 736/3 735/3
f 737/3 731/3 730/3
f 738/3 735/3 736/3
f 731/3 727/3 732/3 736/3
f 737/3 727/3 731/3
f 738/3 736/3 732/3
f 739/3 740/3 751/3
f 746/3 745/3 752/3
f 740/3 741/3 751/3
f 747/3 746/3 752/3
f 741/3 742/3 751/3
f 748/3 747/3 752/3
f 742/3 743/3 751/3
f 749/3 748/3 752/3
f 743/3 744/3 751/3
f 750/3 749/3 752/3
f 744/3 739/3 751/3
f 745/3 750/3 752/3
f 745/3 746/3 740/3 739/3
f 746/3 747/3 741/3 740/3
f 747/3 748/3 742/3 741/3
f 748/3 749/3 743/3 742/3
f 749/3 750/3 744/3 743/3
f 750/3 745/3 739/3 744/3
f 753/3 754/3 765/3
f 760/3 759/3 766/3
f 754/3 755/3 765/3
f 761/3 760/3 766/3
f 755/3 756/3 765/3
f 762/3 761/3 766/3
f 756/3 757/3 765/3
f 763/3 762/3 766/3
f 757/3 758/3 765/3
f 764/3 763/3 766/3
f 758/3 753/3 765/3
f 759/3 764/3 766/3
f 759/3 760/3 754/3 753/3
f 760/3 761/3 755/3 754/3
f 761/3 762/3 756/3 755/3
f 762/3 763/3 757/3 756/3
f 763/3 764/3 758/3 757/3
f 764/3 759/3 753/3 758/3
f 767/3 768/3 773/3 772/3
f 777/3 768/3 767/3
f 778/3 772/3 773/3
f 768/3 769/3 774/3 773/3
f 777/3 769/3 768/3
f 778/3 773/3 774/3
f 769/3 770/3 775/3 774/3
f 777/3 770/3 769/3
f 778/3 774/3 775/3
f 770/3 771/3 776/3 775/3
f 777/3 771/3 770/3
f 778/3 775/3 776/3
f 771/3 767/3 772/3 776/3
f 777/3 767/3 771/3
f 778/3 776/3 772/3
f 779/3 780/3 791/3
f 786/3 785/3 792/3
f 780/3 781/3 791/3
f 787/3 786/3 792/3
f 781/3 782/3 791/3
f 788/3 787/3 792/3
f 782/3 783/3 791/3
f 789/3 788/3 792/3
f 783/3 784/3 791/3
f 790/3 789/3 792/3
f 784/3 779/3 791/3
f 785/3 790/3 792/3
f 785/3 786/3 780/3 779/3
f 786/3 787/3 781/3 780/3
f 787/3 788/3 782/3 781/3
f 788/3 789/3 783/3 782/3
f 789/3 790/3 784/3 783/3
f 790/3 785/3 779/3 784/3
f 793/3 794/3 805/3
f 800/3 799/3 806/3
f 794/3 795/3 805/3
f 801/3 800/3 806/3
f 795/3 796/3 805/3
f 802/3 801/3 806/3
f 796/3 797/3 805/3
f 803/3 802/3 806/3
f 797/3 798/3 805/3
f 804/3 803/3 806/3
f 798/3 793/3 805/3
f 799/3 804/3 806/3
f 799/3 800/3 794/3 793/3
f 800/3 801/3 795/3 794/3
f 801/3 802/3 796/3 795/3
f 802/3 803/3 797/3 796/3
f 803/3 804/3 798/3 797/3
f 804/3 799/3 793/3 798/3
f 807/3 808/3 813/3 812/3
f 817/3 808/3 807/3
f 818/3 812/3 813/3
f 808/3 809/3 814/3 813/3
f 817/3 809/3 808/3
f 818/3 813/3 814/3
f 809/3 810/3 815/3 814/3
f 817/3 810/3 809/3
f 818/3 814/3 815/3
f 810/3 811/3 816/3 815/3
f 817/3 811/3 810/3
f 818/3 815/3 816/3
f 811/3 807/3 812/3 816/3
f 817/3 807/3 811/3
f 818/3 816/3 812/3
f 819/3 820/3 831/3
f 826/3 825/3 832/3
f 820/3 821/3 831/3
f 827/3 826/3 832/3
f 821/3 822/3 831/3
f 828/3 827/3 832/3
f 822/3 823/3 831/3
f 829/3 828/3 832/3
f 823/3 824/3 831/3
f 830/3 829/3 832/3
f 824/3 819/3 831/3
f 825/3 830/3 832/3
f 825/3 826/3 820/3 819/3
f 826/3 827/3 821/3 820/3
f 827/3 828/3 822/3 821/3
f 828/3 829/3 823/3 822/3
f 829/3 830/3 824/3 823/3
f 830/3 825/3 819/3 824/3
f 833/3 834/3 845/3
f 840/3 839/3 846/3
f 834/3 835/3 845/3
f 841/3 840/3 846/3
f 835/3 836/3 845/3
f 842/3 841/3 846/3
f 836/3 837/3 845/3
f 843/3 842/3 846/3
f 837/3 838/3 845/3
f 844/3 843/3 846/3
f 838/3 833/3 845/3
f 839/3 844/3 846/3
f 839/3 840/3 834/3 833/3
f 840/3 841/3 835/3 834/3
f 841/3 842/3 836/3 835/3
f 842/3 843/3 837/3 836/3
f 843/3 844/3 838/3 837/3
f 844/3 839/3 833/3 838/3
f 847/3 848/3 853/3 852/3
f 857/3 848/3 847/3
f 858/3 852/3 853/3
f 848/3 849/3 854/3 853/3
f 857/3 849/3 848/3
f 858/3 853/3 854/3
f 849/3 850/3 855/3 854/3
f 857/3 850/3 849/3
f 858/3 854/3 855/3
f 850/3 851/3 856/3 855/3
f 857/3 851/3 850/3
f 858/3 855/3 856/3
f 851/3 847/3 852/3 856/3
f 857/3 847/3 851/3
f 858/3 856/3 852/3
f 859/3 860/3 871/3
f 866/3 865/3 872/3
f 860/3 861/3 871/3
f 867/3 866/3 872/3
f 861/3 862/3 871/3
f 868/3 867/3 872/3
f 862/3 863/3 871/3
f 869/3 868/3 872/3
f 863/3 864/3 871/3
f 870/3 869/3 872/3
f 864/3 859/3 871/3
f 865/3 870/3 872/3
f 865/3 866/3 860/3 859/3
f 866/3 867/3 861/3 860/3
f 867/3 868/3 862/3 861/3
f 868/3 869/3 863/3 862/3
f 869/3 870/3 864/3 863/3
f 870/3 865/3 859/3 864/3
f 873/3 874/3 885/3
f 880/3 879/3 886/3
f 874/3 875/3 885/3
f 881/3 880/3 886/3
f 875/3 876/3 885/3
f 882/3 881/3 886/3
f 876/3 877/3 885/3
f 883/3 882/3 886/3
f 877/3 878/3 885/3
f 884/3 883/3 886/3
f 878/3 873/3 885/3
f 879/3 884/3 886/3
f 879/3 880/3 874/3 873/3
f 880/3 881/3 875/3 874/3
f 881/3 882/3 876/3 875/3
f 882/3 883/3 877/3 876/3
f 883/3 884/3 878/3 877/3
f 884/3 879/3 873/3 878/3
f 887/3 888/3 893/3 892/3
f 897/3 888/3 887/3
f 898/3 892/3 893/3
f 888/3 889/3 894/3 893/3
f 897/3 889/3 888/3
f 898/3 893/3 894/3
f 889/3 890/3 895/3 894/3
f 897/3 890/3 889/3
f 898/3 894/3 895/3
f 890/3 891/3 896/3 895/3
f 897/3 891/3 890/3
f 898/3 895/3 896/3
f 891/3 887/3 892/3 896/3
f 897/3 887/3 891/3
f 898/3 896/3 892/3
f 899/3 900/3 911/3
f 906/3 905/3 912/3
f 900/3 901/3 911/3
f 907/3 906/3 912/3
f 901/3 902/3 911/3
f 908/3 907/3 912/3
f 902/3 903/3 911/3
f 909/3 908/3 912/3
f 903/3 904/3 911/3
f 910/3 909/3 912/3
f 904/3 899/3 911/3
f 905/3 910/3 912/3
f 905/3 906/3 900/3 899/3
f 906/3 907/3 901/3 900/3
f 907/3 908/3 902/3 901/3
f 908/3 909/3 903/3 902/3
f 909/3 910/3 904/3 903/3
f 910/3 905/3 899/3 904/3
f 913/3 914/3 925/3
f 920/3 919/3 926/3
f 914/3 915/3 925/3
f 921/3 920/3 926/3
f 915/3 916/3 925/3
f 922/3 921/3 926/3
f 916/3 917/3 925/3
f 923/3 922/3 926/3
f 917/3 918/3 925/3
f 924/3 923/3 926/3
f 918/3 913/3 925/3
f 919/3 924/3 926/3
f 919/3 920/3 914/3 913/3
f 920/3 921/3 915/3 914/3
f 921/3 922/3 916/3 915/3
f 922/3 923/3 917/3 916/3
f 923/3 924/3 918/3 917/3
f 924/3 919/3 913/3 918/3
f 927/3 928/3 933/3 932/3
f 937/3 928/3 927/3
f 938/3 932/3 933/3
f 928/3 929/3 934/3 933/3
f 937/3 929/3 928/3
f 938/3 933/3 934/3
f 929/3 930/3 935/3 934/3
f 937/3 930/3 929/3
f 938/3 934/3 935/3
f 930/3 931/3 936/3 935/3
f 937/3 931/3 930/3
f 938/3 935/3 936/3
f 931/3 927/3 932/3 936/3
f 937/3 927/3 931/3
f 938/3 936/3 932/3
f 939/3 940/3 951/3
f 946/3 945/3 952/3
f 940/3 941/3 951/3
f 947/3 946/3 952/3
f 941/3 942/3 951/3
f 948/3 947/3 952/3
f 942/3 943/3 951/3
f 949/3 948/3 952/3
f 943/3 944/3 951/3
f 950/3 949/3 952/3
f 944/3 939/3 951/3
f 945/3 950/3 952/3
f 945/3 946/3 940/3 939/3
f 946/3 947/3 941/3 940/3
f 947/3 948/3 942/3 941/3
f 948/3 949/3 943/3 942/3
f 949/3 950/3 944/3 943/3
f 950/3 945/3 939/3 944/3
f 953/3 954/3 965/3
f 960/3 959/3 966/3
f 954/3 955/3 965/3
f 961/3 960/3 966/3
f 955/3 956/3 965/3
f 962/3 961/3 966/3
f 956/3 957/3 965/3
f 963/3 962/3 966/3
f 957/3 958/3 965/3
f 964/3 963/3 966/3
f 958/3 953/3 965/3
f 959/3 964/3 966/3
f 959/3 960/3 954/3 953/3
f 960/3 961/3 955/3 954/3
f 961/3 962/3 956/3 955/3
f 962/3 963/3 957/3 956/3
f 963/3 964/3 958/3 957/3
f 964/3 959/3 953/3 958/3
f 967/3 968/3 973/3 972/3
f 977/3 968/3 967/3
f 978/3 972/3 973/3
f 968/3 969/3 974/3 973/3
f 977/3 969/3 968/3
f 978/3 973/3 974/3
f 969/3 970/3 975/3 974/3
f 977/3 970/3 969/3
f 978/3 974/3 975/3
f 970/3 971/3 976/3 975/3
f 977/3 971/3 970/3
f 978/3 975/3 976/3
f 971/3 967/3 972/3 976/3
f 977/3 967/3 971/3
f 978/3 976/3 972/3
f 979/3 980/3 991/3
f 986/3 985/3 992/3
f 980/3 981/3 991/3
f 987/3 986/3 992/3
f 981/3 982/3 991/3
f 988/3 987/3 992/3
f 982/3 983/3 991/3
f 989/3 988/3 992/3
f 983/3 984/3 991/3
f 990/3 989/3 992/3
f 984/3 979/3 991/3
f 985/3 990/3 992/3
f 985/3 986/3 980/3 979/3
f 986/3 987/3 981/3 980/3
f 987/3 988/3 982/3 981/3
f 988/3 989/3 983/3 982/3
f 989/3 990/3 984/3 983/3
f 990/3 985/3 979/3 984/3
f 993/3 994/3 1005/3
f 1000/3 999/3 1006/3
f 994/3 995/3 1005/3
f 1001/3 1000/3 1006/3
f 995/3 996/3 1005/3
f 1002/3 1001/3 1006/3
f 996/3 997/3 1005/3
f 1003/3 1002/3 1006/3
f 997/3 998/3 1005/3
f 1004/3 1003/3 1006/3
f 998/3 993/3 1005/3
f 999/3 1004/3 1006/3
f 999/3 1000/3 994/3 993/3
f 1000/3 1001/3 995/3 994/3
f 1001/3 1002/3 996/3 995/3
f 1002/3 1003/3 997/3 996/3
f 1003/3 1004/3 998/3 997/3
f 1004/3 999/3 993/3 998/3
f 1007/3 1008/3 1013/3 1012/3
f 1017/3 1008/3 1007/3
f 1018/3 1012/3 1013/3
f 1008/3 1009/3 1014/3 1013/3
f 1017/3 1009/3 1008/3
f 1018/3 1013/3 1014/3
f 1009/3 1010/3 1015/3 1014/3
f 1017/3 1010/3 1009/3
f 1018/3 1014/3 1015/3
f 1010/3 1011/3 1016/3 1015/3
f 1017/3 1011/3 1010/3
f 1018/3 1015/3 1016/3
f 1011/3 1007/3 1012/3 1016/3
f 1017/3 1007/3 1011/3
f 1018/3 1016/3 1012/3
f 1019/3 1020/3 1031/3
f 1026/3 1025/3 1032/3
f 1020/3 1021/3 1031/3
f 1027/3 1026/3 1032/3
f 1021/3 1022/3 1031/3
f 1028/3 1027/3 1032/3
f 1022/3 1023/3 1031/3
f 1029/3 1028/3 1032/3
f 1023/3 1024/3 1031/3
f 1030/3 1029/3 1032/3
f 1024/3 1019/3 1031/3
f 1025/3 1030/3 1032/3
f 1025/3 1026/3 1020/3 1019/3
f 1026/3 1027/3 1021/3 1020/3
f 1027/3 1028/3 1022/3 1021/3
f 1028/3 1029/3 1023/3 1022/3
f 1029/3 1030/3 1024/3 1023/3
f 1030/3 1025/3 1019/3 1024/3
f 1033/3 1034/3 1045/3
f 1040/3 1039/3 1046/3
f 1034/3 1035/3 1045/3
f 1041/3 1040/3 1046/3
f 1035/3 1036/3 1045/3
f 1042/3 1041/3 1046/3
f 1036/3 1037/3 1045/3
f 1043/3 1042/3 1046/3
f 1037/3 1038/3 1045/3
f 1044/3 1043/3 1046/3
f 1038/3 1033/3 1045/3
f 1039/3 1044/3 1046/3
f 1039/3 1040/3 1034/3 1033/3
f 1040/3 1041/3 1035/3 1034/3
f 1041/3 1042/3 1036/3 1035/3
f 1042/3 1043/3 1037/3 1036/3
f 1043/3 1044/3 1038/3 1037/3
f 1044/3 1039/3 1033/3 1038/3
f 1047/3 1048/3 1053/3 1052/3
f 1057/3 1048/3 1047/3
f 1058/3 1052/3 1053/3
f 1048/3 1049/3 1054/3 1053/3
f 1057/3 1049/3 1048/3
f 1058/3 1053/3 1054/3
f 1049/3 1050/3 1055/3 1054/3
f 1057/3 1050/3 1049/3
f 1058/3 1054/3 1055/3
f 1050/3 1051/3 1056/3 1055/3
f 1057/3 1051/3 1050/3
f 1058/3 1055/3 1056/3
f 1051/3 1047/3 1052/3 1056/3
f 1057/3 1047/3 1051/3
f 1058/3 1056/3 1052/3
f 1059/3 1060/3 1071/3
f 1066/3 1065/3 1072/3
f 1060/3 1061/3 1071/3
f 1067/3 1066/3 1072/3
f 1061/3 1062/3 1071/3
f 1068/3 1067/3 1072/3
f 1062/3 1063/3 1071/3
f 1069/3 1068/3 1072/3
f 1063/3 1064/3 1071/3
f 1070/3 1069/3 1072/3
f 1064/3 1059/3 1071/3
f 1065/3 1070/3 1072/3
f 1065/3 1066/3 1060/3 1059/3
f 1066/3 1067/3 1061/3 1060/3
f 1067/3 1068/3 1062/3 1061/3
f 1068/3 1069/3 1063/3 1062/3
f 1069/3 1070/3 1064/3 1063/3
f 1070/3 1065/3 1059/3 1064/3
f 1073/3 1074/3 1085/3
f 1080/3 1079/3 1086/3
f 1074/3 1075/3 1085/3
f 1081/3 1080/3 1086/3
f 1075/3 1076/3 1085/3
f 1082/3 1081/3 1086/3
f 1076/3 1077/3 1085/3
f 1083/3 1082/3 1086/3
f 1077/3 1078/3 1085/3
f 1084/3 1083/3 1086/3
f 1078/3 1073/3 1085/3
f 1079/3 1084/3 1086/3
f 1079/3 1080/3 1074/3 1073/3
f 1080/3 1081/3 1075/3 1074/3
f 1081/3 1082/3 1076/3 1075/3
f 1082/3 1083/3 1077/3 1076/3
f 1083/3 1084/3 1078/3 1077/3
f 1084/3 1079/3 1073/3 1078/3
f 1087/3 1088/3 1093/3 1092/3
f 1097/3 1088/3 1087/3
f 1098/3 1092/3 1093/3
f 1088/3 1089/3 1094/3 1093/3
f 1097/3 1089/3 1088/3
f 1098/3 1093/3 1094/3
f 1089/3 1090/3 1095/3 1094/3
f 1097/3 1090/3 1089/3
f 1098/3 1094/3 1095/3
f 1090/3 1091/3 1096/3 1095/3
f 1097/3 1091/3 1090/3
f 1098/3 1095/3 1096/3
f 1091/3 1087/3 1092/3 1096/3
f 1097/3 1087/3 1091/3
f 1098/3 1096/3 1092/3
f 1099/3 1100/3 1111/3
f 1106/3 1105/3 1112/3
f 1100/3 1101/3 1111/3
f 1107/3 1106/3 1112/3
f 1101/3 1102/3 1111/3
f 1108/3 1107/3 1112/3
f 1102/3 1103/3 1111/3
f 1109/3 1108/3 1112/3
f 1103/3 1104/3 1111/3
f 1110/3 1109/3 1112/3
f 1104/3 1099/3 1111/3
f 1105/3 1110/3 1112/3
f 1105/3 1106/3 1100/3 1099/3
f 1106/3 1107/3 1101/3 1100/3
f 1107/3 1108/3 1102/3 1101/3
f 1108/3 1109/3 1103/3 1102/3
f 1109/3 1110/3 1104/3 1103/3
f 1110/3 1105/3 1099/3 1104/3
f 1113/3 1114/3 1125/3
f 1120/3 1119/3 1126/3
f 1114/3 1115/3 1125/3
f 1121/3 1120/3 1126/3
f 1115/3 1116/3 1125/3
f 1122/3 1121/3 1126/3
f 1116/3 1117/3 1125/3
f 1123/3 1122/3 1126/3
f 1117/3 1118/3 1125/3
f 1124/3 1123/3 1126/3
f 1118/3 1113/3 1125/3
f 1119/3 1124/3 1126/3
f 1119/3 1120/3 1114/3 1113/3
f 1120/3 1121/3 1115/3 1114/3
f 1121/3 1122/3 1116/3 1115/3
f 1122/3 1123/3 1117/3 1116/3
f 1123/3 1124/3 1118/3 1117/3
f 1124/3 1119/3 1113/3 1118/3
f 1127/3 1128/3 1133/3 1132/3
f 1137/3 1128/3 1127/3
f 1138/3 1132/3 1133/3
f 1128/3 1129/3 1134/3 1133/3
f 1137/3 1129/3 1128/3
f 1138/3 1133/3 1134/3
f 1129/3 1130/3 1135/3 1134/3
f 1137/3 1130/3 1129/3
f 1138/3 1134/3 1135/3
f 1130/3 1131/3 1136/3 1135/3
f 1137/3 1131/3 1130/3
f 1138/3 1135/3 1136/3
f 1131/3 1127/3 1132/3 1136/3
f 1137/3 1127/3 1131/3
f 1138/3 1136/3 1132/3
f 1139/3 1140/3 1151/3
f 1146/3 1145/3 1152/3
f 1140/3 1141/3 1151/3
f 1147/3 1146/3 1152/3
f 1141/3 1142/3 1151/3
f 1148/3 1147/3 1152/3
f 1142/3 1143/3 1151/3
f 1149/3 1148/3 1152/3
f 1143/3 1144/3 1151/3
f 1150/3 1149/3 1152/3
f 1144/3 1139/3 1151/3
f 1145/3 1150/3 1152/3
f 1145/3 1146/3 1140/3 1139/3
f 1146/3 1147/3 1141/3 1140/3
f 1147/3 1148/3 1142/3 1141/3
f 1148/3 1149/3 1143/3 1142/3
f 1149/3 1150/3 1144/3 1143/3
f 1150/3 1145/3 1139/3 1144/3
f 1153/3 1154/3 1165/3
f 1160/3 1159/3 1166/3
f 1154/3 1155/3 1165/3
f 1161/3 1160/3 1166/3
f 1155/3 1156/3 1165/3
f 1162/3 1161/3 1166/3
f 1156/3 1157/3 1165/3
f 1163/3 1162/3 1166/3
f 1157/3 1158/3 1165/3
f 1164/3 1163/3 1166/3
f 1158/3 1153/3 1165/3
f 1159/3 1164/3 1166/3
f 1159/3 1160/3 1154/3 1153/3
f 1160/3 1161/3 1155/3 1154/3
f 1161/3 1162/3 1156/3 1155/3
f 1162/3 1163/3 1157/3 1156/3
f 1163/3 1164/3 1158/3 1157/3
f 1164/3 1159/3 1153/3 1158/3
f 1167/3 1168/3 1173/3 1172/3
f 1177/3 1168/3 1167/3
f 1178/3 1172/3 1173/3
f 1168/3 1169/3 1174/3 1173/3
f 1177/3 1169/3 1168/3
f 1178/3 1173/3 1174/3
f 1169/3 1170/3 1175/3 1174/3
f 1177/3 1170/3 1169/3
f 1178/3 1174/3 1175/3
f 1170/3 1171/3 1176/3 1175/3
f 1177/3 1171/3 1170/3
f 1178/3 1175/3 1176/3
f 1171/3 1167/3 1172/3 1176/3
f 1177/3 1167/3 1171/3
f 1178/3 1176/3 1172/3
f 1179/3 1180/3 1191/3
f 1186/3 1185/3 1192/3
f 1180/3 1181/3 1191/3
f 1187/3 1186/3 1192/3
f 1181/3 1182/3 1191/3
f 1188/3 1187/3 1192/3
f 1182/3 1183/3 1191/3
f 1189/3 1188/3 1192/3
f 1183/3 1184/3 1191/3
f 1190/3 1189/3 1192/3
f 1184/3 1179/3 1191/3
f 1185/3 1190/3 1192/3
f 1185/3 1186/3 1180/3 1179/3
f 1186/3 1187/3 1181/3 1180/3
f 1187/3 1188/3 1182/3 1181/3
f 1188/3 1189/3 1183/3 1182/3
f 1189/3 1190/3 1184/3 1183/3
f 1190/3 1185/3 1179/3 1184/3
f 1193/3 1194/3 1205/3
f 1200/3 1199/3 1206/3
f 1194/3 1195/3 1205/3
f 1201/3 1200/3 1206/3
f 1195/3 1196/3 1205/3
f 1202/3 1201/3 1206/3
f 1196/3 1197/3 1205/3
f 1203/3 1202/3 1206/3
f 1197/3 1198/3 1205/3
f 1204/3 1203/3 1206/3
f 1198/3 1193/3 1205/3
f 1199/3 1204/3 1206/3
f 1199/3 1200/3 1194/3 1193/3
f 1200/3 1201/3 1195/3 1194/3
f 1201/3 1202/3 1196/3 1195/3
f 1202/3 1203/3 1197/3 1196/3
f 1203/3 1204/3 1198/3 1197/3
f 1204/3 1199/3 1193/3 1198/3
f 1207/3 1208/3 1213/3 1212/3
f 1217/3 1208/3 1207/3
f 1218/3 1212/3 1213/3
f 1208/3 1209/3 1214/3 1213/3
f 1217/3 1209/3 1208/3
f 1218/3 1213/3 1214/3
f 1209/3 1210/3 1215/3 1214/3
f 1217/3 1210/3 1209/3
f 1218/3 1214/3 1215/3
f 1210/3 1211/3 1216/3 1215/3
f 1217/3 1211/3 1210/3
f 1218/3 1215/3 1216/3
f 1211/3 1207/3 1212/3 1216/3
f 1217/3 1207/3 1211/3
f 1218/3 1216/3 1212/3
f 1219/3 1220/3 1231/3
f 1226/3 1225/3 1232/3
f 1220/3 1221/3 1231/3
f 1227/3 1226/3 1232/3
f 1221/3 1222/3 1231/3
f 1228/3 1227/3 1232/3
f 1222/3 1223/3 1231/3
f 1229/3 1228/3 1232/3
f 1223/3 1224/3 1231/3
f 1230/3 1229/3 1232/3
f 1224/3 1219/3 1231/3
f 1225/3 1230/3 1232/3
f 1225/3 1226/3 1220/3 1219/3
f 1226/3 1227/3 1221/3 1220/3
f 1227/3 1228/3 1222/3 1221/3
f 1228/3 1229/3 1223/3 1222/3
f 1229/3 1230/3 1224/3 1223/3
f 1230/3 1225/3 1219/3 1224/3
f 1233/3 1234/3 1245/3
f 1240/3 1239/3 1246/3
f 1234/3 1235/3 1245/3
f 1241/3 1240/3 1246/3
f 1235/3 1236/3 1245/3
f 1242/3 1241/3 1246/3
f 1236/3 1237/3 1245/3
f 1243/3 1242/3 1246/3
f 1237/3 1238/3 1245/3
f 1244/3 1243/3 1246/3
f 1238/3 1233/3 1245/3
f 1239/3 1244/3 1246/3
f 1239/3 1240/3 1234/3 1233/3
f 1240/3 1241/3 1235/3 1234/3
f 1241/3 1242/3 1236/3 1235/3
f 1242/3 1243/3 1237/3 1236/3
f 1243/3 1244/3 1238/3 1237/3
f 1244/3 1239/3 1233/3 1238/3
f 1247/3 1248/3 1253/3 1252/3
f 1257/3 1248/3 1247/3
f 1258/3 1252/3 1253/3
f 1248/3 1249/3 1254/3 1253/3
f 1257/3 1249/3 1248/3
f 1258/3 1253/3 1254/3
f 1249/3 1250/3 1255/3 1254/3
f 1257/3 1250/3 1249/3
f 1258/3 1254/3 1255/3
f 1250/3 1251/3 1256/3 1255/3
f 1257/3 1251/3 1250/3
f 1258/3 1255/3 1256/3
f 1251/3 1247/3 1252/3 1256/3
f 1257/3 1247/3 1251/3
f 1258/3 1256/3 1252/3
f 1259/3 1260/3 1271/3
f 1266/3 1265/3 1272/3
f 1260/3 1261/3 1271/3
f 1267/3 1266/3 1272/3
f 1261/3 1262/3 1271/3
f 1268/3 1267/3 1272/3
f 1262/3 1263/3 1271/3
f 1269/3 1268/3 1272/3
f 1263/3 1264/3 1271/3
f 1270/3 1269/3 1272/3
f 1264/3 1259/3 1271/3
f 1265/3 1270/3 1272/3
f 1265/3 1266/3 1260/3 1259/3
f 1266/3 1267/3 1261/3 1260/3
f 1267/3 1268/3 1262/3 1261/3
f 1268/3 1269/3 1263/3 1262/3
f 1269/3 1270/3 1264/3 1263/3
f 1270/3 1265/3 1259/3 1264/3
f 1273/3 1274/3 1285/3
f 1280/3 1279/3 1286/3
f 1274/3 1275/3 1285/3
f 1281/3 1280/3 1286/3
f 1275/3 1276/3 1285/3
f 1282/3 1281/3 1286/3
f 1276/3 1277/3 1285/3
f 1283/3 1282/3 1286/3
f 1277/3 1278/3 1285/3
f 1284/3 1283/3 1286/3
f 1278/3 1273/3 1285/3
f 1279/3 1284/3 1286/3
f 1279/3 1280/3 1274/3 1273/3
f 1280/3 1281/3 1275/3 1274/3
f 1281/3 1282/3 1276/3 1275/3
f 1282/3 1283/3 1277/3 1276/3
f 1283/3 1284/3 1278/3 1277/3
f 1284/3 1279/3 1273/3 1278/3
f 1287/3 1288/3 1293/3 1292/3
f 1297/3 1288/3 1287/3
f 1298/3 1292/3 1293/3
f 1288/3 1289/3 1294/3 1293/3
f 1297/3 1289/3 1288/3
f 1298/3 1293/3 1294/3
f 1289/3 1290/3 1295/3 1294/3
f 1297/3 1290/3 1289/3
f 1298/3 1294/3 1295/3
f 1290/3 1291/3 1296/3 1295/3
f 1297/3 1291/3 1290/3
f 1298/3 1295/3 1296/3
f 1291/3 1287/3 1292/3 1296/3
f 1297/3 1287/3 1291/3
f 1298/3 1296/3 1292/3
f 1299/3 1300/3 1311/3
f 1306/3 1305/3 1312/3
f 1300/3 1301/3 1311/3
f 1307/3 1306/3 1312/3
f 1301/3 1302/3 1311/3
f 1308/3 1307/3 1312/3
f 1302/3 1303/3 1311/3
f 1309/3 1308/3 1312/3
f 1303/3 1304/3 1311/3
f 1310/3 1309/3 1312/3
f 1304/3 1299/3 1311/3
f 1305/3 1310/3 1312/3
f 1305/3 1306/3 1300/3 1299/3
f 1306/3 1307/3 1301/3 1300/3
f 1307/3 1308/3 1302/3 1301/3
f 1308/3 1309/3 1303/3 1302/3
f 1309/3 1310/3 1304/3 1303/3
f 1310/3 1305/3 1299/3 1304/3
f 1313/3 1314/3 1325/3
f 1320/3 1319/3 1326/3
f 1314/3 1315/3 1325/3
f 1321/3 1320/3 1326/3
f 1315/3 1316/3 1325/3
f 1322/3 1321/3 1326/3
f 1316/3 1317/3 1325/3
f 1323/3 1322/3 1326/3
f 1317/3 1318/3 1325/3
f 1324/3 1323/3 1326/3
f 1318/3 1313/3 1325/3
f 1319/3 1324/3 1326/3
f 1319/3 1320/3 1314/3 1313/3
f 1320/3 1321/3 1315/3 1314/3
f 1321/3 1322/3 1316/3 1315/3
f 1322/3 1323/3 1317/3 1316/3
f 1323/3 1324/3 1318/3 1317/3
f 1324/3 1319/3 1313/3 1318/3
f 1327/3 1328/3 1333/3 1332/3
f 1337/3 1328/3 1327/3
f 1338/3 1332/3 1333/3
f 1328/3 1329/3 1334/3 1333/3
f 1337/3 1329/3 1328/3
f 1338/3 1333/3 1334/3
f 1329/3 1330/3 1335/3 1334/3
f 1337/3 1330/3 1329/3
f 1338/3 1334/3 1335/3
f 1330/3 1331/3 1336/3 1335/3
f 1337/3 1331/3 1330/3
f 1338/3 1335/3 1336/3
f 1331/3 1327/3 1332/3 1336/3
f 1337/3 1327/3 1331/3
f 1338/3 1336/3 1332/3
f 1339/3 1340/3 1351/3
f 1346/3 1345/3 1352/3
f 1340/3 1341/3 1351/3
f 1347/3 1346/3 1352/3
f 1341/3 1342/3 1351/3
f 1348/3 1347/3 1352/3
f 1342/3 1343/3 1351/3
f 1349/3 1348/3 1352/3
f 1343/3 1344/3 1351/3
f 1350/3 1349/3 1352/3
f 1344/3 1339/3 1351/3
f 1345/3 1350/3 1352/3
f 1345/3 1346/3 1340/3 1339/3
f 1346/3 1347/3 1341/3 1340/3
f 1347/3 1348/3 1342/3 1341/3
f 1348/3 1349/3 1343/3 1342/3
f 1349/3 1350/3 1344/3 1343/3
f 1350/3 1345/3 1339/3 1344/3
f 1353/3 1354/3 1365/3
f 1360/3 1359/3 1366/3
f 1354/3 1355/3 1365/3
f 1361/3 1360/3 1366/3
f 1355/3 1356/3 1365/3
f 1362/3 1361/3 1366/3
f 1356/3 1357/3 1365/3
f 1363/3 1362/3 1366/3
f 1357/3 1358/3 1365/3
f 1364/3 1363/3 1366/3
f 1358/3 1353/3 1365/3
f 1359/3 1364/3 1366/3
f 1359/3 1360/3 1354/3 1353/3
f 1360/3 1361/3 1355/3 1354/3
f 1361/3 1362/3 1356/3 1355/3
f 1362/3 1363/3 1357/3 1356/3
f 1363/3 1364/3 1358/3 1357/3
f 1364/3 1359/3 1353/3 1358/3
f 1367/3 1368/3 1373/3 1372/3
f 1377/3 1368/3 1367/3
f 1378/3 1372/3 1373/3
f 1368/3 1369/3 1374/3 1373/3
f 1377/3 1369/3 1368/3
f 1378/3 1373/3 1374/3
f 1369/3 1370/3 1375/3 1374/3
f 1377/3 1370/3 1369/3
f 1378/3 1374/3 1375/3
f 1370/3 1371/3 1376/3 1375/3
f 1377/3 1371/3 1370/3
f 1378/3 1375/3 1376/3
f 1371/3 1367/3 1372/3 1376/3
f 1377/3 1367/3 1371/3
f 1378/3 1376/3 1372/3
f 1379/3 1380/3 1391/3
f 1386/3 1385/3 1392/3
f 1380/3 1381/3 1391/3
f 1387/3 1386/3 1392/3
f 1381/3 1382/3 1391/3
f 1388/3 1387/3 1392/3
f 1382/3 1383/3 1391/3
f 1389/3 1388/3 1392/3
f 1383/3 1384/3 1391/3
f 1390/3 1389/3 1392/3
f 1384/3 1379/3 1391/3
f 1385/3 1390/3 1392/3
f 1385/3 1386/3 1380/3 1379/3
f 1386/3 1387/3 1381/3 1380/3
f 1387/3 1388/3 1382/3 1381/3
f 1388/3 1389/3 1383/3 1382/3
f 1389/3 1390/3 1384/3 1383/3
f 1390/3 1385/3 1379/3 1384/3
f 1393/3 1394/3 1405/3
f 1400/3 1399/3 1406/3
f 1394/3 1395/3 1405/3
f 1401/3 1400/3 1406/3
f 1395/3 1396/3 1405/3
f 1402/3 1401/3 1406/3
f 1396/3 1397/3 1405/3
f 1403/3 1402/3 1406/3
f 1397/3 1398/3 1405/3
f 1404/3 1403/3 1406/3
f 1398/3 1393/3 1405/3
f 1399/3 1404/3 1406/3
f 1399/3 1400/3 1394/3 1393/3
f 1400/3 1401/3 1395/3 1394/3
f 1401/3 1402/3 1396/3 1395/3
f 1402/3 1403/3 1397/3 1396/3
f 1403/3 1404/3 1398/3 1397/3
f 1404/3 1399/3 1393/3 1398/3
