# ParkParkStorybookEntrance — ParkPark original fairground mesh
mtllib ParkParkFairground.mtl
o ParkParkStorybookEntrance
v -5.93000 0.72000 0.00000
v -5.93000 7.82000 0.00000
v -6.08005 0.72000 0.56000
v -6.08005 7.82000 0.56000
v -6.49000 0.72000 0.96995
v -6.49000 7.82000 0.96995
v -7.05000 0.72000 1.12000
v -7.05000 7.82000 1.12000
v -7.61000 0.72000 0.96995
v -7.61000 7.82000 0.96995
v -8.01995 0.72000 0.56000
v -8.01995 7.82000 0.56000
v -8.17000 0.72000 0.00000
v -8.17000 7.82000 0.00000
v -8.01995 0.72000 -0.56000
v -8.01995 7.82000 -0.56000
v -7.61000 0.72000 -0.96995
v -7.61000 7.82000 -0.96995
v -7.05000 0.72000 -1.12000
v -7.05000 7.82000 -1.12000
v -6.49000 0.72000 -0.96995
v -6.49000 7.82000 -0.96995
v -6.08005 0.72000 -0.56000
v -6.08005 7.82000 -0.56000
v -7.05000 0.72000 0.00000
v -7.05000 7.82000 0.00000
v -5.57000 0.08000 0.00000
v -5.57000 0.78000 0.00000
v -5.76828 0.08000 0.74000
v -5.76828 0.78000 0.74000
v -6.31000 0.08000 1.28172
v -6.31000 0.78000 1.28172
v -7.05000 0.08000 1.48000
v -7.05000 0.78000 1.48000
v -7.79000 0.08000 1.28172
v -7.79000 0.78000 1.28172
v -8.33172 0.08000 0.74000
v -8.33172 0.78000 0.74000
v -8.53000 0.08000 0.00000
v -8.53000 0.78000 0.00000
v -8.33172 0.08000 -0.74000
v -8.33172 0.78000 -0.74000
v -7.79000 0.08000 -1.28172
v -7.79000 0.78000 -1.28172
v -7.05000 0.08000 -1.48000
v -7.05000 0.78000 -1.48000
v -6.31000 0.08000 -1.28172
v -6.31000 0.78000 -1.28172
v -5.76828 0.08000 -0.74000
v -5.76828 0.78000 -0.74000
v -7.05000 0.08000 0.00000
v -7.05000 0.78000 0.00000
v -5.71000 7.28000 0.00000
v -5.71000 8.12000 0.00000
v -5.88953 7.28000 0.67000
v -5.88953 8.12000 0.67000
v -6.38000 7.28000 1.16047
v -6.38000 8.12000 1.16047
v -7.05000 7.28000 1.34000
v -7.05000 8.12000 1.34000
v -7.72000 7.28000 1.16047
v -7.72000 8.12000 1.16047
v -8.21047 7.28000 0.67000
v -8.21047 8.12000 0.67000
v -8.39000 7.28000 0.00000
v -8.39000 8.12000 0.00000
v -8.21047 7.28000 -0.67000
v -8.21047 8.12000 -0.67000
v -7.72000 7.28000 -1.16047
v -7.72000 8.12000 -1.16047
v -7.05000 7.28000 -1.34000
v -7.05000 8.12000 -1.34000
v -6.38000 7.28000 -1.16047
v -6.38000 8.12000 -1.16047
v -5.88953 7.28000 -0.67000
v -5.88953 8.12000 -0.67000
v -7.05000 7.28000 0.00000
v -7.05000 8.12000 0.00000
v -5.80500 0.90000 0.00000
v -5.84750 0.97361 0.00000
v -5.93250 0.97361 0.00000
v -5.97500 0.90000 0.00000
v -5.93250 0.82639 0.00000
v -5.84750 0.82639 0.00000
v -5.89977 0.90000 0.47644
v -5.93903 0.97361 0.46018
v -6.01756 0.97361 0.42765
v -6.05683 0.90000 0.41138
v -6.01756 0.82639 0.42765
v -5.93903 0.82639 0.46018
v -6.16965 0.90000 0.88035
v -6.19970 0.97361 0.85030
v -6.25981 0.97361 0.79019
v -6.28986 0.90000 0.76014
v -6.25981 0.82639 0.79019
v -6.19970 0.82639 0.85030
v -6.57356 0.90000 1.15023
v -6.58982 0.97361 1.11097
v -6.62235 0.97361 1.03244
v -6.63862 0.90000 0.99317
v -6.62235 0.82639 1.03244
v -6.58982 0.82639 1.11097
v -7.05000 0.90000 1.24500
v -7.05000 0.97361 1.20250
v -7.05000 0.97361 1.11750
v -7.05000 0.90000 1.07500
v -7.05000 0.82639 1.11750
v -7.05000 0.82639 1.20250
v -7.52644 0.90000 1.15023
v -7.51018 0.97361 1.11097
v -7.47765 0.97361 1.03244
v -7.46138 0.90000 0.99317
v -7.47765 0.82639 1.03244
v -7.51018 0.82639 1.11097
v -7.93035 0.90000 0.88035
v -7.90030 0.97361 0.85030
v -7.84019 0.97361 0.79019
v -7.81014 0.90000 0.76014
v -7.84019 0.82639 0.79019
v -7.90030 0.82639 0.85030
v -8.20023 0.90000 0.47644
v -8.16097 0.97361 0.46018
v -8.08244 0.97361 0.42765
v -8.04317 0.90000 0.41138
v -8.08244 0.82639 0.42765
v -8.16097 0.82639 0.46018
v -8.29500 0.90000 0.00000
v -8.25250 0.97361 0.00000
v -8.16750 0.97361 0.00000
v -8.12500 0.90000 0.00000
v -8.16750 0.82639 0.00000
v -8.25250 0.82639 0.00000
v -8.20023 0.90000 -0.47644
v -8.16097 0.97361 -0.46018
v -8.08244 0.97361 -0.42765
v -8.04317 0.90000 -0.41138
v -8.08244 0.82639 -0.42765
v -8.16097 0.82639 -0.46018
v -7.93035 0.90000 -0.88035
v -7.90030 0.97361 -0.85030
v -7.84019 0.97361 -0.79019
v -7.81014 0.90000 -0.76014
v -7.84019 0.82639 -0.79019
v -7.90030 0.82639 -0.85030
v -7.52644 0.90000 -1.15023
v -7.51018 0.97361 -1.11097
v -7.47765 0.97361 -1.03244
v -7.46138 0.90000 -0.99317
v -7.47765 0.82639 -1.03244
v -7.51018 0.82639 -1.11097
v -7.05000 0.90000 -1.24500
v -7.05000 0.97361 -1.20250
v -7.05000 0.97361 -1.11750
v -7.05000 0.90000 -1.07500
v -7.05000 0.82639 -1.11750
v -7.05000 0.82639 -1.20250
v -6.57356 0.90000 -1.15023
v -6.58982 0.97361 -1.11097
v -6.62235 0.97361 -1.03244
v -6.63862 0.90000 -0.99317
v -6.62235 0.82639 -1.03244
v -6.58982 0.82639 -1.11097
v -6.16965 0.90000 -0.88035
v -6.19970 0.97361 -0.85030
v -6.25981 0.97361 -0.79019
v -6.28986 0.90000 -0.76014
v -6.25981 0.82639 -0.79019
v -6.19970 0.82639 -0.85030
v -5.89977 0.90000 -0.47644
v -5.93903 0.97361 -0.46018
v -6.01756 0.97361 -0.42765
v -6.05683 0.90000 -0.41138
v -6.01756 0.82639 -0.42765
v -5.93903 0.82639 -0.46018
v -5.80500 1.25000 0.00000
v -5.84750 1.32361 0.00000
v -5.93250 1.32361 0.00000
v -5.97500 1.25000 0.00000
v -5.93250 1.17639 0.00000
v -5.84750 1.17639 0.00000
v -5.89977 1.25000 0.47644
v -5.93903 1.32361 0.46018
v -6.01756 1.32361 0.42765
v -6.05683 1.25000 0.41138
v -6.01756 1.17639 0.42765
v -5.93903 1.17639 0.46018
v -6.16965 1.25000 0.88035
v -6.19970 1.32361 0.85030
v -6.25981 1.32361 0.79019
v -6.28986 1.25000 0.76014
v -6.25981 1.17639 0.79019
v -6.19970 1.17639 0.85030
v -6.57356 1.25000 1.15023
v -6.58982 1.32361 1.11097
v -6.62235 1.32361 1.03244
v -6.63862 1.25000 0.99317
v -6.62235 1.17639 1.03244
v -6.58982 1.17639 1.11097
v -7.05000 1.25000 1.24500
v -7.05000 1.32361 1.20250
v -7.05000 1.32361 1.11750
v -7.05000 1.25000 1.07500
v -7.05000 1.17639 1.11750
v -7.05000 1.17639 1.20250
v -7.52644 1.25000 1.15023
v -7.51018 1.32361 1.11097
v -7.47765 1.32361 1.03244
v -7.46138 1.25000 0.99317
v -7.47765 1.17639 1.03244
v -7.51018 1.17639 1.11097
v -7.93035 1.25000 0.88035
v -7.90030 1.32361 0.85030
v -7.84019 1.32361 0.79019
v -7.81014 1.25000 0.76014
v -7.84019 1.17639 0.79019
v -7.90030 1.17639 0.85030
v -8.20023 1.25000 0.47644
v -8.16097 1.32361 0.46018
v -8.08244 1.32361 0.42765
v -8.04317 1.25000 0.41138
v -8.08244 1.17639 0.42765
v -8.16097 1.17639 0.46018
v -8.29500 1.25000 0.00000
v -8.25250 1.32361 0.00000
v -8.16750 1.32361 0.00000
v -8.12500 1.25000 0.00000
v -8.16750 1.17639 0.00000
v -8.25250 1.17639 0.00000
v -8.20023 1.25000 -0.47644
v -8.16097 1.32361 -0.46018
v -8.08244 1.32361 -0.42765
v -8.04317 1.25000 -0.41138
v -8.08244 1.17639 -0.42765
v -8.16097 1.17639 -0.46018
v -7.93035 1.25000 -0.88035
v -7.90030 1.32361 -0.85030
v -7.84019 1.32361 -0.79019
v -7.81014 1.25000 -0.76014
v -7.84019 1.17639 -0.79019
v -7.90030 1.17639 -0.85030
v -7.52644 1.25000 -1.15023
v -7.51018 1.32361 -1.11097
v -7.47765 1.32361 -1.03244
v -7.46138 1.25000 -0.99317
v -7.47765 1.17639 -1.03244
v -7.51018 1.17639 -1.11097
v -7.05000 1.25000 -1.24500
v -7.05000 1.32361 -1.20250
v -7.05000 1.32361 -1.11750
v -7.05000 1.25000 -1.07500
v -7.05000 1.17639 -1.11750
v -7.05000 1.17639 -1.20250
v -6.57356 1.25000 -1.15023
v -6.58982 1.32361 -1.11097
v -6.62235 1.32361 -1.03244
v -6.63862 1.25000 -0.99317
v -6.62235 1.17639 -1.03244
v -6.58982 1.17639 -1.11097
v -6.16965 1.25000 -0.88035
v -6.19970 1.32361 -0.85030
v -6.25981 1.32361 -0.79019
v -6.28986 1.25000 -0.76014
v -6.25981 1.17639 -0.79019
v -6.19970 1.17639 -0.85030
v -5.89977 1.25000 -0.47644
v -5.93903 1.32361 -0.46018
v -6.01756 1.32361 -0.42765
v -6.05683 1.25000 -0.41138
v -6.01756 1.17639 -0.42765
v -5.93903 1.17639 -0.46018
v -5.64500 7.00000 0.00000
v -5.68750 7.07361 0.00000
v -5.77250 7.07361 0.00000
v -5.81500 7.00000 0.00000
v -5.77250 6.92639 0.00000
v -5.68750 6.92639 0.00000
v -5.75195 7.00000 0.53767
v -5.79121 7.07361 0.52141
v -5.86974 7.07361 0.48888
v -5.90901 7.00000 0.47261
v -5.86974 6.92639 0.48888
v -5.79121 6.92639 0.52141
v -6.05651 7.00000 0.99349
v -6.08657 7.07361 0.96343
v -6.14667 7.07361 0.90333
v -6.17672 7.00000 0.87328
v -6.14667 6.92639 0.90333
v -6.08657 6.92639 0.96343
v -6.51233 7.00000 1.29805
v -6.52859 7.07361 1.25879
v -6.56112 7.07361 1.18026
v -6.57739 7.00000 1.14099
v -6.56112 6.92639 1.18026
v -6.52859 6.92639 1.25879
v -7.05000 7.00000 1.40500
v -7.05000 7.07361 1.36250
v -7.05000 7.07361 1.27750
v -7.05000 7.00000 1.23500
v -7.05000 6.92639 1.27750
v -7.05000 6.92639 1.36250
v -7.58767 7.00000 1.29805
v -7.57141 7.07361 1.25879
v -7.53888 7.07361 1.18026
v -7.52261 7.00000 1.14099
v -7.53888 6.92639 1.18026
v -7.57141 6.92639 1.25879
v -8.04349 7.00000 0.99349
v -8.01343 7.07361 0.96343
v -7.95333 7.07361 0.90333
v -7.92328 7.00000 0.87328
v -7.95333 6.92639 0.90333
v -8.01343 6.92639 0.96343
v -8.34805 7.00000 0.53767
v -8.30879 7.07361 0.52141
v -8.23026 7.07361 0.48888
v -8.19099 7.00000 0.47261
v -8.23026 6.92639 0.48888
v -8.30879 6.92639 0.52141
v -8.45500 7.00000 0.00000
v -8.41250 7.07361 0.00000
v -8.32750 7.07361 0.00000
v -8.28500 7.00000 0.00000
v -8.32750 6.92639 0.00000
v -8.41250 6.92639 0.00000
v -8.34805 7.00000 -0.53767
v -8.30879 7.07361 -0.52141
v -8.23026 7.07361 -0.48888
v -8.19099 7.00000 -0.47261
v -8.23026 6.92639 -0.48888
v -8.30879 6.92639 -0.52141
v -8.04349 7.00000 -0.99349
v -8.01343 7.07361 -0.96343
v -7.95333 7.07361 -0.90333
v -7.92328 7.00000 -0.87328
v -7.95333 6.92639 -0.90333
v -8.01343 6.92639 -0.96343
v -7.58767 7.00000 -1.29805
v -7.57141 7.07361 -1.25879
v -7.53888 7.07361 -1.18026
v -7.52261 7.00000 -1.14099
v -7.53888 6.92639 -1.18026
v -7.57141 6.92639 -1.25879
v -7.05000 7.00000 -1.40500
v -7.05000 7.07361 -1.36250
v -7.05000 7.07361 -1.27750
v -7.05000 7.00000 -1.23500
v -7.05000 6.92639 -1.27750
v -7.05000 6.92639 -1.36250
v -6.51233 7.00000 -1.29805
v -6.52859 7.07361 -1.25879
v -6.56112 7.07361 -1.18026
v -6.57739 7.00000 -1.14099
v -6.56112 6.92639 -1.18026
v -6.52859 6.92639 -1.25879
v -6.05651 7.00000 -0.99349
v -6.08657 7.07361 -0.96343
v -6.14667 7.07361 -0.90333
v -6.17672 7.00000 -0.87328
v -6.14667 6.92639 -0.90333
v -6.08657 6.92639 -0.96343
v -5.75195 7.00000 -0.53767
v -5.79121 7.07361 -0.52141
v -5.86974 7.07361 -0.48888
v -5.90901 7.00000 -0.47261
v -5.86974 6.92639 -0.48888
v -5.79121 6.92639 -0.52141
v -5.64500 7.32000 0.00000
v -5.68750 7.39361 0.00000
v -5.77250 7.39361 0.00000
v -5.81500 7.32000 0.00000
v -5.77250 7.24639 0.00000
v -5.68750 7.24639 0.00000
v -5.75195 7.32000 0.53767
v -5.79121 7.39361 0.52141
v -5.86974 7.39361 0.48888
v -5.90901 7.32000 0.47261
v -5.86974 7.24639 0.48888
v -5.79121 7.24639 0.52141
v -6.05651 7.32000 0.99349
v -6.08657 7.39361 0.96343
v -6.14667 7.39361 0.90333
v -6.17672 7.32000 0.87328
v -6.14667 7.24639 0.90333
v -6.08657 7.24639 0.96343
v -6.51233 7.32000 1.29805
v -6.52859 7.39361 1.25879
v -6.56112 7.39361 1.18026
v -6.57739 7.32000 1.14099
v -6.56112 7.24639 1.18026
v -6.52859 7.24639 1.25879
v -7.05000 7.32000 1.40500
v -7.05000 7.39361 1.36250
v -7.05000 7.39361 1.27750
v -7.05000 7.32000 1.23500
v -7.05000 7.24639 1.27750
v -7.05000 7.24639 1.36250
v -7.58767 7.32000 1.29805
v -7.57141 7.39361 1.25879
v -7.53888 7.39361 1.18026
v -7.52261 7.32000 1.14099
v -7.53888 7.24639 1.18026
v -7.57141 7.24639 1.25879
v -8.04349 7.32000 0.99349
v -8.01343 7.39361 0.96343
v -7.95333 7.39361 0.90333
v -7.92328 7.32000 0.87328
v -7.95333 7.24639 0.90333
v -8.01343 7.24639 0.96343
v -8.34805 7.32000 0.53767
v -8.30879 7.39361 0.52141
v -8.23026 7.39361 0.48888
v -8.19099 7.32000 0.47261
v -8.23026 7.24639 0.48888
v -8.30879 7.24639 0.52141
v -8.45500 7.32000 0.00000
v -8.41250 7.39361 0.00000
v -8.32750 7.39361 0.00000
v -8.28500 7.32000 0.00000
v -8.32750 7.24639 0.00000
v -8.41250 7.24639 0.00000
v -8.34805 7.32000 -0.53767
v -8.30879 7.39361 -0.52141
v -8.23026 7.39361 -0.48888
v -8.19099 7.32000 -0.47261
v -8.23026 7.24639 -0.48888
v -8.30879 7.24639 -0.52141
v -8.04349 7.32000 -0.99349
v -8.01343 7.39361 -0.96343
v -7.95333 7.39361 -0.90333
v -7.92328 7.32000 -0.87328
v -7.95333 7.24639 -0.90333
v -8.01343 7.24639 -0.96343
v -7.58767 7.32000 -1.29805
v -7.57141 7.39361 -1.25879
v -7.53888 7.39361 -1.18026
v -7.52261 7.32000 -1.14099
v -7.53888 7.24639 -1.18026
v -7.57141 7.24639 -1.25879
v -7.05000 7.32000 -1.40500
v -7.05000 7.39361 -1.36250
v -7.05000 7.39361 -1.27750
v -7.05000 7.32000 -1.23500
v -7.05000 7.24639 -1.27750
v -7.05000 7.24639 -1.36250
v -6.51233 7.32000 -1.29805
v -6.52859 7.39361 -1.25879
v -6.56112 7.39361 -1.18026
v -6.57739 7.32000 -1.14099
v -6.56112 7.24639 -1.18026
v -6.52859 7.24639 -1.25879
v -6.05651 7.32000 -0.99349
v -6.08657 7.39361 -0.96343
v -6.14667 7.39361 -0.90333
v -6.17672 7.32000 -0.87328
v -6.14667 7.24639 -0.90333
v -6.08657 7.24639 -0.96343
v -5.75195 7.32000 -0.53767
v -5.79121 7.39361 -0.52141
v -5.86974 7.39361 -0.48888
v -5.90901 7.32000 -0.47261
v -5.86974 7.24639 -0.48888
v -5.79121 7.24639 -0.52141
v -5.64500 8.06000 0.00000
v -5.68750 8.13361 0.00000
v -5.77250 8.13361 0.00000
v -5.81500 8.06000 0.00000
v -5.77250 7.98639 0.00000
v -5.68750 7.98639 0.00000
v -5.75195 8.06000 0.53767
v -5.79121 8.13361 0.52141
v -5.86974 8.13361 0.48888
v -5.90901 8.06000 0.47261
v -5.86974 7.98639 0.48888
v -5.79121 7.98639 0.52141
v -6.05651 8.06000 0.99349
v -6.08657 8.13361 0.96343
v -6.14667 8.13361 0.90333
v -6.17672 8.06000 0.87328
v -6.14667 7.98639 0.90333
v -6.08657 7.98639 0.96343
v -6.51233 8.06000 1.29805
v -6.52859 8.13361 1.25879
v -6.56112 8.13361 1.18026
v -6.57739 8.06000 1.14099
v -6.56112 7.98639 1.18026
v -6.52859 7.98639 1.25879
v -7.05000 8.06000 1.40500
v -7.05000 8.13361 1.36250
v -7.05000 8.13361 1.27750
v -7.05000 8.06000 1.23500
v -7.05000 7.98639 1.27750
v -7.05000 7.98639 1.36250
v -7.58767 8.06000 1.29805
v -7.57141 8.13361 1.25879
v -7.53888 8.13361 1.18026
v -7.52261 8.06000 1.14099
v -7.53888 7.98639 1.18026
v -7.57141 7.98639 1.25879
v -8.04349 8.06000 0.99349
v -8.01343 8.13361 0.96343
v -7.95333 8.13361 0.90333
v -7.92328 8.06000 0.87328
v -7.95333 7.98639 0.90333
v -8.01343 7.98639 0.96343
v -8.34805 8.06000 0.53767
v -8.30879 8.13361 0.52141
v -8.23026 8.13361 0.48888
v -8.19099 8.06000 0.47261
v -8.23026 7.98639 0.48888
v -8.30879 7.98639 0.52141
v -8.45500 8.06000 0.00000
v -8.41250 8.13361 0.00000
v -8.32750 8.13361 0.00000
v -8.28500 8.06000 0.00000
v -8.32750 7.98639 0.00000
v -8.41250 7.98639 0.00000
v -8.34805 8.06000 -0.53767
v -8.30879 8.13361 -0.52141
v -8.23026 8.13361 -0.48888
v -8.19099 8.06000 -0.47261
v -8.23026 7.98639 -0.48888
v -8.30879 7.98639 -0.52141
v -8.04349 8.06000 -0.99349
v -8.01343 8.13361 -0.96343
v -7.95333 8.13361 -0.90333
v -7.92328 8.06000 -0.87328
v -7.95333 7.98639 -0.90333
v -8.01343 7.98639 -0.96343
v -7.58767 8.06000 -1.29805
v -7.57141 8.13361 -1.25879
v -7.53888 8.13361 -1.18026
v -7.52261 8.06000 -1.14099
v -7.53888 7.98639 -1.18026
v -7.57141 7.98639 -1.25879
v -7.05000 8.06000 -1.40500
v -7.05000 8.13361 -1.36250
v -7.05000 8.13361 -1.27750
v -7.05000 8.06000 -1.23500
v -7.05000 7.98639 -1.27750
v -7.05000 7.98639 -1.36250
v -6.51233 8.06000 -1.29805
v -6.52859 8.13361 -1.25879
v -6.56112 8.13361 -1.18026
v -6.57739 8.06000 -1.14099
v -6.56112 7.98639 -1.18026
v -6.52859 7.98639 -1.25879
v -6.05651 8.06000 -0.99349
v -6.08657 8.13361 -0.96343
v -6.14667 8.13361 -0.90333
v -6.17672 8.06000 -0.87328
v -6.14667 7.98639 -0.90333
v -6.08657 7.98639 -0.96343
v -5.75195 8.06000 -0.53767
v -5.79121 8.13361 -0.52141
v -5.86974 8.13361 -0.48888
v -5.90901 8.06000 -0.47261
v -5.86974 7.98639 -0.48888
v -5.79121 7.98639 -0.52141
v 8.17000 0.72000 0.00000
v 8.17000 7.82000 0.00000
v 8.01995 0.72000 0.56000
v 8.01995 7.82000 0.56000
v 7.61000 0.72000 0.96995
v 7.61000 7.82000 0.96995
v 7.05000 0.72000 1.12000
v 7.05000 7.82000 1.12000
v 6.49000 0.72000 0.96995
v 6.49000 7.82000 0.96995
v 6.08005 0.72000 0.56000
v 6.08005 7.82000 0.56000
v 5.93000 0.72000 0.00000
v 5.93000 7.82000 0.00000
v 6.08005 0.72000 -0.56000
v 6.08005 7.82000 -0.56000
v 6.49000 0.72000 -0.96995
v 6.49000 7.82000 -0.96995
v 7.05000 0.72000 -1.12000
v 7.05000 7.82000 -1.12000
v 7.61000 0.72000 -0.96995
v 7.61000 7.82000 -0.96995
v 8.01995 0.72000 -0.56000
v 8.01995 7.82000 -0.56000
v 7.05000 0.72000 0.00000
v 7.05000 7.82000 0.00000
v 8.53000 0.08000 0.00000
v 8.53000 0.78000 0.00000
v 8.33172 0.08000 0.74000
v 8.33172 0.78000 0.74000
v 7.79000 0.08000 1.28172
v 7.79000 0.78000 1.28172
v 7.05000 0.08000 1.48000
v 7.05000 0.78000 1.48000
v 6.31000 0.08000 1.28172
v 6.31000 0.78000 1.28172
v 5.76828 0.08000 0.74000
v 5.76828 0.78000 0.74000
v 5.57000 0.08000 0.00000
v 5.57000 0.78000 0.00000
v 5.76828 0.08000 -0.74000
v 5.76828 0.78000 -0.74000
v 6.31000 0.08000 -1.28172
v 6.31000 0.78000 -1.28172
v 7.05000 0.08000 -1.48000
v 7.05000 0.78000 -1.48000
v 7.79000 0.08000 -1.28172
v 7.79000 0.78000 -1.28172
v 8.33172 0.08000 -0.74000
v 8.33172 0.78000 -0.74000
v 7.05000 0.08000 0.00000
v 7.05000 0.78000 0.00000
v 8.39000 7.28000 0.00000
v 8.39000 8.12000 0.00000
v 8.21047 7.28000 0.67000
v 8.21047 8.12000 0.67000
v 7.72000 7.28000 1.16047
v 7.72000 8.12000 1.16047
v 7.05000 7.28000 1.34000
v 7.05000 8.12000 1.34000
v 6.38000 7.28000 1.16047
v 6.38000 8.12000 1.16047
v 5.88953 7.28000 0.67000
v 5.88953 8.12000 0.67000
v 5.71000 7.28000 0.00000
v 5.71000 8.12000 0.00000
v 5.88953 7.28000 -0.67000
v 5.88953 8.12000 -0.67000
v 6.38000 7.28000 -1.16047
v 6.38000 8.12000 -1.16047
v 7.05000 7.28000 -1.34000
v 7.05000 8.12000 -1.34000
v 7.72000 7.28000 -1.16047
v 7.72000 8.12000 -1.16047
v 8.21047 7.28000 -0.67000
v 8.21047 8.12000 -0.67000
v 7.05000 7.28000 0.00000
v 7.05000 8.12000 0.00000
v 8.29500 0.90000 0.00000
v 8.25250 0.97361 0.00000
v 8.16750 0.97361 0.00000
v 8.12500 0.90000 0.00000
v 8.16750 0.82639 0.00000
v 8.25250 0.82639 0.00000
v 8.20023 0.90000 0.47644
v 8.16097 0.97361 0.46018
v 8.08244 0.97361 0.42765
v 8.04317 0.90000 0.41138
v 8.08244 0.82639 0.42765
v 8.16097 0.82639 0.46018
v 7.93035 0.90000 0.88035
v 7.90030 0.97361 0.85030
v 7.84019 0.97361 0.79019
v 7.81014 0.90000 0.76014
v 7.84019 0.82639 0.79019
v 7.90030 0.82639 0.85030
v 7.52644 0.90000 1.15023
v 7.51018 0.97361 1.11097
v 7.47765 0.97361 1.03244
v 7.46138 0.90000 0.99317
v 7.47765 0.82639 1.03244
v 7.51018 0.82639 1.11097
v 7.05000 0.90000 1.24500
v 7.05000 0.97361 1.20250
v 7.05000 0.97361 1.11750
v 7.05000 0.90000 1.07500
v 7.05000 0.82639 1.11750
v 7.05000 0.82639 1.20250
v 6.57356 0.90000 1.15023
v 6.58982 0.97361 1.11097
v 6.62235 0.97361 1.03244
v 6.63862 0.90000 0.99317
v 6.62235 0.82639 1.03244
v 6.58982 0.82639 1.11097
v 6.16965 0.90000 0.88035
v 6.19970 0.97361 0.85030
v 6.25981 0.97361 0.79019
v 6.28986 0.90000 0.76014
v 6.25981 0.82639 0.79019
v 6.19970 0.82639 0.85030
v 5.89977 0.90000 0.47644
v 5.93903 0.97361 0.46018
v 6.01756 0.97361 0.42765
v 6.05683 0.90000 0.41138
v 6.01756 0.82639 0.42765
v 5.93903 0.82639 0.46018
v 5.80500 0.90000 0.00000
v 5.84750 0.97361 0.00000
v 5.93250 0.97361 0.00000
v 5.97500 0.90000 0.00000
v 5.93250 0.82639 0.00000
v 5.84750 0.82639 0.00000
v 5.89977 0.90000 -0.47644
v 5.93903 0.97361 -0.46018
v 6.01756 0.97361 -0.42765
v 6.05683 0.90000 -0.41138
v 6.01756 0.82639 -0.42765
v 5.93903 0.82639 -0.46018
v 6.16965 0.90000 -0.88035
v 6.19970 0.97361 -0.85030
v 6.25981 0.97361 -0.79019
v 6.28986 0.90000 -0.76014
v 6.25981 0.82639 -0.79019
v 6.19970 0.82639 -0.85030
v 6.57356 0.90000 -1.15023
v 6.58982 0.97361 -1.11097
v 6.62235 0.97361 -1.03244
v 6.63862 0.90000 -0.99317
v 6.62235 0.82639 -1.03244
v 6.58982 0.82639 -1.11097
v 7.05000 0.90000 -1.24500
v 7.05000 0.97361 -1.20250
v 7.05000 0.97361 -1.11750
v 7.05000 0.90000 -1.07500
v 7.05000 0.82639 -1.11750
v 7.05000 0.82639 -1.20250
v 7.52644 0.90000 -1.15023
v 7.51018 0.97361 -1.11097
v 7.47765 0.97361 -1.03244
v 7.46138 0.90000 -0.99317
v 7.47765 0.82639 -1.03244
v 7.51018 0.82639 -1.11097
v 7.93035 0.90000 -0.88035
v 7.90030 0.97361 -0.85030
v 7.84019 0.97361 -0.79019
v 7.81014 0.90000 -0.76014
v 7.84019 0.82639 -0.79019
v 7.90030 0.82639 -0.85030
v 8.20023 0.90000 -0.47644
v 8.16097 0.97361 -0.46018
v 8.08244 0.97361 -0.42765
v 8.04317 0.90000 -0.41138
v 8.08244 0.82639 -0.42765
v 8.16097 0.82639 -0.46018
v 8.29500 1.25000 0.00000
v 8.25250 1.32361 0.00000
v 8.16750 1.32361 0.00000
v 8.12500 1.25000 0.00000
v 8.16750 1.17639 0.00000
v 8.25250 1.17639 0.00000
v 8.20023 1.25000 0.47644
v 8.16097 1.32361 0.46018
v 8.08244 1.32361 0.42765
v 8.04317 1.25000 0.41138
v 8.08244 1.17639 0.42765
v 8.16097 1.17639 0.46018
v 7.93035 1.25000 0.88035
v 7.90030 1.32361 0.85030
v 7.84019 1.32361 0.79019
v 7.81014 1.25000 0.76014
v 7.84019 1.17639 0.79019
v 7.90030 1.17639 0.85030
v 7.52644 1.25000 1.15023
v 7.51018 1.32361 1.11097
v 7.47765 1.32361 1.03244
v 7.46138 1.25000 0.99317
v 7.47765 1.17639 1.03244
v 7.51018 1.17639 1.11097
v 7.05000 1.25000 1.24500
v 7.05000 1.32361 1.20250
v 7.05000 1.32361 1.11750
v 7.05000 1.25000 1.07500
v 7.05000 1.17639 1.11750
v 7.05000 1.17639 1.20250
v 6.57356 1.25000 1.15023
v 6.58982 1.32361 1.11097
v 6.62235 1.32361 1.03244
v 6.63862 1.25000 0.99317
v 6.62235 1.17639 1.03244
v 6.58982 1.17639 1.11097
v 6.16965 1.25000 0.88035
v 6.19970 1.32361 0.85030
v 6.25981 1.32361 0.79019
v 6.28986 1.25000 0.76014
v 6.25981 1.17639 0.79019
v 6.19970 1.17639 0.85030
v 5.89977 1.25000 0.47644
v 5.93903 1.32361 0.46018
v 6.01756 1.32361 0.42765
v 6.05683 1.25000 0.41138
v 6.01756 1.17639 0.42765
v 5.93903 1.17639 0.46018
v 5.80500 1.25000 0.00000
v 5.84750 1.32361 0.00000
v 5.93250 1.32361 0.00000
v 5.97500 1.25000 0.00000
v 5.93250 1.17639 0.00000
v 5.84750 1.17639 0.00000
v 5.89977 1.25000 -0.47644
v 5.93903 1.32361 -0.46018
v 6.01756 1.32361 -0.42765
v 6.05683 1.25000 -0.41138
v 6.01756 1.17639 -0.42765
v 5.93903 1.17639 -0.46018
v 6.16965 1.25000 -0.88035
v 6.19970 1.32361 -0.85030
v 6.25981 1.32361 -0.79019
v 6.28986 1.25000 -0.76014
v 6.25981 1.17639 -0.79019
v 6.19970 1.17639 -0.85030
v 6.57356 1.25000 -1.15023
v 6.58982 1.32361 -1.11097
v 6.62235 1.32361 -1.03244
v 6.63862 1.25000 -0.99317
v 6.62235 1.17639 -1.03244
v 6.58982 1.17639 -1.11097
v 7.05000 1.25000 -1.24500
v 7.05000 1.32361 -1.20250
v 7.05000 1.32361 -1.11750
v 7.05000 1.25000 -1.07500
v 7.05000 1.17639 -1.11750
v 7.05000 1.17639 -1.20250
v 7.52644 1.25000 -1.15023
v 7.51018 1.32361 -1.11097
v 7.47765 1.32361 -1.03244
v 7.46138 1.25000 -0.99317
v 7.47765 1.17639 -1.03244
v 7.51018 1.17639 -1.11097
v 7.93035 1.25000 -0.88035
v 7.90030 1.32361 -0.85030
v 7.84019 1.32361 -0.79019
v 7.81014 1.25000 -0.76014
v 7.84019 1.17639 -0.79019
v 7.90030 1.17639 -0.85030
v 8.20023 1.25000 -0.47644
v 8.16097 1.32361 -0.46018
v 8.08244 1.32361 -0.42765
v 8.04317 1.25000 -0.41138
v 8.08244 1.17639 -0.42765
v 8.16097 1.17639 -0.46018
v 8.45500 7.00000 0.00000
v 8.41250 7.07361 0.00000
v 8.32750 7.07361 0.00000
v 8.28500 7.00000 0.00000
v 8.32750 6.92639 0.00000
v 8.41250 6.92639 0.00000
v 8.34805 7.00000 0.53767
v 8.30879 7.07361 0.52141
v 8.23026 7.07361 0.48888
v 8.19099 7.00000 0.47261
v 8.23026 6.92639 0.48888
v 8.30879 6.92639 0.52141
v 8.04349 7.00000 0.99349
v 8.01343 7.07361 0.96343
v 7.95333 7.07361 0.90333
v 7.92328 7.00000 0.87328
v 7.95333 6.92639 0.90333
v 8.01343 6.92639 0.96343
v 7.58767 7.00000 1.29805
v 7.57141 7.07361 1.25879
v 7.53888 7.07361 1.18026
v 7.52261 7.00000 1.14099
v 7.53888 6.92639 1.18026
v 7.57141 6.92639 1.25879
v 7.05000 7.00000 1.40500
v 7.05000 7.07361 1.36250
v 7.05000 7.07361 1.27750
v 7.05000 7.00000 1.23500
v 7.05000 6.92639 1.27750
v 7.05000 6.92639 1.36250
v 6.51233 7.00000 1.29805
v 6.52859 7.07361 1.25879
v 6.56112 7.07361 1.18026
v 6.57739 7.00000 1.14099
v 6.56112 6.92639 1.18026
v 6.52859 6.92639 1.25879
v 6.05651 7.00000 0.99349
v 6.08657 7.07361 0.96343
v 6.14667 7.07361 0.90333
v 6.17672 7.00000 0.87328
v 6.14667 6.92639 0.90333
v 6.08657 6.92639 0.96343
v 5.75195 7.00000 0.53767
v 5.79121 7.07361 0.52141
v 5.86974 7.07361 0.48888
v 5.90901 7.00000 0.47261
v 5.86974 6.92639 0.48888
v 5.79121 6.92639 0.52141
v 5.64500 7.00000 0.00000
v 5.68750 7.07361 0.00000
v 5.77250 7.07361 0.00000
v 5.81500 7.00000 0.00000
v 5.77250 6.92639 0.00000
v 5.68750 6.92639 0.00000
v 5.75195 7.00000 -0.53767
v 5.79121 7.07361 -0.52141
v 5.86974 7.07361 -0.48888
v 5.90901 7.00000 -0.47261
v 5.86974 6.92639 -0.48888
v 5.79121 6.92639 -0.52141
v 6.05651 7.00000 -0.99349
v 6.08657 7.07361 -0.96343
v 6.14667 7.07361 -0.90333
v 6.17672 7.00000 -0.87328
v 6.14667 6.92639 -0.90333
v 6.08657 6.92639 -0.96343
v 6.51233 7.00000 -1.29805
v 6.52859 7.07361 -1.25879
v 6.56112 7.07361 -1.18026
v 6.57739 7.00000 -1.14099
v 6.56112 6.92639 -1.18026
v 6.52859 6.92639 -1.25879
v 7.05000 7.00000 -1.40500
v 7.05000 7.07361 -1.36250
v 7.05000 7.07361 -1.27750
v 7.05000 7.00000 -1.23500
v 7.05000 6.92639 -1.27750
v 7.05000 6.92639 -1.36250
v 7.58767 7.00000 -1.29805
v 7.57141 7.07361 -1.25879
v 7.53888 7.07361 -1.18026
v 7.52261 7.00000 -1.14099
v 7.53888 6.92639 -1.18026
v 7.57141 6.92639 -1.25879
v 8.04349 7.00000 -0.99349
v 8.01343 7.07361 -0.96343
v 7.95333 7.07361 -0.90333
v 7.92328 7.00000 -0.87328
v 7.95333 6.92639 -0.90333
v 8.01343 6.92639 -0.96343
v 8.34805 7.00000 -0.53767
v 8.30879 7.07361 -0.52141
v 8.23026 7.07361 -0.48888
v 8.19099 7.00000 -0.47261
v 8.23026 6.92639 -0.48888
v 8.30879 6.92639 -0.52141
v 8.45500 7.32000 0.00000
v 8.41250 7.39361 0.00000
v 8.32750 7.39361 0.00000
v 8.28500 7.32000 0.00000
v 8.32750 7.24639 0.00000
v 8.41250 7.24639 0.00000
v 8.34805 7.32000 0.53767
v 8.30879 7.39361 0.52141
v 8.23026 7.39361 0.48888
v 8.19099 7.32000 0.47261
v 8.23026 7.24639 0.48888
v 8.30879 7.24639 0.52141
v 8.04349 7.32000 0.99349
v 8.01343 7.39361 0.96343
v 7.95333 7.39361 0.90333
v 7.92328 7.32000 0.87328
v 7.95333 7.24639 0.90333
v 8.01343 7.24639 0.96343
v 7.58767 7.32000 1.29805
v 7.57141 7.39361 1.25879
v 7.53888 7.39361 1.18026
v 7.52261 7.32000 1.14099
v 7.53888 7.24639 1.18026
v 7.57141 7.24639 1.25879
v 7.05000 7.32000 1.40500
v 7.05000 7.39361 1.36250
v 7.05000 7.39361 1.27750
v 7.05000 7.32000 1.23500
v 7.05000 7.24639 1.27750
v 7.05000 7.24639 1.36250
v 6.51233 7.32000 1.29805
v 6.52859 7.39361 1.25879
v 6.56112 7.39361 1.18026
v 6.57739 7.32000 1.14099
v 6.56112 7.24639 1.18026
v 6.52859 7.24639 1.25879
v 6.05651 7.32000 0.99349
v 6.08657 7.39361 0.96343
v 6.14667 7.39361 0.90333
v 6.17672 7.32000 0.87328
v 6.14667 7.24639 0.90333
v 6.08657 7.24639 0.96343
v 5.75195 7.32000 0.53767
v 5.79121 7.39361 0.52141
v 5.86974 7.39361 0.48888
v 5.90901 7.32000 0.47261
v 5.86974 7.24639 0.48888
v 5.79121 7.24639 0.52141
v 5.64500 7.32000 0.00000
v 5.68750 7.39361 0.00000
v 5.77250 7.39361 0.00000
v 5.81500 7.32000 0.00000
v 5.77250 7.24639 0.00000
v 5.68750 7.24639 0.00000
v 5.75195 7.32000 -0.53767
v 5.79121 7.39361 -0.52141
v 5.86974 7.39361 -0.48888
v 5.90901 7.32000 -0.47261
v 5.86974 7.24639 -0.48888
v 5.79121 7.24639 -0.52141
v 6.05651 7.32000 -0.99349
v 6.08657 7.39361 -0.96343
v 6.14667 7.39361 -0.90333
v 6.17672 7.32000 -0.87328
v 6.14667 7.24639 -0.90333
v 6.08657 7.24639 -0.96343
v 6.51233 7.32000 -1.29805
v 6.52859 7.39361 -1.25879
v 6.56112 7.39361 -1.18026
v 6.57739 7.32000 -1.14099
v 6.56112 7.24639 -1.18026
v 6.52859 7.24639 -1.25879
v 7.05000 7.32000 -1.40500
v 7.05000 7.39361 -1.36250
v 7.05000 7.39361 -1.27750
v 7.05000 7.32000 -1.23500
v 7.05000 7.24639 -1.27750
v 7.05000 7.24639 -1.36250
v 7.58767 7.32000 -1.29805
v 7.57141 7.39361 -1.25879
v 7.53888 7.39361 -1.18026
v 7.52261 7.32000 -1.14099
v 7.53888 7.24639 -1.18026
v 7.57141 7.24639 -1.25879
v 8.04349 7.32000 -0.99349
v 8.01343 7.39361 -0.96343
v 7.95333 7.39361 -0.90333
v 7.92328 7.32000 -0.87328
v 7.95333 7.24639 -0.90333
v 8.01343 7.24639 -0.96343
v 8.34805 7.32000 -0.53767
v 8.30879 7.39361 -0.52141
v 8.23026 7.39361 -0.48888
v 8.19099 7.32000 -0.47261
v 8.23026 7.24639 -0.48888
v 8.30879 7.24639 -0.52141
v 8.45500 8.06000 0.00000
v 8.41250 8.13361 0.00000
v 8.32750 8.13361 0.00000
v 8.28500 8.06000 0.00000
v 8.32750 7.98639 0.00000
v 8.41250 7.98639 0.00000
v 8.34805 8.06000 0.53767
v 8.30879 8.13361 0.52141
v 8.23026 8.13361 0.48888
v 8.19099 8.06000 0.47261
v 8.23026 7.98639 0.48888
v 8.30879 7.98639 0.52141
v 8.04349 8.06000 0.99349
v 8.01343 8.13361 0.96343
v 7.95333 8.13361 0.90333
v 7.92328 8.06000 0.87328
v 7.95333 7.98639 0.90333
v 8.01343 7.98639 0.96343
v 7.58767 8.06000 1.29805
v 7.57141 8.13361 1.25879
v 7.53888 8.13361 1.18026
v 7.52261 8.06000 1.14099
v 7.53888 7.98639 1.18026
v 7.57141 7.98639 1.25879
v 7.05000 8.06000 1.40500
v 7.05000 8.13361 1.36250
v 7.05000 8.13361 1.27750
v 7.05000 8.06000 1.23500
v 7.05000 7.98639 1.27750
v 7.05000 7.98639 1.36250
v 6.51233 8.06000 1.29805
v 6.52859 8.13361 1.25879
v 6.56112 8.13361 1.18026
v 6.57739 8.06000 1.14099
v 6.56112 7.98639 1.18026
v 6.52859 7.98639 1.25879
v 6.05651 8.06000 0.99349
v 6.08657 8.13361 0.96343
v 6.14667 8.13361 0.90333
v 6.17672 8.06000 0.87328
v 6.14667 7.98639 0.90333
v 6.08657 7.98639 0.96343
v 5.75195 8.06000 0.53767
v 5.79121 8.13361 0.52141
v 5.86974 8.13361 0.48888
v 5.90901 8.06000 0.47261
v 5.86974 7.98639 0.48888
v 5.79121 7.98639 0.52141
v 5.64500 8.06000 0.00000
v 5.68750 8.13361 0.00000
v 5.77250 8.13361 0.00000
v 5.81500 8.06000 0.00000
v 5.77250 7.98639 0.00000
v 5.68750 7.98639 0.00000
v 5.75195 8.06000 -0.53767
v 5.79121 8.13361 -0.52141
v 5.86974 8.13361 -0.48888
v 5.90901 8.06000 -0.47261
v 5.86974 7.98639 -0.48888
v 5.79121 7.98639 -0.52141
v 6.05651 8.06000 -0.99349
v 6.08657 8.13361 -0.96343
v 6.14667 8.13361 -0.90333
v 6.17672 8.06000 -0.87328
v 6.14667 7.98639 -0.90333
v 6.08657 7.98639 -0.96343
v 6.51233 8.06000 -1.29805
v 6.52859 8.13361 -1.25879
v 6.56112 8.13361 -1.18026
v 6.57739 8.06000 -1.14099
v 6.56112 7.98639 -1.18026
v 6.52859 7.98639 -1.25879
v 7.05000 8.06000 -1.40500
v 7.05000 8.13361 -1.36250
v 7.05000 8.13361 -1.27750
v 7.05000 8.06000 -1.23500
v 7.05000 7.98639 -1.27750
v 7.05000 7.98639 -1.36250
v 7.58767 8.06000 -1.29805
v 7.57141 8.13361 -1.25879
v 7.53888 8.13361 -1.18026
v 7.52261 8.06000 -1.14099
v 7.53888 7.98639 -1.18026
v 7.57141 7.98639 -1.25879
v 8.04349 8.06000 -0.99349
v 8.01343 8.13361 -0.96343
v 7.95333 8.13361 -0.90333
v 7.92328 8.06000 -0.87328
v 7.95333 7.98639 -0.90333
v 8.01343 7.98639 -0.96343
v 8.34805 8.06000 -0.53767
v 8.30879 8.13361 -0.52141
v 8.23026 8.13361 -0.48888
v 8.19099 8.06000 -0.47261
v 8.23026 7.98639 -0.48888
v 8.30879 7.98639 -0.52141
v 8.00000 7.70000 -1.20000
v 6.15000 7.70000 -1.20000
v 8.00000 7.70000 1.20000
v 6.15000 7.70000 1.20000
v 7.96148 8.48414 -1.20000
v 6.12039 8.30281 -1.20000
v 7.96148 8.48414 1.20000
v 6.12039 8.30281 1.20000
v 7.84628 9.26072 -1.20000
v 6.03183 8.89981 -1.20000
v 7.84628 9.26072 1.20000
v 6.03183 8.89981 1.20000
v 7.65552 10.02228 -1.20000
v 5.88518 9.48525 -1.20000
v 7.65552 10.02228 1.20000
v 5.88518 9.48525 1.20000
v 7.39104 10.76147 -1.20000
v 5.68186 10.05350 -1.20000
v 7.39104 10.76147 1.20000
v 5.68186 10.05350 1.20000
v 7.05537 11.47117 -1.20000
v 5.42382 10.59909 -1.20000
v 7.05537 11.47117 1.20000
v 5.42382 10.59909 1.20000
v 6.65176 12.14456 -1.20000
v 5.11354 11.11676 -1.20000
v 6.65176 12.14456 1.20000
v 5.11354 11.11676 1.20000
v 6.18408 12.77515 -1.20000
v 4.75401 11.60152 -1.20000
v 6.18408 12.77515 1.20000
v 4.75401 11.60152 1.20000
v 5.65685 13.35685 -1.20000
v 4.34871 12.04871 -1.20000
v 5.65685 13.35685 1.20000
v 4.34871 12.04871 1.20000
v 5.07515 13.88408 -1.20000
v 3.90152 12.45401 -1.20000
v 5.07515 13.88408 1.20000
v 3.90152 12.45401 1.20000
v 4.44456 14.35176 -1.20000
v 3.41676 12.81354 -1.20000
v 4.44456 14.35176 1.20000
v 3.41676 12.81354 1.20000
v 3.77117 14.75537 -1.20000
v 2.89909 13.12382 -1.20000
v 3.77117 14.75537 1.20000
v 2.89909 13.12382 1.20000
v 3.06147 15.09104 -1.20000
v 2.35350 13.38186 -1.20000
v 3.06147 15.09104 1.20000
v 2.35350 13.38186 1.20000
v 2.32228 15.35552 -1.20000
v 1.78525 13.58518 -1.20000
v 2.32228 15.35552 1.20000
v 1.78525 13.58518 1.20000
v 1.56072 15.54628 -1.20000
v 1.19981 13.73183 -1.20000
v 1.56072 15.54628 1.20000
v 1.19981 13.73183 1.20000
v 0.78414 15.66148 -1.20000
v 0.60281 13.82039 -1.20000
v 0.78414 15.66148 1.20000
v 0.60281 13.82039 1.20000
v 0.00000 15.70000 -1.20000
v 0.00000 13.85000 -1.20000
v 0.00000 15.70000 1.20000
v 0.00000 13.85000 1.20000
v -0.78414 15.66148 -1.20000
v -0.60281 13.82039 -1.20000
v -0.78414 15.66148 1.20000
v -0.60281 13.82039 1.20000
v -1.56072 15.54628 -1.20000
v -1.19981 13.73183 -1.20000
v -1.56072 15.54628 1.20000
v -1.19981 13.73183 1.20000
v -2.32228 15.35552 -1.20000
v -1.78525 13.58518 -1.20000
v -2.32228 15.35552 1.20000
v -1.78525 13.58518 1.20000
v -3.06147 15.09104 -1.20000
v -2.35350 13.38186 -1.20000
v -3.06147 15.09104 1.20000
v -2.35350 13.38186 1.20000
v -3.77117 14.75537 -1.20000
v -2.89909 13.12382 -1.20000
v -3.77117 14.75537 1.20000
v -2.89909 13.12382 1.20000
v -4.44456 14.35176 -1.20000
v -3.41676 12.81354 -1.20000
v -4.44456 14.35176 1.20000
v -3.41676 12.81354 1.20000
v -5.07515 13.88408 -1.20000
v -3.90152 12.45401 -1.20000
v -5.07515 13.88408 1.20000
v -3.90152 12.45401 1.20000
v -5.65685 13.35685 -1.20000
v -4.34871 12.04871 -1.20000
v -5.65685 13.35685 1.20000
v -4.34871 12.04871 1.20000
v -6.18408 12.77515 -1.20000
v -4.75401 11.60152 -1.20000
v -6.18408 12.77515 1.20000
v -4.75401 11.60152 1.20000
v -6.65176 12.14456 -1.20000
v -5.11354 11.11676 -1.20000
v -6.65176 12.14456 1.20000
v -5.11354 11.11676 1.20000
v -7.05537 11.47117 -1.20000
v -5.42382 10.59909 -1.20000
v -7.05537 11.47117 1.20000
v -5.42382 10.59909 1.20000
v -7.39104 10.76147 -1.20000
v -5.68186 10.05350 -1.20000
v -7.39104 10.76147 1.20000
v -5.68186 10.05350 1.20000
v -7.65552 10.02228 -1.20000
v -5.88518 9.48525 -1.20000
v -7.65552 10.02228 1.20000
v -5.88518 9.48525 1.20000
v -7.84628 9.26072 -1.20000
v -6.03183 8.89981 -1.20000
v -7.84628 9.26072 1.20000
v -6.03183 8.89981 1.20000
v -7.96148 8.48414 -1.20000
v -6.12039 8.30281 -1.20000
v -7.96148 8.48414 1.20000
v -6.12039 8.30281 1.20000
v -8.00000 7.70000 -1.20000
v -6.15000 7.70000 -1.20000
v -8.00000 7.70000 1.20000
v -6.15000 7.70000 1.20000
v 0.00000 17.07000 -0.12000
v -0.20725 16.53526 -0.12000
v -0.77987 16.50339 -0.12000
v -0.33534 16.14104 -0.12000
v -0.48198 15.58661 -0.12000
v -0.00000 15.89740 -0.12000
v 0.48198 15.58661 -0.12000
v 0.33534 16.14104 -0.12000
v 0.77987 16.50339 -0.12000
v 0.20725 16.53526 -0.12000
v 0.00000 17.07000 0.12000
v -0.20725 16.53526 0.12000
v -0.77987 16.50339 0.12000
v -0.33534 16.14104 0.12000
v -0.48198 15.58661 0.12000
v -0.00000 15.89740 0.12000
v 0.48198 15.58661 0.12000
v 0.33534 16.14104 0.12000
v 0.77987 16.50339 0.12000
v 0.20725 16.53526 0.12000
v 0.00000 16.25000 -0.12000
v 0.00000 16.25000 0.12000
v -8.05858 9.20201 -0.10000
v -8.10000 9.20201 0.00000
v -8.20000 9.20201 0.04142
v -8.30000 9.20201 0.00000
v -8.34142 9.20201 -0.10000
v -8.30000 9.20201 -0.20000
v -8.20000 9.20201 -0.24142
v -8.10000 9.20201 -0.20000
v -8.00000 9.40000 -0.10000
v -8.05858 9.40000 0.04142
v -8.20000 9.40000 0.10000
v -8.34142 9.40000 0.04142
v -8.40000 9.40000 -0.10000
v -8.34142 9.40000 -0.24142
v -8.20000 9.40000 -0.30000
v -8.05858 9.40000 -0.24142
v -8.05858 9.59799 -0.10000
v -8.10000 9.59799 0.00000
v -8.20000 9.59799 0.04142
v -8.30000 9.59799 0.00000
v -8.34142 9.59799 -0.10000
v -8.30000 9.59799 -0.20000
v -8.20000 9.59799 -0.24142
v -8.10000 9.59799 -0.20000
v -8.20000 9.12000 -0.10000
v -8.20000 9.68000 -0.10000
v -8.21858 10.30201 -0.10000
v -8.26000 10.30201 0.00000
v -8.36000 10.30201 0.04142
v -8.46000 10.30201 0.00000
v -8.50142 10.30201 -0.10000
v -8.46000 10.30201 -0.20000
v -8.36000 10.30201 -0.24142
v -8.26000 10.30201 -0.20000
v -8.16000 10.50000 -0.10000
v -8.21858 10.50000 0.04142
v -8.36000 10.50000 0.10000
v -8.50142 10.50000 0.04142
v -8.56000 10.50000 -0.10000
v -8.50142 10.50000 -0.24142
v -8.36000 10.50000 -0.30000
v -8.21858 10.50000 -0.24142
v -8.21858 10.69799 -0.10000
v -8.26000 10.69799 0.00000
v -8.36000 10.69799 0.04142
v -8.46000 10.69799 0.00000
v -8.50142 10.69799 -0.10000
v -8.46000 10.69799 -0.20000
v -8.36000 10.69799 -0.24142
v -8.26000 10.69799 -0.20000
v -8.36000 10.22000 -0.10000
v -8.36000 10.78000 -0.10000
v -8.37858 11.40201 -0.10000
v -8.42000 11.40201 0.00000
v -8.52000 11.40201 0.04142
v -8.62000 11.40201 0.00000
v -8.66142 11.40201 -0.10000
v -8.62000 11.40201 -0.20000
v -8.52000 11.40201 -0.24142
v -8.42000 11.40201 -0.20000
v -8.32000 11.60000 -0.10000
v -8.37858 11.60000 0.04142
v -8.52000 11.60000 0.10000
v -8.66142 11.60000 0.04142
v -8.72000 11.60000 -0.10000
v -8.66142 11.60000 -0.24142
v -8.52000 11.60000 -0.30000
v -8.37858 11.60000 -0.24142
v -8.37858 11.79799 -0.10000
v -8.42000 11.79799 0.00000
v -8.52000 11.79799 0.04142
v -8.62000 11.79799 0.00000
v -8.66142 11.79799 -0.10000
v -8.62000 11.79799 -0.20000
v -8.52000 11.79799 -0.24142
v -8.42000 11.79799 -0.20000
v -8.52000 11.32000 -0.10000
v -8.52000 11.88000 -0.10000
v 8.34142 9.20201 -0.10000
v 8.30000 9.20201 0.00000
v 8.20000 9.20201 0.04142
v 8.10000 9.20201 0.00000
v 8.05858 9.20201 -0.10000
v 8.10000 9.20201 -0.20000
v 8.20000 9.20201 -0.24142
v 8.30000 9.20201 -0.20000
v 8.40000 9.40000 -0.10000
v 8.34142 9.40000 0.04142
v 8.20000 9.40000 0.10000
v 8.05858 9.40000 0.04142
v 8.00000 9.40000 -0.10000
v 8.05858 9.40000 -0.24142
v 8.20000 9.40000 -0.30000
v 8.34142 9.40000 -0.24142
v 8.34142 9.59799 -0.10000
v 8.30000 9.59799 0.00000
v 8.20000 9.59799 0.04142
v 8.10000 9.59799 0.00000
v 8.05858 9.59799 -0.10000
v 8.10000 9.59799 -0.20000
v 8.20000 9.59799 -0.24142
v 8.30000 9.59799 -0.20000
v 8.20000 9.12000 -0.10000
v 8.20000 9.68000 -0.10000
v 8.50142 10.30201 -0.10000
v 8.46000 10.30201 0.00000
v 8.36000 10.30201 0.04142
v 8.26000 10.30201 0.00000
v 8.21858 10.30201 -0.10000
v 8.26000 10.30201 -0.20000
v 8.36000 10.30201 -0.24142
v 8.46000 10.30201 -0.20000
v 8.56000 10.50000 -0.10000
v 8.50142 10.50000 0.04142
v 8.36000 10.50000 0.10000
v 8.21858 10.50000 0.04142
v 8.16000 10.50000 -0.10000
v 8.21858 10.50000 -0.24142
v 8.36000 10.50000 -0.30000
v 8.50142 10.50000 -0.24142
v 8.50142 10.69799 -0.10000
v 8.46000 10.69799 0.00000
v 8.36000 10.69799 0.04142
v 8.26000 10.69799 0.00000
v 8.21858 10.69799 -0.10000
v 8.26000 10.69799 -0.20000
v 8.36000 10.69799 -0.24142
v 8.46000 10.69799 -0.20000
v 8.36000 10.22000 -0.10000
v 8.36000 10.78000 -0.10000
v 8.66142 11.40201 -0.10000
v 8.62000 11.40201 0.00000
v 8.52000 11.40201 0.04142
v 8.42000 11.40201 0.00000
v 8.37858 11.40201 -0.10000
v 8.42000 11.40201 -0.20000
v 8.52000 11.40201 -0.24142
v 8.62000 11.40201 -0.20000
v 8.72000 11.60000 -0.10000
v 8.66142 11.60000 0.04142
v 8.52000 11.60000 0.10000
v 8.37858 11.60000 0.04142
v 8.32000 11.60000 -0.10000
v 8.37858 11.60000 -0.24142
v 8.52000 11.60000 -0.30000
v 8.66142 11.60000 -0.24142
v 8.66142 11.79799 -0.10000
v 8.62000 11.79799 0.00000
v 8.52000 11.79799 0.04142
v 8.42000 11.79799 0.00000
v 8.37858 11.79799 -0.10000
v 8.42000 11.79799 -0.20000
v 8.52000 11.79799 -0.24142
v 8.62000 11.79799 -0.20000
v 8.52000 11.32000 -0.10000
v 8.52000 11.88000 -0.10000
vt 0.05000 0.50000
vt 0.15000 0.50000
vt 0.25000 0.50000
vt 0.35000 0.50000
vt 0.45000 0.50000
vt 0.55000 0.50000
vt 0.65000 0.50000
vt 0.75000 0.50000
vt 0.85000 0.50000
vt 0.95000 0.50000
usemtl cream
f 2/1 4/1 3/1 1/1
f 1/1 3/1 25/1
f 4/1 2/1 26/1
f 4/1 6/1 5/1 3/1
f 3/1 5/1 25/1
f 6/1 4/1 26/1
f 6/1 8/1 7/1 5/1
f 5/1 7/1 25/1
f 8/1 6/1 26/1
f 8/1 10/1 9/1 7/1
f 7/1 9/1 25/1
f 10/1 8/1 26/1
f 10/1 12/1 11/1 9/1
f 9/1 11/1 25/1
f 12/1 10/1 26/1
f 12/1 14/1 13/1 11/1
f 11/1 13/1 25/1
f 14/1 12/1 26/1
f 14/1 16/1 15/1 13/1
f 13/1 15/1 25/1
f 16/1 14/1 26/1
f 16/1 18/1 17/1 15/1
f 15/1 17/1 25/1
f 18/1 16/1 26/1
f 18/1 20/1 19/1 17/1
f 17/1 19/1 25/1
f 20/1 18/1 26/1
f 20/1 22/1 21/1 19/1
f 19/1 21/1 25/1
f 22/1 20/1 26/1
f 22/1 24/1 23/1 21/1
f 21/1 23/1 25/1
f 24/1 22/1 26/1
f 24/1 2/1 1/1 23/1
f 23/1 1/1 25/1
f 2/1 24/1 26/1
f 560/1 562/1 561/1 559/1
f 559/1 561/1 583/1
f 562/1 560/1 584/1
f 562/1 564/1 563/1 561/1
f 561/1 563/1 583/1
f 564/1 562/1 584/1
f 564/1 566/1 565/1 563/1
f 563/1 565/1 583/1
f 566/1 564/1 584/1
f 566/1 568/1 567/1 565/1
f 565/1 567/1 583/1
f 568/1 566/1 584/1
f 568/1 570/1 569/1 567/1
f 567/1 569/1 583/1
f 570/1 568/1 584/1
f 570/1 572/1 571/1 569/1
f 569/1 571/1 583/1
f 572/1 570/1 584/1
f 572/1 574/1 573/1 571/1
f 571/1 573/1 583/1
f 574/1 572/1 584/1
f 574/1 576/1 575/1 573/1
f 573/1 575/1 583/1
f 576/1 574/1 584/1
f 576/1 578/1 577/1 575/1
f 575/1 577/1 583/1
f 578/1 576/1 584/1
f 578/1 580/1 579/1 577/1
f 577/1 579/1 583/1
f 580/1 578/1 584/1
f 580/1 582/1 581/1 579/1
f 579/1 581/1 583/1
f 582/1 580/1 584/1
f 582/1 560/1 559/1 581/1
f 581/1 559/1 583/1
f 560/1 582/1 584/1
f 1122/1 1126/1 1125/1 1121/1
f 1128/1 1124/1 1123/1 1127/1
f 1126/1 1130/1 1129/1 1125/1
f 1132/1 1128/1 1127/1 1131/1
f 1130/1 1134/1 1133/1 1129/1
f 1136/1 1132/1 1131/1 1135/1
f 1138/1 1142/1 1141/1 1137/1
f 1144/1 1140/1 1139/1 1143/1
f 1142/1 1146/1 1145/1 1141/1
f 1148/1 1144/1 1143/1 1147/1
f 1146/1 1150/1 1149/1 1145/1
f 1152/1 1148/1 1147/1 1151/1
f 1154/1 1158/1 1157/1 1153/1
f 1160/1 1156/1 1155/1 1159/1
f 1158/1 1162/1 1161/1 1157/1
f 1164/1 1160/1 1159/1 1163/1
f 1162/1 1166/1 1165/1 1161/1
f 1168/1 1164/1 1163/1 1167/1
f 1170/1 1174/1 1173/1 1169/1
f 1176/1 1172/1 1171/1 1175/1
f 1174/1 1178/1 1177/1 1173/1
f 1180/1 1176/1 1175/1 1179/1
f 1178/1 1182/1 1181/1 1177/1
f 1184/1 1180/1 1179/1 1183/1
f 1186/1 1190/1 1189/1 1185/1
f 1192/1 1188/1 1187/1 1191/1
f 1190/1 1194/1 1193/1 1189/1
f 1196/1 1192/1 1191/1 1195/1
f 1194/1 1198/1 1197/1 1193/1
f 1200/1 1196/1 1195/1 1199/1
f 1202/1 1206/1 1205/1 1201/1
f 1208/1 1204/1 1203/1 1207/1
f 1206/1 1210/1 1209/1 1205/1
f 1212/1 1208/1 1207/1 1211/1
f 1210/1 1214/1 1213/1 1209/1
f 1216/1 1212/1 1211/1 1215/1
f 1218/1 1222/1 1221/1 1217/1
f 1224/1 1220/1 1219/1 1223/1
f 1222/1 1226/1 1225/1 1221/1
f 1228/1 1224/1 1223/1 1227/1
f 1226/1 1230/1 1229/1 1225/1
f 1232/1 1228/1 1227/1 1231/1
f 1234/1 1238/1 1237/1 1233/1
f 1240/1 1236/1 1235/1 1239/1
f 1238/1 1242/1 1241/1 1237/1
f 1244/1 1240/1 1239/1 1243/1
f 1242/1 1246/1 1245/1 1241/1
f 1248/1 1244/1 1243/1 1247/1
usemtl coral
f 28/2 30/2 29/2 27/2
f 27/2 29/2 51/2
f 30/2 28/2 52/2
f 30/2 32/2 31/2 29/2
f 29/2 31/2 51/2
f 32/2 30/2 52/2
f 32/2 34/2 33/2 31/2
f 31/2 33/2 51/2
f 34/2 32/2 52/2
f 34/2 36/2 35/2 33/2
f 33/2 35/2 51/2
f 36/2 34/2 52/2
f 36/2 38/2 37/2 35/2
f 35/2 37/2 51/2
f 38/2 36/2 52/2
f 38/2 40/2 39/2 37/2
f 37/2 39/2 51/2
f 40/2 38/2 52/2
f 40/2 42/2 41/2 39/2
f 39/2 41/2 51/2
f 42/2 40/2 52/2
f 42/2 44/2 43/2 41/2
f 41/2 43/2 51/2
f 44/2 42/2 52/2
f 44/2 46/2 45/2 43/2
f 43/2 45/2 51/2
f 46/2 44/2 52/2
f 46/2 48/2 47/2 45/2
f 45/2 47/2 51/2
f 48/2 46/2 52/2
f 48/2 50/2 49/2 47/2
f 47/2 49/2 51/2
f 50/2 48/2 52/2
f 50/2 28/2 27/2 49/2
f 49/2 27/2 51/2
f 28/2 50/2 52/2
f 1118/2 1122/2 1121/2 1117/2
f 1124/2 1120/2 1119/2 1123/2
f 1134/2 1138/2 1137/2 1133/2
f 1140/2 1136/2 1135/2 1139/2
f 1150/2 1154/2 1153/2 1149/2
f 1156/2 1152/2 1151/2 1155/2
f 1166/2 1170/2 1169/2 1165/2
f 1172/2 1168/2 1167/2 1171/2
f 1182/2 1186/2 1185/2 1181/2
f 1188/2 1184/2 1183/2 1187/2
f 1198/2 1202/2 1201/2 1197/2
f 1204/2 1200/2 1199/2 1203/2
f 1214/2 1218/2 1217/2 1213/2
f 1220/2 1216/2 1215/2 1219/2
f 1230/2 1234/2 1233/2 1229/2
f 1236/2 1232/2 1231/2 1235/2
usemtl gold
f 54/4 56/4 55/4 53/4
f 53/4 55/4 77/4
f 56/4 54/4 78/4
f 56/4 58/4 57/4 55/4
f 55/4 57/4 77/4
f 58/4 56/4 78/4
f 58/4 60/4 59/4 57/4
f 57/4 59/4 77/4
f 60/4 58/4 78/4
f 60/4 62/4 61/4 59/4
f 59/4 61/4 77/4
f 62/4 60/4 78/4
f 62/4 64/4 63/4 61/4
f 61/4 63/4 77/4
f 64/4 62/4 78/4
f 64/4 66/4 65/4 63/4
f 63/4 65/4 77/4
f 66/4 64/4 78/4
f 66/4 68/4 67/4 65/4
f 65/4 67/4 77/4
f 68/4 66/4 78/4
f 68/4 70/4 69/4 67/4
f 67/4 69/4 77/4
f 70/4 68/4 78/4
f 70/4 72/4 71/4 69/4
f 69/4 71/4 77/4
f 72/4 70/4 78/4
f 72/4 74/4 73/4 71/4
f 71/4 73/4 77/4
f 74/4 72/4 78/4
f 74/4 76/4 75/4 73/4
f 73/4 75/4 77/4
f 76/4 74/4 78/4
f 76/4 54/4 53/4 75/4
f 75/4 53/4 77/4
f 54/4 76/4 78/4
f 79/4 80/4 86/4 85/4
f 80/4 81/4 87/4 86/4
f 81/4 82/4 88/4 87/4
f 82/4 83/4 89/4 88/4
f 83/4 84/4 90/4 89/4
f 84/4 79/4 85/4 90/4
f 85/4 86/4 92/4 91/4
f 86/4 87/4 93/4 92/4
f 87/4 88/4 94/4 93/4
f 88/4 89/4 95/4 94/4
f 89/4 90/4 96/4 95/4
f 90/4 85/4 91/4 96/4
f 91/4 92/4 98/4 97/4
f 92/4 93/4 99/4 98/4
f 93/4 94/4 100/4 99/4
f 94/4 95/4 101/4 100/4
f 95/4 96/4 102/4 101/4
f 96/4 91/4 97/4 102/4
f 97/4 98/4 104/4 103/4
f 98/4 99/4 105/4 104/4
f 99/4 100/4 106/4 105/4
f 100/4 101/4 107/4 106/4
f 101/4 102/4 108/4 107/4
f 102/4 97/4 103/4 108/4
f 103/4 104/4 110/4 109/4
f 104/4 105/4 111/4 110/4
f 105/4 106/4 112/4 111/4
f 106/4 107/4 113/4 112/4
f 107/4 108/4 114/4 113/4
f 108/4 103/4 109/4 114/4
f 109/4 110/4 116/4 115/4
f 110/4 111/4 117/4 116/4
f 111/4 112/4 118/4 117/4
f 112/4 113/4 119/4 118/4
f 113/4 114/4 120/4 119/4
f 114/4 109/4 115/4 120/4
f 115/4 116/4 122/4 121/4
f 116/4 117/4 123/4 122/4
f 117/4 118/4 124/4 123/4
f 118/4 119/4 125/4 124/4
f 119/4 120/4 126/4 125/4
f 120/4 115/4 121/4 126/4
f 121/4 122/4 128/4 127/4
f 122/4 123/4 129/4 128/4
f 123/4 124/4 130/4 129/4
f 124/4 125/4 131/4 130/4
f 125/4 126/4 132/4 131/4
f 126/4 121/4 127/4 132/4
f 127/4 128/4 134/4 133/4
f 128/4 129/4 135/4 134/4
f 129/4 130/4 136/4 135/4
f 130/4 131/4 137/4 136/4
f 131/4 132/4 138/4 137/4
f 132/4 127/4 133/4 138/4
f 133/4 134/4 140/4 139/4
f 134/4 135/4 141/4 140/4
f 135/4 136/4 142/4 141/4
f 136/4 137/4 143/4 142/4
f 137/4 138/4 144/4 143/4
f 138/4 133/4 139/4 144/4
f 139/4 140/4 146/4 145/4
f 140/4 141/4 147/4 146/4
f 141/4 142/4 148/4 147/4
f 142/4 143/4 149/4 148/4
f 143/4 144/4 150/4 149/4
f 144/4 139/4 145/4 150/4
f 145/4 146/4 152/4 151/4
f 146/4 147/4 153/4 152/4
f 147/4 148/4 154/4 153/4
f 148/4 149/4 155/4 154/4
f 149/4 150/4 156/4 155/4
f 150/4 145/4 151/4 156/4
f 151/4 152/4 158/4 157/4
f 152/4 153/4 159/4 158/4
f 153/4 154/4 160/4 159/4
f 154/4 155/4 161/4 160/4
f 155/4 156/4 162/4 161/4
f 156/4 151/4 157/4 162/4
f 157/4 158/4 164/4 163/4
f 158/4 159/4 165/4 164/4
f 159/4 160/4 166/4 165/4
f 160/4 161/4 167/4 166/4
f 161/4 162/4 168/4 167/4
f 162/4 157/4 163/4 168/4
f 163/4 164/4 170/4 169/4
f 164/4 165/4 171/4 170/4
f 165/4 166/4 172/4 171/4
f 166/4 167/4 173/4 172/4
f 167/4 168/4 174/4 173/4
f 168/4 163/4 169/4 174/4
f 169/4 170/4 80/4 79/4
f 170/4 171/4 81/4 80/4
f 171/4 172/4 82/4 81/4
f 172/4 173/4 83/4 82/4
f 173/4 174/4 84/4 83/4
f 174/4 169/4 79/4 84/4
f 175/4 176/4 182/4 181/4
f 176/4 177/4 183/4 182/4
f 177/4 178/4 184/4 183/4
f 178/4 179/4 185/4 184/4
f 179/4 180/4 186/4 185/4
f 180/4 175/4 181/4 186/4
f 181/4 182/4 188/4 187/4
f 182/4 183/4 189/4 188/4
f 183/4 184/4 190/4 189/4
f 184/4 185/4 191/4 190/4
f 185/4 186/4 192/4 191/4
f 186/4 181/4 187/4 192/4
f 187/4 188/4 194/4 193/4
f 188/4 189/4 195/4 194/4
f 189/4 190/4 196/4 195/4
f 190/4 191/4 197/4 196/4
f 191/4 192/4 198/4 197/4
f 192/4 187/4 193/4 198/4
f 193/4 194/4 200/4 199/4
f 194/4 195/4 201/4 200/4
f 195/4 196/4 202/4 201/4
f 196/4 197/4 203/4 202/4
f 197/4 198/4 204/4 203/4
f 198/4 193/4 199/4 204/4
f 199/4 200/4 206/4 205/4
f 200/4 201/4 207/4 206/4
f 201/4 202/4 208/4 207/4
f 202/4 203/4 209/4 208/4
f 203/4 204/4 210/4 209/4
f 204/4 199/4 205/4 210/4
f 205/4 206/4 212/4 211/4
f 206/4 207/4 213/4 212/4
f 207/4 208/4 214/4 213/4
f 208/4 209/4 215/4 214/4
f 209/4 210/4 216/4 215/4
f 210/4 205/4 211/4 216/4
f 211/4 212/4 218/4 217/4
f 212/4 213/4 219/4 218/4
f 213/4 214/4 220/4 219/4
f 214/4 215/4 221/4 220/4
f 215/4 216/4 222/4 221/4
f 216/4 211/4 217/4 222/4
f 217/4 218/4 224/4 223/4
f 218/4 219/4 225/4 224/4
f 219/4 220/4 226/4 225/4
f 220/4 221/4 227/4 226/4
f 221/4 222/4 228/4 227/4
f 222/4 217/4 223/4 228/4
f 223/4 224/4 230/4 229/4
f 224/4 225/4 231/4 230/4
f 225/4 226/4 232/4 231/4
f 226/4 227/4 233/4 232/4
f 227/4 228/4 234/4 233/4
f 228/4 223/4 229/4 234/4
f 229/4 230/4 236/4 235/4
f 230/4 231/4 237/4 236/4
f 231/4 232/4 238/4 237/4
f 232/4 233/4 239/4 238/4
f 233/4 234/4 240/4 239/4
f 234/4 229/4 235/4 240/4
f 235/4 236/4 242/4 241/4
f 236/4 237/4 243/4 242/4
f 237/4 238/4 244/4 243/4
f 238/4 239/4 245/4 244/4
f 239/4 240/4 246/4 245/4
f 240/4 235/4 241/4 246/4
f 241/4 242/4 248/4 247/4
f 242/4 243/4 249/4 248/4
f 243/4 244/4 250/4 249/4
f 244/4 245/4 251/4 250/4
f 245/4 246/4 252/4 251/4
f 246/4 241/4 247/4 252/4
f 247/4 248/4 254/4 253/4
f 248/4 249/4 255/4 254/4
f 249/4 250/4 256/4 255/4
f 250/4 251/4 257/4 256/4
f 251/4 252/4 258/4 257/4
f 252/4 247/4 253/4 258/4
f 253/4 254/4 260/4 259/4
f 254/4 255/4 261/4 260/4
f 255/4 256/4 262/4 261/4
f 256/4 257/4 263/4 262/4
f 257/4 258/4 264/4 263/4
f 258/4 253/4 259/4 264/4
f 259/4 260/4 266/4 265/4
f 260/4 261/4 267/4 266/4
f 261/4 262/4 268/4 267/4
f 262/4 263/4 269/4 268/4
f 263/4 264/4 270/4 269/4
f 264/4 259/4 265/4 270/4
f 265/4 266/4 176/4 175/4
f 266/4 267/4 177/4 176/4
f 267/4 268/4 178/4 177/4
f 268/4 269/4 179/4 178/4
f 269/4 270/4 180/4 179/4
f 270/4 265/4 175/4 180/4
f 271/4 272/4 278/4 277/4
f 272/4 273/4 279/4 278/4
f 273/4 274/4 280/4 279/4
f 274/4 275/4 281/4 280/4
f 275/4 276/4 282/4 281/4
f 276/4 271/4 277/4 282/4
f 277/4 278/4 284/4 283/4
f 278/4 279/4 285/4 284/4
f 279/4 280/4 286/4 285/4
f 280/4 281/4 287/4 286/4
f 281/4 282/4 288/4 287/4
f 282/4 277/4 283/4 288/4
f 283/4 284/4 290/4 289/4
f 284/4 285/4 291/4 290/4
f 285/4 286/4 292/4 291/4
f 286/4 287/4 293/4 292/4
f 287/4 288/4 294/4 293/4
f 288/4 283/4 289/4 294/4
f 289/4 290/4 296/4 295/4
f 290/4 291/4 297/4 296/4
f 291/4 292/4 298/4 297/4
f 292/4 293/4 299/4 298/4
f 293/4 294/4 300/4 299/4
f 294/4 289/4 295/4 300/4
f 295/4 296/4 302/4 301/4
f 296/4 297/4 303/4 302/4
f 297/4 298/4 304/4 303/4
f 298/4 299/4 305/4 304/4
f 299/4 300/4 306/4 305/4
f 300/4 295/4 301/4 306/4
f 301/4 302/4 308/4 307/4
f 302/4 303/4 309/4 308/4
f 303/4 304/4 310/4 309/4
f 304/4 305/4 311/4 310/4
f 305/4 306/4 312/4 311/4
f 306/4 301/4 307/4 312/4
f 307/4 308/4 314/4 313/4
f 308/4 309/4 315/4 314/4
f 309/4 310/4 316/4 315/4
f 310/4 311/4 317/4 316/4
f 311/4 312/4 318/4 317/4
f 312/4 307/4 313/4 318/4
f 313/4 314/4 320/4 319/4
f 314/4 315/4 321/4 320/4
f 315/4 316/4 322/4 321/4
f 316/4 317/4 323/4 322/4
f 317/4 318/4 324/4 323/4
f 318/4 313/4 319/4 324/4
f 319/4 320/4 326/4 325/4
f 320/4 321/4 327/4 326/4
f 321/4 322/4 328/4 327/4
f 322/4 323/4 329/4 328/4
f 323/4 324/4 330/4 329/4
f 324/4 319/4 325/4 330/4
f 325/4 326/4 332/4 331/4
f 326/4 327/4 333/4 332/4
f 327/4 328/4 334/4 333/4
f 328/4 329/4 335/4 334/4
f 329/4 330/4 336/4 335/4
f 330/4 325/4 331/4 336/4
f 331/4 332/4 338/4 337/4
f 332/4 333/4 339/4 338/4
f 333/4 334/4 340/4 339/4
f 334/4 335/4 341/4 340/4
f 335/4 336/4 342/4 341/4
f 336/4 331/4 337/4 342/4
f 337/4 338/4 344/4 343/4
f 338/4 339/4 345/4 344/4
f 339/4 340/4 346/4 345/4
f 340/4 341/4 347/4 346/4
f 341/4 342/4 348/4 347/4
f 342/4 337/4 343/4 348/4
f 343/4 344/4 350/4 349/4
f 344/4 345/4 351/4 350/4
f 345/4 346/4 352/4 351/4
f 346/4 347/4 353/4 352/4
f 347/4 348/4 354/4 353/4
f 348/4 343/4 349/4 354/4
f 349/4 350/4 356/4 355/4
f 350/4 351/4 357/4 356/4
f 351/4 352/4 358/4 357/4
f 352/4 353/4 359/4 358/4
f 353/4 354/4 360/4 359/4
f 354/4 349/4 355/4 360/4
f 355/4 356/4 362/4 361/4
f 356/4 357/4 363/4 362/4
f 357/4 358/4 364/4 363/4
f 358/4 359/4 365/4 364/4
f 359/4 360/4 366/4 365/4
f 360/4 355/4 361/4 366/4
f 361/4 362/4 272/4 271/4
f 362/4 363/4 273/4 272/4
f 363/4 364/4 274/4 273/4
f 364/4 365/4 275/4 274/4
f 365/4 366/4 276/4 275/4
f 366/4 361/4 271/4 276/4
f 367/4 368/4 374/4 373/4
f 368/4 369/4 375/4 374/4
f 369/4 370/4 376/4 375/4
f 370/4 371/4 377/4 376/4
f 371/4 372/4 378/4 377/4
f 372/4 367/4 373/4 378/4
f 373/4 374/4 380/4 379/4
f 374/4 375/4 381/4 380/4
f 375/4 376/4 382/4 381/4
f 376/4 377/4 383/4 382/4
f 377/4 378/4 384/4 383/4
f 378/4 373/4 379/4 384/4
f 379/4 380/4 386/4 385/4
f 380/4 381/4 387/4 386/4
f 381/4 382/4 388/4 387/4
f 382/4 383/4 389/4 388/4
f 383/4 384/4 390/4 389/4
f 384/4 379/4 385/4 390/4
f 385/4 386/4 392/4 391/4
f 386/4 387/4 393/4 392/4
f 387/4 388/4 394/4 393/4
f 388/4 389/4 395/4 394/4
f 389/4 390/4 396/4 395/4
f 390/4 385/4 391/4 396/4
f 391/4 392/4 398/4 397/4
f 392/4 393/4 399/4 398/4
f 393/4 394/4 400/4 399/4
f 394/4 395/4 401/4 400/4
f 395/4 396/4 402/4 401/4
f 396/4 391/4 397/4 402/4
f 397/4 398/4 404/4 403/4
f 398/4 399/4 405/4 404/4
f 399/4 400/4 406/4 405/4
f 400/4 401/4 407/4 406/4
f 401/4 402/4 408/4 407/4
f 402/4 397/4 403/4 408/4
f 403/4 404/4 410/4 409/4
f 404/4 405/4 411/4 410/4
f 405/4 406/4 412/4 411/4
f 406/4 407/4 413/4 412/4
f 407/4 408/4 414/4 413/4
f 408/4 403/4 409/4 414/4
f 409/4 410/4 416/4 415/4
f 410/4 411/4 417/4 416/4
f 411/4 412/4 418/4 417/4
f 412/4 413/4 419/4 418/4
f 413/4 414/4 420/4 419/4
f 414/4 409/4 415/4 420/4
f 415/4 416/4 422/4 421/4
f 416/4 417/4 423/4 422/4
f 417/4 418/4 424/4 423/4
f 418/4 419/4 425/4 424/4
f 419/4 420/4 426/4 425/4
f 420/4 415/4 421/4 426/4
f 421/4 422/4 428/4 427/4
f 422/4 423/4 429/4 428/4
f 423/4 424/4 430/4 429/4
f 424/4 425/4 431/4 430/4
f 425/4 426/4 432/4 431/4
f 426/4 421/4 427/4 432/4
f 427/4 428/4 434/4 433/4
f 428/4 429/4 435/4 434/4
f 429/4 430/4 436/4 435/4
f 430/4 431/4 437/4 436/4
f 431/4 432/4 438/4 437/4
f 432/4 427/4 433/4 438/4
f 433/4 434/4 440/4 439/4
f 434/4 435/4 441/4 440/4
f 435/4 436/4 442/4 441/4
f 436/4 437/4 443/4 442/4
f 437/4 438/4 444/4 443/4
f 438/4 433/4 439/4 444/4
f 439/4 440/4 446/4 445/4
f 440/4 441/4 447/4 446/4
f 441/4 442/4 448/4 447/4
f 442/4 443/4 449/4 448/4
f 443/4 444/4 450/4 449/4
f 444/4 439/4 445/4 450/4
f 445/4 446/4 452/4 451/4
f 446/4 447/4 453/4 452/4
f 447/4 448/4 454/4 453/4
f 448/4 449/4 455/4 454/4
f 449/4 450/4 456/4 455/4
f 450/4 445/4 451/4 456/4
f 451/4 452/4 458/4 457/4
f 452/4 453/4 459/4 458/4
f 453/4 454/4 460/4 459/4
f 454/4 455/4 461/4 460/4
f 455/4 456/4 462/4 461/4
f 456/4 451/4 457/4 462/4
f 457/4 458/4 368/4 367/4
f 458/4 459/4 369/4 368/4
f 459/4 460/4 370/4 369/4
f 460/4 461/4 371/4 370/4
f 461/4 462/4 372/4 371/4
f 462/4 457/4 367/4 372/4
f 463/4 464/4 470/4 469/4
f 464/4 465/4 471/4 470/4
f 465/4 466/4 472/4 471/4
f 466/4 467/4 473/4 472/4
f 467/4 468/4 474/4 473/4
f 468/4 463/4 469/4 474/4
f 469/4 470/4 476/4 475/4
f 470/4 471/4 477/4 476/4
f 471/4 472/4 478/4 477/4
f 472/4 473/4 479/4 478/4
f 473/4 474/4 480/4 479/4
f 474/4 469/4 475/4 480/4
f 475/4 476/4 482/4 481/4
f 476/4 477/4 483/4 482/4
f 477/4 478/4 484/4 483/4
f 478/4 479/4 485/4 484/4
f 479/4 480/4 486/4 485/4
f 480/4 475/4 481/4 486/4
f 481/4 482/4 488/4 487/4
f 482/4 483/4 489/4 488/4
f 483/4 484/4 490/4 489/4
f 484/4 485/4 491/4 490/4
f 485/4 486/4 492/4 491/4
f 486/4 481/4 487/4 492/4
f 487/4 488/4 494/4 493/4
f 488/4 489/4 495/4 494/4
f 489/4 490/4 496/4 495/4
f 490/4 491/4 497/4 496/4
f 491/4 492/4 498/4 497/4
f 492/4 487/4 493/4 498/4
f 493/4 494/4 500/4 499/4
f 494/4 495/4 501/4 500/4
f 495/4 496/4 502/4 501/4
f 496/4 497/4 503/4 502/4
f 497/4 498/4 504/4 503/4
f 498/4 493/4 499/4 504/4
f 499/4 500/4 506/4 505/4
f 500/4 501/4 507/4 506/4
f 501/4 502/4 508/4 507/4
f 502/4 503/4 509/4 508/4
f 503/4 504/4 510/4 509/4
f 504/4 499/4 505/4 510/4
f 505/4 506/4 512/4 511/4
f 506/4 507/4 513/4 512/4
f 507/4 508/4 514/4 513/4
f 508/4 509/4 515/4 514/4
f 509/4 510/4 516/4 515/4
f 510/4 505/4 511/4 516/4
f 511/4 512/4 518/4 517/4
f 512/4 513/4 519/4 518/4
f 513/4 514/4 520/4 519/4
f 514/4 515/4 521/4 520/4
f 515/4 516/4 522/4 521/4
f 516/4 511/4 517/4 522/4
f 517/4 518/4 524/4 523/4
f 518/4 519/4 525/4 524/4
f 519/4 520/4 526/4 525/4
f 520/4 521/4 527/4 526/4
f 521/4 522/4 528/4 527/4
f 522/4 517/4 523/4 528/4
f 523/4 524/4 530/4 529/4
f 524/4 525/4 531/4 530/4
f 525/4 526/4 532/4 531/4
f 526/4 527/4 533/4 532/4
f 527/4 528/4 534/4 533/4
f 528/4 523/4 529/4 534/4
f 529/4 530/4 536/4 535/4
f 530/4 531/4 537/4 536/4
f 531/4 532/4 538/4 537/4
f 532/4 533/4 539/4 538/4
f 533/4 534/4 540/4 539/4
f 534/4 529/4 535/4 540/4
f 535/4 536/4 542/4 541/4
f 536/4 537/4 543/4 542/4
f 537/4 538/4 544/4 543/4
f 538/4 539/4 545/4 544/4
f 539/4 540/4 546/4 545/4
f 540/4 535/4 541/4 546/4
f 541/4 542/4 548/4 547/4
f 542/4 543/4 549/4 548/4
f 543/4 544/4 550/4 549/4
f 544/4 545/4 551/4 550/4
f 545/4 546/4 552/4 551/4
f 546/4 541/4 547/4 552/4
f 547/4 548/4 554/4 553/4
f 548/4 549/4 555/4 554/4
f 549/4 550/4 556/4 555/4
f 550/4 551/4 557/4 556/4
f 551/4 552/4 558/4 557/4
f 552/4 547/4 553/4 558/4
f 553/4 554/4 464/4 463/4
f 554/4 555/4 465/4 464/4
f 555/4 556/4 466/4 465/4
f 556/4 557/4 467/4 466/4
f 557/4 558/4 468/4 467/4
f 558/4 553/4 463/4 468/4
f 612/4 614/4 613/4 611/4
f 611/4 613/4 635/4
f 614/4 612/4 636/4
f 614/4 616/4 615/4 613/4
f 613/4 615/4 635/4
f 616/4 614/4 636/4
f 616/4 618/4 617/4 615/4
f 615/4 617/4 635/4
f 618/4 616/4 636/4
f 618/4 620/4 619/4 617/4
f 617/4 619/4 635/4
f 620/4 618/4 636/4
f 620/4 622/4 621/4 619/4
f 619/4 621/4 635/4
f 622/4 620/4 636/4
f 622/4 624/4 623/4 621/4
f 621/4 623/4 635/4
f 624/4 622/4 636/4
f 624/4 626/4 625/4 623/4
f 623/4 625/4 635/4
f 626/4 624/4 636/4
f 626/4 628/4 627/4 625/4
f 625/4 627/4 635/4
f 628/4 626/4 636/4
f 628/4 630/4 629/4 627/4
f 627/4 629/4 635/4
f 630/4 628/4 636/4
f 630/4 632/4 631/4 629/4
f 629/4 631/4 635/4
f 632/4 630/4 636/4
f 632/4 634/4 633/4 631/4
f 631/4 633/4 635/4
f 634/4 632/4 636/4
f 634/4 612/4 611/4 633/4
f 633/4 611/4 635/4
f 612/4 634/4 636/4
f 637/4 638/4 644/4 643/4
f 638/4 639/4 645/4 644/4
f 639/4 640/4 646/4 645/4
f 640/4 641/4 647/4 646/4
f 641/4 642/4 648/4 647/4
f 642/4 637/4 643/4 648/4
f 643/4 644/4 650/4 649/4
f 644/4 645/4 651/4 650/4
f 645/4 646/4 652/4 651/4
f 646/4 647/4 653/4 652/4
f 647/4 648/4 654/4 653/4
f 648/4 643/4 649/4 654/4
f 649/4 650/4 656/4 655/4
f 650/4 651/4 657/4 656/4
f 651/4 652/4 658/4 657/4
f 652/4 653/4 659/4 658/4
f 653/4 654/4 660/4 659/4
f 654/4 649/4 655/4 660/4
f 655/4 656/4 662/4 661/4
f 656/4 657/4 663/4 662/4
f 657/4 658/4 664/4 663/4
f 658/4 659/4 665/4 664/4
f 659/4 660/4 666/4 665/4
f 660/4 655/4 661/4 666/4
f 661/4 662/4 668/4 667/4
f 662/4 663/4 669/4 668/4
f 663/4 664/4 670/4 669/4
f 664/4 665/4 671/4 670/4
f 665/4 666/4 672/4 671/4
f 666/4 661/4 667/4 672/4
f 667/4 668/4 674/4 673/4
f 668/4 669/4 675/4 674/4
f 669/4 670/4 676/4 675/4
f 670/4 671/4 677/4 676/4
f 671/4 672/4 678/4 677/4
f 672/4 667/4 673/4 678/4
f 673/4 674/4 680/4 679/4
f 674/4 675/4 681/4 680/4
f 675/4 676/4 682/4 681/4
f 676/4 677/4 683/4 682/4
f 677/4 678/4 684/4 683/4
f 678/4 673/4 679/4 684/4
f 679/4 680/4 686/4 685/4
f 680/4 681/4 687/4 686/4
f 681/4 682/4 688/4 687/4
f 682/4 683/4 689/4 688/4
f 683/4 684/4 690/4 689/4
f 684/4 679/4 685/4 690/4
f 685/4 686/4 692/4 691/4
f 686/4 687/4 693/4 692/4
f 687/4 688/4 694/4 693/4
f 688/4 689/4 695/4 694/4
f 689/4 690/4 696/4 695/4
f 690/4 685/4 691/4 696/4
f 691/4 692/4 698/4 697/4
f 692/4 693/4 699/4 698/4
f 693/4 694/4 700/4 699/4
f 694/4 695/4 701/4 700/4
f 695/4 696/4 702/4 701/4
f 696/4 691/4 697/4 702/4
f 697/4 698/4 704/4 703/4
f 698/4 699/4 705/4 704/4
f 699/4 700/4 706/4 705/4
f 700/4 701/4 707/4 706/4
f 701/4 702/4 708/4 707/4
f 702/4 697/4 703/4 708/4
f 703/4 704/4 710/4 709/4
f 704/4 705/4 711/4 710/4
f 705/4 706/4 712/4 711/4
f 706/4 707/4 713/4 712/4
f 707/4 708/4 714/4 713/4
f 708/4 703/4 709/4 714/4
f 709/4 710/4 716/4 715/4
f 710/4 711/4 717/4 716/4
f 711/4 712/4 718/4 717/4
f 712/4 713/4 719/4 718/4
f 713/4 714/4 720/4 719/4
f 714/4 709/4 715/4 720/4
f 715/4 716/4 722/4 721/4
f 716/4 717/4 723/4 722/4
f 717/4 718/4 724/4 723/4
f 718/4 719/4 725/4 724/4
f 719/4 720/4 726/4 725/4
f 720/4 715/4 721/4 726/4
f 721/4 722/4 728/4 727/4
f 722/4 723/4 729/4 728/4
f 723/4 724/4 730/4 729/4
f 724/4 725/4 731/4 730/4
f 725/4 726/4 732/4 731/4
f 726/4 721/4 727/4 732/4
f 727/4 728/4 638/4 637/4
f 728/4 729/4 639/4 638/4
f 729/4 730/4 640/4 639/4
f 730/4 731/4 641/4 640/4
f 731/4 732/4 642/4 641/4
f 732/4 727/4 637/4 642/4
f 733/4 734/4 740/4 739/4
f 734/4 735/4 741/4 740/4
f 735/4 736/4 742/4 741/4
f 736/4 737/4 743/4 742/4
f 737/4 738/4 744/4 743/4
f 738/4 733/4 739/4 744/4
f 739/4 740/4 746/4 745/4
f 740/4 741/4 747/4 746/4
f 741/4 742/4 748/4 747/4
f 742/4 743/4 749/4 748/4
f 743/4 744/4 750/4 749/4
f 744/4 739/4 745/4 750/4
f 745/4 746/4 752/4 751/4
f 746/4 747/4 753/4 752/4
f 747/4 748/4 754/4 753/4
f 748/4 749/4 755/4 754/4
f 749/4 750/4 756/4 755/4
f 750/4 745/4 751/4 756/4
f 751/4 752/4 758/4 757/4
f 752/4 753/4 759/4 758/4
f 753/4 754/4 760/4 759/4
f 754/4 755/4 761/4 760/4
f 755/4 756/4 762/4 761/4
f 756/4 751/4 757/4 762/4
f 757/4 758/4 764/4 763/4
f 758/4 759/4 765/4 764/4
f 759/4 760/4 766/4 765/4
f 760/4 761/4 767/4 766/4
f 761/4 762/4 768/4 767/4
f 762/4 757/4 763/4 768/4
f 763/4 764/4 770/4 769/4
f 764/4 765/4 771/4 770/4
f 765/4 766/4 772/4 771/4
f 766/4 767/4 773/4 772/4
f 767/4 768/4 774/4 773/4
f 768/4 763/4 769/4 774/4
f 769/4 770/4 776/4 775/4
f 770/4 771/4 777/4 776/4
f 771/4 772/4 778/4 777/4
f 772/4 773/4 779/4 778/4
f 773/4 774/4 780/4 779/4
f 774/4 769/4 775/4 780/4
f 775/4 776/4 782/4 781/4
f 776/4 777/4 783/4 782/4
f 777/4 778/4 784/4 783/4
f 778/4 779/4 785/4 784/4
f 779/4 780/4 786/4 785/4
f 780/4 775/4 781/4 786/4
f 781/4 782/4 788/4 787/4
f 782/4 783/4 789/4 788/4
f 783/4 784/4 790/4 789/4
f 784/4 785/4 791/4 790/4
f 785/4 786/4 792/4 791/4
f 786/4 781/4 787/4 792/4
f 787/4 788/4 794/4 793/4
f 788/4 789/4 795/4 794/4
f 789/4 790/4 796/4 795/4
f 790/4 791/4 797/4 796/4
f 791/4 792/4 798/4 797/4
f 792/4 787/4 793/4 798/4
f 793/4 794/4 800/4 799/4
f 794/4 795/4 801/4 800/4
f 795/4 796/4 802/4 801/4
f 796/4 797/4 803/4 802/4
f 797/4 798/4 804/4 803/4
f 798/4 793/4 799/4 804/4
f 799/4 800/4 806/4 805/4
f 800/4 801/4 807/4 806/4
f 801/4 802/4 808/4 807/4
f 802/4 803/4 809/4 808/4
f 803/4 804/4 810/4 809/4
f 804/4 799/4 805/4 810/4
f 805/4 806/4 812/4 811/4
f 806/4 807/4 813/4 812/4
f 807/4 808/4 814/4 813/4
f 808/4 809/4 815/4 814/4
f 809/4 810/4 816/4 815/4
f 810/4 805/4 811/4 816/4
f 811/4 812/4 818/4 817/4
f 812/4 813/4 819/4 818/4
f 813/4 814/4 820/4 819/4
f 814/4 815/4 821/4 820/4
f 815/4 816/4 822/4 821/4
f 816/4 811/4 817/4 822/4
f 817/4 818/4 824/4 823/4
f 818/4 819/4 825/4 824/4
f 819/4 820/4 826/4 825/4
f 820/4 821/4 827/4 826/4
f 821/4 822/4 828/4 827/4
f 822/4 817/4 823/4 828/4
f 823/4 824/4 734/4 733/4
f 824/4 825/4 735/4 734/4
f 825/4 826/4 736/4 735/4
f 826/4 827/4 737/4 736/4
f 827/4 828/4 738/4 737/4
f 828/4 823/4 733/4 738/4
f 829/4 830/4 836/4 835/4
f 830/4 831/4 837/4 836/4
f 831/4 832/4 838/4 837/4
f 832/4 833/4 839/4 838/4
f 833/4 834/4 840/4 839/4
f 834/4 829/4 835/4 840/4
f 835/4 836/4 842/4 841/4
f 836/4 837/4 843/4 842/4
f 837/4 838/4 844/4 843/4
f 838/4 839/4 845/4 844/4
f 839/4 840/4 846/4 845/4
f 840/4 835/4 841/4 846/4
f 841/4 842/4 848/4 847/4
f 842/4 843/4 849/4 848/4
f 843/4 844/4 850/4 849/4
f 844/4 845/4 851/4 850/4
f 845/4 846/4 852/4 851/4
f 846/4 841/4 847/4 852/4
f 847/4 848/4 854/4 853/4
f 848/4 849/4 855/4 854/4
f 849/4 850/4 856/4 855/4
f 850/4 851/4 857/4 856/4
f 851/4 852/4 858/4 857/4
f 852/4 847/4 853/4 858/4
f 853/4 854/4 860/4 859/4
f 854/4 855/4 861/4 860/4
f 855/4 856/4 862/4 861/4
f 856/4 857/4 863/4 862/4
f 857/4 858/4 864/4 863/4
f 858/4 853/4 859/4 864/4
f 859/4 860/4 866/4 865/4
f 860/4 861/4 867/4 866/4
f 861/4 862/4 868/4 867/4
f 862/4 863/4 869/4 868/4
f 863/4 864/4 870/4 869/4
f 864/4 859/4 865/4 870/4
f 865/4 866/4 872/4 871/4
f 866/4 867/4 873/4 872/4
f 867/4 868/4 874/4 873/4
f 868/4 869/4 875/4 874/4
f 869/4 870/4 876/4 875/4
f 870/4 865/4 871/4 876/4
f 871/4 872/4 878/4 877/4
f 872/4 873/4 879/4 878/4
f 873/4 874/4 880/4 879/4
f 874/4 875/4 881/4 880/4
f 875/4 876/4 882/4 881/4
f 876/4 871/4 877/4 882/4
f 877/4 878/4 884/4 883/4
f 878/4 879/4 885/4 884/4
f 879/4 880/4 886/4 885/4
f 880/4 881/4 887/4 886/4
f 881/4 882/4 888/4 887/4
f 882/4 877/4 883/4 888/4
f 883/4 884/4 890/4 889/4
f 884/4 885/4 891/4 890/4
f 885/4 886/4 892/4 891/4
f 886/4 887/4 893/4 892/4
f 887/4 888/4 894/4 893/4
f 888/4 883/4 889/4 894/4
f 889/4 890/4 896/4 895/4
f 890/4 891/4 897/4 896/4
f 891/4 892/4 898/4 897/4
f 892/4 893/4 899/4 898/4
f 893/4 894/4 900/4 899/4
f 894/4 889/4 895/4 900/4
f 895/4 896/4 902/4 901/4
f 896/4 897/4 903/4 902/4
f 897/4 898/4 904/4 903/4
f 898/4 899/4 905/4 904/4
f 899/4 900/4 906/4 905/4
f 900/4 895/4 901/4 906/4
f 901/4 902/4 908/4 907/4
f 902/4 903/4 909/4 908/4
f 903/4 904/4 910/4 909/4
f 904/4 905/4 911/4 910/4
f 905/4 906/4 912/4 911/4
f 906/4 901/4 907/4 912/4
f 907/4 908/4 914/4 913/4
f 908/4 909/4 915/4 914/4
f 909/4 910/4 916/4 915/4
f 910/4 911/4 917/4 916/4
f 911/4 912/4 918/4 917/4
f 912/4 907/4 913/4 918/4
f 913/4 914/4 920/4 919/4
f 914/4 915/4 921/4 920/4
f 915/4 916/4 922/4 921/4
f 916/4 917/4 923/4 922/4
f 917/4 918/4 924/4 923/4
f 918/4 913/4 919/4 924/4
f 919/4 920/4 830/4 829/4
f 920/4 921/4 831/4 830/4
f 921/4 922/4 832/4 831/4
f 922/4 923/4 833/4 832/4
f 923/4 924/4 834/4 833/4
f 924/4 919/4 829/4 834/4
f 925/4 926/4 932/4 931/4
f 926/4 927/4 933/4 932/4
f 927/4 928/4 934/4 933/4
f 928/4 929/4 935/4 934/4
f 929/4 930/4 936/4 935/4
f 930/4 925/4 931/4 936/4
f 931/4 932/4 938/4 937/4
f 932/4 933/4 939/4 938/4
f 933/4 934/4 940/4 939/4
f 934/4 935/4 941/4 940/4
f 935/4 936/4 942/4 941/4
f 936/4 931/4 937/4 942/4
f 937/4 938/4 944/4 943/4
f 938/4 939/4 945/4 944/4
f 939/4 940/4 946/4 945/4
f 940/4 941/4 947/4 946/4
f 941/4 942/4 948/4 947/4
f 942/4 937/4 943/4 948/4
f 943/4 944/4 950/4 949/4
f 944/4 945/4 951/4 950/4
f 945/4 946/4 952/4 951/4
f 946/4 947/4 953/4 952/4
f 947/4 948/4 954/4 953/4
f 948/4 943/4 949/4 954/4
f 949/4 950/4 956/4 955/4
f 950/4 951/4 957/4 956/4
f 951/4 952/4 958/4 957/4
f 952/4 953/4 959/4 958/4
f 953/4 954/4 960/4 959/4
f 954/4 949/4 955/4 960/4
f 955/4 956/4 962/4 961/4
f 956/4 957/4 963/4 962/4
f 957/4 958/4 964/4 963/4
f 958/4 959/4 965/4 964/4
f 959/4 960/4 966/4 965/4
f 960/4 955/4 961/4 966/4
f 961/4 962/4 968/4 967/4
f 962/4 963/4 969/4 968/4
f 963/4 964/4 970/4 969/4
f 964/4 965/4 971/4 970/4
f 965/4 966/4 972/4 971/4
f 966/4 961/4 967/4 972/4
f 967/4 968/4 974/4 973/4
f 968/4 969/4 975/4 974/4
f 969/4 970/4 976/4 975/4
f 970/4 971/4 977/4 976/4
f 971/4 972/4 978/4 977/4
f 972/4 967/4 973/4 978/4
f 973/4 974/4 980/4 979/4
f 974/4 975/4 981/4 980/4
f 975/4 976/4 982/4 981/4
f 976/4 977/4 983/4 982/4
f 977/4 978/4 984/4 983/4
f 978/4 973/4 979/4 984/4
f 979/4 980/4 986/4 985/4
f 980/4 981/4 987/4 986/4
f 981/4 982/4 988/4 987/4
f 982/4 983/4 989/4 988/4
f 983/4 984/4 990/4 989/4
f 984/4 979/4 985/4 990/4
f 985/4 986/4 992/4 991/4
f 986/4 987/4 993/4 992/4
f 987/4 988/4 994/4 993/4
f 988/4 989/4 995/4 994/4
f 989/4 990/4 996/4 995/4
f 990/4 985/4 991/4 996/4
f 991/4 992/4 998/4 997/4
f 992/4 993/4 999/4 998/4
f 993/4 994/4 1000/4 999/4
f 994/4 995/4 1001/4 1000/4
f 995/4 996/4 1002/4 1001/4
f 996/4 991/4 997/4 1002/4
f 997/4 998/4 1004/4 1003/4
f 998/4 999/4 1005/4 1004/4
f 999/4 1000/4 1006/4 1005/4
f 1000/4 1001/4 1007/4 1006/4
f 1001/4 1002/4 1008/4 1007/4
f 1002/4 997/4 1003/4 1008/4
f 1003/4 1004/4 1010/4 1009/4
f 1004/4 1005/4 1011/4 1010/4
f 1005/4 1006/4 1012/4 1011/4
f 1006/4 1007/4 1013/4 1012/4
f 1007/4 1008/4 1014/4 1013/4
f 1008/4 1003/4 1009/4 1014/4
f 1009/4 1010/4 1016/4 1015/4
f 1010/4 1011/4 1017/4 1016/4
f 1011/4 1012/4 1018/4 1017/4
f 1012/4 1013/4 1019/4 1018/4
f 1013/4 1014/4 1020/4 1019/4
f 1014/4 1009/4 1015/4 1020/4
f 1015/4 1016/4 926/4 925/4
f 1016/4 1017/4 927/4 926/4
f 1017/4 1018/4 928/4 927/4
f 1018/4 1019/4 929/4 928/4
f 1019/4 1020/4 930/4 929/4
f 1020/4 1015/4 925/4 930/4
f 1021/4 1022/4 1028/4 1027/4
f 1022/4 1023/4 1029/4 1028/4
f 1023/4 1024/4 1030/4 1029/4
f 1024/4 1025/4 1031/4 1030/4
f 1025/4 1026/4 1032/4 1031/4
f 1026/4 1021/4 1027/4 1032/4
f 1027/4 1028/4 1034/4 1033/4
f 1028/4 1029/4 1035/4 1034/4
f 1029/4 1030/4 1036/4 1035/4
f 1030/4 1031/4 1037/4 1036/4
f 1031/4 1032/4 1038/4 1037/4
f 1032/4 1027/4 1033/4 1038/4
f 1033/4 1034/4 1040/4 1039/4
f 1034/4 1035/4 1041/4 1040/4
f 1035/4 1036/4 1042/4 1041/4
f 1036/4 1037/4 1043/4 1042/4
f 1037/4 1038/4 1044/4 1043/4
f 1038/4 1033/4 1039/4 1044/4
f 1039/4 1040/4 1046/4 1045/4
f 1040/4 1041/4 1047/4 1046/4
f 1041/4 1042/4 1048/4 1047/4
f 1042/4 1043/4 1049/4 1048/4
f 1043/4 1044/4 1050/4 1049/4
f 1044/4 1039/4 1045/4 1050/4
f 1045/4 1046/4 1052/4 1051/4
f 1046/4 1047/4 1053/4 1052/4
f 1047/4 1048/4 1054/4 1053/4
f 1048/4 1049/4 1055/4 1054/4
f 1049/4 1050/4 1056/4 1055/4
f 1050/4 1045/4 1051/4 1056/4
f 1051/4 1052/4 1058/4 1057/4
f 1052/4 1053/4 1059/4 1058/4
f 1053/4 1054/4 1060/4 1059/4
f 1054/4 1055/4 1061/4 1060/4
f 1055/4 1056/4 1062/4 1061/4
f 1056/4 1051/4 1057/4 1062/4
f 1057/4 1058/4 1064/4 1063/4
f 1058/4 1059/4 1065/4 1064/4
f 1059/4 1060/4 1066/4 1065/4
f 1060/4 1061/4 1067/4 1066/4
f 1061/4 1062/4 1068/4 1067/4
f 1062/4 1057/4 1063/4 1068/4
f 1063/4 1064/4 1070/4 1069/4
f 1064/4 1065/4 1071/4 1070/4
f 1065/4 1066/4 1072/4 1071/4
f 1066/4 1067/4 1073/4 1072/4
f 1067/4 1068/4 1074/4 1073/4
f 1068/4 1063/4 1069/4 1074/4
f 1069/4 1070/4 1076/4 1075/4
f 1070/4 1071/4 1077/4 1076/4
f 1071/4 1072/4 1078/4 1077/4
f 1072/4 1073/4 1079/4 1078/4
f 1073/4 1074/4 1080/4 1079/4
f 1074/4 1069/4 1075/4 1080/4
f 1075/4 1076/4 1082/4 1081/4
f 1076/4 1077/4 1083/4 1082/4
f 1077/4 1078/4 1084/4 1083/4
f 1078/4 1079/4 1085/4 1084/4
f 1079/4 1080/4 1086/4 1085/4
f 1080/4 1075/4 1081/4 1086/4
f 1081/4 1082/4 1088/4 1087/4
f 1082/4 1083/4 1089/4 1088/4
f 1083/4 1084/4 1090/4 1089/4
f 1084/4 1085/4 1091/4 1090/4
f 1085/4 1086/4 1092/4 1091/4
f 1086/4 1081/4 1087/4 1092/4
f 1087/4 1088/4 1094/4 1093/4
f 1088/4 1089/4 1095/4 1094/4
f 1089/4 1090/4 1096/4 1095/4
f 1090/4 1091/4 1097/4 1096/4
f 1091/4 1092/4 1098/4 1097/4
f 1092/4 1087/4 1093/4 1098/4
f 1093/4 1094/4 1100/4 1099/4
f 1094/4 1095/4 1101/4 1100/4
f 1095/4 1096/4 1102/4 1101/4
f 1096/4 1097/4 1103/4 1102/4
f 1097/4 1098/4 1104/4 1103/4
f 1098/4 1093/4 1099/4 1104/4
f 1099/4 1100/4 1106/4 1105/4
f 1100/4 1101/4 1107/4 1106/4
f 1101/4 1102/4 1108/4 1107/4
f 1102/4 1103/4 1109/4 1108/4
f 1103/4 1104/4 1110/4 1109/4
f 1104/4 1099/4 1105/4 1110/4
f 1105/4 1106/4 1112/4 1111/4
f 1106/4 1107/4 1113/4 1112/4
f 1107/4 1108/4 1114/4 1113/4
f 1108/4 1109/4 1115/4 1114/4
f 1109/4 1110/4 1116/4 1115/4
f 1110/4 1105/4 1111/4 1116/4
f 1111/4 1112/4 1022/4 1021/4
f 1112/4 1113/4 1023/4 1022/4
f 1113/4 1114/4 1024/4 1023/4
f 1114/4 1115/4 1025/4 1024/4
f 1115/4 1116/4 1026/4 1025/4
f 1116/4 1111/4 1021/4 1026/4
f 1121/4 1123/4 1119/4 1117/4
f 1118/4 1120/4 1124/4 1122/4
f 1125/4 1127/4 1123/4 1121/4
f 1122/4 1124/4 1128/4 1126/4
f 1129/4 1131/4 1127/4 1125/4
f 1126/4 1128/4 1132/4 1130/4
f 1133/4 1135/4 1131/4 1129/4
f 1130/4 1132/4 1136/4 1134/4
f 1137/4 1139/4 1135/4 1133/4
f 1134/4 1136/4 1140/4 1138/4
f 1141/4 1143/4 1139/4 1137/4
f 1138/4 1140/4 1144/4 1142/4
f 1145/4 1147/4 1143/4 1141/4
f 1142/4 1144/4 1148/4 1146/4
f 1149/4 1151/4 1147/4 1145/4
f 1146/4 1148/4 1152/4 1150/4
f 1153/4 1155/4 1151/4 1149/4
f 1150/4 1152/4 1156/4 1154/4
f 1157/4 1159/4 1155/4 1153/4
f 1154/4 1156/4 1160/4 1158/4
f 1161/4 1163/4 1159/4 1157/4
f 1158/4 1160/4 1164/4 1162/4
f 1165/4 1167/4 1163/4 1161/4
f 1162/4 1164/4 1168/4 1166/4
f 1169/4 1171/4 1167/4 1165/4
f 1166/4 1168/4 1172/4 1170/4
f 1173/4 1175/4 1171/4 1169/4
f 1170/4 1172/4 1176/4 1174/4
f 1177/4 1179/4 1175/4 1173/4
f 1174/4 1176/4 1180/4 1178/4
f 1181/4 1183/4 1179/4 1177/4
f 1178/4 1180/4 1184/4 1182/4
f 1185/4 1187/4 1183/4 1181/4
f 1182/4 1184/4 1188/4 1186/4
f 1189/4 1191/4 1187/4 1185/4
f 1186/4 1188/4 1192/4 1190/4
f 1193/4 1195/4 1191/4 1189/4
f 1190/4 1192/4 1196/4 1194/4
f 1197/4 1199/4 1195/4 1193/4
f 1194/4 1196/4 1200/4 1198/4
f 1201/4 1203/4 1199/4 1197/4
f 1198/4 1200/4 1204/4 1202/4
f 1205/4 1207/4 1203/4 1201/4
f 1202/4 1204/4 1208/4 1206/4
f 1209/4 1211/4 1207/4 1205/4
f 1206/4 1208/4 1212/4 1210/4
f 1213/4 1215/4 1211/4 1209/4
f 1210/4 1212/4 1216/4 1214/4
f 1217/4 1219/4 1215/4 1213/4
f 1214/4 1216/4 1220/4 1218/4
f 1221/4 1223/4 1219/4 1217/4
f 1218/4 1220/4 1224/4 1222/4
f 1225/4 1227/4 1223/4 1221/4
f 1222/4 1224/4 1228/4 1226/4
f 1229/4 1231/4 1227/4 1225/4
f 1226/4 1228/4 1232/4 1230/4
f 1233/4 1235/4 1231/4 1229/4
f 1230/4 1232/4 1236/4 1234/4
f 1237/4 1239/4 1235/4 1233/4
f 1234/4 1236/4 1240/4 1238/4
f 1241/4 1243/4 1239/4 1237/4
f 1238/4 1240/4 1244/4 1242/4
f 1245/4 1247/4 1243/4 1241/4
f 1242/4 1244/4 1248/4 1246/4
f 1250/4 1249/4 1269/4
f 1259/4 1260/4 1270/4
f 1250/4 1260/4 1259/4 1249/4
f 1251/4 1250/4 1269/4
f 1260/4 1261/4 1270/4
f 1251/4 1261/4 1260/4 1250/4
f 1252/4 1251/4 1269/4
f 1261/4 1262/4 1270/4
f 1252/4 1262/4 1261/4 1251/4
f 1253/4 1252/4 1269/4
f 1262/4 1263/4 1270/4
f 1253/4 1263/4 1262/4 1252/4
f 1254/4 1253/4 1269/4
f 1263/4 1264/4 1270/4
f 1254/4 1264/4 1263/4 1253/4
f 1255/4 1254/4 1269/4
f 1264/4 1265/4 1270/4
f 1255/4 1265/4 1264/4 1254/4
f 1256/4 1255/4 1269/4
f 1265/4 1266/4 1270/4
f 1256/4 1266/4 1265/4 1255/4
f 1257/4 1256/4 1269/4
f 1266/4 1267/4 1270/4
f 1257/4 1267/4 1266/4 1256/4
f 1258/4 1257/4 1269/4
f 1267/4 1268/4 1270/4
f 1258/4 1268/4 1267/4 1257/4
f 1249/4 1258/4 1269/4
f 1268/4 1259/4 1270/4
f 1249/4 1259/4 1268/4 1258/4
f 1271/4 1272/4 1295/4
f 1288/4 1287/4 1296/4
f 1272/4 1273/4 1295/4
f 1289/4 1288/4 1296/4
f 1273/4 1274/4 1295/4
f 1290/4 1289/4 1296/4
f 1274/4 1275/4 1295/4
f 1291/4 1290/4 1296/4
f 1275/4 1276/4 1295/4
f 1292/4 1291/4 1296/4
f 1276/4 1277/4 1295/4
f 1293/4 1292/4 1296/4
f 1277/4 1278/4 1295/4
f 1294/4 1293/4 1296/4
f 1278/4 1271/4 1295/4
f 1287/4 1294/4 1296/4
f 1279/4 1280/4 1272/4 1271/4
f 1280/4 1281/4 1273/4 1272/4
f 1281/4 1282/4 1274/4 1273/4
f 1282/4 1283/4 1275/4 1274/4
f 1283/4 1284/4 1276/4 1275/4
f 1284/4 1285/4 1277/4 1276/4
f 1285/4 1286/4 1278/4 1277/4
f 1286/4 1279/4 1271/4 1278/4
f 1287/4 1288/4 1280/4 1279/4
f 1288/4 1289/4 1281/4 1280/4
f 1289/4 1290/4 1282/4 1281/4
f 1290/4 1291/4 1283/4 1282/4
f 1291/4 1292/4 1284/4 1283/4
f 1292/4 1293/4 1285/4 1284/4
f 1293/4 1294/4 1286/4 1285/4
f 1294/4 1287/4 1279/4 1286/4
f 1297/4 1298/4 1321/4
f 1314/4 1313/4 1322/4
f 1298/4 1299/4 1321/4
f 1315/4 1314/4 1322/4
f 1299/4 1300/4 1321/4
f 1316/4 1315/4 1322/4
f 1300/4 1301/4 1321/4
f 1317/4 1316/4 1322/4
f 1301/4 1302/4 1321/4
f 1318/4 1317/4 1322/4
f 1302/4 1303/4 1321/4
f 1319/4 1318/4 1322/4
f 1303/4 1304/4 1321/4
f 1320/4 1319/4 1322/4
f 1304/4 1297/4 1321/4
f 1313/4 1320/4 1322/4
f 1305/4 1306/4 1298/4 1297/4
f 1306/4 1307/4 1299/4 1298/4
f 1307/4 1308/4 1300/4 1299/4
f 1308/4 1309/4 1301/4 1300/4
f 1309/4 1310/4 1302/4 1301/4
f 1310/4 1311/4 1303/4 1302/4
f 1311/4 1312/4 1304/4 1303/4
f 1312/4 1305/4 1297/4 1304/4
f 1313/4 1314/4 1306/4 1305/4
f 1314/4 1315/4 1307/4 1306/4
f 1315/4 1316/4 1308/4 1307/4
f 1316/4 1317/4 1309/4 1308/4
f 1317/4 1318/4 1310/4 1309/4
f 1318/4 1319/4 1311/4 1310/4
f 1319/4 1320/4 1312/4 1311/4
f 1320/4 1313/4 1305/4 1312/4
f 1323/4 1324/4 1347/4
f 1340/4 1339/4 1348/4
f 1324/4 1325/4 1347/4
f 1341/4 1340/4 1348/4
f 1325/4 1326/4 1347/4
f 1342/4 1341/4 1348/4
f 1326/4 1327/4 1347/4
f 1343/4 1342/4 1348/4
f 1327/4 1328/4 1347/4
f 1344/4 1343/4 1348/4
f 1328/4 1329/4 1347/4
f 1345/4 1344/4 1348/4
f 1329/4 1330/4 1347/4
f 1346/4 1345/4 1348/4
f 1330/4 1323/4 1347/4
f 1339/4 1346/4 1348/4
f 1331/4 1332/4 1324/4 1323/4
f 1332/4 1333/4 1325/4 1324/4
f 1333/4 1334/4 1326/4 1325/4
f 1334/4 1335/4 1327/4 1326/4
f 1335/4 1336/4 1328/4 1327/4
f 1336/4 1337/4 1329/4 1328/4
f 1337/4 1338/4 1330/4 1329/4
f 1338/4 1331/4 1323/4 1330/4
f 1339/4 1340/4 1332/4 1331/4
f 1340/4 1341/4 1333/4 1332/4
f 1341/4 1342/4 1334/4 1333/4
f 1342/4 1343/4 1335/4 1334/4
f 1343/4 1344/4 1336/4 1335/4
f 1344/4 1345/4 1337/4 1336/4
f 1345/4 1346/4 1338/4 1337/4
f 1346/4 1339/4 1331/4 1338/4
f 1349/4 1350/4 1373/4
f 1366/4 1365/4 1374/4
f 1350/4 1351/4 1373/4
f 1367/4 1366/4 1374/4
f 1351/4 1352/4 1373/4
f 1368/4 1367/4 1374/4
f 1352/4 1353/4 1373/4
f 1369/4 1368/4 1374/4
f 1353/4 1354/4 1373/4
f 1370/4 1369/4 1374/4
f 1354/4 1355/4 1373/4
f 1371/4 1370/4 1374/4
f 1355/4 1356/4 1373/4
f 1372/4 1371/4 1374/4
f 1356/4 1349/4 1373/4
f 1365/4 1372/4 1374/4
f 1357/4 1358/4 1350/4 1349/4
f 1358/4 1359/4 1351/4 1350/4
f 1359/4 1360/4 1352/4 1351/4
f 1360/4 1361/4 1353/4 1352/4
f 1361/4 1362/4 1354/4 1353/4
f 1362/4 1363/4 1355/4 1354/4
f 1363/4 1364/4 1356/4 1355/4
f 1364/4 1357/4 1349/4 1356/4
f 1365/4 1366/4 1358/4 1357/4
f 1366/4 1367/4 1359/4 1358/4
f 1367/4 1368/4 1360/4 1359/4
f 1368/4 1369/4 1361/4 1360/4
f 1369/4 1370/4 1362/4 1361/4
f 1370/4 1371/4 1363/4 1362/4
f 1371/4 1372/4 1364/4 1363/4
f 1372/4 1365/4 1357/4 1364/4
f 1375/4 1376/4 1399/4
f 1392/4 1391/4 1400/4
f 1376/4 1377/4 1399/4
f 1393/4 1392/4 1400/4
f 1377/4 1378/4 1399/4
f 1394/4 1393/4 1400/4
f 1378/4 1379/4 1399/4
f 1395/4 1394/4 1400/4
f 1379/4 1380/4 1399/4
f 1396/4 1395/4 1400/4
f 1380/4 1381/4 1399/4
f 1397/4 1396/4 1400/4
f 1381/4 1382/4 1399/4
f 1398/4 1397/4 1400/4
f 1382/4 1375/4 1399/4
f 1391/4 1398/4 1400/4
f 1383/4 1384/4 1376/4 1375/4
f 1384/4 1385/4 1377/4 1376/4
f 1385/4 1386/4 1378/4 1377/4
f 1386/4 1387/4 1379/4 1378/4
f 1387/4 1388/4 1380/4 1379/4
f 1388/4 1389/4 1381/4 1380/4
f 1389/4 1390/4 1382/4 1381/4
f 1390/4 1383/4 1375/4 1382/4
f 1391/4 1392/4 1384/4 1383/4
f 1392/4 1393/4 1385/4 1384/4
f 1393/4 1394/4 1386/4 1385/4
f 1394/4 1395/4 1387/4 1386/4
f 1395/4 1396/4 1388/4 1387/4
f 1396/4 1397/4 1389/4 1388/4
f 1397/4 1398/4 1390/4 1389/4
f 1398/4 1391/4 1383/4 1390/4
f 1401/4 1402/4 1425/4
f 1418/4 1417/4 1426/4
f 1402/4 1403/4 1425/4
f 1419/4 1418/4 1426/4
f 1403/4 1404/4 1425/4
f 1420/4 1419/4 1426/4
f 1404/4 1405/4 1425/4
f 1421/4 1420/4 1426/4
f 1405/4 1406/4 1425/4
f 1422/4 1421/4 1426/4
f 1406/4 1407/4 1425/4
f 1423/4 1422/4 1426/4
f 1407/4 1408/4 1425/4
f 1424/4 1423/4 1426/4
f 1408/4 1401/4 1425/4
f 1417/4 1424/4 1426/4
f 1409/4 1410/4 1402/4 1401/4
f 1410/4 1411/4 1403/4 1402/4
f 1411/4 1412/4 1404/4 1403/4
f 1412/4 1413/4 1405/4 1404/4
f 1413/4 1414/4 1406/4 1405/4
f 1414/4 1415/4 1407/4 1406/4
f 1415/4 1416/4 1408/4 1407/4
f 1416/4 1409/4 1401/4 1408/4
f 1417/4 1418/4 1410/4 1409/4
f 1418/4 1419/4 1411/4 1410/4
f 1419/4 1420/4 1412/4 1411/4
f 1420/4 1421/4 1413/4 1412/4
f 1421/4 1422/4 1414/4 1413/4
f 1422/4 1423/4 1415/4 1414/4
f 1423/4 1424/4 1416/4 1415/4
f 1424/4 1417/4 1409/4 1416/4
usemtl mint
f 586/3 588/3 587/3 585/3
f 585/3 587/3 609/3
f 588/3 586/3 610/3
f 588/3 590/3 589/3 587/3
f 587/3 589/3 609/3
f 590/3 588/3 610/3
f 590/3 592/3 591/3 589/3
f 589/3 591/3 609/3
f 592/3 590/3 610/3
f 592/3 594/3 593/3 591/3
f 591/3 593/3 609/3
f 594/3 592/3 610/3
f 594/3 596/3 595/3 593/3
f 593/3 595/3 609/3
f 596/3 594/3 610/3
f 596/3 598/3 597/3 595/3
f 595/3 597/3 609/3
f 598/3 596/3 610/3
f 598/3 600/3 599/3 597/3
f 597/3 599/3 609/3
f 600/3 598/3 610/3
f 600/3 602/3 601/3 599/3
f 599/3 601/3 609/3
f 602/3 600/3 610/3
f 602/3 604/3 603/3 601/3
f 601/3 603/3 609/3
f 604/3 602/3 610/3
f 604/3 606/3 605/3 603/3
f 603/3 605/3 609/3
f 606/3 604/3 610/3
f 606/3 608/3 607/3 605/3
f 605/3 607/3 609/3
f 608/3 606/3 610/3
f 608/3 586/3 585/3 607/3
f 607/3 585/3 609/3
f 586/3 608/3 610/3
