# ParkParkSwingBase — ParkPark original fairground mesh
mtllib ParkParkFairground.mtl
o ParkParkSwingBase
v 8.00000 0.05000 0.00000
v 8.00000 0.60000 0.00000
v 7.93156 0.05000 1.04421
v 7.93156 0.60000 1.04421
v 7.72741 0.05000 2.07055
v 7.72741 0.60000 2.07055
v 7.39104 0.05000 3.06147
v 7.39104 0.60000 3.06147
v 6.92820 0.05000 4.00000
v 6.92820 0.60000 4.00000
v 6.34683 0.05000 4.87009
v 6.34683 0.60000 4.87009
v 5.65685 0.05000 5.65685
v 5.65685 0.60000 5.65685
v 4.87009 0.05000 6.34683
v 4.87009 0.60000 6.34683
v 4.00000 0.05000 6.92820
v 4.00000 0.60000 6.92820
v 3.06147 0.05000 7.39104
v 3.06147 0.60000 7.39104
v 2.07055 0.05000 7.72741
v 2.07055 0.60000 7.72741
v 1.04421 0.05000 7.93156
v 1.04421 0.60000 7.93156
v 0.00000 0.05000 8.00000
v 0.00000 0.60000 8.00000
v -1.04421 0.05000 7.93156
v -1.04421 0.60000 7.93156
v -2.07055 0.05000 7.72741
v -2.07055 0.60000 7.72741
v -3.06147 0.05000 7.39104
v -3.06147 0.60000 7.39104
v -4.00000 0.05000 6.92820
v -4.00000 0.60000 6.92820
v -4.87009 0.05000 6.34683
v -4.87009 0.60000 6.34683
v -5.65685 0.05000 5.65685
v -5.65685 0.60000 5.65685
v -6.34683 0.05000 4.87009
v -6.34683 0.60000 4.87009
v -6.92820 0.05000 4.00000
v -6.92820 0.60000 4.00000
v -7.39104 0.05000 3.06147
v -7.39104 0.60000 3.06147
v -7.72741 0.05000 2.07055
v -7.72741 0.60000 2.07055
v -7.93156 0.05000 1.04421
v -7.93156 0.60000 1.04421
v -8.00000 0.05000 0.00000
v -8.00000 0.60000 0.00000
v -7.93156 0.05000 -1.04421
v -7.93156 0.60000 -1.04421
v -7.72741 0.05000 -2.07055
v -7.72741 0.60000 -2.07055
v -7.39104 0.05000 -3.06147
v -7.39104 0.60000 -3.06147
v -6.92820 0.05000 -4.00000
v -6.92820 0.60000 -4.00000
v -6.34683 0.05000 -4.87009
v -6.34683 0.60000 -4.87009
v -5.65685 0.05000 -5.65685
v -5.65685 0.60000 -5.65685
v -4.87009 0.05000 -6.34683
v -4.87009 0.60000 -6.34683
v -4.00000 0.05000 -6.92820
v -4.00000 0.60000 -6.92820
v -3.06147 0.05000 -7.39104
v -3.06147 0.60000 -7.39104
v -2.07055 0.05000 -7.72741
v -2.07055 0.60000 -7.72741
v -1.04421 0.05000 -7.93156
v -1.04421 0.60000 -7.93156
v -0.00000 0.05000 -8.00000
v -0.00000 0.60000 -8.00000
v 1.04421 0.05000 -7.93156
v 1.04421 0.60000 -7.93156
v 2.07055 0.05000 -7.72741
v 2.07055 0.60000 -7.72741
v 3.06147 0.05000 -7.39104
v 3.06147 0.60000 -7.39104
v 4.00000 0.05000 -6.92820
v 4.00000 0.60000 -6.92820
v 4.87009 0.05000 -6.34683
v 4.87009 0.60000 -6.34683
v 5.65685 0.05000 -5.65685
v 5.65685 0.60000 -5.65685
v 6.34683 0.05000 -4.87009
v 6.34683 0.60000 -4.87009
v 6.92820 0.05000 -4.00000
v 6.92820 0.60000 -4.00000
v 7.39104 0.05000 -3.06147
v 7.39104 0.60000 -3.06147
v 7.72741 0.05000 -2.07055
v 7.72741 0.60000 -2.07055
v 7.93156 0.05000 -1.04421
v 7.93156 0.60000 -1.04421
v 0.00000 0.05000 0.00000
v 0.00000 0.60000 0.00000
v 8.02000 0.05000 0.00000
v 8.02000 0.40000 0.00000
v 7.95139 0.05000 1.04682
v 7.95139 0.40000 1.04682
v 7.74673 0.05000 2.07573
v 7.74673 0.40000 2.07573
v 7.40951 0.05000 3.06912
v 7.40951 0.40000 3.06912
v 6.94552 0.05000 4.01000
v 6.94552 0.40000 4.01000
v 6.36269 0.05000 4.88227
v 6.36269 0.40000 4.88227
v 5.67100 0.05000 5.67100
v 5.67100 0.40000 5.67100
v 4.88227 0.05000 6.36269
v 4.88227 0.40000 6.36269
v 4.01000 0.05000 6.94552
v 4.01000 0.40000 6.94552
v 3.06912 0.05000 7.40951
v 3.06912 0.40000 7.40951
v 2.07573 0.05000 7.74673
v 2.07573 0.40000 7.74673
v 1.04682 0.05000 7.95139
v 1.04682 0.40000 7.95139
v 0.00000 0.05000 8.02000
v 0.00000 0.40000 8.02000
v -1.04682 0.05000 7.95139
v -1.04682 0.40000 7.95139
v -2.07573 0.05000 7.74673
v -2.07573 0.40000 7.74673
v -3.06912 0.05000 7.40951
v -3.06912 0.40000 7.40951
v -4.01000 0.05000 6.94552
v -4.01000 0.40000 6.94552
v -4.88227 0.05000 6.36269
v -4.88227 0.40000 6.36269
v -5.67100 0.05000 5.67100
v -5.67100 0.40000 5.67100
v -6.36269 0.05000 4.88227
v -6.36269 0.40000 4.88227
v -6.94552 0.05000 4.01000
v -6.94552 0.40000 4.01000
v -7.40951 0.05000 3.06912
v -7.40951 0.40000 3.06912
v -7.74673 0.05000 2.07573
v -7.74673 0.40000 2.07573
v -7.95139 0.05000 1.04682
v -7.95139 0.40000 1.04682
v -8.02000 0.05000 0.00000
v -8.02000 0.40000 0.00000
v -7.95139 0.05000 -1.04682
v -7.95139 0.40000 -1.04682
v -7.74673 0.05000 -2.07573
v -7.74673 0.40000 -2.07573
v -7.40951 0.05000 -3.06912
v -7.40951 0.40000 -3.06912
v -6.94552 0.05000 -4.01000
v -6.94552 0.40000 -4.01000
v -6.36269 0.05000 -4.88227
v -6.36269 0.40000 -4.88227
v -5.67100 0.05000 -5.67100
v -5.67100 0.40000 -5.67100
v -4.88227 0.05000 -6.36269
v -4.88227 0.40000 -6.36269
v -4.01000 0.05000 -6.94552
v -4.01000 0.40000 -6.94552
v -3.06912 0.05000 -7.40951
v -3.06912 0.40000 -7.40951
v -2.07573 0.05000 -7.74673
v -2.07573 0.40000 -7.74673
v -1.04682 0.05000 -7.95139
v -1.04682 0.40000 -7.95139
v -0.00000 0.05000 -8.02000
v -0.00000 0.40000 -8.02000
v 1.04682 0.05000 -7.95139
v 1.04682 0.40000 -7.95139
v 2.07573 0.05000 -7.74673
v 2.07573 0.40000 -7.74673
v 3.06912 0.05000 -7.40951
v 3.06912 0.40000 -7.40951
v 4.01000 0.05000 -6.94552
v 4.01000 0.40000 -6.94552
v 4.88227 0.05000 -6.36269
v 4.88227 0.40000 -6.36269
v 5.67100 0.05000 -5.67100
v 5.67100 0.40000 -5.67100
v 6.36269 0.05000 -4.88227
v 6.36269 0.40000 -4.88227
v 6.94552 0.05000 -4.01000
v 6.94552 0.40000 -4.01000
v 7.40951 0.05000 -3.06912
v 7.40951 0.40000 -3.06912
v 7.74673 0.05000 -2.07573
v 7.74673 0.40000 -2.07573
v 7.95139 0.05000 -1.04682
v 7.95139 0.40000 -1.04682
v 0.00000 0.05000 0.00000
v 0.00000 0.40000 0.00000
v 7.97000 0.62000 0.00000
v 7.91000 0.72392 0.00000
v 7.79000 0.72392 0.00000
v 7.73000 0.62000 0.00000
v 7.79000 0.51608 0.00000
v 7.91000 0.51608 0.00000
v 7.90182 0.62000 1.04029
v 7.84233 0.72392 1.03246
v 7.72336 0.72392 1.01680
v 7.66387 0.62000 1.00897
v 7.72336 0.51608 1.01680
v 7.84233 0.51608 1.03246
v 7.69843 0.62000 2.06279
v 7.64047 0.72392 2.04726
v 7.52456 0.72392 2.01620
v 7.46661 0.62000 2.00067
v 7.52456 0.51608 2.01620
v 7.64047 0.51608 2.04726
v 7.36332 0.62000 3.04999
v 7.30789 0.72392 3.02703
v 7.19702 0.72392 2.98110
v 7.14159 0.62000 2.95814
v 7.19702 0.51608 2.98110
v 7.30789 0.51608 3.02703
v 6.90222 0.62000 3.98500
v 6.85026 0.72392 3.95500
v 6.74634 0.72392 3.89500
v 6.69438 0.62000 3.86500
v 6.74634 0.51608 3.89500
v 6.85026 0.51608 3.95500
v 6.32303 0.62000 4.85183
v 6.27542 0.72392 4.81530
v 6.18022 0.72392 4.74225
v 6.13262 0.62000 4.70573
v 6.18022 0.51608 4.74225
v 6.27542 0.51608 4.81530
v 5.63564 0.62000 5.63564
v 5.59321 0.72392 5.59321
v 5.50836 0.72392 5.50836
v 5.46594 0.62000 5.46594
v 5.50836 0.51608 5.50836
v 5.59321 0.51608 5.59321
v 4.85183 0.62000 6.32303
v 4.81530 0.72392 6.27542
v 4.74225 0.72392 6.18022
v 4.70573 0.62000 6.13262
v 4.74225 0.51608 6.18022
v 4.81530 0.51608 6.27542
v 3.98500 0.62000 6.90222
v 3.95500 0.72392 6.85026
v 3.89500 0.72392 6.74634
v 3.86500 0.62000 6.69438
v 3.89500 0.51608 6.74634
v 3.95500 0.51608 6.85026
v 3.04999 0.62000 7.36332
v 3.02703 0.72392 7.30789
v 2.98110 0.72392 7.19702
v 2.95814 0.62000 7.14159
v 2.98110 0.51608 7.19702
v 3.02703 0.51608 7.30789
v 2.06279 0.62000 7.69843
v 2.04726 0.72392 7.64047
v 2.01620 0.72392 7.52456
v 2.00067 0.62000 7.46661
v 2.01620 0.51608 7.52456
v 2.04726 0.51608 7.64047
v 1.04029 0.62000 7.90182
v 1.03246 0.72392 7.84233
v 1.01680 0.72392 7.72336
v 1.00897 0.62000 7.66387
v 1.01680 0.51608 7.72336
v 1.03246 0.51608 7.84233
v 0.00000 0.62000 7.97000
v 0.00000 0.72392 7.91000
v 0.00000 0.72392 7.79000
v 0.00000 0.62000 7.73000
v 0.00000 0.51608 7.79000
v 0.00000 0.51608 7.91000
v -1.04029 0.62000 7.90182
v -1.03246 0.72392 7.84233
v -1.01680 0.72392 7.72336
v -1.00897 0.62000 7.66387
v -1.01680 0.51608 7.72336
v -1.03246 0.51608 7.84233
v -2.06279 0.62000 7.69843
v -2.04726 0.72392 7.64047
v -2.01620 0.72392 7.52456
v -2.00067 0.62000 7.46661
v -2.01620 0.51608 7.52456
v -2.04726 0.51608 7.64047
v -3.04999 0.62000 7.36332
v -3.02703 0.72392 7.30789
v -2.98110 0.72392 7.19702
v -2.95814 0.62000 7.14159
v -2.98110 0.51608 7.19702
v -3.02703 0.51608 7.30789
v -3.98500 0.62000 6.90222
v -3.95500 0.72392 6.85026
v -3.89500 0.72392 6.74634
v -3.86500 0.62000 6.69438
v -3.89500 0.51608 6.74634
v -3.95500 0.51608 6.85026
v -4.85183 0.62000 6.32303
v -4.81530 0.72392 6.27542
v -4.74225 0.72392 6.18022
v -4.70573 0.62000 6.13262
v -4.74225 0.51608 6.18022
v -4.81530 0.51608 6.27542
v -5.63564 0.62000 5.63564
v -5.59321 0.72392 5.59321
v -5.50836 0.72392 5.50836
v -5.46594 0.62000 5.46594
v -5.50836 0.51608 5.50836
v -5.59321 0.51608 5.59321
v -6.32303 0.62000 4.85183
v -6.27542 0.72392 4.81530
v -6.18022 0.72392 4.74225
v -6.13262 0.62000 4.70573
v -6.18022 0.51608 4.74225
v -6.27542 0.51608 4.81530
v -6.90222 0.62000 3.98500
v -6.85026 0.72392 3.95500
v -6.74634 0.72392 3.89500
v -6.69438 0.62000 3.86500
v -6.74634 0.51608 3.89500
v -6.85026 0.51608 3.95500
v -7.36332 0.62000 3.04999
v -7.30789 0.72392 3.02703
v -7.19702 0.72392 2.98110
v -7.14159 0.62000 2.95814
v -7.19702 0.51608 2.98110
v -7.30789 0.51608 3.02703
v -7.69843 0.62000 2.06279
v -7.64047 0.72392 2.04726
v -7.52456 0.72392 2.01620
v -7.46661 0.62000 2.00067
v -7.52456 0.51608 2.01620
v -7.64047 0.51608 2.04726
v -7.90182 0.62000 1.04029
v -7.84233 0.72392 1.03246
v -7.72336 0.72392 1.01680
v -7.66387 0.62000 1.00897
v -7.72336 0.51608 1.01680
v -7.84233 0.51608 1.03246
v -7.97000 0.62000 0.00000
v -7.91000 0.72392 0.00000
v -7.79000 0.72392 0.00000
v -7.73000 0.62000 0.00000
v -7.79000 0.51608 0.00000
v -7.91000 0.51608 0.00000
v -7.90182 0.62000 -1.04029
v -7.84233 0.72392 -1.03246
v -7.72336 0.72392 -1.01680
v -7.66387 0.62000 -1.00897
v -7.72336 0.51608 -1.01680
v -7.84233 0.51608 -1.03246
v -7.69843 0.62000 -2.06279
v -7.64047 0.72392 -2.04726
v -7.52456 0.72392 -2.01620
v -7.46661 0.62000 -2.00067
v -7.52456 0.51608 -2.01620
v -7.64047 0.51608 -2.04726
v -7.36332 0.62000 -3.04999
v -7.30789 0.72392 -3.02703
v -7.19702 0.72392 -2.98110
v -7.14159 0.62000 -2.95814
v -7.19702 0.51608 -2.98110
v -7.30789 0.51608 -3.02703
v -6.90222 0.62000 -3.98500
v -6.85026 0.72392 -3.95500
v -6.74634 0.72392 -3.89500
v -6.69438 0.62000 -3.86500
v -6.74634 0.51608 -3.89500
v -6.85026 0.51608 -3.95500
v -6.32303 0.62000 -4.85183
v -6.27542 0.72392 -4.81530
v -6.18022 0.72392 -4.74225
v -6.13262 0.62000 -4.70573
v -6.18022 0.51608 -4.74225
v -6.27542 0.51608 -4.81530
v -5.63564 0.62000 -5.63564
v -5.59321 0.72392 -5.59321
v -5.50836 0.72392 -5.50836
v -5.46594 0.62000 -5.46594
v -5.50836 0.51608 -5.50836
v -5.59321 0.51608 -5.59321
v -4.85183 0.62000 -6.32303
v -4.81530 0.72392 -6.27542
v -4.74225 0.72392 -6.18022
v -4.70573 0.62000 -6.13262
v -4.74225 0.51608 -6.18022
v -4.81530 0.51608 -6.27542
v -3.98500 0.62000 -6.90222
v -3.95500 0.72392 -6.85026
v -3.89500 0.72392 -6.74634
v -3.86500 0.62000 -6.69438
v -3.89500 0.51608 -6.74634
v -3.95500 0.51608 -6.85026
v -3.04999 0.62000 -7.36332
v -3.02703 0.72392 -7.30789
v -2.98110 0.72392 -7.19702
v -2.95814 0.62000 -7.14159
v -2.98110 0.51608 -7.19702
v -3.02703 0.51608 -7.30789
v -2.06279 0.62000 -7.69843
v -2.04726 0.72392 -7.64047
v -2.01620 0.72392 -7.52456
v -2.00067 0.62000 -7.46661
v -2.01620 0.51608 -7.52456
v -2.04726 0.51608 -7.64047
v -1.04029 0.62000 -7.90182
v -1.03246 0.72392 -7.84233
v -1.01680 0.72392 -7.72336
v -1.00897 0.62000 -7.66387
v -1.01680 0.51608 -7.72336
v -1.03246 0.51608 -7.84233
v -0.00000 0.62000 -7.97000
v -0.00000 0.72392 -7.91000
v -0.00000 0.72392 -7.79000
v -0.00000 0.62000 -7.73000
v -0.00000 0.51608 -7.79000
v -0.00000 0.51608 -7.91000
v 1.04029 0.62000 -7.90182
v 1.03246 0.72392 -7.84233
v 1.01680 0.72392 -7.72336
v 1.00897 0.62000 -7.66387
v 1.01680 0.51608 -7.72336
v 1.03246 0.51608 -7.84233
v 2.06279 0.62000 -7.69843
v 2.04726 0.72392 -7.64047
v 2.01620 0.72392 -7.52456
v 2.00067 0.62000 -7.46661
v 2.01620 0.51608 -7.52456
v 2.04726 0.51608 -7.64047
v 3.04999 0.62000 -7.36332
v 3.02703 0.72392 -7.30789
v 2.98110 0.72392 -7.19702
v 2.95814 0.62000 -7.14159
v 2.98110 0.51608 -7.19702
v 3.02703 0.51608 -7.30789
v 3.98500 0.62000 -6.90222
v 3.95500 0.72392 -6.85026
v 3.89500 0.72392 -6.74634
v 3.86500 0.62000 -6.69438
v 3.89500 0.51608 -6.74634
v 3.95500 0.51608 -6.85026
v 4.85183 0.62000 -6.32303
v 4.81530 0.72392 -6.27542
v 4.74225 0.72392 -6.18022
v 4.70573 0.62000 -6.13262
v 4.74225 0.51608 -6.18022
v 4.81530 0.51608 -6.27542
v 5.63564 0.62000 -5.63564
v 5.59321 0.72392 -5.59321
v 5.50836 0.72392 -5.50836
v 5.46594 0.62000 -5.46594
v 5.50836 0.51608 -5.50836
v 5.59321 0.51608 -5.59321
v 6.32303 0.62000 -4.85183
v 6.27542 0.72392 -4.81530
v 6.18022 0.72392 -4.74225
v 6.13262 0.62000 -4.70573
v 6.18022 0.51608 -4.74225
v 6.27542 0.51608 -4.81530
v 6.90222 0.62000 -3.98500
v 6.85026 0.72392 -3.95500
v 6.74634 0.72392 -3.89500
v 6.69438 0.62000 -3.86500
v 6.74634 0.51608 -3.89500
v 6.85026 0.51608 -3.95500
v 7.36332 0.62000 -3.04999
v 7.30789 0.72392 -3.02703
v 7.19702 0.72392 -2.98110
v 7.14159 0.62000 -2.95814
v 7.19702 0.51608 -2.98110
v 7.30789 0.51608 -3.02703
v 7.69843 0.62000 -2.06279
v 7.64047 0.72392 -2.04726
v 7.52456 0.72392 -2.01620
v 7.46661 0.62000 -2.00067
v 7.52456 0.51608 -2.01620
v 7.64047 0.51608 -2.04726
v 7.90182 0.62000 -1.04029
v 7.84233 0.72392 -1.03246
v 7.72336 0.72392 -1.01680
v 7.66387 0.62000 -1.00897
v 7.72336 0.51608 -1.01680
v 7.84233 0.51608 -1.03246
v 7.52124 0.68000 0.00000
v 7.46062 0.68000 0.10500
v 7.33938 0.68000 0.10500
v 7.27876 0.68000 0.00000
v 7.33938 0.68000 -0.10500
v 7.46062 0.68000 -0.10500
v 7.52124 0.82000 0.00000
v 7.46062 0.82000 0.10500
v 7.33938 0.82000 0.10500
v 7.27876 0.82000 0.00000
v 7.33938 0.82000 -0.10500
v 7.46062 0.82000 -0.10500
v 7.40000 0.61000 0.00000
v 7.40000 0.89000 0.00000
v 6.95795 0.68000 2.83186
v 6.89733 0.68000 2.93686
v 6.77609 0.68000 2.93686
v 6.71546 0.68000 2.83186
v 6.77609 0.68000 2.72686
v 6.89733 0.68000 2.72686
v 6.95795 0.82000 2.83186
v 6.89733 0.82000 2.93686
v 6.77609 0.82000 2.93686
v 6.71546 0.82000 2.83186
v 6.77609 0.82000 2.72686
v 6.89733 0.82000 2.72686
v 6.83671 0.61000 2.83186
v 6.83671 0.89000 2.83186
v 5.35383 0.68000 5.23259
v 5.29321 0.68000 5.33759
v 5.17197 0.68000 5.33759
v 5.11135 0.68000 5.23259
v 5.17197 0.68000 5.12759
v 5.29321 0.68000 5.12759
v 5.35383 0.82000 5.23259
v 5.29321 0.82000 5.33759
v 5.17197 0.82000 5.33759
v 5.11135 0.82000 5.23259
v 5.17197 0.82000 5.12759
v 5.29321 0.82000 5.12759
v 5.23259 0.61000 5.23259
v 5.23259 0.89000 5.23259
v 2.95310 0.68000 6.83671
v 2.89248 0.68000 6.94171
v 2.77124 0.68000 6.94171
v 2.71061 0.68000 6.83671
v 2.77124 0.68000 6.73171
v 2.89248 0.68000 6.73171
v 2.95310 0.82000 6.83671
v 2.89248 0.82000 6.94171
v 2.77124 0.82000 6.94171
v 2.71061 0.82000 6.83671
v 2.77124 0.82000 6.73171
v 2.89248 0.82000 6.73171
v 2.83186 0.61000 6.83671
v 2.83186 0.89000 6.83671
v 0.12124 0.68000 7.40000
v 0.06062 0.68000 7.50500
v -0.06062 0.68000 7.50500
v -0.12124 0.68000 7.40000
v -0.06062 0.68000 7.29500
v 0.06062 0.68000 7.29500
v 0.12124 0.82000 7.40000
v 0.06062 0.82000 7.50500
v -0.06062 0.82000 7.50500
v -0.12124 0.82000 7.40000
v -0.06062 0.82000 7.29500
v 0.06062 0.82000 7.29500
v 0.00000 0.61000 7.40000
v 0.00000 0.89000 7.40000
v -2.71061 0.68000 6.83671
v -2.77124 0.68000 6.94171
v -2.89248 0.68000 6.94171
v -2.95310 0.68000 6.83671
v -2.89248 0.68000 6.73171
v -2.77124 0.68000 6.73171
v -2.71061 0.82000 6.83671
v -2.77124 0.82000 6.94171
v -2.89248 0.82000 6.94171
v -2.95310 0.82000 6.83671
v -2.89248 0.82000 6.73171
v -2.77124 0.82000 6.73171
v -2.83186 0.61000 6.83671
v -2.83186 0.89000 6.83671
v -5.11135 0.68000 5.23259
v -5.17197 0.68000 5.33759
v -5.29321 0.68000 5.33759
v -5.35383 0.68000 5.23259
v -5.29321 0.68000 5.12759
v -5.17197 0.68000 5.12759
v -5.11135 0.82000 5.23259
v -5.17197 0.82000 5.33759
v -5.29321 0.82000 5.33759
v -5.35383 0.82000 5.23259
v -5.29321 0.82000 5.12759
v -5.17197 0.82000 5.12759
v -5.23259 0.61000 5.23259
v -5.23259 0.89000 5.23259
v -6.71546 0.68000 2.83186
v -6.77609 0.68000 2.93686
v -6.89733 0.68000 2.93686
v -6.95795 0.68000 2.83186
v -6.89733 0.68000 2.72686
v -6.77609 0.68000 2.72686
v -6.71546 0.82000 2.83186
v -6.77609 0.82000 2.93686
v -6.89733 0.82000 2.93686
v -6.95795 0.82000 2.83186
v -6.89733 0.82000 2.72686
v -6.77609 0.82000 2.72686
v -6.83671 0.61000 2.83186
v -6.83671 0.89000 2.83186
v -7.27876 0.68000 0.00000
v -7.33938 0.68000 0.10500
v -7.46062 0.68000 0.10500
v -7.52124 0.68000 0.00000
v -7.46062 0.68000 -0.10500
v -7.33938 0.68000 -0.10500
v -7.27876 0.82000 0.00000
v -7.33938 0.82000 0.10500
v -7.46062 0.82000 0.10500
v -7.52124 0.82000 0.00000
v -7.46062 0.82000 -0.10500
v -7.33938 0.82000 -0.10500
v -7.40000 0.61000 0.00000
v -7.40000 0.89000 0.00000
v -6.71546 0.68000 -2.83186
v -6.77609 0.68000 -2.72686
v -6.89733 0.68000 -2.72686
v -6.95795 0.68000 -2.83186
v -6.89733 0.68000 -2.93686
v -6.77609 0.68000 -2.93686
v -6.71546 0.82000 -2.83186
v -6.77609 0.82000 -2.72686
v -6.89733 0.82000 -2.72686
v -6.95795 0.82000 -2.83186
v -6.89733 0.82000 -2.93686
v -6.77609 0.82000 -2.93686
v -6.83671 0.61000 -2.83186
v -6.83671 0.89000 -2.83186
v -5.11135 0.68000 -5.23259
v -5.17197 0.68000 -5.12759
v -5.29321 0.68000 -5.12759
v -5.35383 0.68000 -5.23259
v -5.29321 0.68000 -5.33759
v -5.17197 0.68000 -5.33759
v -5.11135 0.82000 -5.23259
v -5.17197 0.82000 -5.12759
v -5.29321 0.82000 -5.12759
v -5.35383 0.82000 -5.23259
v -5.29321 0.82000 -5.33759
v -5.17197 0.82000 -5.33759
v -5.23259 0.61000 -5.23259
v -5.23259 0.89000 -5.23259
v -2.71061 0.68000 -6.83671
v -2.77124 0.68000 -6.73171
v -2.89248 0.68000 -6.73171
v -2.95310 0.68000 -6.83671
v -2.89248 0.68000 -6.94171
v -2.77124 0.68000 -6.94171
v -2.71061 0.82000 -6.83671
v -2.77124 0.82000 -6.73171
v -2.89248 0.82000 -6.73171
v -2.95310 0.82000 -6.83671
v -2.89248 0.82000 -6.94171
v -2.77124 0.82000 -6.94171
v -2.83186 0.61000 -6.83671
v -2.83186 0.89000 -6.83671
v 0.12124 0.68000 -7.40000
v 0.06062 0.68000 -7.29500
v -0.06062 0.68000 -7.29500
v -0.12124 0.68000 -7.40000
v -0.06062 0.68000 -7.50500
v 0.06062 0.68000 -7.50500
v 0.12124 0.82000 -7.40000
v 0.06062 0.82000 -7.29500
v -0.06062 0.82000 -7.29500
v -0.12124 0.82000 -7.40000
v -0.06062 0.82000 -7.50500
v 0.06062 0.82000 -7.50500
v -0.00000 0.61000 -7.40000
v -0.00000 0.89000 -7.40000
v 2.95310 0.68000 -6.83671
v 2.89248 0.68000 -6.73171
v 2.77124 0.68000 -6.73171
v 2.71061 0.68000 -6.83671
v 2.77124 0.68000 -6.94171
v 2.89248 0.68000 -6.94171
v 2.95310 0.82000 -6.83671
v 2.89248 0.82000 -6.73171
v 2.77124 0.82000 -6.73171
v 2.71061 0.82000 -6.83671
v 2.77124 0.82000 -6.94171
v 2.89248 0.82000 -6.94171
v 2.83186 0.61000 -6.83671
v 2.83186 0.89000 -6.83671
v 5.35383 0.68000 -5.23259
v 5.29321 0.68000 -5.12759
v 5.17197 0.68000 -5.12759
v 5.11135 0.68000 -5.23259
v 5.17197 0.68000 -5.33759
v 5.29321 0.68000 -5.33759
v 5.35383 0.82000 -5.23259
v 5.29321 0.82000 -5.12759
v 5.17197 0.82000 -5.12759
v 5.11135 0.82000 -5.23259
v 5.17197 0.82000 -5.33759
v 5.29321 0.82000 -5.33759
v 5.23259 0.61000 -5.23259
v 5.23259 0.89000 -5.23259
v 6.95795 0.68000 -2.83186
v 6.89733 0.68000 -2.72686
v 6.77609 0.68000 -2.72686
v 6.71546 0.68000 -2.83186
v 6.77609 0.68000 -2.93686
v 6.89733 0.68000 -2.93686
v 6.95795 0.82000 -2.83186
v 6.89733 0.82000 -2.72686
v 6.77609 0.82000 -2.72686
v 6.71546 0.82000 -2.83186
v 6.77609 0.82000 -2.93686
v 6.89733 0.82000 -2.93686
v 6.83671 0.61000 -2.83186
v 6.83671 0.89000 -2.83186
v 0.00000 0.55000 0.00000
v 0.00000 0.55000 0.00000
v 0.00000 0.55000 0.00000
v 0.00000 0.55000 0.00000
v 0.00000 0.55000 0.00000
v 0.00000 0.55000 0.00000
v 0.00000 0.55000 0.00000
v 0.00000 0.55000 0.00000
v 0.00000 0.55000 0.00000
v -0.00000 0.55000 0.00000
v -0.00000 0.55000 0.00000
v -0.00000 0.55000 0.00000
v -0.00000 0.55000 0.00000
v -0.00000 0.55000 0.00000
v -0.00000 0.55000 0.00000
v -0.00000 0.55000 0.00000
v -0.00000 0.55000 0.00000
v -0.00000 0.55000 -0.00000
v -0.00000 0.55000 -0.00000
v -0.00000 0.55000 -0.00000
v -0.00000 0.55000 -0.00000
v -0.00000 0.55000 -0.00000
v -0.00000 0.55000 -0.00000
v -0.00000 0.55000 -0.00000
v -0.00000 0.55000 -0.00000
v 0.00000 0.55000 -0.00000
v 0.00000 0.55000 -0.00000
v 0.00000 0.55000 -0.00000
v 0.00000 0.55000 -0.00000
v 0.00000 0.55000 -0.00000
v 0.00000 0.55000 -0.00000
v 0.00000 0.55000 -0.00000
v 1.70000 0.55000 0.00000
v 1.66733 0.55000 0.33165
v 1.57060 0.55000 0.65056
v 1.41350 0.55000 0.94447
v 1.20208 0.55000 1.20208
v 0.94447 0.55000 1.41350
v 0.65056 0.55000 1.57060
v 0.33165 0.55000 1.66733
v 0.00000 0.55000 1.70000
v -0.33165 0.55000 1.66733
v -0.65056 0.55000 1.57060
v -0.94447 0.55000 1.41350
v -1.20208 0.55000 1.20208
v -1.41350 0.55000 0.94447
v -1.57060 0.55000 0.65056
v -1.66733 0.55000 0.33165
v -1.70000 0.55000 0.00000
v -1.66733 0.55000 -0.33165
v -1.57060 0.55000 -0.65056
v -1.41350 0.55000 -0.94447
v -1.20208 0.55000 -1.20208
v -0.94447 0.55000 -1.41350
v -0.65056 0.55000 -1.57060
v -0.33165 0.55000 -1.66733
v -0.00000 0.55000 -1.70000
v 0.33165 0.55000 -1.66733
v 0.65056 0.55000 -1.57060
v 0.94447 0.55000 -1.41350
v 1.20208 0.55000 -1.20208
v 1.41350 0.55000 -0.94447
v 1.57060 0.55000 -0.65056
v 1.66733 0.55000 -0.33165
v 1.35000 1.10000 0.00000
v 1.32406 1.10000 0.26337
v 1.24724 1.10000 0.51662
v 1.12248 1.10000 0.75002
v 0.95459 1.10000 0.95459
v 0.75002 1.10000 1.12248
v 0.51662 1.10000 1.24724
v 0.26337 1.10000 1.32406
v 0.00000 1.10000 1.35000
v -0.26337 1.10000 1.32406
v -0.51662 1.10000 1.24724
v -0.75002 1.10000 1.12248
v -0.95459 1.10000 0.95459
v -1.12248 1.10000 0.75002
v -1.24724 1.10000 0.51662
v -1.32406 1.10000 0.26337
v -1.35000 1.10000 0.00000
v -1.32406 1.10000 -0.26337
v -1.24724 1.10000 -0.51662
v -1.12248 1.10000 -0.75002
v -0.95459 1.10000 -0.95459
v -0.75002 1.10000 -1.12248
v -0.51662 1.10000 -1.24724
v -0.26337 1.10000 -1.32406
v -0.00000 1.10000 -1.35000
v 0.26337 1.10000 -1.32406
v 0.51662 1.10000 -1.24724
v 0.75002 1.10000 -1.12248
v 0.95459 1.10000 -0.95459
v 1.12248 1.10000 -0.75002
v 1.24724 1.10000 -0.51662
v 1.32406 1.10000 -0.26337
v 1.05000 1.70000 0.00000
v 1.02982 1.70000 0.20484
v 0.97007 1.70000 0.40182
v 0.87304 1.70000 0.58335
v 0.74246 1.70000 0.74246
v 0.58335 1.70000 0.87304
v 0.40182 1.70000 0.97007
v 0.20484 1.70000 1.02982
v 0.00000 1.70000 1.05000
v -0.20484 1.70000 1.02982
v -0.40182 1.70000 0.97007
v -0.58335 1.70000 0.87304
v -0.74246 1.70000 0.74246
v -0.87304 1.70000 0.58335
v -0.97007 1.70000 0.40182
v -1.02982 1.70000 0.20484
v -1.05000 1.70000 0.00000
v -1.02982 1.70000 -0.20484
v -0.97007 1.70000 -0.40182
v -0.87304 1.70000 -0.58335
v -0.74246 1.70000 -0.74246
v -0.58335 1.70000 -0.87304
v -0.40182 1.70000 -0.97007
v -0.20484 1.70000 -1.02982
v -0.00000 1.70000 -1.05000
v 0.20484 1.70000 -1.02982
v 0.40182 1.70000 -0.97007
v 0.58335 1.70000 -0.87304
v 0.74246 1.70000 -0.74246
v 0.87304 1.70000 -0.58335
v 0.97007 1.70000 -0.40182
v 1.02982 1.70000 -0.20484
v 0.90000 3.00000 0.00000
v 0.88271 3.00000 0.17558
v 0.83149 3.00000 0.34442
v 0.74832 3.00000 0.50001
v 0.63640 3.00000 0.63640
v 0.50001 3.00000 0.74832
v 0.34442 3.00000 0.83149
v 0.17558 3.00000 0.88271
v 0.00000 3.00000 0.90000
v -0.17558 3.00000 0.88271
v -0.34442 3.00000 0.83149
v -0.50001 3.00000 0.74832
v -0.63640 3.00000 0.63640
v -0.74832 3.00000 0.50001
v -0.83149 3.00000 0.34442
v -0.88271 3.00000 0.17558
v -0.90000 3.00000 0.00000
v -0.88271 3.00000 -0.17558
v -0.83149 3.00000 -0.34442
v -0.74832 3.00000 -0.50001
v -0.63640 3.00000 -0.63640
v -0.50001 3.00000 -0.74832
v -0.34442 3.00000 -0.83149
v -0.17558 3.00000 -0.88271
v -0.00000 3.00000 -0.90000
v 0.17558 3.00000 -0.88271
v 0.34442 3.00000 -0.83149
v 0.50001 3.00000 -0.74832
v 0.63640 3.00000 -0.63640
v 0.74832 3.00000 -0.50001
v 0.83149 3.00000 -0.34442
v 0.88271 3.00000 -0.17558
v 0.82000 4.40000 0.00000
v 0.80424 4.40000 0.15997
v 0.75758 4.40000 0.31380
v 0.68181 4.40000 0.45557
v 0.57983 4.40000 0.57983
v 0.45557 4.40000 0.68181
v 0.31380 4.40000 0.75758
v 0.15997 4.40000 0.80424
v 0.00000 4.40000 0.82000
v -0.15997 4.40000 0.80424
v -0.31380 4.40000 0.75758
v -0.45557 4.40000 0.68181
v -0.57983 4.40000 0.57983
v -0.68181 4.40000 0.45557
v -0.75758 4.40000 0.31380
v -0.80424 4.40000 0.15997
v -0.82000 4.40000 0.00000
v -0.80424 4.40000 -0.15997
v -0.75758 4.40000 -0.31380
v -0.68181 4.40000 -0.45557
v -0.57983 4.40000 -0.57983
v -0.45557 4.40000 -0.68181
v -0.31380 4.40000 -0.75758
v -0.15997 4.40000 -0.80424
v -0.00000 4.40000 -0.82000
v 0.15997 4.40000 -0.80424
v 0.31380 4.40000 -0.75758
v 0.45557 4.40000 -0.68181
v 0.57983 4.40000 -0.57983
v 0.68181 4.40000 -0.45557
v 0.75758 4.40000 -0.31380
v 0.80424 4.40000 -0.15997
v 0.98000 4.60000 0.00000
v 0.96117 4.60000 0.19119
v 0.90540 4.60000 0.37503
v 0.81484 4.60000 0.54446
v 0.69296 4.60000 0.69296
v 0.54446 4.60000 0.81484
v 0.37503 4.60000 0.90540
v 0.19119 4.60000 0.96117
v 0.00000 4.60000 0.98000
v -0.19119 4.60000 0.96117
v -0.37503 4.60000 0.90540
v -0.54446 4.60000 0.81484
v -0.69296 4.60000 0.69296
v -0.81484 4.60000 0.54446
v -0.90540 4.60000 0.37503
v -0.96117 4.60000 0.19119
v -0.98000 4.60000 0.00000
v -0.96117 4.60000 -0.19119
v -0.90540 4.60000 -0.37503
v -0.81484 4.60000 -0.54446
v -0.69296 4.60000 -0.69296
v -0.54446 4.60000 -0.81484
v -0.37503 4.60000 -0.90540
v -0.19119 4.60000 -0.96117
v -0.00000 4.60000 -0.98000
v 0.19119 4.60000 -0.96117
v 0.37503 4.60000 -0.90540
v 0.54446 4.60000 -0.81484
v 0.69296 4.60000 -0.69296
v 0.81484 4.60000 -0.54446
v 0.90540 4.60000 -0.37503
v 0.96117 4.60000 -0.19119
v 0.78000 5.00000 0.00000
v 0.76501 5.00000 0.15217
v 0.72063 5.00000 0.29849
v 0.64855 5.00000 0.43334
v 0.55154 5.00000 0.55154
v 0.43334 5.00000 0.64855
v 0.29849 5.00000 0.72063
v 0.15217 5.00000 0.76501
v 0.00000 5.00000 0.78000
v -0.15217 5.00000 0.76501
v -0.29849 5.00000 0.72063
v -0.43334 5.00000 0.64855
v -0.55154 5.00000 0.55154
v -0.64855 5.00000 0.43334
v -0.72063 5.00000 0.29849
v -0.76501 5.00000 0.15217
v -0.78000 5.00000 0.00000
v -0.76501 5.00000 -0.15217
v -0.72063 5.00000 -0.29849
v -0.64855 5.00000 -0.43334
v -0.55154 5.00000 -0.55154
v -0.43334 5.00000 -0.64855
v -0.29849 5.00000 -0.72063
v -0.15217 5.00000 -0.76501
v -0.00000 5.00000 -0.78000
v 0.15217 5.00000 -0.76501
v 0.29849 5.00000 -0.72063
v 0.43334 5.00000 -0.64855
v 0.55154 5.00000 -0.55154
v 0.64855 5.00000 -0.43334
v 0.72063 5.00000 -0.29849
v 0.76501 5.00000 -0.15217
v 0.72000 6.90000 0.00000
v 0.70617 6.90000 0.14047
v 0.66519 6.90000 0.27553
v 0.59866 6.90000 0.40001
v 0.50912 6.90000 0.50912
v 0.40001 6.90000 0.59866
v 0.27553 6.90000 0.66519
v 0.14047 6.90000 0.70617
v 0.00000 6.90000 0.72000
v -0.14047 6.90000 0.70617
v -0.27553 6.90000 0.66519
v -0.40001 6.90000 0.59866
v -0.50912 6.90000 0.50912
v -0.59866 6.90000 0.40001
v -0.66519 6.90000 0.27553
v -0.70617 6.90000 0.14047
v -0.72000 6.90000 0.00000
v -0.70617 6.90000 -0.14047
v -0.66519 6.90000 -0.27553
v -0.59866 6.90000 -0.40001
v -0.50912 6.90000 -0.50912
v -0.40001 6.90000 -0.59866
v -0.27553 6.90000 -0.66519
v -0.14047 6.90000 -0.70617
v -0.00000 6.90000 -0.72000
v 0.14047 6.90000 -0.70617
v 0.27553 6.90000 -0.66519
v 0.40001 6.90000 -0.59866
v 0.50912 6.90000 -0.50912
v 0.59866 6.90000 -0.40001
v 0.66519 6.90000 -0.27553
v 0.70617 6.90000 -0.14047
v 0.88000 7.10000 0.00000
v 0.86309 7.10000 0.17168
v 0.81301 7.10000 0.33676
v 0.73169 7.10000 0.48890
v 0.62225 7.10000 0.62225
v 0.48890 7.10000 0.73169
v 0.33676 7.10000 0.81301
v 0.17168 7.10000 0.86309
v 0.00000 7.10000 0.88000
v -0.17168 7.10000 0.86309
v -0.33676 7.10000 0.81301
v -0.48890 7.10000 0.73169
v -0.62225 7.10000 0.62225
v -0.73169 7.10000 0.48890
v -0.81301 7.10000 0.33676
v -0.86309 7.10000 0.17168
v -0.88000 7.10000 0.00000
v -0.86309 7.10000 -0.17168
v -0.81301 7.10000 -0.33676
v -0.73169 7.10000 -0.48890
v -0.62225 7.10000 -0.62225
v -0.48890 7.10000 -0.73169
v -0.33676 7.10000 -0.81301
v -0.17168 7.10000 -0.86309
v -0.00000 7.10000 -0.88000
v 0.17168 7.10000 -0.86309
v 0.33676 7.10000 -0.81301
v 0.48890 7.10000 -0.73169
v 0.62225 7.10000 -0.62225
v 0.73169 7.10000 -0.48890
v 0.81301 7.10000 -0.33676
v 0.86309 7.10000 -0.17168
v 0.66000 7.40000 0.00000
v 0.64732 7.40000 0.12876
v 0.60976 7.40000 0.25257
v 0.54877 7.40000 0.36668
v 0.46669 7.40000 0.46669
v 0.36668 7.40000 0.54877
v 0.25257 7.40000 0.60976
v 0.12876 7.40000 0.64732
v 0.00000 7.40000 0.66000
v -0.12876 7.40000 0.64732
v -0.25257 7.40000 0.60976
v -0.36668 7.40000 0.54877
v -0.46669 7.40000 0.46669
v -0.54877 7.40000 0.36668
v -0.60976 7.40000 0.25257
v -0.64732 7.40000 0.12876
v -0.66000 7.40000 0.00000
v -0.64732 7.40000 -0.12876
v -0.60976 7.40000 -0.25257
v -0.54877 7.40000 -0.36668
v -0.46669 7.40000 -0.46669
v -0.36668 7.40000 -0.54877
v -0.25257 7.40000 -0.60976
v -0.12876 7.40000 -0.64732
v -0.00000 7.40000 -0.66000
v 0.12876 7.40000 -0.64732
v 0.25257 7.40000 -0.60976
v 0.36668 7.40000 -0.54877
v 0.46669 7.40000 -0.46669
v 0.54877 7.40000 -0.36668
v 0.60976 7.40000 -0.25257
v 0.64732 7.40000 -0.12876
v 0.62000 7.70000 0.00000
v 0.60809 7.70000 0.12096
v 0.57281 7.70000 0.23726
v 0.51551 7.70000 0.34445
v 0.43841 7.70000 0.43841
v 0.34445 7.70000 0.51551
v 0.23726 7.70000 0.57281
v 0.12096 7.70000 0.60809
v 0.00000 7.70000 0.62000
v -0.12096 7.70000 0.60809
v -0.23726 7.70000 0.57281
v -0.34445 7.70000 0.51551
v -0.43841 7.70000 0.43841
v -0.51551 7.70000 0.34445
v -0.57281 7.70000 0.23726
v -0.60809 7.70000 0.12096
v -0.62000 7.70000 0.00000
v -0.60809 7.70000 -0.12096
v -0.57281 7.70000 -0.23726
v -0.51551 7.70000 -0.34445
v -0.43841 7.70000 -0.43841
v -0.34445 7.70000 -0.51551
v -0.23726 7.70000 -0.57281
v -0.12096 7.70000 -0.60809
v -0.00000 7.70000 -0.62000
v 0.12096 7.70000 -0.60809
v 0.23726 7.70000 -0.57281
v 0.34445 7.70000 -0.51551
v 0.43841 7.70000 -0.43841
v 0.51551 7.70000 -0.34445
v 0.57281 7.70000 -0.23726
v 0.60809 7.70000 -0.12096
v 0.50000 8.00000 0.00000
v 0.49039 8.00000 0.09755
v 0.46194 8.00000 0.19134
v 0.41573 8.00000 0.27779
v 0.35355 8.00000 0.35355
v 0.27779 8.00000 0.41573
v 0.19134 8.00000 0.46194
v 0.09755 8.00000 0.49039
v 0.00000 8.00000 0.50000
v -0.09755 8.00000 0.49039
v -0.19134 8.00000 0.46194
v -0.27779 8.00000 0.41573
v -0.35355 8.00000 0.35355
v -0.41573 8.00000 0.27779
v -0.46194 8.00000 0.19134
v -0.49039 8.00000 0.09755
v -0.50000 8.00000 0.00000
v -0.49039 8.00000 -0.09755
v -0.46194 8.00000 -0.19134
v -0.41573 8.00000 -0.27779
v -0.35355 8.00000 -0.35355
v -0.27779 8.00000 -0.41573
v -0.19134 8.00000 -0.46194
v -0.09755 8.00000 -0.49039
v -0.00000 8.00000 -0.50000
v 0.09755 8.00000 -0.49039
v 0.19134 8.00000 -0.46194
v 0.27779 8.00000 -0.41573
v 0.35355 8.00000 -0.35355
v 0.41573 8.00000 -0.27779
v 0.46194 8.00000 -0.19134
v 0.49039 8.00000 -0.09755
v 0.00000 8.00000 0.00000
v 0.00000 8.00000 0.00000
v 0.00000 8.00000 0.00000
v 0.00000 8.00000 0.00000
v 0.00000 8.00000 0.00000
v 0.00000 8.00000 0.00000
v 0.00000 8.00000 0.00000
v 0.00000 8.00000 0.00000
v 0.00000 8.00000 0.00000
v -0.00000 8.00000 0.00000
v -0.00000 8.00000 0.00000
v -0.00000 8.00000 0.00000
v -0.00000 8.00000 0.00000
v -0.00000 8.00000 0.00000
v -0.00000 8.00000 0.00000
v -0.00000 8.00000 0.00000
v -0.00000 8.00000 0.00000
v -0.00000 8.00000 -0.00000
v -0.00000 8.00000 -0.00000
v -0.00000 8.00000 -0.00000
v -0.00000 8.00000 -0.00000
v -0.00000 8.00000 -0.00000
v -0.00000 8.00000 -0.00000
v -0.00000 8.00000 -0.00000
v -0.00000 8.00000 -0.00000
v 0.00000 8.00000 -0.00000
v 0.00000 8.00000 -0.00000
v 0.00000 8.00000 -0.00000
v 0.00000 8.00000 -0.00000
v 0.00000 8.00000 -0.00000
v 0.00000 8.00000 -0.00000
v 0.00000 8.00000 -0.00000
vt 0.05000 0.50000
vt 0.15000 0.50000
vt 0.25000 0.50000
vt 0.35000 0.50000
vt 0.45000 0.50000
vt 0.55000 0.50000
vt 0.65000 0.50000
vt 0.75000 0.50000
vt 0.85000 0.50000
vt 0.95000 0.50000
usemtl cream
f 2/1 4/1 3/1 1/1
f 1/1 3/1 97/1
f 4/1 2/1 98/1
f 4/1 6/1 5/1 3/1
f 3/1 5/1 97/1
f 6/1 4/1 98/1
f 6/1 8/1 7/1 5/1
f 5/1 7/1 97/1
f 8/1 6/1 98/1
f 8/1 10/1 9/1 7/1
f 7/1 9/1 97/1
f 10/1 8/1 98/1
f 10/1 12/1 11/1 9/1
f 9/1 11/1 97/1
f 12/1 10/1 98/1
f 12/1 14/1 13/1 11/1
f 11/1 13/1 97/1
f 14/1 12/1 98/1
f 14/1 16/1 15/1 13/1
f 13/1 15/1 97/1
f 16/1 14/1 98/1
f 16/1 18/1 17/1 15/1
f 15/1 17/1 97/1
f 18/1 16/1 98/1
f 18/1 20/1 19/1 17/1
f 17/1 19/1 97/1
f 20/1 18/1 98/1
f 20/1 22/1 21/1 19/1
f 19/1 21/1 97/1
f 22/1 20/1 98/1
f 22/1 24/1 23/1 21/1
f 21/1 23/1 97/1
f 24/1 22/1 98/1
f 24/1 26/1 25/1 23/1
f 23/1 25/1 97/1
f 26/1 24/1 98/1
f 26/1 28/1 27/1 25/1
f 25/1 27/1 97/1
f 28/1 26/1 98/1
f 28/1 30/1 29/1 27/1
f 27/1 29/1 97/1
f 30/1 28/1 98/1
f 30/1 32/1 31/1 29/1
f 29/1 31/1 97/1
f 32/1 30/1 98/1
f 32/1 34/1 33/1 31/1
f 31/1 33/1 97/1
f 34/1 32/1 98/1
f 34/1 36/1 35/1 33/1
f 33/1 35/1 97/1
f 36/1 34/1 98/1
f 36/1 38/1 37/1 35/1
f 35/1 37/1 97/1
f 38/1 36/1 98/1
f 38/1 40/1 39/1 37/1
f 37/1 39/1 97/1
f 40/1 38/1 98/1
f 40/1 42/1 41/1 39/1
f 39/1 41/1 97/1
f 42/1 40/1 98/1
f 42/1 44/1 43/1 41/1
f 41/1 43/1 97/1
f 44/1 42/1 98/1
f 44/1 46/1 45/1 43/1
f 43/1 45/1 97/1
f 46/1 44/1 98/1
f 46/1 48/1 47/1 45/1
f 45/1 47/1 97/1
f 48/1 46/1 98/1
f 48/1 50/1 49/1 47/1
f 47/1 49/1 97/1
f 50/1 48/1 98/1
f 50/1 52/1 51/1 49/1
f 49/1 51/1 97/1
f 52/1 50/1 98/1
f 52/1 54/1 53/1 51/1
f 51/1 53/1 97/1
f 54/1 52/1 98/1
f 54/1 56/1 55/1 53/1
f 53/1 55/1 97/1
f 56/1 54/1 98/1
f 56/1 58/1 57/1 55/1
f 55/1 57/1 97/1
f 58/1 56/1 98/1
f 58/1 60/1 59/1 57/1
f 57/1 59/1 97/1
f 60/1 58/1 98/1
f 60/1 62/1 61/1 59/1
f 59/1 61/1 97/1
f 62/1 60/1 98/1
f 62/1 64/1 63/1 61/1
f 61/1 63/1 97/1
f 64/1 62/1 98/1
f 64/1 66/1 65/1 63/1
f 63/1 65/1 97/1
f 66/1 64/1 98/1
f 66/1 68/1 67/1 65/1
f 65/1 67/1 97/1
f 68/1 66/1 98/1
f 68/1 70/1 69/1 67/1
f 67/1 69/1 97/1
f 70/1 68/1 98/1
f 70/1 72/1 71/1 69/1
f 69/1 71/1 97/1
f 72/1 70/1 98/1
f 72/1 74/1 73/1 71/1
f 71/1 73/1 97/1
f 74/1 72/1 98/1
f 74/1 76/1 75/1 73/1
f 73/1 75/1 97/1
f 76/1 74/1 98/1
f 76/1 78/1 77/1 75/1
f 75/1 77/1 97/1
f 78/1 76/1 98/1
f 78/1 80/1 79/1 77/1
f 77/1 79/1 97/1
f 80/1 78/1 98/1
f 80/1 82/1 81/1 79/1
f 79/1 81/1 97/1
f 82/1 80/1 98/1
f 82/1 84/1 83/1 81/1
f 81/1 83/1 97/1
f 84/1 82/1 98/1
f 84/1 86/1 85/1 83/1
f 83/1 85/1 97/1
f 86/1 84/1 98/1
f 86/1 88/1 87/1 85/1
f 85/1 87/1 97/1
f 88/1 86/1 98/1
f 88/1 90/1 89/1 87/1
f 87/1 89/1 97/1
f 90/1 88/1 98/1
f 90/1 92/1 91/1 89/1
f 89/1 91/1 97/1
f 92/1 90/1 98/1
f 92/1 94/1 93/1 91/1
f 91/1 93/1 97/1
f 94/1 92/1 98/1
f 94/1 96/1 95/1 93/1
f 93/1 95/1 97/1
f 96/1 94/1 98/1
f 96/1 2/1 1/1 95/1
f 95/1 1/1 97/1
f 2/1 96/1 98/1
f 485/1 486/1 497/1
f 492/1 491/1 498/1
f 486/1 487/1 497/1
f 493/1 492/1 498/1
f 487/1 488/1 497/1
f 494/1 493/1 498/1
f 488/1 489/1 497/1
f 495/1 494/1 498/1
f 489/1 490/1 497/1
f 496/1 495/1 498/1
f 490/1 485/1 497/1
f 491/1 496/1 498/1
f 491/1 492/1 486/1 485/1
f 492/1 493/1 487/1 486/1
f 493/1 494/1 488/1 487/1
f 494/1 495/1 489/1 488/1
f 495/1 496/1 490/1 489/1
f 496/1 491/1 485/1 490/1
f 513/1 514/1 525/1
f 520/1 519/1 526/1
f 514/1 515/1 525/1
f 521/1 520/1 526/1
f 515/1 516/1 525/1
f 522/1 521/1 526/1
f 516/1 517/1 525/1
f 523/1 522/1 526/1
f 517/1 518/1 525/1
f 524/1 523/1 526/1
f 518/1 513/1 525/1
f 519/1 524/1 526/1
f 519/1 520/1 514/1 513/1
f 520/1 521/1 515/1 514/1
f 521/1 522/1 516/1 515/1
f 522/1 523/1 517/1 516/1
f 523/1 524/1 518/1 517/1
f 524/1 519/1 513/1 518/1
f 541/1 542/1 553/1
f 548/1 547/1 554/1
f 542/1 543/1 553/1
f 549/1 548/1 554/1
f 543/1 544/1 553/1
f 550/1 549/1 554/1
f 544/1 545/1 553/1
f 551/1 550/1 554/1
f 545/1 546/1 553/1
f 552/1 551/1 554/1
f 546/1 541/1 553/1
f 547/1 552/1 554/1
f 547/1 548/1 542/1 541/1
f 548/1 549/1 543/1 542/1
f 549/1 550/1 544/1 543/1
f 550/1 551/1 545/1 544/1
f 551/1 552/1 546/1 545/1
f 552/1 547/1 541/1 546/1
f 569/1 570/1 581/1
f 576/1 575/1 582/1
f 570/1 571/1 581/1
f 577/1 576/1 582/1
f 571/1 572/1 581/1
f 578/1 577/1 582/1
f 572/1 573/1 581/1
f 579/1 578/1 582/1
f 573/1 574/1 581/1
f 580/1 579/1 582/1
f 574/1 569/1 581/1
f 575/1 580/1 582/1
f 575/1 576/1 570/1 569/1
f 576/1 577/1 571/1 570/1
f 577/1 578/1 572/1 571/1
f 578/1 579/1 573/1 572/1
f 579/1 580/1 574/1 573/1
f 580/1 575/1 569/1 574/1
f 597/1 598/1 609/1
f 604/1 603/1 610/1
f 598/1 599/1 609/1
f 605/1 604/1 610/1
f 599/1 600/1 609/1
f 606/1 605/1 610/1
f 600/1 601/1 609/1
f 607/1 606/1 610/1
f 601/1 602/1 609/1
f 608/1 607/1 610/1
f 602/1 597/1 609/1
f 603/1 608/1 610/1
f 603/1 604/1 598/1 597/1
f 604/1 605/1 599/1 598/1
f 605/1 606/1 600/1 599/1
f 606/1 607/1 601/1 600/1
f 607/1 608/1 602/1 601/1
f 608/1 603/1 597/1 602/1
f 625/1 626/1 637/1
f 632/1 631/1 638/1
f 626/1 627/1 637/1
f 633/1 632/1 638/1
f 627/1 628/1 637/1
f 634/1 633/1 638/1
f 628/1 629/1 637/1
f 635/1 634/1 638/1
f 629/1 630/1 637/1
f 636/1 635/1 638/1
f 630/1 625/1 637/1
f 631/1 636/1 638/1
f 631/1 632/1 626/1 625/1
f 632/1 633/1 627/1 626/1
f 633/1 634/1 628/1 627/1
f 634/1 635/1 629/1 628/1
f 635/1 636/1 630/1 629/1
f 636/1 631/1 625/1 630/1
f 653/1 654/1 665/1
f 660/1 659/1 666/1
f 654/1 655/1 665/1
f 661/1 660/1 666/1
f 655/1 656/1 665/1
f 662/1 661/1 666/1
f 656/1 657/1 665/1
f 663/1 662/1 666/1
f 657/1 658/1 665/1
f 664/1 663/1 666/1
f 658/1 653/1 665/1
f 659/1 664/1 666/1
f 659/1 660/1 654/1 653/1
f 660/1 661/1 655/1 654/1
f 661/1 662/1 656/1 655/1
f 662/1 663/1 657/1 656/1
f 663/1 664/1 658/1 657/1
f 664/1 659/1 653/1 658/1
f 681/1 682/1 693/1
f 688/1 687/1 694/1
f 682/1 683/1 693/1
f 689/1 688/1 694/1
f 683/1 684/1 693/1
f 690/1 689/1 694/1
f 684/1 685/1 693/1
f 691/1 690/1 694/1
f 685/1 686/1 693/1
f 692/1 691/1 694/1
f 686/1 681/1 693/1
f 687/1 692/1 694/1
f 687/1 688/1 682/1 681/1
f 688/1 689/1 683/1 682/1
f 689/1 690/1 684/1 683/1
f 690/1 691/1 685/1 684/1
f 691/1 692/1 686/1 685/1
f 692/1 687/1 681/1 686/1
f 837/1 838/1 806/1 805/1
f 838/1 839/1 807/1 806/1
f 839/1 840/1 808/1 807/1
f 840/1 841/1 809/1 808/1
f 841/1 842/1 810/1 809/1
f 842/1 843/1 811/1 810/1
f 843/1 844/1 812/1 811/1
f 844/1 845/1 813/1 812/1
f 845/1 846/1 814/1 813/1
f 846/1 847/1 815/1 814/1
f 847/1 848/1 816/1 815/1
f 848/1 849/1 817/1 816/1
f 849/1 850/1 818/1 817/1
f 850/1 851/1 819/1 818/1
f 851/1 852/1 820/1 819/1
f 852/1 853/1 821/1 820/1
f 853/1 854/1 822/1 821/1
f 854/1 855/1 823/1 822/1
f 855/1 856/1 824/1 823/1
f 856/1 857/1 825/1 824/1
f 857/1 858/1 826/1 825/1
f 858/1 859/1 827/1 826/1
f 859/1 860/1 828/1 827/1
f 860/1 861/1 829/1 828/1
f 861/1 862/1 830/1 829/1
f 862/1 863/1 831/1 830/1
f 863/1 864/1 832/1 831/1
f 864/1 865/1 833/1 832/1
f 865/1 866/1 834/1 833/1
f 866/1 867/1 835/1 834/1
f 867/1 868/1 836/1 835/1
f 868/1 837/1 805/1 836/1
f 869/1 870/1 838/1 837/1
f 870/1 871/1 839/1 838/1
f 871/1 872/1 840/1 839/1
f 872/1 873/1 841/1 840/1
f 873/1 874/1 842/1 841/1
f 874/1 875/1 843/1 842/1
f 875/1 876/1 844/1 843/1
f 876/1 877/1 845/1 844/1
f 877/1 878/1 846/1 845/1
f 878/1 879/1 847/1 846/1
f 879/1 880/1 848/1 847/1
f 880/1 881/1 849/1 848/1
f 881/1 882/1 850/1 849/1
f 882/1 883/1 851/1 850/1
f 883/1 884/1 852/1 851/1
f 884/1 885/1 853/1 852/1
f 885/1 886/1 854/1 853/1
f 886/1 887/1 855/1 854/1
f 887/1 888/1 856/1 855/1
f 888/1 889/1 857/1 856/1
f 889/1 890/1 858/1 857/1
f 890/1 891/1 859/1 858/1
f 891/1 892/1 860/1 859/1
f 892/1 893/1 861/1 860/1
f 893/1 894/1 862/1 861/1
f 894/1 895/1 863/1 862/1
f 895/1 896/1 864/1 863/1
f 896/1 897/1 865/1 864/1
f 897/1 898/1 866/1 865/1
f 898/1 899/1 867/1 866/1
f 899/1 900/1 868/1 867/1
f 900/1 869/1 837/1 868/1
f 965/1 966/1 934/1 933/1
f 966/1 967/1 935/1 934/1
f 967/1 968/1 936/1 935/1
f 968/1 969/1 937/1 936/1
f 969/1 970/1 938/1 937/1
f 970/1 971/1 939/1 938/1
f 971/1 972/1 940/1 939/1
f 972/1 973/1 941/1 940/1
f 973/1 974/1 942/1 941/1
f 974/1 975/1 943/1 942/1
f 975/1 976/1 944/1 943/1
f 976/1 977/1 945/1 944/1
f 977/1 978/1 946/1 945/1
f 978/1 979/1 947/1 946/1
f 979/1 980/1 948/1 947/1
f 980/1 981/1 949/1 948/1
f 981/1 982/1 950/1 949/1
f 982/1 983/1 951/1 950/1
f 983/1 984/1 952/1 951/1
f 984/1 985/1 953/1 952/1
f 985/1 986/1 954/1 953/1
f 986/1 987/1 955/1 954/1
f 987/1 988/1 956/1 955/1
f 988/1 989/1 957/1 956/1
f 989/1 990/1 958/1 957/1
f 990/1 991/1 959/1 958/1
f 991/1 992/1 960/1 959/1
f 992/1 993/1 961/1 960/1
f 993/1 994/1 962/1 961/1
f 994/1 995/1 963/1 962/1
f 995/1 996/1 964/1 963/1
f 996/1 965/1 933/1 964/1
f 1061/1 1062/1 1030/1 1029/1
f 1062/1 1063/1 1031/1 1030/1
f 1063/1 1064/1 1032/1 1031/1
f 1064/1 1065/1 1033/1 1032/1
f 1065/1 1066/1 1034/1 1033/1
f 1066/1 1067/1 1035/1 1034/1
f 1067/1 1068/1 1036/1 1035/1
f 1068/1 1069/1 1037/1 1036/1
f 1069/1 1070/1 1038/1 1037/1
f 1070/1 1071/1 1039/1 1038/1
f 1071/1 1072/1 1040/1 1039/1
f 1072/1 1073/1 1041/1 1040/1
f 1073/1 1074/1 1042/1 1041/1
f 1074/1 1075/1 1043/1 1042/1
f 1075/1 1076/1 1044/1 1043/1
f 1076/1 1077/1 1045/1 1044/1
f 1077/1 1078/1 1046/1 1045/1
f 1078/1 1079/1 1047/1 1046/1
f 1079/1 1080/1 1048/1 1047/1
f 1080/1 1081/1 1049/1 1048/1
f 1081/1 1082/1 1050/1 1049/1
f 1082/1 1083/1 1051/1 1050/1
f 1083/1 1084/1 1052/1 1051/1
f 1084/1 1085/1 1053/1 1052/1
f 1085/1 1086/1 1054/1 1053/1
f 1086/1 1087/1 1055/1 1054/1
f 1087/1 1088/1 1056/1 1055/1
f 1088/1 1089/1 1057/1 1056/1
f 1089/1 1090/1 1058/1 1057/1
f 1090/1 1091/1 1059/1 1058/1
f 1091/1 1092/1 1060/1 1059/1
f 1092/1 1061/1 1029/1 1060/1
usemtl coral
f 100/2 102/2 101/2 99/2
f 99/2 101/2 195/2
f 102/2 100/2 196/2
f 102/2 104/2 103/2 101/2
f 101/2 103/2 195/2
f 104/2 102/2 196/2
f 104/2 106/2 105/2 103/2
f 103/2 105/2 195/2
f 106/2 104/2 196/2
f 106/2 108/2 107/2 105/2
f 105/2 107/2 195/2
f 108/2 106/2 196/2
f 108/2 110/2 109/2 107/2
f 107/2 109/2 195/2
f 110/2 108/2 196/2
f 110/2 112/2 111/2 109/2
f 109/2 111/2 195/2
f 112/2 110/2 196/2
f 112/2 114/2 113/2 111/2
f 111/2 113/2 195/2
f 114/2 112/2 196/2
f 114/2 116/2 115/2 113/2
f 113/2 115/2 195/2
f 116/2 114/2 196/2
f 116/2 118/2 117/2 115/2
f 115/2 117/2 195/2
f 118/2 116/2 196/2
f 118/2 120/2 119/2 117/2
f 117/2 119/2 195/2
f 120/2 118/2 196/2
f 120/2 122/2 121/2 119/2
f 119/2 121/2 195/2
f 122/2 120/2 196/2
f 122/2 124/2 123/2 121/2
f 121/2 123/2 195/2
f 124/2 122/2 196/2
f 124/2 126/2 125/2 123/2
f 123/2 125/2 195/2
f 126/2 124/2 196/2
f 126/2 128/2 127/2 125/2
f 125/2 127/2 195/2
f 128/2 126/2 196/2
f 128/2 130/2 129/2 127/2
f 127/2 129/2 195/2
f 130/2 128/2 196/2
f 130/2 132/2 131/2 129/2
f 129/2 131/2 195/2
f 132/2 130/2 196/2
f 132/2 134/2 133/2 131/2
f 131/2 133/2 195/2
f 134/2 132/2 196/2
f 134/2 136/2 135/2 133/2
f 133/2 135/2 195/2
f 136/2 134/2 196/2
f 136/2 138/2 137/2 135/2
f 135/2 137/2 195/2
f 138/2 136/2 196/2
f 138/2 140/2 139/2 137/2
f 137/2 139/2 195/2
f 140/2 138/2 196/2
f 140/2 142/2 141/2 139/2
f 139/2 141/2 195/2
f 142/2 140/2 196/2
f 142/2 144/2 143/2 141/2
f 141/2 143/2 195/2
f 144/2 142/2 196/2
f 144/2 146/2 145/2 143/2
f 143/2 145/2 195/2
f 146/2 144/2 196/2
f 146/2 148/2 147/2 145/2
f 145/2 147/2 195/2
f 148/2 146/2 196/2
f 148/2 150/2 149/2 147/2
f 147/2 149/2 195/2
f 150/2 148/2 196/2
f 150/2 152/2 151/2 149/2
f 149/2 151/2 195/2
f 152/2 150/2 196/2
f 152/2 154/2 153/2 151/2
f 151/2 153/2 195/2
f 154/2 152/2 196/2
f 154/2 156/2 155/2 153/2
f 153/2 155/2 195/2
f 156/2 154/2 196/2
f 156/2 158/2 157/2 155/2
f 155/2 157/2 195/2
f 158/2 156/2 196/2
f 158/2 160/2 159/2 157/2
f 157/2 159/2 195/2
f 160/2 158/2 196/2
f 160/2 162/2 161/2 159/2
f 159/2 161/2 195/2
f 162/2 160/2 196/2
f 162/2 164/2 163/2 161/2
f 161/2 163/2 195/2
f 164/2 162/2 196/2
f 164/2 166/2 165/2 163/2
f 163/2 165/2 195/2
f 166/2 164/2 196/2
f 166/2 168/2 167/2 165/2
f 165/2 167/2 195/2
f 168/2 166/2 196/2
f 168/2 170/2 169/2 167/2
f 167/2 169/2 195/2
f 170/2 168/2 196/2
f 170/2 172/2 171/2 169/2
f 169/2 171/2 195/2
f 172/2 170/2 196/2
f 172/2 174/2 173/2 171/2
f 171/2 173/2 195/2
f 174/2 172/2 196/2
f 174/2 176/2 175/2 173/2
f 173/2 175/2 195/2
f 176/2 174/2 196/2
f 176/2 178/2 177/2 175/2
f 175/2 177/2 195/2
f 178/2 176/2 196/2
f 178/2 180/2 179/2 177/2
f 177/2 179/2 195/2
f 180/2 178/2 196/2
f 180/2 182/2 181/2 179/2
f 179/2 181/2 195/2
f 182/2 180/2 196/2
f 182/2 184/2 183/2 181/2
f 181/2 183/2 195/2
f 184/2 182/2 196/2
f 184/2 186/2 185/2 183/2
f 183/2 185/2 195/2
f 186/2 184/2 196/2
f 186/2 188/2 187/2 185/2
f 185/2 187/2 195/2
f 188/2 186/2 196/2
f 188/2 190/2 189/2 187/2
f 187/2 189/2 195/2
f 190/2 188/2 196/2
f 190/2 192/2 191/2 189/2
f 189/2 191/2 195/2
f 192/2 190/2 196/2
f 192/2 194/2 193/2 191/2
f 191/2 193/2 195/2
f 194/2 192/2 196/2
f 194/2 100/2 99/2 193/2
f 193/2 99/2 195/2
f 100/2 194/2 196/2
f 805/2 806/2 774/2 773/2
f 806/2 807/2 775/2 774/2
f 807/2 808/2 776/2 775/2
f 808/2 809/2 777/2 776/2
f 809/2 810/2 778/2 777/2
f 810/2 811/2 779/2 778/2
f 811/2 812/2 780/2 779/2
f 812/2 813/2 781/2 780/2
f 813/2 814/2 782/2 781/2
f 814/2 815/2 783/2 782/2
f 815/2 816/2 784/2 783/2
f 816/2 817/2 785/2 784/2
f 817/2 818/2 786/2 785/2
f 818/2 819/2 787/2 786/2
f 819/2 820/2 788/2 787/2
f 820/2 821/2 789/2 788/2
f 821/2 822/2 790/2 789/2
f 822/2 823/2 791/2 790/2
f 823/2 824/2 792/2 791/2
f 824/2 825/2 793/2 792/2
f 825/2 826/2 794/2 793/2
f 826/2 827/2 795/2 794/2
f 827/2 828/2 796/2 795/2
f 828/2 829/2 797/2 796/2
f 829/2 830/2 798/2 797/2
f 830/2 831/2 799/2 798/2
f 831/2 832/2 800/2 799/2
f 832/2 833/2 801/2 800/2
f 833/2 834/2 802/2 801/2
f 834/2 835/2 803/2 802/2
f 835/2 836/2 804/2 803/2
f 836/2 805/2 773/2 804/2
f 1029/2 1030/2 998/2 997/2
f 1030/2 1031/2 999/2 998/2
f 1031/2 1032/2 1000/2 999/2
f 1032/2 1033/2 1001/2 1000/2
f 1033/2 1034/2 1002/2 1001/2
f 1034/2 1035/2 1003/2 1002/2
f 1035/2 1036/2 1004/2 1003/2
f 1036/2 1037/2 1005/2 1004/2
f 1037/2 1038/2 1006/2 1005/2
f 1038/2 1039/2 1007/2 1006/2
f 1039/2 1040/2 1008/2 1007/2
f 1040/2 1041/2 1009/2 1008/2
f 1041/2 1042/2 1010/2 1009/2
f 1042/2 1043/2 1011/2 1010/2
f 1043/2 1044/2 1012/2 1011/2
f 1044/2 1045/2 1013/2 1012/2
f 1045/2 1046/2 1014/2 1013/2
f 1046/2 1047/2 1015/2 1014/2
f 1047/2 1048/2 1016/2 1015/2
f 1048/2 1049/2 1017/2 1016/2
f 1049/2 1050/2 1018/2 1017/2
f 1050/2 1051/2 1019/2 1018/2
f 1051/2 1052/2 1020/2 1019/2
f 1052/2 1053/2 1021/2 1020/2
f 1053/2 1054/2 1022/2 1021/2
f 1054/2 1055/2 1023/2 1022/2
f 1055/2 1056/2 1024/2 1023/2
f 1056/2 1057/2 1025/2 1024/2
f 1057/2 1058/2 1026/2 1025/2
f 1058/2 1059/2 1027/2 1026/2
f 1059/2 1060/2 1028/2 1027/2
f 1060/2 1029/2 997/2 1028/2
usemtl gold
f 197/4 198/4 204/4 203/4
f 198/4 199/4 205/4 204/4
f 199/4 200/4 206/4 205/4
f 200/4 201/4 207/4 206/4
f 201/4 202/4 208/4 207/4
f 202/4 197/4 203/4 208/4
f 203/4 204/4 210/4 209/4
f 204/4 205/4 211/4 210/4
f 205/4 206/4 212/4 211/4
f 206/4 207/4 213/4 212/4
f 207/4 208/4 214/4 213/4
f 208/4 203/4 209/4 214/4
f 209/4 210/4 216/4 215/4
f 210/4 211/4 217/4 216/4
f 211/4 212/4 218/4 217/4
f 212/4 213/4 219/4 218/4
f 213/4 214/4 220/4 219/4
f 214/4 209/4 215/4 220/4
f 215/4 216/4 222/4 221/4
f 216/4 217/4 223/4 222/4
f 217/4 218/4 224/4 223/4
f 218/4 219/4 225/4 224/4
f 219/4 220/4 226/4 225/4
f 220/4 215/4 221/4 226/4
f 221/4 222/4 228/4 227/4
f 222/4 223/4 229/4 228/4
f 223/4 224/4 230/4 229/4
f 224/4 225/4 231/4 230/4
f 225/4 226/4 232/4 231/4
f 226/4 221/4 227/4 232/4
f 227/4 228/4 234/4 233/4
f 228/4 229/4 235/4 234/4
f 229/4 230/4 236/4 235/4
f 230/4 231/4 237/4 236/4
f 231/4 232/4 238/4 237/4
f 232/4 227/4 233/4 238/4
f 233/4 234/4 240/4 239/4
f 234/4 235/4 241/4 240/4
f 235/4 236/4 242/4 241/4
f 236/4 237/4 243/4 242/4
f 237/4 238/4 244/4 243/4
f 238/4 233/4 239/4 244/4
f 239/4 240/4 246/4 245/4
f 240/4 241/4 247/4 246/4
f 241/4 242/4 248/4 247/4
f 242/4 243/4 249/4 248/4
f 243/4 244/4 250/4 249/4
f 244/4 239/4 245/4 250/4
f 245/4 246/4 252/4 251/4
f 246/4 247/4 253/4 252/4
f 247/4 248/4 254/4 253/4
f 248/4 249/4 255/4 254/4
f 249/4 250/4 256/4 255/4
f 250/4 245/4 251/4 256/4
f 251/4 252/4 258/4 257/4
f 252/4 253/4 259/4 258/4
f 253/4 254/4 260/4 259/4
f 254/4 255/4 261/4 260/4
f 255/4 256/4 262/4 261/4
f 256/4 251/4 257/4 262/4
f 257/4 258/4 264/4 263/4
f 258/4 259/4 265/4 264/4
f 259/4 260/4 266/4 265/4
f 260/4 261/4 267/4 266/4
f 261/4 262/4 268/4 267/4
f 262/4 257/4 263/4 268/4
f 263/4 264/4 270/4 269/4
f 264/4 265/4 271/4 270/4
f 265/4 266/4 272/4 271/4
f 266/4 267/4 273/4 272/4
f 267/4 268/4 274/4 273/4
f 268/4 263/4 269/4 274/4
f 269/4 270/4 276/4 275/4
f 270/4 271/4 277/4 276/4
f 271/4 272/4 278/4 277/4
f 272/4 273/4 279/4 278/4
f 273/4 274/4 280/4 279/4
f 274/4 269/4 275/4 280/4
f 275/4 276/4 282/4 281/4
f 276/4 277/4 283/4 282/4
f 277/4 278/4 284/4 283/4
f 278/4 279/4 285/4 284/4
f 279/4 280/4 286/4 285/4
f 280/4 275/4 281/4 286/4
f 281/4 282/4 288/4 287/4
f 282/4 283/4 289/4 288/4
f 283/4 284/4 290/4 289/4
f 284/4 285/4 291/4 290/4
f 285/4 286/4 292/4 291/4
f 286/4 281/4 287/4 292/4
f 287/4 288/4 294/4 293/4
f 288/4 289/4 295/4 294/4
f 289/4 290/4 296/4 295/4
f 290/4 291/4 297/4 296/4
f 291/4 292/4 298/4 297/4
f 292/4 287/4 293/4 298/4
f 293/4 294/4 300/4 299/4
f 294/4 295/4 301/4 300/4
f 295/4 296/4 302/4 301/4
f 296/4 297/4 303/4 302/4
f 297/4 298/4 304/4 303/4
f 298/4 293/4 299/4 304/4
f 299/4 300/4 306/4 305/4
f 300/4 301/4 307/4 306/4
f 301/4 302/4 308/4 307/4
f 302/4 303/4 309/4 308/4
f 303/4 304/4 310/4 309/4
f 304/4 299/4 305/4 310/4
f 305/4 306/4 312/4 311/4
f 306/4 307/4 313/4 312/4
f 307/4 308/4 314/4 313/4
f 308/4 309/4 315/4 314/4
f 309/4 310/4 316/4 315/4
f 310/4 305/4 311/4 316/4
f 311/4 312/4 318/4 317/4
f 312/4 313/4 319/4 318/4
f 313/4 314/4 320/4 319/4
f 314/4 315/4 321/4 320/4
f 315/4 316/4 322/4 321/4
f 316/4 311/4 317/4 322/4
f 317/4 318/4 324/4 323/4
f 318/4 319/4 325/4 324/4
f 319/4 320/4 326/4 325/4
f 320/4 321/4 327/4 326/4
f 321/4 322/4 328/4 327/4
f 322/4 317/4 323/4 328/4
f 323/4 324/4 330/4 329/4
f 324/4 325/4 331/4 330/4
f 325/4 326/4 332/4 331/4
f 326/4 327/4 333/4 332/4
f 327/4 328/4 334/4 333/4
f 328/4 323/4 329/4 334/4
f 329/4 330/4 336/4 335/4
f 330/4 331/4 337/4 336/4
f 331/4 332/4 338/4 337/4
f 332/4 333/4 339/4 338/4
f 333/4 334/4 340/4 339/4
f 334/4 329/4 335/4 340/4
f 335/4 336/4 342/4 341/4
f 336/4 337/4 343/4 342/4
f 337/4 338/4 344/4 343/4
f 338/4 339/4 345/4 344/4
f 339/4 340/4 346/4 345/4
f 340/4 335/4 341/4 346/4
f 341/4 342/4 348/4 347/4
f 342/4 343/4 349/4 348/4
f 343/4 344/4 350/4 349/4
f 344/4 345/4 351/4 350/4
f 345/4 346/4 352/4 351/4
f 346/4 341/4 347/4 352/4
f 347/4 348/4 354/4 353/4
f 348/4 349/4 355/4 354/4
f 349/4 350/4 356/4 355/4
f 350/4 351/4 357/4 356/4
f 351/4 352/4 358/4 357/4
f 352/4 347/4 353/4 358/4
f 353/4 354/4 360/4 359/4
f 354/4 355/4 361/4 360/4
f 355/4 356/4 362/4 361/4
f 356/4 357/4 363/4 362/4
f 357/4 358/4 364/4 363/4
f 358/4 353/4 359/4 364/4
f 359/4 360/4 366/4 365/4
f 360/4 361/4 367/4 366/4
f 361/4 362/4 368/4 367/4
f 362/4 363/4 369/4 368/4
f 363/4 364/4 370/4 369/4
f 364/4 359/4 365/4 370/4
f 365/4 366/4 372/4 371/4
f 366/4 367/4 373/4 372/4
f 367/4 368/4 374/4 373/4
f 368/4 369/4 375/4 374/4
f 369/4 370/4 376/4 375/4
f 370/4 365/4 371/4 376/4
f 371/4 372/4 378/4 377/4
f 372/4 373/4 379/4 378/4
f 373/4 374/4 380/4 379/4
f 374/4 375/4 381/4 380/4
f 375/4 376/4 382/4 381/4
f 376/4 371/4 377/4 382/4
f 377/4 378/4 384/4 383/4
f 378/4 379/4 385/4 384/4
f 379/4 380/4 386/4 385/4
f 380/4 381/4 387/4 386/4
f 381/4 382/4 388/4 387/4
f 382/4 377/4 383/4 388/4
f 383/4 384/4 390/4 389/4
f 384/4 385/4 391/4 390/4
f 385/4 386/4 392/4 391/4
f 386/4 387/4 393/4 392/4
f 387/4 388/4 394/4 393/4
f 388/4 383/4 389/4 394/4
f 389/4 390/4 396/4 395/4
f 390/4 391/4 397/4 396/4
f 391/4 392/4 398/4 397/4
f 392/4 393/4 399/4 398/4
f 393/4 394/4 400/4 399/4
f 394/4 389/4 395/4 400/4
f 395/4 396/4 402/4 401/4
f 396/4 397/4 403/4 402/4
f 397/4 398/4 404/4 403/4
f 398/4 399/4 405/4 404/4
f 399/4 400/4 406/4 405/4
f 400/4 395/4 401/4 406/4
f 401/4 402/4 408/4 407/4
f 402/4 403/4 409/4 408/4
f 403/4 404/4 410/4 409/4
f 404/4 405/4 411/4 410/4
f 405/4 406/4 412/4 411/4
f 406/4 401/4 407/4 412/4
f 407/4 408/4 414/4 413/4
f 408/4 409/4 415/4 414/4
f 409/4 410/4 416/4 415/4
f 410/4 411/4 417/4 416/4
f 411/4 412/4 418/4 417/4
f 412/4 407/4 413/4 418/4
f 413/4 414/4 420/4 419/4
f 414/4 415/4 421/4 420/4
f 415/4 416/4 422/4 421/4
f 416/4 417/4 423/4 422/4
f 417/4 418/4 424/4 423/4
f 418/4 413/4 419/4 424/4
f 419/4 420/4 426/4 425/4
f 420/4 421/4 427/4 426/4
f 421/4 422/4 428/4 427/4
f 422/4 423/4 429/4 428/4
f 423/4 424/4 430/4 429/4
f 424/4 419/4 425/4 430/4
f 425/4 426/4 432/4 431/4
f 426/4 427/4 433/4 432/4
f 427/4 428/4 434/4 433/4
f 428/4 429/4 435/4 434/4
f 429/4 430/4 436/4 435/4
f 430/4 425/4 431/4 436/4
f 431/4 432/4 438/4 437/4
f 432/4 433/4 439/4 438/4
f 433/4 434/4 440/4 439/4
f 434/4 435/4 441/4 440/4
f 435/4 436/4 442/4 441/4
f 436/4 431/4 437/4 442/4
f 437/4 438/4 444/4 443/4
f 438/4 439/4 445/4 444/4
f 439/4 440/4 446/4 445/4
f 440/4 441/4 447/4 446/4
f 441/4 442/4 448/4 447/4
f 442/4 437/4 443/4 448/4
f 443/4 444/4 450/4 449/4
f 444/4 445/4 451/4 450/4
f 445/4 446/4 452/4 451/4
f 446/4 447/4 453/4 452/4
f 447/4 448/4 454/4 453/4
f 448/4 443/4 449/4 454/4
f 449/4 450/4 456/4 455/4
f 450/4 451/4 457/4 456/4
f 451/4 452/4 458/4 457/4
f 452/4 453/4 459/4 458/4
f 453/4 454/4 460/4 459/4
f 454/4 449/4 455/4 460/4
f 455/4 456/4 462/4 461/4
f 456/4 457/4 463/4 462/4
f 457/4 458/4 464/4 463/4
f 458/4 459/4 465/4 464/4
f 459/4 460/4 466/4 465/4
f 460/4 455/4 461/4 466/4
f 461/4 462/4 468/4 467/4
f 462/4 463/4 469/4 468/4
f 463/4 464/4 470/4 469/4
f 464/4 465/4 471/4 470/4
f 465/4 466/4 472/4 471/4
f 466/4 461/4 467/4 472/4
f 467/4 468/4 474/4 473/4
f 468/4 469/4 475/4 474/4
f 469/4 470/4 476/4 475/4
f 470/4 471/4 477/4 476/4
f 471/4 472/4 478/4 477/4
f 472/4 467/4 473/4 478/4
f 473/4 474/4 480/4 479/4
f 474/4 475/4 481/4 480/4
f 475/4 476/4 482/4 481/4
f 476/4 477/4 483/4 482/4
f 477/4 478/4 484/4 483/4
f 478/4 473/4 479/4 484/4
f 479/4 480/4 198/4 197/4
f 480/4 481/4 199/4 198/4
f 481/4 482/4 200/4 199/4
f 482/4 483/4 201/4 200/4
f 483/4 484/4 202/4 201/4
f 484/4 479/4 197/4 202/4
f 499/4 500/4 511/4
f 506/4 505/4 512/4
f 500/4 501/4 511/4
f 507/4 506/4 512/4
f 501/4 502/4 511/4
f 508/4 507/4 512/4
f 502/4 503/4 511/4
f 509/4 508/4 512/4
f 503/4 504/4 511/4
f 510/4 509/4 512/4
f 504/4 499/4 511/4
f 505/4 510/4 512/4
f 505/4 506/4 500/4 499/4
f 506/4 507/4 501/4 500/4
f 507/4 508/4 502/4 501/4
f 508/4 509/4 503/4 502/4
f 509/4 510/4 504/4 503/4
f 510/4 505/4 499/4 504/4
f 527/4 528/4 539/4
f 534/4 533/4 540/4
f 528/4 529/4 539/4
f 535/4 534/4 540/4
f 529/4 530/4 539/4
f 536/4 535/4 540/4
f 530/4 531/4 539/4
f 537/4 536/4 540/4
f 531/4 532/4 539/4
f 538/4 537/4 540/4
f 532/4 527/4 539/4
f 533/4 538/4 540/4
f 533/4 534/4 528/4 527/4
f 534/4 535/4 529/4 528/4
f 535/4 536/4 530/4 529/4
f 536/4 537/4 531/4 530/4
f 537/4 538/4 532/4 531/4
f 538/4 533/4 527/4 532/4
f 555/4 556/4 567/4
f 562/4 561/4 568/4
f 556/4 557/4 567/4
f 563/4 562/4 568/4
f 557/4 558/4 567/4
f 564/4 563/4 568/4
f 558/4 559/4 567/4
f 565/4 564/4 568/4
f 559/4 560/4 567/4
f 566/4 565/4 568/4
f 560/4 555/4 567/4
f 561/4 566/4 568/4
f 561/4 562/4 556/4 555/4
f 562/4 563/4 557/4 556/4
f 563/4 564/4 558/4 557/4
f 564/4 565/4 559/4 558/4
f 565/4 566/4 560/4 559/4
f 566/4 561/4 555/4 560/4
f 583/4 584/4 595/4
f 590/4 589/4 596/4
f 584/4 585/4 595/4
f 591/4 590/4 596/4
f 585/4 586/4 595/4
f 592/4 591/4 596/4
f 586/4 587/4 595/4
f 593/4 592/4 596/4
f 587/4 588/4 595/4
f 594/4 593/4 596/4
f 588/4 583/4 595/4
f 589/4 594/4 596/4
f 589/4 590/4 584/4 583/4
f 590/4 591/4 585/4 584/4
f 591/4 592/4 586/4 585/4
f 592/4 593/4 587/4 586/4
f 593/4 594/4 588/4 587/4
f 594/4 589/4 583/4 588/4
f 611/4 612/4 623/4
f 618/4 617/4 624/4
f 612/4 613/4 623/4
f 619/4 618/4 624/4
f 613/4 614/4 623/4
f 620/4 619/4 624/4
f 614/4 615/4 623/4
f 621/4 620/4 624/4
f 615/4 616/4 623/4
f 622/4 621/4 624/4
f 616/4 611/4 623/4
f 617/4 622/4 624/4
f 617/4 618/4 612/4 611/4
f 618/4 619/4 613/4 612/4
f 619/4 620/4 614/4 613/4
f 620/4 621/4 615/4 614/4
f 621/4 622/4 616/4 615/4
f 622/4 617/4 611/4 616/4
f 639/4 640/4 651/4
f 646/4 645/4 652/4
f 640/4 641/4 651/4
f 647/4 646/4 652/4
f 641/4 642/4 651/4
f 648/4 647/4 652/4
f 642/4 643/4 651/4
f 649/4 648/4 652/4
f 643/4 644/4 651/4
f 650/4 649/4 652/4
f 644/4 639/4 651/4
f 645/4 650/4 652/4
f 645/4 646/4 640/4 639/4
f 646/4 647/4 641/4 640/4
f 647/4 648/4 642/4 641/4
f 648/4 649/4 643/4 642/4
f 649/4 650/4 644/4 643/4
f 650/4 645/4 639/4 644/4
f 667/4 668/4 679/4
f 674/4 673/4 680/4
f 668/4 669/4 679/4
f 675/4 674/4 680/4
f 669/4 670/4 679/4
f 676/4 675/4 680/4
f 670/4 671/4 679/4
f 677/4 676/4 680/4
f 671/4 672/4 679/4
f 678/4 677/4 680/4
f 672/4 667/4 679/4
f 673/4 678/4 680/4
f 673/4 674/4 668/4 667/4
f 674/4 675/4 669/4 668/4
f 675/4 676/4 670/4 669/4
f 676/4 677/4 671/4 670/4
f 677/4 678/4 672/4 671/4
f 678/4 673/4 667/4 672/4
f 695/4 696/4 707/4
f 702/4 701/4 708/4
f 696/4 697/4 707/4
f 703/4 702/4 708/4
f 697/4 698/4 707/4
f 704/4 703/4 708/4
f 698/4 699/4 707/4
f 705/4 704/4 708/4
f 699/4 700/4 707/4
f 706/4 705/4 708/4
f 700/4 695/4 707/4
f 701/4 706/4 708/4
f 701/4 702/4 696/4 695/4
f 702/4 703/4 697/4 696/4
f 703/4 704/4 698/4 697/4
f 704/4 705/4 699/4 698/4
f 705/4 706/4 700/4 699/4
f 706/4 701/4 695/4 700/4
f 773/4 774/4 742/4 741/4
f 774/4 775/4 743/4 742/4
f 775/4 776/4 744/4 743/4
f 776/4 777/4 745/4 744/4
f 777/4 778/4 746/4 745/4
f 778/4 779/4 747/4 746/4
f 779/4 780/4 748/4 747/4
f 780/4 781/4 749/4 748/4
f 781/4 782/4 750/4 749/4
f 782/4 783/4 751/4 750/4
f 783/4 784/4 752/4 751/4
f 784/4 785/4 753/4 752/4
f 785/4 786/4 754/4 753/4
f 786/4 787/4 755/4 754/4
f 787/4 788/4 756/4 755/4
f 788/4 789/4 757/4 756/4
f 789/4 790/4 758/4 757/4
f 790/4 791/4 759/4 758/4
f 791/4 792/4 760/4 759/4
f 792/4 793/4 761/4 760/4
f 793/4 794/4 762/4 761/4
f 794/4 795/4 763/4 762/4
f 795/4 796/4 764/4 763/4
f 796/4 797/4 765/4 764/4
f 797/4 798/4 766/4 765/4
f 798/4 799/4 767/4 766/4
f 799/4 800/4 768/4 767/4
f 800/4 801/4 769/4 768/4
f 801/4 802/4 770/4 769/4
f 802/4 803/4 771/4 770/4
f 803/4 804/4 772/4 771/4
f 804/4 773/4 741/4 772/4
f 901/4 902/4 870/4 869/4
f 902/4 903/4 871/4 870/4
f 903/4 904/4 872/4 871/4
f 904/4 905/4 873/4 872/4
f 905/4 906/4 874/4 873/4
f 906/4 907/4 875/4 874/4
f 907/4 908/4 876/4 875/4
f 908/4 909/4 877/4 876/4
f 909/4 910/4 878/4 877/4
f 910/4 911/4 879/4 878/4
f 911/4 912/4 880/4 879/4
f 912/4 913/4 881/4 880/4
f 913/4 914/4 882/4 881/4
f 914/4 915/4 883/4 882/4
f 915/4 916/4 884/4 883/4
f 916/4 917/4 885/4 884/4
f 917/4 918/4 886/4 885/4
f 918/4 919/4 887/4 886/4
f 919/4 920/4 888/4 887/4
f 920/4 921/4 889/4 888/4
f 921/4 922/4 890/4 889/4
f 922/4 923/4 891/4 890/4
f 923/4 924/4 892/4 891/4
f 924/4 925/4 893/4 892/4
f 925/4 926/4 894/4 893/4
f 926/4 927/4 895/4 894/4
f 927/4 928/4 896/4 895/4
f 928/4 929/4 897/4 896/4
f 929/4 930/4 898/4 897/4
f 930/4 931/4 899/4 898/4
f 931/4 932/4 900/4 899/4
f 932/4 901/4 869/4 900/4
f 997/4 998/4 966/4 965/4
f 998/4 999/4 967/4 966/4
f 999/4 1000/4 968/4 967/4
f 1000/4 1001/4 969/4 968/4
f 1001/4 1002/4 970/4 969/4
f 1002/4 1003/4 971/4 970/4
f 1003/4 1004/4 972/4 971/4
f 1004/4 1005/4 973/4 972/4
f 1005/4 1006/4 974/4 973/4
f 1006/4 1007/4 975/4 974/4
f 1007/4 1008/4 976/4 975/4
f 1008/4 1009/4 977/4 976/4
f 1009/4 1010/4 978/4 977/4
f 1010/4 1011/4 979/4 978/4
f 1011/4 1012/4 980/4 979/4
f 1012/4 1013/4 981/4 980/4
f 1013/4 1014/4 982/4 981/4
f 1014/4 1015/4 983/4 982/4
f 1015/4 1016/4 984/4 983/4
f 1016/4 1017/4 985/4 984/4
f 1017/4 1018/4 986/4 985/4
f 1018/4 1019/4 987/4 986/4
f 1019/4 1020/4 988/4 987/4
f 1020/4 1021/4 989/4 988/4
f 1021/4 1022/4 990/4 989/4
f 1022/4 1023/4 991/4 990/4
f 1023/4 1024/4 992/4 991/4
f 1024/4 1025/4 993/4 992/4
f 1025/4 1026/4 994/4 993/4
f 1026/4 1027/4 995/4 994/4
f 1027/4 1028/4 996/4 995/4
f 1028/4 997/4 965/4 996/4
f 1093/4 1094/4 1062/4 1061/4
f 1094/4 1095/4 1063/4 1062/4
f 1095/4 1096/4 1064/4 1063/4
f 1096/4 1097/4 1065/4 1064/4
f 1097/4 1098/4 1066/4 1065/4
f 1098/4 1099/4 1067/4 1066/4
f 1099/4 1100/4 1068/4 1067/4
f 1100/4 1101/4 1069/4 1068/4
f 1101/4 1102/4 1070/4 1069/4
f 1102/4 1103/4 1071/4 1070/4
f 1103/4 1104/4 1072/4 1071/4
f 1104/4 1105/4 1073/4 1072/4
f 1105/4 1106/4 1074/4 1073/4
f 1106/4 1107/4 1075/4 1074/4
f 1107/4 1108/4 1076/4 1075/4
f 1108/4 1109/4 1077/4 1076/4
f 1109/4 1110/4 1078/4 1077/4
f 1110/4 1111/4 1079/4 1078/4
f 1111/4 1112/4 1080/4 1079/4
f 1112/4 1113/4 1081/4 1080/4
f 1113/4 1114/4 1082/4 1081/4
f 1114/4 1115/4 1083/4 1082/4
f 1115/4 1116/4 1084/4 1083/4
f 1116/4 1117/4 1085/4 1084/4
f 1117/4 1118/4 1086/4 1085/4
f 1118/4 1119/4 1087/4 1086/4
f 1119/4 1120/4 1088/4 1087/4
f 1120/4 1121/4 1089/4 1088/4
f 1121/4 1122/4 1090/4 1089/4
f 1122/4 1123/4 1091/4 1090/4
f 1123/4 1124/4 1092/4 1091/4
f 1124/4 1093/4 1061/4 1092/4
f 1125/4 1126/4 1094/4 1093/4
f 1126/4 1127/4 1095/4 1094/4
f 1127/4 1128/4 1096/4 1095/4
f 1128/4 1129/4 1097/4 1096/4
f 1129/4 1130/4 1098/4 1097/4
f 1130/4 1131/4 1099/4 1098/4
f 1131/4 1132/4 1100/4 1099/4
f 1132/4 1133/4 1101/4 1100/4
f 1133/4 1134/4 1102/4 1101/4
f 1134/4 1135/4 1103/4 1102/4
f 1135/4 1136/4 1104/4 1103/4
f 1136/4 1137/4 1105/4 1104/4
f 1137/4 1138/4 1106/4 1105/4
f 1138/4 1139/4 1107/4 1106/4
f 1139/4 1140/4 1108/4 1107/4
f 1140/4 1141/4 1109/4 1108/4
f 1141/4 1142/4 1110/4 1109/4
f 1142/4 1143/4 1111/4 1110/4
f 1143/4 1144/4 1112/4 1111/4
f 1144/4 1145/4 1113/4 1112/4
f 1145/4 1146/4 1114/4 1113/4
f 1146/4 1147/4 1115/4 1114/4
f 1147/4 1148/4 1116/4 1115/4
f 1148/4 1149/4 1117/4 1116/4
f 1149/4 1150/4 1118/4 1117/4
f 1150/4 1151/4 1119/4 1118/4
f 1151/4 1152/4 1120/4 1119/4
f 1152/4 1153/4 1121/4 1120/4
f 1153/4 1154/4 1122/4 1121/4
f 1154/4 1155/4 1123/4 1122/4
f 1155/4 1156/4 1124/4 1123/4
f 1156/4 1125/4 1093/4 1124/4
usemtl wood
f 741/5 742/5 710/5 709/5
f 742/5 743/5 711/5 710/5
f 743/5 744/5 712/5 711/5
f 744/5 745/5 713/5 712/5
f 745/5 746/5 714/5 713/5
f 746/5 747/5 715/5 714/5
f 747/5 748/5 716/5 715/5
f 748/5 749/5 717/5 716/5
f 749/5 750/5 718/5 717/5
f 750/5 751/5 719/5 718/5
f 751/5 752/5 720/5 719/5
f 752/5 753/5 721/5 720/5
f 753/5 754/5 722/5 721/5
f 754/5 755/5 723/5 722/5
f 755/5 756/5 724/5 723/5
f 756/5 757/5 725/5 724/5
f 757/5 758/5 726/5 725/5
f 758/5 759/5 727/5 726/5
f 759/5 760/5 728/5 727/5
f 760/5 761/5 729/5 728/5
f 761/5 762/5 730/5 729/5
f 762/5 763/5 731/5 730/5
f 763/5 764/5 732/5 731/5
f 764/5 765/5 733/5 732/5
f 765/5 766/5 734/5 733/5
f 766/5 767/5 735/5 734/5
f 767/5 768/5 736/5 735/5
f 768/5 769/5 737/5 736/5
f 769/5 770/5 738/5 737/5
f 770/5 771/5 739/5 738/5
f 771/5 772/5 740/5 739/5
f 772/5 741/5 709/5 740/5
usemtl mint
f 933/3 934/3 902/3 901/3
f 934/3 935/3 903/3 902/3
f 935/3 936/3 904/3 903/3
f 936/3 937/3 905/3 904/3
f 937/3 938/3 906/3 905/3
f 938/3 939/3 907/3 906/3
f 939/3 940/3 908/3 907/3
f 940/3 941/3 909/3 908/3
f 941/3 942/3 910/3 909/3
f 942/3 943/3 911/3 910/3
f 943/3 944/3 912/3 911/3
f 944/3 945/3 913/3 912/3
f 945/3 946/3 914/3 913/3
f 946/3 947/3 915/3 914/3
f 947/3 948/3 916/3 915/3
f 948/3 949/3 917/3 916/3
f 949/3 950/3 918/3 917/3
f 950/3 951/3 919/3 918/3
f 951/3 952/3 920/3 919/3
f 952/3 953/3 921/3 920/3
f 953/3 954/3 922/3 921/3
f 954/3 955/3 923/3 922/3
f 955/3 956/3 924/3 923/3
f 956/3 957/3 925/3 924/3
f 957/3 958/3 926/3 925/3
f 958/3 959/3 927/3 926/3
f 959/3 960/3 928/3 927/3
f 960/3 961/3 929/3 928/3
f 961/3 962/3 930/3 929/3
f 962/3 963/3 931/3 930/3
f 963/3 964/3 932/3 931/3
f 964/3 933/3 901/3 932/3
