# ParkParkRepairConsole — ParkPark original fairground mesh
mtllib ParkParkFairground.mtl
o ParkParkRepairConsole
v 0.00000 0.08000 0.00000
v 0.00000 0.08000 0.00000
v 0.00000 0.08000 0.00000
v 0.00000 0.08000 0.00000
v 0.00000 0.08000 0.00000
v 0.00000 0.08000 0.00000
v -0.00000 0.08000 0.00000
v -0.00000 0.08000 0.00000
v -0.00000 0.08000 0.00000
v -0.00000 0.08000 0.00000
v -0.00000 0.08000 0.00000
v -0.00000 0.08000 -0.00000
v -0.00000 0.08000 -0.00000
v -0.00000 0.08000 -0.00000
v -0.00000 0.08000 -0.00000
v -0.00000 0.08000 -0.00000
v 0.00000 0.08000 -0.00000
v 0.00000 0.08000 -0.00000
v 0.00000 0.08000 -0.00000
v 0.00000 0.08000 -0.00000
v 0.82000 0.08000 0.00000
v 0.77987 0.08000 0.25339
v 0.66339 0.08000 0.48198
v 0.48198 0.08000 0.66339
v 0.25339 0.08000 0.77987
v 0.00000 0.08000 0.82000
v -0.25339 0.08000 0.77987
v -0.48198 0.08000 0.66339
v -0.66339 0.08000 0.48198
v -0.77987 0.08000 0.25339
v -0.82000 0.08000 0.00000
v -0.77987 0.08000 -0.25339
v -0.66339 0.08000 -0.48198
v -0.48198 0.08000 -0.66339
v -0.25339 0.08000 -0.77987
v -0.00000 0.08000 -0.82000
v 0.25339 0.08000 -0.77987
v 0.48198 0.08000 -0.66339
v 0.66339 0.08000 -0.48198
v 0.77987 0.08000 -0.25339
v 0.94000 0.22000 0.00000
v 0.89399 0.22000 0.29048
v 0.76048 0.22000 0.55252
v 0.55252 0.22000 0.76048
v 0.29048 0.22000 0.89399
v 0.00000 0.22000 0.94000
v -0.29048 0.22000 0.89399
v -0.55252 0.22000 0.76048
v -0.76048 0.22000 0.55252
v -0.89399 0.22000 0.29048
v -0.94000 0.22000 0.00000
v -0.89399 0.22000 -0.29048
v -0.76048 0.22000 -0.55252
v -0.55252 0.22000 -0.76048
v -0.29048 0.22000 -0.89399
v -0.00000 0.22000 -0.94000
v 0.29048 0.22000 -0.89399
v 0.55252 0.22000 -0.76048
v 0.76048 0.22000 -0.55252
v 0.89399 0.22000 -0.29048
v 0.68000 0.42000 0.00000
v 0.64672 0.42000 0.21013
v 0.55013 0.42000 0.39969
v 0.39969 0.42000 0.55013
v 0.21013 0.42000 0.64672
v 0.00000 0.42000 0.68000
v -0.21013 0.42000 0.64672
v -0.39969 0.42000 0.55013
v -0.55013 0.42000 0.39969
v -0.64672 0.42000 0.21013
v -0.68000 0.42000 0.00000
v -0.64672 0.42000 -0.21013
v -0.55013 0.42000 -0.39969
v -0.39969 0.42000 -0.55013
v -0.21013 0.42000 -0.64672
v -0.00000 0.42000 -0.68000
v 0.21013 0.42000 -0.64672
v 0.39969 0.42000 -0.55013
v 0.55013 0.42000 -0.39969
v 0.64672 0.42000 -0.21013
v 0.62000 1.45000 0.00000
v 0.58966 1.45000 0.19159
v 0.50159 1.45000 0.36443
v 0.36443 1.45000 0.50159
v 0.19159 1.45000 0.58966
v 0.00000 1.45000 0.62000
v -0.19159 1.45000 0.58966
v -0.36443 1.45000 0.50159
v -0.50159 1.45000 0.36443
v -0.58966 1.45000 0.19159
v -0.62000 1.45000 0.00000
v -0.58966 1.45000 -0.19159
v -0.50159 1.45000 -0.36443
v -0.36443 1.45000 -0.50159
v -0.19159 1.45000 -0.58966
v -0.00000 1.45000 -0.62000
v 0.19159 1.45000 -0.58966
v 0.36443 1.45000 -0.50159
v 0.50159 1.45000 -0.36443
v 0.58966 1.45000 -0.19159
v 0.86000 1.58000 0.00000
v 0.81791 1.58000 0.26575
v 0.69575 1.58000 0.50550
v 0.50550 1.58000 0.69575
v 0.26575 1.58000 0.81791
v 0.00000 1.58000 0.86000
v -0.26575 1.58000 0.81791
v -0.50550 1.58000 0.69575
v -0.69575 1.58000 0.50550
v -0.81791 1.58000 0.26575
v -0.86000 1.58000 0.00000
v -0.81791 1.58000 -0.26575
v -0.69575 1.58000 -0.50550
v -0.50550 1.58000 -0.69575
v -0.26575 1.58000 -0.81791
v -0.00000 1.58000 -0.86000
v 0.26575 1.58000 -0.81791
v 0.50550 1.58000 -0.69575
v 0.69575 1.58000 -0.50550
v 0.81791 1.58000 -0.26575
v 0.66000 1.78000 0.00000
v 0.62770 1.78000 0.20395
v 0.53395 1.78000 0.38794
v 0.38794 1.78000 0.53395
v 0.20395 1.78000 0.62770
v 0.00000 1.78000 0.66000
v -0.20395 1.78000 0.62770
v -0.38794 1.78000 0.53395
v -0.53395 1.78000 0.38794
v -0.62770 1.78000 0.20395
v -0.66000 1.78000 0.00000
v -0.62770 1.78000 -0.20395
v -0.53395 1.78000 -0.38794
v -0.38794 1.78000 -0.53395
v -0.20395 1.78000 -0.62770
v -0.00000 1.78000 -0.66000
v 0.20395 1.78000 -0.62770
v 0.38794 1.78000 -0.53395
v 0.53395 1.78000 -0.38794
v 0.62770 1.78000 -0.20395
v 0.58000 2.42000 0.00000
v 0.55161 2.42000 0.17923
v 0.46923 2.42000 0.34092
v 0.34092 2.42000 0.46923
v 0.17923 2.42000 0.55161
v 0.00000 2.42000 0.58000
v -0.17923 2.42000 0.55161
v -0.34092 2.42000 0.46923
v -0.46923 2.42000 0.34092
v -0.55161 2.42000 0.17923
v -0.58000 2.42000 0.00000
v -0.55161 2.42000 -0.17923
v -0.46923 2.42000 -0.34092
v -0.34092 2.42000 -0.46923
v -0.17923 2.42000 -0.55161
v -0.00000 2.42000 -0.58000
v 0.17923 2.42000 -0.55161
v 0.34092 2.42000 -0.46923
v 0.46923 2.42000 -0.34092
v 0.55161 2.42000 -0.17923
v 0.70000 2.55000 0.00000
v 0.66574 2.55000 0.21631
v 0.56631 2.55000 0.41145
v 0.41145 2.55000 0.56631
v 0.21631 2.55000 0.66574
v 0.00000 2.55000 0.70000
v -0.21631 2.55000 0.66574
v -0.41145 2.55000 0.56631
v -0.56631 2.55000 0.41145
v -0.66574 2.55000 0.21631
v -0.70000 2.55000 0.00000
v -0.66574 2.55000 -0.21631
v -0.56631 2.55000 -0.41145
v -0.41145 2.55000 -0.56631
v -0.21631 2.55000 -0.66574
v -0.00000 2.55000 -0.70000
v 0.21631 2.55000 -0.66574
v 0.41145 2.55000 -0.56631
v 0.56631 2.55000 -0.41145
v 0.66574 2.55000 -0.21631
v 0.00000 2.55000 0.00000
v 0.00000 2.55000 0.00000
v 0.00000 2.55000 0.00000
v 0.00000 2.55000 0.00000
v 0.00000 2.55000 0.00000
v 0.00000 2.55000 0.00000
v -0.00000 2.55000 0.00000
v -0.00000 2.55000 0.00000
v -0.00000 2.55000 0.00000
v -0.00000 2.55000 0.00000
v -0.00000 2.55000 0.00000
v -0.00000 2.55000 -0.00000
v -0.00000 2.55000 -0.00000
v -0.00000 2.55000 -0.00000
v -0.00000 2.55000 -0.00000
v -0.00000 2.55000 -0.00000
v 0.00000 2.55000 -0.00000
v 0.00000 2.55000 -0.00000
v 0.00000 2.55000 -0.00000
v 0.00000 2.55000 -0.00000
v 0.87000 0.36000 0.00000
v 0.82500 0.43794 0.00000
v 0.73500 0.43794 0.00000
v 0.69000 0.36000 0.00000
v 0.73500 0.28206 0.00000
v 0.82500 0.28206 0.00000
v 0.84036 0.36000 0.22517
v 0.79689 0.43794 0.21353
v 0.70996 0.43794 0.19023
v 0.66649 0.36000 0.17859
v 0.70996 0.28206 0.19023
v 0.79689 0.28206 0.21353
v 0.75344 0.36000 0.43500
v 0.71447 0.43794 0.41250
v 0.63653 0.43794 0.36750
v 0.59756 0.36000 0.34500
v 0.63653 0.28206 0.36750
v 0.71447 0.28206 0.41250
v 0.61518 0.36000 0.61518
v 0.58336 0.43794 0.58336
v 0.51972 0.43794 0.51972
v 0.48790 0.36000 0.48790
v 0.51972 0.28206 0.51972
v 0.58336 0.28206 0.58336
v 0.43500 0.36000 0.75344
v 0.41250 0.43794 0.71447
v 0.36750 0.43794 0.63653
v 0.34500 0.36000 0.59756
v 0.36750 0.28206 0.63653
v 0.41250 0.28206 0.71447
v 0.22517 0.36000 0.84036
v 0.21353 0.43794 0.79689
v 0.19023 0.43794 0.70996
v 0.17859 0.36000 0.66649
v 0.19023 0.28206 0.70996
v 0.21353 0.28206 0.79689
v 0.00000 0.36000 0.87000
v 0.00000 0.43794 0.82500
v 0.00000 0.43794 0.73500
v 0.00000 0.36000 0.69000
v 0.00000 0.28206 0.73500
v 0.00000 0.28206 0.82500
v -0.22517 0.36000 0.84036
v -0.21353 0.43794 0.79689
v -0.19023 0.43794 0.70996
v -0.17859 0.36000 0.66649
v -0.19023 0.28206 0.70996
v -0.21353 0.28206 0.79689
v -0.43500 0.36000 0.75344
v -0.41250 0.43794 0.71447
v -0.36750 0.43794 0.63653
v -0.34500 0.36000 0.59756
v -0.36750 0.28206 0.63653
v -0.41250 0.28206 0.71447
v -0.61518 0.36000 0.61518
v -0.58336 0.43794 0.58336
v -0.51972 0.43794 0.51972
v -0.48790 0.36000 0.48790
v -0.51972 0.28206 0.51972
v -0.58336 0.28206 0.58336
v -0.75344 0.36000 0.43500
v -0.71447 0.43794 0.41250
v -0.63653 0.43794 0.36750
v -0.59756 0.36000 0.34500
v -0.63653 0.28206 0.36750
v -0.71447 0.28206 0.41250
v -0.84036 0.36000 0.22517
v -0.79689 0.43794 0.21353
v -0.70996 0.43794 0.19023
v -0.66649 0.36000 0.17859
v -0.70996 0.28206 0.19023
v -0.79689 0.28206 0.21353
v -0.87000 0.36000 0.00000
v -0.82500 0.43794 0.00000
v -0.73500 0.43794 0.00000
v -0.69000 0.36000 0.00000
v -0.73500 0.28206 0.00000
v -0.82500 0.28206 0.00000
v -0.84036 0.36000 -0.22517
v -0.79689 0.43794 -0.21353
v -0.70996 0.43794 -0.19023
v -0.66649 0.36000 -0.17859
v -0.70996 0.28206 -0.19023
v -0.79689 0.28206 -0.21353
v -0.75344 0.36000 -0.43500
v -0.71447 0.43794 -0.41250
v -0.63653 0.43794 -0.36750
v -0.59756 0.36000 -0.34500
v -0.63653 0.28206 -0.36750
v -0.71447 0.28206 -0.41250
v -0.61518 0.36000 -0.61518
v -0.58336 0.43794 -0.58336
v -0.51972 0.43794 -0.51972
v -0.48790 0.36000 -0.48790
v -0.51972 0.28206 -0.51972
v -0.58336 0.28206 -0.58336
v -0.43500 0.36000 -0.75344
v -0.41250 0.43794 -0.71447
v -0.36750 0.43794 -0.63653
v -0.34500 0.36000 -0.59756
v -0.36750 0.28206 -0.63653
v -0.41250 0.28206 -0.71447
v -0.22517 0.36000 -0.84036
v -0.21353 0.43794 -0.79689
v -0.19023 0.43794 -0.70996
v -0.17859 0.36000 -0.66649
v -0.19023 0.28206 -0.70996
v -0.21353 0.28206 -0.79689
v -0.00000 0.36000 -0.87000
v -0.00000 0.43794 -0.82500
v -0.00000 0.43794 -0.73500
v -0.00000 0.36000 -0.69000
v -0.00000 0.28206 -0.73500
v -0.00000 0.28206 -0.82500
v 0.22517 0.36000 -0.84036
v 0.21353 0.43794 -0.79689
v 0.19023 0.43794 -0.70996
v 0.17859 0.36000 -0.66649
v 0.19023 0.28206 -0.70996
v 0.21353 0.28206 -0.79689
v 0.43500 0.36000 -0.75344
v 0.41250 0.43794 -0.71447
v 0.36750 0.43794 -0.63653
v 0.34500 0.36000 -0.59756
v 0.36750 0.28206 -0.63653
v 0.41250 0.28206 -0.71447
v 0.61518 0.36000 -0.61518
v 0.58336 0.43794 -0.58336
v 0.51972 0.43794 -0.51972
v 0.48790 0.36000 -0.48790
v 0.51972 0.28206 -0.51972
v 0.58336 0.28206 -0.58336
v 0.75344 0.36000 -0.43500
v 0.71447 0.43794 -0.41250
v 0.63653 0.43794 -0.36750
v 0.59756 0.36000 -0.34500
v 0.63653 0.28206 -0.36750
v 0.71447 0.28206 -0.41250
v 0.84036 0.36000 -0.22517
v 0.79689 0.43794 -0.21353
v 0.70996 0.43794 -0.19023
v 0.66649 0.36000 -0.17859
v 0.70996 0.28206 -0.19023
v 0.79689 0.28206 -0.21353
v -0.46000 1.46000 -0.73000
v 0.46000 1.46000 -0.73000
v 0.46000 2.18000 -0.73000
v -0.46000 2.18000 -0.73000
v -0.46000 1.46000 -0.61000
v 0.46000 1.46000 -0.61000
v 0.46000 2.18000 -0.61000
v -0.46000 2.18000 -0.61000
v -0.36000 1.56000 -0.79000
v 0.36000 1.56000 -0.79000
v 0.36000 2.08000 -0.79000
v -0.36000 2.08000 -0.79000
v -0.36000 1.56000 -0.71000
v 0.36000 1.56000 -0.71000
v 0.36000 2.08000 -0.71000
v -0.36000 2.08000 -0.71000
v -0.15282 1.73515 -0.83000
v -0.17250 1.73515 -0.79000
v -0.22000 1.73515 -0.77343
v -0.26750 1.73515 -0.79000
v -0.28718 1.73515 -0.83000
v -0.26750 1.73515 -0.87000
v -0.22000 1.73515 -0.88657
v -0.17250 1.73515 -0.87000
v -0.12500 1.82000 -0.83000
v -0.15282 1.82000 -0.77343
v -0.22000 1.82000 -0.75000
v -0.28718 1.82000 -0.77343
v -0.31500 1.82000 -0.83000
v -0.28718 1.82000 -0.88657
v -0.22000 1.82000 -0.91000
v -0.15282 1.82000 -0.88657
v -0.15282 1.90485 -0.83000
v -0.17250 1.90485 -0.79000
v -0.22000 1.90485 -0.77343
v -0.26750 1.90485 -0.79000
v -0.28718 1.90485 -0.83000
v -0.26750 1.90485 -0.87000
v -0.22000 1.90485 -0.88657
v -0.17250 1.90485 -0.87000
v -0.22000 1.70000 -0.83000
v -0.22000 1.94000 -0.83000
v 0.06718 1.73515 -0.83000
v 0.04750 1.73515 -0.79000
v 0.00000 1.73515 -0.77343
v -0.04750 1.73515 -0.79000
v -0.06718 1.73515 -0.83000
v -0.04750 1.73515 -0.87000
v -0.00000 1.73515 -0.88657
v 0.04750 1.73515 -0.87000
v 0.09500 1.82000 -0.83000
v 0.06718 1.82000 -0.77343
v 0.00000 1.82000 -0.75000
v -0.06718 1.82000 -0.77343
v -0.09500 1.82000 -0.83000
v -0.06718 1.82000 -0.88657
v -0.00000 1.82000 -0.91000
v 0.06718 1.82000 -0.88657
v 0.06718 1.90485 -0.83000
v 0.04750 1.90485 -0.79000
v 0.00000 1.90485 -0.77343
v -0.04750 1.90485 -0.79000
v -0.06718 1.90485 -0.83000
v -0.04750 1.90485 -0.87000
v -0.00000 1.90485 -0.88657
v 0.04750 1.90485 -0.87000
v 0.00000 1.70000 -0.83000
v 0.00000 1.94000 -0.83000
v 0.28718 1.73515 -0.83000
v 0.26750 1.73515 -0.79000
v 0.22000 1.73515 -0.77343
v 0.17250 1.73515 -0.79000
v 0.15282 1.73515 -0.83000
v 0.17250 1.73515 -0.87000
v 0.22000 1.73515 -0.88657
v 0.26750 1.73515 -0.87000
v 0.31500 1.82000 -0.83000
v 0.28718 1.82000 -0.77343
v 0.22000 1.82000 -0.75000
v 0.15282 1.82000 -0.77343
v 0.12500 1.82000 -0.83000
v 0.15282 1.82000 -0.88657
v 0.22000 1.82000 -0.91000
v 0.28718 1.82000 -0.88657
v 0.28718 1.90485 -0.83000
v 0.26750 1.90485 -0.79000
v 0.22000 1.90485 -0.77343
v 0.17250 1.90485 -0.79000
v 0.15282 1.90485 -0.83000
v 0.17250 1.90485 -0.87000
v 0.22000 1.90485 -0.88657
v 0.26750 1.90485 -0.87000
v 0.22000 1.70000 -0.83000
v 0.22000 1.94000 -0.83000
v 0.00000 3.02000 -0.12000
v -0.06571 2.85045 -0.12000
v -0.24727 2.84034 -0.12000
v -0.10633 2.72545 -0.12000
v -0.15282 2.54966 -0.12000
v -0.00000 2.64820 -0.12000
v 0.15282 2.54966 -0.12000
v 0.10633 2.72545 -0.12000
v 0.24727 2.84034 -0.12000
v 0.06571 2.85045 -0.12000
v 0.00000 3.02000 0.12000
v -0.06571 2.85045 0.12000
v -0.24727 2.84034 0.12000
v -0.10633 2.72545 0.12000
v -0.15282 2.54966 0.12000
v -0.00000 2.64820 0.12000
v 0.15282 2.54966 0.12000
v 0.10633 2.72545 0.12000
v 0.24727 2.84034 0.12000
v 0.06571 2.85045 0.12000
v 0.00000 2.76000 -0.12000
v 0.00000 2.76000 0.12000
usemtl wood
f 1 2 22 21
f 2 3 23 22
f 3 4 24 23
f 4 5 25 24
f 5 6 26 25
f 6 7 27 26
f 7 8 28 27
f 8 9 29 28
f 9 10 30 29
f 10 11 31 30
f 11 12 32 31
f 12 13 33 32
f 13 14 34 33
f 14 15 35 34
f 15 16 36 35
f 16 17 37 36
f 17 18 38 37
f 18 19 39 38
f 19 20 40 39
f 20 1 21 40
f 345 348 347 346
f 349 350 351 352
f 345 349 352 348
f 346 347 351 350
f 345 346 350 349
f 348 352 351 347
usemtl gold
f 21 22 42 41
f 22 23 43 42
f 23 24 44 43
f 24 25 45 44
f 25 26 46 45
f 26 27 47 46
f 27 28 48 47
f 28 29 49 48
f 29 30 50 49
f 30 31 51 50
f 31 32 52 51
f 32 33 53 52
f 33 34 54 53
f 34 35 55 54
f 35 36 56 55
f 36 37 57 56
f 37 38 58 57
f 38 39 59 58
f 39 40 60 59
f 40 21 41 60
f 141 142 162 161
f 142 143 163 162
f 143 144 164 163
f 144 145 165 164
f 145 146 166 165
f 146 147 167 166
f 147 148 168 167
f 148 149 169 168
f 149 150 170 169
f 150 151 171 170
f 151 152 172 171
f 152 153 173 172
f 153 154 174 173
f 154 155 175 174
f 155 156 176 175
f 156 157 177 176
f 157 158 178 177
f 158 159 179 178
f 159 160 180 179
f 160 141 161 180
f 201 202 208 207
f 202 203 209 208
f 203 204 210 209
f 204 205 211 210
f 205 206 212 211
f 206 201 207 212
f 207 208 214 213
f 208 209 215 214
f 209 210 216 215
f 210 211 217 216
f 211 212 218 217
f 212 207 213 218
f 213 214 220 219
f 214 215 221 220
f 215 216 222 221
f 216 217 223 222
f 217 218 224 223
f 218 213 219 224
f 219 220 226 225
f 220 221 227 226
f 221 222 228 227
f 222 223 229 228
f 223 224 230 229
f 224 219 225 230
f 225 226 232 231
f 226 227 233 232
f 227 228 234 233
f 228 229 235 234
f 229 230 236 235
f 230 225 231 236
f 231 232 238 237
f 232 233 239 238
f 233 234 240 239
f 234 235 241 240
f 235 236 242 241
f 236 231 237 242
f 237 238 244 243
f 238 239 245 244
f 239 240 246 245
f 240 241 247 246
f 241 242 248 247
f 242 237 243 248
f 243 244 250 249
f 244 245 251 250
f 245 246 252 251
f 246 247 253 252
f 247 248 254 253
f 248 243 249 254
f 249 250 256 255
f 250 251 257 256
f 251 252 258 257
f 252 253 259 258
f 253 254 260 259
f 254 249 255 260
f 255 256 262 261
f 256 257 263 262
f 257 258 264 263
f 258 259 265 264
f 259 260 266 265
f 260 255 261 266
f 261 262 268 267
f 262 263 269 268
f 263 264 270 269
f 264 265 271 270
f 265 266 272 271
f 266 261 267 272
f 267 268 274 273
f 268 269 275 274
f 269 270 276 275
f 270 271 277 276
f 271 272 278 277
f 272 267 273 278
f 273 274 280 279
f 274 275 281 280
f 275 276 282 281
f 276 277 283 282
f 277 278 284 283
f 278 273 279 284
f 279 280 286 285
f 280 281 287 286
f 281 282 288 287
f 282 283 289 288
f 283 284 290 289
f 284 279 285 290
f 285 286 292 291
f 286 287 293 292
f 287 288 294 293
f 288 289 295 294
f 289 290 296 295
f 290 285 291 296
f 291 292 298 297
f 292 293 299 298
f 293 294 300 299
f 294 295 301 300
f 295 296 302 301
f 296 291 297 302
f 297 298 304 303
f 298 299 305 304
f 299 300 306 305
f 300 301 307 306
f 301 302 308 307
f 302 297 303 308
f 303 304 310 309
f 304 305 311 310
f 305 306 312 311
f 306 307 313 312
f 307 308 314 313
f 308 303 309 314
f 309 310 316 315
f 310 311 317 316
f 311 312 318 317
f 312 313 319 318
f 313 314 320 319
f 314 309 315 320
f 315 316 322 321
f 316 317 323 322
f 317 318 324 323
f 318 319 325 324
f 319 320 326 325
f 320 315 321 326
f 321 322 328 327
f 322 323 329 328
f 323 324 330 329
f 324 325 331 330
f 325 326 332 331
f 326 321 327 332
f 327 328 334 333
f 328 329 335 334
f 329 330 336 335
f 330 331 337 336
f 331 332 338 337
f 332 327 333 338
f 333 334 340 339
f 334 335 341 340
f 335 336 342 341
f 336 337 343 342
f 337 338 344 343
f 338 333 339 344
f 339 340 202 201
f 340 341 203 202
f 341 342 204 203
f 342 343 205 204
f 343 344 206 205
f 344 339 201 206
f 411 388 387
f 412 403 404
f 411 389 388
f 412 404 405
f 411 390 389
f 412 405 406
f 411 391 390
f 412 406 407
f 411 392 391
f 412 407 408
f 411 393 392
f 412 408 409
f 411 394 393
f 412 409 410
f 411 387 394
f 412 410 403
f 387 388 396 395
f 388 389 397 396
f 389 390 398 397
f 390 391 399 398
f 391 392 400 399
f 392 393 401 400
f 393 394 402 401
f 394 387 395 402
f 395 396 404 403
f 396 397 405 404
f 397 398 406 405
f 398 399 407 406
f 399 400 408 407
f 400 401 409 408
f 401 402 410 409
f 402 395 403 410
f 459 439 440
f 460 450 449
f 439 449 450 440
f 459 440 441
f 460 451 450
f 440 450 451 441
f 459 441 442
f 460 452 451
f 441 451 452 442
f 459 442 443
f 460 453 452
f 442 452 453 443
f 459 443 444
f 460 454 453
f 443 453 454 444
f 459 444 445
f 460 455 454
f 444 454 455 445
f 459 445 446
f 460 456 455
f 445 455 456 446
f 459 446 447
f 460 457 456
f 446 456 457 447
f 459 447 448
f 460 458 457
f 447 457 458 448
f 459 448 439
f 460 449 458
f 448 458 449 439
usemtl cream
f 41 42 62 61
f 42 43 63 62
f 43 44 64 63
f 44 45 65 64
f 45 46 66 65
f 46 47 67 66
f 47 48 68 67
f 48 49 69 68
f 49 50 70 69
f 50 51 71 70
f 51 52 72 71
f 52 53 73 72
f 53 54 74 73
f 54 55 75 74
f 55 56 76 75
f 56 57 77 76
f 57 58 78 77
f 58 59 79 78
f 59 60 80 79
f 60 41 61 80
f 61 62 82 81
f 62 63 83 82
f 63 64 84 83
f 64 65 85 84
f 65 66 86 85
f 66 67 87 86
f 67 68 88 87
f 68 69 89 88
f 69 70 90 89
f 70 71 91 90
f 71 72 92 91
f 72 73 93 92
f 73 74 94 93
f 74 75 95 94
f 75 76 96 95
f 76 77 97 96
f 77 78 98 97
f 78 79 99 98
f 79 80 100 99
f 80 61 81 100
f 101 102 122 121
f 102 103 123 122
f 103 104 124 123
f 104 105 125 124
f 105 106 126 125
f 106 107 127 126
f 107 108 128 127
f 108 109 129 128
f 109 110 130 129
f 110 111 131 130
f 111 112 132 131
f 112 113 133 132
f 113 114 134 133
f 114 115 135 134
f 115 116 136 135
f 116 117 137 136
f 117 118 138 137
f 118 119 139 138
f 119 120 140 139
f 120 101 121 140
f 121 122 142 141
f 122 123 143 142
f 123 124 144 143
f 124 125 145 144
f 125 126 146 145
f 126 127 147 146
f 127 128 148 147
f 128 129 149 148
f 129 130 150 149
f 130 131 151 150
f 131 132 152 151
f 132 133 153 152
f 133 134 154 153
f 134 135 155 154
f 135 136 156 155
f 136 137 157 156
f 137 138 158 157
f 138 139 159 158
f 139 140 160 159
f 140 121 141 160
f 353 356 355 354
f 357 358 359 360
f 353 357 360 356
f 354 355 359 358
f 353 354 358 357
f 356 360 359 355
usemtl coral
f 81 82 102 101
f 82 83 103 102
f 83 84 104 103
f 84 85 105 104
f 85 86 106 105
f 86 87 107 106
f 87 88 108 107
f 88 89 109 108
f 89 90 110 109
f 90 91 111 110
f 91 92 112 111
f 92 93 113 112
f 93 94 114 113
f 94 95 115 114
f 95 96 116 115
f 96 97 117 116
f 97 98 118 117
f 98 99 119 118
f 99 100 120 119
f 100 81 101 120
f 161 162 182 181
f 162 163 183 182
f 163 164 184 183
f 164 165 185 184
f 165 166 186 185
f 166 167 187 186
f 167 168 188 187
f 168 169 189 188
f 169 170 190 189
f 170 171 191 190
f 171 172 192 191
f 172 173 193 192
f 173 174 194 193
f 174 175 195 194
f 175 176 196 195
f 176 177 197 196
f 177 178 198 197
f 178 179 199 198
f 179 180 200 199
f 180 161 181 200
f 385 362 361
f 386 377 378
f 385 363 362
f 386 378 379
f 385 364 363
f 386 379 380
f 385 365 364
f 386 380 381
f 385 366 365
f 386 381 382
f 385 367 366
f 386 382 383
f 385 368 367
f 386 383 384
f 385 361 368
f 386 384 377
f 361 362 370 369
f 362 363 371 370
f 363 364 372 371
f 364 365 373 372
f 365 366 374 373
f 366 367 375 374
f 367 368 376 375
f 368 361 369 376
f 369 370 378 377
f 370 371 379 378
f 371 372 380 379
f 372 373 381 380
f 373 374 382 381
f 374 375 383 382
f 375 376 384 383
f 376 369 377 384
usemtl mint
f 437 414 413
f 438 429 430
f 437 415 414
f 438 430 431
f 437 416 415
f 438 431 432
f 437 417 416
f 438 432 433
f 437 418 417
f 438 433 434
f 437 419 418
f 438 434 435
f 437 420 419
f 438 435 436
f 437 413 420
f 438 436 429
f 413 414 422 421
f 414 415 423 422
f 415 416 424 423
f 416 417 425 424
f 417 418 426 425
f 418 419 427 426
f 419 420 428 427
f 420 413 421 428
f 421 422 430 429
f 422 423 431 430
f 423 424 432 431
f 424 425 433 432
f 425 426 434 433
f 426 427 435 434
f 427 428 436 435
f 428 421 429 436
