# ParkParkSnowflakeHub — ParkPark original fairground mesh
mtllib ParkParkFairground.mtl
o ParkParkSnowflakeHub
v 8.20000 0.00000 0.00000
v 8.20000 0.60000 0.00000
v 8.11654 0.00000 1.16698
v 8.11654 0.60000 1.16698
v 7.86784 0.00000 2.31021
v 7.86784 0.60000 2.31021
v 7.45898 0.00000 3.40640
v 7.45898 0.60000 3.40640
v 6.89828 0.00000 4.43325
v 6.89828 0.60000 4.43325
v 6.19715 0.00000 5.36986
v 6.19715 0.60000 5.36986
v 5.36986 0.00000 6.19715
v 5.36986 0.60000 6.19715
v 4.43325 0.00000 6.89828
v 4.43325 0.60000 6.89828
v 3.40640 0.00000 7.45898
v 3.40640 0.60000 7.45898
v 2.31021 0.00000 7.86784
v 2.31021 0.60000 7.86784
v 1.16698 0.00000 8.11654
v 1.16698 0.60000 8.11654
v 0.00000 0.00000 8.20000
v 0.00000 0.60000 8.20000
v -1.16698 0.00000 8.11654
v -1.16698 0.60000 8.11654
v -2.31021 0.00000 7.86784
v -2.31021 0.60000 7.86784
v -3.40640 0.00000 7.45898
v -3.40640 0.60000 7.45898
v -4.43325 0.00000 6.89828
v -4.43325 0.60000 6.89828
v -5.36986 0.00000 6.19715
v -5.36986 0.60000 6.19715
v -6.19715 0.00000 5.36986
v -6.19715 0.60000 5.36986
v -6.89828 0.00000 4.43325
v -6.89828 0.60000 4.43325
v -7.45898 0.00000 3.40640
v -7.45898 0.60000 3.40640
v -7.86784 0.00000 2.31021
v -7.86784 0.60000 2.31021
v -8.11654 0.00000 1.16698
v -8.11654 0.60000 1.16698
v -8.20000 0.00000 0.00000
v -8.20000 0.60000 0.00000
v -8.11654 0.00000 -1.16698
v -8.11654 0.60000 -1.16698
v -7.86784 0.00000 -2.31021
v -7.86784 0.60000 -2.31021
v -7.45898 0.00000 -3.40640
v -7.45898 0.60000 -3.40640
v -6.89828 0.00000 -4.43325
v -6.89828 0.60000 -4.43325
v -6.19715 0.00000 -5.36986
v -6.19715 0.60000 -5.36986
v -5.36986 0.00000 -6.19715
v -5.36986 0.60000 -6.19715
v -4.43325 0.00000 -6.89828
v -4.43325 0.60000 -6.89828
v -3.40640 0.00000 -7.45898
v -3.40640 0.60000 -7.45898
v -2.31021 0.00000 -7.86784
v -2.31021 0.60000 -7.86784
v -1.16698 0.00000 -8.11654
v -1.16698 0.60000 -8.11654
v -0.00000 0.00000 -8.20000
v -0.00000 0.60000 -8.20000
v 1.16698 0.00000 -8.11654
v 1.16698 0.60000 -8.11654
v 2.31021 0.00000 -7.86784
v 2.31021 0.60000 -7.86784
v 3.40640 0.00000 -7.45898
v 3.40640 0.60000 -7.45898
v 4.43325 0.00000 -6.89828
v 4.43325 0.60000 -6.89828
v 5.36986 0.00000 -6.19715
v 5.36986 0.60000 -6.19715
v 6.19715 0.00000 -5.36986
v 6.19715 0.60000 -5.36986
v 6.89828 0.00000 -4.43325
v 6.89828 0.60000 -4.43325
v 7.45898 0.00000 -3.40640
v 7.45898 0.60000 -3.40640
v 7.86784 0.00000 -2.31021
v 7.86784 0.60000 -2.31021
v 8.11654 0.00000 -1.16698
v 8.11654 0.60000 -1.16698
v 0.00000 0.00000 0.00000
v 0.00000 0.60000 0.00000
v 8.25000 0.00000 0.00000
v 8.25000 0.45000 0.00000
v 8.16603 0.00000 1.17410
v 8.16603 0.45000 1.17410
v 7.91582 0.00000 2.32429
v 7.91582 0.45000 2.32429
v 7.50446 0.00000 3.42717
v 7.50446 0.45000 3.42717
v 6.94034 0.00000 4.46029
v 6.94034 0.45000 4.46029
v 6.23493 0.00000 5.40260
v 6.23493 0.45000 5.40260
v 5.40260 0.00000 6.23493
v 5.40260 0.45000 6.23493
v 4.46029 0.00000 6.94034
v 4.46029 0.45000 6.94034
v 3.42717 0.00000 7.50446
v 3.42717 0.45000 7.50446
v 2.32429 0.00000 7.91582
v 2.32429 0.45000 7.91582
v 1.17410 0.00000 8.16603
v 1.17410 0.45000 8.16603
v 0.00000 0.00000 8.25000
v 0.00000 0.45000 8.25000
v -1.17410 0.00000 8.16603
v -1.17410 0.45000 8.16603
v -2.32429 0.00000 7.91582
v -2.32429 0.45000 7.91582
v -3.42717 0.00000 7.50446
v -3.42717 0.45000 7.50446
v -4.46029 0.00000 6.94034
v -4.46029 0.45000 6.94034
v -5.40260 0.00000 6.23493
v -5.40260 0.45000 6.23493
v -6.23493 0.00000 5.40260
v -6.23493 0.45000 5.40260
v -6.94034 0.00000 4.46029
v -6.94034 0.45000 4.46029
v -7.50446 0.00000 3.42717
v -7.50446 0.45000 3.42717
v -7.91582 0.00000 2.32429
v -7.91582 0.45000 2.32429
v -8.16603 0.00000 1.17410
v -8.16603 0.45000 1.17410
v -8.25000 0.00000 0.00000
v -8.25000 0.45000 0.00000
v -8.16603 0.00000 -1.17410
v -8.16603 0.45000 -1.17410
v -7.91582 0.00000 -2.32429
v -7.91582 0.45000 -2.32429
v -7.50446 0.00000 -3.42717
v -7.50446 0.45000 -3.42717
v -6.94034 0.00000 -4.46029
v -6.94034 0.45000 -4.46029
v -6.23493 0.00000 -5.40260
v -6.23493 0.45000 -5.40260
v -5.40260 0.00000 -6.23493
v -5.40260 0.45000 -6.23493
v -4.46029 0.00000 -6.94034
v -4.46029 0.45000 -6.94034
v -3.42717 0.00000 -7.50446
v -3.42717 0.45000 -7.50446
v -2.32429 0.00000 -7.91582
v -2.32429 0.45000 -7.91582
v -1.17410 0.00000 -8.16603
v -1.17410 0.45000 -8.16603
v -0.00000 0.00000 -8.25000
v -0.00000 0.45000 -8.25000
v 1.17410 0.00000 -8.16603
v 1.17410 0.45000 -8.16603
v 2.32429 0.00000 -7.91582
v 2.32429 0.45000 -7.91582
v 3.42717 0.00000 -7.50446
v 3.42717 0.45000 -7.50446
v 4.46029 0.00000 -6.94034
v 4.46029 0.45000 -6.94034
v 5.40260 0.00000 -6.23493
v 5.40260 0.45000 -6.23493
v 6.23493 0.00000 -5.40260
v 6.23493 0.45000 -5.40260
v 6.94034 0.00000 -4.46029
v 6.94034 0.45000 -4.46029
v 7.50446 0.00000 -3.42717
v 7.50446 0.45000 -3.42717
v 7.91582 0.00000 -2.32429
v 7.91582 0.45000 -2.32429
v 8.16603 0.00000 -1.17410
v 8.16603 0.45000 -1.17410
v 0.00000 0.00000 0.00000
v 0.00000 0.45000 0.00000
v 8.14000 0.62000 0.00000
v 8.07000 0.74124 0.00000
v 7.93000 0.74124 0.00000
v 7.86000 0.62000 0.00000
v 7.93000 0.49876 0.00000
v 8.07000 0.49876 0.00000
v 8.05715 0.62000 1.15844
v 7.98786 0.74124 1.14848
v 7.84928 0.74124 1.12856
v 7.78000 0.62000 1.11859
v 7.84928 0.49876 1.12856
v 7.98786 0.49876 1.14848
v 7.81027 0.62000 2.29330
v 7.74311 0.74124 2.27358
v 7.60878 0.74124 2.23414
v 7.54161 0.62000 2.21442
v 7.60878 0.49876 2.23414
v 7.74311 0.49876 2.27358
v 7.40440 0.62000 3.38148
v 7.34073 0.74124 3.35240
v 7.21338 0.74124 3.29424
v 7.14971 0.62000 3.26516
v 7.21338 0.49876 3.29424
v 7.34073 0.49876 3.35240
v 6.84780 0.62000 4.40082
v 6.78892 0.74124 4.36297
v 6.67114 0.74124 4.28728
v 6.61225 0.62000 4.24944
v 6.67114 0.49876 4.28728
v 6.78892 0.49876 4.36297
v 6.15180 0.62000 5.33057
v 6.09890 0.74124 5.28473
v 5.99309 0.74124 5.19305
v 5.94019 0.62000 5.14721
v 5.99309 0.49876 5.19305
v 6.09890 0.49876 5.28473
v 5.33057 0.62000 6.15180
v 5.28473 0.74124 6.09890
v 5.19305 0.74124 5.99309
v 5.14721 0.62000 5.94019
v 5.19305 0.49876 5.99309
v 5.28473 0.49876 6.09890
v 4.40082 0.62000 6.84780
v 4.36297 0.74124 6.78892
v 4.28728 0.74124 6.67114
v 4.24944 0.62000 6.61225
v 4.28728 0.49876 6.67114
v 4.36297 0.49876 6.78892
v 3.38148 0.62000 7.40440
v 3.35240 0.74124 7.34073
v 3.29424 0.74124 7.21338
v 3.26516 0.62000 7.14971
v 3.29424 0.49876 7.21338
v 3.35240 0.49876 7.34073
v 2.29330 0.62000 7.81027
v 2.27358 0.74124 7.74311
v 2.23414 0.74124 7.60878
v 2.21442 0.62000 7.54161
v 2.23414 0.49876 7.60878
v 2.27358 0.49876 7.74311
v 1.15844 0.62000 8.05715
v 1.14848 0.74124 7.98786
v 1.12856 0.74124 7.84928
v 1.11859 0.62000 7.78000
v 1.12856 0.49876 7.84928
v 1.14848 0.49876 7.98786
v 0.00000 0.62000 8.14000
v 0.00000 0.74124 8.07000
v 0.00000 0.74124 7.93000
v 0.00000 0.62000 7.86000
v 0.00000 0.49876 7.93000
v 0.00000 0.49876 8.07000
v -1.15844 0.62000 8.05715
v -1.14848 0.74124 7.98786
v -1.12856 0.74124 7.84928
v -1.11859 0.62000 7.78000
v -1.12856 0.49876 7.84928
v -1.14848 0.49876 7.98786
v -2.29330 0.62000 7.81027
v -2.27358 0.74124 7.74311
v -2.23414 0.74124 7.60878
v -2.21442 0.62000 7.54161
v -2.23414 0.49876 7.60878
v -2.27358 0.49876 7.74311
v -3.38148 0.62000 7.40440
v -3.35240 0.74124 7.34073
v -3.29424 0.74124 7.21338
v -3.26516 0.62000 7.14971
v -3.29424 0.49876 7.21338
v -3.35240 0.49876 7.34073
v -4.40082 0.62000 6.84780
v -4.36297 0.74124 6.78892
v -4.28728 0.74124 6.67114
v -4.24944 0.62000 6.61225
v -4.28728 0.49876 6.67114
v -4.36297 0.49876 6.78892
v -5.33057 0.62000 6.15180
v -5.28473 0.74124 6.09890
v -5.19305 0.74124 5.99309
v -5.14721 0.62000 5.94019
v -5.19305 0.49876 5.99309
v -5.28473 0.49876 6.09890
v -6.15180 0.62000 5.33057
v -6.09890 0.74124 5.28473
v -5.99309 0.74124 5.19305
v -5.94019 0.62000 5.14721
v -5.99309 0.49876 5.19305
v -6.09890 0.49876 5.28473
v -6.84780 0.62000 4.40082
v -6.78892 0.74124 4.36297
v -6.67114 0.74124 4.28728
v -6.61225 0.62000 4.24944
v -6.67114 0.49876 4.28728
v -6.78892 0.49876 4.36297
v -7.40440 0.62000 3.38148
v -7.34073 0.74124 3.35240
v -7.21338 0.74124 3.29424
v -7.14971 0.62000 3.26516
v -7.21338 0.49876 3.29424
v -7.34073 0.49876 3.35240
v -7.81027 0.62000 2.29330
v -7.74311 0.74124 2.27358
v -7.60878 0.74124 2.23414
v -7.54161 0.62000 2.21442
v -7.60878 0.49876 2.23414
v -7.74311 0.49876 2.27358
v -8.05715 0.62000 1.15844
v -7.98786 0.74124 1.14848
v -7.84928 0.74124 1.12856
v -7.78000 0.62000 1.11859
v -7.84928 0.49876 1.12856
v -7.98786 0.49876 1.14848
v -8.14000 0.62000 0.00000
v -8.07000 0.74124 0.00000
v -7.93000 0.74124 0.00000
v -7.86000 0.62000 0.00000
v -7.93000 0.49876 0.00000
v -8.07000 0.49876 0.00000
v -8.05715 0.62000 -1.15844
v -7.98786 0.74124 -1.14848
v -7.84928 0.74124 -1.12856
v -7.78000 0.62000 -1.11859
v -7.84928 0.49876 -1.12856
v -7.98786 0.49876 -1.14848
v -7.81027 0.62000 -2.29330
v -7.74311 0.74124 -2.27358
v -7.60878 0.74124 -2.23414
v -7.54161 0.62000 -2.21442
v -7.60878 0.49876 -2.23414
v -7.74311 0.49876 -2.27358
v -7.40440 0.62000 -3.38148
v -7.34073 0.74124 -3.35240
v -7.21338 0.74124 -3.29424
v -7.14971 0.62000 -3.26516
v -7.21338 0.49876 -3.29424
v -7.34073 0.49876 -3.35240
v -6.84780 0.62000 -4.40082
v -6.78892 0.74124 -4.36297
v -6.67114 0.74124 -4.28728
v -6.61225 0.62000 -4.24944
v -6.67114 0.49876 -4.28728
v -6.78892 0.49876 -4.36297
v -6.15180 0.62000 -5.33057
v -6.09890 0.74124 -5.28473
v -5.99309 0.74124 -5.19305
v -5.94019 0.62000 -5.14721
v -5.99309 0.49876 -5.19305
v -6.09890 0.49876 -5.28473
v -5.33057 0.62000 -6.15180
v -5.28473 0.74124 -6.09890
v -5.19305 0.74124 -5.99309
v -5.14721 0.62000 -5.94019
v -5.19305 0.49876 -5.99309
v -5.28473 0.49876 -6.09890
v -4.40082 0.62000 -6.84780
v -4.36297 0.74124 -6.78892
v -4.28728 0.74124 -6.67114
v -4.24944 0.62000 -6.61225
v -4.28728 0.49876 -6.67114
v -4.36297 0.49876 -6.78892
v -3.38148 0.62000 -7.40440
v -3.35240 0.74124 -7.34073
v -3.29424 0.74124 -7.21338
v -3.26516 0.62000 -7.14971
v -3.29424 0.49876 -7.21338
v -3.35240 0.49876 -7.34073
v -2.29330 0.62000 -7.81027
v -2.27358 0.74124 -7.74311
v -2.23414 0.74124 -7.60878
v -2.21442 0.62000 -7.54161
v -2.23414 0.49876 -7.60878
v -2.27358 0.49876 -7.74311
v -1.15844 0.62000 -8.05715
v -1.14848 0.74124 -7.98786
v -1.12856 0.74124 -7.84928
v -1.11859 0.62000 -7.78000
v -1.12856 0.49876 -7.84928
v -1.14848 0.49876 -7.98786
v -0.00000 0.62000 -8.14000
v -0.00000 0.74124 -8.07000
v -0.00000 0.74124 -7.93000
v -0.00000 0.62000 -7.86000
v -0.00000 0.49876 -7.93000
v -0.00000 0.49876 -8.07000
v 1.15844 0.62000 -8.05715
v 1.14848 0.74124 -7.98786
v 1.12856 0.74124 -7.84928
v 1.11859 0.62000 -7.78000
v 1.12856 0.49876 -7.84928
v 1.14848 0.49876 -7.98786
v 2.29330 0.62000 -7.81027
v 2.27358 0.74124 -7.74311
v 2.23414 0.74124 -7.60878
v 2.21442 0.62000 -7.54161
v 2.23414 0.49876 -7.60878
v 2.27358 0.49876 -7.74311
v 3.38148 0.62000 -7.40440
v 3.35240 0.74124 -7.34073
v 3.29424 0.74124 -7.21338
v 3.26516 0.62000 -7.14971
v 3.29424 0.49876 -7.21338
v 3.35240 0.49876 -7.34073
v 4.40082 0.62000 -6.84780
v 4.36297 0.74124 -6.78892
v 4.28728 0.74124 -6.67114
v 4.24944 0.62000 -6.61225
v 4.28728 0.49876 -6.67114
v 4.36297 0.49876 -6.78892
v 5.33057 0.62000 -6.15180
v 5.28473 0.74124 -6.09890
v 5.19305 0.74124 -5.99309
v 5.14721 0.62000 -5.94019
v 5.19305 0.49876 -5.99309
v 5.28473 0.49876 -6.09890
v 6.15180 0.62000 -5.33057
v 6.09890 0.74124 -5.28473
v 5.99309 0.74124 -5.19305
v 5.94019 0.62000 -5.14721
v 5.99309 0.49876 -5.19305
v 6.09890 0.49876 -5.28473
v 6.84780 0.62000 -4.40082
v 6.78892 0.74124 -4.36297
v 6.67114 0.74124 -4.28728
v 6.61225 0.62000 -4.24944
v 6.67114 0.49876 -4.28728
v 6.78892 0.49876 -4.36297
v 7.40440 0.62000 -3.38148
v 7.34073 0.74124 -3.35240
v 7.21338 0.74124 -3.29424
v 7.14971 0.62000 -3.26516
v 7.21338 0.49876 -3.29424
v 7.34073 0.49876 -3.35240
v 7.81027 0.62000 -2.29330
v 7.74311 0.74124 -2.27358
v 7.60878 0.74124 -2.23414
v 7.54161 0.62000 -2.21442
v 7.60878 0.49876 -2.23414
v 7.74311 0.49876 -2.27358
v 8.05715 0.62000 -1.15844
v 7.98786 0.74124 -1.14848
v 7.84928 0.74124 -1.12856
v 7.78000 0.62000 -1.11859
v 7.84928 0.49876 -1.12856
v 7.98786 0.49876 -1.14848
v -0.08000 0.66000 0.13856
v -0.04000 0.52144 0.06928
v 0.04000 0.52144 -0.06928
v 0.08000 0.66000 -0.13856
v 0.04000 0.79856 -0.06928
v -0.04000 0.79856 0.06928
v 6.15538 0.66000 3.73856
v 6.19538 0.52144 3.66928
v 6.27538 0.52144 3.53072
v 6.31538 0.66000 3.46144
v 6.27538 0.79856 3.53072
v 6.19538 0.79856 3.66928
v 0.00000 0.66000 0.00000
v 6.23538 0.66000 3.60000
v -0.16000 0.66000 0.00000
v -0.08000 0.52144 0.00000
v 0.08000 0.52144 -0.00000
v 0.16000 0.66000 -0.00000
v 0.08000 0.79856 -0.00000
v -0.08000 0.79856 0.00000
v -0.16000 0.66000 7.20000
v -0.08000 0.52144 7.20000
v 0.08000 0.52144 7.20000
v 0.16000 0.66000 7.20000
v 0.08000 0.79856 7.20000
v -0.08000 0.79856 7.20000
v 0.00000 0.66000 0.00000
v 0.00000 0.66000 7.20000
v -0.08000 0.66000 -0.13856
v -0.04000 0.52144 -0.06928
v 0.04000 0.52144 0.06928
v 0.08000 0.66000 0.13856
v 0.04000 0.79856 0.06928
v -0.04000 0.79856 -0.06928
v -6.31538 0.66000 3.46144
v -6.27538 0.52144 3.53072
v -6.19538 0.52144 3.66928
v -6.15538 0.66000 3.73856
v -6.19538 0.79856 3.66928
v -6.27538 0.79856 3.53072
v 0.00000 0.66000 0.00000
v -6.23538 0.66000 3.60000
v 0.08000 0.66000 -0.13856
v 0.04000 0.52144 -0.06928
v -0.04000 0.52144 0.06928
v -0.08000 0.66000 0.13856
v -0.04000 0.79856 0.06928
v 0.04000 0.79856 -0.06928
v -6.15538 0.66000 -3.73856
v -6.19538 0.52144 -3.66928
v -6.27538 0.52144 -3.53072
v -6.31538 0.66000 -3.46144
v -6.27538 0.79856 -3.53072
v -6.19538 0.79856 -3.66928
v 0.00000 0.66000 0.00000
v -6.23538 0.66000 -3.60000
v 0.16000 0.66000 -0.00000
v 0.08000 0.52144 -0.00000
v -0.08000 0.52144 0.00000
v -0.16000 0.66000 0.00000
v -0.08000 0.79856 0.00000
v 0.08000 0.79856 -0.00000
v 0.16000 0.66000 -7.20000
v 0.08000 0.52144 -7.20000
v -0.08000 0.52144 -7.20000
v -0.16000 0.66000 -7.20000
v -0.08000 0.79856 -7.20000
v 0.08000 0.79856 -7.20000
v 0.00000 0.66000 0.00000
v -0.00000 0.66000 -7.20000
v 0.08000 0.66000 0.13856
v 0.04000 0.52144 0.06928
v -0.04000 0.52144 -0.06928
v -0.08000 0.66000 -0.13856
v -0.04000 0.79856 -0.06928
v 0.04000 0.79856 0.06928
v 6.31538 0.66000 -3.46144
v 6.27538 0.52144 -3.53072
v 6.19538 0.52144 -3.66928
v 6.15538 0.66000 -3.73856
v 6.19538 0.79856 -3.66928
v 6.27538 0.79856 -3.53072
v 0.00000 0.66000 0.00000
v 6.23538 0.66000 -3.60000
v 0.00000 0.60000 0.00000
v 0.00000 0.60000 0.00000
v 0.00000 0.60000 0.00000
v -0.00000 0.60000 0.00000
v -0.00000 0.60000 0.00000
v -0.00000 0.60000 -0.00000
v -0.00000 0.60000 -0.00000
v 0.00000 0.60000 -0.00000
v 1.40000 0.60000 0.00000
v 0.98995 0.60000 0.98995
v 0.00000 0.60000 1.40000
v -0.98995 0.60000 0.98995
v -1.40000 0.60000 0.00000
v -0.98995 0.60000 -0.98995
v -0.00000 0.60000 -1.40000
v 0.98995 0.60000 -0.98995
v 1.00000 1.40000 0.00000
v 0.70711 1.40000 0.70711
v 0.00000 1.40000 1.00000
v -0.70711 1.40000 0.70711
v -1.00000 1.40000 0.00000
v -0.70711 1.40000 -0.70711
v -0.00000 1.40000 -1.00000
v 0.70711 1.40000 -0.70711
v 0.60000 2.20000 0.00000
v 0.42426 2.20000 0.42426
v 0.00000 2.20000 0.60000
v -0.42426 2.20000 0.42426
v -0.60000 2.20000 0.00000
v -0.42426 2.20000 -0.42426
v -0.00000 2.20000 -0.60000
v 0.42426 2.20000 -0.42426
v 0.90000 3.40000 0.00000
v 0.63640 3.40000 0.63640
v 0.00000 3.40000 0.90000
v -0.63640 3.40000 0.63640
v -0.90000 3.40000 0.00000
v -0.63640 3.40000 -0.63640
v -0.00000 3.40000 -0.90000
v 0.63640 3.40000 -0.63640
v 0.45000 5.00000 0.00000
v 0.31820 5.00000 0.31820
v 0.00000 5.00000 0.45000
v -0.31820 5.00000 0.31820
v -0.45000 5.00000 0.00000
v -0.31820 5.00000 -0.31820
v -0.00000 5.00000 -0.45000
v 0.31820 5.00000 -0.31820
v 0.00000 6.60000 0.00000
v 0.00000 6.60000 0.00000
v 0.00000 6.60000 0.00000
v -0.00000 6.60000 0.00000
v -0.00000 6.60000 0.00000
v -0.00000 6.60000 -0.00000
v -0.00000 6.60000 -0.00000
v 0.00000 6.60000 -0.00000
v 0.00000 0.90000 0.18000
v 0.00000 0.77272 0.12728
v 0.00000 0.72000 0.00000
v 0.00000 0.77272 -0.12728
v 0.00000 0.90000 -0.18000
v 0.00000 1.02728 -0.12728
v 0.00000 1.08000 -0.00000
v 0.00000 1.02728 0.12728
v 5.40000 0.90000 0.18000
v 5.40000 0.77272 0.12728
v 5.40000 0.72000 0.00000
v 5.40000 0.77272 -0.12728
v 5.40000 0.90000 -0.18000
v 5.40000 1.02728 -0.12728
v 5.40000 1.08000 -0.00000
v 5.40000 1.02728 0.12728
v 0.00000 0.90000 0.00000
v 5.40000 0.90000 0.00000
v 6.90000 0.60000 0.00000
v 6.90000 0.90000 0.00000
v 6.84889 0.60000 0.38823
v 6.84889 0.90000 0.38823
v 6.69904 0.60000 0.75000
v 6.69904 0.90000 0.75000
v 6.46066 0.60000 1.06066
v 6.46066 0.90000 1.06066
v 6.15000 0.60000 1.29904
v 6.15000 0.90000 1.29904
v 5.78823 0.60000 1.44889
v 5.78823 0.90000 1.44889
v 5.40000 0.60000 1.50000
v 5.40000 0.90000 1.50000
v 5.01177 0.60000 1.44889
v 5.01177 0.90000 1.44889
v 4.65000 0.60000 1.29904
v 4.65000 0.90000 1.29904
v 4.33934 0.60000 1.06066
v 4.33934 0.90000 1.06066
v 4.10096 0.60000 0.75000
v 4.10096 0.90000 0.75000
v 3.95111 0.60000 0.38823
v 3.95111 0.90000 0.38823
v 3.90000 0.60000 0.00000
v 3.90000 0.90000 0.00000
v 3.95111 0.60000 -0.38823
v 3.95111 0.90000 -0.38823
v 4.10096 0.60000 -0.75000
v 4.10096 0.90000 -0.75000
v 4.33934 0.60000 -1.06066
v 4.33934 0.90000 -1.06066
v 4.65000 0.60000 -1.29904
v 4.65000 0.90000 -1.29904
v 5.01177 0.60000 -1.44889
v 5.01177 0.90000 -1.44889
v 5.40000 0.60000 -1.50000
v 5.40000 0.90000 -1.50000
v 5.78823 0.60000 -1.44889
v 5.78823 0.90000 -1.44889
v 6.15000 0.60000 -1.29904
v 6.15000 0.90000 -1.29904
v 6.46066 0.60000 -1.06066
v 6.46066 0.90000 -1.06066
v 6.69904 0.60000 -0.75000
v 6.69904 0.90000 -0.75000
v 6.84889 0.60000 -0.38823
v 6.84889 0.90000 -0.38823
v 5.40000 0.60000 0.00000
v 5.40000 0.90000 0.00000
v 6.60000 0.90000 0.00000
v 6.60000 0.98000 0.00000
v 6.55911 0.90000 0.31058
v 6.55911 0.98000 0.31058
v 6.43923 0.90000 0.60000
v 6.43923 0.98000 0.60000
v 6.24853 0.90000 0.84853
v 6.24853 0.98000 0.84853
v 6.00000 0.90000 1.03923
v 6.00000 0.98000 1.03923
v 5.71058 0.90000 1.15911
v 5.71058 0.98000 1.15911
v 5.40000 0.90000 1.20000
v 5.40000 0.98000 1.20000
v 5.08942 0.90000 1.15911
v 5.08942 0.98000 1.15911
v 4.80000 0.90000 1.03923
v 4.80000 0.98000 1.03923
v 4.55147 0.90000 0.84853
v 4.55147 0.98000 0.84853
v 4.36077 0.90000 0.60000
v 4.36077 0.98000 0.60000
v 4.24089 0.90000 0.31058
v 4.24089 0.98000 0.31058
v 4.20000 0.90000 0.00000
v 4.20000 0.98000 0.00000
v 4.24089 0.90000 -0.31058
v 4.24089 0.98000 -0.31058
v 4.36077 0.90000 -0.60000
v 4.36077 0.98000 -0.60000
v 4.55147 0.90000 -0.84853
v 4.55147 0.98000 -0.84853
v 4.80000 0.90000 -1.03923
v 4.80000 0.98000 -1.03923
v 5.08942 0.90000 -1.15911
v 5.08942 0.98000 -1.15911
v 5.40000 0.90000 -1.20000
v 5.40000 0.98000 -1.20000
v 5.71058 0.90000 -1.15911
v 5.71058 0.98000 -1.15911
v 6.00000 0.90000 -1.03923
v 6.00000 0.98000 -1.03923
v 6.24853 0.90000 -0.84853
v 6.24853 0.98000 -0.84853
v 6.43923 0.90000 -0.60000
v 6.43923 0.98000 -0.60000
v 6.55911 0.90000 -0.31058
v 6.55911 0.98000 -0.31058
v 5.40000 0.90000 0.00000
v 5.40000 0.98000 0.00000
v -0.15588 0.90000 0.09000
v -0.11023 0.77272 0.06364
v -0.00000 0.72000 0.00000
v 0.11023 0.77272 -0.06364
v 0.15588 0.90000 -0.09000
v 0.11023 1.02728 -0.06364
v 0.00000 1.08000 -0.00000
v -0.11023 1.02728 0.06364
v 2.54412 0.90000 4.76654
v 2.58977 0.77272 4.74018
v 2.70000 0.72000 4.67654
v 2.81023 0.77272 4.61290
v 2.85588 0.90000 4.58654
v 2.81023 1.02728 4.61290
v 2.70000 1.08000 4.67654
v 2.58977 1.02728 4.74018
v 0.00000 0.90000 0.00000
v 2.70000 0.90000 4.67654
v 4.20000 0.60000 4.67654
v 4.20000 0.90000 4.67654
v 4.14889 0.60000 5.06477
v 4.14889 0.90000 5.06477
v 3.99904 0.60000 5.42654
v 3.99904 0.90000 5.42654
v 3.76066 0.60000 5.73720
v 3.76066 0.90000 5.73720
v 3.45000 0.60000 5.97558
v 3.45000 0.90000 5.97558
v 3.08823 0.60000 6.12543
v 3.08823 0.90000 6.12543
v 2.70000 0.60000 6.17654
v 2.70000 0.90000 6.17654
v 2.31177 0.60000 6.12543
v 2.31177 0.90000 6.12543
v 1.95000 0.60000 5.97558
v 1.95000 0.90000 5.97558
v 1.63934 0.60000 5.73720
v 1.63934 0.90000 5.73720
v 1.40096 0.60000 5.42654
v 1.40096 0.90000 5.42654
v 1.25111 0.60000 5.06477
v 1.25111 0.90000 5.06477
v 1.20000 0.60000 4.67654
v 1.20000 0.90000 4.67654
v 1.25111 0.60000 4.28831
v 1.25111 0.90000 4.28831
v 1.40096 0.60000 3.92654
v 1.40096 0.90000 3.92654
v 1.63934 0.60000 3.61588
v 1.63934 0.90000 3.61588
v 1.95000 0.60000 3.37750
v 1.95000 0.90000 3.37750
v 2.31177 0.60000 3.22765
v 2.31177 0.90000 3.22765
v 2.70000 0.60000 3.17654
v 2.70000 0.90000 3.17654
v 3.08823 0.60000 3.22765
v 3.08823 0.90000 3.22765
v 3.45000 0.60000 3.37750
v 3.45000 0.90000 3.37750
v 3.76066 0.60000 3.61588
v 3.76066 0.90000 3.61588
v 3.99904 0.60000 3.92654
v 3.99904 0.90000 3.92654
v 4.14889 0.60000 4.28831
v 4.14889 0.90000 4.28831
v 2.70000 0.60000 4.67654
v 2.70000 0.90000 4.67654
v 3.90000 0.90000 4.67654
v 3.90000 0.98000 4.67654
v 3.85911 0.90000 4.98712
v 3.85911 0.98000 4.98712
v 3.73923 0.90000 5.27654
v 3.73923 0.98000 5.27654
v 3.54853 0.90000 5.52507
v 3.54853 0.98000 5.52507
v 3.30000 0.90000 5.71577
v 3.30000 0.98000 5.71577
v 3.01058 0.90000 5.83565
v 3.01058 0.98000 5.83565
v 2.70000 0.90000 5.87654
v 2.70000 0.98000 5.87654
v 2.38942 0.90000 5.83565
v 2.38942 0.98000 5.83565
v 2.10000 0.90000 5.71577
v 2.10000 0.98000 5.71577
v 1.85147 0.90000 5.52507
v 1.85147 0.98000 5.52507
v 1.66077 0.90000 5.27654
v 1.66077 0.98000 5.27654
v 1.54089 0.90000 4.98712
v 1.54089 0.98000 4.98712
v 1.50000 0.90000 4.67654
v 1.50000 0.98000 4.67654
v 1.54089 0.90000 4.36595
v 1.54089 0.98000 4.36595
v 1.66077 0.90000 4.07654
v 1.66077 0.98000 4.07654
v 1.85147 0.90000 3.82801
v 1.85147 0.98000 3.82801
v 2.10000 0.90000 3.63731
v 2.10000 0.98000 3.63731
v 2.38942 0.90000 3.51743
v 2.38942 0.98000 3.51743
v 2.70000 0.90000 3.47654
v 2.70000 0.98000 3.47654
v 3.01058 0.90000 3.51743
v 3.01058 0.98000 3.51743
v 3.30000 0.90000 3.63731
v 3.30000 0.98000 3.63731
v 3.54853 0.90000 3.82801
v 3.54853 0.98000 3.82801
v 3.73923 0.90000 4.07654
v 3.73923 0.98000 4.07654
v 3.85911 0.90000 4.36595
v 3.85911 0.98000 4.36595
v 2.70000 0.90000 4.67654
v 2.70000 0.98000 4.67654
v -0.15588 0.90000 -0.09000
v -0.11023 0.77272 -0.06364
v -0.00000 0.72000 -0.00000
v 0.11023 0.77272 0.06364
v 0.15588 0.90000 0.09000
v 0.11023 1.02728 0.06364
v 0.00000 1.08000 0.00000
v -0.11023 1.02728 -0.06364
v -2.85588 0.90000 4.58654
v -2.81023 0.77272 4.61290
v -2.70000 0.72000 4.67654
v -2.58977 0.77272 4.74018
v -2.54412 0.90000 4.76654
v -2.58977 1.02728 4.74018
v -2.70000 1.08000 4.67654
v -2.81023 1.02728 4.61290
v 0.00000 0.90000 0.00000
v -2.70000 0.90000 4.67654
v -1.20000 0.60000 4.67654
v -1.20000 0.90000 4.67654
v -1.25111 0.60000 5.06477
v -1.25111 0.90000 5.06477
v -1.40096 0.60000 5.42654
v -1.40096 0.90000 5.42654
v -1.63934 0.60000 5.73720
v -1.63934 0.90000 5.73720
v -1.95000 0.60000 5.97558
v -1.95000 0.90000 5.97558
v -2.31177 0.60000 6.12543
v -2.31177 0.90000 6.12543
v -2.70000 0.60000 6.17654
v -2.70000 0.90000 6.17654
v -3.08823 0.60000 6.12543
v -3.08823 0.90000 6.12543
v -3.45000 0.60000 5.97558
v -3.45000 0.90000 5.97558
v -3.76066 0.60000 5.73720
v -3.76066 0.90000 5.73720
v -3.99904 0.60000 5.42654
v -3.99904 0.90000 5.42654
v -4.14889 0.60000 5.06477
v -4.14889 0.90000 5.06477
v -4.20000 0.60000 4.67654
v -4.20000 0.90000 4.67654
v -4.14889 0.60000 4.28831
v -4.14889 0.90000 4.28831
v -3.99904 0.60000 3.92654
v -3.99904 0.90000 3.92654
v -3.76066 0.60000 3.61588
v -3.76066 0.90000 3.61588
v -3.45000 0.60000 3.37750
v -3.45000 0.90000 3.37750
v -3.08823 0.60000 3.22765
v -3.08823 0.90000 3.22765
v -2.70000 0.60000 3.17654
v -2.70000 0.90000 3.17654
v -2.31177 0.60000 3.22765
v -2.31177 0.90000 3.22765
v -1.95000 0.60000 3.37750
v -1.95000 0.90000 3.37750
v -1.63934 0.60000 3.61588
v -1.63934 0.90000 3.61588
v -1.40096 0.60000 3.92654
v -1.40096 0.90000 3.92654
v -1.25111 0.60000 4.28831
v -1.25111 0.90000 4.28831
v -2.70000 0.60000 4.67654
v -2.70000 0.90000 4.67654
v -1.50000 0.90000 4.67654
v -1.50000 0.98000 4.67654
v -1.54089 0.90000 4.98712
v -1.54089 0.98000 4.98712
v -1.66077 0.90000 5.27654
v -1.66077 0.98000 5.27654
v -1.85147 0.90000 5.52507
v -1.85147 0.98000 5.52507
v -2.10000 0.90000 5.71577
v -2.10000 0.98000 5.71577
v -2.38942 0.90000 5.83565
v -2.38942 0.98000 5.83565
v -2.70000 0.90000 5.87654
v -2.70000 0.98000 5.87654
v -3.01058 0.90000 5.83565
v -3.01058 0.98000 5.83565
v -3.30000 0.90000 5.71577
v -3.30000 0.98000 5.71577
v -3.54853 0.90000 5.52507
v -3.54853 0.98000 5.52507
v -3.73923 0.90000 5.27654
v -3.73923 0.98000 5.27654
v -3.85911 0.90000 4.98712
v -3.85911 0.98000 4.98712
v -3.90000 0.90000 4.67654
v -3.90000 0.98000 4.67654
v -3.85911 0.90000 4.36595
v -3.85911 0.98000 4.36595
v -3.73923 0.90000 4.07654
v -3.73923 0.98000 4.07654
v -3.54853 0.90000 3.82801
v -3.54853 0.98000 3.82801
v -3.30000 0.90000 3.63731
v -3.30000 0.98000 3.63731
v -3.01058 0.90000 3.51743
v -3.01058 0.98000 3.51743
v -2.70000 0.90000 3.47654
v -2.70000 0.98000 3.47654
v -2.38942 0.90000 3.51743
v -2.38942 0.98000 3.51743
v -2.10000 0.90000 3.63731
v -2.10000 0.98000 3.63731
v -1.85147 0.90000 3.82801
v -1.85147 0.98000 3.82801
v -1.66077 0.90000 4.07654
v -1.66077 0.98000 4.07654
v -1.54089 0.90000 4.36595
v -1.54089 0.98000 4.36595
v -2.70000 0.90000 4.67654
v -2.70000 0.98000 4.67654
v -0.00000 0.90000 -0.18000
v -0.00000 0.77272 -0.12728
v -0.00000 0.72000 -0.00000
v 0.00000 0.77272 0.12728
v 0.00000 0.90000 0.18000
v 0.00000 1.02728 0.12728
v 0.00000 1.08000 0.00000
v -0.00000 1.02728 -0.12728
v -5.40000 0.90000 -0.18000
v -5.40000 0.77272 -0.12728
v -5.40000 0.72000 0.00000
v -5.40000 0.77272 0.12728
v -5.40000 0.90000 0.18000
v -5.40000 1.02728 0.12728
v -5.40000 1.08000 0.00000
v -5.40000 1.02728 -0.12728
v 0.00000 0.90000 0.00000
v -5.40000 0.90000 0.00000
v -3.90000 0.60000 0.00000
v -3.90000 0.90000 0.00000
v -3.95111 0.60000 0.38823
v -3.95111 0.90000 0.38823
v -4.10096 0.60000 0.75000
v -4.10096 0.90000 0.75000
v -4.33934 0.60000 1.06066
v -4.33934 0.90000 1.06066
v -4.65000 0.60000 1.29904
v -4.65000 0.90000 1.29904
v -5.01177 0.60000 1.44889
v -5.01177 0.90000 1.44889
v -5.40000 0.60000 1.50000
v -5.40000 0.90000 1.50000
v -5.78823 0.60000 1.44889
v -5.78823 0.90000 1.44889
v -6.15000 0.60000 1.29904
v -6.15000 0.90000 1.29904
v -6.46066 0.60000 1.06066
v -6.46066 0.90000 1.06066
v -6.69904 0.60000 0.75000
v -6.69904 0.90000 0.75000
v -6.84889 0.60000 0.38823
v -6.84889 0.90000 0.38823
v -6.90000 0.60000 0.00000
v -6.90000 0.90000 0.00000
v -6.84889 0.60000 -0.38823
v -6.84889 0.90000 -0.38823
v -6.69904 0.60000 -0.75000
v -6.69904 0.90000 -0.75000
v -6.46066 0.60000 -1.06066
v -6.46066 0.90000 -1.06066
v -6.15000 0.60000 -1.29904
v -6.15000 0.90000 -1.29904
v -5.78823 0.60000 -1.44889
v -5.78823 0.90000 -1.44889
v -5.40000 0.60000 -1.50000
v -5.40000 0.90000 -1.50000
v -5.01177 0.60000 -1.44889
v -5.01177 0.90000 -1.44889
v -4.65000 0.60000 -1.29904
v -4.65000 0.90000 -1.29904
v -4.33934 0.60000 -1.06066
v -4.33934 0.90000 -1.06066
v -4.10096 0.60000 -0.75000
v -4.10096 0.90000 -0.75000
v -3.95111 0.60000 -0.38823
v -3.95111 0.90000 -0.38823
v -5.40000 0.60000 0.00000
v -5.40000 0.90000 0.00000
v -4.20000 0.90000 0.00000
v -4.20000 0.98000 0.00000
v -4.24089 0.90000 0.31058
v -4.24089 0.98000 0.31058
v -4.36077 0.90000 0.60000
v -4.36077 0.98000 0.60000
v -4.55147 0.90000 0.84853
v -4.55147 0.98000 0.84853
v -4.80000 0.90000 1.03923
v -4.80000 0.98000 1.03923
v -5.08942 0.90000 1.15911
v -5.08942 0.98000 1.15911
v -5.40000 0.90000 1.20000
v -5.40000 0.98000 1.20000
v -5.71058 0.90000 1.15911
v -5.71058 0.98000 1.15911
v -6.00000 0.90000 1.03923
v -6.00000 0.98000 1.03923
v -6.24853 0.90000 0.84853
v -6.24853 0.98000 0.84853
v -6.43923 0.90000 0.60000
v -6.43923 0.98000 0.60000
v -6.55911 0.90000 0.31058
v -6.55911 0.98000 0.31058
v -6.60000 0.90000 0.00000
v -6.60000 0.98000 0.00000
v -6.55911 0.90000 -0.31058
v -6.55911 0.98000 -0.31058
v -6.43923 0.90000 -0.60000
v -6.43923 0.98000 -0.60000
v -6.24853 0.90000 -0.84853
v -6.24853 0.98000 -0.84853
v -6.00000 0.90000 -1.03923
v -6.00000 0.98000 -1.03923
v -5.71058 0.90000 -1.15911
v -5.71058 0.98000 -1.15911
v -5.40000 0.90000 -1.20000
v -5.40000 0.98000 -1.20000
v -5.08942 0.90000 -1.15911
v -5.08942 0.98000 -1.15911
v -4.80000 0.90000 -1.03923
v -4.80000 0.98000 -1.03923
v -4.55147 0.90000 -0.84853
v -4.55147 0.98000 -0.84853
v -4.36077 0.90000 -0.60000
v -4.36077 0.98000 -0.60000
v -4.24089 0.90000 -0.31058
v -4.24089 0.98000 -0.31058
v -5.40000 0.90000 0.00000
v -5.40000 0.98000 0.00000
v 0.15588 0.90000 -0.09000
v 0.11023 0.77272 -0.06364
v 0.00000 0.72000 -0.00000
v -0.11023 0.77272 0.06364
v -0.15588 0.90000 0.09000
v -0.11023 1.02728 0.06364
v -0.00000 1.08000 0.00000
v 0.11023 1.02728 -0.06364
v -2.54412 0.90000 -4.76654
v -2.58977 0.77272 -4.74018
v -2.70000 0.72000 -4.67654
v -2.81023 0.77272 -4.61290
v -2.85588 0.90000 -4.58654
v -2.81023 1.02728 -4.61290
v -2.70000 1.08000 -4.67654
v -2.58977 1.02728 -4.74018
v 0.00000 0.90000 0.00000
v -2.70000 0.90000 -4.67654
v -1.20000 0.60000 -4.67654
v -1.20000 0.90000 -4.67654
v -1.25111 0.60000 -4.28831
v -1.25111 0.90000 -4.28831
v -1.40096 0.60000 -3.92654
v -1.40096 0.90000 -3.92654
v -1.63934 0.60000 -3.61588
v -1.63934 0.90000 -3.61588
v -1.95000 0.60000 -3.37750
v -1.95000 0.90000 -3.37750
v -2.31177 0.60000 -3.22765
v -2.31177 0.90000 -3.22765
v -2.70000 0.60000 -3.17654
v -2.70000 0.90000 -3.17654
v -3.08823 0.60000 -3.22765
v -3.08823 0.90000 -3.22765
v -3.45000 0.60000 -3.37750
v -3.45000 0.90000 -3.37750
v -3.76066 0.60000 -3.61588
v -3.76066 0.90000 -3.61588
v -3.99904 0.60000 -3.92654
v -3.99904 0.90000 -3.92654
v -4.14889 0.60000 -4.28831
v -4.14889 0.90000 -4.28831
v -4.20000 0.60000 -4.67654
v -4.20000 0.90000 -4.67654
v -4.14889 0.60000 -5.06477
v -4.14889 0.90000 -5.06477
v -3.99904 0.60000 -5.42654
v -3.99904 0.90000 -5.42654
v -3.76066 0.60000 -5.73720
v -3.76066 0.90000 -5.73720
v -3.45000 0.60000 -5.97558
v -3.45000 0.90000 -5.97558
v -3.08823 0.60000 -6.12543
v -3.08823 0.90000 -6.12543
v -2.70000 0.60000 -6.17654
v -2.70000 0.90000 -6.17654
v -2.31177 0.60000 -6.12543
v -2.31177 0.90000 -6.12543
v -1.95000 0.60000 -5.97558
v -1.95000 0.90000 -5.97558
v -1.63934 0.60000 -5.73720
v -1.63934 0.90000 -5.73720
v -1.40096 0.60000 -5.42654
v -1.40096 0.90000 -5.42654
v -1.25111 0.60000 -5.06477
v -1.25111 0.90000 -5.06477
v -2.70000 0.60000 -4.67654
v -2.70000 0.90000 -4.67654
v -1.50000 0.90000 -4.67654
v -1.50000 0.98000 -4.67654
v -1.54089 0.90000 -4.36595
v -1.54089 0.98000 -4.36595
v -1.66077 0.90000 -4.07654
v -1.66077 0.98000 -4.07654
v -1.85147 0.90000 -3.82801
v -1.85147 0.98000 -3.82801
v -2.10000 0.90000 -3.63731
v -2.10000 0.98000 -3.63731
v -2.38942 0.90000 -3.51743
v -2.38942 0.98000 -3.51743
v -2.70000 0.90000 -3.47654
v -2.70000 0.98000 -3.47654
v -3.01058 0.90000 -3.51743
v -3.01058 0.98000 -3.51743
v -3.30000 0.90000 -3.63731
v -3.30000 0.98000 -3.63731
v -3.54853 0.90000 -3.82801
v -3.54853 0.98000 -3.82801
v -3.73923 0.90000 -4.07654
v -3.73923 0.98000 -4.07654
v -3.85911 0.90000 -4.36595
v -3.85911 0.98000 -4.36595
v -3.90000 0.90000 -4.67654
v -3.90000 0.98000 -4.67654
v -3.85911 0.90000 -4.98712
v -3.85911 0.98000 -4.98712
v -3.73923 0.90000 -5.27654
v -3.73923 0.98000 -5.27654
v -3.54853 0.90000 -5.52507
v -3.54853 0.98000 -5.52507
v -3.30000 0.90000 -5.71577
v -3.30000 0.98000 -5.71577
v -3.01058 0.90000 -5.83565
v -3.01058 0.98000 -5.83565
v -2.70000 0.90000 -5.87654
v -2.70000 0.98000 -5.87654
v -2.38942 0.90000 -5.83565
v -2.38942 0.98000 -5.83565
v -2.10000 0.90000 -5.71577
v -2.10000 0.98000 -5.71577
v -1.85147 0.90000 -5.52507
v -1.85147 0.98000 -5.52507
v -1.66077 0.90000 -5.27654
v -1.66077 0.98000 -5.27654
v -1.54089 0.90000 -4.98712
v -1.54089 0.98000 -4.98712
v -2.70000 0.90000 -4.67654
v -2.70000 0.98000 -4.67654
v 0.15588 0.90000 0.09000
v 0.11023 0.77272 0.06364
v 0.00000 0.72000 0.00000
v -0.11023 0.77272 -0.06364
v -0.15588 0.90000 -0.09000
v -0.11023 1.02728 -0.06364
v -0.00000 1.08000 -0.00000
v 0.11023 1.02728 0.06364
v 2.85588 0.90000 -4.58654
v 2.81023 0.77272 -4.61290
v 2.70000 0.72000 -4.67654
v 2.58977 0.77272 -4.74018
v 2.54412 0.90000 -4.76654
v 2.58977 1.02728 -4.74018
v 2.70000 1.08000 -4.67654
v 2.81023 1.02728 -4.61290
v 0.00000 0.90000 0.00000
v 2.70000 0.90000 -4.67654
v 4.20000 0.60000 -4.67654
v 4.20000 0.90000 -4.67654
v 4.14889 0.60000 -4.28831
v 4.14889 0.90000 -4.28831
v 3.99904 0.60000 -3.92654
v 3.99904 0.90000 -3.92654
v 3.76066 0.60000 -3.61588
v 3.76066 0.90000 -3.61588
v 3.45000 0.60000 -3.37750
v 3.45000 0.90000 -3.37750
v 3.08823 0.60000 -3.22765
v 3.08823 0.90000 -3.22765
v 2.70000 0.60000 -3.17654
v 2.70000 0.90000 -3.17654
v 2.31177 0.60000 -3.22765
v 2.31177 0.90000 -3.22765
v 1.95000 0.60000 -3.37750
v 1.95000 0.90000 -3.37750
v 1.63934 0.60000 -3.61588
v 1.63934 0.90000 -3.61588
v 1.40096 0.60000 -3.92654
v 1.40096 0.90000 -3.92654
v 1.25111 0.60000 -4.28831
v 1.25111 0.90000 -4.28831
v 1.20000 0.60000 -4.67654
v 1.20000 0.90000 -4.67654
v 1.25111 0.60000 -5.06477
v 1.25111 0.90000 -5.06477
v 1.40096 0.60000 -5.42654
v 1.40096 0.90000 -5.42654
v 1.63934 0.60000 -5.73720
v 1.63934 0.90000 -5.73720
v 1.95000 0.60000 -5.97558
v 1.95000 0.90000 -5.97558
v 2.31177 0.60000 -6.12543
v 2.31177 0.90000 -6.12543
v 2.70000 0.60000 -6.17654
v 2.70000 0.90000 -6.17654
v 3.08823 0.60000 -6.12543
v 3.08823 0.90000 -6.12543
v 3.45000 0.60000 -5.97558
v 3.45000 0.90000 -5.97558
v 3.76066 0.60000 -5.73720
v 3.76066 0.90000 -5.73720
v 3.99904 0.60000 -5.42654
v 3.99904 0.90000 -5.42654
v 4.14889 0.60000 -5.06477
v 4.14889 0.90000 -5.06477
v 2.70000 0.60000 -4.67654
v 2.70000 0.90000 -4.67654
v 3.90000 0.90000 -4.67654
v 3.90000 0.98000 -4.67654
v 3.85911 0.90000 -4.36595
v 3.85911 0.98000 -4.36595
v 3.73923 0.90000 -4.07654
v 3.73923 0.98000 -4.07654
v 3.54853 0.90000 -3.82801
v 3.54853 0.98000 -3.82801
v 3.30000 0.90000 -3.63731
v 3.30000 0.98000 -3.63731
v 3.01058 0.90000 -3.51743
v 3.01058 0.98000 -3.51743
v 2.70000 0.90000 -3.47654
v 2.70000 0.98000 -3.47654
v 2.38942 0.90000 -3.51743
v 2.38942 0.98000 -3.51743
v 2.10000 0.90000 -3.63731
v 2.10000 0.98000 -3.63731
v 1.85147 0.90000 -3.82801
v 1.85147 0.98000 -3.82801
v 1.66077 0.90000 -4.07654
v 1.66077 0.98000 -4.07654
v 1.54089 0.90000 -4.36595
v 1.54089 0.98000 -4.36595
v 1.50000 0.90000 -4.67654
v 1.50000 0.98000 -4.67654
v 1.54089 0.90000 -4.98712
v 1.54089 0.98000 -4.98712
v 1.66077 0.90000 -5.27654
v 1.66077 0.98000 -5.27654
v 1.85147 0.90000 -5.52507
v 1.85147 0.98000 -5.52507
v 2.10000 0.90000 -5.71577
v 2.10000 0.98000 -5.71577
v 2.38942 0.90000 -5.83565
v 2.38942 0.98000 -5.83565
v 2.70000 0.90000 -5.87654
v 2.70000 0.98000 -5.87654
v 3.01058 0.90000 -5.83565
v 3.01058 0.98000 -5.83565
v 3.30000 0.90000 -5.71577
v 3.30000 0.98000 -5.71577
v 3.54853 0.90000 -5.52507
v 3.54853 0.98000 -5.52507
v 3.73923 0.90000 -5.27654
v 3.73923 0.98000 -5.27654
v 3.85911 0.90000 -4.98712
v 3.85911 0.98000 -4.98712
v 2.70000 0.90000 -4.67654
v 2.70000 0.98000 -4.67654
v 0.00000 7.50000 -0.12000
v -0.12637 7.17394 -0.12000
v -0.47553 7.15451 -0.12000
v -0.20448 6.93356 -0.12000
v -0.29389 6.59549 -0.12000
v -0.00000 6.78500 -0.12000
v 0.29389 6.59549 -0.12000
v 0.20448 6.93356 -0.12000
v 0.47553 7.15451 -0.12000
v 0.12637 7.17394 -0.12000
v 0.00000 7.50000 0.12000
v -0.12637 7.17394 0.12000
v -0.47553 7.15451 0.12000
v -0.20448 6.93356 0.12000
v -0.29389 6.59549 0.12000
v -0.00000 6.78500 0.12000
v 0.29389 6.59549 0.12000
v 0.20448 6.93356 0.12000
v 0.47553 7.15451 0.12000
v 0.12637 7.17394 0.12000
v 0.00000 7.00000 -0.12000
v 0.00000 7.00000 0.12000
vt 0.05000 0.50000
vt 0.15000 0.50000
vt 0.25000 0.50000
vt 0.35000 0.50000
vt 0.45000 0.50000
vt 0.55000 0.50000
vt 0.65000 0.50000
vt 0.75000 0.50000
vt 0.85000 0.50000
vt 0.95000 0.50000
usemtl faded_mint
f 2/9 4/9 3/9 1/9
f 1/9 3/9 89/9
f 4/9 2/9 90/9
f 4/9 6/9 5/9 3/9
f 3/9 5/9 89/9
f 6/9 4/9 90/9
f 6/9 8/9 7/9 5/9
f 5/9 7/9 89/9
f 8/9 6/9 90/9
f 8/9 10/9 9/9 7/9
f 7/9 9/9 89/9
f 10/9 8/9 90/9
f 10/9 12/9 11/9 9/9
f 9/9 11/9 89/9
f 12/9 10/9 90/9
f 12/9 14/9 13/9 11/9
f 11/9 13/9 89/9
f 14/9 12/9 90/9
f 14/9 16/9 15/9 13/9
f 13/9 15/9 89/9
f 16/9 14/9 90/9
f 16/9 18/9 17/9 15/9
f 15/9 17/9 89/9
f 18/9 16/9 90/9
f 18/9 20/9 19/9 17/9
f 17/9 19/9 89/9
f 20/9 18/9 90/9
f 20/9 22/9 21/9 19/9
f 19/9 21/9 89/9
f 22/9 20/9 90/9
f 22/9 24/9 23/9 21/9
f 21/9 23/9 89/9
f 24/9 22/9 90/9
f 24/9 26/9 25/9 23/9
f 23/9 25/9 89/9
f 26/9 24/9 90/9
f 26/9 28/9 27/9 25/9
f 25/9 27/9 89/9
f 28/9 26/9 90/9
f 28/9 30/9 29/9 27/9
f 27/9 29/9 89/9
f 30/9 28/9 90/9
f 30/9 32/9 31/9 29/9
f 29/9 31/9 89/9
f 32/9 30/9 90/9
f 32/9 34/9 33/9 31/9
f 31/9 33/9 89/9
f 34/9 32/9 90/9
f 34/9 36/9 35/9 33/9
f 33/9 35/9 89/9
f 36/9 34/9 90/9
f 36/9 38/9 37/9 35/9
f 35/9 37/9 89/9
f 38/9 36/9 90/9
f 38/9 40/9 39/9 37/9
f 37/9 39/9 89/9
f 40/9 38/9 90/9
f 40/9 42/9 41/9 39/9
f 39/9 41/9 89/9
f 42/9 40/9 90/9
f 42/9 44/9 43/9 41/9
f 41/9 43/9 89/9
f 44/9 42/9 90/9
f 44/9 46/9 45/9 43/9
f 43/9 45/9 89/9
f 46/9 44/9 90/9
f 46/9 48/9 47/9 45/9
f 45/9 47/9 89/9
f 48/9 46/9 90/9
f 48/9 50/9 49/9 47/9
f 47/9 49/9 89/9
f 50/9 48/9 90/9
f 50/9 52/9 51/9 49/9
f 49/9 51/9 89/9
f 52/9 50/9 90/9
f 52/9 54/9 53/9 51/9
f 51/9 53/9 89/9
f 54/9 52/9 90/9
f 54/9 56/9 55/9 53/9
f 53/9 55/9 89/9
f 56/9 54/9 90/9
f 56/9 58/9 57/9 55/9
f 55/9 57/9 89/9
f 58/9 56/9 90/9
f 58/9 60/9 59/9 57/9
f 57/9 59/9 89/9
f 60/9 58/9 90/9
f 60/9 62/9 61/9 59/9
f 59/9 61/9 89/9
f 62/9 60/9 90/9
f 62/9 64/9 63/9 61/9
f 61/9 63/9 89/9
f 64/9 62/9 90/9
f 64/9 66/9 65/9 63/9
f 63/9 65/9 89/9
f 66/9 64/9 90/9
f 66/9 68/9 67/9 65/9
f 65/9 67/9 89/9
f 68/9 66/9 90/9
f 68/9 70/9 69/9 67/9
f 67/9 69/9 89/9
f 70/9 68/9 90/9
f 70/9 72/9 71/9 69/9
f 69/9 71/9 89/9
f 72/9 70/9 90/9
f 72/9 74/9 73/9 71/9
f 71/9 73/9 89/9
f 74/9 72/9 90/9
f 74/9 76/9 75/9 73/9
f 73/9 75/9 89/9
f 76/9 74/9 90/9
f 76/9 78/9 77/9 75/9
f 75/9 77/9 89/9
f 78/9 76/9 90/9
f 78/9 80/9 79/9 77/9
f 77/9 79/9 89/9
f 80/9 78/9 90/9
f 80/9 82/9 81/9 79/9
f 79/9 81/9 89/9
f 82/9 80/9 90/9
f 82/9 84/9 83/9 81/9
f 81/9 83/9 89/9
f 84/9 82/9 90/9
f 84/9 86/9 85/9 83/9
f 83/9 85/9 89/9
f 86/9 84/9 90/9
f 86/9 88/9 87/9 85/9
f 85/9 87/9 89/9
f 88/9 86/9 90/9
f 88/9 2/9 1/9 87/9
f 87/9 1/9 89/9
f 2/9 88/9 90/9
usemtl cream
f 92/1 94/1 93/1 91/1
f 91/1 93/1 179/1
f 94/1 92/1 180/1
f 94/1 96/1 95/1 93/1
f 93/1 95/1 179/1
f 96/1 94/1 180/1
f 96/1 98/1 97/1 95/1
f 95/1 97/1 179/1
f 98/1 96/1 180/1
f 98/1 100/1 99/1 97/1
f 97/1 99/1 179/1
f 100/1 98/1 180/1
f 100/1 102/1 101/1 99/1
f 99/1 101/1 179/1
f 102/1 100/1 180/1
f 102/1 104/1 103/1 101/1
f 101/1 103/1 179/1
f 104/1 102/1 180/1
f 104/1 106/1 105/1 103/1
f 103/1 105/1 179/1
f 106/1 104/1 180/1
f 106/1 108/1 107/1 105/1
f 105/1 107/1 179/1
f 108/1 106/1 180/1
f 108/1 110/1 109/1 107/1
f 107/1 109/1 179/1
f 110/1 108/1 180/1
f 110/1 112/1 111/1 109/1
f 109/1 111/1 179/1
f 112/1 110/1 180/1
f 112/1 114/1 113/1 111/1
f 111/1 113/1 179/1
f 114/1 112/1 180/1
f 114/1 116/1 115/1 113/1
f 113/1 115/1 179/1
f 116/1 114/1 180/1
f 116/1 118/1 117/1 115/1
f 115/1 117/1 179/1
f 118/1 116/1 180/1
f 118/1 120/1 119/1 117/1
f 117/1 119/1 179/1
f 120/1 118/1 180/1
f 120/1 122/1 121/1 119/1
f 119/1 121/1 179/1
f 122/1 120/1 180/1
f 122/1 124/1 123/1 121/1
f 121/1 123/1 179/1
f 124/1 122/1 180/1
f 124/1 126/1 125/1 123/1
f 123/1 125/1 179/1
f 126/1 124/1 180/1
f 126/1 128/1 127/1 125/1
f 125/1 127/1 179/1
f 128/1 126/1 180/1
f 128/1 130/1 129/1 127/1
f 127/1 129/1 179/1
f 130/1 128/1 180/1
f 130/1 132/1 131/1 129/1
f 129/1 131/1 179/1
f 132/1 130/1 180/1
f 132/1 134/1 133/1 131/1
f 131/1 133/1 179/1
f 134/1 132/1 180/1
f 134/1 136/1 135/1 133/1
f 133/1 135/1 179/1
f 136/1 134/1 180/1
f 136/1 138/1 137/1 135/1
f 135/1 137/1 179/1
f 138/1 136/1 180/1
f 138/1 140/1 139/1 137/1
f 137/1 139/1 179/1
f 140/1 138/1 180/1
f 140/1 142/1 141/1 139/1
f 139/1 141/1 179/1
f 142/1 140/1 180/1
f 142/1 144/1 143/1 141/1
f 141/1 143/1 179/1
f 144/1 142/1 180/1
f 144/1 146/1 145/1 143/1
f 143/1 145/1 179/1
f 146/1 144/1 180/1
f 146/1 148/1 147/1 145/1
f 145/1 147/1 179/1
f 148/1 146/1 180/1
f 148/1 150/1 149/1 147/1
f 147/1 149/1 179/1
f 150/1 148/1 180/1
f 150/1 152/1 151/1 149/1
f 149/1 151/1 179/1
f 152/1 150/1 180/1
f 152/1 154/1 153/1 151/1
f 151/1 153/1 179/1
f 154/1 152/1 180/1
f 154/1 156/1 155/1 153/1
f 153/1 155/1 179/1
f 156/1 154/1 180/1
f 156/1 158/1 157/1 155/1
f 155/1 157/1 179/1
f 158/1 156/1 180/1
f 158/1 160/1 159/1 157/1
f 157/1 159/1 179/1
f 160/1 158/1 180/1
f 160/1 162/1 161/1 159/1
f 159/1 161/1 179/1
f 162/1 160/1 180/1
f 162/1 164/1 163/1 161/1
f 161/1 163/1 179/1
f 164/1 162/1 180/1
f 164/1 166/1 165/1 163/1
f 163/1 165/1 179/1
f 166/1 164/1 180/1
f 166/1 168/1 167/1 165/1
f 165/1 167/1 179/1
f 168/1 166/1 180/1
f 168/1 170/1 169/1 167/1
f 167/1 169/1 179/1
f 170/1 168/1 180/1
f 170/1 172/1 171/1 169/1
f 169/1 171/1 179/1
f 172/1 170/1 180/1
f 172/1 174/1 173/1 171/1
f 171/1 173/1 179/1
f 174/1 172/1 180/1
f 174/1 176/1 175/1 173/1
f 173/1 175/1 179/1
f 176/1 174/1 180/1
f 176/1 178/1 177/1 175/1
f 175/1 177/1 179/1
f 178/1 176/1 180/1
f 178/1 92/1 91/1 177/1
f 177/1 91/1 179/1
f 92/1 178/1 180/1
f 445/1 446/1 452/1 451/1
f 457/1 446/1 445/1
f 458/1 451/1 452/1
f 446/1 447/1 453/1 452/1
f 457/1 447/1 446/1
f 458/1 452/1 453/1
f 447/1 448/1 454/1 453/1
f 457/1 448/1 447/1
f 458/1 453/1 454/1
f 448/1 449/1 455/1 454/1
f 457/1 449/1 448/1
f 458/1 454/1 455/1
f 449/1 450/1 456/1 455/1
f 457/1 450/1 449/1
f 458/1 455/1 456/1
f 450/1 445/1 451/1 456/1
f 457/1 445/1 450/1
f 458/1 456/1 451/1
f 459/1 460/1 466/1 465/1
f 471/1 460/1 459/1
f 472/1 465/1 466/1
f 460/1 461/1 467/1 466/1
f 471/1 461/1 460/1
f 472/1 466/1 467/1
f 461/1 462/1 468/1 467/1
f 471/1 462/1 461/1
f 472/1 467/1 468/1
f 462/1 463/1 469/1 468/1
f 471/1 463/1 462/1
f 472/1 468/1 469/1
f 463/1 464/1 470/1 469/1
f 471/1 464/1 463/1
f 472/1 469/1 470/1
f 464/1 459/1 465/1 470/1
f 471/1 459/1 464/1
f 472/1 470/1 465/1
f 473/1 474/1 480/1 479/1
f 485/1 474/1 473/1
f 486/1 479/1 480/1
f 474/1 475/1 481/1 480/1
f 485/1 475/1 474/1
f 486/1 480/1 481/1
f 475/1 476/1 482/1 481/1
f 485/1 476/1 475/1
f 486/1 481/1 482/1
f 476/1 477/1 483/1 482/1
f 485/1 477/1 476/1
f 486/1 482/1 483/1
f 477/1 478/1 484/1 483/1
f 485/1 478/1 477/1
f 486/1 483/1 484/1
f 478/1 473/1 479/1 484/1
f 485/1 473/1 478/1
f 486/1 484/1 479/1
f 487/1 488/1 494/1 493/1
f 499/1 488/1 487/1
f 500/1 493/1 494/1
f 488/1 489/1 495/1 494/1
f 499/1 489/1 488/1
f 500/1 494/1 495/1
f 489/1 490/1 496/1 495/1
f 499/1 490/1 489/1
f 500/1 495/1 496/1
f 490/1 491/1 497/1 496/1
f 499/1 491/1 490/1
f 500/1 496/1 497/1
f 491/1 492/1 498/1 497/1
f 499/1 492/1 491/1
f 500/1 497/1 498/1
f 492/1 487/1 493/1 498/1
f 499/1 487/1 492/1
f 500/1 498/1 493/1
f 501/1 502/1 508/1 507/1
f 513/1 502/1 501/1
f 514/1 507/1 508/1
f 502/1 503/1 509/1 508/1
f 513/1 503/1 502/1
f 514/1 508/1 509/1
f 503/1 504/1 510/1 509/1
f 513/1 504/1 503/1
f 514/1 509/1 510/1
f 504/1 505/1 511/1 510/1
f 513/1 505/1 504/1
f 514/1 510/1 511/1
f 505/1 506/1 512/1 511/1
f 513/1 506/1 505/1
f 514/1 511/1 512/1
f 506/1 501/1 507/1 512/1
f 513/1 501/1 506/1
f 514/1 512/1 507/1
f 515/1 516/1 522/1 521/1
f 527/1 516/1 515/1
f 528/1 521/1 522/1
f 516/1 517/1 523/1 522/1
f 527/1 517/1 516/1
f 528/1 522/1 523/1
f 517/1 518/1 524/1 523/1
f 527/1 518/1 517/1
f 528/1 523/1 524/1
f 518/1 519/1 525/1 524/1
f 527/1 519/1 518/1
f 528/1 524/1 525/1
f 519/1 520/1 526/1 525/1
f 527/1 520/1 519/1
f 528/1 525/1 526/1
f 520/1 515/1 521/1 526/1
f 527/1 515/1 520/1
f 528/1 526/1 521/1
f 553/1 554/1 546/1 545/1
f 554/1 555/1 547/1 546/1
f 555/1 556/1 548/1 547/1
f 556/1 557/1 549/1 548/1
f 557/1 558/1 550/1 549/1
f 558/1 559/1 551/1 550/1
f 559/1 560/1 552/1 551/1
f 560/1 553/1 545/1 552/1
f 569/1 570/1 562/1 561/1
f 570/1 571/1 563/1 562/1
f 571/1 572/1 564/1 563/1
f 572/1 573/1 565/1 564/1
f 573/1 574/1 566/1 565/1
f 574/1 575/1 567/1 566/1
f 575/1 576/1 568/1 567/1
f 576/1 569/1 561/1 568/1
f 604/1 606/1 605/1 603/1
f 603/1 605/1 651/1
f 606/1 604/1 652/1
f 606/1 608/1 607/1 605/1
f 605/1 607/1 651/1
f 608/1 606/1 652/1
f 608/1 610/1 609/1 607/1
f 607/1 609/1 651/1
f 610/1 608/1 652/1
f 610/1 612/1 611/1 609/1
f 609/1 611/1 651/1
f 612/1 610/1 652/1
f 612/1 614/1 613/1 611/1
f 611/1 613/1 651/1
f 614/1 612/1 652/1
f 614/1 616/1 615/1 613/1
f 613/1 615/1 651/1
f 616/1 614/1 652/1
f 616/1 618/1 617/1 615/1
f 615/1 617/1 651/1
f 618/1 616/1 652/1
f 618/1 620/1 619/1 617/1
f 617/1 619/1 651/1
f 620/1 618/1 652/1
f 620/1 622/1 621/1 619/1
f 619/1 621/1 651/1
f 622/1 620/1 652/1
f 622/1 624/1 623/1 621/1
f 621/1 623/1 651/1
f 624/1 622/1 652/1
f 624/1 626/1 625/1 623/1
f 623/1 625/1 651/1
f 626/1 624/1 652/1
f 626/1 628/1 627/1 625/1
f 625/1 627/1 651/1
f 628/1 626/1 652/1
f 628/1 630/1 629/1 627/1
f 627/1 629/1 651/1
f 630/1 628/1 652/1
f 630/1 632/1 631/1 629/1
f 629/1 631/1 651/1
f 632/1 630/1 652/1
f 632/1 634/1 633/1 631/1
f 631/1 633/1 651/1
f 634/1 632/1 652/1
f 634/1 636/1 635/1 633/1
f 633/1 635/1 651/1
f 636/1 634/1 652/1
f 636/1 638/1 637/1 635/1
f 635/1 637/1 651/1
f 638/1 636/1 652/1
f 638/1 640/1 639/1 637/1
f 637/1 639/1 651/1
f 640/1 638/1 652/1
f 640/1 642/1 641/1 639/1
f 639/1 641/1 651/1
f 642/1 640/1 652/1
f 642/1 644/1 643/1 641/1
f 641/1 643/1 651/1
f 644/1 642/1 652/1
f 644/1 646/1 645/1 643/1
f 643/1 645/1 651/1
f 646/1 644/1 652/1
f 646/1 648/1 647/1 645/1
f 645/1 647/1 651/1
f 648/1 646/1 652/1
f 648/1 650/1 649/1 647/1
f 647/1 649/1 651/1
f 650/1 648/1 652/1
f 650/1 604/1 603/1 649/1
f 649/1 603/1 651/1
f 604/1 650/1 652/1
f 722/1 724/1 723/1 721/1
f 721/1 723/1 769/1
f 724/1 722/1 770/1
f 724/1 726/1 725/1 723/1
f 723/1 725/1 769/1
f 726/1 724/1 770/1
f 726/1 728/1 727/1 725/1
f 725/1 727/1 769/1
f 728/1 726/1 770/1
f 728/1 730/1 729/1 727/1
f 727/1 729/1 769/1
f 730/1 728/1 770/1
f 730/1 732/1 731/1 729/1
f 729/1 731/1 769/1
f 732/1 730/1 770/1
f 732/1 734/1 733/1 731/1
f 731/1 733/1 769/1
f 734/1 732/1 770/1
f 734/1 736/1 735/1 733/1
f 733/1 735/1 769/1
f 736/1 734/1 770/1
f 736/1 738/1 737/1 735/1
f 735/1 737/1 769/1
f 738/1 736/1 770/1
f 738/1 740/1 739/1 737/1
f 737/1 739/1 769/1
f 740/1 738/1 770/1
f 740/1 742/1 741/1 739/1
f 739/1 741/1 769/1
f 742/1 740/1 770/1
f 742/1 744/1 743/1 741/1
f 741/1 743/1 769/1
f 744/1 742/1 770/1
f 744/1 746/1 745/1 743/1
f 743/1 745/1 769/1
f 746/1 744/1 770/1
f 746/1 748/1 747/1 745/1
f 745/1 747/1 769/1
f 748/1 746/1 770/1
f 748/1 750/1 749/1 747/1
f 747/1 749/1 769/1
f 750/1 748/1 770/1
f 750/1 752/1 751/1 749/1
f 749/1 751/1 769/1
f 752/1 750/1 770/1
f 752/1 754/1 753/1 751/1
f 751/1 753/1 769/1
f 754/1 752/1 770/1
f 754/1 756/1 755/1 753/1
f 753/1 755/1 769/1
f 756/1 754/1 770/1
f 756/1 758/1 757/1 755/1
f 755/1 757/1 769/1
f 758/1 756/1 770/1
f 758/1 760/1 759/1 757/1
f 757/1 759/1 769/1
f 760/1 758/1 770/1
f 760/1 762/1 761/1 759/1
f 759/1 761/1 769/1
f 762/1 760/1 770/1
f 762/1 764/1 763/1 761/1
f 761/1 763/1 769/1
f 764/1 762/1 770/1
f 764/1 766/1 765/1 763/1
f 763/1 765/1 769/1
f 766/1 764/1 770/1
f 766/1 768/1 767/1 765/1
f 765/1 767/1 769/1
f 768/1 766/1 770/1
f 768/1 722/1 721/1 767/1
f 767/1 721/1 769/1
f 722/1 768/1 770/1
f 840/1 842/1 841/1 839/1
f 839/1 841/1 887/1
f 842/1 840/1 888/1
f 842/1 844/1 843/1 841/1
f 841/1 843/1 887/1
f 844/1 842/1 888/1
f 844/1 846/1 845/1 843/1
f 843/1 845/1 887/1
f 846/1 844/1 888/1
f 846/1 848/1 847/1 845/1
f 845/1 847/1 887/1
f 848/1 846/1 888/1
f 848/1 850/1 849/1 847/1
f 847/1 849/1 887/1
f 850/1 848/1 888/1
f 850/1 852/1 851/1 849/1
f 849/1 851/1 887/1
f 852/1 850/1 888/1
f 852/1 854/1 853/1 851/1
f 851/1 853/1 887/1
f 854/1 852/1 888/1
f 854/1 856/1 855/1 853/1
f 853/1 855/1 887/1
f 856/1 854/1 888/1
f 856/1 858/1 857/1 855/1
f 855/1 857/1 887/1
f 858/1 856/1 888/1
f 858/1 860/1 859/1 857/1
f 857/1 859/1 887/1
f 860/1 858/1 888/1
f 860/1 862/1 861/1 859/1
f 859/1 861/1 887/1
f 862/1 860/1 888/1
f 862/1 864/1 863/1 861/1
f 861/1 863/1 887/1
f 864/1 862/1 888/1
f 864/1 866/1 865/1 863/1
f 863/1 865/1 887/1
f 866/1 864/1 888/1
f 866/1 868/1 867/1 865/1
f 865/1 867/1 887/1
f 868/1 866/1 888/1
f 868/1 870/1 869/1 867/1
f 867/1 869/1 887/1
f 870/1 868/1 888/1
f 870/1 872/1 871/1 869/1
f 869/1 871/1 887/1
f 872/1 870/1 888/1
f 872/1 874/1 873/1 871/1
f 871/1 873/1 887/1
f 874/1 872/1 888/1
f 874/1 876/1 875/1 873/1
f 873/1 875/1 887/1
f 876/1 874/1 888/1
f 876/1 878/1 877/1 875/1
f 875/1 877/1 887/1
f 878/1 876/1 888/1
f 878/1 880/1 879/1 877/1
f 877/1 879/1 887/1
f 880/1 878/1 888/1
f 880/1 882/1 881/1 879/1
f 879/1 881/1 887/1
f 882/1 880/1 888/1
f 882/1 884/1 883/1 881/1
f 881/1 883/1 887/1
f 884/1 882/1 888/1
f 884/1 886/1 885/1 883/1
f 883/1 885/1 887/1
f 886/1 884/1 888/1
f 886/1 840/1 839/1 885/1
f 885/1 839/1 887/1
f 840/1 886/1 888/1
f 958/1 960/1 959/1 957/1
f 957/1 959/1 1005/1
f 960/1 958/1 1006/1
f 960/1 962/1 961/1 959/1
f 959/1 961/1 1005/1
f 962/1 960/1 1006/1
f 962/1 964/1 963/1 961/1
f 961/1 963/1 1005/1
f 964/1 962/1 1006/1
f 964/1 966/1 965/1 963/1
f 963/1 965/1 1005/1
f 966/1 964/1 1006/1
f 966/1 968/1 967/1 965/1
f 965/1 967/1 1005/1
f 968/1 966/1 1006/1
f 968/1 970/1 969/1 967/1
f 967/1 969/1 1005/1
f 970/1 968/1 1006/1
f 970/1 972/1 971/1 969/1
f 969/1 971/1 1005/1
f 972/1 970/1 1006/1
f 972/1 974/1 973/1 971/1
f 971/1 973/1 1005/1
f 974/1 972/1 1006/1
f 974/1 976/1 975/1 973/1
f 973/1 975/1 1005/1
f 976/1 974/1 1006/1
f 976/1 978/1 977/1 975/1
f 975/1 977/1 1005/1
f 978/1 976/1 1006/1
f 978/1 980/1 979/1 977/1
f 977/1 979/1 1005/1
f 980/1 978/1 1006/1
f 980/1 982/1 981/1 979/1
f 979/1 981/1 1005/1
f 982/1 980/1 1006/1
f 982/1 984/1 983/1 981/1
f 981/1 983/1 1005/1
f 984/1 982/1 1006/1
f 984/1 986/1 985/1 983/1
f 983/1 985/1 1005/1
f 986/1 984/1 1006/1
f 986/1 988/1 987/1 985/1
f 985/1 987/1 1005/1
f 988/1 986/1 1006/1
f 988/1 990/1 989/1 987/1
f 987/1 989/1 1005/1
f 990/1 988/1 1006/1
f 990/1 992/1 991/1 989/1
f 989/1 991/1 1005/1
f 992/1 990/1 1006/1
f 992/1 994/1 993/1 991/1
f 991/1 993/1 1005/1
f 994/1 992/1 1006/1
f 994/1 996/1 995/1 993/1
f 993/1 995/1 1005/1
f 996/1 994/1 1006/1
f 996/1 998/1 997/1 995/1
f 995/1 997/1 1005/1
f 998/1 996/1 1006/1
f 998/1 1000/1 999/1 997/1
f 997/1 999/1 1005/1
f 1000/1 998/1 1006/1
f 1000/1 1002/1 1001/1 999/1
f 999/1 1001/1 1005/1
f 1002/1 1000/1 1006/1
f 1002/1 1004/1 1003/1 1001/1
f 1001/1 1003/1 1005/1
f 1004/1 1002/1 1006/1
f 1004/1 958/1 957/1 1003/1
f 1003/1 957/1 1005/1
f 958/1 1004/1 1006/1
f 1076/1 1078/1 1077/1 1075/1
f 1075/1 1077/1 1123/1
f 1078/1 1076/1 1124/1
f 1078/1 1080/1 1079/1 1077/1
f 1077/1 1079/1 1123/1
f 1080/1 1078/1 1124/1
f 1080/1 1082/1 1081/1 1079/1
f 1079/1 1081/1 1123/1
f 1082/1 1080/1 1124/1
f 1082/1 1084/1 1083/1 1081/1
f 1081/1 1083/1 1123/1
f 1084/1 1082/1 1124/1
f 1084/1 1086/1 1085/1 1083/1
f 1083/1 1085/1 1123/1
f 1086/1 1084/1 1124/1
f 1086/1 1088/1 1087/1 1085/1
f 1085/1 1087/1 1123/1
f 1088/1 1086/1 1124/1
f 1088/1 1090/1 1089/1 1087/1
f 1087/1 1089/1 1123/1
f 1090/1 1088/1 1124/1
f 1090/1 1092/1 1091/1 1089/1
f 1089/1 1091/1 1123/1
f 1092/1 1090/1 1124/1
f 1092/1 1094/1 1093/1 1091/1
f 1091/1 1093/1 1123/1
f 1094/1 1092/1 1124/1
f 1094/1 1096/1 1095/1 1093/1
f 1093/1 1095/1 1123/1
f 1096/1 1094/1 1124/1
f 1096/1 1098/1 1097/1 1095/1
f 1095/1 1097/1 1123/1
f 1098/1 1096/1 1124/1
f 1098/1 1100/1 1099/1 1097/1
f 1097/1 1099/1 1123/1
f 1100/1 1098/1 1124/1
f 1100/1 1102/1 1101/1 1099/1
f 1099/1 1101/1 1123/1
f 1102/1 1100/1 1124/1
f 1102/1 1104/1 1103/1 1101/1
f 1101/1 1103/1 1123/1
f 1104/1 1102/1 1124/1
f 1104/1 1106/1 1105/1 1103/1
f 1103/1 1105/1 1123/1
f 1106/1 1104/1 1124/1
f 1106/1 1108/1 1107/1 1105/1
f 1105/1 1107/1 1123/1
f 1108/1 1106/1 1124/1
f 1108/1 1110/1 1109/1 1107/1
f 1107/1 1109/1 1123/1
f 1110/1 1108/1 1124/1
f 1110/1 1112/1 1111/1 1109/1
f 1109/1 1111/1 1123/1
f 1112/1 1110/1 1124/1
f 1112/1 1114/1 1113/1 1111/1
f 1111/1 1113/1 1123/1
f 1114/1 1112/1 1124/1
f 1114/1 1116/1 1115/1 1113/1
f 1113/1 1115/1 1123/1
f 1116/1 1114/1 1124/1
f 1116/1 1118/1 1117/1 1115/1
f 1115/1 1117/1 1123/1
f 1118/1 1116/1 1124/1
f 1118/1 1120/1 1119/1 1117/1
f 1117/1 1119/1 1123/1
f 1120/1 1118/1 1124/1
f 1120/1 1122/1 1121/1 1119/1
f 1119/1 1121/1 1123/1
f 1122/1 1120/1 1124/1
f 1122/1 1076/1 1075/1 1121/1
f 1121/1 1075/1 1123/1
f 1076/1 1122/1 1124/1
f 1194/1 1196/1 1195/1 1193/1
f 1193/1 1195/1 1241/1
f 1196/1 1194/1 1242/1
f 1196/1 1198/1 1197/1 1195/1
f 1195/1 1197/1 1241/1
f 1198/1 1196/1 1242/1
f 1198/1 1200/1 1199/1 1197/1
f 1197/1 1199/1 1241/1
f 1200/1 1198/1 1242/1
f 1200/1 1202/1 1201/1 1199/1
f 1199/1 1201/1 1241/1
f 1202/1 1200/1 1242/1
f 1202/1 1204/1 1203/1 1201/1
f 1201/1 1203/1 1241/1
f 1204/1 1202/1 1242/1
f 1204/1 1206/1 1205/1 1203/1
f 1203/1 1205/1 1241/1
f 1206/1 1204/1 1242/1
f 1206/1 1208/1 1207/1 1205/1
f 1205/1 1207/1 1241/1
f 1208/1 1206/1 1242/1
f 1208/1 1210/1 1209/1 1207/1
f 1207/1 1209/1 1241/1
f 1210/1 1208/1 1242/1
f 1210/1 1212/1 1211/1 1209/1
f 1209/1 1211/1 1241/1
f 1212/1 1210/1 1242/1
f 1212/1 1214/1 1213/1 1211/1
f 1211/1 1213/1 1241/1
f 1214/1 1212/1 1242/1
f 1214/1 1216/1 1215/1 1213/1
f 1213/1 1215/1 1241/1
f 1216/1 1214/1 1242/1
f 1216/1 1218/1 1217/1 1215/1
f 1215/1 1217/1 1241/1
f 1218/1 1216/1 1242/1
f 1218/1 1220/1 1219/1 1217/1
f 1217/1 1219/1 1241/1
f 1220/1 1218/1 1242/1
f 1220/1 1222/1 1221/1 1219/1
f 1219/1 1221/1 1241/1
f 1222/1 1220/1 1242/1
f 1222/1 1224/1 1223/1 1221/1
f 1221/1 1223/1 1241/1
f 1224/1 1222/1 1242/1
f 1224/1 1226/1 1225/1 1223/1
f 1223/1 1225/1 1241/1
f 1226/1 1224/1 1242/1
f 1226/1 1228/1 1227/1 1225/1
f 1225/1 1227/1 1241/1
f 1228/1 1226/1 1242/1
f 1228/1 1230/1 1229/1 1227/1
f 1227/1 1229/1 1241/1
f 1230/1 1228/1 1242/1
f 1230/1 1232/1 1231/1 1229/1
f 1229/1 1231/1 1241/1
f 1232/1 1230/1 1242/1
f 1232/1 1234/1 1233/1 1231/1
f 1231/1 1233/1 1241/1
f 1234/1 1232/1 1242/1
f 1234/1 1236/1 1235/1 1233/1
f 1233/1 1235/1 1241/1
f 1236/1 1234/1 1242/1
f 1236/1 1238/1 1237/1 1235/1
f 1235/1 1237/1 1241/1
f 1238/1 1236/1 1242/1
f 1238/1 1240/1 1239/1 1237/1
f 1237/1 1239/1 1241/1
f 1240/1 1238/1 1242/1
f 1240/1 1194/1 1193/1 1239/1
f 1239/1 1193/1 1241/1
f 1194/1 1240/1 1242/1
usemtl mint
f 181/3 182/3 188/3 187/3
f 182/3 183/3 189/3 188/3
f 183/3 184/3 190/3 189/3
f 184/3 185/3 191/3 190/3
f 185/3 186/3 192/3 191/3
f 186/3 181/3 187/3 192/3
f 187/3 188/3 194/3 193/3
f 188/3 189/3 195/3 194/3
f 189/3 190/3 196/3 195/3
f 190/3 191/3 197/3 196/3
f 191/3 192/3 198/3 197/3
f 192/3 187/3 193/3 198/3
f 193/3 194/3 200/3 199/3
f 194/3 195/3 201/3 200/3
f 195/3 196/3 202/3 201/3
f 196/3 197/3 203/3 202/3
f 197/3 198/3 204/3 203/3
f 198/3 193/3 199/3 204/3
f 199/3 200/3 206/3 205/3
f 200/3 201/3 207/3 206/3
f 201/3 202/3 208/3 207/3
f 202/3 203/3 209/3 208/3
f 203/3 204/3 210/3 209/3
f 204/3 199/3 205/3 210/3
f 205/3 206/3 212/3 211/3
f 206/3 207/3 213/3 212/3
f 207/3 208/3 214/3 213/3
f 208/3 209/3 215/3 214/3
f 209/3 210/3 216/3 215/3
f 210/3 205/3 211/3 216/3
f 211/3 212/3 218/3 217/3
f 212/3 213/3 219/3 218/3
f 213/3 214/3 220/3 219/3
f 214/3 215/3 221/3 220/3
f 215/3 216/3 222/3 221/3
f 216/3 211/3 217/3 222/3
f 217/3 218/3 224/3 223/3
f 218/3 219/3 225/3 224/3
f 219/3 220/3 226/3 225/3
f 220/3 221/3 227/3 226/3
f 221/3 222/3 228/3 227/3
f 222/3 217/3 223/3 228/3
f 223/3 224/3 230/3 229/3
f 224/3 225/3 231/3 230/3
f 225/3 226/3 232/3 231/3
f 226/3 227/3 233/3 232/3
f 227/3 228/3 234/3 233/3
f 228/3 223/3 229/3 234/3
f 229/3 230/3 236/3 235/3
f 230/3 231/3 237/3 236/3
f 231/3 232/3 238/3 237/3
f 232/3 233/3 239/3 238/3
f 233/3 234/3 240/3 239/3
f 234/3 229/3 235/3 240/3
f 235/3 236/3 242/3 241/3
f 236/3 237/3 243/3 242/3
f 237/3 238/3 244/3 243/3
f 238/3 239/3 245/3 244/3
f 239/3 240/3 246/3 245/3
f 240/3 235/3 241/3 246/3
f 241/3 242/3 248/3 247/3
f 242/3 243/3 249/3 248/3
f 243/3 244/3 250/3 249/3
f 244/3 245/3 251/3 250/3
f 245/3 246/3 252/3 251/3
f 246/3 241/3 247/3 252/3
f 247/3 248/3 254/3 253/3
f 248/3 249/3 255/3 254/3
f 249/3 250/3 256/3 255/3
f 250/3 251/3 257/3 256/3
f 251/3 252/3 258/3 257/3
f 252/3 247/3 253/3 258/3
f 253/3 254/3 260/3 259/3
f 254/3 255/3 261/3 260/3
f 255/3 256/3 262/3 261/3
f 256/3 257/3 263/3 262/3
f 257/3 258/3 264/3 263/3
f 258/3 253/3 259/3 264/3
f 259/3 260/3 266/3 265/3
f 260/3 261/3 267/3 266/3
f 261/3 262/3 268/3 267/3
f 262/3 263/3 269/3 268/3
f 263/3 264/3 270/3 269/3
f 264/3 259/3 265/3 270/3
f 265/3 266/3 272/3 271/3
f 266/3 267/3 273/3 272/3
f 267/3 268/3 274/3 273/3
f 268/3 269/3 275/3 274/3
f 269/3 270/3 276/3 275/3
f 270/3 265/3 271/3 276/3
f 271/3 272/3 278/3 277/3
f 272/3 273/3 279/3 278/3
f 273/3 274/3 280/3 279/3
f 274/3 275/3 281/3 280/3
f 275/3 276/3 282/3 281/3
f 276/3 271/3 277/3 282/3
f 277/3 278/3 284/3 283/3
f 278/3 279/3 285/3 284/3
f 279/3 280/3 286/3 285/3
f 280/3 281/3 287/3 286/3
f 281/3 282/3 288/3 287/3
f 282/3 277/3 283/3 288/3
f 283/3 284/3 290/3 289/3
f 284/3 285/3 291/3 290/3
f 285/3 286/3 292/3 291/3
f 286/3 287/3 293/3 292/3
f 287/3 288/3 294/3 293/3
f 288/3 283/3 289/3 294/3
f 289/3 290/3 296/3 295/3
f 290/3 291/3 297/3 296/3
f 291/3 292/3 298/3 297/3
f 292/3 293/3 299/3 298/3
f 293/3 294/3 300/3 299/3
f 294/3 289/3 295/3 300/3
f 295/3 296/3 302/3 301/3
f 296/3 297/3 303/3 302/3
f 297/3 298/3 304/3 303/3
f 298/3 299/3 305/3 304/3
f 299/3 300/3 306/3 305/3
f 300/3 295/3 301/3 306/3
f 301/3 302/3 308/3 307/3
f 302/3 303/3 309/3 308/3
f 303/3 304/3 310/3 309/3
f 304/3 305/3 311/3 310/3
f 305/3 306/3 312/3 311/3
f 306/3 301/3 307/3 312/3
f 307/3 308/3 314/3 313/3
f 308/3 309/3 315/3 314/3
f 309/3 310/3 316/3 315/3
f 310/3 311/3 317/3 316/3
f 311/3 312/3 318/3 317/3
f 312/3 307/3 313/3 318/3
f 313/3 314/3 320/3 319/3
f 314/3 315/3 321/3 320/3
f 315/3 316/3 322/3 321/3
f 316/3 317/3 323/3 322/3
f 317/3 318/3 324/3 323/3
f 318/3 313/3 319/3 324/3
f 319/3 320/3 326/3 325/3
f 320/3 321/3 327/3 326/3
f 321/3 322/3 328/3 327/3
f 322/3 323/3 329/3 328/3
f 323/3 324/3 330/3 329/3
f 324/3 319/3 325/3 330/3
f 325/3 326/3 332/3 331/3
f 326/3 327/3 333/3 332/3
f 327/3 328/3 334/3 333/3
f 328/3 329/3 335/3 334/3
f 329/3 330/3 336/3 335/3
f 330/3 325/3 331/3 336/3
f 331/3 332/3 338/3 337/3
f 332/3 333/3 339/3 338/3
f 333/3 334/3 340/3 339/3
f 334/3 335/3 341/3 340/3
f 335/3 336/3 342/3 341/3
f 336/3 331/3 337/3 342/3
f 337/3 338/3 344/3 343/3
f 338/3 339/3 345/3 344/3
f 339/3 340/3 346/3 345/3
f 340/3 341/3 347/3 346/3
f 341/3 342/3 348/3 347/3
f 342/3 337/3 343/3 348/3
f 343/3 344/3 350/3 349/3
f 344/3 345/3 351/3 350/3
f 345/3 346/3 352/3 351/3
f 346/3 347/3 353/3 352/3
f 347/3 348/3 354/3 353/3
f 348/3 343/3 349/3 354/3
f 349/3 350/3 356/3 355/3
f 350/3 351/3 357/3 356/3
f 351/3 352/3 358/3 357/3
f 352/3 353/3 359/3 358/3
f 353/3 354/3 360/3 359/3
f 354/3 349/3 355/3 360/3
f 355/3 356/3 362/3 361/3
f 356/3 357/3 363/3 362/3
f 357/3 358/3 364/3 363/3
f 358/3 359/3 365/3 364/3
f 359/3 360/3 366/3 365/3
f 360/3 355/3 361/3 366/3
f 361/3 362/3 368/3 367/3
f 362/3 363/3 369/3 368/3
f 363/3 364/3 370/3 369/3
f 364/3 365/3 371/3 370/3
f 365/3 366/3 372/3 371/3
f 366/3 361/3 367/3 372/3
f 367/3 368/3 374/3 373/3
f 368/3 369/3 375/3 374/3
f 369/3 370/3 376/3 375/3
f 370/3 371/3 377/3 376/3
f 371/3 372/3 378/3 377/3
f 372/3 367/3 373/3 378/3
f 373/3 374/3 380/3 379/3
f 374/3 375/3 381/3 380/3
f 375/3 376/3 382/3 381/3
f 376/3 377/3 383/3 382/3
f 377/3 378/3 384/3 383/3
f 378/3 373/3 379/3 384/3
f 379/3 380/3 386/3 385/3
f 380/3 381/3 387/3 386/3
f 381/3 382/3 388/3 387/3
f 382/3 383/3 389/3 388/3
f 383/3 384/3 390/3 389/3
f 384/3 379/3 385/3 390/3
f 385/3 386/3 392/3 391/3
f 386/3 387/3 393/3 392/3
f 387/3 388/3 394/3 393/3
f 388/3 389/3 395/3 394/3
f 389/3 390/3 396/3 395/3
f 390/3 385/3 391/3 396/3
f 391/3 392/3 398/3 397/3
f 392/3 393/3 399/3 398/3
f 393/3 394/3 400/3 399/3
f 394/3 395/3 401/3 400/3
f 395/3 396/3 402/3 401/3
f 396/3 391/3 397/3 402/3
f 397/3 398/3 404/3 403/3
f 398/3 399/3 405/3 404/3
f 399/3 400/3 406/3 405/3
f 400/3 401/3 407/3 406/3
f 401/3 402/3 408/3 407/3
f 402/3 397/3 403/3 408/3
f 403/3 404/3 410/3 409/3
f 404/3 405/3 411/3 410/3
f 405/3 406/3 412/3 411/3
f 406/3 407/3 413/3 412/3
f 407/3 408/3 414/3 413/3
f 408/3 403/3 409/3 414/3
f 409/3 410/3 416/3 415/3
f 410/3 411/3 417/3 416/3
f 411/3 412/3 418/3 417/3
f 412/3 413/3 419/3 418/3
f 413/3 414/3 420/3 419/3
f 414/3 409/3 415/3 420/3
f 415/3 416/3 422/3 421/3
f 416/3 417/3 423/3 422/3
f 417/3 418/3 424/3 423/3
f 418/3 419/3 425/3 424/3
f 419/3 420/3 426/3 425/3
f 420/3 415/3 421/3 426/3
f 421/3 422/3 428/3 427/3
f 422/3 423/3 429/3 428/3
f 423/3 424/3 430/3 429/3
f 424/3 425/3 431/3 430/3
f 425/3 426/3 432/3 431/3
f 426/3 421/3 427/3 432/3
f 427/3 428/3 434/3 433/3
f 428/3 429/3 435/3 434/3
f 429/3 430/3 436/3 435/3
f 430/3 431/3 437/3 436/3
f 431/3 432/3 438/3 437/3
f 432/3 427/3 433/3 438/3
f 433/3 434/3 440/3 439/3
f 434/3 435/3 441/3 440/3
f 435/3 436/3 442/3 441/3
f 436/3 437/3 443/3 442/3
f 437/3 438/3 444/3 443/3
f 438/3 433/3 439/3 444/3
f 439/3 440/3 182/3 181/3
f 440/3 441/3 183/3 182/3
f 441/3 442/3 184/3 183/3
f 442/3 443/3 185/3 184/3
f 443/3 444/3 186/3 185/3
f 444/3 439/3 181/3 186/3
f 545/3 546/3 538/3 537/3
f 546/3 547/3 539/3 538/3
f 547/3 548/3 540/3 539/3
f 548/3 549/3 541/3 540/3
f 549/3 550/3 542/3 541/3
f 550/3 551/3 543/3 542/3
f 551/3 552/3 544/3 543/3
f 552/3 545/3 537/3 544/3
f 561/3 562/3 554/3 553/3
f 562/3 563/3 555/3 554/3
f 563/3 564/3 556/3 555/3
f 564/3 565/3 557/3 556/3
f 565/3 566/3 558/3 557/3
f 566/3 567/3 559/3 558/3
f 567/3 568/3 560/3 559/3
f 568/3 561/3 553/3 560/3
f 577/3 578/3 570/3 569/3
f 578/3 579/3 571/3 570/3
f 579/3 580/3 572/3 571/3
f 580/3 581/3 573/3 572/3
f 581/3 582/3 574/3 573/3
f 582/3 583/3 575/3 574/3
f 583/3 584/3 576/3 575/3
f 584/3 577/3 569/3 576/3
f 593/3 594/3 586/3 585/3
f 585/3 586/3 601/3
f 594/3 593/3 602/3
f 594/3 595/3 587/3 586/3
f 586/3 587/3 601/3
f 595/3 594/3 602/3
f 595/3 596/3 588/3 587/3
f 587/3 588/3 601/3
f 596/3 595/3 602/3
f 596/3 597/3 589/3 588/3
f 588/3 589/3 601/3
f 597/3 596/3 602/3
f 597/3 598/3 590/3 589/3
f 589/3 590/3 601/3
f 598/3 597/3 602/3
f 598/3 599/3 591/3 590/3
f 590/3 591/3 601/3
f 599/3 598/3 602/3
f 599/3 600/3 592/3 591/3
f 591/3 592/3 601/3
f 600/3 599/3 602/3
f 600/3 593/3 585/3 592/3
f 592/3 585/3 601/3
f 593/3 600/3 602/3
f 654/3 656/3 655/3 653/3
f 653/3 655/3 701/3
f 656/3 654/3 702/3
f 656/3 658/3 657/3 655/3
f 655/3 657/3 701/3
f 658/3 656/3 702/3
f 658/3 660/3 659/3 657/3
f 657/3 659/3 701/3
f 660/3 658/3 702/3
f 660/3 662/3 661/3 659/3
f 659/3 661/3 701/3
f 662/3 660/3 702/3
f 662/3 664/3 663/3 661/3
f 661/3 663/3 701/3
f 664/3 662/3 702/3
f 664/3 666/3 665/3 663/3
f 663/3 665/3 701/3
f 666/3 664/3 702/3
f 666/3 668/3 667/3 665/3
f 665/3 667/3 701/3
f 668/3 666/3 702/3
f 668/3 670/3 669/3 667/3
f 667/3 669/3 701/3
f 670/3 668/3 702/3
f 670/3 672/3 671/3 669/3
f 669/3 671/3 701/3
f 672/3 670/3 702/3
f 672/3 674/3 673/3 671/3
f 671/3 673/3 701/3
f 674/3 672/3 702/3
f 674/3 676/3 675/3 673/3
f 673/3 675/3 701/3
f 676/3 674/3 702/3
f 676/3 678/3 677/3 675/3
f 675/3 677/3 701/3
f 678/3 676/3 702/3
f 678/3 680/3 679/3 677/3
f 677/3 679/3 701/3
f 680/3 678/3 702/3
f 680/3 682/3 681/3 679/3
f 679/3 681/3 701/3
f 682/3 680/3 702/3
f 682/3 684/3 683/3 681/3
f 681/3 683/3 701/3
f 684/3 682/3 702/3
f 684/3 686/3 685/3 683/3
f 683/3 685/3 701/3
f 686/3 684/3 702/3
f 686/3 688/3 687/3 685/3
f 685/3 687/3 701/3
f 688/3 686/3 702/3
f 688/3 690/3 689/3 687/3
f 687/3 689/3 701/3
f 690/3 688/3 702/3
f 690/3 692/3 691/3 689/3
f 689/3 691/3 701/3
f 692/3 690/3 702/3
f 692/3 694/3 693/3 691/3
f 691/3 693/3 701/3
f 694/3 692/3 702/3
f 694/3 696/3 695/3 693/3
f 693/3 695/3 701/3
f 696/3 694/3 702/3
f 696/3 698/3 697/3 695/3
f 695/3 697/3 701/3
f 698/3 696/3 702/3
f 698/3 700/3 699/3 697/3
f 697/3 699/3 701/3
f 700/3 698/3 702/3
f 700/3 654/3 653/3 699/3
f 699/3 653/3 701/3
f 654/3 700/3 702/3
f 711/3 712/3 704/3 703/3
f 703/3 704/3 719/3
f 712/3 711/3 720/3
f 712/3 713/3 705/3 704/3
f 704/3 705/3 719/3
f 713/3 712/3 720/3
f 713/3 714/3 706/3 705/3
f 705/3 706/3 719/3
f 714/3 713/3 720/3
f 714/3 715/3 707/3 706/3
f 706/3 707/3 719/3
f 715/3 714/3 720/3
f 715/3 716/3 708/3 707/3
f 707/3 708/3 719/3
f 716/3 715/3 720/3
f 716/3 717/3 709/3 708/3
f 708/3 709/3 719/3
f 717/3 716/3 720/3
f 717/3 718/3 710/3 709/3
f 709/3 710/3 719/3
f 718/3 717/3 720/3
f 718/3 711/3 703/3 710/3
f 710/3 703/3 719/3
f 711/3 718/3 720/3
f 772/3 774/3 773/3 771/3
f 771/3 773/3 819/3
f 774/3 772/3 820/3
f 774/3 776/3 775/3 773/3
f 773/3 775/3 819/3
f 776/3 774/3 820/3
f 776/3 778/3 777/3 775/3
f 775/3 777/3 819/3
f 778/3 776/3 820/3
f 778/3 780/3 779/3 777/3
f 777/3 779/3 819/3
f 780/3 778/3 820/3
f 780/3 782/3 781/3 779/3
f 779/3 781/3 819/3
f 782/3 780/3 820/3
f 782/3 784/3 783/3 781/3
f 781/3 783/3 819/3
f 784/3 782/3 820/3
f 784/3 786/3 785/3 783/3
f 783/3 785/3 819/3
f 786/3 784/3 820/3
f 786/3 788/3 787/3 785/3
f 785/3 787/3 819/3
f 788/3 786/3 820/3
f 788/3 790/3 789/3 787/3
f 787/3 789/3 819/3
f 790/3 788/3 820/3
f 790/3 792/3 791/3 789/3
f 789/3 791/3 819/3
f 792/3 790/3 820/3
f 792/3 794/3 793/3 791/3
f 791/3 793/3 819/3
f 794/3 792/3 820/3
f 794/3 796/3 795/3 793/3
f 793/3 795/3 819/3
f 796/3 794/3 820/3
f 796/3 798/3 797/3 795/3
f 795/3 797/3 819/3
f 798/3 796/3 820/3
f 798/3 800/3 799/3 797/3
f 797/3 799/3 819/3
f 800/3 798/3 820/3
f 800/3 802/3 801/3 799/3
f 799/3 801/3 819/3
f 802/3 800/3 820/3
f 802/3 804/3 803/3 801/3
f 801/3 803/3 819/3
f 804/3 802/3 820/3
f 804/3 806/3 805/3 803/3
f 803/3 805/3 819/3
f 806/3 804/3 820/3
f 806/3 808/3 807/3 805/3
f 805/3 807/3 819/3
f 808/3 806/3 820/3
f 808/3 810/3 809/3 807/3
f 807/3 809/3 819/3
f 810/3 808/3 820/3
f 810/3 812/3 811/3 809/3
f 809/3 811/3 819/3
f 812/3 810/3 820/3
f 812/3 814/3 813/3 811/3
f 811/3 813/3 819/3
f 814/3 812/3 820/3
f 814/3 816/3 815/3 813/3
f 813/3 815/3 819/3
f 816/3 814/3 820/3
f 816/3 818/3 817/3 815/3
f 815/3 817/3 819/3
f 818/3 816/3 820/3
f 818/3 772/3 771/3 817/3
f 817/3 771/3 819/3
f 772/3 818/3 820/3
f 829/3 830/3 822/3 821/3
f 821/3 822/3 837/3
f 830/3 829/3 838/3
f 830/3 831/3 823/3 822/3
f 822/3 823/3 837/3
f 831/3 830/3 838/3
f 831/3 832/3 824/3 823/3
f 823/3 824/3 837/3
f 832/3 831/3 838/3
f 832/3 833/3 825/3 824/3
f 824/3 825/3 837/3
f 833/3 832/3 838/3
f 833/3 834/3 826/3 825/3
f 825/3 826/3 837/3
f 834/3 833/3 838/3
f 834/3 835/3 827/3 826/3
f 826/3 827/3 837/3
f 835/3 834/3 838/3
f 835/3 836/3 828/3 827/3
f 827/3 828/3 837/3
f 836/3 835/3 838/3
f 836/3 829/3 821/3 828/3
f 828/3 821/3 837/3
f 829/3 836/3 838/3
f 890/3 892/3 891/3 889/3
f 889/3 891/3 937/3
f 892/3 890/3 938/3
f 892/3 894/3 893/3 891/3
f 891/3 893/3 937/3
f 894/3 892/3 938/3
f 894/3 896/3 895/3 893/3
f 893/3 895/3 937/3
f 896/3 894/3 938/3
f 896/3 898/3 897/3 895/3
f 895/3 897/3 937/3
f 898/3 896/3 938/3
f 898/3 900/3 899/3 897/3
f 897/3 899/3 937/3
f 900/3 898/3 938/3
f 900/3 902/3 901/3 899/3
f 899/3 901/3 937/3
f 902/3 900/3 938/3
f 902/3 904/3 903/3 901/3
f 901/3 903/3 937/3
f 904/3 902/3 938/3
f 904/3 906/3 905/3 903/3
f 903/3 905/3 937/3
f 906/3 904/3 938/3
f 906/3 908/3 907/3 905/3
f 905/3 907/3 937/3
f 908/3 906/3 938/3
f 908/3 910/3 909/3 907/3
f 907/3 909/3 937/3
f 910/3 908/3 938/3
f 910/3 912/3 911/3 909/3
f 909/3 911/3 937/3
f 912/3 910/3 938/3
f 912/3 914/3 913/3 911/3
f 911/3 913/3 937/3
f 914/3 912/3 938/3
f 914/3 916/3 915/3 913/3
f 913/3 915/3 937/3
f 916/3 914/3 938/3
f 916/3 918/3 917/3 915/3
f 915/3 917/3 937/3
f 918/3 916/3 938/3
f 918/3 920/3 919/3 917/3
f 917/3 919/3 937/3
f 920/3 918/3 938/3
f 920/3 922/3 921/3 919/3
f 919/3 921/3 937/3
f 922/3 920/3 938/3
f 922/3 924/3 923/3 921/3
f 921/3 923/3 937/3
f 924/3 922/3 938/3
f 924/3 926/3 925/3 923/3
f 923/3 925/3 937/3
f 926/3 924/3 938/3
f 926/3 928/3 927/3 925/3
f 925/3 927/3 937/3
f 928/3 926/3 938/3
f 928/3 930/3 929/3 927/3
f 927/3 929/3 937/3
f 930/3 928/3 938/3
f 930/3 932/3 931/3 929/3
f 929/3 931/3 937/3
f 932/3 930/3 938/3
f 932/3 934/3 933/3 931/3
f 931/3 933/3 937/3
f 934/3 932/3 938/3
f 934/3 936/3 935/3 933/3
f 933/3 935/3 937/3
f 936/3 934/3 938/3
f 936/3 890/3 889/3 935/3
f 935/3 889/3 937/3
f 890/3 936/3 938/3
f 947/3 948/3 940/3 939/3
f 939/3 940/3 955/3
f 948/3 947/3 956/3
f 948/3 949/3 941/3 940/3
f 940/3 941/3 955/3
f 949/3 948/3 956/3
f 949/3 950/3 942/3 941/3
f 941/3 942/3 955/3
f 950/3 949/3 956/3
f 950/3 951/3 943/3 942/3
f 942/3 943/3 955/3
f 951/3 950/3 956/3
f 951/3 952/3 944/3 943/3
f 943/3 944/3 955/3
f 952/3 951/3 956/3
f 952/3 953/3 945/3 944/3
f 944/3 945/3 955/3
f 953/3 952/3 956/3
f 953/3 954/3 946/3 945/3
f 945/3 946/3 955/3
f 954/3 953/3 956/3
f 954/3 947/3 939/3 946/3
f 946/3 939/3 955/3
f 947/3 954/3 956/3
f 1008/3 1010/3 1009/3 1007/3
f 1007/3 1009/3 1055/3
f 1010/3 1008/3 1056/3
f 1010/3 1012/3 1011/3 1009/3
f 1009/3 1011/3 1055/3
f 1012/3 1010/3 1056/3
f 1012/3 1014/3 1013/3 1011/3
f 1011/3 1013/3 1055/3
f 1014/3 1012/3 1056/3
f 1014/3 1016/3 1015/3 1013/3
f 1013/3 1015/3 1055/3
f 1016/3 1014/3 1056/3
f 1016/3 1018/3 1017/3 1015/3
f 1015/3 1017/3 1055/3
f 1018/3 1016/3 1056/3
f 1018/3 1020/3 1019/3 1017/3
f 1017/3 1019/3 1055/3
f 1020/3 1018/3 1056/3
f 1020/3 1022/3 1021/3 1019/3
f 1019/3 1021/3 1055/3
f 1022/3 1020/3 1056/3
f 1022/3 1024/3 1023/3 1021/3
f 1021/3 1023/3 1055/3
f 1024/3 1022/3 1056/3
f 1024/3 1026/3 1025/3 1023/3
f 1023/3 1025/3 1055/3
f 1026/3 1024/3 1056/3
f 1026/3 1028/3 1027/3 1025/3
f 1025/3 1027/3 1055/3
f 1028/3 1026/3 1056/3
f 1028/3 1030/3 1029/3 1027/3
f 1027/3 1029/3 1055/3
f 1030/3 1028/3 1056/3
f 1030/3 1032/3 1031/3 1029/3
f 1029/3 1031/3 1055/3
f 1032/3 1030/3 1056/3
f 1032/3 1034/3 1033/3 1031/3
f 1031/3 1033/3 1055/3
f 1034/3 1032/3 1056/3
f 1034/3 1036/3 1035/3 1033/3
f 1033/3 1035/3 1055/3
f 1036/3 1034/3 1056/3
f 1036/3 1038/3 1037/3 1035/3
f 1035/3 1037/3 1055/3
f 1038/3 1036/3 1056/3
f 1038/3 1040/3 1039/3 1037/3
f 1037/3 1039/3 1055/3
f 1040/3 1038/3 1056/3
f 1040/3 1042/3 1041/3 1039/3
f 1039/3 1041/3 1055/3
f 1042/3 1040/3 1056/3
f 1042/3 1044/3 1043/3 1041/3
f 1041/3 1043/3 1055/3
f 1044/3 1042/3 1056/3
f 1044/3 1046/3 1045/3 1043/3
f 1043/3 1045/3 1055/3
f 1046/3 1044/3 1056/3
f 1046/3 1048/3 1047/3 1045/3
f 1045/3 1047/3 1055/3
f 1048/3 1046/3 1056/3
f 1048/3 1050/3 1049/3 1047/3
f 1047/3 1049/3 1055/3
f 1050/3 1048/3 1056/3
f 1050/3 1052/3 1051/3 1049/3
f 1049/3 1051/3 1055/3
f 1052/3 1050/3 1056/3
f 1052/3 1054/3 1053/3 1051/3
f 1051/3 1053/3 1055/3
f 1054/3 1052/3 1056/3
f 1054/3 1008/3 1007/3 1053/3
f 1053/3 1007/3 1055/3
f 1008/3 1054/3 1056/3
f 1065/3 1066/3 1058/3 1057/3
f 1057/3 1058/3 1073/3
f 1066/3 1065/3 1074/3
f 1066/3 1067/3 1059/3 1058/3
f 1058/3 1059/3 1073/3
f 1067/3 1066/3 1074/3
f 1067/3 1068/3 1060/3 1059/3
f 1059/3 1060/3 1073/3
f 1068/3 1067/3 1074/3
f 1068/3 1069/3 1061/3 1060/3
f 1060/3 1061/3 1073/3
f 1069/3 1068/3 1074/3
f 1069/3 1070/3 1062/3 1061/3
f 1061/3 1062/3 1073/3
f 1070/3 1069/3 1074/3
f 1070/3 1071/3 1063/3 1062/3
f 1062/3 1063/3 1073/3
f 1071/3 1070/3 1074/3
f 1071/3 1072/3 1064/3 1063/3
f 1063/3 1064/3 1073/3
f 1072/3 1071/3 1074/3
f 1072/3 1065/3 1057/3 1064/3
f 1064/3 1057/3 1073/3
f 1065/3 1072/3 1074/3
f 1126/3 1128/3 1127/3 1125/3
f 1125/3 1127/3 1173/3
f 1128/3 1126/3 1174/3
f 1128/3 1130/3 1129/3 1127/3
f 1127/3 1129/3 1173/3
f 1130/3 1128/3 1174/3
f 1130/3 1132/3 1131/3 1129/3
f 1129/3 1131/3 1173/3
f 1132/3 1130/3 1174/3
f 1132/3 1134/3 1133/3 1131/3
f 1131/3 1133/3 1173/3
f 1134/3 1132/3 1174/3
f 1134/3 1136/3 1135/3 1133/3
f 1133/3 1135/3 1173/3
f 1136/3 1134/3 1174/3
f 1136/3 1138/3 1137/3 1135/3
f 1135/3 1137/3 1173/3
f 1138/3 1136/3 1174/3
f 1138/3 1140/3 1139/3 1137/3
f 1137/3 1139/3 1173/3
f 1140/3 1138/3 1174/3
f 1140/3 1142/3 1141/3 1139/3
f 1139/3 1141/3 1173/3
f 1142/3 1140/3 1174/3
f 1142/3 1144/3 1143/3 1141/3
f 1141/3 1143/3 1173/3
f 1144/3 1142/3 1174/3
f 1144/3 1146/3 1145/3 1143/3
f 1143/3 1145/3 1173/3
f 1146/3 1144/3 1174/3
f 1146/3 1148/3 1147/3 1145/3
f 1145/3 1147/3 1173/3
f 1148/3 1146/3 1174/3
f 1148/3 1150/3 1149/3 1147/3
f 1147/3 1149/3 1173/3
f 1150/3 1148/3 1174/3
f 1150/3 1152/3 1151/3 1149/3
f 1149/3 1151/3 1173/3
f 1152/3 1150/3 1174/3
f 1152/3 1154/3 1153/3 1151/3
f 1151/3 1153/3 1173/3
f 1154/3 1152/3 1174/3
f 1154/3 1156/3 1155/3 1153/3
f 1153/3 1155/3 1173/3
f 1156/3 1154/3 1174/3
f 1156/3 1158/3 1157/3 1155/3
f 1155/3 1157/3 1173/3
f 1158/3 1156/3 1174/3
f 1158/3 1160/3 1159/3 1157/3
f 1157/3 1159/3 1173/3
f 1160/3 1158/3 1174/3
f 1160/3 1162/3 1161/3 1159/3
f 1159/3 1161/3 1173/3
f 1162/3 1160/3 1174/3
f 1162/3 1164/3 1163/3 1161/3
f 1161/3 1163/3 1173/3
f 1164/3 1162/3 1174/3
f 1164/3 1166/3 1165/3 1163/3
f 1163/3 1165/3 1173/3
f 1166/3 1164/3 1174/3
f 1166/3 1168/3 1167/3 1165/3
f 1165/3 1167/3 1173/3
f 1168/3 1166/3 1174/3
f 1168/3 1170/3 1169/3 1167/3
f 1167/3 1169/3 1173/3
f 1170/3 1168/3 1174/3
f 1170/3 1172/3 1171/3 1169/3
f 1169/3 1171/3 1173/3
f 1172/3 1170/3 1174/3
f 1172/3 1126/3 1125/3 1171/3
f 1171/3 1125/3 1173/3
f 1126/3 1172/3 1174/3
f 1183/3 1184/3 1176/3 1175/3
f 1175/3 1176/3 1191/3
f 1184/3 1183/3 1192/3
f 1184/3 1185/3 1177/3 1176/3
f 1176/3 1177/3 1191/3
f 1185/3 1184/3 1192/3
f 1185/3 1186/3 1178/3 1177/3
f 1177/3 1178/3 1191/3
f 1186/3 1185/3 1192/3
f 1186/3 1187/3 1179/3 1178/3
f 1178/3 1179/3 1191/3
f 1187/3 1186/3 1192/3
f 1187/3 1188/3 1180/3 1179/3
f 1179/3 1180/3 1191/3
f 1188/3 1187/3 1192/3
f 1188/3 1189/3 1181/3 1180/3
f 1180/3 1181/3 1191/3
f 1189/3 1188/3 1192/3
f 1189/3 1190/3 1182/3 1181/3
f 1181/3 1182/3 1191/3
f 1190/3 1189/3 1192/3
f 1190/3 1183/3 1175/3 1182/3
f 1182/3 1175/3 1191/3
f 1183/3 1190/3 1192/3
f 1244/3 1246/3 1245/3 1243/3
f 1243/3 1245/3 1291/3
f 1246/3 1244/3 1292/3
f 1246/3 1248/3 1247/3 1245/3
f 1245/3 1247/3 1291/3
f 1248/3 1246/3 1292/3
f 1248/3 1250/3 1249/3 1247/3
f 1247/3 1249/3 1291/3
f 1250/3 1248/3 1292/3
f 1250/3 1252/3 1251/3 1249/3
f 1249/3 1251/3 1291/3
f 1252/3 1250/3 1292/3
f 1252/3 1254/3 1253/3 1251/3
f 1251/3 1253/3 1291/3
f 1254/3 1252/3 1292/3
f 1254/3 1256/3 1255/3 1253/3
f 1253/3 1255/3 1291/3
f 1256/3 1254/3 1292/3
f 1256/3 1258/3 1257/3 1255/3
f 1255/3 1257/3 1291/3
f 1258/3 1256/3 1292/3
f 1258/3 1260/3 1259/3 1257/3
f 1257/3 1259/3 1291/3
f 1260/3 1258/3 1292/3
f 1260/3 1262/3 1261/3 1259/3
f 1259/3 1261/3 1291/3
f 1262/3 1260/3 1292/3
f 1262/3 1264/3 1263/3 1261/3
f 1261/3 1263/3 1291/3
f 1264/3 1262/3 1292/3
f 1264/3 1266/3 1265/3 1263/3
f 1263/3 1265/3 1291/3
f 1266/3 1264/3 1292/3
f 1266/3 1268/3 1267/3 1265/3
f 1265/3 1267/3 1291/3
f 1268/3 1266/3 1292/3
f 1268/3 1270/3 1269/3 1267/3
f 1267/3 1269/3 1291/3
f 1270/3 1268/3 1292/3
f 1270/3 1272/3 1271/3 1269/3
f 1269/3 1271/3 1291/3
f 1272/3 1270/3 1292/3
f 1272/3 1274/3 1273/3 1271/3
f 1271/3 1273/3 1291/3
f 1274/3 1272/3 1292/3
f 1274/3 1276/3 1275/3 1273/3
f 1273/3 1275/3 1291/3
f 1276/3 1274/3 1292/3
f 1276/3 1278/3 1277/3 1275/3
f 1275/3 1277/3 1291/3
f 1278/3 1276/3 1292/3
f 1278/3 1280/3 1279/3 1277/3
f 1277/3 1279/3 1291/3
f 1280/3 1278/3 1292/3
f 1280/3 1282/3 1281/3 1279/3
f 1279/3 1281/3 1291/3
f 1282/3 1280/3 1292/3
f 1282/3 1284/3 1283/3 1281/3
f 1281/3 1283/3 1291/3
f 1284/3 1282/3 1292/3
f 1284/3 1286/3 1285/3 1283/3
f 1283/3 1285/3 1291/3
f 1286/3 1284/3 1292/3
f 1286/3 1288/3 1287/3 1285/3
f 1285/3 1287/3 1291/3
f 1288/3 1286/3 1292/3
f 1288/3 1290/3 1289/3 1287/3
f 1287/3 1289/3 1291/3
f 1290/3 1288/3 1292/3
f 1290/3 1244/3 1243/3 1289/3
f 1289/3 1243/3 1291/3
f 1244/3 1290/3 1292/3
usemtl wood
f 537/5 538/5 530/5 529/5
f 538/5 539/5 531/5 530/5
f 539/5 540/5 532/5 531/5
f 540/5 541/5 533/5 532/5
f 541/5 542/5 534/5 533/5
f 542/5 543/5 535/5 534/5
f 543/5 544/5 536/5 535/5
f 544/5 537/5 529/5 536/5
usemtl gold
f 1294/4 1293/4 1313/4
f 1303/4 1304/4 1314/4
f 1294/4 1304/4 1303/4 1293/4
f 1295/4 1294/4 1313/4
f 1304/4 1305/4 1314/4
f 1295/4 1305/4 1304/4 1294/4
f 1296/4 1295/4 1313/4
f 1305/4 1306/4 1314/4
f 1296/4 1306/4 1305/4 1295/4
f 1297/4 1296/4 1313/4
f 1306/4 1307/4 1314/4
f 1297/4 1307/4 1306/4 1296/4
f 1298/4 1297/4 1313/4
f 1307/4 1308/4 1314/4
f 1298/4 1308/4 1307/4 1297/4
f 1299/4 1298/4 1313/4
f 1308/4 1309/4 1314/4
f 1299/4 1309/4 1308/4 1298/4
f 1300/4 1299/4 1313/4
f 1309/4 1310/4 1314/4
f 1300/4 1310/4 1309/4 1299/4
f 1301/4 1300/4 1313/4
f 1310/4 1311/4 1314/4
f 1301/4 1311/4 1310/4 1300/4
f 1302/4 1301/4 1313/4
f 1311/4 1312/4 1314/4
f 1302/4 1312/4 1311/4 1301/4
f 1293/4 1302/4 1313/4
f 1312/4 1303/4 1314/4
f 1293/4 1303/4 1312/4 1302/4
