# ParkParkTeacupsPlatform — ParkPark original fairground mesh
mtllib ParkParkFairground.mtl
o ParkParkTeacupsPlatform
v 0.00000 0.08000 0.00000
v 0.00000 0.08000 0.00000
v 0.00000 0.08000 0.00000
v 0.00000 0.08000 0.00000
v 0.00000 0.08000 0.00000
v 0.00000 0.08000 0.00000
v 0.00000 0.08000 0.00000
v 0.00000 0.08000 0.00000
v 0.00000 0.08000 0.00000
v 0.00000 0.08000 0.00000
v 0.00000 0.08000 0.00000
v 0.00000 0.08000 0.00000
v 0.00000 0.08000 0.00000
v 0.00000 0.08000 0.00000
v 0.00000 0.08000 0.00000
v 0.00000 0.08000 0.00000
v 0.00000 0.08000 0.00000
v -0.00000 0.08000 0.00000
v -0.00000 0.08000 0.00000
v -0.00000 0.08000 0.00000
v -0.00000 0.08000 0.00000
v -0.00000 0.08000 0.00000
v -0.00000 0.08000 0.00000
v -0.00000 0.08000 0.00000
v -0.00000 0.08000 0.00000
v -0.00000 0.08000 0.00000
v -0.00000 0.08000 0.00000
v -0.00000 0.08000 0.00000
v -0.00000 0.08000 0.00000
v -0.00000 0.08000 0.00000
v -0.00000 0.08000 0.00000
v -0.00000 0.08000 0.00000
v -0.00000 0.08000 0.00000
v -0.00000 0.08000 -0.00000
v -0.00000 0.08000 -0.00000
v -0.00000 0.08000 -0.00000
v -0.00000 0.08000 -0.00000
v -0.00000 0.08000 -0.00000
v -0.00000 0.08000 -0.00000
v -0.00000 0.08000 -0.00000
v -0.00000 0.08000 -0.00000
v -0.00000 0.08000 -0.00000
v -0.00000 0.08000 -0.00000
v -0.00000 0.08000 -0.00000
v -0.00000 0.08000 -0.00000
v -0.00000 0.08000 -0.00000
v -0.00000 0.08000 -0.00000
v -0.00000 0.08000 -0.00000
v -0.00000 0.08000 -0.00000
v 0.00000 0.08000 -0.00000
v 0.00000 0.08000 -0.00000
v 0.00000 0.08000 -0.00000
v 0.00000 0.08000 -0.00000
v 0.00000 0.08000 -0.00000
v 0.00000 0.08000 -0.00000
v 0.00000 0.08000 -0.00000
v 0.00000 0.08000 -0.00000
v 0.00000 0.08000 -0.00000
v 0.00000 0.08000 -0.00000
v 0.00000 0.08000 -0.00000
v 0.00000 0.08000 -0.00000
v 0.00000 0.08000 -0.00000
v 0.00000 0.08000 -0.00000
v 0.00000 0.08000 -0.00000
v 8.85000 0.08000 0.00000
v 8.80738 0.08000 0.86745
v 8.67995 0.08000 1.72655
v 8.46892 0.08000 2.56902
v 8.17633 0.08000 3.38675
v 7.80500 0.08000 4.17186
v 7.35851 0.08000 4.91680
v 6.84114 0.08000 5.61438
v 6.25790 0.08000 6.25790
v 5.61438 0.08000 6.84114
v 4.91680 0.08000 7.35851
v 4.17186 0.08000 7.80500
v 3.38675 0.08000 8.17633
v 2.56902 0.08000 8.46892
v 1.72655 0.08000 8.67995
v 0.86745 0.08000 8.80738
v 0.00000 0.08000 8.85000
v -0.86745 0.08000 8.80738
v -1.72655 0.08000 8.67995
v -2.56902 0.08000 8.46892
v -3.38675 0.08000 8.17633
v -4.17186 0.08000 7.80500
v -4.91680 0.08000 7.35851
v -5.61438 0.08000 6.84114
v -6.25790 0.08000 6.25790
v -6.84114 0.08000 5.61438
v -7.35851 0.08000 4.91680
v -7.80500 0.08000 4.17186
v -8.17633 0.08000 3.38675
v -8.46892 0.08000 2.56902
v -8.67995 0.08000 1.72655
v -8.80738 0.08000 0.86745
v -8.85000 0.08000 0.00000
v -8.80738 0.08000 -0.86745
v -8.67995 0.08000 -1.72655
v -8.46892 0.08000 -2.56902
v -8.17633 0.08000 -3.38675
v -7.80500 0.08000 -4.17186
v -7.35851 0.08000 -4.91680
v -6.84114 0.08000 -5.61438
v -6.25790 0.08000 -6.25790
v -5.61438 0.08000 -6.84114
v -4.91680 0.08000 -7.35851
v -4.17186 0.08000 -7.80500
v -3.38675 0.08000 -8.17633
v -2.56902 0.08000 -8.46892
v -1.72655 0.08000 -8.67995
v -0.86745 0.08000 -8.80738
v -0.00000 0.08000 -8.85000
v 0.86745 0.08000 -8.80738
v 1.72655 0.08000 -8.67995
v 2.56902 0.08000 -8.46892
v 3.38675 0.08000 -8.17633
v 4.17186 0.08000 -7.80500
v 4.91680 0.08000 -7.35851
v 5.61438 0.08000 -6.84114
v 6.25790 0.08000 -6.25790
v 6.84114 0.08000 -5.61438
v 7.35851 0.08000 -4.91680
v 7.80500 0.08000 -4.17186
v 8.17633 0.08000 -3.38675
v 8.46892 0.08000 -2.56902
v 8.67995 0.08000 -1.72655
v 8.80738 0.08000 -0.86745
v 9.20000 0.25000 0.00000
v 9.15570 0.25000 0.90176
v 9.02322 0.25000 1.79483
v 8.80385 0.25000 2.67062
v 8.49969 0.25000 3.52069
v 8.11368 0.25000 4.33685
v 7.64952 0.25000 5.11125
v 7.11170 0.25000 5.83642
v 6.50538 0.25000 6.50538
v 5.83642 0.25000 7.11170
v 5.11125 0.25000 7.64952
v 4.33685 0.25000 8.11368
v 3.52069 0.25000 8.49969
v 2.67062 0.25000 8.80385
v 1.79483 0.25000 9.02322
v 0.90176 0.25000 9.15570
v 0.00000 0.25000 9.20000
v -0.90176 0.25000 9.15570
v -1.79483 0.25000 9.02322
v -2.67062 0.25000 8.80385
v -3.52069 0.25000 8.49969
v -4.33685 0.25000 8.11368
v -5.11125 0.25000 7.64952
v -5.83642 0.25000 7.11170
v -6.50538 0.25000 6.50538
v -7.11170 0.25000 5.83642
v -7.64952 0.25000 5.11125
v -8.11368 0.25000 4.33685
v -8.49969 0.25000 3.52069
v -8.80385 0.25000 2.67062
v -9.02322 0.25000 1.79483
v -9.15570 0.25000 0.90176
v -9.20000 0.25000 0.00000
v -9.15570 0.25000 -0.90176
v -9.02322 0.25000 -1.79483
v -8.80385 0.25000 -2.67062
v -8.49969 0.25000 -3.52069
v -8.11368 0.25000 -4.33685
v -7.64952 0.25000 -5.11125
v -7.11170 0.25000 -5.83642
v -6.50538 0.25000 -6.50538
v -5.83642 0.25000 -7.11170
v -5.11125 0.25000 -7.64952
v -4.33685 0.25000 -8.11368
v -3.52069 0.25000 -8.49969
v -2.67062 0.25000 -8.80385
v -1.79483 0.25000 -9.02322
v -0.90176 0.25000 -9.15570
v -0.00000 0.25000 -9.20000
v 0.90176 0.25000 -9.15570
v 1.79483 0.25000 -9.02322
v 2.67062 0.25000 -8.80385
v 3.52069 0.25000 -8.49969
v 4.33685 0.25000 -8.11368
v 5.11125 0.25000 -7.64952
v 5.83642 0.25000 -7.11170
v 6.50538 0.25000 -6.50538
v 7.11170 0.25000 -5.83642
v 7.64952 0.25000 -5.11125
v 8.11368 0.25000 -4.33685
v 8.49969 0.25000 -3.52069
v 8.80385 0.25000 -2.67062
v 9.02322 0.25000 -1.79483
v 9.15570 0.25000 -0.90176
v 9.00000 0.48000 0.00000
v 8.95666 0.48000 0.88215
v 8.82707 0.48000 1.75581
v 8.61246 0.48000 2.61256
v 8.31492 0.48000 3.44415
v 7.93729 0.48000 4.24257
v 7.48323 0.48000 5.00013
v 6.95709 0.48000 5.70954
v 6.36396 0.48000 6.36396
v 5.70954 0.48000 6.95709
v 5.00013 0.48000 7.48323
v 4.24257 0.48000 7.93729
v 3.44415 0.48000 8.31492
v 2.61256 0.48000 8.61246
v 1.75581 0.48000 8.82707
v 0.88215 0.48000 8.95666
v 0.00000 0.48000 9.00000
v -0.88215 0.48000 8.95666
v -1.75581 0.48000 8.82707
v -2.61256 0.48000 8.61246
v -3.44415 0.48000 8.31492
v -4.24257 0.48000 7.93729
v -5.00013 0.48000 7.48323
v -5.70954 0.48000 6.95709
v -6.36396 0.48000 6.36396
v -6.95709 0.48000 5.70954
v -7.48323 0.48000 5.00013
v -7.93729 0.48000 4.24257
v -8.31492 0.48000 3.44415
v -8.61246 0.48000 2.61256
v -8.82707 0.48000 1.75581
v -8.95666 0.48000 0.88215
v -9.00000 0.48000 0.00000
v -8.95666 0.48000 -0.88215
v -8.82707 0.48000 -1.75581
v -8.61246 0.48000 -2.61256
v -8.31492 0.48000 -3.44415
v -7.93729 0.48000 -4.24257
v -7.48323 0.48000 -5.00013
v -6.95709 0.48000 -5.70954
v -6.36396 0.48000 -6.36396
v -5.70954 0.48000 -6.95709
v -5.00013 0.48000 -7.48323
v -4.24257 0.48000 -7.93729
v -3.44415 0.48000 -8.31492
v -2.61256 0.48000 -8.61246
v -1.75581 0.48000 -8.82707
v -0.88215 0.48000 -8.95666
v -0.00000 0.48000 -9.00000
v 0.88215 0.48000 -8.95666
v 1.75581 0.48000 -8.82707
v 2.61256 0.48000 -8.61246
v 3.44415 0.48000 -8.31492
v 4.24257 0.48000 -7.93729
v 5.00013 0.48000 -7.48323
v 5.70954 0.48000 -6.95709
v 6.36396 0.48000 -6.36396
v 6.95709 0.48000 -5.70954
v 7.48323 0.48000 -5.00013
v 7.93729 0.48000 -4.24257
v 8.31492 0.48000 -3.44415
v 8.61246 0.48000 -2.61256
v 8.82707 0.48000 -1.75581
v 8.95666 0.48000 -0.88215
v 8.45000 0.70000 0.00000
v 8.40931 0.70000 0.82824
v 8.28764 0.70000 1.64851
v 8.08615 0.70000 2.45291
v 7.80678 0.70000 3.23368
v 7.45223 0.70000 3.98330
v 7.02592 0.70000 4.69457
v 6.53194 0.70000 5.36062
v 5.97505 0.70000 5.97505
v 5.36062 0.70000 6.53194
v 4.69457 0.70000 7.02592
v 3.98330 0.70000 7.45223
v 3.23368 0.70000 7.80678
v 2.45291 0.70000 8.08615
v 1.64851 0.70000 8.28764
v 0.82824 0.70000 8.40931
v 0.00000 0.70000 8.45000
v -0.82824 0.70000 8.40931
v -1.64851 0.70000 8.28764
v -2.45291 0.70000 8.08615
v -3.23368 0.70000 7.80678
v -3.98330 0.70000 7.45223
v -4.69457 0.70000 7.02592
v -5.36062 0.70000 6.53194
v -5.97505 0.70000 5.97505
v -6.53194 0.70000 5.36062
v -7.02592 0.70000 4.69457
v -7.45223 0.70000 3.98330
v -7.80678 0.70000 3.23368
v -8.08615 0.70000 2.45291
v -8.28764 0.70000 1.64851
v -8.40931 0.70000 0.82824
v -8.45000 0.70000 0.00000
v -8.40931 0.70000 -0.82824
v -8.28764 0.70000 -1.64851
v -8.08615 0.70000 -2.45291
v -7.80678 0.70000 -3.23368
v -7.45223 0.70000 -3.98330
v -7.02592 0.70000 -4.69457
v -6.53194 0.70000 -5.36062
v -5.97505 0.70000 -5.97505
v -5.36062 0.70000 -6.53194
v -4.69457 0.70000 -7.02592
v -3.98330 0.70000 -7.45223
v -3.23368 0.70000 -7.80678
v -2.45291 0.70000 -8.08615
v -1.64851 0.70000 -8.28764
v -0.82824 0.70000 -8.40931
v -0.00000 0.70000 -8.45000
v 0.82824 0.70000 -8.40931
v 1.64851 0.70000 -8.28764
v 2.45291 0.70000 -8.08615
v 3.23368 0.70000 -7.80678
v 3.98330 0.70000 -7.45223
v 4.69457 0.70000 -7.02592
v 5.36062 0.70000 -6.53194
v 5.97505 0.70000 -5.97505
v 6.53194 0.70000 -5.36062
v 7.02592 0.70000 -4.69457
v 7.45223 0.70000 -3.98330
v 7.80678 0.70000 -3.23368
v 8.08615 0.70000 -2.45291
v 8.28764 0.70000 -1.64851
v 8.40931 0.70000 -0.82824
v 7.40000 0.76000 0.00000
v 7.36437 0.76000 0.72533
v 7.25781 0.76000 1.44367
v 7.08136 0.76000 2.14811
v 6.83671 0.76000 2.83186
v 6.52622 0.76000 3.48834
v 6.15288 0.76000 4.11122
v 5.72028 0.76000 4.69451
v 5.23259 0.76000 5.23259
v 4.69451 0.76000 5.72028
v 4.11122 0.76000 6.15288
v 3.48834 0.76000 6.52622
v 2.83186 0.76000 6.83671
v 2.14811 0.76000 7.08136
v 1.44367 0.76000 7.25781
v 0.72533 0.76000 7.36437
v 0.00000 0.76000 7.40000
v -0.72533 0.76000 7.36437
v -1.44367 0.76000 7.25781
v -2.14811 0.76000 7.08136
v -2.83186 0.76000 6.83671
v -3.48834 0.76000 6.52622
v -4.11122 0.76000 6.15288
v -4.69451 0.76000 5.72028
v -5.23259 0.76000 5.23259
v -5.72028 0.76000 4.69451
v -6.15288 0.76000 4.11122
v -6.52622 0.76000 3.48834
v -6.83671 0.76000 2.83186
v -7.08136 0.76000 2.14811
v -7.25781 0.76000 1.44367
v -7.36437 0.76000 0.72533
v -7.40000 0.76000 0.00000
v -7.36437 0.76000 -0.72533
v -7.25781 0.76000 -1.44367
v -7.08136 0.76000 -2.14811
v -6.83671 0.76000 -2.83186
v -6.52622 0.76000 -3.48834
v -6.15288 0.76000 -4.11122
v -5.72028 0.76000 -4.69451
v -5.23259 0.76000 -5.23259
v -4.69451 0.76000 -5.72028
v -4.11122 0.76000 -6.15288
v -3.48834 0.76000 -6.52622
v -2.83186 0.76000 -6.83671
v -2.14811 0.76000 -7.08136
v -1.44367 0.76000 -7.25781
v -0.72533 0.76000 -7.36437
v -0.00000 0.76000 -7.40000
v 0.72533 0.76000 -7.36437
v 1.44367 0.76000 -7.25781
v 2.14811 0.76000 -7.08136
v 2.83186 0.76000 -6.83671
v 3.48834 0.76000 -6.52622
v 4.11122 0.76000 -6.15288
v 4.69451 0.76000 -5.72028
v 5.23259 0.76000 -5.23259
v 5.72028 0.76000 -4.69451
v 6.15288 0.76000 -4.11122
v 6.52622 0.76000 -3.48834
v 6.83671 0.76000 -2.83186
v 7.08136 0.76000 -2.14811
v 7.25781 0.76000 -1.44367
v 7.36437 0.76000 -0.72533
v 0.00000 0.76000 0.00000
v 0.00000 0.76000 0.00000
v 0.00000 0.76000 0.00000
v 0.00000 0.76000 0.00000
v 0.00000 0.76000 0.00000
v 0.00000 0.76000 0.00000
v 0.00000 0.76000 0.00000
v 0.00000 0.76000 0.00000
v 0.00000 0.76000 0.00000
v 0.00000 0.76000 0.00000
v 0.00000 0.76000 0.00000
v 0.00000 0.76000 0.00000
v 0.00000 0.76000 0.00000
v 0.00000 0.76000 0.00000
v 0.00000 0.76000 0.00000
v 0.00000 0.76000 0.00000
v 0.00000 0.76000 0.00000
v -0.00000 0.76000 0.00000
v -0.00000 0.76000 0.00000
v -0.00000 0.76000 0.00000
v -0.00000 0.76000 0.00000
v -0.00000 0.76000 0.00000
v -0.00000 0.76000 0.00000
v -0.00000 0.76000 0.00000
v -0.00000 0.76000 0.00000
v -0.00000 0.76000 0.00000
v -0.00000 0.76000 0.00000
v -0.00000 0.76000 0.00000
v -0.00000 0.76000 0.00000
v -0.00000 0.76000 0.00000
v -0.00000 0.76000 0.00000
v -0.00000 0.76000 0.00000
v -0.00000 0.76000 0.00000
v -0.00000 0.76000 -0.00000
v -0.00000 0.76000 -0.00000
v -0.00000 0.76000 -0.00000
v -0.00000 0.76000 -0.00000
v -0.00000 0.76000 -0.00000
v -0.00000 0.76000 -0.00000
v -0.00000 0.76000 -0.00000
v -0.00000 0.76000 -0.00000
v -0.00000 0.76000 -0.00000
v -0.00000 0.76000 -0.00000
v -0.00000 0.76000 -0.00000
v -0.00000 0.76000 -0.00000
v -0.00000 0.76000 -0.00000
v -0.00000 0.76000 -0.00000
v -0.00000 0.76000 -0.00000
v -0.00000 0.76000 -0.00000
v 0.00000 0.76000 -0.00000
v 0.00000 0.76000 -0.00000
v 0.00000 0.76000 -0.00000
v 0.00000 0.76000 -0.00000
v 0.00000 0.76000 -0.00000
v 0.00000 0.76000 -0.00000
v 0.00000 0.76000 -0.00000
v 0.00000 0.76000 -0.00000
v 0.00000 0.76000 -0.00000
v 0.00000 0.76000 -0.00000
v 0.00000 0.76000 -0.00000
v 0.00000 0.76000 -0.00000
v 0.00000 0.76000 -0.00000
v 0.00000 0.76000 -0.00000
v 0.00000 0.76000 -0.00000
v 8.76000 0.70000 0.00000
v 8.71899 0.79899 0.00000
v 8.62000 0.84000 0.00000
v 8.52101 0.79899 0.00000
v 8.48000 0.70000 0.00000
v 8.52101 0.60101 0.00000
v 8.62000 0.56000 0.00000
v 8.71899 0.60101 0.00000
v 8.71782 0.70000 0.85863
v 8.67701 0.79899 0.85461
v 8.57849 0.84000 0.84491
v 8.47997 0.79899 0.83520
v 8.43917 0.70000 0.83119
v 8.47997 0.60101 0.83520
v 8.57849 0.56000 0.84491
v 8.67701 0.60101 0.85461
v 8.59168 0.70000 1.70899
v 8.55146 0.79899 1.70099
v 8.45437 0.84000 1.68168
v 8.35728 0.79899 1.66237
v 8.31706 0.70000 1.65437
v 8.35728 0.60101 1.66237
v 8.45437 0.56000 1.68168
v 8.55146 0.60101 1.70099
v 8.38280 0.70000 2.54289
v 8.34356 0.79899 2.53099
v 8.24883 0.84000 2.50225
v 8.15409 0.79899 2.47352
v 8.11485 0.70000 2.46161
v 8.15409 0.60101 2.47352
v 8.24883 0.56000 2.50225
v 8.34356 0.60101 2.53099
v 8.09318 0.70000 3.35231
v 8.05530 0.79899 3.33661
v 7.96384 0.84000 3.29873
v 7.87238 0.79899 3.26085
v 7.83450 0.70000 3.24516
v 7.87238 0.60101 3.26085
v 7.96384 0.56000 3.29873
v 8.05530 0.60101 3.33661
v 7.72563 0.70000 4.12944
v 7.68947 0.79899 4.11011
v 7.60216 0.84000 4.06344
v 7.51486 0.79899 4.01677
v 7.47869 0.70000 3.99744
v 7.51486 0.60101 4.01677
v 7.60216 0.56000 4.06344
v 7.68947 0.60101 4.11011
v 7.28367 0.70000 4.86680
v 7.24958 0.79899 4.84401
v 7.16727 0.84000 4.78902
v 7.08496 0.79899 4.73402
v 7.05086 0.70000 4.71124
v 7.08496 0.60101 4.73402
v 7.16727 0.56000 4.78902
v 7.24958 0.60101 4.84401
v 6.77157 0.70000 5.55729
v 6.73987 0.79899 5.53127
v 6.66335 0.84000 5.46847
v 6.58683 0.79899 5.40567
v 6.55513 0.70000 5.37966
v 6.58683 0.60101 5.40567
v 6.66335 0.56000 5.46847
v 6.73987 0.60101 5.53127
v 6.19426 0.70000 6.19426
v 6.16526 0.79899 6.16526
v 6.09526 0.84000 6.09526
v 6.02526 0.79899 6.02526
v 5.99627 0.70000 5.99627
v 6.02526 0.60101 6.02526
v 6.09526 0.56000 6.09526
v 6.16526 0.60101 6.16526
v 5.55729 0.70000 6.77157
v 5.53127 0.79899 6.73987
v 5.46847 0.84000 6.66335
v 5.40567 0.79899 6.58683
v 5.37966 0.70000 6.55513
v 5.40567 0.60101 6.58683
v 5.46847 0.56000 6.66335
v 5.53127 0.60101 6.73987
v 4.86680 0.70000 7.28367
v 4.84401 0.79899 7.24958
v 4.78902 0.84000 7.16727
v 4.73402 0.79899 7.08496
v 4.71124 0.70000 7.05086
v 4.73402 0.60101 7.08496
v 4.78902 0.56000 7.16727
v 4.84401 0.60101 7.24958
v 4.12944 0.70000 7.72563
v 4.11011 0.79899 7.68947
v 4.06344 0.84000 7.60216
v 4.01677 0.79899 7.51486
v 3.99744 0.70000 7.47869
v 4.01677 0.60101 7.51486
v 4.06344 0.56000 7.60216
v 4.11011 0.60101 7.68947
v 3.35231 0.70000 8.09318
v 3.33661 0.79899 8.05530
v 3.29873 0.84000 7.96384
v 3.26085 0.79899 7.87238
v 3.24516 0.70000 7.83450
v 3.26085 0.60101 7.87238
v 3.29873 0.56000 7.96384
v 3.33661 0.60101 8.05530
v 2.54289 0.70000 8.38280
v 2.53099 0.79899 8.34356
v 2.50225 0.84000 8.24883
v 2.47352 0.79899 8.15409
v 2.46161 0.70000 8.11485
v 2.47352 0.60101 8.15409
v 2.50225 0.56000 8.24883
v 2.53099 0.60101 8.34356
v 1.70899 0.70000 8.59168
v 1.70099 0.79899 8.55146
v 1.68168 0.84000 8.45437
v 1.66237 0.79899 8.35728
v 1.65437 0.70000 8.31706
v 1.66237 0.60101 8.35728
v 1.68168 0.56000 8.45437
v 1.70099 0.60101 8.55146
v 0.85863 0.70000 8.71782
v 0.85461 0.79899 8.67701
v 0.84491 0.84000 8.57849
v 0.83520 0.79899 8.47997
v 0.83119 0.70000 8.43917
v 0.83520 0.60101 8.47997
v 0.84491 0.56000 8.57849
v 0.85461 0.60101 8.67701
v 0.00000 0.70000 8.76000
v 0.00000 0.79899 8.71899
v 0.00000 0.84000 8.62000
v 0.00000 0.79899 8.52101
v 0.00000 0.70000 8.48000
v 0.00000 0.60101 8.52101
v 0.00000 0.56000 8.62000
v 0.00000 0.60101 8.71899
v -0.85863 0.70000 8.71782
v -0.85461 0.79899 8.67701
v -0.84491 0.84000 8.57849
v -0.83520 0.79899 8.47997
v -0.83119 0.70000 8.43917
v -0.83520 0.60101 8.47997
v -0.84491 0.56000 8.57849
v -0.85461 0.60101 8.67701
v -1.70899 0.70000 8.59168
v -1.70099 0.79899 8.55146
v -1.68168 0.84000 8.45437
v -1.66237 0.79899 8.35728
v -1.65437 0.70000 8.31706
v -1.66237 0.60101 8.35728
v -1.68168 0.56000 8.45437
v -1.70099 0.60101 8.55146
v -2.54289 0.70000 8.38280
v -2.53099 0.79899 8.34356
v -2.50225 0.84000 8.24883
v -2.47352 0.79899 8.15409
v -2.46161 0.70000 8.11485
v -2.47352 0.60101 8.15409
v -2.50225 0.56000 8.24883
v -2.53099 0.60101 8.34356
v -3.35231 0.70000 8.09318
v -3.33661 0.79899 8.05530
v -3.29873 0.84000 7.96384
v -3.26085 0.79899 7.87238
v -3.24516 0.70000 7.83450
v -3.26085 0.60101 7.87238
v -3.29873 0.56000 7.96384
v -3.33661 0.60101 8.05530
v -4.12944 0.70000 7.72563
v -4.11011 0.79899 7.68947
v -4.06344 0.84000 7.60216
v -4.01677 0.79899 7.51486
v -3.99744 0.70000 7.47869
v -4.01677 0.60101 7.51486
v -4.06344 0.56000 7.60216
v -4.11011 0.60101 7.68947
v -4.86680 0.70000 7.28367
v -4.84401 0.79899 7.24958
v -4.78902 0.84000 7.16727
v -4.73402 0.79899 7.08496
v -4.71124 0.70000 7.05086
v -4.73402 0.60101 7.08496
v -4.78902 0.56000 7.16727
v -4.84401 0.60101 7.24958
v -5.55729 0.70000 6.77157
v -5.53127 0.79899 6.73987
v -5.46847 0.84000 6.66335
v -5.40567 0.79899 6.58683
v -5.37966 0.70000 6.55513
v -5.40567 0.60101 6.58683
v -5.46847 0.56000 6.66335
v -5.53127 0.60101 6.73987
v -6.19426 0.70000 6.19426
v -6.16526 0.79899 6.16526
v -6.09526 0.84000 6.09526
v -6.02526 0.79899 6.02526
v -5.99627 0.70000 5.99627
v -6.02526 0.60101 6.02526
v -6.09526 0.56000 6.09526
v -6.16526 0.60101 6.16526
v -6.77157 0.70000 5.55729
v -6.73987 0.79899 5.53127
v -6.66335 0.84000 5.46847
v -6.58683 0.79899 5.40567
v -6.55513 0.70000 5.37966
v -6.58683 0.60101 5.40567
v -6.66335 0.56000 5.46847
v -6.73987 0.60101 5.53127
v -7.28367 0.70000 4.86680
v -7.24958 0.79899 4.84401
v -7.16727 0.84000 4.78902
v -7.08496 0.79899 4.73402
v -7.05086 0.70000 4.71124
v -7.08496 0.60101 4.73402
v -7.16727 0.56000 4.78902
v -7.24958 0.60101 4.84401
v -7.72563 0.70000 4.12944
v -7.68947 0.79899 4.11011
v -7.60216 0.84000 4.06344
v -7.51486 0.79899 4.01677
v -7.47869 0.70000 3.99744
v -7.51486 0.60101 4.01677
v -7.60216 0.56000 4.06344
v -7.68947 0.60101 4.11011
v -8.09318 0.70000 3.35231
v -8.05530 0.79899 3.33661
v -7.96384 0.84000 3.29873
v -7.87238 0.79899 3.26085
v -7.83450 0.70000 3.24516
v -7.87238 0.60101 3.26085
v -7.96384 0.56000 3.29873
v -8.05530 0.60101 3.33661
v -8.38280 0.70000 2.54289
v -8.34356 0.79899 2.53099
v -8.24883 0.84000 2.50225
v -8.15409 0.79899 2.47352
v -8.11485 0.70000 2.46161
v -8.15409 0.60101 2.47352
v -8.24883 0.56000 2.50225
v -8.34356 0.60101 2.53099
v -8.59168 0.70000 1.70899
v -8.55146 0.79899 1.70099
v -8.45437 0.84000 1.68168
v -8.35728 0.79899 1.66237
v -8.31706 0.70000 1.65437
v -8.35728 0.60101 1.66237
v -8.45437 0.56000 1.68168
v -8.55146 0.60101 1.70099
v -8.71782 0.70000 0.85863
v -8.67701 0.79899 0.85461
v -8.57849 0.84000 0.84491
v -8.47997 0.79899 0.83520
v -8.43917 0.70000 0.83119
v -8.47997 0.60101 0.83520
v -8.57849 0.56000 0.84491
v -8.67701 0.60101 0.85461
v -8.76000 0.70000 0.00000
v -8.71899 0.79899 0.00000
v -8.62000 0.84000 0.00000
v -8.52101 0.79899 0.00000
v -8.48000 0.70000 0.00000
v -8.52101 0.60101 0.00000
v -8.62000 0.56000 0.00000
v -8.71899 0.60101 0.00000
v -8.71782 0.70000 -0.85863
v -8.67701 0.79899 -0.85461
v -8.57849 0.84000 -0.84491
v -8.47997 0.79899 -0.83520
v -8.43917 0.70000 -0.83119
v -8.47997 0.60101 -0.83520
v -8.57849 0.56000 -0.84491
v -8.67701 0.60101 -0.85461
v -8.59168 0.70000 -1.70899
v -8.55146 0.79899 -1.70099
v -8.45437 0.84000 -1.68168
v -8.35728 0.79899 -1.66237
v -8.31706 0.70000 -1.65437
v -8.35728 0.60101 -1.66237
v -8.45437 0.56000 -1.68168
v -8.55146 0.60101 -1.70099
v -8.38280 0.70000 -2.54289
v -8.34356 0.79899 -2.53099
v -8.24883 0.84000 -2.50225
v -8.15409 0.79899 -2.47352
v -8.11485 0.70000 -2.46161
v -8.15409 0.60101 -2.47352
v -8.24883 0.56000 -2.50225
v -8.34356 0.60101 -2.53099
v -8.09318 0.70000 -3.35231
v -8.05530 0.79899 -3.33661
v -7.96384 0.84000 -3.29873
v -7.87238 0.79899 -3.26085
v -7.83450 0.70000 -3.24516
v -7.87238 0.60101 -3.26085
v -7.96384 0.56000 -3.29873
v -8.05530 0.60101 -3.33661
v -7.72563 0.70000 -4.12944
v -7.68947 0.79899 -4.11011
v -7.60216 0.84000 -4.06344
v -7.51486 0.79899 -4.01677
v -7.47869 0.70000 -3.99744
v -7.51486 0.60101 -4.01677
v -7.60216 0.56000 -4.06344
v -7.68947 0.60101 -4.11011
v -7.28367 0.70000 -4.86680
v -7.24958 0.79899 -4.84401
v -7.16727 0.84000 -4.78902
v -7.08496 0.79899 -4.73402
v -7.05086 0.70000 -4.71124
v -7.08496 0.60101 -4.73402
v -7.16727 0.56000 -4.78902
v -7.24958 0.60101 -4.84401
v -6.77157 0.70000 -5.55729
v -6.73987 0.79899 -5.53127
v -6.66335 0.84000 -5.46847
v -6.58683 0.79899 -5.40567
v -6.55513 0.70000 -5.37966
v -6.58683 0.60101 -5.40567
v -6.66335 0.56000 -5.46847
v -6.73987 0.60101 -5.53127
v -6.19426 0.70000 -6.19426
v -6.16526 0.79899 -6.16526
v -6.09526 0.84000 -6.09526
v -6.02526 0.79899 -6.02526
v -5.99627 0.70000 -5.99627
v -6.02526 0.60101 -6.02526
v -6.09526 0.56000 -6.09526
v -6.16526 0.60101 -6.16526
v -5.55729 0.70000 -6.77157
v -5.53127 0.79899 -6.73987
v -5.46847 0.84000 -6.66335
v -5.40567 0.79899 -6.58683
v -5.37966 0.70000 -6.55513
v -5.40567 0.60101 -6.58683
v -5.46847 0.56000 -6.66335
v -5.53127 0.60101 -6.73987
v -4.86680 0.70000 -7.28367
v -4.84401 0.79899 -7.24958
v -4.78902 0.84000 -7.16727
v -4.73402 0.79899 -7.08496
v -4.71124 0.70000 -7.05086
v -4.73402 0.60101 -7.08496
v -4.78902 0.56000 -7.16727
v -4.84401 0.60101 -7.24958
v -4.12944 0.70000 -7.72563
v -4.11011 0.79899 -7.68947
v -4.06344 0.84000 -7.60216
v -4.01677 0.79899 -7.51486
v -3.99744 0.70000 -7.47869
v -4.01677 0.60101 -7.51486
v -4.06344 0.56000 -7.60216
v -4.11011 0.60101 -7.68947
v -3.35231 0.70000 -8.09318
v -3.33661 0.79899 -8.05530
v -3.29873 0.84000 -7.96384
v -3.26085 0.79899 -7.87238
v -3.24516 0.70000 -7.83450
v -3.26085 0.60101 -7.87238
v -3.29873 0.56000 -7.96384
v -3.33661 0.60101 -8.05530
v -2.54289 0.70000 -8.38280
v -2.53099 0.79899 -8.34356
v -2.50225 0.84000 -8.24883
v -2.47352 0.79899 -8.15409
v -2.46161 0.70000 -8.11485
v -2.47352 0.60101 -8.15409
v -2.50225 0.56000 -8.24883
v -2.53099 0.60101 -8.34356
v -1.70899 0.70000 -8.59168
v -1.70099 0.79899 -8.55146
v -1.68168 0.84000 -8.45437
v -1.66237 0.79899 -8.35728
v -1.65437 0.70000 -8.31706
v -1.66237 0.60101 -8.35728
v -1.68168 0.56000 -8.45437
v -1.70099 0.60101 -8.55146
v -0.85863 0.70000 -8.71782
v -0.85461 0.79899 -8.67701
v -0.84491 0.84000 -8.57849
v -0.83520 0.79899 -8.47997
v -0.83119 0.70000 -8.43917
v -0.83520 0.60101 -8.47997
v -0.84491 0.56000 -8.57849
v -0.85461 0.60101 -8.67701
v -0.00000 0.70000 -8.76000
v -0.00000 0.79899 -8.71899
v -0.00000 0.84000 -8.62000
v -0.00000 0.79899 -8.52101
v -0.00000 0.70000 -8.48000
v -0.00000 0.60101 -8.52101
v -0.00000 0.56000 -8.62000
v -0.00000 0.60101 -8.71899
v 0.85863 0.70000 -8.71782
v 0.85461 0.79899 -8.67701
v 0.84491 0.84000 -8.57849
v 0.83520 0.79899 -8.47997
v 0.83119 0.70000 -8.43917
v 0.83520 0.60101 -8.47997
v 0.84491 0.56000 -8.57849
v 0.85461 0.60101 -8.67701
v 1.70899 0.70000 -8.59168
v 1.70099 0.79899 -8.55146
v 1.68168 0.84000 -8.45437
v 1.66237 0.79899 -8.35728
v 1.65437 0.70000 -8.31706
v 1.66237 0.60101 -8.35728
v 1.68168 0.56000 -8.45437
v 1.70099 0.60101 -8.55146
v 2.54289 0.70000 -8.38280
v 2.53099 0.79899 -8.34356
v 2.50225 0.84000 -8.24883
v 2.47352 0.79899 -8.15409
v 2.46161 0.70000 -8.11485
v 2.47352 0.60101 -8.15409
v 2.50225 0.56000 -8.24883
v 2.53099 0.60101 -8.34356
v 3.35231 0.70000 -8.09318
v 3.33661 0.79899 -8.05530
v 3.29873 0.84000 -7.96384
v 3.26085 0.79899 -7.87238
v 3.24516 0.70000 -7.83450
v 3.26085 0.60101 -7.87238
v 3.29873 0.56000 -7.96384
v 3.33661 0.60101 -8.05530
v 4.12944 0.70000 -7.72563
v 4.11011 0.79899 -7.68947
v 4.06344 0.84000 -7.60216
v 4.01677 0.79899 -7.51486
v 3.99744 0.70000 -7.47869
v 4.01677 0.60101 -7.51486
v 4.06344 0.56000 -7.60216
v 4.11011 0.60101 -7.68947
v 4.86680 0.70000 -7.28367
v 4.84401 0.79899 -7.24958
v 4.78902 0.84000 -7.16727
v 4.73402 0.79899 -7.08496
v 4.71124 0.70000 -7.05086
v 4.73402 0.60101 -7.08496
v 4.78902 0.56000 -7.16727
v 4.84401 0.60101 -7.24958
v 5.55729 0.70000 -6.77157
v 5.53127 0.79899 -6.73987
v 5.46847 0.84000 -6.66335
v 5.40567 0.79899 -6.58683
v 5.37966 0.70000 -6.55513
v 5.40567 0.60101 -6.58683
v 5.46847 0.56000 -6.66335
v 5.53127 0.60101 -6.73987
v 6.19426 0.70000 -6.19426
v 6.16526 0.79899 -6.16526
v 6.09526 0.84000 -6.09526
v 6.02526 0.79899 -6.02526
v 5.99627 0.70000 -5.99627
v 6.02526 0.60101 -6.02526
v 6.09526 0.56000 -6.09526
v 6.16526 0.60101 -6.16526
v 6.77157 0.70000 -5.55729
v 6.73987 0.79899 -5.53127
v 6.66335 0.84000 -5.46847
v 6.58683 0.79899 -5.40567
v 6.55513 0.70000 -5.37966
v 6.58683 0.60101 -5.40567
v 6.66335 0.56000 -5.46847
v 6.73987 0.60101 -5.53127
v 7.28367 0.70000 -4.86680
v 7.24958 0.79899 -4.84401
v 7.16727 0.84000 -4.78902
v 7.08496 0.79899 -4.73402
v 7.05086 0.70000 -4.71124
v 7.08496 0.60101 -4.73402
v 7.16727 0.56000 -4.78902
v 7.24958 0.60101 -4.84401
v 7.72563 0.70000 -4.12944
v 7.68947 0.79899 -4.11011
v 7.60216 0.84000 -4.06344
v 7.51486 0.79899 -4.01677
v 7.47869 0.70000 -3.99744
v 7.51486 0.60101 -4.01677
v 7.60216 0.56000 -4.06344
v 7.68947 0.60101 -4.11011
v 8.09318 0.70000 -3.35231
v 8.05530 0.79899 -3.33661
v 7.96384 0.84000 -3.29873
v 7.87238 0.79899 -3.26085
v 7.83450 0.70000 -3.24516
v 7.87238 0.60101 -3.26085
v 7.96384 0.56000 -3.29873
v 8.05530 0.60101 -3.33661
v 8.38280 0.70000 -2.54289
v 8.34356 0.79899 -2.53099
v 8.24883 0.84000 -2.50225
v 8.15409 0.79899 -2.47352
v 8.11485 0.70000 -2.46161
v 8.15409 0.60101 -2.47352
v 8.24883 0.56000 -2.50225
v 8.34356 0.60101 -2.53099
v 8.59168 0.70000 -1.70899
v 8.55146 0.79899 -1.70099
v 8.45437 0.84000 -1.68168
v 8.35728 0.79899 -1.66237
v 8.31706 0.70000 -1.65437
v 8.35728 0.60101 -1.66237
v 8.45437 0.56000 -1.68168
v 8.55146 0.60101 -1.70099
v 8.71782 0.70000 -0.85863
v 8.67701 0.79899 -0.85461
v 8.57849 0.84000 -0.84491
v 8.47997 0.79899 -0.83520
v 8.43917 0.70000 -0.83119
v 8.47997 0.60101 -0.83520
v 8.57849 0.56000 -0.84491
v 8.67701 0.60101 -0.85461
v 7.58000 0.78000 0.00000
v 7.54000 0.84928 0.00000
v 7.46000 0.84928 0.00000
v 7.42000 0.78000 0.00000
v 7.46000 0.71072 0.00000
v 7.54000 0.71072 0.00000
v 7.53234 0.78000 0.84869
v 7.49259 0.84928 0.84421
v 7.41309 0.84928 0.83525
v 7.37334 0.78000 0.83078
v 7.41309 0.71072 0.83525
v 7.49259 0.71072 0.84421
v 7.38995 0.78000 1.68671
v 7.35096 0.84928 1.67781
v 7.27296 0.84928 1.66001
v 7.23397 0.78000 1.65111
v 7.27296 0.71072 1.66001
v 7.35096 0.71072 1.67781
v 7.15464 0.78000 2.50352
v 7.11688 0.84928 2.49030
v 7.04137 0.84928 2.46388
v 7.00361 0.78000 2.45067
v 7.04137 0.71072 2.46388
v 7.11688 0.71072 2.49030
v 6.82934 0.78000 3.28884
v 6.79331 0.84928 3.27148
v 6.72123 0.84928 3.23677
v 6.68519 0.78000 3.21942
v 6.72123 0.71072 3.23677
v 6.79331 0.71072 3.27148
v 6.41817 0.78000 4.03280
v 6.38430 0.84928 4.01152
v 6.31656 0.84928 3.96896
v 6.28269 0.78000 3.94768
v 6.31656 0.71072 3.96896
v 6.38430 0.71072 4.01152
v 5.92628 0.78000 4.72605
v 5.89501 0.84928 4.70111
v 5.83246 0.84928 4.65123
v 5.80119 0.78000 4.62629
v 5.83246 0.71072 4.65123
v 5.89501 0.71072 4.70111
v 5.35987 0.78000 5.35987
v 5.33159 0.84928 5.33159
v 5.27502 0.84928 5.27502
v 5.24673 0.78000 5.24673
v 5.27502 0.71072 5.27502
v 5.33159 0.71072 5.33159
v 4.72605 0.78000 5.92628
v 4.70111 0.84928 5.89501
v 4.65123 0.84928 5.83246
v 4.62629 0.78000 5.80119
v 4.65123 0.71072 5.83246
v 4.70111 0.71072 5.89501
v 4.03280 0.78000 6.41817
v 4.01152 0.84928 6.38430
v 3.96896 0.84928 6.31656
v 3.94768 0.78000 6.28269
v 3.96896 0.71072 6.31656
v 4.01152 0.71072 6.38430
v 3.28884 0.78000 6.82934
v 3.27148 0.84928 6.79331
v 3.23677 0.84928 6.72123
v 3.21942 0.78000 6.68519
v 3.23677 0.71072 6.72123
v 3.27148 0.71072 6.79331
v 2.50352 0.78000 7.15464
v 2.49030 0.84928 7.11688
v 2.46388 0.84928 7.04137
v 2.45067 0.78000 7.00361
v 2.46388 0.71072 7.04137
v 2.49030 0.71072 7.11688
v 1.68671 0.78000 7.38995
v 1.67781 0.84928 7.35096
v 1.66001 0.84928 7.27296
v 1.65111 0.78000 7.23397
v 1.66001 0.71072 7.27296
v 1.67781 0.71072 7.35096
v 0.84869 0.78000 7.53234
v 0.84421 0.84928 7.49259
v 0.83525 0.84928 7.41309
v 0.83078 0.78000 7.37334
v 0.83525 0.71072 7.41309
v 0.84421 0.71072 7.49259
v 0.00000 0.78000 7.58000
v 0.00000 0.84928 7.54000
v 0.00000 0.84928 7.46000
v 0.00000 0.78000 7.42000
v 0.00000 0.71072 7.46000
v 0.00000 0.71072 7.54000
v -0.84869 0.78000 7.53234
v -0.84421 0.84928 7.49259
v -0.83525 0.84928 7.41309
v -0.83078 0.78000 7.37334
v -0.83525 0.71072 7.41309
v -0.84421 0.71072 7.49259
v -1.68671 0.78000 7.38995
v -1.67781 0.84928 7.35096
v -1.66001 0.84928 7.27296
v -1.65111 0.78000 7.23397
v -1.66001 0.71072 7.27296
v -1.67781 0.71072 7.35096
v -2.50352 0.78000 7.15464
v -2.49030 0.84928 7.11688
v -2.46388 0.84928 7.04137
v -2.45067 0.78000 7.00361
v -2.46388 0.71072 7.04137
v -2.49030 0.71072 7.11688
v -3.28884 0.78000 6.82934
v -3.27148 0.84928 6.79331
v -3.23677 0.84928 6.72123
v -3.21942 0.78000 6.68519
v -3.23677 0.71072 6.72123
v -3.27148 0.71072 6.79331
v -4.03280 0.78000 6.41817
v -4.01152 0.84928 6.38430
v -3.96896 0.84928 6.31656
v -3.94768 0.78000 6.28269
v -3.96896 0.71072 6.31656
v -4.01152 0.71072 6.38430
v -4.72605 0.78000 5.92628
v -4.70111 0.84928 5.89501
v -4.65123 0.84928 5.83246
v -4.62629 0.78000 5.80119
v -4.65123 0.71072 5.83246
v -4.70111 0.71072 5.89501
v -5.35987 0.78000 5.35987
v -5.33159 0.84928 5.33159
v -5.27502 0.84928 5.27502
v -5.24673 0.78000 5.24673
v -5.27502 0.71072 5.27502
v -5.33159 0.71072 5.33159
v -5.92628 0.78000 4.72605
v -5.89501 0.84928 4.70111
v -5.83246 0.84928 4.65123
v -5.80119 0.78000 4.62629
v -5.83246 0.71072 4.65123
v -5.89501 0.71072 4.70111
v -6.41817 0.78000 4.03280
v -6.38430 0.84928 4.01152
v -6.31656 0.84928 3.96896
v -6.28269 0.78000 3.94768
v -6.31656 0.71072 3.96896
v -6.38430 0.71072 4.01152
v -6.82934 0.78000 3.28884
v -6.79331 0.84928 3.27148
v -6.72123 0.84928 3.23677
v -6.68519 0.78000 3.21942
v -6.72123 0.71072 3.23677
v -6.79331 0.71072 3.27148
v -7.15464 0.78000 2.50352
v -7.11688 0.84928 2.49030
v -7.04137 0.84928 2.46388
v -7.00361 0.78000 2.45067
v -7.04137 0.71072 2.46388
v -7.11688 0.71072 2.49030
v -7.38995 0.78000 1.68671
v -7.35096 0.84928 1.67781
v -7.27296 0.84928 1.66001
v -7.23397 0.78000 1.65111
v -7.27296 0.71072 1.66001
v -7.35096 0.71072 1.67781
v -7.53234 0.78000 0.84869
v -7.49259 0.84928 0.84421
v -7.41309 0.84928 0.83525
v -7.37334 0.78000 0.83078
v -7.41309 0.71072 0.83525
v -7.49259 0.71072 0.84421
v -7.58000 0.78000 0.00000
v -7.54000 0.84928 0.00000
v -7.46000 0.84928 0.00000
v -7.42000 0.78000 0.00000
v -7.46000 0.71072 0.00000
v -7.54000 0.71072 0.00000
v -7.53234 0.78000 -0.84869
v -7.49259 0.84928 -0.84421
v -7.41309 0.84928 -0.83525
v -7.37334 0.78000 -0.83078
v -7.41309 0.71072 -0.83525
v -7.49259 0.71072 -0.84421
v -7.38995 0.78000 -1.68671
v -7.35096 0.84928 -1.67781
v -7.27296 0.84928 -1.66001
v -7.23397 0.78000 -1.65111
v -7.27296 0.71072 -1.66001
v -7.35096 0.71072 -1.67781
v -7.15464 0.78000 -2.50352
v -7.11688 0.84928 -2.49030
v -7.04137 0.84928 -2.46388
v -7.00361 0.78000 -2.45067
v -7.04137 0.71072 -2.46388
v -7.11688 0.71072 -2.49030
v -6.82934 0.78000 -3.28884
v -6.79331 0.84928 -3.27148
v -6.72123 0.84928 -3.23677
v -6.68519 0.78000 -3.21942
v -6.72123 0.71072 -3.23677
v -6.79331 0.71072 -3.27148
v -6.41817 0.78000 -4.03280
v -6.38430 0.84928 -4.01152
v -6.31656 0.84928 -3.96896
v -6.28269 0.78000 -3.94768
v -6.31656 0.71072 -3.96896
v -6.38430 0.71072 -4.01152
v -5.92628 0.78000 -4.72605
v -5.89501 0.84928 -4.70111
v -5.83246 0.84928 -4.65123
v -5.80119 0.78000 -4.62629
v -5.83246 0.71072 -4.65123
v -5.89501 0.71072 -4.70111
v -5.35987 0.78000 -5.35987
v -5.33159 0.84928 -5.33159
v -5.27502 0.84928 -5.27502
v -5.24673 0.78000 -5.24673
v -5.27502 0.71072 -5.27502
v -5.33159 0.71072 -5.33159
v -4.72605 0.78000 -5.92628
v -4.70111 0.84928 -5.89501
v -4.65123 0.84928 -5.83246
v -4.62629 0.78000 -5.80119
v -4.65123 0.71072 -5.83246
v -4.70111 0.71072 -5.89501
v -4.03280 0.78000 -6.41817
v -4.01152 0.84928 -6.38430
v -3.96896 0.84928 -6.31656
v -3.94768 0.78000 -6.28269
v -3.96896 0.71072 -6.31656
v -4.01152 0.71072 -6.38430
v -3.28884 0.78000 -6.82934
v -3.27148 0.84928 -6.79331
v -3.23677 0.84928 -6.72123
v -3.21942 0.78000 -6.68519
v -3.23677 0.71072 -6.72123
v -3.27148 0.71072 -6.79331
v -2.50352 0.78000 -7.15464
v -2.49030 0.84928 -7.11688
v -2.46388 0.84928 -7.04137
v -2.45067 0.78000 -7.00361
v -2.46388 0.71072 -7.04137
v -2.49030 0.71072 -7.11688
v -1.68671 0.78000 -7.38995
v -1.67781 0.84928 -7.35096
v -1.66001 0.84928 -7.27296
v -1.65111 0.78000 -7.23397
v -1.66001 0.71072 -7.27296
v -1.67781 0.71072 -7.35096
v -0.84869 0.78000 -7.53234
v -0.84421 0.84928 -7.49259
v -0.83525 0.84928 -7.41309
v -0.83078 0.78000 -7.37334
v -0.83525 0.71072 -7.41309
v -0.84421 0.71072 -7.49259
v -0.00000 0.78000 -7.58000
v -0.00000 0.84928 -7.54000
v -0.00000 0.84928 -7.46000
v -0.00000 0.78000 -7.42000
v -0.00000 0.71072 -7.46000
v -0.00000 0.71072 -7.54000
v 0.84869 0.78000 -7.53234
v 0.84421 0.84928 -7.49259
v 0.83525 0.84928 -7.41309
v 0.83078 0.78000 -7.37334
v 0.83525 0.71072 -7.41309
v 0.84421 0.71072 -7.49259
v 1.68671 0.78000 -7.38995
v 1.67781 0.84928 -7.35096
v 1.66001 0.84928 -7.27296
v 1.65111 0.78000 -7.23397
v 1.66001 0.71072 -7.27296
v 1.67781 0.71072 -7.35096
v 2.50352 0.78000 -7.15464
v 2.49030 0.84928 -7.11688
v 2.46388 0.84928 -7.04137
v 2.45067 0.78000 -7.00361
v 2.46388 0.71072 -7.04137
v 2.49030 0.71072 -7.11688
v 3.28884 0.78000 -6.82934
v 3.27148 0.84928 -6.79331
v 3.23677 0.84928 -6.72123
v 3.21942 0.78000 -6.68519
v 3.23677 0.71072 -6.72123
v 3.27148 0.71072 -6.79331
v 4.03280 0.78000 -6.41817
v 4.01152 0.84928 -6.38430
v 3.96896 0.84928 -6.31656
v 3.94768 0.78000 -6.28269
v 3.96896 0.71072 -6.31656
v 4.01152 0.71072 -6.38430
v 4.72605 0.78000 -5.92628
v 4.70111 0.84928 -5.89501
v 4.65123 0.84928 -5.83246
v 4.62629 0.78000 -5.80119
v 4.65123 0.71072 -5.83246
v 4.70111 0.71072 -5.89501
v 5.35987 0.78000 -5.35987
v 5.33159 0.84928 -5.33159
v 5.27502 0.84928 -5.27502
v 5.24673 0.78000 -5.24673
v 5.27502 0.71072 -5.27502
v 5.33159 0.71072 -5.33159
v 5.92628 0.78000 -4.72605
v 5.89501 0.84928 -4.70111
v 5.83246 0.84928 -4.65123
v 5.80119 0.78000 -4.62629
v 5.83246 0.71072 -4.65123
v 5.89501 0.71072 -4.70111
v 6.41817 0.78000 -4.03280
v 6.38430 0.84928 -4.01152
v 6.31656 0.84928 -3.96896
v 6.28269 0.78000 -3.94768
v 6.31656 0.71072 -3.96896
v 6.38430 0.71072 -4.01152
v 6.82934 0.78000 -3.28884
v 6.79331 0.84928 -3.27148
v 6.72123 0.84928 -3.23677
v 6.68519 0.78000 -3.21942
v 6.72123 0.71072 -3.23677
v 6.79331 0.71072 -3.27148
v 7.15464 0.78000 -2.50352
v 7.11688 0.84928 -2.49030
v 7.04137 0.84928 -2.46388
v 7.00361 0.78000 -2.45067
v 7.04137 0.71072 -2.46388
v 7.11688 0.71072 -2.49030
v 7.38995 0.78000 -1.68671
v 7.35096 0.84928 -1.67781
v 7.27296 0.84928 -1.66001
v 7.23397 0.78000 -1.65111
v 7.27296 0.71072 -1.66001
v 7.35096 0.71072 -1.67781
v 7.53234 0.78000 -0.84869
v 7.49259 0.84928 -0.84421
v 7.41309 0.84928 -0.83525
v 7.37334 0.78000 -0.83078
v 7.41309 0.71072 -0.83525
v 7.49259 0.71072 -0.84421
v 8.27092 0.75929 0.00000
v 8.19904 0.75929 0.14927
v 8.03752 0.75929 0.18613
v 7.90799 0.75929 0.08284
v 7.90799 0.75929 -0.08284
v 8.03752 0.75929 -0.18613
v 8.19904 0.75929 -0.14927
v 8.35000 0.83000 0.00000
v 8.24834 0.83000 0.21109
v 8.01992 0.83000 0.26323
v 7.83674 0.83000 0.11715
v 7.83674 0.83000 -0.11715
v 8.01992 0.83000 -0.26323
v 8.24834 0.83000 -0.21109
v 8.27092 0.90071 0.00000
v 8.19904 0.90071 0.14927
v 8.03752 0.90071 0.18613
v 7.90799 0.90071 0.08284
v 7.90799 0.90071 -0.08284
v 8.03752 0.90071 -0.18613
v 8.19904 0.90071 -0.14927
v 8.08000 0.73000 0.00000
v 8.08000 0.93000 0.00000
v 7.65587 0.75929 3.09208
v 7.58398 0.75929 3.24135
v 7.42246 0.75929 3.27821
v 7.29293 0.75929 3.17492
v 7.29293 0.75929 3.00925
v 7.42246 0.75929 2.90595
v 7.58398 0.75929 2.94282
v 7.73495 0.83000 3.09208
v 7.63329 0.83000 3.30318
v 7.40487 0.83000 3.35531
v 7.22169 0.83000 3.20923
v 7.22169 0.83000 2.97493
v 7.40487 0.83000 2.82885
v 7.63329 0.83000 2.88099
v 7.65587 0.90071 3.09208
v 7.58398 0.90071 3.24135
v 7.42246 0.90071 3.27821
v 7.29293 0.90071 3.17492
v 7.29293 0.90071 3.00925
v 7.42246 0.90071 2.90595
v 7.58398 0.90071 2.94282
v 7.46495 0.73000 3.09208
v 7.46495 0.93000 3.09208
v 5.90434 0.75929 5.71342
v 5.83246 0.75929 5.86269
v 5.67094 0.75929 5.89955
v 5.54141 0.75929 5.79626
v 5.54141 0.75929 5.63059
v 5.67094 0.75929 5.52729
v 5.83246 0.75929 5.56416
v 5.98342 0.83000 5.71342
v 5.88177 0.83000 5.92452
v 5.65334 0.83000 5.97665
v 5.47016 0.83000 5.83057
v 5.47016 0.83000 5.59627
v 5.65334 0.83000 5.45019
v 5.88177 0.83000 5.50233
v 5.90434 0.90071 5.71342
v 5.83246 0.90071 5.86269
v 5.67094 0.90071 5.89955
v 5.54141 0.90071 5.79626
v 5.54141 0.90071 5.63059
v 5.67094 0.90071 5.52729
v 5.83246 0.90071 5.56416
v 5.71342 0.73000 5.71342
v 5.71342 0.93000 5.71342
v 3.28300 0.75929 7.46495
v 3.21112 0.75929 7.61421
v 3.04960 0.75929 7.65108
v 2.92007 0.75929 7.54778
v 2.92007 0.75929 7.38211
v 3.04960 0.75929 7.27881
v 3.21112 0.75929 7.31568
v 3.36208 0.83000 7.46495
v 3.26042 0.83000 7.67604
v 3.03200 0.83000 7.72818
v 2.84882 0.83000 7.58210
v 2.84882 0.83000 7.34780
v 3.03200 0.83000 7.20172
v 3.26042 0.83000 7.25385
v 3.28300 0.90071 7.46495
v 3.21112 0.90071 7.61421
v 3.04960 0.90071 7.65108
v 2.92007 0.90071 7.54778
v 2.92007 0.90071 7.38211
v 3.04960 0.90071 7.27881
v 3.21112 0.90071 7.31568
v 3.09208 0.73000 7.46495
v 3.09208 0.93000 7.46495
v 0.19092 0.75929 8.08000
v 0.11904 0.75929 8.22927
v -0.04248 0.75929 8.26613
v -0.17201 0.75929 8.16284
v -0.17201 0.75929 7.99716
v -0.04248 0.75929 7.89387
v 0.11904 0.75929 7.93073
v 0.27000 0.83000 8.08000
v 0.16834 0.83000 8.29109
v -0.06008 0.83000 8.34323
v -0.24326 0.83000 8.19715
v -0.24326 0.83000 7.96285
v -0.06008 0.83000 7.81677
v 0.16834 0.83000 7.86891
v 0.19092 0.90071 8.08000
v 0.11904 0.90071 8.22927
v -0.04248 0.90071 8.26613
v -0.17201 0.90071 8.16284
v -0.17201 0.90071 7.99716
v -0.04248 0.90071 7.89387
v 0.11904 0.90071 7.93073
v 0.00000 0.73000 8.08000
v 0.00000 0.93000 8.08000
v -2.90116 0.75929 7.46495
v -2.97305 0.75929 7.61421
v -3.13457 0.75929 7.65108
v -3.26409 0.75929 7.54778
v -3.26409 0.75929 7.38211
v -3.13457 0.75929 7.27881
v -2.97305 0.75929 7.31568
v -2.82208 0.83000 7.46495
v -2.92374 0.83000 7.67604
v -3.15216 0.83000 7.72818
v -3.33534 0.83000 7.58210
v -3.33534 0.83000 7.34780
v -3.15216 0.83000 7.20172
v -2.92374 0.83000 7.25385
v -2.90116 0.90071 7.46495
v -2.97305 0.90071 7.61421
v -3.13457 0.90071 7.65108
v -3.26409 0.90071 7.54778
v -3.26409 0.90071 7.38211
v -3.13457 0.90071 7.27881
v -2.97305 0.90071 7.31568
v -3.09208 0.73000 7.46495
v -3.09208 0.93000 7.46495
v -5.52250 0.75929 5.71342
v -5.59439 0.75929 5.86269
v -5.75591 0.75929 5.89955
v -5.88543 0.75929 5.79626
v -5.88543 0.75929 5.63059
v -5.75591 0.75929 5.52729
v -5.59439 0.75929 5.56416
v -5.44342 0.83000 5.71342
v -5.54508 0.83000 5.92452
v -5.77350 0.83000 5.97665
v -5.95668 0.83000 5.83057
v -5.95668 0.83000 5.59627
v -5.77350 0.83000 5.45019
v -5.54508 0.83000 5.50233
v -5.52250 0.90071 5.71342
v -5.59439 0.90071 5.86269
v -5.75591 0.90071 5.89955
v -5.88543 0.90071 5.79626
v -5.88543 0.90071 5.63059
v -5.75591 0.90071 5.52729
v -5.59439 0.90071 5.56416
v -5.71342 0.73000 5.71342
v -5.71342 0.93000 5.71342
v -7.27403 0.75929 3.09208
v -7.34591 0.75929 3.24135
v -7.50743 0.75929 3.27821
v -7.63696 0.75929 3.17492
v -7.63696 0.75929 3.00925
v -7.50743 0.75929 2.90595
v -7.34591 0.75929 2.94282
v -7.19495 0.83000 3.09208
v -7.29660 0.83000 3.30318
v -7.52503 0.83000 3.35531
v -7.70821 0.83000 3.20923
v -7.70821 0.83000 2.97493
v -7.52503 0.83000 2.82885
v -7.29660 0.83000 2.88099
v -7.27403 0.90071 3.09208
v -7.34591 0.90071 3.24135
v -7.50743 0.90071 3.27821
v -7.63696 0.90071 3.17492
v -7.63696 0.90071 3.00925
v -7.50743 0.90071 2.90595
v -7.34591 0.90071 2.94282
v -7.46495 0.73000 3.09208
v -7.46495 0.93000 3.09208
v -7.88908 0.75929 0.00000
v -7.96096 0.75929 0.14927
v -8.12248 0.75929 0.18613
v -8.25201 0.75929 0.08284
v -8.25201 0.75929 -0.08284
v -8.12248 0.75929 -0.18613
v -7.96096 0.75929 -0.14927
v -7.81000 0.83000 0.00000
v -7.91166 0.83000 0.21109
v -8.14008 0.83000 0.26323
v -8.32326 0.83000 0.11715
v -8.32326 0.83000 -0.11715
v -8.14008 0.83000 -0.26323
v -7.91166 0.83000 -0.21109
v -7.88908 0.90071 0.00000
v -7.96096 0.90071 0.14927
v -8.12248 0.90071 0.18613
v -8.25201 0.90071 0.08284
v -8.25201 0.90071 -0.08284
v -8.12248 0.90071 -0.18613
v -7.96096 0.90071 -0.14927
v -8.08000 0.73000 0.00000
v -8.08000 0.93000 0.00000
v -7.27403 0.75929 -3.09208
v -7.34591 0.75929 -2.94282
v -7.50743 0.75929 -2.90595
v -7.63696 0.75929 -3.00925
v -7.63696 0.75929 -3.17492
v -7.50743 0.75929 -3.27821
v -7.34591 0.75929 -3.24135
v -7.19495 0.83000 -3.09208
v -7.29660 0.83000 -2.88099
v -7.52503 0.83000 -2.82885
v -7.70821 0.83000 -2.97493
v -7.70821 0.83000 -3.20923
v -7.52503 0.83000 -3.35531
v -7.29660 0.83000 -3.30318
v -7.27403 0.90071 -3.09208
v -7.34591 0.90071 -2.94282
v -7.50743 0.90071 -2.90595
v -7.63696 0.90071 -3.00925
v -7.63696 0.90071 -3.17492
v -7.50743 0.90071 -3.27821
v -7.34591 0.90071 -3.24135
v -7.46495 0.73000 -3.09208
v -7.46495 0.93000 -3.09208
v -5.52250 0.75929 -5.71342
v -5.59439 0.75929 -5.56416
v -5.75591 0.75929 -5.52729
v -5.88543 0.75929 -5.63059
v -5.88543 0.75929 -5.79626
v -5.75591 0.75929 -5.89955
v -5.59439 0.75929 -5.86269
v -5.44342 0.83000 -5.71342
v -5.54508 0.83000 -5.50233
v -5.77350 0.83000 -5.45019
v -5.95668 0.83000 -5.59627
v -5.95668 0.83000 -5.83057
v -5.77350 0.83000 -5.97665
v -5.54508 0.83000 -5.92452
v -5.52250 0.90071 -5.71342
v -5.59439 0.90071 -5.56416
v -5.75591 0.90071 -5.52729
v -5.88543 0.90071 -5.63059
v -5.88543 0.90071 -5.79626
v -5.75591 0.90071 -5.89955
v -5.59439 0.90071 -5.86269
v -5.71342 0.73000 -5.71342
v -5.71342 0.93000 -5.71342
v -2.90116 0.75929 -7.46495
v -2.97305 0.75929 -7.31568
v -3.13457 0.75929 -7.27881
v -3.26409 0.75929 -7.38211
v -3.26409 0.75929 -7.54778
v -3.13457 0.75929 -7.65108
v -2.97305 0.75929 -7.61421
v -2.82208 0.83000 -7.46495
v -2.92374 0.83000 -7.25385
v -3.15216 0.83000 -7.20172
v -3.33534 0.83000 -7.34780
v -3.33534 0.83000 -7.58210
v -3.15216 0.83000 -7.72818
v -2.92374 0.83000 -7.67604
v -2.90116 0.90071 -7.46495
v -2.97305 0.90071 -7.31568
v -3.13457 0.90071 -7.27881
v -3.26409 0.90071 -7.38211
v -3.26409 0.90071 -7.54778
v -3.13457 0.90071 -7.65108
v -2.97305 0.90071 -7.61421
v -3.09208 0.73000 -7.46495
v -3.09208 0.93000 -7.46495
v 0.19092 0.75929 -8.08000
v 0.11904 0.75929 -7.93073
v -0.04248 0.75929 -7.89387
v -0.17201 0.75929 -7.99716
v -0.17201 0.75929 -8.16284
v -0.04248 0.75929 -8.26613
v 0.11904 0.75929 -8.22927
v 0.27000 0.83000 -8.08000
v 0.16834 0.83000 -7.86891
v -0.06008 0.83000 -7.81677
v -0.24326 0.83000 -7.96285
v -0.24326 0.83000 -8.19715
v -0.06008 0.83000 -8.34323
v 0.16834 0.83000 -8.29109
v 0.19092 0.90071 -8.08000
v 0.11904 0.90071 -7.93073
v -0.04248 0.90071 -7.89387
v -0.17201 0.90071 -7.99716
v -0.17201 0.90071 -8.16284
v -0.04248 0.90071 -8.26613
v 0.11904 0.90071 -8.22927
v -0.00000 0.73000 -8.08000
v -0.00000 0.93000 -8.08000
v 3.28300 0.75929 -7.46495
v 3.21112 0.75929 -7.31568
v 3.04960 0.75929 -7.27881
v 2.92007 0.75929 -7.38211
v 2.92007 0.75929 -7.54778
v 3.04960 0.75929 -7.65108
v 3.21112 0.75929 -7.61421
v 3.36208 0.83000 -7.46495
v 3.26042 0.83000 -7.25385
v 3.03200 0.83000 -7.20172
v 2.84882 0.83000 -7.34780
v 2.84882 0.83000 -7.58210
v 3.03200 0.83000 -7.72818
v 3.26042 0.83000 -7.67604
v 3.28300 0.90071 -7.46495
v 3.21112 0.90071 -7.31568
v 3.04960 0.90071 -7.27881
v 2.92007 0.90071 -7.38211
v 2.92007 0.90071 -7.54778
v 3.04960 0.90071 -7.65108
v 3.21112 0.90071 -7.61421
v 3.09208 0.73000 -7.46495
v 3.09208 0.93000 -7.46495
v 5.90434 0.75929 -5.71342
v 5.83246 0.75929 -5.56416
v 5.67094 0.75929 -5.52729
v 5.54141 0.75929 -5.63059
v 5.54141 0.75929 -5.79626
v 5.67094 0.75929 -5.89955
v 5.83246 0.75929 -5.86269
v 5.98342 0.83000 -5.71342
v 5.88177 0.83000 -5.50233
v 5.65334 0.83000 -5.45019
v 5.47016 0.83000 -5.59627
v 5.47016 0.83000 -5.83057
v 5.65334 0.83000 -5.97665
v 5.88177 0.83000 -5.92452
v 5.90434 0.90071 -5.71342
v 5.83246 0.90071 -5.56416
v 5.67094 0.90071 -5.52729
v 5.54141 0.90071 -5.63059
v 5.54141 0.90071 -5.79626
v 5.67094 0.90071 -5.89955
v 5.83246 0.90071 -5.86269
v 5.71342 0.73000 -5.71342
v 5.71342 0.93000 -5.71342
v 7.65587 0.75929 -3.09208
v 7.58398 0.75929 -2.94282
v 7.42246 0.75929 -2.90595
v 7.29293 0.75929 -3.00925
v 7.29293 0.75929 -3.17492
v 7.42246 0.75929 -3.27821
v 7.58398 0.75929 -3.24135
v 7.73495 0.83000 -3.09208
v 7.63329 0.83000 -2.88099
v 7.40487 0.83000 -2.82885
v 7.22169 0.83000 -2.97493
v 7.22169 0.83000 -3.20923
v 7.40487 0.83000 -3.35531
v 7.63329 0.83000 -3.30318
v 7.65587 0.90071 -3.09208
v 7.58398 0.90071 -2.94282
v 7.42246 0.90071 -2.90595
v 7.29293 0.90071 -3.00925
v 7.29293 0.90071 -3.17492
v 7.42246 0.90071 -3.27821
v 7.58398 0.90071 -3.24135
v 7.46495 0.73000 -3.09208
v 7.46495 0.93000 -3.09208
vt 0.05000 0.50000
vt 0.15000 0.50000
vt 0.25000 0.50000
vt 0.35000 0.50000
vt 0.45000 0.50000
vt 0.55000 0.50000
vt 0.65000 0.50000
vt 0.75000 0.50000
vt 0.85000 0.50000
vt 0.95000 0.50000
usemtl wood
f 65/5 66/5 2/5 1/5
f 66/5 67/5 3/5 2/5
f 67/5 68/5 4/5 3/5
f 68/5 69/5 5/5 4/5
f 69/5 70/5 6/5 5/5
f 70/5 71/5 7/5 6/5
f 71/5 72/5 8/5 7/5
f 72/5 73/5 9/5 8/5
f 73/5 74/5 10/5 9/5
f 74/5 75/5 11/5 10/5
f 75/5 76/5 12/5 11/5
f 76/5 77/5 13/5 12/5
f 77/5 78/5 14/5 13/5
f 78/5 79/5 15/5 14/5
f 79/5 80/5 16/5 15/5
f 80/5 81/5 17/5 16/5
f 81/5 82/5 18/5 17/5
f 82/5 83/5 19/5 18/5
f 83/5 84/5 20/5 19/5
f 84/5 85/5 21/5 20/5
f 85/5 86/5 22/5 21/5
f 86/5 87/5 23/5 22/5
f 87/5 88/5 24/5 23/5
f 88/5 89/5 25/5 24/5
f 89/5 90/5 26/5 25/5
f 90/5 91/5 27/5 26/5
f 91/5 92/5 28/5 27/5
f 92/5 93/5 29/5 28/5
f 93/5 94/5 30/5 29/5
f 94/5 95/5 31/5 30/5
f 95/5 96/5 32/5 31/5
f 96/5 97/5 33/5 32/5
f 97/5 98/5 34/5 33/5
f 98/5 99/5 35/5 34/5
f 99/5 100/5 36/5 35/5
f 100/5 101/5 37/5 36/5
f 101/5 102/5 38/5 37/5
f 102/5 103/5 39/5 38/5
f 103/5 104/5 40/5 39/5
f 104/5 105/5 41/5 40/5
f 105/5 106/5 42/5 41/5
f 106/5 107/5 43/5 42/5
f 107/5 108/5 44/5 43/5
f 108/5 109/5 45/5 44/5
f 109/5 110/5 46/5 45/5
f 110/5 111/5 47/5 46/5
f 111/5 112/5 48/5 47/5
f 112/5 113/5 49/5 48/5
f 113/5 114/5 50/5 49/5
f 114/5 115/5 51/5 50/5
f 115/5 116/5 52/5 51/5
f 116/5 117/5 53/5 52/5
f 117/5 118/5 54/5 53/5
f 118/5 119/5 55/5 54/5
f 119/5 120/5 56/5 55/5
f 120/5 121/5 57/5 56/5
f 121/5 122/5 58/5 57/5
f 122/5 123/5 59/5 58/5
f 123/5 124/5 60/5 59/5
f 124/5 125/5 61/5 60/5
f 125/5 126/5 62/5 61/5
f 126/5 127/5 63/5 62/5
f 127/5 128/5 64/5 63/5
f 128/5 65/5 1/5 64/5
usemtl gold
f 129/4 130/4 66/4 65/4
f 130/4 131/4 67/4 66/4
f 131/4 132/4 68/4 67/4
f 132/4 133/4 69/4 68/4
f 133/4 134/4 70/4 69/4
f 134/4 135/4 71/4 70/4
f 135/4 136/4 72/4 71/4
f 136/4 137/4 73/4 72/4
f 137/4 138/4 74/4 73/4
f 138/4 139/4 75/4 74/4
f 139/4 140/4 76/4 75/4
f 140/4 141/4 77/4 76/4
f 141/4 142/4 78/4 77/4
f 142/4 143/4 79/4 78/4
f 143/4 144/4 80/4 79/4
f 144/4 145/4 81/4 80/4
f 145/4 146/4 82/4 81/4
f 146/4 147/4 83/4 82/4
f 147/4 148/4 84/4 83/4
f 148/4 149/4 85/4 84/4
f 149/4 150/4 86/4 85/4
f 150/4 151/4 87/4 86/4
f 151/4 152/4 88/4 87/4
f 152/4 153/4 89/4 88/4
f 153/4 154/4 90/4 89/4
f 154/4 155/4 91/4 90/4
f 155/4 156/4 92/4 91/4
f 156/4 157/4 93/4 92/4
f 157/4 158/4 94/4 93/4
f 158/4 159/4 95/4 94/4
f 159/4 160/4 96/4 95/4
f 160/4 161/4 97/4 96/4
f 161/4 162/4 98/4 97/4
f 162/4 163/4 99/4 98/4
f 163/4 164/4 100/4 99/4
f 164/4 165/4 101/4 100/4
f 165/4 166/4 102/4 101/4
f 166/4 167/4 103/4 102/4
f 167/4 168/4 104/4 103/4
f 168/4 169/4 105/4 104/4
f 169/4 170/4 106/4 105/4
f 170/4 171/4 107/4 106/4
f 171/4 172/4 108/4 107/4
f 172/4 173/4 109/4 108/4
f 173/4 174/4 110/4 109/4
f 174/4 175/4 111/4 110/4
f 175/4 176/4 112/4 111/4
f 176/4 177/4 113/4 112/4
f 177/4 178/4 114/4 113/4
f 178/4 179/4 115/4 114/4
f 179/4 180/4 116/4 115/4
f 180/4 181/4 117/4 116/4
f 181/4 182/4 118/4 117/4
f 182/4 183/4 119/4 118/4
f 183/4 184/4 120/4 119/4
f 184/4 185/4 121/4 120/4
f 185/4 186/4 122/4 121/4
f 186/4 187/4 123/4 122/4
f 187/4 188/4 124/4 123/4
f 188/4 189/4 125/4 124/4
f 189/4 190/4 126/4 125/4
f 190/4 191/4 127/4 126/4
f 191/4 192/4 128/4 127/4
f 192/4 129/4 65/4 128/4
f 449/4 450/4 458/4 457/4
f 450/4 451/4 459/4 458/4
f 451/4 452/4 460/4 459/4
f 452/4 453/4 461/4 460/4
f 453/4 454/4 462/4 461/4
f 454/4 455/4 463/4 462/4
f 455/4 456/4 464/4 463/4
f 456/4 449/4 457/4 464/4
f 457/4 458/4 466/4 465/4
f 458/4 459/4 467/4 466/4
f 459/4 460/4 468/4 467/4
f 460/4 461/4 469/4 468/4
f 461/4 462/4 470/4 469/4
f 462/4 463/4 471/4 470/4
f 463/4 464/4 472/4 471/4
f 464/4 457/4 465/4 472/4
f 465/4 466/4 474/4 473/4
f 466/4 467/4 475/4 474/4
f 467/4 468/4 476/4 475/4
f 468/4 469/4 477/4 476/4
f 469/4 470/4 478/4 477/4
f 470/4 471/4 479/4 478/4
f 471/4 472/4 480/4 479/4
f 472/4 465/4 473/4 480/4
f 473/4 474/4 482/4 481/4
f 474/4 475/4 483/4 482/4
f 475/4 476/4 484/4 483/4
f 476/4 477/4 485/4 484/4
f 477/4 478/4 486/4 485/4
f 478/4 479/4 487/4 486/4
f 479/4 480/4 488/4 487/4
f 480/4 473/4 481/4 488/4
f 481/4 482/4 490/4 489/4
f 482/4 483/4 491/4 490/4
f 483/4 484/4 492/4 491/4
f 484/4 485/4 493/4 492/4
f 485/4 486/4 494/4 493/4
f 486/4 487/4 495/4 494/4
f 487/4 488/4 496/4 495/4
f 488/4 481/4 489/4 496/4
f 489/4 490/4 498/4 497/4
f 490/4 491/4 499/4 498/4
f 491/4 492/4 500/4 499/4
f 492/4 493/4 501/4 500/4
f 493/4 494/4 502/4 501/4
f 494/4 495/4 503/4 502/4
f 495/4 496/4 504/4 503/4
f 496/4 489/4 497/4 504/4
f 497/4 498/4 506/4 505/4
f 498/4 499/4 507/4 506/4
f 499/4 500/4 508/4 507/4
f 500/4 501/4 509/4 508/4
f 501/4 502/4 510/4 509/4
f 502/4 503/4 511/4 510/4
f 503/4 504/4 512/4 511/4
f 504/4 497/4 505/4 512/4
f 505/4 506/4 514/4 513/4
f 506/4 507/4 515/4 514/4
f 507/4 508/4 516/4 515/4
f 508/4 509/4 517/4 516/4
f 509/4 510/4 518/4 517/4
f 510/4 511/4 519/4 518/4
f 511/4 512/4 520/4 519/4
f 512/4 505/4 513/4 520/4
f 513/4 514/4 522/4 521/4
f 514/4 515/4 523/4 522/4
f 515/4 516/4 524/4 523/4
f 516/4 517/4 525/4 524/4
f 517/4 518/4 526/4 525/4
f 518/4 519/4 527/4 526/4
f 519/4 520/4 528/4 527/4
f 520/4 513/4 521/4 528/4
f 521/4 522/4 530/4 529/4
f 522/4 523/4 531/4 530/4
f 523/4 524/4 532/4 531/4
f 524/4 525/4 533/4 532/4
f 525/4 526/4 534/4 533/4
f 526/4 527/4 535/4 534/4
f 527/4 528/4 536/4 535/4
f 528/4 521/4 529/4 536/4
f 529/4 530/4 538/4 537/4
f 530/4 531/4 539/4 538/4
f 531/4 532/4 540/4 539/4
f 532/4 533/4 541/4 540/4
f 533/4 534/4 542/4 541/4
f 534/4 535/4 543/4 542/4
f 535/4 536/4 544/4 543/4
f 536/4 529/4 537/4 544/4
f 537/4 538/4 546/4 545/4
f 538/4 539/4 547/4 546/4
f 539/4 540/4 548/4 547/4
f 540/4 541/4 549/4 548/4
f 541/4 542/4 550/4 549/4
f 542/4 543/4 551/4 550/4
f 543/4 544/4 552/4 551/4
f 544/4 537/4 545/4 552/4
f 545/4 546/4 554/4 553/4
f 546/4 547/4 555/4 554/4
f 547/4 548/4 556/4 555/4
f 548/4 549/4 557/4 556/4
f 549/4 550/4 558/4 557/4
f 550/4 551/4 559/4 558/4
f 551/4 552/4 560/4 559/4
f 552/4 545/4 553/4 560/4
f 553/4 554/4 562/4 561/4
f 554/4 555/4 563/4 562/4
f 555/4 556/4 564/4 563/4
f 556/4 557/4 565/4 564/4
f 557/4 558/4 566/4 565/4
f 558/4 559/4 567/4 566/4
f 559/4 560/4 568/4 567/4
f 560/4 553/4 561/4 568/4
f 561/4 562/4 570/4 569/4
f 562/4 563/4 571/4 570/4
f 563/4 564/4 572/4 571/4
f 564/4 565/4 573/4 572/4
f 565/4 566/4 574/4 573/4
f 566/4 567/4 575/4 574/4
f 567/4 568/4 576/4 575/4
f 568/4 561/4 569/4 576/4
f 569/4 570/4 578/4 577/4
f 570/4 571/4 579/4 578/4
f 571/4 572/4 580/4 579/4
f 572/4 573/4 581/4 580/4
f 573/4 574/4 582/4 581/4
f 574/4 575/4 583/4 582/4
f 575/4 576/4 584/4 583/4
f 576/4 569/4 577/4 584/4
f 577/4 578/4 586/4 585/4
f 578/4 579/4 587/4 586/4
f 579/4 580/4 588/4 587/4
f 580/4 581/4 589/4 588/4
f 581/4 582/4 590/4 589/4
f 582/4 583/4 591/4 590/4
f 583/4 584/4 592/4 591/4
f 584/4 577/4 585/4 592/4
f 585/4 586/4 594/4 593/4
f 586/4 587/4 595/4 594/4
f 587/4 588/4 596/4 595/4
f 588/4 589/4 597/4 596/4
f 589/4 590/4 598/4 597/4
f 590/4 591/4 599/4 598/4
f 591/4 592/4 600/4 599/4
f 592/4 585/4 593/4 600/4
f 593/4 594/4 602/4 601/4
f 594/4 595/4 603/4 602/4
f 595/4 596/4 604/4 603/4
f 596/4 597/4 605/4 604/4
f 597/4 598/4 606/4 605/4
f 598/4 599/4 607/4 606/4
f 599/4 600/4 608/4 607/4
f 600/4 593/4 601/4 608/4
f 601/4 602/4 610/4 609/4
f 602/4 603/4 611/4 610/4
f 603/4 604/4 612/4 611/4
f 604/4 605/4 613/4 612/4
f 605/4 606/4 614/4 613/4
f 606/4 607/4 615/4 614/4
f 607/4 608/4 616/4 615/4
f 608/4 601/4 609/4 616/4
f 609/4 610/4 618/4 617/4
f 610/4 611/4 619/4 618/4
f 611/4 612/4 620/4 619/4
f 612/4 613/4 621/4 620/4
f 613/4 614/4 622/4 621/4
f 614/4 615/4 623/4 622/4
f 615/4 616/4 624/4 623/4
f 616/4 609/4 617/4 624/4
f 617/4 618/4 626/4 625/4
f 618/4 619/4 627/4 626/4
f 619/4 620/4 628/4 627/4
f 620/4 621/4 629/4 628/4
f 621/4 622/4 630/4 629/4
f 622/4 623/4 631/4 630/4
f 623/4 624/4 632/4 631/4
f 624/4 617/4 625/4 632/4
f 625/4 626/4 634/4 633/4
f 626/4 627/4 635/4 634/4
f 627/4 628/4 636/4 635/4
f 628/4 629/4 637/4 636/4
f 629/4 630/4 638/4 637/4
f 630/4 631/4 639/4 638/4
f 631/4 632/4 640/4 639/4
f 632/4 625/4 633/4 640/4
f 633/4 634/4 642/4 641/4
f 634/4 635/4 643/4 642/4
f 635/4 636/4 644/4 643/4
f 636/4 637/4 645/4 644/4
f 637/4 638/4 646/4 645/4
f 638/4 639/4 647/4 646/4
f 639/4 640/4 648/4 647/4
f 640/4 633/4 641/4 648/4
f 641/4 642/4 650/4 649/4
f 642/4 643/4 651/4 650/4
f 643/4 644/4 652/4 651/4
f 644/4 645/4 653/4 652/4
f 645/4 646/4 654/4 653/4
f 646/4 647/4 655/4 654/4
f 647/4 648/4 656/4 655/4
f 648/4 641/4 649/4 656/4
f 649/4 650/4 658/4 657/4
f 650/4 651/4 659/4 658/4
f 651/4 652/4 660/4 659/4
f 652/4 653/4 661/4 660/4
f 653/4 654/4 662/4 661/4
f 654/4 655/4 663/4 662/4
f 655/4 656/4 664/4 663/4
f 656/4 649/4 657/4 664/4
f 657/4 658/4 666/4 665/4
f 658/4 659/4 667/4 666/4
f 659/4 660/4 668/4 667/4
f 660/4 661/4 669/4 668/4
f 661/4 662/4 670/4 669/4
f 662/4 663/4 671/4 670/4
f 663/4 664/4 672/4 671/4
f 664/4 657/4 665/4 672/4
f 665/4 666/4 674/4 673/4
f 666/4 667/4 675/4 674/4
f 667/4 668/4 676/4 675/4
f 668/4 669/4 677/4 676/4
f 669/4 670/4 678/4 677/4
f 670/4 671/4 679/4 678/4
f 671/4 672/4 680/4 679/4
f 672/4 665/4 673/4 680/4
f 673/4 674/4 682/4 681/4
f 674/4 675/4 683/4 682/4
f 675/4 676/4 684/4 683/4
f 676/4 677/4 685/4 684/4
f 677/4 678/4 686/4 685/4
f 678/4 679/4 687/4 686/4
f 679/4 680/4 688/4 687/4
f 680/4 673/4 681/4 688/4
f 681/4 682/4 690/4 689/4
f 682/4 683/4 691/4 690/4
f 683/4 684/4 692/4 691/4
f 684/4 685/4 693/4 692/4
f 685/4 686/4 694/4 693/4
f 686/4 687/4 695/4 694/4
f 687/4 688/4 696/4 695/4
f 688/4 681/4 689/4 696/4
f 689/4 690/4 698/4 697/4
f 690/4 691/4 699/4 698/4
f 691/4 692/4 700/4 699/4
f 692/4 693/4 701/4 700/4
f 693/4 694/4 702/4 701/4
f 694/4 695/4 703/4 702/4
f 695/4 696/4 704/4 703/4
f 696/4 689/4 697/4 704/4
f 697/4 698/4 706/4 705/4
f 698/4 699/4 707/4 706/4
f 699/4 700/4 708/4 707/4
f 700/4 701/4 709/4 708/4
f 701/4 702/4 710/4 709/4
f 702/4 703/4 711/4 710/4
f 703/4 704/4 712/4 711/4
f 704/4 697/4 705/4 712/4
f 705/4 706/4 714/4 713/4
f 706/4 707/4 715/4 714/4
f 707/4 708/4 716/4 715/4
f 708/4 709/4 717/4 716/4
f 709/4 710/4 718/4 717/4
f 710/4 711/4 719/4 718/4
f 711/4 712/4 720/4 719/4
f 712/4 705/4 713/4 720/4
f 713/4 714/4 722/4 721/4
f 714/4 715/4 723/4 722/4
f 715/4 716/4 724/4 723/4
f 716/4 717/4 725/4 724/4
f 717/4 718/4 726/4 725/4
f 718/4 719/4 727/4 726/4
f 719/4 720/4 728/4 727/4
f 720/4 713/4 721/4 728/4
f 721/4 722/4 730/4 729/4
f 722/4 723/4 731/4 730/4
f 723/4 724/4 732/4 731/4
f 724/4 725/4 733/4 732/4
f 725/4 726/4 734/4 733/4
f 726/4 727/4 735/4 734/4
f 727/4 728/4 736/4 735/4
f 728/4 721/4 729/4 736/4
f 729/4 730/4 738/4 737/4
f 730/4 731/4 739/4 738/4
f 731/4 732/4 740/4 739/4
f 732/4 733/4 741/4 740/4
f 733/4 734/4 742/4 741/4
f 734/4 735/4 743/4 742/4
f 735/4 736/4 744/4 743/4
f 736/4 729/4 737/4 744/4
f 737/4 738/4 746/4 745/4
f 738/4 739/4 747/4 746/4
f 739/4 740/4 748/4 747/4
f 740/4 741/4 749/4 748/4
f 741/4 742/4 750/4 749/4
f 742/4 743/4 751/4 750/4
f 743/4 744/4 752/4 751/4
f 744/4 737/4 745/4 752/4
f 745/4 746/4 754/4 753/4
f 746/4 747/4 755/4 754/4
f 747/4 748/4 756/4 755/4
f 748/4 749/4 757/4 756/4
f 749/4 750/4 758/4 757/4
f 750/4 751/4 759/4 758/4
f 751/4 752/4 760/4 759/4
f 752/4 745/4 753/4 760/4
f 753/4 754/4 762/4 761/4
f 754/4 755/4 763/4 762/4
f 755/4 756/4 764/4 763/4
f 756/4 757/4 765/4 764/4
f 757/4 758/4 766/4 765/4
f 758/4 759/4 767/4 766/4
f 759/4 760/4 768/4 767/4
f 760/4 753/4 761/4 768/4
f 761/4 762/4 770/4 769/4
f 762/4 763/4 771/4 770/4
f 763/4 764/4 772/4 771/4
f 764/4 765/4 773/4 772/4
f 765/4 766/4 774/4 773/4
f 766/4 767/4 775/4 774/4
f 767/4 768/4 776/4 775/4
f 768/4 761/4 769/4 776/4
f 769/4 770/4 778/4 777/4
f 770/4 771/4 779/4 778/4
f 771/4 772/4 780/4 779/4
f 772/4 773/4 781/4 780/4
f 773/4 774/4 782/4 781/4
f 774/4 775/4 783/4 782/4
f 775/4 776/4 784/4 783/4
f 776/4 769/4 777/4 784/4
f 777/4 778/4 786/4 785/4
f 778/4 779/4 787/4 786/4
f 779/4 780/4 788/4 787/4
f 780/4 781/4 789/4 788/4
f 781/4 782/4 790/4 789/4
f 782/4 783/4 791/4 790/4
f 783/4 784/4 792/4 791/4
f 784/4 777/4 785/4 792/4
f 785/4 786/4 794/4 793/4
f 786/4 787/4 795/4 794/4
f 787/4 788/4 796/4 795/4
f 788/4 789/4 797/4 796/4
f 789/4 790/4 798/4 797/4
f 790/4 791/4 799/4 798/4
f 791/4 792/4 800/4 799/4
f 792/4 785/4 793/4 800/4
f 793/4 794/4 802/4 801/4
f 794/4 795/4 803/4 802/4
f 795/4 796/4 804/4 803/4
f 796/4 797/4 805/4 804/4
f 797/4 798/4 806/4 805/4
f 798/4 799/4 807/4 806/4
f 799/4 800/4 808/4 807/4
f 800/4 793/4 801/4 808/4
f 801/4 802/4 810/4 809/4
f 802/4 803/4 811/4 810/4
f 803/4 804/4 812/4 811/4
f 804/4 805/4 813/4 812/4
f 805/4 806/4 814/4 813/4
f 806/4 807/4 815/4 814/4
f 807/4 808/4 816/4 815/4
f 808/4 801/4 809/4 816/4
f 809/4 810/4 818/4 817/4
f 810/4 811/4 819/4 818/4
f 811/4 812/4 820/4 819/4
f 812/4 813/4 821/4 820/4
f 813/4 814/4 822/4 821/4
f 814/4 815/4 823/4 822/4
f 815/4 816/4 824/4 823/4
f 816/4 809/4 817/4 824/4
f 817/4 818/4 826/4 825/4
f 818/4 819/4 827/4 826/4
f 819/4 820/4 828/4 827/4
f 820/4 821/4 829/4 828/4
f 821/4 822/4 830/4 829/4
f 822/4 823/4 831/4 830/4
f 823/4 824/4 832/4 831/4
f 824/4 817/4 825/4 832/4
f 825/4 826/4 834/4 833/4
f 826/4 827/4 835/4 834/4
f 827/4 828/4 836/4 835/4
f 828/4 829/4 837/4 836/4
f 829/4 830/4 838/4 837/4
f 830/4 831/4 839/4 838/4
f 831/4 832/4 840/4 839/4
f 832/4 825/4 833/4 840/4
f 833/4 834/4 842/4 841/4
f 834/4 835/4 843/4 842/4
f 835/4 836/4 844/4 843/4
f 836/4 837/4 845/4 844/4
f 837/4 838/4 846/4 845/4
f 838/4 839/4 847/4 846/4
f 839/4 840/4 848/4 847/4
f 840/4 833/4 841/4 848/4
f 841/4 842/4 850/4 849/4
f 842/4 843/4 851/4 850/4
f 843/4 844/4 852/4 851/4
f 844/4 845/4 853/4 852/4
f 845/4 846/4 854/4 853/4
f 846/4 847/4 855/4 854/4
f 847/4 848/4 856/4 855/4
f 848/4 841/4 849/4 856/4
f 849/4 850/4 858/4 857/4
f 850/4 851/4 859/4 858/4
f 851/4 852/4 860/4 859/4
f 852/4 853/4 861/4 860/4
f 853/4 854/4 862/4 861/4
f 854/4 855/4 863/4 862/4
f 855/4 856/4 864/4 863/4
f 856/4 849/4 857/4 864/4
f 857/4 858/4 866/4 865/4
f 858/4 859/4 867/4 866/4
f 859/4 860/4 868/4 867/4
f 860/4 861/4 869/4 868/4
f 861/4 862/4 870/4 869/4
f 862/4 863/4 871/4 870/4
f 863/4 864/4 872/4 871/4
f 864/4 857/4 865/4 872/4
f 865/4 866/4 874/4 873/4
f 866/4 867/4 875/4 874/4
f 867/4 868/4 876/4 875/4
f 868/4 869/4 877/4 876/4
f 869/4 870/4 878/4 877/4
f 870/4 871/4 879/4 878/4
f 871/4 872/4 880/4 879/4
f 872/4 865/4 873/4 880/4
f 873/4 874/4 882/4 881/4
f 874/4 875/4 883/4 882/4
f 875/4 876/4 884/4 883/4
f 876/4 877/4 885/4 884/4
f 877/4 878/4 886/4 885/4
f 878/4 879/4 887/4 886/4
f 879/4 880/4 888/4 887/4
f 880/4 873/4 881/4 888/4
f 881/4 882/4 890/4 889/4
f 882/4 883/4 891/4 890/4
f 883/4 884/4 892/4 891/4
f 884/4 885/4 893/4 892/4
f 885/4 886/4 894/4 893/4
f 886/4 887/4 895/4 894/4
f 887/4 888/4 896/4 895/4
f 888/4 881/4 889/4 896/4
f 889/4 890/4 898/4 897/4
f 890/4 891/4 899/4 898/4
f 891/4 892/4 900/4 899/4
f 892/4 893/4 901/4 900/4
f 893/4 894/4 902/4 901/4
f 894/4 895/4 903/4 902/4
f 895/4 896/4 904/4 903/4
f 896/4 889/4 897/4 904/4
f 897/4 898/4 906/4 905/4
f 898/4 899/4 907/4 906/4
f 899/4 900/4 908/4 907/4
f 900/4 901/4 909/4 908/4
f 901/4 902/4 910/4 909/4
f 902/4 903/4 911/4 910/4
f 903/4 904/4 912/4 911/4
f 904/4 897/4 905/4 912/4
f 905/4 906/4 914/4 913/4
f 906/4 907/4 915/4 914/4
f 907/4 908/4 916/4 915/4
f 908/4 909/4 917/4 916/4
f 909/4 910/4 918/4 917/4
f 910/4 911/4 919/4 918/4
f 911/4 912/4 920/4 919/4
f 912/4 905/4 913/4 920/4
f 913/4 914/4 922/4 921/4
f 914/4 915/4 923/4 922/4
f 915/4 916/4 924/4 923/4
f 916/4 917/4 925/4 924/4
f 917/4 918/4 926/4 925/4
f 918/4 919/4 927/4 926/4
f 919/4 920/4 928/4 927/4
f 920/4 913/4 921/4 928/4
f 921/4 922/4 930/4 929/4
f 922/4 923/4 931/4 930/4
f 923/4 924/4 932/4 931/4
f 924/4 925/4 933/4 932/4
f 925/4 926/4 934/4 933/4
f 926/4 927/4 935/4 934/4
f 927/4 928/4 936/4 935/4
f 928/4 921/4 929/4 936/4
f 929/4 930/4 938/4 937/4
f 930/4 931/4 939/4 938/4
f 931/4 932/4 940/4 939/4
f 932/4 933/4 941/4 940/4
f 933/4 934/4 942/4 941/4
f 934/4 935/4 943/4 942/4
f 935/4 936/4 944/4 943/4
f 936/4 929/4 937/4 944/4
f 937/4 938/4 946/4 945/4
f 938/4 939/4 947/4 946/4
f 939/4 940/4 948/4 947/4
f 940/4 941/4 949/4 948/4
f 941/4 942/4 950/4 949/4
f 942/4 943/4 951/4 950/4
f 943/4 944/4 952/4 951/4
f 944/4 937/4 945/4 952/4
f 945/4 946/4 954/4 953/4
f 946/4 947/4 955/4 954/4
f 947/4 948/4 956/4 955/4
f 948/4 949/4 957/4 956/4
f 949/4 950/4 958/4 957/4
f 950/4 951/4 959/4 958/4
f 951/4 952/4 960/4 959/4
f 952/4 945/4 953/4 960/4
f 953/4 954/4 450/4 449/4
f 954/4 955/4 451/4 450/4
f 955/4 956/4 452/4 451/4
f 956/4 957/4 453/4 452/4
f 957/4 958/4 454/4 453/4
f 958/4 959/4 455/4 454/4
f 959/4 960/4 456/4 455/4
f 960/4 953/4 449/4 456/4
usemtl coral
f 193/2 194/2 130/2 129/2
f 194/2 195/2 131/2 130/2
f 195/2 196/2 132/2 131/2
f 196/2 197/2 133/2 132/2
f 197/2 198/2 134/2 133/2
f 198/2 199/2 135/2 134/2
f 199/2 200/2 136/2 135/2
f 200/2 201/2 137/2 136/2
f 201/2 202/2 138/2 137/2
f 202/2 203/2 139/2 138/2
f 203/2 204/2 140/2 139/2
f 204/2 205/2 141/2 140/2
f 205/2 206/2 142/2 141/2
f 206/2 207/2 143/2 142/2
f 207/2 208/2 144/2 143/2
f 208/2 209/2 145/2 144/2
f 209/2 210/2 146/2 145/2
f 210/2 211/2 147/2 146/2
f 211/2 212/2 148/2 147/2
f 212/2 213/2 149/2 148/2
f 213/2 214/2 150/2 149/2
f 214/2 215/2 151/2 150/2
f 215/2 216/2 152/2 151/2
f 216/2 217/2 153/2 152/2
f 217/2 218/2 154/2 153/2
f 218/2 219/2 155/2 154/2
f 219/2 220/2 156/2 155/2
f 220/2 221/2 157/2 156/2
f 221/2 222/2 158/2 157/2
f 222/2 223/2 159/2 158/2
f 223/2 224/2 160/2 159/2
f 224/2 225/2 161/2 160/2
f 225/2 226/2 162/2 161/2
f 226/2 227/2 163/2 162/2
f 227/2 228/2 164/2 163/2
f 228/2 229/2 165/2 164/2
f 229/2 230/2 166/2 165/2
f 230/2 231/2 167/2 166/2
f 231/2 232/2 168/2 167/2
f 232/2 233/2 169/2 168/2
f 233/2 234/2 170/2 169/2
f 234/2 235/2 171/2 170/2
f 235/2 236/2 172/2 171/2
f 236/2 237/2 173/2 172/2
f 237/2 238/2 174/2 173/2
f 238/2 239/2 175/2 174/2
f 239/2 240/2 176/2 175/2
f 240/2 241/2 177/2 176/2
f 241/2 242/2 178/2 177/2
f 242/2 243/2 179/2 178/2
f 243/2 244/2 180/2 179/2
f 244/2 245/2 181/2 180/2
f 245/2 246/2 182/2 181/2
f 246/2 247/2 183/2 182/2
f 247/2 248/2 184/2 183/2
f 248/2 249/2 185/2 184/2
f 249/2 250/2 186/2 185/2
f 250/2 251/2 187/2 186/2
f 251/2 252/2 188/2 187/2
f 252/2 253/2 189/2 188/2
f 253/2 254/2 190/2 189/2
f 254/2 255/2 191/2 190/2
f 255/2 256/2 192/2 191/2
f 256/2 193/2 129/2 192/2
f 961/2 962/2 968/2 967/2
f 962/2 963/2 969/2 968/2
f 963/2 964/2 970/2 969/2
f 964/2 965/2 971/2 970/2
f 965/2 966/2 972/2 971/2
f 966/2 961/2 967/2 972/2
f 967/2 968/2 974/2 973/2
f 968/2 969/2 975/2 974/2
f 969/2 970/2 976/2 975/2
f 970/2 971/2 977/2 976/2
f 971/2 972/2 978/2 977/2
f 972/2 967/2 973/2 978/2
f 973/2 974/2 980/2 979/2
f 974/2 975/2 981/2 980/2
f 975/2 976/2 982/2 981/2
f 976/2 977/2 983/2 982/2
f 977/2 978/2 984/2 983/2
f 978/2 973/2 979/2 984/2
f 979/2 980/2 986/2 985/2
f 980/2 981/2 987/2 986/2
f 981/2 982/2 988/2 987/2
f 982/2 983/2 989/2 988/2
f 983/2 984/2 990/2 989/2
f 984/2 979/2 985/2 990/2
f 985/2 986/2 992/2 991/2
f 986/2 987/2 993/2 992/2
f 987/2 988/2 994/2 993/2
f 988/2 989/2 995/2 994/2
f 989/2 990/2 996/2 995/2
f 990/2 985/2 991/2 996/2
f 991/2 992/2 998/2 997/2
f 992/2 993/2 999/2 998/2
f 993/2 994/2 1000/2 999/2
f 994/2 995/2 1001/2 1000/2
f 995/2 996/2 1002/2 1001/2
f 996/2 991/2 997/2 1002/2
f 997/2 998/2 1004/2 1003/2
f 998/2 999/2 1005/2 1004/2
f 999/2 1000/2 1006/2 1005/2
f 1000/2 1001/2 1007/2 1006/2
f 1001/2 1002/2 1008/2 1007/2
f 1002/2 997/2 1003/2 1008/2
f 1003/2 1004/2 1010/2 1009/2
f 1004/2 1005/2 1011/2 1010/2
f 1005/2 1006/2 1012/2 1011/2
f 1006/2 1007/2 1013/2 1012/2
f 1007/2 1008/2 1014/2 1013/2
f 1008/2 1003/2 1009/2 1014/2
f 1009/2 1010/2 1016/2 1015/2
f 1010/2 1011/2 1017/2 1016/2
f 1011/2 1012/2 1018/2 1017/2
f 1012/2 1013/2 1019/2 1018/2
f 1013/2 1014/2 1020/2 1019/2
f 1014/2 1009/2 1015/2 1020/2
f 1015/2 1016/2 1022/2 1021/2
f 1016/2 1017/2 1023/2 1022/2
f 1017/2 1018/2 1024/2 1023/2
f 1018/2 1019/2 1025/2 1024/2
f 1019/2 1020/2 1026/2 1025/2
f 1020/2 1015/2 1021/2 1026/2
f 1021/2 1022/2 1028/2 1027/2
f 1022/2 1023/2 1029/2 1028/2
f 1023/2 1024/2 1030/2 1029/2
f 1024/2 1025/2 1031/2 1030/2
f 1025/2 1026/2 1032/2 1031/2
f 1026/2 1021/2 1027/2 1032/2
f 1027/2 1028/2 1034/2 1033/2
f 1028/2 1029/2 1035/2 1034/2
f 1029/2 1030/2 1036/2 1035/2
f 1030/2 1031/2 1037/2 1036/2
f 1031/2 1032/2 1038/2 1037/2
f 1032/2 1027/2 1033/2 1038/2
f 1033/2 1034/2 1040/2 1039/2
f 1034/2 1035/2 1041/2 1040/2
f 1035/2 1036/2 1042/2 1041/2
f 1036/2 1037/2 1043/2 1042/2
f 1037/2 1038/2 1044/2 1043/2
f 1038/2 1033/2 1039/2 1044/2
f 1039/2 1040/2 1046/2 1045/2
f 1040/2 1041/2 1047/2 1046/2
f 1041/2 1042/2 1048/2 1047/2
f 1042/2 1043/2 1049/2 1048/2
f 1043/2 1044/2 1050/2 1049/2
f 1044/2 1039/2 1045/2 1050/2
f 1045/2 1046/2 1052/2 1051/2
f 1046/2 1047/2 1053/2 1052/2
f 1047/2 1048/2 1054/2 1053/2
f 1048/2 1049/2 1055/2 1054/2
f 1049/2 1050/2 1056/2 1055/2
f 1050/2 1045/2 1051/2 1056/2
f 1051/2 1052/2 1058/2 1057/2
f 1052/2 1053/2 1059/2 1058/2
f 1053/2 1054/2 1060/2 1059/2
f 1054/2 1055/2 1061/2 1060/2
f 1055/2 1056/2 1062/2 1061/2
f 1056/2 1051/2 1057/2 1062/2
f 1057/2 1058/2 1064/2 1063/2
f 1058/2 1059/2 1065/2 1064/2
f 1059/2 1060/2 1066/2 1065/2
f 1060/2 1061/2 1067/2 1066/2
f 1061/2 1062/2 1068/2 1067/2
f 1062/2 1057/2 1063/2 1068/2
f 1063/2 1064/2 1070/2 1069/2
f 1064/2 1065/2 1071/2 1070/2
f 1065/2 1066/2 1072/2 1071/2
f 1066/2 1067/2 1073/2 1072/2
f 1067/2 1068/2 1074/2 1073/2
f 1068/2 1063/2 1069/2 1074/2
f 1069/2 1070/2 1076/2 1075/2
f 1070/2 1071/2 1077/2 1076/2
f 1071/2 1072/2 1078/2 1077/2
f 1072/2 1073/2 1079/2 1078/2
f 1073/2 1074/2 1080/2 1079/2
f 1074/2 1069/2 1075/2 1080/2
f 1075/2 1076/2 1082/2 1081/2
f 1076/2 1077/2 1083/2 1082/2
f 1077/2 1078/2 1084/2 1083/2
f 1078/2 1079/2 1085/2 1084/2
f 1079/2 1080/2 1086/2 1085/2
f 1080/2 1075/2 1081/2 1086/2
f 1081/2 1082/2 1088/2 1087/2
f 1082/2 1083/2 1089/2 1088/2
f 1083/2 1084/2 1090/2 1089/2
f 1084/2 1085/2 1091/2 1090/2
f 1085/2 1086/2 1092/2 1091/2
f 1086/2 1081/2 1087/2 1092/2
f 1087/2 1088/2 1094/2 1093/2
f 1088/2 1089/2 1095/2 1094/2
f 1089/2 1090/2 1096/2 1095/2
f 1090/2 1091/2 1097/2 1096/2
f 1091/2 1092/2 1098/2 1097/2
f 1092/2 1087/2 1093/2 1098/2
f 1093/2 1094/2 1100/2 1099/2
f 1094/2 1095/2 1101/2 1100/2
f 1095/2 1096/2 1102/2 1101/2
f 1096/2 1097/2 1103/2 1102/2
f 1097/2 1098/2 1104/2 1103/2
f 1098/2 1093/2 1099/2 1104/2
f 1099/2 1100/2 1106/2 1105/2
f 1100/2 1101/2 1107/2 1106/2
f 1101/2 1102/2 1108/2 1107/2
f 1102/2 1103/2 1109/2 1108/2
f 1103/2 1104/2 1110/2 1109/2
f 1104/2 1099/2 1105/2 1110/2
f 1105/2 1106/2 1112/2 1111/2
f 1106/2 1107/2 1113/2 1112/2
f 1107/2 1108/2 1114/2 1113/2
f 1108/2 1109/2 1115/2 1114/2
f 1109/2 1110/2 1116/2 1115/2
f 1110/2 1105/2 1111/2 1116/2
f 1111/2 1112/2 1118/2 1117/2
f 1112/2 1113/2 1119/2 1118/2
f 1113/2 1114/2 1120/2 1119/2
f 1114/2 1115/2 1121/2 1120/2
f 1115/2 1116/2 1122/2 1121/2
f 1116/2 1111/2 1117/2 1122/2
f 1117/2 1118/2 1124/2 1123/2
f 1118/2 1119/2 1125/2 1124/2
f 1119/2 1120/2 1126/2 1125/2
f 1120/2 1121/2 1127/2 1126/2
f 1121/2 1122/2 1128/2 1127/2
f 1122/2 1117/2 1123/2 1128/2
f 1123/2 1124/2 1130/2 1129/2
f 1124/2 1125/2 1131/2 1130/2
f 1125/2 1126/2 1132/2 1131/2
f 1126/2 1127/2 1133/2 1132/2
f 1127/2 1128/2 1134/2 1133/2
f 1128/2 1123/2 1129/2 1134/2
f 1129/2 1130/2 1136/2 1135/2
f 1130/2 1131/2 1137/2 1136/2
f 1131/2 1132/2 1138/2 1137/2
f 1132/2 1133/2 1139/2 1138/2
f 1133/2 1134/2 1140/2 1139/2
f 1134/2 1129/2 1135/2 1140/2
f 1135/2 1136/2 1142/2 1141/2
f 1136/2 1137/2 1143/2 1142/2
f 1137/2 1138/2 1144/2 1143/2
f 1138/2 1139/2 1145/2 1144/2
f 1139/2 1140/2 1146/2 1145/2
f 1140/2 1135/2 1141/2 1146/2
f 1141/2 1142/2 1148/2 1147/2
f 1142/2 1143/2 1149/2 1148/2
f 1143/2 1144/2 1150/2 1149/2
f 1144/2 1145/2 1151/2 1150/2
f 1145/2 1146/2 1152/2 1151/2
f 1146/2 1141/2 1147/2 1152/2
f 1147/2 1148/2 1154/2 1153/2
f 1148/2 1149/2 1155/2 1154/2
f 1149/2 1150/2 1156/2 1155/2
f 1150/2 1151/2 1157/2 1156/2
f 1151/2 1152/2 1158/2 1157/2
f 1152/2 1147/2 1153/2 1158/2
f 1153/2 1154/2 1160/2 1159/2
f 1154/2 1155/2 1161/2 1160/2
f 1155/2 1156/2 1162/2 1161/2
f 1156/2 1157/2 1163/2 1162/2
f 1157/2 1158/2 1164/2 1163/2
f 1158/2 1153/2 1159/2 1164/2
f 1159/2 1160/2 1166/2 1165/2
f 1160/2 1161/2 1167/2 1166/2
f 1161/2 1162/2 1168/2 1167/2
f 1162/2 1163/2 1169/2 1168/2
f 1163/2 1164/2 1170/2 1169/2
f 1164/2 1159/2 1165/2 1170/2
f 1165/2 1166/2 1172/2 1171/2
f 1166/2 1167/2 1173/2 1172/2
f 1167/2 1168/2 1174/2 1173/2
f 1168/2 1169/2 1175/2 1174/2
f 1169/2 1170/2 1176/2 1175/2
f 1170/2 1165/2 1171/2 1176/2
f 1171/2 1172/2 1178/2 1177/2
f 1172/2 1173/2 1179/2 1178/2
f 1173/2 1174/2 1180/2 1179/2
f 1174/2 1175/2 1181/2 1180/2
f 1175/2 1176/2 1182/2 1181/2
f 1176/2 1171/2 1177/2 1182/2
f 1177/2 1178/2 1184/2 1183/2
f 1178/2 1179/2 1185/2 1184/2
f 1179/2 1180/2 1186/2 1185/2
f 1180/2 1181/2 1187/2 1186/2
f 1181/2 1182/2 1188/2 1187/2
f 1182/2 1177/2 1183/2 1188/2
f 1183/2 1184/2 1190/2 1189/2
f 1184/2 1185/2 1191/2 1190/2
f 1185/2 1186/2 1192/2 1191/2
f 1186/2 1187/2 1193/2 1192/2
f 1187/2 1188/2 1194/2 1193/2
f 1188/2 1183/2 1189/2 1194/2
f 1189/2 1190/2 1196/2 1195/2
f 1190/2 1191/2 1197/2 1196/2
f 1191/2 1192/2 1198/2 1197/2
f 1192/2 1193/2 1199/2 1198/2
f 1193/2 1194/2 1200/2 1199/2
f 1194/2 1189/2 1195/2 1200/2
f 1195/2 1196/2 1202/2 1201/2
f 1196/2 1197/2 1203/2 1202/2
f 1197/2 1198/2 1204/2 1203/2
f 1198/2 1199/2 1205/2 1204/2
f 1199/2 1200/2 1206/2 1205/2
f 1200/2 1195/2 1201/2 1206/2
f 1201/2 1202/2 1208/2 1207/2
f 1202/2 1203/2 1209/2 1208/2
f 1203/2 1204/2 1210/2 1209/2
f 1204/2 1205/2 1211/2 1210/2
f 1205/2 1206/2 1212/2 1211/2
f 1206/2 1201/2 1207/2 1212/2
f 1207/2 1208/2 1214/2 1213/2
f 1208/2 1209/2 1215/2 1214/2
f 1209/2 1210/2 1216/2 1215/2
f 1210/2 1211/2 1217/2 1216/2
f 1211/2 1212/2 1218/2 1217/2
f 1212/2 1207/2 1213/2 1218/2
f 1213/2 1214/2 1220/2 1219/2
f 1214/2 1215/2 1221/2 1220/2
f 1215/2 1216/2 1222/2 1221/2
f 1216/2 1217/2 1223/2 1222/2
f 1217/2 1218/2 1224/2 1223/2
f 1218/2 1213/2 1219/2 1224/2
f 1219/2 1220/2 1226/2 1225/2
f 1220/2 1221/2 1227/2 1226/2
f 1221/2 1222/2 1228/2 1227/2
f 1222/2 1223/2 1229/2 1228/2
f 1223/2 1224/2 1230/2 1229/2
f 1224/2 1219/2 1225/2 1230/2
f 1225/2 1226/2 1232/2 1231/2
f 1226/2 1227/2 1233/2 1232/2
f 1227/2 1228/2 1234/2 1233/2
f 1228/2 1229/2 1235/2 1234/2
f 1229/2 1230/2 1236/2 1235/2
f 1230/2 1225/2 1231/2 1236/2
f 1231/2 1232/2 1238/2 1237/2
f 1232/2 1233/2 1239/2 1238/2
f 1233/2 1234/2 1240/2 1239/2
f 1234/2 1235/2 1241/2 1240/2
f 1235/2 1236/2 1242/2 1241/2
f 1236/2 1231/2 1237/2 1242/2
f 1237/2 1238/2 1244/2 1243/2
f 1238/2 1239/2 1245/2 1244/2
f 1239/2 1240/2 1246/2 1245/2
f 1240/2 1241/2 1247/2 1246/2
f 1241/2 1242/2 1248/2 1247/2
f 1242/2 1237/2 1243/2 1248/2
f 1243/2 1244/2 1250/2 1249/2
f 1244/2 1245/2 1251/2 1250/2
f 1245/2 1246/2 1252/2 1251/2
f 1246/2 1247/2 1253/2 1252/2
f 1247/2 1248/2 1254/2 1253/2
f 1248/2 1243/2 1249/2 1254/2
f 1249/2 1250/2 1256/2 1255/2
f 1250/2 1251/2 1257/2 1256/2
f 1251/2 1252/2 1258/2 1257/2
f 1252/2 1253/2 1259/2 1258/2
f 1253/2 1254/2 1260/2 1259/2
f 1254/2 1249/2 1255/2 1260/2
f 1255/2 1256/2 1262/2 1261/2
f 1256/2 1257/2 1263/2 1262/2
f 1257/2 1258/2 1264/2 1263/2
f 1258/2 1259/2 1265/2 1264/2
f 1259/2 1260/2 1266/2 1265/2
f 1260/2 1255/2 1261/2 1266/2
f 1261/2 1262/2 1268/2 1267/2
f 1262/2 1263/2 1269/2 1268/2
f 1263/2 1264/2 1270/2 1269/2
f 1264/2 1265/2 1271/2 1270/2
f 1265/2 1266/2 1272/2 1271/2
f 1266/2 1261/2 1267/2 1272/2
f 1267/2 1268/2 1274/2 1273/2
f 1268/2 1269/2 1275/2 1274/2
f 1269/2 1270/2 1276/2 1275/2
f 1270/2 1271/2 1277/2 1276/2
f 1271/2 1272/2 1278/2 1277/2
f 1272/2 1267/2 1273/2 1278/2
f 1273/2 1274/2 1280/2 1279/2
f 1274/2 1275/2 1281/2 1280/2
f 1275/2 1276/2 1282/2 1281/2
f 1276/2 1277/2 1283/2 1282/2
f 1277/2 1278/2 1284/2 1283/2
f 1278/2 1273/2 1279/2 1284/2
f 1279/2 1280/2 1286/2 1285/2
f 1280/2 1281/2 1287/2 1286/2
f 1281/2 1282/2 1288/2 1287/2
f 1282/2 1283/2 1289/2 1288/2
f 1283/2 1284/2 1290/2 1289/2
f 1284/2 1279/2 1285/2 1290/2
f 1285/2 1286/2 1292/2 1291/2
f 1286/2 1287/2 1293/2 1292/2
f 1287/2 1288/2 1294/2 1293/2
f 1288/2 1289/2 1295/2 1294/2
f 1289/2 1290/2 1296/2 1295/2
f 1290/2 1285/2 1291/2 1296/2
f 1291/2 1292/2 962/2 961/2
f 1292/2 1293/2 963/2 962/2
f 1293/2 1294/2 964/2 963/2
f 1294/2 1295/2 965/2 964/2
f 1295/2 1296/2 966/2 965/2
f 1296/2 1291/2 961/2 966/2
f 1297/2 1298/2 1318/2
f 1312/2 1311/2 1319/2
f 1298/2 1299/2 1318/2
f 1313/2 1312/2 1319/2
f 1299/2 1300/2 1318/2
f 1314/2 1313/2 1319/2
f 1300/2 1301/2 1318/2
f 1315/2 1314/2 1319/2
f 1301/2 1302/2 1318/2
f 1316/2 1315/2 1319/2
f 1302/2 1303/2 1318/2
f 1317/2 1316/2 1319/2
f 1303/2 1297/2 1318/2
f 1311/2 1317/2 1319/2
f 1304/2 1305/2 1298/2 1297/2
f 1305/2 1306/2 1299/2 1298/2
f 1306/2 1307/2 1300/2 1299/2
f 1307/2 1308/2 1301/2 1300/2
f 1308/2 1309/2 1302/2 1301/2
f 1309/2 1310/2 1303/2 1302/2
f 1310/2 1304/2 1297/2 1303/2
f 1311/2 1312/2 1305/2 1304/2
f 1312/2 1313/2 1306/2 1305/2
f 1313/2 1314/2 1307/2 1306/2
f 1314/2 1315/2 1308/2 1307/2
f 1315/2 1316/2 1309/2 1308/2
f 1316/2 1317/2 1310/2 1309/2
f 1317/2 1311/2 1304/2 1310/2
f 1343/2 1344/2 1364/2
f 1358/2 1357/2 1365/2
f 1344/2 1345/2 1364/2
f 1359/2 1358/2 1365/2
f 1345/2 1346/2 1364/2
f 1360/2 1359/2 1365/2
f 1346/2 1347/2 1364/2
f 1361/2 1360/2 1365/2
f 1347/2 1348/2 1364/2
f 1362/2 1361/2 1365/2
f 1348/2 1349/2 1364/2
f 1363/2 1362/2 1365/2
f 1349/2 1343/2 1364/2
f 1357/2 1363/2 1365/2
f 1350/2 1351/2 1344/2 1343/2
f 1351/2 1352/2 1345/2 1344/2
f 1352/2 1353/2 1346/2 1345/2
f 1353/2 1354/2 1347/2 1346/2
f 1354/2 1355/2 1348/2 1347/2
f 1355/2 1356/2 1349/2 1348/2
f 1356/2 1350/2 1343/2 1349/2
f 1357/2 1358/2 1351/2 1350/2
f 1358/2 1359/2 1352/2 1351/2
f 1359/2 1360/2 1353/2 1352/2
f 1360/2 1361/2 1354/2 1353/2
f 1361/2 1362/2 1355/2 1354/2
f 1362/2 1363/2 1356/2 1355/2
f 1363/2 1357/2 1350/2 1356/2
f 1389/2 1390/2 1410/2
f 1404/2 1403/2 1411/2
f 1390/2 1391/2 1410/2
f 1405/2 1404/2 1411/2
f 1391/2 1392/2 1410/2
f 1406/2 1405/2 1411/2
f 1392/2 1393/2 1410/2
f 1407/2 1406/2 1411/2
f 1393/2 1394/2 1410/2
f 1408/2 1407/2 1411/2
f 1394/2 1395/2 1410/2
f 1409/2 1408/2 1411/2
f 1395/2 1389/2 1410/2
f 1403/2 1409/2 1411/2
f 1396/2 1397/2 1390/2 1389/2
f 1397/2 1398/2 1391/2 1390/2
f 1398/2 1399/2 1392/2 1391/2
f 1399/2 1400/2 1393/2 1392/2
f 1400/2 1401/2 1394/2 1393/2
f 1401/2 1402/2 1395/2 1394/2
f 1402/2 1396/2 1389/2 1395/2
f 1403/2 1404/2 1397/2 1396/2
f 1404/2 1405/2 1398/2 1397/2
f 1405/2 1406/2 1399/2 1398/2
f 1406/2 1407/2 1400/2 1399/2
f 1407/2 1408/2 1401/2 1400/2
f 1408/2 1409/2 1402/2 1401/2
f 1409/2 1403/2 1396/2 1402/2
f 1435/2 1436/2 1456/2
f 1450/2 1449/2 1457/2
f 1436/2 1437/2 1456/2
f 1451/2 1450/2 1457/2
f 1437/2 1438/2 1456/2
f 1452/2 1451/2 1457/2
f 1438/2 1439/2 1456/2
f 1453/2 1452/2 1457/2
f 1439/2 1440/2 1456/2
f 1454/2 1453/2 1457/2
f 1440/2 1441/2 1456/2
f 1455/2 1454/2 1457/2
f 1441/2 1435/2 1456/2
f 1449/2 1455/2 1457/2
f 1442/2 1443/2 1436/2 1435/2
f 1443/2 1444/2 1437/2 1436/2
f 1444/2 1445/2 1438/2 1437/2
f 1445/2 1446/2 1439/2 1438/2
f 1446/2 1447/2 1440/2 1439/2
f 1447/2 1448/2 1441/2 1440/2
f 1448/2 1442/2 1435/2 1441/2
f 1449/2 1450/2 1443/2 1442/2
f 1450/2 1451/2 1444/2 1443/2
f 1451/2 1452/2 1445/2 1444/2
f 1452/2 1453/2 1446/2 1445/2
f 1453/2 1454/2 1447/2 1446/2
f 1454/2 1455/2 1448/2 1447/2
f 1455/2 1449/2 1442/2 1448/2
f 1481/2 1482/2 1502/2
f 1496/2 1495/2 1503/2
f 1482/2 1483/2 1502/2
f 1497/2 1496/2 1503/2
f 1483/2 1484/2 1502/2
f 1498/2 1497/2 1503/2
f 1484/2 1485/2 1502/2
f 1499/2 1498/2 1503/2
f 1485/2 1486/2 1502/2
f 1500/2 1499/2 1503/2
f 1486/2 1487/2 1502/2
f 1501/2 1500/2 1503/2
f 1487/2 1481/2 1502/2
f 1495/2 1501/2 1503/2
f 1488/2 1489/2 1482/2 1481/2
f 1489/2 1490/2 1483/2 1482/2
f 1490/2 1491/2 1484/2 1483/2
f 1491/2 1492/2 1485/2 1484/2
f 1492/2 1493/2 1486/2 1485/2
f 1493/2 1494/2 1487/2 1486/2
f 1494/2 1488/2 1481/2 1487/2
f 1495/2 1496/2 1489/2 1488/2
f 1496/2 1497/2 1490/2 1489/2
f 1497/2 1498/2 1491/2 1490/2
f 1498/2 1499/2 1492/2 1491/2
f 1499/2 1500/2 1493/2 1492/2
f 1500/2 1501/2 1494/2 1493/2
f 1501/2 1495/2 1488/2 1494/2
f 1527/2 1528/2 1548/2
f 1542/2 1541/2 1549/2
f 1528/2 1529/2 1548/2
f 1543/2 1542/2 1549/2
f 1529/2 1530/2 1548/2
f 1544/2 1543/2 1549/2
f 1530/2 1531/2 1548/2
f 1545/2 1544/2 1549/2
f 1531/2 1532/2 1548/2
f 1546/2 1545/2 1549/2
f 1532/2 1533/2 1548/2
f 1547/2 1546/2 1549/2
f 1533/2 1527/2 1548/2
f 1541/2 1547/2 1549/2
f 1534/2 1535/2 1528/2 1527/2
f 1535/2 1536/2 1529/2 1528/2
f 1536/2 1537/2 1530/2 1529/2
f 1537/2 1538/2 1531/2 1530/2
f 1538/2 1539/2 1532/2 1531/2
f 1539/2 1540/2 1533/2 1532/2
f 1540/2 1534/2 1527/2 1533/2
f 1541/2 1542/2 1535/2 1534/2
f 1542/2 1543/2 1536/2 1535/2
f 1543/2 1544/2 1537/2 1536/2
f 1544/2 1545/2 1538/2 1537/2
f 1545/2 1546/2 1539/2 1538/2
f 1546/2 1547/2 1540/2 1539/2
f 1547/2 1541/2 1534/2 1540/2
f 1573/2 1574/2 1594/2
f 1588/2 1587/2 1595/2
f 1574/2 1575/2 1594/2
f 1589/2 1588/2 1595/2
f 1575/2 1576/2 1594/2
f 1590/2 1589/2 1595/2
f 1576/2 1577/2 1594/2
f 1591/2 1590/2 1595/2
f 1577/2 1578/2 1594/2
f 1592/2 1591/2 1595/2
f 1578/2 1579/2 1594/2
f 1593/2 1592/2 1595/2
f 1579/2 1573/2 1594/2
f 1587/2 1593/2 1595/2
f 1580/2 1581/2 1574/2 1573/2
f 1581/2 1582/2 1575/2 1574/2
f 1582/2 1583/2 1576/2 1575/2
f 1583/2 1584/2 1577/2 1576/2
f 1584/2 1585/2 1578/2 1577/2
f 1585/2 1586/2 1579/2 1578/2
f 1586/2 1580/2 1573/2 1579/2
f 1587/2 1588/2 1581/2 1580/2
f 1588/2 1589/2 1582/2 1581/2
f 1589/2 1590/2 1583/2 1582/2
f 1590/2 1591/2 1584/2 1583/2
f 1591/2 1592/2 1585/2 1584/2
f 1592/2 1593/2 1586/2 1585/2
f 1593/2 1587/2 1580/2 1586/2
f 1619/2 1620/2 1640/2
f 1634/2 1633/2 1641/2
f 1620/2 1621/2 1640/2
f 1635/2 1634/2 1641/2
f 1621/2 1622/2 1640/2
f 1636/2 1635/2 1641/2
f 1622/2 1623/2 1640/2
f 1637/2 1636/2 1641/2
f 1623/2 1624/2 1640/2
f 1638/2 1637/2 1641/2
f 1624/2 1625/2 1640/2
f 1639/2 1638/2 1641/2
f 1625/2 1619/2 1640/2
f 1633/2 1639/2 1641/2
f 1626/2 1627/2 1620/2 1619/2
f 1627/2 1628/2 1621/2 1620/2
f 1628/2 1629/2 1622/2 1621/2
f 1629/2 1630/2 1623/2 1622/2
f 1630/2 1631/2 1624/2 1623/2
f 1631/2 1632/2 1625/2 1624/2
f 1632/2 1626/2 1619/2 1625/2
f 1633/2 1634/2 1627/2 1626/2
f 1634/2 1635/2 1628/2 1627/2
f 1635/2 1636/2 1629/2 1628/2
f 1636/2 1637/2 1630/2 1629/2
f 1637/2 1638/2 1631/2 1630/2
f 1638/2 1639/2 1632/2 1631/2
f 1639/2 1633/2 1626/2 1632/2
usemtl cream
f 257/1 258/1 194/1 193/1
f 258/1 259/1 195/1 194/1
f 259/1 260/1 196/1 195/1
f 260/1 261/1 197/1 196/1
f 261/1 262/1 198/1 197/1
f 262/1 263/1 199/1 198/1
f 263/1 264/1 200/1 199/1
f 264/1 265/1 201/1 200/1
f 265/1 266/1 202/1 201/1
f 266/1 267/1 203/1 202/1
f 267/1 268/1 204/1 203/1
f 268/1 269/1 205/1 204/1
f 269/1 270/1 206/1 205/1
f 270/1 271/1 207/1 206/1
f 271/1 272/1 208/1 207/1
f 272/1 273/1 209/1 208/1
f 273/1 274/1 210/1 209/1
f 274/1 275/1 211/1 210/1
f 275/1 276/1 212/1 211/1
f 276/1 277/1 213/1 212/1
f 277/1 278/1 214/1 213/1
f 278/1 279/1 215/1 214/1
f 279/1 280/1 216/1 215/1
f 280/1 281/1 217/1 216/1
f 281/1 282/1 218/1 217/1
f 282/1 283/1 219/1 218/1
f 283/1 284/1 220/1 219/1
f 284/1 285/1 221/1 220/1
f 285/1 286/1 222/1 221/1
f 286/1 287/1 223/1 222/1
f 287/1 288/1 224/1 223/1
f 288/1 289/1 225/1 224/1
f 289/1 290/1 226/1 225/1
f 290/1 291/1 227/1 226/1
f 291/1 292/1 228/1 227/1
f 292/1 293/1 229/1 228/1
f 293/1 294/1 230/1 229/1
f 294/1 295/1 231/1 230/1
f 295/1 296/1 232/1 231/1
f 296/1 297/1 233/1 232/1
f 297/1 298/1 234/1 233/1
f 298/1 299/1 235/1 234/1
f 299/1 300/1 236/1 235/1
f 300/1 301/1 237/1 236/1
f 301/1 302/1 238/1 237/1
f 302/1 303/1 239/1 238/1
f 303/1 304/1 240/1 239/1
f 304/1 305/1 241/1 240/1
f 305/1 306/1 242/1 241/1
f 306/1 307/1 243/1 242/1
f 307/1 308/1 244/1 243/1
f 308/1 309/1 245/1 244/1
f 309/1 310/1 246/1 245/1
f 310/1 311/1 247/1 246/1
f 311/1 312/1 248/1 247/1
f 312/1 313/1 249/1 248/1
f 313/1 314/1 250/1 249/1
f 314/1 315/1 251/1 250/1
f 315/1 316/1 252/1 251/1
f 316/1 317/1 253/1 252/1
f 317/1 318/1 254/1 253/1
f 318/1 319/1 255/1 254/1
f 319/1 320/1 256/1 255/1
f 320/1 257/1 193/1 256/1
f 1320/1 1321/1 1341/1
f 1335/1 1334/1 1342/1
f 1321/1 1322/1 1341/1
f 1336/1 1335/1 1342/1
f 1322/1 1323/1 1341/1
f 1337/1 1336/1 1342/1
f 1323/1 1324/1 1341/1
f 1338/1 1337/1 1342/1
f 1324/1 1325/1 1341/1
f 1339/1 1338/1 1342/1
f 1325/1 1326/1 1341/1
f 1340/1 1339/1 1342/1
f 1326/1 1320/1 1341/1
f 1334/1 1340/1 1342/1
f 1327/1 1328/1 1321/1 1320/1
f 1328/1 1329/1 1322/1 1321/1
f 1329/1 1330/1 1323/1 1322/1
f 1330/1 1331/1 1324/1 1323/1
f 1331/1 1332/1 1325/1 1324/1
f 1332/1 1333/1 1326/1 1325/1
f 1333/1 1327/1 1320/1 1326/1
f 1334/1 1335/1 1328/1 1327/1
f 1335/1 1336/1 1329/1 1328/1
f 1336/1 1337/1 1330/1 1329/1
f 1337/1 1338/1 1331/1 1330/1
f 1338/1 1339/1 1332/1 1331/1
f 1339/1 1340/1 1333/1 1332/1
f 1340/1 1334/1 1327/1 1333/1
f 1366/1 1367/1 1387/1
f 1381/1 1380/1 1388/1
f 1367/1 1368/1 1387/1
f 1382/1 1381/1 1388/1
f 1368/1 1369/1 1387/1
f 1383/1 1382/1 1388/1
f 1369/1 1370/1 1387/1
f 1384/1 1383/1 1388/1
f 1370/1 1371/1 1387/1
f 1385/1 1384/1 1388/1
f 1371/1 1372/1 1387/1
f 1386/1 1385/1 1388/1
f 1372/1 1366/1 1387/1
f 1380/1 1386/1 1388/1
f 1373/1 1374/1 1367/1 1366/1
f 1374/1 1375/1 1368/1 1367/1
f 1375/1 1376/1 1369/1 1368/1
f 1376/1 1377/1 1370/1 1369/1
f 1377/1 1378/1 1371/1 1370/1
f 1378/1 1379/1 1372/1 1371/1
f 1379/1 1373/1 1366/1 1372/1
f 1380/1 1381/1 1374/1 1373/1
f 1381/1 1382/1 1375/1 1374/1
f 1382/1 1383/1 1376/1 1375/1
f 1383/1 1384/1 1377/1 1376/1
f 1384/1 1385/1 1378/1 1377/1
f 1385/1 1386/1 1379/1 1378/1
f 1386/1 1380/1 1373/1 1379/1
f 1412/1 1413/1 1433/1
f 1427/1 1426/1 1434/1
f 1413/1 1414/1 1433/1
f 1428/1 1427/1 1434/1
f 1414/1 1415/1 1433/1
f 1429/1 1428/1 1434/1
f 1415/1 1416/1 1433/1
f 1430/1 1429/1 1434/1
f 1416/1 1417/1 1433/1
f 1431/1 1430/1 1434/1
f 1417/1 1418/1 1433/1
f 1432/1 1431/1 1434/1
f 1418/1 1412/1 1433/1
f 1426/1 1432/1 1434/1
f 1419/1 1420/1 1413/1 1412/1
f 1420/1 1421/1 1414/1 1413/1
f 1421/1 1422/1 1415/1 1414/1
f 1422/1 1423/1 1416/1 1415/1
f 1423/1 1424/1 1417/1 1416/1
f 1424/1 1425/1 1418/1 1417/1
f 1425/1 1419/1 1412/1 1418/1
f 1426/1 1427/1 1420/1 1419/1
f 1427/1 1428/1 1421/1 1420/1
f 1428/1 1429/1 1422/1 1421/1
f 1429/1 1430/1 1423/1 1422/1
f 1430/1 1431/1 1424/1 1423/1
f 1431/1 1432/1 1425/1 1424/1
f 1432/1 1426/1 1419/1 1425/1
f 1458/1 1459/1 1479/1
f 1473/1 1472/1 1480/1
f 1459/1 1460/1 1479/1
f 1474/1 1473/1 1480/1
f 1460/1 1461/1 1479/1
f 1475/1 1474/1 1480/1
f 1461/1 1462/1 1479/1
f 1476/1 1475/1 1480/1
f 1462/1 1463/1 1479/1
f 1477/1 1476/1 1480/1
f 1463/1 1464/1 1479/1
f 1478/1 1477/1 1480/1
f 1464/1 1458/1 1479/1
f 1472/1 1478/1 1480/1
f 1465/1 1466/1 1459/1 1458/1
f 1466/1 1467/1 1460/1 1459/1
f 1467/1 1468/1 1461/1 1460/1
f 1468/1 1469/1 1462/1 1461/1
f 1469/1 1470/1 1463/1 1462/1
f 1470/1 1471/1 1464/1 1463/1
f 1471/1 1465/1 1458/1 1464/1
f 1472/1 1473/1 1466/1 1465/1
f 1473/1 1474/1 1467/1 1466/1
f 1474/1 1475/1 1468/1 1467/1
f 1475/1 1476/1 1469/1 1468/1
f 1476/1 1477/1 1470/1 1469/1
f 1477/1 1478/1 1471/1 1470/1
f 1478/1 1472/1 1465/1 1471/1
f 1504/1 1505/1 1525/1
f 1519/1 1518/1 1526/1
f 1505/1 1506/1 1525/1
f 1520/1 1519/1 1526/1
f 1506/1 1507/1 1525/1
f 1521/1 1520/1 1526/1
f 1507/1 1508/1 1525/1
f 1522/1 1521/1 1526/1
f 1508/1 1509/1 1525/1
f 1523/1 1522/1 1526/1
f 1509/1 1510/1 1525/1
f 1524/1 1523/1 1526/1
f 1510/1 1504/1 1525/1
f 1518/1 1524/1 1526/1
f 1511/1 1512/1 1505/1 1504/1
f 1512/1 1513/1 1506/1 1505/1
f 1513/1 1514/1 1507/1 1506/1
f 1514/1 1515/1 1508/1 1507/1
f 1515/1 1516/1 1509/1 1508/1
f 1516/1 1517/1 1510/1 1509/1
f 1517/1 1511/1 1504/1 1510/1
f 1518/1 1519/1 1512/1 1511/1
f 1519/1 1520/1 1513/1 1512/1
f 1520/1 1521/1 1514/1 1513/1
f 1521/1 1522/1 1515/1 1514/1
f 1522/1 1523/1 1516/1 1515/1
f 1523/1 1524/1 1517/1 1516/1
f 1524/1 1518/1 1511/1 1517/1
f 1550/1 1551/1 1571/1
f 1565/1 1564/1 1572/1
f 1551/1 1552/1 1571/1
f 1566/1 1565/1 1572/1
f 1552/1 1553/1 1571/1
f 1567/1 1566/1 1572/1
f 1553/1 1554/1 1571/1
f 1568/1 1567/1 1572/1
f 1554/1 1555/1 1571/1
f 1569/1 1568/1 1572/1
f 1555/1 1556/1 1571/1
f 1570/1 1569/1 1572/1
f 1556/1 1550/1 1571/1
f 1564/1 1570/1 1572/1
f 1557/1 1558/1 1551/1 1550/1
f 1558/1 1559/1 1552/1 1551/1
f 1559/1 1560/1 1553/1 1552/1
f 1560/1 1561/1 1554/1 1553/1
f 1561/1 1562/1 1555/1 1554/1
f 1562/1 1563/1 1556/1 1555/1
f 1563/1 1557/1 1550/1 1556/1
f 1564/1 1565/1 1558/1 1557/1
f 1565/1 1566/1 1559/1 1558/1
f 1566/1 1567/1 1560/1 1559/1
f 1567/1 1568/1 1561/1 1560/1
f 1568/1 1569/1 1562/1 1561/1
f 1569/1 1570/1 1563/1 1562/1
f 1570/1 1564/1 1557/1 1563/1
f 1596/1 1597/1 1617/1
f 1611/1 1610/1 1618/1
f 1597/1 1598/1 1617/1
f 1612/1 1611/1 1618/1
f 1598/1 1599/1 1617/1
f 1613/1 1612/1 1618/1
f 1599/1 1600/1 1617/1
f 1614/1 1613/1 1618/1
f 1600/1 1601/1 1617/1
f 1615/1 1614/1 1618/1
f 1601/1 1602/1 1617/1
f 1616/1 1615/1 1618/1
f 1602/1 1596/1 1617/1
f 1610/1 1616/1 1618/1
f 1603/1 1604/1 1597/1 1596/1
f 1604/1 1605/1 1598/1 1597/1
f 1605/1 1606/1 1599/1 1598/1
f 1606/1 1607/1 1600/1 1599/1
f 1607/1 1608/1 1601/1 1600/1
f 1608/1 1609/1 1602/1 1601/1
f 1609/1 1603/1 1596/1 1602/1
f 1610/1 1611/1 1604/1 1603/1
f 1611/1 1612/1 1605/1 1604/1
f 1612/1 1613/1 1606/1 1605/1
f 1613/1 1614/1 1607/1 1606/1
f 1614/1 1615/1 1608/1 1607/1
f 1615/1 1616/1 1609/1 1608/1
f 1616/1 1610/1 1603/1 1609/1
f 1642/1 1643/1 1663/1
f 1657/1 1656/1 1664/1
f 1643/1 1644/1 1663/1
f 1658/1 1657/1 1664/1
f 1644/1 1645/1 1663/1
f 1659/1 1658/1 1664/1
f 1645/1 1646/1 1663/1
f 1660/1 1659/1 1664/1
f 1646/1 1647/1 1663/1
f 1661/1 1660/1 1664/1
f 1647/1 1648/1 1663/1
f 1662/1 1661/1 1664/1
f 1648/1 1642/1 1663/1
f 1656/1 1662/1 1664/1
f 1649/1 1650/1 1643/1 1642/1
f 1650/1 1651/1 1644/1 1643/1
f 1651/1 1652/1 1645/1 1644/1
f 1652/1 1653/1 1646/1 1645/1
f 1653/1 1654/1 1647/1 1646/1
f 1654/1 1655/1 1648/1 1647/1
f 1655/1 1649/1 1642/1 1648/1
f 1656/1 1657/1 1650/1 1649/1
f 1657/1 1658/1 1651/1 1650/1
f 1658/1 1659/1 1652/1 1651/1
f 1659/1 1660/1 1653/1 1652/1
f 1660/1 1661/1 1654/1 1653/1
f 1661/1 1662/1 1655/1 1654/1
f 1662/1 1656/1 1649/1 1655/1
usemtl mint
f 321/3 322/3 258/3 257/3
f 322/3 323/3 259/3 258/3
f 323/3 324/3 260/3 259/3
f 324/3 325/3 261/3 260/3
f 325/3 326/3 262/3 261/3
f 326/3 327/3 263/3 262/3
f 327/3 328/3 264/3 263/3
f 328/3 329/3 265/3 264/3
f 329/3 330/3 266/3 265/3
f 330/3 331/3 267/3 266/3
f 331/3 332/3 268/3 267/3
f 332/3 333/3 269/3 268/3
f 333/3 334/3 270/3 269/3
f 334/3 335/3 271/3 270/3
f 335/3 336/3 272/3 271/3
f 336/3 337/3 273/3 272/3
f 337/3 338/3 274/3 273/3
f 338/3 339/3 275/3 274/3
f 339/3 340/3 276/3 275/3
f 340/3 341/3 277/3 276/3
f 341/3 342/3 278/3 277/3
f 342/3 343/3 279/3 278/3
f 343/3 344/3 280/3 279/3
f 344/3 345/3 281/3 280/3
f 345/3 346/3 282/3 281/3
f 346/3 347/3 283/3 282/3
f 347/3 348/3 284/3 283/3
f 348/3 349/3 285/3 284/3
f 349/3 350/3 286/3 285/3
f 350/3 351/3 287/3 286/3
f 351/3 352/3 288/3 287/3
f 352/3 353/3 289/3 288/3
f 353/3 354/3 290/3 289/3
f 354/3 355/3 291/3 290/3
f 355/3 356/3 292/3 291/3
f 356/3 357/3 293/3 292/3
f 357/3 358/3 294/3 293/3
f 358/3 359/3 295/3 294/3
f 359/3 360/3 296/3 295/3
f 360/3 361/3 297/3 296/3
f 361/3 362/3 298/3 297/3
f 362/3 363/3 299/3 298/3
f 363/3 364/3 300/3 299/3
f 364/3 365/3 301/3 300/3
f 365/3 366/3 302/3 301/3
f 366/3 367/3 303/3 302/3
f 367/3 368/3 304/3 303/3
f 368/3 369/3 305/3 304/3
f 369/3 370/3 306/3 305/3
f 370/3 371/3 307/3 306/3
f 371/3 372/3 308/3 307/3
f 372/3 373/3 309/3 308/3
f 373/3 374/3 310/3 309/3
f 374/3 375/3 311/3 310/3
f 375/3 376/3 312/3 311/3
f 376/3 377/3 313/3 312/3
f 377/3 378/3 314/3 313/3
f 378/3 379/3 315/3 314/3
f 379/3 380/3 316/3 315/3
f 380/3 381/3 317/3 316/3
f 381/3 382/3 318/3 317/3
f 382/3 383/3 319/3 318/3
f 383/3 384/3 320/3 319/3
f 384/3 321/3 257/3 320/3
f 385/3 386/3 322/3 321/3
f 386/3 387/3 323/3 322/3
f 387/3 388/3 324/3 323/3
f 388/3 389/3 325/3 324/3
f 389/3 390/3 326/3 325/3
f 390/3 391/3 327/3 326/3
f 391/3 392/3 328/3 327/3
f 392/3 393/3 329/3 328/3
f 393/3 394/3 330/3 329/3
f 394/3 395/3 331/3 330/3
f 395/3 396/3 332/3 331/3
f 396/3 397/3 333/3 332/3
f 397/3 398/3 334/3 333/3
f 398/3 399/3 335/3 334/3
f 399/3 400/3 336/3 335/3
f 400/3 401/3 337/3 336/3
f 401/3 402/3 338/3 337/3
f 402/3 403/3 339/3 338/3
f 403/3 404/3 340/3 339/3
f 404/3 405/3 341/3 340/3
f 405/3 406/3 342/3 341/3
f 406/3 407/3 343/3 342/3
f 407/3 408/3 344/3 343/3
f 408/3 409/3 345/3 344/3
f 409/3 410/3 346/3 345/3
f 410/3 411/3 347/3 346/3
f 411/3 412/3 348/3 347/3
f 412/3 413/3 349/3 348/3
f 413/3 414/3 350/3 349/3
f 414/3 415/3 351/3 350/3
f 415/3 416/3 352/3 351/3
f 416/3 417/3 353/3 352/3
f 417/3 418/3 354/3 353/3
f 418/3 419/3 355/3 354/3
f 419/3 420/3 356/3 355/3
f 420/3 421/3 357/3 356/3
f 421/3 422/3 358/3 357/3
f 422/3 423/3 359/3 358/3
f 423/3 424/3 360/3 359/3
f 424/3 425/3 361/3 360/3
f 425/3 426/3 362/3 361/3
f 426/3 427/3 363/3 362/3
f 427/3 428/3 364/3 363/3
f 428/3 429/3 365/3 364/3
f 429/3 430/3 366/3 365/3
f 430/3 431/3 367/3 366/3
f 431/3 432/3 368/3 367/3
f 432/3 433/3 369/3 368/3
f 433/3 434/3 370/3 369/3
f 434/3 435/3 371/3 370/3
f 435/3 436/3 372/3 371/3
f 436/3 437/3 373/3 372/3
f 437/3 438/3 374/3 373/3
f 438/3 439/3 375/3 374/3
f 439/3 440/3 376/3 375/3
f 440/3 441/3 377/3 376/3
f 441/3 442/3 378/3 377/3
f 442/3 443/3 379/3 378/3
f 443/3 444/3 380/3 379/3
f 444/3 445/3 381/3 380/3
f 445/3 446/3 382/3 381/3
f 446/3 447/3 383/3 382/3
f 447/3 448/3 384/3 383/3
f 448/3 385/3 321/3 384/3
