# ParkParkSwingCrown — ParkPark original fairground mesh
mtllib ParkParkFairground.mtl
o ParkParkSwingCrown
v 0.00000 -0.90000 0.00000
v 0.00000 -0.90000 0.00000
v 0.00000 -0.90000 0.00000
v 0.00000 -0.90000 0.00000
v 0.00000 -0.90000 0.00000
v 0.00000 -0.90000 0.00000
v 0.00000 -0.90000 0.00000
v -0.00000 -0.90000 0.00000
v -0.00000 -0.90000 0.00000
v -0.00000 -0.90000 0.00000
v -0.00000 -0.90000 0.00000
v -0.00000 -0.90000 0.00000
v -0.00000 -0.90000 0.00000
v -0.00000 -0.90000 -0.00000
v -0.00000 -0.90000 -0.00000
v -0.00000 -0.90000 -0.00000
v -0.00000 -0.90000 -0.00000
v -0.00000 -0.90000 -0.00000
v -0.00000 -0.90000 -0.00000
v 0.00000 -0.90000 -0.00000
v 0.00000 -0.90000 -0.00000
v 0.00000 -0.90000 -0.00000
v 0.00000 -0.90000 -0.00000
v 0.00000 -0.90000 -0.00000
v 0.95000 -0.90000 0.00000
v 0.91763 -0.90000 0.24588
v 0.82272 -0.90000 0.47500
v 0.67175 -0.90000 0.67175
v 0.47500 -0.90000 0.82272
v 0.24588 -0.90000 0.91763
v 0.00000 -0.90000 0.95000
v -0.24588 -0.90000 0.91763
v -0.47500 -0.90000 0.82272
v -0.67175 -0.90000 0.67175
v -0.82272 -0.90000 0.47500
v -0.91763 -0.90000 0.24588
v -0.95000 -0.90000 0.00000
v -0.91763 -0.90000 -0.24588
v -0.82272 -0.90000 -0.47500
v -0.67175 -0.90000 -0.67175
v -0.47500 -0.90000 -0.82272
v -0.24588 -0.90000 -0.91763
v -0.00000 -0.90000 -0.95000
v 0.24588 -0.90000 -0.91763
v 0.47500 -0.90000 -0.82272
v 0.67175 -0.90000 -0.67175
v 0.82272 -0.90000 -0.47500
v 0.91763 -0.90000 -0.24588
v 1.05000 -0.50000 0.00000
v 1.01422 -0.50000 0.27176
v 0.90933 -0.50000 0.52500
v 0.74246 -0.50000 0.74246
v 0.52500 -0.50000 0.90933
v 0.27176 -0.50000 1.01422
v 0.00000 -0.50000 1.05000
v -0.27176 -0.50000 1.01422
v -0.52500 -0.50000 0.90933
v -0.74246 -0.50000 0.74246
v -0.90933 -0.50000 0.52500
v -1.01422 -0.50000 0.27176
v -1.05000 -0.50000 0.00000
v -1.01422 -0.50000 -0.27176
v -0.90933 -0.50000 -0.52500
v -0.74246 -0.50000 -0.74246
v -0.52500 -0.50000 -0.90933
v -0.27176 -0.50000 -1.01422
v -0.00000 -0.50000 -1.05000
v 0.27176 -0.50000 -1.01422
v 0.52500 -0.50000 -0.90933
v 0.74246 -0.50000 -0.74246
v 0.90933 -0.50000 -0.52500
v 1.01422 -0.50000 -0.27176
v 0.95000 0.10000 0.00000
v 0.91763 0.10000 0.24588
v 0.82272 0.10000 0.47500
v 0.67175 0.10000 0.67175
v 0.47500 0.10000 0.82272
v 0.24588 0.10000 0.91763
v 0.00000 0.10000 0.95000
v -0.24588 0.10000 0.91763
v -0.47500 0.10000 0.82272
v -0.67175 0.10000 0.67175
v -0.82272 0.10000 0.47500
v -0.91763 0.10000 0.24588
v -0.95000 0.10000 0.00000
v -0.91763 0.10000 -0.24588
v -0.82272 0.10000 -0.47500
v -0.67175 0.10000 -0.67175
v -0.47500 0.10000 -0.82272
v -0.24588 0.10000 -0.91763
v -0.00000 0.10000 -0.95000
v 0.24588 0.10000 -0.91763
v 0.47500 0.10000 -0.82272
v 0.67175 0.10000 -0.67175
v 0.82272 0.10000 -0.47500
v 0.91763 0.10000 -0.24588
v 0.70000 0.30000 0.00000
v 0.67615 0.30000 0.18117
v 0.60622 0.30000 0.35000
v 0.49497 0.30000 0.49497
v 0.35000 0.30000 0.60622
v 0.18117 0.30000 0.67615
v 0.00000 0.30000 0.70000
v -0.18117 0.30000 0.67615
v -0.35000 0.30000 0.60622
v -0.49497 0.30000 0.49497
v -0.60622 0.30000 0.35000
v -0.67615 0.30000 0.18117
v -0.70000 0.30000 0.00000
v -0.67615 0.30000 -0.18117
v -0.60622 0.30000 -0.35000
v -0.49497 0.30000 -0.49497
v -0.35000 0.30000 -0.60622
v -0.18117 0.30000 -0.67615
v -0.00000 0.30000 -0.70000
v 0.18117 0.30000 -0.67615
v 0.35000 0.30000 -0.60622
v 0.49497 0.30000 -0.49497
v 0.60622 0.30000 -0.35000
v 0.67615 0.30000 -0.18117
v 0.00000 0.30000 0.00000
v 0.00000 0.30000 0.00000
v 0.00000 0.30000 0.00000
v 0.00000 0.30000 0.00000
v 0.00000 0.30000 0.00000
v 0.00000 0.30000 0.00000
v 0.00000 0.30000 0.00000
v -0.00000 0.30000 0.00000
v -0.00000 0.30000 0.00000
v -0.00000 0.30000 0.00000
v -0.00000 0.30000 0.00000
v -0.00000 0.30000 0.00000
v -0.00000 0.30000 0.00000
v -0.00000 0.30000 -0.00000
v -0.00000 0.30000 -0.00000
v -0.00000 0.30000 -0.00000
v -0.00000 0.30000 -0.00000
v -0.00000 0.30000 -0.00000
v -0.00000 0.30000 -0.00000
v 0.00000 0.30000 -0.00000
v 0.00000 0.30000 -0.00000
v 0.00000 0.30000 -0.00000
v 0.00000 0.30000 -0.00000
v 0.00000 0.30000 -0.00000
v 0.60000 -0.20000 0.15000
v 0.59470 -0.30593 0.10607
v 0.59251 -0.34981 0.00000
v 0.59470 -0.30593 -0.10607
v 0.60000 -0.20000 -0.15000
v 0.60530 -0.09407 -0.10607
v 0.60749 -0.05019 -0.00000
v 0.60530 -0.09407 0.10607
v 4.60000 -0.40000 0.13000
v 4.59541 -0.49181 0.09192
v 4.59351 -0.52984 0.00000
v 4.59541 -0.49181 -0.09192
v 4.60000 -0.40000 -0.13000
v 4.60459 -0.30819 -0.09192
v 4.60649 -0.27016 -0.00000
v 4.60459 -0.30819 0.09192
v 0.60000 -0.20000 0.00000
v 4.60000 -0.40000 0.00000
v 4.76971 -0.64142 0.00000
v 4.72000 -0.64142 0.12000
v 4.60000 -0.64142 0.16971
v 4.48000 -0.64142 0.12000
v 4.43029 -0.64142 0.00000
v 4.48000 -0.64142 -0.12000
v 4.60000 -0.64142 -0.16971
v 4.72000 -0.64142 -0.12000
v 4.84000 -0.50000 0.00000
v 4.76971 -0.50000 0.16971
v 4.60000 -0.50000 0.24000
v 4.43029 -0.50000 0.16971
v 4.36000 -0.50000 0.00000
v 4.43029 -0.50000 -0.16971
v 4.60000 -0.50000 -0.24000
v 4.76971 -0.50000 -0.16971
v 4.76971 -0.35858 0.00000
v 4.72000 -0.35858 0.12000
v 4.60000 -0.35858 0.16971
v 4.48000 -0.35858 0.12000
v 4.43029 -0.35858 0.00000
v 4.48000 -0.35858 -0.12000
v 4.60000 -0.35858 -0.16971
v 4.72000 -0.35858 -0.12000
v 4.60000 -0.70000 0.00000
v 4.60000 -0.30000 0.00000
v 0.31820 -0.20000 0.53033
v 0.34552 -0.30593 0.49552
v 0.41897 -0.34981 0.41897
v 0.49552 -0.30593 0.34552
v 0.53033 -0.20000 0.31820
v 0.50301 -0.09407 0.35301
v 0.42956 -0.05019 0.42956
v 0.35301 -0.09407 0.50301
v 3.16077 -0.40000 3.34462
v 3.18445 -0.49181 3.31445
v 3.24810 -0.52984 3.24810
v 3.31445 -0.49181 3.18445
v 3.34462 -0.40000 3.16077
v 3.32094 -0.30819 3.19094
v 3.25728 -0.27016 3.25728
v 3.19094 -0.30819 3.32094
v 0.42426 -0.20000 0.42426
v 3.25269 -0.40000 3.25269
v 3.42240 -0.64142 3.25269
v 3.37269 -0.64142 3.37269
v 3.25269 -0.64142 3.42240
v 3.13269 -0.64142 3.37269
v 3.08299 -0.64142 3.25269
v 3.13269 -0.64142 3.13269
v 3.25269 -0.64142 3.08299
v 3.37269 -0.64142 3.13269
v 3.49269 -0.50000 3.25269
v 3.42240 -0.50000 3.42240
v 3.25269 -0.50000 3.49269
v 3.08299 -0.50000 3.42240
v 3.01269 -0.50000 3.25269
v 3.08299 -0.50000 3.08299
v 3.25269 -0.50000 3.01269
v 3.42240 -0.50000 3.08299
v 3.42240 -0.35858 3.25269
v 3.37269 -0.35858 3.37269
v 3.25269 -0.35858 3.42240
v 3.13269 -0.35858 3.37269
v 3.08299 -0.35858 3.25269
v 3.13269 -0.35858 3.13269
v 3.25269 -0.35858 3.08299
v 3.37269 -0.35858 3.13269
v 3.25269 -0.70000 3.25269
v 3.25269 -0.30000 3.25269
v -0.15000 -0.20000 0.60000
v -0.10607 -0.30593 0.59470
v 0.00000 -0.34981 0.59251
v 0.10607 -0.30593 0.59470
v 0.15000 -0.20000 0.60000
v 0.10607 -0.09407 0.60530
v 0.00000 -0.05019 0.60749
v -0.10607 -0.09407 0.60530
v -0.13000 -0.40000 4.60000
v -0.09192 -0.49181 4.59541
v 0.00000 -0.52984 4.59351
v 0.09192 -0.49181 4.59541
v 0.13000 -0.40000 4.60000
v 0.09192 -0.30819 4.60459
v 0.00000 -0.27016 4.60649
v -0.09192 -0.30819 4.60459
v 0.00000 -0.20000 0.60000
v 0.00000 -0.40000 4.60000
v 0.16971 -0.64142 4.60000
v 0.12000 -0.64142 4.72000
v 0.00000 -0.64142 4.76971
v -0.12000 -0.64142 4.72000
v -0.16971 -0.64142 4.60000
v -0.12000 -0.64142 4.48000
v 0.00000 -0.64142 4.43029
v 0.12000 -0.64142 4.48000
v 0.24000 -0.50000 4.60000
v 0.16971 -0.50000 4.76971
v 0.00000 -0.50000 4.84000
v -0.16971 -0.50000 4.76971
v -0.24000 -0.50000 4.60000
v -0.16971 -0.50000 4.43029
v 0.00000 -0.50000 4.36000
v 0.16971 -0.50000 4.43029
v 0.16971 -0.35858 4.60000
v 0.12000 -0.35858 4.72000
v 0.00000 -0.35858 4.76971
v -0.12000 -0.35858 4.72000
v -0.16971 -0.35858 4.60000
v -0.12000 -0.35858 4.48000
v 0.00000 -0.35858 4.43029
v 0.12000 -0.35858 4.48000
v 0.00000 -0.70000 4.60000
v 0.00000 -0.30000 4.60000
v -0.53033 -0.20000 0.31820
v -0.49552 -0.30593 0.34552
v -0.41897 -0.34981 0.41897
v -0.34552 -0.30593 0.49552
v -0.31820 -0.20000 0.53033
v -0.35301 -0.09407 0.50301
v -0.42956 -0.05019 0.42956
v -0.50301 -0.09407 0.35301
v -3.34462 -0.40000 3.16077
v -3.31445 -0.49181 3.18445
v -3.24810 -0.52984 3.24810
v -3.18445 -0.49181 3.31445
v -3.16077 -0.40000 3.34462
v -3.19094 -0.30819 3.32094
v -3.25728 -0.27016 3.25728
v -3.32094 -0.30819 3.19094
v -0.42426 -0.20000 0.42426
v -3.25269 -0.40000 3.25269
v -3.08299 -0.64142 3.25269
v -3.13269 -0.64142 3.37269
v -3.25269 -0.64142 3.42240
v -3.37269 -0.64142 3.37269
v -3.42240 -0.64142 3.25269
v -3.37269 -0.64142 3.13269
v -3.25269 -0.64142 3.08299
v -3.13269 -0.64142 3.13269
v -3.01269 -0.50000 3.25269
v -3.08299 -0.50000 3.42240
v -3.25269 -0.50000 3.49269
v -3.42240 -0.50000 3.42240
v -3.49269 -0.50000 3.25269
v -3.42240 -0.50000 3.08299
v -3.25269 -0.50000 3.01269
v -3.08299 -0.50000 3.08299
v -3.08299 -0.35858 3.25269
v -3.13269 -0.35858 3.37269
v -3.25269 -0.35858 3.42240
v -3.37269 -0.35858 3.37269
v -3.42240 -0.35858 3.25269
v -3.37269 -0.35858 3.13269
v -3.25269 -0.35858 3.08299
v -3.13269 -0.35858 3.13269
v -3.25269 -0.70000 3.25269
v -3.25269 -0.30000 3.25269
v -0.60000 -0.20000 -0.15000
v -0.59470 -0.30593 -0.10607
v -0.59251 -0.34981 0.00000
v -0.59470 -0.30593 0.10607
v -0.60000 -0.20000 0.15000
v -0.60530 -0.09407 0.10607
v -0.60749 -0.05019 0.00000
v -0.60530 -0.09407 -0.10607
v -4.60000 -0.40000 -0.13000
v -4.59541 -0.49181 -0.09192
v -4.59351 -0.52984 0.00000
v -4.59541 -0.49181 0.09192
v -4.60000 -0.40000 0.13000
v -4.60459 -0.30819 0.09192
v -4.60649 -0.27016 0.00000
v -4.60459 -0.30819 -0.09192
v -0.60000 -0.20000 0.00000
v -4.60000 -0.40000 0.00000
v -4.43029 -0.64142 0.00000
v -4.48000 -0.64142 0.12000
v -4.60000 -0.64142 0.16971
v -4.72000 -0.64142 0.12000
v -4.76971 -0.64142 0.00000
v -4.72000 -0.64142 -0.12000
v -4.60000 -0.64142 -0.16971
v -4.48000 -0.64142 -0.12000
v -4.36000 -0.50000 0.00000
v -4.43029 -0.50000 0.16971
v -4.60000 -0.50000 0.24000
v -4.76971 -0.50000 0.16971
v -4.84000 -0.50000 0.00000
v -4.76971 -0.50000 -0.16971
v -4.60000 -0.50000 -0.24000
v -4.43029 -0.50000 -0.16971
v -4.43029 -0.35858 0.00000
v -4.48000 -0.35858 0.12000
v -4.60000 -0.35858 0.16971
v -4.72000 -0.35858 0.12000
v -4.76971 -0.35858 0.00000
v -4.72000 -0.35858 -0.12000
v -4.60000 -0.35858 -0.16971
v -4.48000 -0.35858 -0.12000
v -4.60000 -0.70000 0.00000
v -4.60000 -0.30000 0.00000
v -0.31820 -0.20000 -0.53033
v -0.34552 -0.30593 -0.49552
v -0.41897 -0.34981 -0.41897
v -0.49552 -0.30593 -0.34552
v -0.53033 -0.20000 -0.31820
v -0.50301 -0.09407 -0.35301
v -0.42956 -0.05019 -0.42956
v -0.35301 -0.09407 -0.50301
v -3.16077 -0.40000 -3.34462
v -3.18445 -0.49181 -3.31445
v -3.24810 -0.52984 -3.24810
v -3.31445 -0.49181 -3.18445
v -3.34462 -0.40000 -3.16077
v -3.32094 -0.30819 -3.19094
v -3.25728 -0.27016 -3.25728
v -3.19094 -0.30819 -3.32094
v -0.42426 -0.20000 -0.42426
v -3.25269 -0.40000 -3.25269
v -3.08299 -0.64142 -3.25269
v -3.13269 -0.64142 -3.13269
v -3.25269 -0.64142 -3.08299
v -3.37269 -0.64142 -3.13269
v -3.42240 -0.64142 -3.25269
v -3.37269 -0.64142 -3.37269
v -3.25269 -0.64142 -3.42240
v -3.13269 -0.64142 -3.37269
v -3.01269 -0.50000 -3.25269
v -3.08299 -0.50000 -3.08299
v -3.25269 -0.50000 -3.01269
v -3.42240 -0.50000 -3.08299
v -3.49269 -0.50000 -3.25269
v -3.42240 -0.50000 -3.42240
v -3.25269 -0.50000 -3.49269
v -3.08299 -0.50000 -3.42240
v -3.08299 -0.35858 -3.25269
v -3.13269 -0.35858 -3.13269
v -3.25269 -0.35858 -3.08299
v -3.37269 -0.35858 -3.13269
v -3.42240 -0.35858 -3.25269
v -3.37269 -0.35858 -3.37269
v -3.25269 -0.35858 -3.42240
v -3.13269 -0.35858 -3.37269
v -3.25269 -0.70000 -3.25269
v -3.25269 -0.30000 -3.25269
v 0.15000 -0.20000 -0.60000
v 0.10607 -0.30593 -0.59470
v -0.00000 -0.34981 -0.59251
v -0.10607 -0.30593 -0.59470
v -0.15000 -0.20000 -0.60000
v -0.10607 -0.09407 -0.60530
v -0.00000 -0.05019 -0.60749
v 0.10607 -0.09407 -0.60530
v 0.13000 -0.40000 -4.60000
v 0.09192 -0.49181 -4.59541
v -0.00000 -0.52984 -4.59351
v -0.09192 -0.49181 -4.59541
v -0.13000 -0.40000 -4.60000
v -0.09192 -0.30819 -4.60459
v -0.00000 -0.27016 -4.60649
v 0.09192 -0.30819 -4.60459
v -0.00000 -0.20000 -0.60000
v -0.00000 -0.40000 -4.60000
v 0.16971 -0.64142 -4.60000
v 0.12000 -0.64142 -4.48000
v -0.00000 -0.64142 -4.43029
v -0.12000 -0.64142 -4.48000
v -0.16971 -0.64142 -4.60000
v -0.12000 -0.64142 -4.72000
v -0.00000 -0.64142 -4.76971
v 0.12000 -0.64142 -4.72000
v 0.24000 -0.50000 -4.60000
v 0.16971 -0.50000 -4.43029
v -0.00000 -0.50000 -4.36000
v -0.16971 -0.50000 -4.43029
v -0.24000 -0.50000 -4.60000
v -0.16971 -0.50000 -4.76971
v -0.00000 -0.50000 -4.84000
v 0.16971 -0.50000 -4.76971
v 0.16971 -0.35858 -4.60000
v 0.12000 -0.35858 -4.48000
v -0.00000 -0.35858 -4.43029
v -0.12000 -0.35858 -4.48000
v -0.16971 -0.35858 -4.60000
v -0.12000 -0.35858 -4.72000
v -0.00000 -0.35858 -4.76971
v 0.12000 -0.35858 -4.72000
v -0.00000 -0.70000 -4.60000
v -0.00000 -0.30000 -4.60000
v 0.53033 -0.20000 -0.31820
v 0.49552 -0.30593 -0.34552
v 0.41897 -0.34981 -0.41897
v 0.34552 -0.30593 -0.49552
v 0.31820 -0.20000 -0.53033
v 0.35301 -0.09407 -0.50301
v 0.42956 -0.05019 -0.42956
v 0.50301 -0.09407 -0.35301
v 3.34462 -0.40000 -3.16077
v 3.31445 -0.49181 -3.18445
v 3.24810 -0.52984 -3.24810
v 3.18445 -0.49181 -3.31445
v 3.16077 -0.40000 -3.34462
v 3.19094 -0.30819 -3.32094
v 3.25728 -0.27016 -3.25728
v 3.32094 -0.30819 -3.19094
v 0.42426 -0.20000 -0.42426
v 3.25269 -0.40000 -3.25269
v 3.42240 -0.64142 -3.25269
v 3.37269 -0.64142 -3.13269
v 3.25269 -0.64142 -3.08299
v 3.13269 -0.64142 -3.13269
v 3.08299 -0.64142 -3.25269
v 3.13269 -0.64142 -3.37269
v 3.25269 -0.64142 -3.42240
v 3.37269 -0.64142 -3.37269
v 3.49269 -0.50000 -3.25269
v 3.42240 -0.50000 -3.08299
v 3.25269 -0.50000 -3.01269
v 3.08299 -0.50000 -3.08299
v 3.01269 -0.50000 -3.25269
v 3.08299 -0.50000 -3.42240
v 3.25269 -0.50000 -3.49269
v 3.42240 -0.50000 -3.42240
v 3.42240 -0.35858 -3.25269
v 3.37269 -0.35858 -3.13269
v 3.25269 -0.35858 -3.08299
v 3.13269 -0.35858 -3.13269
v 3.08299 -0.35858 -3.25269
v 3.13269 -0.35858 -3.37269
v 3.25269 -0.35858 -3.42240
v 3.37269 -0.35858 -3.37269
v 3.25269 -0.70000 -3.25269
v 3.25269 -0.30000 -3.25269
v 5.07000 -0.35000 0.00000
v 5.01000 -0.24608 0.00000
v 4.89000 -0.24608 0.00000
v 4.83000 -0.35000 0.00000
v 4.89000 -0.45392 0.00000
v 5.01000 -0.45392 0.00000
v 5.02663 -0.35000 0.66177
v 4.96714 -0.24608 0.65394
v 4.84817 -0.24608 0.63827
v 4.78868 -0.35000 0.63044
v 4.84817 -0.45392 0.63827
v 4.96714 -0.45392 0.65394
v 4.89724 -0.35000 1.31221
v 4.83929 -0.24608 1.29668
v 4.72338 -0.24608 1.26563
v 4.66542 -0.35000 1.25010
v 4.72338 -0.45392 1.26563
v 4.83929 -0.45392 1.29668
v 4.68407 -0.35000 1.94021
v 4.62864 -0.24608 1.91724
v 4.51777 -0.24608 1.87132
v 4.46234 -0.35000 1.84836
v 4.51777 -0.45392 1.87132
v 4.62864 -0.45392 1.91724
v 4.39075 -0.35000 2.53500
v 4.33879 -0.24608 2.50500
v 4.23486 -0.24608 2.44500
v 4.18290 -0.35000 2.41500
v 4.23486 -0.45392 2.44500
v 4.33879 -0.45392 2.50500
v 4.02230 -0.35000 3.08642
v 3.97470 -0.24608 3.04989
v 3.87950 -0.24608 2.97684
v 3.83190 -0.35000 2.94032
v 3.87950 -0.45392 2.97684
v 3.97470 -0.45392 3.04989
v 3.58503 -0.35000 3.58503
v 3.54260 -0.24608 3.54260
v 3.45775 -0.24608 3.45775
v 3.41533 -0.35000 3.41533
v 3.45775 -0.45392 3.45775
v 3.54260 -0.45392 3.54260
v 3.08642 -0.35000 4.02230
v 3.04989 -0.24608 3.97470
v 2.97684 -0.24608 3.87950
v 2.94032 -0.35000 3.83190
v 2.97684 -0.45392 3.87950
v 3.04989 -0.45392 3.97470
v 2.53500 -0.35000 4.39075
v 2.50500 -0.24608 4.33879
v 2.44500 -0.24608 4.23486
v 2.41500 -0.35000 4.18290
v 2.44500 -0.45392 4.23486
v 2.50500 -0.45392 4.33879
v 1.94021 -0.35000 4.68407
v 1.91724 -0.24608 4.62864
v 1.87132 -0.24608 4.51777
v 1.84836 -0.35000 4.46234
v 1.87132 -0.45392 4.51777
v 1.91724 -0.45392 4.62864
v 1.31221 -0.35000 4.89724
v 1.29668 -0.24608 4.83929
v 1.26563 -0.24608 4.72338
v 1.25010 -0.35000 4.66542
v 1.26563 -0.45392 4.72338
v 1.29668 -0.45392 4.83929
v 0.66177 -0.35000 5.02663
v 0.65394 -0.24608 4.96714
v 0.63827 -0.24608 4.84817
v 0.63044 -0.35000 4.78868
v 0.63827 -0.45392 4.84817
v 0.65394 -0.45392 4.96714
v 0.00000 -0.35000 5.07000
v 0.00000 -0.24608 5.01000
v 0.00000 -0.24608 4.89000
v 0.00000 -0.35000 4.83000
v 0.00000 -0.45392 4.89000
v 0.00000 -0.45392 5.01000
v -0.66177 -0.35000 5.02663
v -0.65394 -0.24608 4.96714
v -0.63827 -0.24608 4.84817
v -0.63044 -0.35000 4.78868
v -0.63827 -0.45392 4.84817
v -0.65394 -0.45392 4.96714
v -1.31221 -0.35000 4.89724
v -1.29668 -0.24608 4.83929
v -1.26563 -0.24608 4.72338
v -1.25010 -0.35000 4.66542
v -1.26563 -0.45392 4.72338
v -1.29668 -0.45392 4.83929
v -1.94021 -0.35000 4.68407
v -1.91724 -0.24608 4.62864
v -1.87132 -0.24608 4.51777
v -1.84836 -0.35000 4.46234
v -1.87132 -0.45392 4.51777
v -1.91724 -0.45392 4.62864
v -2.53500 -0.35000 4.39075
v -2.50500 -0.24608 4.33879
v -2.44500 -0.24608 4.23486
v -2.41500 -0.35000 4.18290
v -2.44500 -0.45392 4.23486
v -2.50500 -0.45392 4.33879
v -3.08642 -0.35000 4.02230
v -3.04989 -0.24608 3.97470
v -2.97684 -0.24608 3.87950
v -2.94032 -0.35000 3.83190
v -2.97684 -0.45392 3.87950
v -3.04989 -0.45392 3.97470
v -3.58503 -0.35000 3.58503
v -3.54260 -0.24608 3.54260
v -3.45775 -0.24608 3.45775
v -3.41533 -0.35000 3.41533
v -3.45775 -0.45392 3.45775
v -3.54260 -0.45392 3.54260
v -4.02230 -0.35000 3.08642
v -3.97470 -0.24608 3.04989
v -3.87950 -0.24608 2.97684
v -3.83190 -0.35000 2.94032
v -3.87950 -0.45392 2.97684
v -3.97470 -0.45392 3.04989
v -4.39075 -0.35000 2.53500
v -4.33879 -0.24608 2.50500
v -4.23486 -0.24608 2.44500
v -4.18290 -0.35000 2.41500
v -4.23486 -0.45392 2.44500
v -4.33879 -0.45392 2.50500
v -4.68407 -0.35000 1.94021
v -4.62864 -0.24608 1.91724
v -4.51777 -0.24608 1.87132
v -4.46234 -0.35000 1.84836
v -4.51777 -0.45392 1.87132
v -4.62864 -0.45392 1.91724
v -4.89724 -0.35000 1.31221
v -4.83929 -0.24608 1.29668
v -4.72338 -0.24608 1.26563
v -4.66542 -0.35000 1.25010
v -4.72338 -0.45392 1.26563
v -4.83929 -0.45392 1.29668
v -5.02663 -0.35000 0.66177
v -4.96714 -0.24608 0.65394
v -4.84817 -0.24608 0.63827
v -4.78868 -0.35000 0.63044
v -4.84817 -0.45392 0.63827
v -4.96714 -0.45392 0.65394
v -5.07000 -0.35000 0.00000
v -5.01000 -0.24608 0.00000
v -4.89000 -0.24608 0.00000
v -4.83000 -0.35000 0.00000
v -4.89000 -0.45392 0.00000
v -5.01000 -0.45392 0.00000
v -5.02663 -0.35000 -0.66177
v -4.96714 -0.24608 -0.65394
v -4.84817 -0.24608 -0.63827
v -4.78868 -0.35000 -0.63044
v -4.84817 -0.45392 -0.63827
v -4.96714 -0.45392 -0.65394
v -4.89724 -0.35000 -1.31221
v -4.83929 -0.24608 -1.29668
v -4.72338 -0.24608 -1.26563
v -4.66542 -0.35000 -1.25010
v -4.72338 -0.45392 -1.26563
v -4.83929 -0.45392 -1.29668
v -4.68407 -0.35000 -1.94021
v -4.62864 -0.24608 -1.91724
v -4.51777 -0.24608 -1.87132
v -4.46234 -0.35000 -1.84836
v -4.51777 -0.45392 -1.87132
v -4.62864 -0.45392 -1.91724
v -4.39075 -0.35000 -2.53500
v -4.33879 -0.24608 -2.50500
v -4.23486 -0.24608 -2.44500
v -4.18290 -0.35000 -2.41500
v -4.23486 -0.45392 -2.44500
v -4.33879 -0.45392 -2.50500
v -4.02230 -0.35000 -3.08642
v -3.97470 -0.24608 -3.04989
v -3.87950 -0.24608 -2.97684
v -3.83190 -0.35000 -2.94032
v -3.87950 -0.45392 -2.97684
v -3.97470 -0.45392 -3.04989
v -3.58503 -0.35000 -3.58503
v -3.54260 -0.24608 -3.54260
v -3.45775 -0.24608 -3.45775
v -3.41533 -0.35000 -3.41533
v -3.45775 -0.45392 -3.45775
v -3.54260 -0.45392 -3.54260
v -3.08642 -0.35000 -4.02230
v -3.04989 -0.24608 -3.97470
v -2.97684 -0.24608 -3.87950
v -2.94032 -0.35000 -3.83190
v -2.97684 -0.45392 -3.87950
v -3.04989 -0.45392 -3.97470
v -2.53500 -0.35000 -4.39075
v -2.50500 -0.24608 -4.33879
v -2.44500 -0.24608 -4.23486
v -2.41500 -0.35000 -4.18290
v -2.44500 -0.45392 -4.23486
v -2.50500 -0.45392 -4.33879
v -1.94021 -0.35000 -4.68407
v -1.91724 -0.24608 -4.62864
v -1.87132 -0.24608 -4.51777
v -1.84836 -0.35000 -4.46234
v -1.87132 -0.45392 -4.51777
v -1.91724 -0.45392 -4.62864
v -1.31221 -0.35000 -4.89724
v -1.29668 -0.24608 -4.83929
v -1.26563 -0.24608 -4.72338
v -1.25010 -0.35000 -4.66542
v -1.26563 -0.45392 -4.72338
v -1.29668 -0.45392 -4.83929
v -0.66177 -0.35000 -5.02663
v -0.65394 -0.24608 -4.96714
v -0.63827 -0.24608 -4.84817
v -0.63044 -0.35000 -4.78868
v -0.63827 -0.45392 -4.84817
v -0.65394 -0.45392 -4.96714
v -0.00000 -0.35000 -5.07000
v -0.00000 -0.24608 -5.01000
v -0.00000 -0.24608 -4.89000
v -0.00000 -0.35000 -4.83000
v -0.00000 -0.45392 -4.89000
v -0.00000 -0.45392 -5.01000
v 0.66177 -0.35000 -5.02663
v 0.65394 -0.24608 -4.96714
v 0.63827 -0.24608 -4.84817
v 0.63044 -0.35000 -4.78868
v 0.63827 -0.45392 -4.84817
v 0.65394 -0.45392 -4.96714
v 1.31221 -0.35000 -4.89724
v 1.29668 -0.24608 -4.83929
v 1.26563 -0.24608 -4.72338
v 1.25010 -0.35000 -4.66542
v 1.26563 -0.45392 -4.72338
v 1.29668 -0.45392 -4.83929
v 1.94021 -0.35000 -4.68407
v 1.91724 -0.24608 -4.62864
v 1.87132 -0.24608 -4.51777
v 1.84836 -0.35000 -4.46234
v 1.87132 -0.45392 -4.51777
v 1.91724 -0.45392 -4.62864
v 2.53500 -0.35000 -4.39075
v 2.50500 -0.24608 -4.33879
v 2.44500 -0.24608 -4.23486
v 2.41500 -0.35000 -4.18290
v 2.44500 -0.45392 -4.23486
v 2.50500 -0.45392 -4.33879
v 3.08642 -0.35000 -4.02230
v 3.04989 -0.24608 -3.97470
v 2.97684 -0.24608 -3.87950
v 2.94032 -0.35000 -3.83190
v 2.97684 -0.45392 -3.87950
v 3.04989 -0.45392 -3.97470
v 3.58503 -0.35000 -3.58503
v 3.54260 -0.24608 -3.54260
v 3.45775 -0.24608 -3.45775
v 3.41533 -0.35000 -3.41533
v 3.45775 -0.45392 -3.45775
v 3.54260 -0.45392 -3.54260
v 4.02230 -0.35000 -3.08642
v 3.97470 -0.24608 -3.04989
v 3.87950 -0.24608 -2.97684
v 3.83190 -0.35000 -2.94032
v 3.87950 -0.45392 -2.97684
v 3.97470 -0.45392 -3.04989
v 4.39075 -0.35000 -2.53500
v 4.33879 -0.24608 -2.50500
v 4.23486 -0.24608 -2.44500
v 4.18290 -0.35000 -2.41500
v 4.23486 -0.45392 -2.44500
v 4.33879 -0.45392 -2.50500
v 4.68407 -0.35000 -1.94021
v 4.62864 -0.24608 -1.91724
v 4.51777 -0.24608 -1.87132
v 4.46234 -0.35000 -1.84836
v 4.51777 -0.45392 -1.87132
v 4.62864 -0.45392 -1.91724
v 4.89724 -0.35000 -1.31221
v 4.83929 -0.24608 -1.29668
v 4.72338 -0.24608 -1.26563
v 4.66542 -0.35000 -1.25010
v 4.72338 -0.45392 -1.26563
v 4.83929 -0.45392 -1.29668
v 5.02663 -0.35000 -0.66177
v 4.96714 -0.24608 -0.65394
v 4.84817 -0.24608 -0.63827
v 4.78868 -0.35000 -0.63044
v 4.84817 -0.45392 -0.63827
v 4.96714 -0.45392 -0.65394
v 5.46258 -0.36500 0.00000
v 5.40629 -0.36500 0.09750
v 5.29371 -0.36500 0.09750
v 5.23742 -0.36500 0.00000
v 5.29371 -0.36500 -0.09750
v 5.40629 -0.36500 -0.09750
v 5.46258 -0.23500 0.00000
v 5.40629 -0.23500 0.09750
v 5.29371 -0.23500 0.09750
v 5.23742 -0.23500 0.00000
v 5.29371 -0.23500 -0.09750
v 5.40629 -0.23500 -0.09750
v 5.35000 -0.43000 0.00000
v 5.35000 -0.17000 0.00000
v 5.28029 -0.36500 1.38468
v 5.22399 -0.36500 1.48218
v 5.11141 -0.36500 1.48218
v 5.05512 -0.36500 1.38468
v 5.11141 -0.36500 1.28718
v 5.22399 -0.36500 1.28718
v 5.28029 -0.23500 1.38468
v 5.22399 -0.23500 1.48218
v 5.11141 -0.23500 1.48218
v 5.05512 -0.23500 1.38468
v 5.11141 -0.23500 1.28718
v 5.22399 -0.23500 1.28718
v 5.16770 -0.43000 1.38468
v 5.16770 -0.17000 1.38468
v 4.74582 -0.36500 2.67500
v 4.68953 -0.36500 2.77250
v 4.57694 -0.36500 2.77250
v 4.52065 -0.36500 2.67500
v 4.57694 -0.36500 2.57750
v 4.68953 -0.36500 2.57750
v 4.74582 -0.23500 2.67500
v 4.68953 -0.23500 2.77250
v 4.57694 -0.23500 2.77250
v 4.52065 -0.23500 2.67500
v 4.57694 -0.23500 2.57750
v 4.68953 -0.23500 2.57750
v 4.63324 -0.43000 2.67500
v 4.63324 -0.17000 2.67500
v 3.89560 -0.36500 3.78302
v 3.83931 -0.36500 3.88052
v 3.72673 -0.36500 3.88052
v 3.67044 -0.36500 3.78302
v 3.72673 -0.36500 3.68552
v 3.83931 -0.36500 3.68552
v 3.89560 -0.23500 3.78302
v 3.83931 -0.23500 3.88052
v 3.72673 -0.23500 3.88052
v 3.67044 -0.23500 3.78302
v 3.72673 -0.23500 3.68552
v 3.83931 -0.23500 3.68552
v 3.78302 -0.43000 3.78302
v 3.78302 -0.17000 3.78302
v 2.78758 -0.36500 4.63324
v 2.73129 -0.36500 4.73074
v 2.61871 -0.36500 4.73074
v 2.56242 -0.36500 4.63324
v 2.61871 -0.36500 4.53574
v 2.73129 -0.36500 4.53574
v 2.78758 -0.23500 4.63324
v 2.73129 -0.23500 4.73074
v 2.61871 -0.23500 4.73074
v 2.56242 -0.23500 4.63324
v 2.61871 -0.23500 4.53574
v 2.73129 -0.23500 4.53574
v 2.67500 -0.43000 4.63324
v 2.67500 -0.17000 4.63324
v 1.49727 -0.36500 5.16770
v 1.44097 -0.36500 5.26520
v 1.32839 -0.36500 5.26520
v 1.27210 -0.36500 5.16770
v 1.32839 -0.36500 5.07020
v 1.44097 -0.36500 5.07020
v 1.49727 -0.23500 5.16770
v 1.44097 -0.23500 5.26520
v 1.32839 -0.23500 5.26520
v 1.27210 -0.23500 5.16770
v 1.32839 -0.23500 5.07020
v 1.44097 -0.23500 5.07020
v 1.38468 -0.43000 5.16770
v 1.38468 -0.17000 5.16770
v 0.11258 -0.36500 5.35000
v 0.05629 -0.36500 5.44750
v -0.05629 -0.36500 5.44750
v -0.11258 -0.36500 5.35000
v -0.05629 -0.36500 5.25250
v 0.05629 -0.36500 5.25250
v 0.11258 -0.23500 5.35000
v 0.05629 -0.23500 5.44750
v -0.05629 -0.23500 5.44750
v -0.11258 -0.23500 5.35000
v -0.05629 -0.23500 5.25250
v 0.05629 -0.23500 5.25250
v 0.00000 -0.43000 5.35000
v 0.00000 -0.17000 5.35000
v -1.27210 -0.36500 5.16770
v -1.32839 -0.36500 5.26520
v -1.44097 -0.36500 5.26520
v -1.49727 -0.36500 5.16770
v -1.44097 -0.36500 5.07020
v -1.32839 -0.36500 5.07020
v -1.27210 -0.23500 5.16770
v -1.32839 -0.23500 5.26520
v -1.44097 -0.23500 5.26520
v -1.49727 -0.23500 5.16770
v -1.44097 -0.23500 5.07020
v -1.32839 -0.23500 5.07020
v -1.38468 -0.43000 5.16770
v -1.38468 -0.17000 5.16770
v -2.56242 -0.36500 4.63324
v -2.61871 -0.36500 4.73074
v -2.73129 -0.36500 4.73074
v -2.78758 -0.36500 4.63324
v -2.73129 -0.36500 4.53574
v -2.61871 -0.36500 4.53574
v -2.56242 -0.23500 4.63324
v -2.61871 -0.23500 4.73074
v -2.73129 -0.23500 4.73074
v -2.78758 -0.23500 4.63324
v -2.73129 -0.23500 4.53574
v -2.61871 -0.23500 4.53574
v -2.67500 -0.43000 4.63324
v -2.67500 -0.17000 4.63324
v -3.67044 -0.36500 3.78302
v -3.72673 -0.36500 3.88052
v -3.83931 -0.36500 3.88052
v -3.89560 -0.36500 3.78302
v -3.83931 -0.36500 3.68552
v -3.72673 -0.36500 3.68552
v -3.67044 -0.23500 3.78302
v -3.72673 -0.23500 3.88052
v -3.83931 -0.23500 3.88052
v -3.89560 -0.23500 3.78302
v -3.83931 -0.23500 3.68552
v -3.72673 -0.23500 3.68552
v -3.78302 -0.43000 3.78302
v -3.78302 -0.17000 3.78302
v -4.52065 -0.36500 2.67500
v -4.57694 -0.36500 2.77250
v -4.68953 -0.36500 2.77250
v -4.74582 -0.36500 2.67500
v -4.68953 -0.36500 2.57750
v -4.57694 -0.36500 2.57750
v -4.52065 -0.23500 2.67500
v -4.57694 -0.23500 2.77250
v -4.68953 -0.23500 2.77250
v -4.74582 -0.23500 2.67500
v -4.68953 -0.23500 2.57750
v -4.57694 -0.23500 2.57750
v -4.63324 -0.43000 2.67500
v -4.63324 -0.17000 2.67500
v -5.05512 -0.36500 1.38468
v -5.11141 -0.36500 1.48218
v -5.22399 -0.36500 1.48218
v -5.28029 -0.36500 1.38468
v -5.22399 -0.36500 1.28718
v -5.11141 -0.36500 1.28718
v -5.05512 -0.23500 1.38468
v -5.11141 -0.23500 1.48218
v -5.22399 -0.23500 1.48218
v -5.28029 -0.23500 1.38468
v -5.22399 -0.23500 1.28718
v -5.11141 -0.23500 1.28718
v -5.16770 -0.43000 1.38468
v -5.16770 -0.17000 1.38468
v -5.23742 -0.36500 0.00000
v -5.29371 -0.36500 0.09750
v -5.40629 -0.36500 0.09750
v -5.46258 -0.36500 0.00000
v -5.40629 -0.36500 -0.09750
v -5.29371 -0.36500 -0.09750
v -5.23742 -0.23500 0.00000
v -5.29371 -0.23500 0.09750
v -5.40629 -0.23500 0.09750
v -5.46258 -0.23500 0.00000
v -5.40629 -0.23500 -0.09750
v -5.29371 -0.23500 -0.09750
v -5.35000 -0.43000 0.00000
v -5.35000 -0.17000 0.00000
v -5.05512 -0.36500 -1.38468
v -5.11141 -0.36500 -1.28718
v -5.22399 -0.36500 -1.28718
v -5.28029 -0.36500 -1.38468
v -5.22399 -0.36500 -1.48218
v -5.11141 -0.36500 -1.48218
v -5.05512 -0.23500 -1.38468
v -5.11141 -0.23500 -1.28718
v -5.22399 -0.23500 -1.28718
v -5.28029 -0.23500 -1.38468
v -5.22399 -0.23500 -1.48218
v -5.11141 -0.23500 -1.48218
v -5.16770 -0.43000 -1.38468
v -5.16770 -0.17000 -1.38468
v -4.52065 -0.36500 -2.67500
v -4.57694 -0.36500 -2.57750
v -4.68953 -0.36500 -2.57750
v -4.74582 -0.36500 -2.67500
v -4.68953 -0.36500 -2.77250
v -4.57694 -0.36500 -2.77250
v -4.52065 -0.23500 -2.67500
v -4.57694 -0.23500 -2.57750
v -4.68953 -0.23500 -2.57750
v -4.74582 -0.23500 -2.67500
v -4.68953 -0.23500 -2.77250
v -4.57694 -0.23500 -2.77250
v -4.63324 -0.43000 -2.67500
v -4.63324 -0.17000 -2.67500
v -3.67044 -0.36500 -3.78302
v -3.72673 -0.36500 -3.68552
v -3.83931 -0.36500 -3.68552
v -3.89560 -0.36500 -3.78302
v -3.83931 -0.36500 -3.88052
v -3.72673 -0.36500 -3.88052
v -3.67044 -0.23500 -3.78302
v -3.72673 -0.23500 -3.68552
v -3.83931 -0.23500 -3.68552
v -3.89560 -0.23500 -3.78302
v -3.83931 -0.23500 -3.88052
v -3.72673 -0.23500 -3.88052
v -3.78302 -0.43000 -3.78302
v -3.78302 -0.17000 -3.78302
v -2.56242 -0.36500 -4.63324
v -2.61871 -0.36500 -4.53574
v -2.73129 -0.36500 -4.53574
v -2.78758 -0.36500 -4.63324
v -2.73129 -0.36500 -4.73074
v -2.61871 -0.36500 -4.73074
v -2.56242 -0.23500 -4.63324
v -2.61871 -0.23500 -4.53574
v -2.73129 -0.23500 -4.53574
v -2.78758 -0.23500 -4.63324
v -2.73129 -0.23500 -4.73074
v -2.61871 -0.23500 -4.73074
v -2.67500 -0.43000 -4.63324
v -2.67500 -0.17000 -4.63324
v -1.27210 -0.36500 -5.16770
v -1.32839 -0.36500 -5.07020
v -1.44097 -0.36500 -5.07020
v -1.49727 -0.36500 -5.16770
v -1.44097 -0.36500 -5.26520
v -1.32839 -0.36500 -5.26520
v -1.27210 -0.23500 -5.16770
v -1.32839 -0.23500 -5.07020
v -1.44097 -0.23500 -5.07020
v -1.49727 -0.23500 -5.16770
v -1.44097 -0.23500 -5.26520
v -1.32839 -0.23500 -5.26520
v -1.38468 -0.43000 -5.16770
v -1.38468 -0.17000 -5.16770
v 0.11258 -0.36500 -5.35000
v 0.05629 -0.36500 -5.25250
v -0.05629 -0.36500 -5.25250
v -0.11258 -0.36500 -5.35000
v -0.05629 -0.36500 -5.44750
v 0.05629 -0.36500 -5.44750
v 0.11258 -0.23500 -5.35000
v 0.05629 -0.23500 -5.25250
v -0.05629 -0.23500 -5.25250
v -0.11258 -0.23500 -5.35000
v -0.05629 -0.23500 -5.44750
v 0.05629 -0.23500 -5.44750
v -0.00000 -0.43000 -5.35000
v -0.00000 -0.17000 -5.35000
v 1.49727 -0.36500 -5.16770
v 1.44097 -0.36500 -5.07020
v 1.32839 -0.36500 -5.07020
v 1.27210 -0.36500 -5.16770
v 1.32839 -0.36500 -5.26520
v 1.44097 -0.36500 -5.26520
v 1.49727 -0.23500 -5.16770
v 1.44097 -0.23500 -5.07020
v 1.32839 -0.23500 -5.07020
v 1.27210 -0.23500 -5.16770
v 1.32839 -0.23500 -5.26520
v 1.44097 -0.23500 -5.26520
v 1.38468 -0.43000 -5.16770
v 1.38468 -0.17000 -5.16770
v 2.78758 -0.36500 -4.63324
v 2.73129 -0.36500 -4.53574
v 2.61871 -0.36500 -4.53574
v 2.56242 -0.36500 -4.63324
v 2.61871 -0.36500 -4.73074
v 2.73129 -0.36500 -4.73074
v 2.78758 -0.23500 -4.63324
v 2.73129 -0.23500 -4.53574
v 2.61871 -0.23500 -4.53574
v 2.56242 -0.23500 -4.63324
v 2.61871 -0.23500 -4.73074
v 2.73129 -0.23500 -4.73074
v 2.67500 -0.43000 -4.63324
v 2.67500 -0.17000 -4.63324
v 3.89560 -0.36500 -3.78302
v 3.83931 -0.36500 -3.68552
v 3.72673 -0.36500 -3.68552
v 3.67044 -0.36500 -3.78302
v 3.72673 -0.36500 -3.88052
v 3.83931 -0.36500 -3.88052
v 3.89560 -0.23500 -3.78302
v 3.83931 -0.23500 -3.68552
v 3.72673 -0.23500 -3.68552
v 3.67044 -0.23500 -3.78302
v 3.72673 -0.23500 -3.88052
v 3.83931 -0.23500 -3.88052
v 3.78302 -0.43000 -3.78302
v 3.78302 -0.17000 -3.78302
v 4.74582 -0.36500 -2.67500
v 4.68953 -0.36500 -2.57750
v 4.57694 -0.36500 -2.57750
v 4.52065 -0.36500 -2.67500
v 4.57694 -0.36500 -2.77250
v 4.68953 -0.36500 -2.77250
v 4.74582 -0.23500 -2.67500
v 4.68953 -0.23500 -2.57750
v 4.57694 -0.23500 -2.57750
v 4.52065 -0.23500 -2.67500
v 4.57694 -0.23500 -2.77250
v 4.68953 -0.23500 -2.77250
v 4.63324 -0.43000 -2.67500
v 4.63324 -0.17000 -2.67500
v 5.28029 -0.36500 -1.38468
v 5.22399 -0.36500 -1.28718
v 5.11141 -0.36500 -1.28718
v 5.05512 -0.36500 -1.38468
v 5.11141 -0.36500 -1.48218
v 5.22399 -0.36500 -1.48218
v 5.28029 -0.23500 -1.38468
v 5.22399 -0.23500 -1.28718
v 5.11141 -0.23500 -1.28718
v 5.05512 -0.23500 -1.38468
v 5.11141 -0.23500 -1.48218
v 5.22399 -0.23500 -1.48218
v 5.16770 -0.43000 -1.38468
v 5.16770 -0.17000 -1.38468
v 0.00000 2.30000 0.00000
v 0.00000 2.30000 0.00000
v 1.60000 1.75000 0.00000
v 1.47821 1.75000 0.61229
v 3.30000 1.20000 0.00000
v 3.04880 1.20000 1.26286
v 5.40000 0.55000 0.00000
v 4.98895 0.55000 2.06649
v 0.00000 2.30000 0.00000
v 0.00000 2.30000 0.00000
v 1.47821 1.75000 0.61229
v 1.13137 1.75000 1.13137
v 3.04880 1.20000 1.26286
v 2.33345 1.20000 2.33345
v 4.98895 0.55000 2.06649
v 3.81838 0.55000 3.81838
v 0.00000 2.30000 0.00000
v 0.00000 2.30000 0.00000
v 1.13137 1.75000 1.13137
v 0.61229 1.75000 1.47821
v 2.33345 1.20000 2.33345
v 1.26286 1.20000 3.04880
v 3.81838 0.55000 3.81838
v 2.06649 0.55000 4.98895
v 0.00000 2.30000 0.00000
v 0.00000 2.30000 0.00000
v 0.61229 1.75000 1.47821
v 0.00000 1.75000 1.60000
v 1.26286 1.20000 3.04880
v 0.00000 1.20000 3.30000
v 2.06649 0.55000 4.98895
v 0.00000 0.55000 5.40000
v 0.00000 2.30000 0.00000
v -0.00000 2.30000 0.00000
v 0.00000 1.75000 1.60000
v -0.61229 1.75000 1.47821
v 0.00000 1.20000 3.30000
v -1.26286 1.20000 3.04880
v 0.00000 0.55000 5.40000
v -2.06649 0.55000 4.98895
v -0.00000 2.30000 0.00000
v -0.00000 2.30000 0.00000
v -0.61229 1.75000 1.47821
v -1.13137 1.75000 1.13137
v -1.26286 1.20000 3.04880
v -2.33345 1.20000 2.33345
v -2.06649 0.55000 4.98895
v -3.81838 0.55000 3.81838
v -0.00000 2.30000 0.00000
v -0.00000 2.30000 0.00000
v -1.13137 1.75000 1.13137
v -1.47821 1.75000 0.61229
v -2.33345 1.20000 2.33345
v -3.04880 1.20000 1.26286
v -3.81838 0.55000 3.81838
v -4.98895 0.55000 2.06649
v -0.00000 2.30000 0.00000
v -0.00000 2.30000 0.00000
v -1.47821 1.75000 0.61229
v -1.60000 1.75000 0.00000
v -3.04880 1.20000 1.26286
v -3.30000 1.20000 0.00000
v -4.98895 0.55000 2.06649
v -5.40000 0.55000 0.00000
v -0.00000 2.30000 0.00000
v -0.00000 2.30000 -0.00000
v -1.60000 1.75000 0.00000
v -1.47821 1.75000 -0.61229
v -3.30000 1.20000 0.00000
v -3.04880 1.20000 -1.26286
v -5.40000 0.55000 0.00000
v -4.98895 0.55000 -2.06649
v -0.00000 2.30000 -0.00000
v -0.00000 2.30000 -0.00000
v -1.47821 1.75000 -0.61229
v -1.13137 1.75000 -1.13137
v -3.04880 1.20000 -1.26286
v -2.33345 1.20000 -2.33345
v -4.98895 0.55000 -2.06649
v -3.81838 0.55000 -3.81838
v -0.00000 2.30000 -0.00000
v -0.00000 2.30000 -0.00000
v -1.13137 1.75000 -1.13137
v -0.61229 1.75000 -1.47821
v -2.33345 1.20000 -2.33345
v -1.26286 1.20000 -3.04880
v -3.81838 0.55000 -3.81838
v -2.06649 0.55000 -4.98895
v -0.00000 2.30000 -0.00000
v -0.00000 2.30000 -0.00000
v -0.61229 1.75000 -1.47821
v -0.00000 1.75000 -1.60000
v -1.26286 1.20000 -3.04880
v -0.00000 1.20000 -3.30000
v -2.06649 0.55000 -4.98895
v -0.00000 0.55000 -5.40000
v -0.00000 2.30000 -0.00000
v 0.00000 2.30000 -0.00000
v -0.00000 1.75000 -1.60000
v 0.61229 1.75000 -1.47821
v -0.00000 1.20000 -3.30000
v 1.26286 1.20000 -3.04880
v -0.00000 0.55000 -5.40000
v 2.06649 0.55000 -4.98895
v 0.00000 2.30000 -0.00000
v 0.00000 2.30000 -0.00000
v 0.61229 1.75000 -1.47821
v 1.13137 1.75000 -1.13137
v 1.26286 1.20000 -3.04880
v 2.33345 1.20000 -2.33345
v 2.06649 0.55000 -4.98895
v 3.81838 0.55000 -3.81838
v 0.00000 2.30000 -0.00000
v 0.00000 2.30000 -0.00000
v 1.13137 1.75000 -1.13137
v 1.47821 1.75000 -0.61229
v 2.33345 1.20000 -2.33345
v 3.04880 1.20000 -1.26286
v 3.81838 0.55000 -3.81838
v 4.98895 0.55000 -2.06649
v 0.00000 2.30000 -0.00000
v 0.00000 2.30000 -0.00000
v 1.47821 1.75000 -0.61229
v 1.60000 1.75000 -0.00000
v 3.04880 1.20000 -1.26286
v 3.30000 1.20000 -0.00000
v 4.98895 0.55000 -2.06649
v 5.40000 0.55000 -0.00000
v 5.53000 0.50000 0.00000
v 5.46500 0.61258 0.00000
v 5.33500 0.61258 0.00000
v 5.27000 0.50000 0.00000
v 5.33500 0.38742 0.00000
v 5.46500 0.38742 0.00000
v 5.48269 0.50000 0.72181
v 5.41825 0.61258 0.71333
v 5.28936 0.61258 0.69636
v 5.22491 0.50000 0.68787
v 5.28936 0.38742 0.69636
v 5.41825 0.38742 0.71333
v 5.34157 0.50000 1.43127
v 5.27878 0.61258 1.41445
v 5.15321 0.61258 1.38080
v 5.09043 0.50000 1.36398
v 5.15321 0.38742 1.38080
v 5.27878 0.38742 1.41445
v 5.10905 0.50000 2.11624
v 5.04900 0.61258 2.09136
v 4.92890 0.61258 2.04162
v 4.86885 0.50000 2.01674
v 4.92890 0.38742 2.04162
v 5.04900 0.38742 2.09136
v 4.78912 0.50000 2.76500
v 4.73283 0.61258 2.73250
v 4.62025 0.61258 2.66750
v 4.56395 0.50000 2.63500
v 4.62025 0.38742 2.66750
v 4.73283 0.38742 2.73250
v 4.38724 0.50000 3.36645
v 4.33568 0.61258 3.32688
v 4.23254 0.61258 3.24774
v 4.18097 0.50000 3.20817
v 4.23254 0.38742 3.24774
v 4.33568 0.38742 3.32688
v 3.91030 0.50000 3.91030
v 3.86434 0.61258 3.86434
v 3.77241 0.61258 3.77241
v 3.72645 0.50000 3.72645
v 3.77241 0.38742 3.77241
v 3.86434 0.38742 3.86434
v 3.36645 0.50000 4.38724
v 3.32688 0.61258 4.33568
v 3.24774 0.61258 4.23254
v 3.20817 0.50000 4.18097
v 3.24774 0.38742 4.23254
v 3.32688 0.38742 4.33568
v 2.76500 0.50000 4.78912
v 2.73250 0.61258 4.73283
v 2.66750 0.61258 4.62025
v 2.63500 0.50000 4.56395
v 2.66750 0.38742 4.62025
v 2.73250 0.38742 4.73283
v 2.11624 0.50000 5.10905
v 2.09136 0.61258 5.04900
v 2.04162 0.61258 4.92890
v 2.01674 0.50000 4.86885
v 2.04162 0.38742 4.92890
v 2.09136 0.38742 5.04900
v 1.43127 0.50000 5.34157
v 1.41445 0.61258 5.27878
v 1.38080 0.61258 5.15321
v 1.36398 0.50000 5.09043
v 1.38080 0.38742 5.15321
v 1.41445 0.38742 5.27878
v 0.72181 0.50000 5.48269
v 0.71333 0.61258 5.41825
v 0.69636 0.61258 5.28936
v 0.68787 0.50000 5.22491
v 0.69636 0.38742 5.28936
v 0.71333 0.38742 5.41825
v 0.00000 0.50000 5.53000
v 0.00000 0.61258 5.46500
v 0.00000 0.61258 5.33500
v 0.00000 0.50000 5.27000
v 0.00000 0.38742 5.33500
v 0.00000 0.38742 5.46500
v -0.72181 0.50000 5.48269
v -0.71333 0.61258 5.41825
v -0.69636 0.61258 5.28936
v -0.68787 0.50000 5.22491
v -0.69636 0.38742 5.28936
v -0.71333 0.38742 5.41825
v -1.43127 0.50000 5.34157
v -1.41445 0.61258 5.27878
v -1.38080 0.61258 5.15321
v -1.36398 0.50000 5.09043
v -1.38080 0.38742 5.15321
v -1.41445 0.38742 5.27878
v -2.11624 0.50000 5.10905
v -2.09136 0.61258 5.04900
v -2.04162 0.61258 4.92890
v -2.01674 0.50000 4.86885
v -2.04162 0.38742 4.92890
v -2.09136 0.38742 5.04900
v -2.76500 0.50000 4.78912
v -2.73250 0.61258 4.73283
v -2.66750 0.61258 4.62025
v -2.63500 0.50000 4.56395
v -2.66750 0.38742 4.62025
v -2.73250 0.38742 4.73283
v -3.36645 0.50000 4.38724
v -3.32688 0.61258 4.33568
v -3.24774 0.61258 4.23254
v -3.20817 0.50000 4.18097
v -3.24774 0.38742 4.23254
v -3.32688 0.38742 4.33568
v -3.91030 0.50000 3.91030
v -3.86434 0.61258 3.86434
v -3.77241 0.61258 3.77241
v -3.72645 0.50000 3.72645
v -3.77241 0.38742 3.77241
v -3.86434 0.38742 3.86434
v -4.38724 0.50000 3.36645
v -4.33568 0.61258 3.32688
v -4.23254 0.61258 3.24774
v -4.18097 0.50000 3.20817
v -4.23254 0.38742 3.24774
v -4.33568 0.38742 3.32688
v -4.78912 0.50000 2.76500
v -4.73283 0.61258 2.73250
v -4.62025 0.61258 2.66750
v -4.56395 0.50000 2.63500
v -4.62025 0.38742 2.66750
v -4.73283 0.38742 2.73250
v -5.10905 0.50000 2.11624
v -5.04900 0.61258 2.09136
v -4.92890 0.61258 2.04162
v -4.86885 0.50000 2.01674
v -4.92890 0.38742 2.04162
v -5.04900 0.38742 2.09136
v -5.34157 0.50000 1.43127
v -5.27878 0.61258 1.41445
v -5.15321 0.61258 1.38080
v -5.09043 0.50000 1.36398
v -5.15321 0.38742 1.38080
v -5.27878 0.38742 1.41445
v -5.48269 0.50000 0.72181
v -5.41825 0.61258 0.71333
v -5.28936 0.61258 0.69636
v -5.22491 0.50000 0.68787
v -5.28936 0.38742 0.69636
v -5.41825 0.38742 0.71333
v -5.53000 0.50000 0.00000
v -5.46500 0.61258 0.00000
v -5.33500 0.61258 0.00000
v -5.27000 0.50000 0.00000
v -5.33500 0.38742 0.00000
v -5.46500 0.38742 0.00000
v -5.48269 0.50000 -0.72181
v -5.41825 0.61258 -0.71333
v -5.28936 0.61258 -0.69636
v -5.22491 0.50000 -0.68787
v -5.28936 0.38742 -0.69636
v -5.41825 0.38742 -0.71333
v -5.34157 0.50000 -1.43127
v -5.27878 0.61258 -1.41445
v -5.15321 0.61258 -1.38080
v -5.09043 0.50000 -1.36398
v -5.15321 0.38742 -1.38080
v -5.27878 0.38742 -1.41445
v -5.10905 0.50000 -2.11624
v -5.04900 0.61258 -2.09136
v -4.92890 0.61258 -2.04162
v -4.86885 0.50000 -2.01674
v -4.92890 0.38742 -2.04162
v -5.04900 0.38742 -2.09136
v -4.78912 0.50000 -2.76500
v -4.73283 0.61258 -2.73250
v -4.62025 0.61258 -2.66750
v -4.56395 0.50000 -2.63500
v -4.62025 0.38742 -2.66750
v -4.73283 0.38742 -2.73250
v -4.38724 0.50000 -3.36645
v -4.33568 0.61258 -3.32688
v -4.23254 0.61258 -3.24774
v -4.18097 0.50000 -3.20817
v -4.23254 0.38742 -3.24774
v -4.33568 0.38742 -3.32688
v -3.91030 0.50000 -3.91030
v -3.86434 0.61258 -3.86434
v -3.77241 0.61258 -3.77241
v -3.72645 0.50000 -3.72645
v -3.77241 0.38742 -3.77241
v -3.86434 0.38742 -3.86434
v -3.36645 0.50000 -4.38724
v -3.32688 0.61258 -4.33568
v -3.24774 0.61258 -4.23254
v -3.20817 0.50000 -4.18097
v -3.24774 0.38742 -4.23254
v -3.32688 0.38742 -4.33568
v -2.76500 0.50000 -4.78912
v -2.73250 0.61258 -4.73283
v -2.66750 0.61258 -4.62025
v -2.63500 0.50000 -4.56395
v -2.66750 0.38742 -4.62025
v -2.73250 0.38742 -4.73283
v -2.11624 0.50000 -5.10905
v -2.09136 0.61258 -5.04900
v -2.04162 0.61258 -4.92890
v -2.01674 0.50000 -4.86885
v -2.04162 0.38742 -4.92890
v -2.09136 0.38742 -5.04900
v -1.43127 0.50000 -5.34157
v -1.41445 0.61258 -5.27878
v -1.38080 0.61258 -5.15321
v -1.36398 0.50000 -5.09043
v -1.38080 0.38742 -5.15321
v -1.41445 0.38742 -5.27878
v -0.72181 0.50000 -5.48269
v -0.71333 0.61258 -5.41825
v -0.69636 0.61258 -5.28936
v -0.68787 0.50000 -5.22491
v -0.69636 0.38742 -5.28936
v -0.71333 0.38742 -5.41825
v -0.00000 0.50000 -5.53000
v -0.00000 0.61258 -5.46500
v -0.00000 0.61258 -5.33500
v -0.00000 0.50000 -5.27000
v -0.00000 0.38742 -5.33500
v -0.00000 0.38742 -5.46500
v 0.72181 0.50000 -5.48269
v 0.71333 0.61258 -5.41825
v 0.69636 0.61258 -5.28936
v 0.68787 0.50000 -5.22491
v 0.69636 0.38742 -5.28936
v 0.71333 0.38742 -5.41825
v 1.43127 0.50000 -5.34157
v 1.41445 0.61258 -5.27878
v 1.38080 0.61258 -5.15321
v 1.36398 0.50000 -5.09043
v 1.38080 0.38742 -5.15321
v 1.41445 0.38742 -5.27878
v 2.11624 0.50000 -5.10905
v 2.09136 0.61258 -5.04900
v 2.04162 0.61258 -4.92890
v 2.01674 0.50000 -4.86885
v 2.04162 0.38742 -4.92890
v 2.09136 0.38742 -5.04900
v 2.76500 0.50000 -4.78912
v 2.73250 0.61258 -4.73283
v 2.66750 0.61258 -4.62025
v 2.63500 0.50000 -4.56395
v 2.66750 0.38742 -4.62025
v 2.73250 0.38742 -4.73283
v 3.36645 0.50000 -4.38724
v 3.32688 0.61258 -4.33568
v 3.24774 0.61258 -4.23254
v 3.20817 0.50000 -4.18097
v 3.24774 0.38742 -4.23254
v 3.32688 0.38742 -4.33568
v 3.91030 0.50000 -3.91030
v 3.86434 0.61258 -3.86434
v 3.77241 0.61258 -3.77241
v 3.72645 0.50000 -3.72645
v 3.77241 0.38742 -3.77241
v 3.86434 0.38742 -3.86434
v 4.38724 0.50000 -3.36645
v 4.33568 0.61258 -3.32688
v 4.23254 0.61258 -3.24774
v 4.18097 0.50000 -3.20817
v 4.23254 0.38742 -3.24774
v 4.33568 0.38742 -3.32688
v 4.78912 0.50000 -2.76500
v 4.73283 0.61258 -2.73250
v 4.62025 0.61258 -2.66750
v 4.56395 0.50000 -2.63500
v 4.62025 0.38742 -2.66750
v 4.73283 0.38742 -2.73250
v 5.10905 0.50000 -2.11624
v 5.04900 0.61258 -2.09136
v 4.92890 0.61258 -2.04162
v 4.86885 0.50000 -2.01674
v 4.92890 0.38742 -2.04162
v 5.04900 0.38742 -2.09136
v 5.34157 0.50000 -1.43127
v 5.27878 0.61258 -1.41445
v 5.15321 0.61258 -1.38080
v 5.09043 0.50000 -1.36398
v 5.15321 0.38742 -1.38080
v 5.27878 0.38742 -1.41445
v 5.48269 0.50000 -0.72181
v 5.41825 0.61258 -0.71333
v 5.28936 0.61258 -0.69636
v 5.22491 0.50000 -0.68787
v 5.28936 0.38742 -0.69636
v 5.41825 0.38742 -0.71333
v 0.00000 2.20000 -0.16000
v -0.11314 2.20000 -0.11314
v -0.16000 2.20000 -0.00000
v -0.11314 2.20000 0.11314
v -0.00000 2.20000 0.16000
v 0.11314 2.20000 0.11314
v 0.16000 2.20000 0.00000
v 0.11314 2.20000 -0.11314
v 0.00000 3.00000 -0.10000
v -0.07071 3.00000 -0.07071
v -0.10000 3.00000 -0.00000
v -0.07071 3.00000 0.07071
v -0.00000 3.00000 0.10000
v 0.07071 3.00000 0.07071
v 0.10000 3.00000 0.00000
v 0.07071 3.00000 -0.07071
v 0.00000 2.20000 0.00000
v 0.00000 3.00000 0.00000
v 0.00000 3.75000 -0.12000
v -0.10110 3.48915 -0.12000
v -0.38042 3.47361 -0.12000
v -0.16358 3.29685 -0.12000
v -0.23511 3.02639 -0.12000
v -0.00000 3.17800 -0.12000
v 0.23511 3.02639 -0.12000
v 0.16358 3.29685 -0.12000
v 0.38042 3.47361 -0.12000
v 0.10110 3.48915 -0.12000
v 0.00000 3.75000 0.12000
v -0.10110 3.48915 0.12000
v -0.38042 3.47361 0.12000
v -0.16358 3.29685 0.12000
v -0.23511 3.02639 0.12000
v -0.00000 3.17800 0.12000
v 0.23511 3.02639 0.12000
v 0.16358 3.29685 0.12000
v 0.38042 3.47361 0.12000
v 0.10110 3.48915 0.12000
v 0.00000 3.35000 -0.12000
v 0.00000 3.35000 0.12000
vt 0.05000 0.50000
vt 0.15000 0.50000
vt 0.25000 0.50000
vt 0.35000 0.50000
vt 0.45000 0.50000
vt 0.55000 0.50000
vt 0.65000 0.50000
vt 0.75000 0.50000
vt 0.85000 0.50000
vt 0.95000 0.50000
usemtl gold
f 25/4 26/4 2/4 1/4
f 26/4 27/4 3/4 2/4
f 27/4 28/4 4/4 3/4
f 28/4 29/4 5/4 4/4
f 29/4 30/4 6/4 5/4
f 30/4 31/4 7/4 6/4
f 31/4 32/4 8/4 7/4
f 32/4 33/4 9/4 8/4
f 33/4 34/4 10/4 9/4
f 34/4 35/4 11/4 10/4
f 35/4 36/4 12/4 11/4
f 36/4 37/4 13/4 12/4
f 37/4 38/4 14/4 13/4
f 38/4 39/4 15/4 14/4
f 39/4 40/4 16/4 15/4
f 40/4 41/4 17/4 16/4
f 41/4 42/4 18/4 17/4
f 42/4 43/4 19/4 18/4
f 43/4 44/4 20/4 19/4
f 44/4 45/4 21/4 20/4
f 45/4 46/4 22/4 21/4
f 46/4 47/4 23/4 22/4
f 47/4 48/4 24/4 23/4
f 48/4 25/4 1/4 24/4
f 97/4 98/4 74/4 73/4
f 98/4 99/4 75/4 74/4
f 99/4 100/4 76/4 75/4
f 100/4 101/4 77/4 76/4
f 101/4 102/4 78/4 77/4
f 102/4 103/4 79/4 78/4
f 103/4 104/4 80/4 79/4
f 104/4 105/4 81/4 80/4
f 105/4 106/4 82/4 81/4
f 106/4 107/4 83/4 82/4
f 107/4 108/4 84/4 83/4
f 108/4 109/4 85/4 84/4
f 109/4 110/4 86/4 85/4
f 110/4 111/4 87/4 86/4
f 111/4 112/4 88/4 87/4
f 112/4 113/4 89/4 88/4
f 113/4 114/4 90/4 89/4
f 114/4 115/4 91/4 90/4
f 115/4 116/4 92/4 91/4
f 116/4 117/4 93/4 92/4
f 117/4 118/4 94/4 93/4
f 118/4 119/4 95/4 94/4
f 119/4 120/4 96/4 95/4
f 120/4 97/4 73/4 96/4
f 121/4 122/4 98/4 97/4
f 122/4 123/4 99/4 98/4
f 123/4 124/4 100/4 99/4
f 124/4 125/4 101/4 100/4
f 125/4 126/4 102/4 101/4
f 126/4 127/4 103/4 102/4
f 127/4 128/4 104/4 103/4
f 128/4 129/4 105/4 104/4
f 129/4 130/4 106/4 105/4
f 130/4 131/4 107/4 106/4
f 131/4 132/4 108/4 107/4
f 132/4 133/4 109/4 108/4
f 133/4 134/4 110/4 109/4
f 134/4 135/4 111/4 110/4
f 135/4 136/4 112/4 111/4
f 136/4 137/4 113/4 112/4
f 137/4 138/4 114/4 113/4
f 138/4 139/4 115/4 114/4
f 139/4 140/4 116/4 115/4
f 140/4 141/4 117/4 116/4
f 141/4 142/4 118/4 117/4
f 142/4 143/4 119/4 118/4
f 143/4 144/4 120/4 119/4
f 144/4 121/4 97/4 120/4
f 145/4 146/4 154/4 153/4
f 161/4 146/4 145/4
f 162/4 153/4 154/4
f 146/4 147/4 155/4 154/4
f 161/4 147/4 146/4
f 162/4 154/4 155/4
f 147/4 148/4 156/4 155/4
f 161/4 148/4 147/4
f 162/4 155/4 156/4
f 148/4 149/4 157/4 156/4
f 161/4 149/4 148/4
f 162/4 156/4 157/4
f 149/4 150/4 158/4 157/4
f 161/4 150/4 149/4
f 162/4 157/4 158/4
f 150/4 151/4 159/4 158/4
f 161/4 151/4 150/4
f 162/4 158/4 159/4
f 151/4 152/4 160/4 159/4
f 161/4 152/4 151/4
f 162/4 159/4 160/4
f 152/4 145/4 153/4 160/4
f 161/4 145/4 152/4
f 162/4 160/4 153/4
f 189/4 190/4 198/4 197/4
f 205/4 190/4 189/4
f 206/4 197/4 198/4
f 190/4 191/4 199/4 198/4
f 205/4 191/4 190/4
f 206/4 198/4 199/4
f 191/4 192/4 200/4 199/4
f 205/4 192/4 191/4
f 206/4 199/4 200/4
f 192/4 193/4 201/4 200/4
f 205/4 193/4 192/4
f 206/4 200/4 201/4
f 193/4 194/4 202/4 201/4
f 205/4 194/4 193/4
f 206/4 201/4 202/4
f 194/4 195/4 203/4 202/4
f 205/4 195/4 194/4
f 206/4 202/4 203/4
f 195/4 196/4 204/4 203/4
f 205/4 196/4 195/4
f 206/4 203/4 204/4
f 196/4 189/4 197/4 204/4
f 205/4 189/4 196/4
f 206/4 204/4 197/4
f 233/4 234/4 242/4 241/4
f 249/4 234/4 233/4
f 250/4 241/4 242/4
f 234/4 235/4 243/4 242/4
f 249/4 235/4 234/4
f 250/4 242/4 243/4
f 235/4 236/4 244/4 243/4
f 249/4 236/4 235/4
f 250/4 243/4 244/4
f 236/4 237/4 245/4 244/4
f 249/4 237/4 236/4
f 250/4 244/4 245/4
f 237/4 238/4 246/4 245/4
f 249/4 238/4 237/4
f 250/4 245/4 246/4
f 238/4 239/4 247/4 246/4
f 249/4 239/4 238/4
f 250/4 246/4 247/4
f 239/4 240/4 248/4 247/4
f 249/4 240/4 239/4
f 250/4 247/4 248/4
f 240/4 233/4 241/4 248/4
f 249/4 233/4 240/4
f 250/4 248/4 241/4
f 277/4 278/4 286/4 285/4
f 293/4 278/4 277/4
f 294/4 285/4 286/4
f 278/4 279/4 287/4 286/4
f 293/4 279/4 278/4
f 294/4 286/4 287/4
f 279/4 280/4 288/4 287/4
f 293/4 280/4 279/4
f 294/4 287/4 288/4
f 280/4 281/4 289/4 288/4
f 293/4 281/4 280/4
f 294/4 288/4 289/4
f 281/4 282/4 290/4 289/4
f 293/4 282/4 281/4
f 294/4 289/4 290/4
f 282/4 283/4 291/4 290/4
f 293/4 283/4 282/4
f 294/4 290/4 291/4
f 283/4 284/4 292/4 291/4
f 293/4 284/4 283/4
f 294/4 291/4 292/4
f 284/4 277/4 285/4 292/4
f 293/4 277/4 284/4
f 294/4 292/4 285/4
f 321/4 322/4 330/4 329/4
f 337/4 322/4 321/4
f 338/4 329/4 330/4
f 322/4 323/4 331/4 330/4
f 337/4 323/4 322/4
f 338/4 330/4 331/4
f 323/4 324/4 332/4 331/4
f 337/4 324/4 323/4
f 338/4 331/4 332/4
f 324/4 325/4 333/4 332/4
f 337/4 325/4 324/4
f 338/4 332/4 333/4
f 325/4 326/4 334/4 333/4
f 337/4 326/4 325/4
f 338/4 333/4 334/4
f 326/4 327/4 335/4 334/4
f 337/4 327/4 326/4
f 338/4 334/4 335/4
f 327/4 328/4 336/4 335/4
f 337/4 328/4 327/4
f 338/4 335/4 336/4
f 328/4 321/4 329/4 336/4
f 337/4 321/4 328/4
f 338/4 336/4 329/4
f 365/4 366/4 374/4 373/4
f 381/4 366/4 365/4
f 382/4 373/4 374/4
f 366/4 367/4 375/4 374/4
f 381/4 367/4 366/4
f 382/4 374/4 375/4
f 367/4 368/4 376/4 375/4
f 381/4 368/4 367/4
f 382/4 375/4 376/4
f 368/4 369/4 377/4 376/4
f 381/4 369/4 368/4
f 382/4 376/4 377/4
f 369/4 370/4 378/4 377/4
f 381/4 370/4 369/4
f 382/4 377/4 378/4
f 370/4 371/4 379/4 378/4
f 381/4 371/4 370/4
f 382/4 378/4 379/4
f 371/4 372/4 380/4 379/4
f 381/4 372/4 371/4
f 382/4 379/4 380/4
f 372/4 365/4 373/4 380/4
f 381/4 365/4 372/4
f 382/4 380/4 373/4
f 409/4 410/4 418/4 417/4
f 425/4 410/4 409/4
f 426/4 417/4 418/4
f 410/4 411/4 419/4 418/4
f 425/4 411/4 410/4
f 426/4 418/4 419/4
f 411/4 412/4 420/4 419/4
f 425/4 412/4 411/4
f 426/4 419/4 420/4
f 412/4 413/4 421/4 420/4
f 425/4 413/4 412/4
f 426/4 420/4 421/4
f 413/4 414/4 422/4 421/4
f 425/4 414/4 413/4
f 426/4 421/4 422/4
f 414/4 415/4 423/4 422/4
f 425/4 415/4 414/4
f 426/4 422/4 423/4
f 415/4 416/4 424/4 423/4
f 425/4 416/4 415/4
f 426/4 423/4 424/4
f 416/4 409/4 417/4 424/4
f 425/4 409/4 416/4
f 426/4 424/4 417/4
f 453/4 454/4 462/4 461/4
f 469/4 454/4 453/4
f 470/4 461/4 462/4
f 454/4 455/4 463/4 462/4
f 469/4 455/4 454/4
f 470/4 462/4 463/4
f 455/4 456/4 464/4 463/4
f 469/4 456/4 455/4
f 470/4 463/4 464/4
f 456/4 457/4 465/4 464/4
f 469/4 457/4 456/4
f 470/4 464/4 465/4
f 457/4 458/4 466/4 465/4
f 469/4 458/4 457/4
f 470/4 465/4 466/4
f 458/4 459/4 467/4 466/4
f 469/4 459/4 458/4
f 470/4 466/4 467/4
f 459/4 460/4 468/4 467/4
f 469/4 460/4 459/4
f 470/4 467/4 468/4
f 460/4 453/4 461/4 468/4
f 469/4 453/4 460/4
f 470/4 468/4 461/4
f 799/4 800/4 811/4
f 806/4 805/4 812/4
f 800/4 801/4 811/4
f 807/4 806/4 812/4
f 801/4 802/4 811/4
f 808/4 807/4 812/4
f 802/4 803/4 811/4
f 809/4 808/4 812/4
f 803/4 804/4 811/4
f 810/4 809/4 812/4
f 804/4 799/4 811/4
f 805/4 810/4 812/4
f 805/4 806/4 800/4 799/4
f 806/4 807/4 801/4 800/4
f 807/4 808/4 802/4 801/4
f 808/4 809/4 803/4 802/4
f 809/4 810/4 804/4 803/4
f 810/4 805/4 799/4 804/4
f 827/4 828/4 839/4
f 834/4 833/4 840/4
f 828/4 829/4 839/4
f 835/4 834/4 840/4
f 829/4 830/4 839/4
f 836/4 835/4 840/4
f 830/4 831/4 839/4
f 837/4 836/4 840/4
f 831/4 832/4 839/4
f 838/4 837/4 840/4
f 832/4 827/4 839/4
f 833/4 838/4 840/4
f 833/4 834/4 828/4 827/4
f 834/4 835/4 829/4 828/4
f 835/4 836/4 830/4 829/4
f 836/4 837/4 831/4 830/4
f 837/4 838/4 832/4 831/4
f 838/4 833/4 827/4 832/4
f 855/4 856/4 867/4
f 862/4 861/4 868/4
f 856/4 857/4 867/4
f 863/4 862/4 868/4
f 857/4 858/4 867/4
f 864/4 863/4 868/4
f 858/4 859/4 867/4
f 865/4 864/4 868/4
f 859/4 860/4 867/4
f 866/4 865/4 868/4
f 860/4 855/4 867/4
f 861/4 866/4 868/4
f 861/4 862/4 856/4 855/4
f 862/4 863/4 857/4 856/4
f 863/4 864/4 858/4 857/4
f 864/4 865/4 859/4 858/4
f 865/4 866/4 860/4 859/4
f 866/4 861/4 855/4 860/4
f 883/4 884/4 895/4
f 890/4 889/4 896/4
f 884/4 885/4 895/4
f 891/4 890/4 896/4
f 885/4 886/4 895/4
f 892/4 891/4 896/4
f 886/4 887/4 895/4
f 893/4 892/4 896/4
f 887/4 888/4 895/4
f 894/4 893/4 896/4
f 888/4 883/4 895/4
f 889/4 894/4 896/4
f 889/4 890/4 884/4 883/4
f 890/4 891/4 885/4 884/4
f 891/4 892/4 886/4 885/4
f 892/4 893/4 887/4 886/4
f 893/4 894/4 888/4 887/4
f 894/4 889/4 883/4 888/4
f 911/4 912/4 923/4
f 918/4 917/4 924/4
f 912/4 913/4 923/4
f 919/4 918/4 924/4
f 913/4 914/4 923/4
f 920/4 919/4 924/4
f 914/4 915/4 923/4
f 921/4 920/4 924/4
f 915/4 916/4 923/4
f 922/4 921/4 924/4
f 916/4 911/4 923/4
f 917/4 922/4 924/4
f 917/4 918/4 912/4 911/4
f 918/4 919/4 913/4 912/4
f 919/4 920/4 914/4 913/4
f 920/4 921/4 915/4 914/4
f 921/4 922/4 916/4 915/4
f 922/4 917/4 911/4 916/4
f 939/4 940/4 951/4
f 946/4 945/4 952/4
f 940/4 941/4 951/4
f 947/4 946/4 952/4
f 941/4 942/4 951/4
f 948/4 947/4 952/4
f 942/4 943/4 951/4
f 949/4 948/4 952/4
f 943/4 944/4 951/4
f 950/4 949/4 952/4
f 944/4 939/4 951/4
f 945/4 950/4 952/4
f 945/4 946/4 940/4 939/4
f 946/4 947/4 941/4 940/4
f 947/4 948/4 942/4 941/4
f 948/4 949/4 943/4 942/4
f 949/4 950/4 944/4 943/4
f 950/4 945/4 939/4 944/4
f 967/4 968/4 979/4
f 974/4 973/4 980/4
f 968/4 969/4 979/4
f 975/4 974/4 980/4
f 969/4 970/4 979/4
f 976/4 975/4 980/4
f 970/4 971/4 979/4
f 977/4 976/4 980/4
f 971/4 972/4 979/4
f 978/4 977/4 980/4
f 972/4 967/4 979/4
f 973/4 978/4 980/4
f 973/4 974/4 968/4 967/4
f 974/4 975/4 969/4 968/4
f 975/4 976/4 970/4 969/4
f 976/4 977/4 971/4 970/4
f 977/4 978/4 972/4 971/4
f 978/4 973/4 967/4 972/4
f 995/4 996/4 1007/4
f 1002/4 1001/4 1008/4
f 996/4 997/4 1007/4
f 1003/4 1002/4 1008/4
f 997/4 998/4 1007/4
f 1004/4 1003/4 1008/4
f 998/4 999/4 1007/4
f 1005/4 1004/4 1008/4
f 999/4 1000/4 1007/4
f 1006/4 1005/4 1008/4
f 1000/4 995/4 1007/4
f 1001/4 1006/4 1008/4
f 1001/4 1002/4 996/4 995/4
f 1002/4 1003/4 997/4 996/4
f 1003/4 1004/4 998/4 997/4
f 1004/4 1005/4 999/4 998/4
f 1005/4 1006/4 1000/4 999/4
f 1006/4 1001/4 995/4 1000/4
f 1023/4 1024/4 1035/4
f 1030/4 1029/4 1036/4
f 1024/4 1025/4 1035/4
f 1031/4 1030/4 1036/4
f 1025/4 1026/4 1035/4
f 1032/4 1031/4 1036/4
f 1026/4 1027/4 1035/4
f 1033/4 1032/4 1036/4
f 1027/4 1028/4 1035/4
f 1034/4 1033/4 1036/4
f 1028/4 1023/4 1035/4
f 1029/4 1034/4 1036/4
f 1029/4 1030/4 1024/4 1023/4
f 1030/4 1031/4 1025/4 1024/4
f 1031/4 1032/4 1026/4 1025/4
f 1032/4 1033/4 1027/4 1026/4
f 1033/4 1034/4 1028/4 1027/4
f 1034/4 1029/4 1023/4 1028/4
f 1051/4 1052/4 1063/4
f 1058/4 1057/4 1064/4
f 1052/4 1053/4 1063/4
f 1059/4 1058/4 1064/4
f 1053/4 1054/4 1063/4
f 1060/4 1059/4 1064/4
f 1054/4 1055/4 1063/4
f 1061/4 1060/4 1064/4
f 1055/4 1056/4 1063/4
f 1062/4 1061/4 1064/4
f 1056/4 1051/4 1063/4
f 1057/4 1062/4 1064/4
f 1057/4 1058/4 1052/4 1051/4
f 1058/4 1059/4 1053/4 1052/4
f 1059/4 1060/4 1054/4 1053/4
f 1060/4 1061/4 1055/4 1054/4
f 1061/4 1062/4 1056/4 1055/4
f 1062/4 1057/4 1051/4 1056/4
f 1079/4 1080/4 1091/4
f 1086/4 1085/4 1092/4
f 1080/4 1081/4 1091/4
f 1087/4 1086/4 1092/4
f 1081/4 1082/4 1091/4
f 1088/4 1087/4 1092/4
f 1082/4 1083/4 1091/4
f 1089/4 1088/4 1092/4
f 1083/4 1084/4 1091/4
f 1090/4 1089/4 1092/4
f 1084/4 1079/4 1091/4
f 1085/4 1090/4 1092/4
f 1085/4 1086/4 1080/4 1079/4
f 1086/4 1087/4 1081/4 1080/4
f 1087/4 1088/4 1082/4 1081/4
f 1088/4 1089/4 1083/4 1082/4
f 1089/4 1090/4 1084/4 1083/4
f 1090/4 1085/4 1079/4 1084/4
f 1107/4 1108/4 1119/4
f 1114/4 1113/4 1120/4
f 1108/4 1109/4 1119/4
f 1115/4 1114/4 1120/4
f 1109/4 1110/4 1119/4
f 1116/4 1115/4 1120/4
f 1110/4 1111/4 1119/4
f 1117/4 1116/4 1120/4
f 1111/4 1112/4 1119/4
f 1118/4 1117/4 1120/4
f 1112/4 1107/4 1119/4
f 1113/4 1118/4 1120/4
f 1113/4 1114/4 1108/4 1107/4
f 1114/4 1115/4 1109/4 1108/4
f 1115/4 1116/4 1110/4 1109/4
f 1116/4 1117/4 1111/4 1110/4
f 1117/4 1118/4 1112/4 1111/4
f 1118/4 1113/4 1107/4 1112/4
f 1249/4 1250/4 1256/4 1255/4
f 1250/4 1251/4 1257/4 1256/4
f 1251/4 1252/4 1258/4 1257/4
f 1252/4 1253/4 1259/4 1258/4
f 1253/4 1254/4 1260/4 1259/4
f 1254/4 1249/4 1255/4 1260/4
f 1255/4 1256/4 1262/4 1261/4
f 1256/4 1257/4 1263/4 1262/4
f 1257/4 1258/4 1264/4 1263/4
f 1258/4 1259/4 1265/4 1264/4
f 1259/4 1260/4 1266/4 1265/4
f 1260/4 1255/4 1261/4 1266/4
f 1261/4 1262/4 1268/4 1267/4
f 1262/4 1263/4 1269/4 1268/4
f 1263/4 1264/4 1270/4 1269/4
f 1264/4 1265/4 1271/4 1270/4
f 1265/4 1266/4 1272/4 1271/4
f 1266/4 1261/4 1267/4 1272/4
f 1267/4 1268/4 1274/4 1273/4
f 1268/4 1269/4 1275/4 1274/4
f 1269/4 1270/4 1276/4 1275/4
f 1270/4 1271/4 1277/4 1276/4
f 1271/4 1272/4 1278/4 1277/4
f 1272/4 1267/4 1273/4 1278/4
f 1273/4 1274/4 1280/4 1279/4
f 1274/4 1275/4 1281/4 1280/4
f 1275/4 1276/4 1282/4 1281/4
f 1276/4 1277/4 1283/4 1282/4
f 1277/4 1278/4 1284/4 1283/4
f 1278/4 1273/4 1279/4 1284/4
f 1279/4 1280/4 1286/4 1285/4
f 1280/4 1281/4 1287/4 1286/4
f 1281/4 1282/4 1288/4 1287/4
f 1282/4 1283/4 1289/4 1288/4
f 1283/4 1284/4 1290/4 1289/4
f 1284/4 1279/4 1285/4 1290/4
f 1285/4 1286/4 1292/4 1291/4
f 1286/4 1287/4 1293/4 1292/4
f 1287/4 1288/4 1294/4 1293/4
f 1288/4 1289/4 1295/4 1294/4
f 1289/4 1290/4 1296/4 1295/4
f 1290/4 1285/4 1291/4 1296/4
f 1291/4 1292/4 1298/4 1297/4
f 1292/4 1293/4 1299/4 1298/4
f 1293/4 1294/4 1300/4 1299/4
f 1294/4 1295/4 1301/4 1300/4
f 1295/4 1296/4 1302/4 1301/4
f 1296/4 1291/4 1297/4 1302/4
f 1297/4 1298/4 1304/4 1303/4
f 1298/4 1299/4 1305/4 1304/4
f 1299/4 1300/4 1306/4 1305/4
f 1300/4 1301/4 1307/4 1306/4
f 1301/4 1302/4 1308/4 1307/4
f 1302/4 1297/4 1303/4 1308/4
f 1303/4 1304/4 1310/4 1309/4
f 1304/4 1305/4 1311/4 1310/4
f 1305/4 1306/4 1312/4 1311/4
f 1306/4 1307/4 1313/4 1312/4
f 1307/4 1308/4 1314/4 1313/4
f 1308/4 1303/4 1309/4 1314/4
f 1309/4 1310/4 1316/4 1315/4
f 1310/4 1311/4 1317/4 1316/4
f 1311/4 1312/4 1318/4 1317/4
f 1312/4 1313/4 1319/4 1318/4
f 1313/4 1314/4 1320/4 1319/4
f 1314/4 1309/4 1315/4 1320/4
f 1315/4 1316/4 1322/4 1321/4
f 1316/4 1317/4 1323/4 1322/4
f 1317/4 1318/4 1324/4 1323/4
f 1318/4 1319/4 1325/4 1324/4
f 1319/4 1320/4 1326/4 1325/4
f 1320/4 1315/4 1321/4 1326/4
f 1321/4 1322/4 1328/4 1327/4
f 1322/4 1323/4 1329/4 1328/4
f 1323/4 1324/4 1330/4 1329/4
f 1324/4 1325/4 1331/4 1330/4
f 1325/4 1326/4 1332/4 1331/4
f 1326/4 1321/4 1327/4 1332/4
f 1327/4 1328/4 1334/4 1333/4
f 1328/4 1329/4 1335/4 1334/4
f 1329/4 1330/4 1336/4 1335/4
f 1330/4 1331/4 1337/4 1336/4
f 1331/4 1332/4 1338/4 1337/4
f 1332/4 1327/4 1333/4 1338/4
f 1333/4 1334/4 1340/4 1339/4
f 1334/4 1335/4 1341/4 1340/4
f 1335/4 1336/4 1342/4 1341/4
f 1336/4 1337/4 1343/4 1342/4
f 1337/4 1338/4 1344/4 1343/4
f 1338/4 1333/4 1339/4 1344/4
f 1339/4 1340/4 1346/4 1345/4
f 1340/4 1341/4 1347/4 1346/4
f 1341/4 1342/4 1348/4 1347/4
f 1342/4 1343/4 1349/4 1348/4
f 1343/4 1344/4 1350/4 1349/4
f 1344/4 1339/4 1345/4 1350/4
f 1345/4 1346/4 1352/4 1351/4
f 1346/4 1347/4 1353/4 1352/4
f 1347/4 1348/4 1354/4 1353/4
f 1348/4 1349/4 1355/4 1354/4
f 1349/4 1350/4 1356/4 1355/4
f 1350/4 1345/4 1351/4 1356/4
f 1351/4 1352/4 1358/4 1357/4
f 1352/4 1353/4 1359/4 1358/4
f 1353/4 1354/4 1360/4 1359/4
f 1354/4 1355/4 1361/4 1360/4
f 1355/4 1356/4 1362/4 1361/4
f 1356/4 1351/4 1357/4 1362/4
f 1357/4 1358/4 1364/4 1363/4
f 1358/4 1359/4 1365/4 1364/4
f 1359/4 1360/4 1366/4 1365/4
f 1360/4 1361/4 1367/4 1366/4
f 1361/4 1362/4 1368/4 1367/4
f 1362/4 1357/4 1363/4 1368/4
f 1363/4 1364/4 1370/4 1369/4
f 1364/4 1365/4 1371/4 1370/4
f 1365/4 1366/4 1372/4 1371/4
f 1366/4 1367/4 1373/4 1372/4
f 1367/4 1368/4 1374/4 1373/4
f 1368/4 1363/4 1369/4 1374/4
f 1369/4 1370/4 1376/4 1375/4
f 1370/4 1371/4 1377/4 1376/4
f 1371/4 1372/4 1378/4 1377/4
f 1372/4 1373/4 1379/4 1378/4
f 1373/4 1374/4 1380/4 1379/4
f 1374/4 1369/4 1375/4 1380/4
f 1375/4 1376/4 1382/4 1381/4
f 1376/4 1377/4 1383/4 1382/4
f 1377/4 1378/4 1384/4 1383/4
f 1378/4 1379/4 1385/4 1384/4
f 1379/4 1380/4 1386/4 1385/4
f 1380/4 1375/4 1381/4 1386/4
f 1381/4 1382/4 1388/4 1387/4
f 1382/4 1383/4 1389/4 1388/4
f 1383/4 1384/4 1390/4 1389/4
f 1384/4 1385/4 1391/4 1390/4
f 1385/4 1386/4 1392/4 1391/4
f 1386/4 1381/4 1387/4 1392/4
f 1387/4 1388/4 1394/4 1393/4
f 1388/4 1389/4 1395/4 1394/4
f 1389/4 1390/4 1396/4 1395/4
f 1390/4 1391/4 1397/4 1396/4
f 1391/4 1392/4 1398/4 1397/4
f 1392/4 1387/4 1393/4 1398/4
f 1393/4 1394/4 1400/4 1399/4
f 1394/4 1395/4 1401/4 1400/4
f 1395/4 1396/4 1402/4 1401/4
f 1396/4 1397/4 1403/4 1402/4
f 1397/4 1398/4 1404/4 1403/4
f 1398/4 1393/4 1399/4 1404/4
f 1399/4 1400/4 1406/4 1405/4
f 1400/4 1401/4 1407/4 1406/4
f 1401/4 1402/4 1408/4 1407/4
f 1402/4 1403/4 1409/4 1408/4
f 1403/4 1404/4 1410/4 1409/4
f 1404/4 1399/4 1405/4 1410/4
f 1405/4 1406/4 1412/4 1411/4
f 1406/4 1407/4 1413/4 1412/4
f 1407/4 1408/4 1414/4 1413/4
f 1408/4 1409/4 1415/4 1414/4
f 1409/4 1410/4 1416/4 1415/4
f 1410/4 1405/4 1411/4 1416/4
f 1411/4 1412/4 1418/4 1417/4
f 1412/4 1413/4 1419/4 1418/4
f 1413/4 1414/4 1420/4 1419/4
f 1414/4 1415/4 1421/4 1420/4
f 1415/4 1416/4 1422/4 1421/4
f 1416/4 1411/4 1417/4 1422/4
f 1417/4 1418/4 1424/4 1423/4
f 1418/4 1419/4 1425/4 1424/4
f 1419/4 1420/4 1426/4 1425/4
f 1420/4 1421/4 1427/4 1426/4
f 1421/4 1422/4 1428/4 1427/4
f 1422/4 1417/4 1423/4 1428/4
f 1423/4 1424/4 1430/4 1429/4
f 1424/4 1425/4 1431/4 1430/4
f 1425/4 1426/4 1432/4 1431/4
f 1426/4 1427/4 1433/4 1432/4
f 1427/4 1428/4 1434/4 1433/4
f 1428/4 1423/4 1429/4 1434/4
f 1429/4 1430/4 1436/4 1435/4
f 1430/4 1431/4 1437/4 1436/4
f 1431/4 1432/4 1438/4 1437/4
f 1432/4 1433/4 1439/4 1438/4
f 1433/4 1434/4 1440/4 1439/4
f 1434/4 1429/4 1435/4 1440/4
f 1435/4 1436/4 1442/4 1441/4
f 1436/4 1437/4 1443/4 1442/4
f 1437/4 1438/4 1444/4 1443/4
f 1438/4 1439/4 1445/4 1444/4
f 1439/4 1440/4 1446/4 1445/4
f 1440/4 1435/4 1441/4 1446/4
f 1441/4 1442/4 1448/4 1447/4
f 1442/4 1443/4 1449/4 1448/4
f 1443/4 1444/4 1450/4 1449/4
f 1444/4 1445/4 1451/4 1450/4
f 1445/4 1446/4 1452/4 1451/4
f 1446/4 1441/4 1447/4 1452/4
f 1447/4 1448/4 1454/4 1453/4
f 1448/4 1449/4 1455/4 1454/4
f 1449/4 1450/4 1456/4 1455/4
f 1450/4 1451/4 1457/4 1456/4
f 1451/4 1452/4 1458/4 1457/4
f 1452/4 1447/4 1453/4 1458/4
f 1453/4 1454/4 1460/4 1459/4
f 1454/4 1455/4 1461/4 1460/4
f 1455/4 1456/4 1462/4 1461/4
f 1456/4 1457/4 1463/4 1462/4
f 1457/4 1458/4 1464/4 1463/4
f 1458/4 1453/4 1459/4 1464/4
f 1459/4 1460/4 1466/4 1465/4
f 1460/4 1461/4 1467/4 1466/4
f 1461/4 1462/4 1468/4 1467/4
f 1462/4 1463/4 1469/4 1468/4
f 1463/4 1464/4 1470/4 1469/4
f 1464/4 1459/4 1465/4 1470/4
f 1465/4 1466/4 1472/4 1471/4
f 1466/4 1467/4 1473/4 1472/4
f 1467/4 1468/4 1474/4 1473/4
f 1468/4 1469/4 1475/4 1474/4
f 1469/4 1470/4 1476/4 1475/4
f 1470/4 1465/4 1471/4 1476/4
f 1471/4 1472/4 1478/4 1477/4
f 1472/4 1473/4 1479/4 1478/4
f 1473/4 1474/4 1480/4 1479/4
f 1474/4 1475/4 1481/4 1480/4
f 1475/4 1476/4 1482/4 1481/4
f 1476/4 1471/4 1477/4 1482/4
f 1477/4 1478/4 1484/4 1483/4
f 1478/4 1479/4 1485/4 1484/4
f 1479/4 1480/4 1486/4 1485/4
f 1480/4 1481/4 1487/4 1486/4
f 1481/4 1482/4 1488/4 1487/4
f 1482/4 1477/4 1483/4 1488/4
f 1483/4 1484/4 1490/4 1489/4
f 1484/4 1485/4 1491/4 1490/4
f 1485/4 1486/4 1492/4 1491/4
f 1486/4 1487/4 1493/4 1492/4
f 1487/4 1488/4 1494/4 1493/4
f 1488/4 1483/4 1489/4 1494/4
f 1489/4 1490/4 1496/4 1495/4
f 1490/4 1491/4 1497/4 1496/4
f 1491/4 1492/4 1498/4 1497/4
f 1492/4 1493/4 1499/4 1498/4
f 1493/4 1494/4 1500/4 1499/4
f 1494/4 1489/4 1495/4 1500/4
f 1495/4 1496/4 1502/4 1501/4
f 1496/4 1497/4 1503/4 1502/4
f 1497/4 1498/4 1504/4 1503/4
f 1498/4 1499/4 1505/4 1504/4
f 1499/4 1500/4 1506/4 1505/4
f 1500/4 1495/4 1501/4 1506/4
f 1501/4 1502/4 1508/4 1507/4
f 1502/4 1503/4 1509/4 1508/4
f 1503/4 1504/4 1510/4 1509/4
f 1504/4 1505/4 1511/4 1510/4
f 1505/4 1506/4 1512/4 1511/4
f 1506/4 1501/4 1507/4 1512/4
f 1507/4 1508/4 1514/4 1513/4
f 1508/4 1509/4 1515/4 1514/4
f 1509/4 1510/4 1516/4 1515/4
f 1510/4 1511/4 1517/4 1516/4
f 1511/4 1512/4 1518/4 1517/4
f 1512/4 1507/4 1513/4 1518/4
f 1513/4 1514/4 1520/4 1519/4
f 1514/4 1515/4 1521/4 1520/4
f 1515/4 1516/4 1522/4 1521/4
f 1516/4 1517/4 1523/4 1522/4
f 1517/4 1518/4 1524/4 1523/4
f 1518/4 1513/4 1519/4 1524/4
f 1519/4 1520/4 1526/4 1525/4
f 1520/4 1521/4 1527/4 1526/4
f 1521/4 1522/4 1528/4 1527/4
f 1522/4 1523/4 1529/4 1528/4
f 1523/4 1524/4 1530/4 1529/4
f 1524/4 1519/4 1525/4 1530/4
f 1525/4 1526/4 1532/4 1531/4
f 1526/4 1527/4 1533/4 1532/4
f 1527/4 1528/4 1534/4 1533/4
f 1528/4 1529/4 1535/4 1534/4
f 1529/4 1530/4 1536/4 1535/4
f 1530/4 1525/4 1531/4 1536/4
f 1531/4 1532/4 1250/4 1249/4
f 1532/4 1533/4 1251/4 1250/4
f 1533/4 1534/4 1252/4 1251/4
f 1534/4 1535/4 1253/4 1252/4
f 1535/4 1536/4 1254/4 1253/4
f 1536/4 1531/4 1249/4 1254/4
f 1537/4 1538/4 1546/4 1545/4
f 1553/4 1538/4 1537/4
f 1554/4 1545/4 1546/4
f 1538/4 1539/4 1547/4 1546/4
f 1553/4 1539/4 1538/4
f 1554/4 1546/4 1547/4
f 1539/4 1540/4 1548/4 1547/4
f 1553/4 1540/4 1539/4
f 1554/4 1547/4 1548/4
f 1540/4 1541/4 1549/4 1548/4
f 1553/4 1541/4 1540/4
f 1554/4 1548/4 1549/4
f 1541/4 1542/4 1550/4 1549/4
f 1553/4 1542/4 1541/4
f 1554/4 1549/4 1550/4
f 1542/4 1543/4 1551/4 1550/4
f 1553/4 1543/4 1542/4
f 1554/4 1550/4 1551/4
f 1543/4 1544/4 1552/4 1551/4
f 1553/4 1544/4 1543/4
f 1554/4 1551/4 1552/4
f 1544/4 1537/4 1545/4 1552/4
f 1553/4 1537/4 1544/4
f 1554/4 1552/4 1545/4
f 1556/4 1555/4 1575/4
f 1565/4 1566/4 1576/4
f 1556/4 1566/4 1565/4 1555/4
f 1557/4 1556/4 1575/4
f 1566/4 1567/4 1576/4
f 1557/4 1567/4 1566/4 1556/4
f 1558/4 1557/4 1575/4
f 1567/4 1568/4 1576/4
f 1558/4 1568/4 1567/4 1557/4
f 1559/4 1558/4 1575/4
f 1568/4 1569/4 1576/4
f 1559/4 1569/4 1568/4 1558/4
f 1560/4 1559/4 1575/4
f 1569/4 1570/4 1576/4
f 1560/4 1570/4 1569/4 1559/4
f 1561/4 1560/4 1575/4
f 1570/4 1571/4 1576/4
f 1561/4 1571/4 1570/4 1560/4
f 1562/4 1561/4 1575/4
f 1571/4 1572/4 1576/4
f 1562/4 1572/4 1571/4 1561/4
f 1563/4 1562/4 1575/4
f 1572/4 1573/4 1576/4
f 1563/4 1573/4 1572/4 1562/4
f 1564/4 1563/4 1575/4
f 1573/4 1574/4 1576/4
f 1564/4 1574/4 1573/4 1563/4
f 1555/4 1564/4 1575/4
f 1574/4 1565/4 1576/4
f 1555/4 1565/4 1574/4 1564/4
usemtl coral
f 49/2 50/2 26/2 25/2
f 50/2 51/2 27/2 26/2
f 51/2 52/2 28/2 27/2
f 52/2 53/2 29/2 28/2
f 53/2 54/2 30/2 29/2
f 54/2 55/2 31/2 30/2
f 55/2 56/2 32/2 31/2
f 56/2 57/2 33/2 32/2
f 57/2 58/2 34/2 33/2
f 58/2 59/2 35/2 34/2
f 59/2 60/2 36/2 35/2
f 60/2 61/2 37/2 36/2
f 61/2 62/2 38/2 37/2
f 62/2 63/2 39/2 38/2
f 63/2 64/2 40/2 39/2
f 64/2 65/2 41/2 40/2
f 65/2 66/2 42/2 41/2
f 66/2 67/2 43/2 42/2
f 67/2 68/2 44/2 43/2
f 68/2 69/2 45/2 44/2
f 69/2 70/2 46/2 45/2
f 70/2 71/2 47/2 46/2
f 71/2 72/2 48/2 47/2
f 72/2 49/2 25/2 48/2
f 163/2 164/2 187/2
f 180/2 179/2 188/2
f 164/2 165/2 187/2
f 181/2 180/2 188/2
f 165/2 166/2 187/2
f 182/2 181/2 188/2
f 166/2 167/2 187/2
f 183/2 182/2 188/2
f 167/2 168/2 187/2
f 184/2 183/2 188/2
f 168/2 169/2 187/2
f 185/2 184/2 188/2
f 169/2 170/2 187/2
f 186/2 185/2 188/2
f 170/2 163/2 187/2
f 179/2 186/2 188/2
f 171/2 172/2 164/2 163/2
f 172/2 173/2 165/2 164/2
f 173/2 174/2 166/2 165/2
f 174/2 175/2 167/2 166/2
f 175/2 176/2 168/2 167/2
f 176/2 177/2 169/2 168/2
f 177/2 178/2 170/2 169/2
f 178/2 171/2 163/2 170/2
f 179/2 180/2 172/2 171/2
f 180/2 181/2 173/2 172/2
f 181/2 182/2 174/2 173/2
f 182/2 183/2 175/2 174/2
f 183/2 184/2 176/2 175/2
f 184/2 185/2 177/2 176/2
f 185/2 186/2 178/2 177/2
f 186/2 179/2 171/2 178/2
f 207/2 208/2 231/2
f 224/2 223/2 232/2
f 208/2 209/2 231/2
f 225/2 224/2 232/2
f 209/2 210/2 231/2
f 226/2 225/2 232/2
f 210/2 211/2 231/2
f 227/2 226/2 232/2
f 211/2 212/2 231/2
f 228/2 227/2 232/2
f 212/2 213/2 231/2
f 229/2 228/2 232/2
f 213/2 214/2 231/2
f 230/2 229/2 232/2
f 214/2 207/2 231/2
f 223/2 230/2 232/2
f 215/2 216/2 208/2 207/2
f 216/2 217/2 209/2 208/2
f 217/2 218/2 210/2 209/2
f 218/2 219/2 211/2 210/2
f 219/2 220/2 212/2 211/2
f 220/2 221/2 213/2 212/2
f 221/2 222/2 214/2 213/2
f 222/2 215/2 207/2 214/2
f 223/2 224/2 216/2 215/2
f 224/2 225/2 217/2 216/2
f 225/2 226/2 218/2 217/2
f 226/2 227/2 219/2 218/2
f 227/2 228/2 220/2 219/2
f 228/2 229/2 221/2 220/2
f 229/2 230/2 222/2 221/2
f 230/2 223/2 215/2 222/2
f 251/2 252/2 275/2
f 268/2 267/2 276/2
f 252/2 253/2 275/2
f 269/2 268/2 276/2
f 253/2 254/2 275/2
f 270/2 269/2 276/2
f 254/2 255/2 275/2
f 271/2 270/2 276/2
f 255/2 256/2 275/2
f 272/2 271/2 276/2
f 256/2 257/2 275/2
f 273/2 272/2 276/2
f 257/2 258/2 275/2
f 274/2 273/2 276/2
f 258/2 251/2 275/2
f 267/2 274/2 276/2
f 259/2 260/2 252/2 251/2
f 260/2 261/2 253/2 252/2
f 261/2 262/2 254/2 253/2
f 262/2 263/2 255/2 254/2
f 263/2 264/2 256/2 255/2
f 264/2 265/2 257/2 256/2
f 265/2 266/2 258/2 257/2
f 266/2 259/2 251/2 258/2
f 267/2 268/2 260/2 259/2
f 268/2 269/2 261/2 260/2
f 269/2 270/2 262/2 261/2
f 270/2 271/2 263/2 262/2
f 271/2 272/2 264/2 263/2
f 272/2 273/2 265/2 264/2
f 273/2 274/2 266/2 265/2
f 274/2 267/2 259/2 266/2
f 295/2 296/2 319/2
f 312/2 311/2 320/2
f 296/2 297/2 319/2
f 313/2 312/2 320/2
f 297/2 298/2 319/2
f 314/2 313/2 320/2
f 298/2 299/2 319/2
f 315/2 314/2 320/2
f 299/2 300/2 319/2
f 316/2 315/2 320/2
f 300/2 301/2 319/2
f 317/2 316/2 320/2
f 301/2 302/2 319/2
f 318/2 317/2 320/2
f 302/2 295/2 319/2
f 311/2 318/2 320/2
f 303/2 304/2 296/2 295/2
f 304/2 305/2 297/2 296/2
f 305/2 306/2 298/2 297/2
f 306/2 307/2 299/2 298/2
f 307/2 308/2 300/2 299/2
f 308/2 309/2 301/2 300/2
f 309/2 310/2 302/2 301/2
f 310/2 303/2 295/2 302/2
f 311/2 312/2 304/2 303/2
f 312/2 313/2 305/2 304/2
f 313/2 314/2 306/2 305/2
f 314/2 315/2 307/2 306/2
f 315/2 316/2 308/2 307/2
f 316/2 317/2 309/2 308/2
f 317/2 318/2 310/2 309/2
f 318/2 311/2 303/2 310/2
f 339/2 340/2 363/2
f 356/2 355/2 364/2
f 340/2 341/2 363/2
f 357/2 356/2 364/2
f 341/2 342/2 363/2
f 358/2 357/2 364/2
f 342/2 343/2 363/2
f 359/2 358/2 364/2
f 343/2 344/2 363/2
f 360/2 359/2 364/2
f 344/2 345/2 363/2
f 361/2 360/2 364/2
f 345/2 346/2 363/2
f 362/2 361/2 364/2
f 346/2 339/2 363/2
f 355/2 362/2 364/2
f 347/2 348/2 340/2 339/2
f 348/2 349/2 341/2 340/2
f 349/2 350/2 342/2 341/2
f 350/2 351/2 343/2 342/2
f 351/2 352/2 344/2 343/2
f 352/2 353/2 345/2 344/2
f 353/2 354/2 346/2 345/2
f 354/2 347/2 339/2 346/2
f 355/2 356/2 348/2 347/2
f 356/2 357/2 349/2 348/2
f 357/2 358/2 350/2 349/2
f 358/2 359/2 351/2 350/2
f 359/2 360/2 352/2 351/2
f 360/2 361/2 353/2 352/2
f 361/2 362/2 354/2 353/2
f 362/2 355/2 347/2 354/2
f 383/2 384/2 407/2
f 400/2 399/2 408/2
f 384/2 385/2 407/2
f 401/2 400/2 408/2
f 385/2 386/2 407/2
f 402/2 401/2 408/2
f 386/2 387/2 407/2
f 403/2 402/2 408/2
f 387/2 388/2 407/2
f 404/2 403/2 408/2
f 388/2 389/2 407/2
f 405/2 404/2 408/2
f 389/2 390/2 407/2
f 406/2 405/2 408/2
f 390/2 383/2 407/2
f 399/2 406/2 408/2
f 391/2 392/2 384/2 383/2
f 392/2 393/2 385/2 384/2
f 393/2 394/2 386/2 385/2
f 394/2 395/2 387/2 386/2
f 395/2 396/2 388/2 387/2
f 396/2 397/2 389/2 388/2
f 397/2 398/2 390/2 389/2
f 398/2 391/2 383/2 390/2
f 399/2 400/2 392/2 391/2
f 400/2 401/2 393/2 392/2
f 401/2 402/2 394/2 393/2
f 402/2 403/2 395/2 394/2
f 403/2 404/2 396/2 395/2
f 404/2 405/2 397/2 396/2
f 405/2 406/2 398/2 397/2
f 406/2 399/2 391/2 398/2
f 427/2 428/2 451/2
f 444/2 443/2 452/2
f 428/2 429/2 451/2
f 445/2 444/2 452/2
f 429/2 430/2 451/2
f 446/2 445/2 452/2
f 430/2 431/2 451/2
f 447/2 446/2 452/2
f 431/2 432/2 451/2
f 448/2 447/2 452/2
f 432/2 433/2 451/2
f 449/2 448/2 452/2
f 433/2 434/2 451/2
f 450/2 449/2 452/2
f 434/2 427/2 451/2
f 443/2 450/2 452/2
f 435/2 436/2 428/2 427/2
f 436/2 437/2 429/2 428/2
f 437/2 438/2 430/2 429/2
f 438/2 439/2 431/2 430/2
f 439/2 440/2 432/2 431/2
f 440/2 441/2 433/2 432/2
f 441/2 442/2 434/2 433/2
f 442/2 435/2 427/2 434/2
f 443/2 444/2 436/2 435/2
f 444/2 445/2 437/2 436/2
f 445/2 446/2 438/2 437/2
f 446/2 447/2 439/2 438/2
f 447/2 448/2 440/2 439/2
f 448/2 449/2 441/2 440/2
f 449/2 450/2 442/2 441/2
f 450/2 443/2 435/2 442/2
f 471/2 472/2 495/2
f 488/2 487/2 496/2
f 472/2 473/2 495/2
f 489/2 488/2 496/2
f 473/2 474/2 495/2
f 490/2 489/2 496/2
f 474/2 475/2 495/2
f 491/2 490/2 496/2
f 475/2 476/2 495/2
f 492/2 491/2 496/2
f 476/2 477/2 495/2
f 493/2 492/2 496/2
f 477/2 478/2 495/2
f 494/2 493/2 496/2
f 478/2 471/2 495/2
f 487/2 494/2 496/2
f 479/2 480/2 472/2 471/2
f 480/2 481/2 473/2 472/2
f 481/2 482/2 474/2 473/2
f 482/2 483/2 475/2 474/2
f 483/2 484/2 476/2 475/2
f 484/2 485/2 477/2 476/2
f 485/2 486/2 478/2 477/2
f 486/2 479/2 471/2 478/2
f 487/2 488/2 480/2 479/2
f 488/2 489/2 481/2 480/2
f 489/2 490/2 482/2 481/2
f 490/2 491/2 483/2 482/2
f 491/2 492/2 484/2 483/2
f 492/2 493/2 485/2 484/2
f 493/2 494/2 486/2 485/2
f 494/2 487/2 479/2 486/2
f 1123/2 1124/2 1122/2 1121/2
f 1121/2 1122/2 1124/2 1123/2
f 1125/2 1126/2 1124/2 1123/2
f 1123/2 1124/2 1126/2 1125/2
f 1127/2 1128/2 1126/2 1125/2
f 1125/2 1126/2 1128/2 1127/2
f 1139/2 1140/2 1138/2 1137/2
f 1137/2 1138/2 1140/2 1139/2
f 1141/2 1142/2 1140/2 1139/2
f 1139/2 1140/2 1142/2 1141/2
f 1143/2 1144/2 1142/2 1141/2
f 1141/2 1142/2 1144/2 1143/2
f 1155/2 1156/2 1154/2 1153/2
f 1153/2 1154/2 1156/2 1155/2
f 1157/2 1158/2 1156/2 1155/2
f 1155/2 1156/2 1158/2 1157/2
f 1159/2 1160/2 1158/2 1157/2
f 1157/2 1158/2 1160/2 1159/2
f 1171/2 1172/2 1170/2 1169/2
f 1169/2 1170/2 1172/2 1171/2
f 1173/2 1174/2 1172/2 1171/2
f 1171/2 1172/2 1174/2 1173/2
f 1175/2 1176/2 1174/2 1173/2
f 1173/2 1174/2 1176/2 1175/2
f 1187/2 1188/2 1186/2 1185/2
f 1185/2 1186/2 1188/2 1187/2
f 1189/2 1190/2 1188/2 1187/2
f 1187/2 1188/2 1190/2 1189/2
f 1191/2 1192/2 1190/2 1189/2
f 1189/2 1190/2 1192/2 1191/2
f 1203/2 1204/2 1202/2 1201/2
f 1201/2 1202/2 1204/2 1203/2
f 1205/2 1206/2 1204/2 1203/2
f 1203/2 1204/2 1206/2 1205/2
f 1207/2 1208/2 1206/2 1205/2
f 1205/2 1206/2 1208/2 1207/2
f 1219/2 1220/2 1218/2 1217/2
f 1217/2 1218/2 1220/2 1219/2
f 1221/2 1222/2 1220/2 1219/2
f 1219/2 1220/2 1222/2 1221/2
f 1223/2 1224/2 1222/2 1221/2
f 1221/2 1222/2 1224/2 1223/2
f 1235/2 1236/2 1234/2 1233/2
f 1233/2 1234/2 1236/2 1235/2
f 1237/2 1238/2 1236/2 1235/2
f 1235/2 1236/2 1238/2 1237/2
f 1239/2 1240/2 1238/2 1237/2
f 1237/2 1238/2 1240/2 1239/2
usemtl cream
f 73/1 74/1 50/1 49/1
f 74/1 75/1 51/1 50/1
f 75/1 76/1 52/1 51/1
f 76/1 77/1 53/1 52/1
f 77/1 78/1 54/1 53/1
f 78/1 79/1 55/1 54/1
f 79/1 80/1 56/1 55/1
f 80/1 81/1 57/1 56/1
f 81/1 82/1 58/1 57/1
f 82/1 83/1 59/1 58/1
f 83/1 84/1 60/1 59/1
f 84/1 85/1 61/1 60/1
f 85/1 86/1 62/1 61/1
f 86/1 87/1 63/1 62/1
f 87/1 88/1 64/1 63/1
f 88/1 89/1 65/1 64/1
f 89/1 90/1 66/1 65/1
f 90/1 91/1 67/1 66/1
f 91/1 92/1 68/1 67/1
f 92/1 93/1 69/1 68/1
f 93/1 94/1 70/1 69/1
f 94/1 95/1 71/1 70/1
f 95/1 96/1 72/1 71/1
f 96/1 73/1 49/1 72/1
f 497/1 498/1 504/1 503/1
f 498/1 499/1 505/1 504/1
f 499/1 500/1 506/1 505/1
f 500/1 501/1 507/1 506/1
f 501/1 502/1 508/1 507/1
f 502/1 497/1 503/1 508/1
f 503/1 504/1 510/1 509/1
f 504/1 505/1 511/1 510/1
f 505/1 506/1 512/1 511/1
f 506/1 507/1 513/1 512/1
f 507/1 508/1 514/1 513/1
f 508/1 503/1 509/1 514/1
f 509/1 510/1 516/1 515/1
f 510/1 511/1 517/1 516/1
f 511/1 512/1 518/1 517/1
f 512/1 513/1 519/1 518/1
f 513/1 514/1 520/1 519/1
f 514/1 509/1 515/1 520/1
f 515/1 516/1 522/1 521/1
f 516/1 517/1 523/1 522/1
f 517/1 518/1 524/1 523/1
f 518/1 519/1 525/1 524/1
f 519/1 520/1 526/1 525/1
f 520/1 515/1 521/1 526/1
f 521/1 522/1 528/1 527/1
f 522/1 523/1 529/1 528/1
f 523/1 524/1 530/1 529/1
f 524/1 525/1 531/1 530/1
f 525/1 526/1 532/1 531/1
f 526/1 521/1 527/1 532/1
f 527/1 528/1 534/1 533/1
f 528/1 529/1 535/1 534/1
f 529/1 530/1 536/1 535/1
f 530/1 531/1 537/1 536/1
f 531/1 532/1 538/1 537/1
f 532/1 527/1 533/1 538/1
f 533/1 534/1 540/1 539/1
f 534/1 535/1 541/1 540/1
f 535/1 536/1 542/1 541/1
f 536/1 537/1 543/1 542/1
f 537/1 538/1 544/1 543/1
f 538/1 533/1 539/1 544/1
f 539/1 540/1 546/1 545/1
f 540/1 541/1 547/1 546/1
f 541/1 542/1 548/1 547/1
f 542/1 543/1 549/1 548/1
f 543/1 544/1 550/1 549/1
f 544/1 539/1 545/1 550/1
f 545/1 546/1 552/1 551/1
f 546/1 547/1 553/1 552/1
f 547/1 548/1 554/1 553/1
f 548/1 549/1 555/1 554/1
f 549/1 550/1 556/1 555/1
f 550/1 545/1 551/1 556/1
f 551/1 552/1 558/1 557/1
f 552/1 553/1 559/1 558/1
f 553/1 554/1 560/1 559/1
f 554/1 555/1 561/1 560/1
f 555/1 556/1 562/1 561/1
f 556/1 551/1 557/1 562/1
f 557/1 558/1 564/1 563/1
f 558/1 559/1 565/1 564/1
f 559/1 560/1 566/1 565/1
f 560/1 561/1 567/1 566/1
f 561/1 562/1 568/1 567/1
f 562/1 557/1 563/1 568/1
f 563/1 564/1 570/1 569/1
f 564/1 565/1 571/1 570/1
f 565/1 566/1 572/1 571/1
f 566/1 567/1 573/1 572/1
f 567/1 568/1 574/1 573/1
f 568/1 563/1 569/1 574/1
f 569/1 570/1 576/1 575/1
f 570/1 571/1 577/1 576/1
f 571/1 572/1 578/1 577/1
f 572/1 573/1 579/1 578/1
f 573/1 574/1 580/1 579/1
f 574/1 569/1 575/1 580/1
f 575/1 576/1 582/1 581/1
f 576/1 577/1 583/1 582/1
f 577/1 578/1 584/1 583/1
f 578/1 579/1 585/1 584/1
f 579/1 580/1 586/1 585/1
f 580/1 575/1 581/1 586/1
f 581/1 582/1 588/1 587/1
f 582/1 583/1 589/1 588/1
f 583/1 584/1 590/1 589/1
f 584/1 585/1 591/1 590/1
f 585/1 586/1 592/1 591/1
f 586/1 581/1 587/1 592/1
f 587/1 588/1 594/1 593/1
f 588/1 589/1 595/1 594/1
f 589/1 590/1 596/1 595/1
f 590/1 591/1 597/1 596/1
f 591/1 592/1 598/1 597/1
f 592/1 587/1 593/1 598/1
f 593/1 594/1 600/1 599/1
f 594/1 595/1 601/1 600/1
f 595/1 596/1 602/1 601/1
f 596/1 597/1 603/1 602/1
f 597/1 598/1 604/1 603/1
f 598/1 593/1 599/1 604/1
f 599/1 600/1 606/1 605/1
f 600/1 601/1 607/1 606/1
f 601/1 602/1 608/1 607/1
f 602/1 603/1 609/1 608/1
f 603/1 604/1 610/1 609/1
f 604/1 599/1 605/1 610/1
f 605/1 606/1 612/1 611/1
f 606/1 607/1 613/1 612/1
f 607/1 608/1 614/1 613/1
f 608/1 609/1 615/1 614/1
f 609/1 610/1 616/1 615/1
f 610/1 605/1 611/1 616/1
f 611/1 612/1 618/1 617/1
f 612/1 613/1 619/1 618/1
f 613/1 614/1 620/1 619/1
f 614/1 615/1 621/1 620/1
f 615/1 616/1 622/1 621/1
f 616/1 611/1 617/1 622/1
f 617/1 618/1 624/1 623/1
f 618/1 619/1 625/1 624/1
f 619/1 620/1 626/1 625/1
f 620/1 621/1 627/1 626/1
f 621/1 622/1 628/1 627/1
f 622/1 617/1 623/1 628/1
f 623/1 624/1 630/1 629/1
f 624/1 625/1 631/1 630/1
f 625/1 626/1 632/1 631/1
f 626/1 627/1 633/1 632/1
f 627/1 628/1 634/1 633/1
f 628/1 623/1 629/1 634/1
f 629/1 630/1 636/1 635/1
f 630/1 631/1 637/1 636/1
f 631/1 632/1 638/1 637/1
f 632/1 633/1 639/1 638/1
f 633/1 634/1 640/1 639/1
f 634/1 629/1 635/1 640/1
f 635/1 636/1 642/1 641/1
f 636/1 637/1 643/1 642/1
f 637/1 638/1 644/1 643/1
f 638/1 639/1 645/1 644/1
f 639/1 640/1 646/1 645/1
f 640/1 635/1 641/1 646/1
f 641/1 642/1 648/1 647/1
f 642/1 643/1 649/1 648/1
f 643/1 644/1 650/1 649/1
f 644/1 645/1 651/1 650/1
f 645/1 646/1 652/1 651/1
f 646/1 641/1 647/1 652/1
f 647/1 648/1 654/1 653/1
f 648/1 649/1 655/1 654/1
f 649/1 650/1 656/1 655/1
f 650/1 651/1 657/1 656/1
f 651/1 652/1 658/1 657/1
f 652/1 647/1 653/1 658/1
f 653/1 654/1 660/1 659/1
f 654/1 655/1 661/1 660/1
f 655/1 656/1 662/1 661/1
f 656/1 657/1 663/1 662/1
f 657/1 658/1 664/1 663/1
f 658/1 653/1 659/1 664/1
f 659/1 660/1 666/1 665/1
f 660/1 661/1 667/1 666/1
f 661/1 662/1 668/1 667/1
f 662/1 663/1 669/1 668/1
f 663/1 664/1 670/1 669/1
f 664/1 659/1 665/1 670/1
f 665/1 666/1 672/1 671/1
f 666/1 667/1 673/1 672/1
f 667/1 668/1 674/1 673/1
f 668/1 669/1 675/1 674/1
f 669/1 670/1 676/1 675/1
f 670/1 665/1 671/1 676/1
f 671/1 672/1 678/1 677/1
f 672/1 673/1 679/1 678/1
f 673/1 674/1 680/1 679/1
f 674/1 675/1 681/1 680/1
f 675/1 676/1 682/1 681/1
f 676/1 671/1 677/1 682/1
f 677/1 678/1 684/1 683/1
f 678/1 679/1 685/1 684/1
f 679/1 680/1 686/1 685/1
f 680/1 681/1 687/1 686/1
f 681/1 682/1 688/1 687/1
f 682/1 677/1 683/1 688/1
f 683/1 684/1 690/1 689/1
f 684/1 685/1 691/1 690/1
f 685/1 686/1 692/1 691/1
f 686/1 687/1 693/1 692/1
f 687/1 688/1 694/1 693/1
f 688/1 683/1 689/1 694/1
f 689/1 690/1 696/1 695/1
f 690/1 691/1 697/1 696/1
f 691/1 692/1 698/1 697/1
f 692/1 693/1 699/1 698/1
f 693/1 694/1 700/1 699/1
f 694/1 689/1 695/1 700/1
f 695/1 696/1 702/1 701/1
f 696/1 697/1 703/1 702/1
f 697/1 698/1 704/1 703/1
f 698/1 699/1 705/1 704/1
f 699/1 700/1 706/1 705/1
f 700/1 695/1 701/1 706/1
f 701/1 702/1 708/1 707/1
f 702/1 703/1 709/1 708/1
f 703/1 704/1 710/1 709/1
f 704/1 705/1 711/1 710/1
f 705/1 706/1 712/1 711/1
f 706/1 701/1 707/1 712/1
f 707/1 708/1 714/1 713/1
f 708/1 709/1 715/1 714/1
f 709/1 710/1 716/1 715/1
f 710/1 711/1 717/1 716/1
f 711/1 712/1 718/1 717/1
f 712/1 707/1 713/1 718/1
f 713/1 714/1 720/1 719/1
f 714/1 715/1 721/1 720/1
f 715/1 716/1 722/1 721/1
f 716/1 717/1 723/1 722/1
f 717/1 718/1 724/1 723/1
f 718/1 713/1 719/1 724/1
f 719/1 720/1 726/1 725/1
f 720/1 721/1 727/1 726/1
f 721/1 722/1 728/1 727/1
f 722/1 723/1 729/1 728/1
f 723/1 724/1 730/1 729/1
f 724/1 719/1 725/1 730/1
f 725/1 726/1 732/1 731/1
f 726/1 727/1 733/1 732/1
f 727/1 728/1 734/1 733/1
f 728/1 729/1 735/1 734/1
f 729/1 730/1 736/1 735/1
f 730/1 725/1 731/1 736/1
f 731/1 732/1 738/1 737/1
f 732/1 733/1 739/1 738/1
f 733/1 734/1 740/1 739/1
f 734/1 735/1 741/1 740/1
f 735/1 736/1 742/1 741/1
f 736/1 731/1 737/1 742/1
f 737/1 738/1 744/1 743/1
f 738/1 739/1 745/1 744/1
f 739/1 740/1 746/1 745/1
f 740/1 741/1 747/1 746/1
f 741/1 742/1 748/1 747/1
f 742/1 737/1 743/1 748/1
f 743/1 744/1 750/1 749/1
f 744/1 745/1 751/1 750/1
f 745/1 746/1 752/1 751/1
f 746/1 747/1 753/1 752/1
f 747/1 748/1 754/1 753/1
f 748/1 743/1 749/1 754/1
f 749/1 750/1 756/1 755/1
f 750/1 751/1 757/1 756/1
f 751/1 752/1 758/1 757/1
f 752/1 753/1 759/1 758/1
f 753/1 754/1 760/1 759/1
f 754/1 749/1 755/1 760/1
f 755/1 756/1 762/1 761/1
f 756/1 757/1 763/1 762/1
f 757/1 758/1 764/1 763/1
f 758/1 759/1 765/1 764/1
f 759/1 760/1 766/1 765/1
f 760/1 755/1 761/1 766/1
f 761/1 762/1 768/1 767/1
f 762/1 763/1 769/1 768/1
f 763/1 764/1 770/1 769/1
f 764/1 765/1 771/1 770/1
f 765/1 766/1 772/1 771/1
f 766/1 761/1 767/1 772/1
f 767/1 768/1 774/1 773/1
f 768/1 769/1 775/1 774/1
f 769/1 770/1 776/1 775/1
f 770/1 771/1 777/1 776/1
f 771/1 772/1 778/1 777/1
f 772/1 767/1 773/1 778/1
f 773/1 774/1 780/1 779/1
f 774/1 775/1 781/1 780/1
f 775/1 776/1 782/1 781/1
f 776/1 777/1 783/1 782/1
f 777/1 778/1 784/1 783/1
f 778/1 773/1 779/1 784/1
f 779/1 780/1 498/1 497/1
f 780/1 781/1 499/1 498/1
f 781/1 782/1 500/1 499/1
f 782/1 783/1 501/1 500/1
f 783/1 784/1 502/1 501/1
f 784/1 779/1 497/1 502/1
f 785/1 786/1 797/1
f 792/1 791/1 798/1
f 786/1 787/1 797/1
f 793/1 792/1 798/1
f 787/1 788/1 797/1
f 794/1 793/1 798/1
f 788/1 789/1 797/1
f 795/1 794/1 798/1
f 789/1 790/1 797/1
f 796/1 795/1 798/1
f 790/1 785/1 797/1
f 791/1 796/1 798/1
f 791/1 792/1 786/1 785/1
f 792/1 793/1 787/1 786/1
f 793/1 794/1 788/1 787/1
f 794/1 795/1 789/1 788/1
f 795/1 796/1 790/1 789/1
f 796/1 791/1 785/1 790/1
f 813/1 814/1 825/1
f 820/1 819/1 826/1
f 814/1 815/1 825/1
f 821/1 820/1 826/1
f 815/1 816/1 825/1
f 822/1 821/1 826/1
f 816/1 817/1 825/1
f 823/1 822/1 826/1
f 817/1 818/1 825/1
f 824/1 823/1 826/1
f 818/1 813/1 825/1
f 819/1 824/1 826/1
f 819/1 820/1 814/1 813/1
f 820/1 821/1 815/1 814/1
f 821/1 822/1 816/1 815/1
f 822/1 823/1 817/1 816/1
f 823/1 824/1 818/1 817/1
f 824/1 819/1 813/1 818/1
f 841/1 842/1 853/1
f 848/1 847/1 854/1
f 842/1 843/1 853/1
f 849/1 848/1 854/1
f 843/1 844/1 853/1
f 850/1 849/1 854/1
f 844/1 845/1 853/1
f 851/1 850/1 854/1
f 845/1 846/1 853/1
f 852/1 851/1 854/1
f 846/1 841/1 853/1
f 847/1 852/1 854/1
f 847/1 848/1 842/1 841/1
f 848/1 849/1 843/1 842/1
f 849/1 850/1 844/1 843/1
f 850/1 851/1 845/1 844/1
f 851/1 852/1 846/1 845/1
f 852/1 847/1 841/1 846/1
f 869/1 870/1 881/1
f 876/1 875/1 882/1
f 870/1 871/1 881/1
f 877/1 876/1 882/1
f 871/1 872/1 881/1
f 878/1 877/1 882/1
f 872/1 873/1 881/1
f 879/1 878/1 882/1
f 873/1 874/1 881/1
f 880/1 879/1 882/1
f 874/1 869/1 881/1
f 875/1 880/1 882/1
f 875/1 876/1 870/1 869/1
f 876/1 877/1 871/1 870/1
f 877/1 878/1 872/1 871/1
f 878/1 879/1 873/1 872/1
f 879/1 880/1 874/1 873/1
f 880/1 875/1 869/1 874/1
f 897/1 898/1 909/1
f 904/1 903/1 910/1
f 898/1 899/1 909/1
f 905/1 904/1 910/1
f 899/1 900/1 909/1
f 906/1 905/1 910/1
f 900/1 901/1 909/1
f 907/1 906/1 910/1
f 901/1 902/1 909/1
f 908/1 907/1 910/1
f 902/1 897/1 909/1
f 903/1 908/1 910/1
f 903/1 904/1 898/1 897/1
f 904/1 905/1 899/1 898/1
f 905/1 906/1 900/1 899/1
f 906/1 907/1 901/1 900/1
f 907/1 908/1 902/1 901/1
f 908/1 903/1 897/1 902/1
f 925/1 926/1 937/1
f 932/1 931/1 938/1
f 926/1 927/1 937/1
f 933/1 932/1 938/1
f 927/1 928/1 937/1
f 934/1 933/1 938/1
f 928/1 929/1 937/1
f 935/1 934/1 938/1
f 929/1 930/1 937/1
f 936/1 935/1 938/1
f 930/1 925/1 937/1
f 931/1 936/1 938/1
f 931/1 932/1 926/1 925/1
f 932/1 933/1 927/1 926/1
f 933/1 934/1 928/1 927/1
f 934/1 935/1 929/1 928/1
f 935/1 936/1 930/1 929/1
f 936/1 931/1 925/1 930/1
f 953/1 954/1 965/1
f 960/1 959/1 966/1
f 954/1 955/1 965/1
f 961/1 960/1 966/1
f 955/1 956/1 965/1
f 962/1 961/1 966/1
f 956/1 957/1 965/1
f 963/1 962/1 966/1
f 957/1 958/1 965/1
f 964/1 963/1 966/1
f 958/1 953/1 965/1
f 959/1 964/1 966/1
f 959/1 960/1 954/1 953/1
f 960/1 961/1 955/1 954/1
f 961/1 962/1 956/1 955/1
f 962/1 963/1 957/1 956/1
f 963/1 964/1 958/1 957/1
f 964/1 959/1 953/1 958/1
f 981/1 982/1 993/1
f 988/1 987/1 994/1
f 982/1 983/1 993/1
f 989/1 988/1 994/1
f 983/1 984/1 993/1
f 990/1 989/1 994/1
f 984/1 985/1 993/1
f 991/1 990/1 994/1
f 985/1 986/1 993/1
f 992/1 991/1 994/1
f 986/1 981/1 993/1
f 987/1 992/1 994/1
f 987/1 988/1 982/1 981/1
f 988/1 989/1 983/1 982/1
f 989/1 990/1 984/1 983/1
f 990/1 991/1 985/1 984/1
f 991/1 992/1 986/1 985/1
f 992/1 987/1 981/1 986/1
f 1009/1 1010/1 1021/1
f 1016/1 1015/1 1022/1
f 1010/1 1011/1 1021/1
f 1017/1 1016/1 1022/1
f 1011/1 1012/1 1021/1
f 1018/1 1017/1 1022/1
f 1012/1 1013/1 1021/1
f 1019/1 1018/1 1022/1
f 1013/1 1014/1 1021/1
f 1020/1 1019/1 1022/1
f 1014/1 1009/1 1021/1
f 1015/1 1020/1 1022/1
f 1015/1 1016/1 1010/1 1009/1
f 1016/1 1017/1 1011/1 1010/1
f 1017/1 1018/1 1012/1 1011/1
f 1018/1 1019/1 1013/1 1012/1
f 1019/1 1020/1 1014/1 1013/1
f 1020/1 1015/1 1009/1 1014/1
f 1037/1 1038/1 1049/1
f 1044/1 1043/1 1050/1
f 1038/1 1039/1 1049/1
f 1045/1 1044/1 1050/1
f 1039/1 1040/1 1049/1
f 1046/1 1045/1 1050/1
f 1040/1 1041/1 1049/1
f 1047/1 1046/1 1050/1
f 1041/1 1042/1 1049/1
f 1048/1 1047/1 1050/1
f 1042/1 1037/1 1049/1
f 1043/1 1048/1 1050/1
f 1043/1 1044/1 1038/1 1037/1
f 1044/1 1045/1 1039/1 1038/1
f 1045/1 1046/1 1040/1 1039/1
f 1046/1 1047/1 1041/1 1040/1
f 1047/1 1048/1 1042/1 1041/1
f 1048/1 1043/1 1037/1 1042/1
f 1065/1 1066/1 1077/1
f 1072/1 1071/1 1078/1
f 1066/1 1067/1 1077/1
f 1073/1 1072/1 1078/1
f 1067/1 1068/1 1077/1
f 1074/1 1073/1 1078/1
f 1068/1 1069/1 1077/1
f 1075/1 1074/1 1078/1
f 1069/1 1070/1 1077/1
f 1076/1 1075/1 1078/1
f 1070/1 1065/1 1077/1
f 1071/1 1076/1 1078/1
f 1071/1 1072/1 1066/1 1065/1
f 1072/1 1073/1 1067/1 1066/1
f 1073/1 1074/1 1068/1 1067/1
f 1074/1 1075/1 1069/1 1068/1
f 1075/1 1076/1 1070/1 1069/1
f 1076/1 1071/1 1065/1 1070/1
f 1093/1 1094/1 1105/1
f 1100/1 1099/1 1106/1
f 1094/1 1095/1 1105/1
f 1101/1 1100/1 1106/1
f 1095/1 1096/1 1105/1
f 1102/1 1101/1 1106/1
f 1096/1 1097/1 1105/1
f 1103/1 1102/1 1106/1
f 1097/1 1098/1 1105/1
f 1104/1 1103/1 1106/1
f 1098/1 1093/1 1105/1
f 1099/1 1104/1 1106/1
f 1099/1 1100/1 1094/1 1093/1
f 1100/1 1101/1 1095/1 1094/1
f 1101/1 1102/1 1096/1 1095/1
f 1102/1 1103/1 1097/1 1096/1
f 1103/1 1104/1 1098/1 1097/1
f 1104/1 1099/1 1093/1 1098/1
f 1131/1 1132/1 1130/1 1129/1
f 1129/1 1130/1 1132/1 1131/1
f 1133/1 1134/1 1132/1 1131/1
f 1131/1 1132/1 1134/1 1133/1
f 1135/1 1136/1 1134/1 1133/1
f 1133/1 1134/1 1136/1 1135/1
f 1147/1 1148/1 1146/1 1145/1
f 1145/1 1146/1 1148/1 1147/1
f 1149/1 1150/1 1148/1 1147/1
f 1147/1 1148/1 1150/1 1149/1
f 1151/1 1152/1 1150/1 1149/1
f 1149/1 1150/1 1152/1 1151/1
f 1163/1 1164/1 1162/1 1161/1
f 1161/1 1162/1 1164/1 1163/1
f 1165/1 1166/1 1164/1 1163/1
f 1163/1 1164/1 1166/1 1165/1
f 1167/1 1168/1 1166/1 1165/1
f 1165/1 1166/1 1168/1 1167/1
f 1179/1 1180/1 1178/1 1177/1
f 1177/1 1178/1 1180/1 1179/1
f 1181/1 1182/1 1180/1 1179/1
f 1179/1 1180/1 1182/1 1181/1
f 1183/1 1184/1 1182/1 1181/1
f 1181/1 1182/1 1184/1 1183/1
f 1195/1 1196/1 1194/1 1193/1
f 1193/1 1194/1 1196/1 1195/1
f 1197/1 1198/1 1196/1 1195/1
f 1195/1 1196/1 1198/1 1197/1
f 1199/1 1200/1 1198/1 1197/1
f 1197/1 1198/1 1200/1 1199/1
f 1211/1 1212/1 1210/1 1209/1
f 1209/1 1210/1 1212/1 1211/1
f 1213/1 1214/1 1212/1 1211/1
f 1211/1 1212/1 1214/1 1213/1
f 1215/1 1216/1 1214/1 1213/1
f 1213/1 1214/1 1216/1 1215/1
f 1227/1 1228/1 1226/1 1225/1
f 1225/1 1226/1 1228/1 1227/1
f 1229/1 1230/1 1228/1 1227/1
f 1227/1 1228/1 1230/1 1229/1
f 1231/1 1232/1 1230/1 1229/1
f 1229/1 1230/1 1232/1 1231/1
f 1243/1 1244/1 1242/1 1241/1
f 1241/1 1242/1 1244/1 1243/1
f 1245/1 1246/1 1244/1 1243/1
f 1243/1 1244/1 1246/1 1245/1
f 1247/1 1248/1 1246/1 1245/1
f 1245/1 1246/1 1248/1 1247/1
