# ParkParkDuckHub — ParkPark original fairground mesh
mtllib ParkParkFairground.mtl
o ParkParkDuckHub
v 8.60000 0.00000 0.00000
v 8.60000 0.62000 0.00000
v 8.52643 0.00000 1.12253
v 8.52643 0.62000 1.12253
v 8.30696 0.00000 2.22584
v 8.30696 0.62000 2.22584
v 7.94536 0.00000 3.29108
v 7.94536 0.62000 3.29108
v 7.44782 0.00000 4.30000
v 7.44782 0.62000 4.30000
v 6.82284 0.00000 5.23535
v 6.82284 0.62000 5.23535
v 6.08112 0.00000 6.08112
v 6.08112 0.62000 6.08112
v 5.23535 0.00000 6.82284
v 5.23535 0.62000 6.82284
v 4.30000 0.00000 7.44782
v 4.30000 0.62000 7.44782
v 3.29108 0.00000 7.94536
v 3.29108 0.62000 7.94536
v 2.22584 0.00000 8.30696
v 2.22584 0.62000 8.30696
v 1.12253 0.00000 8.52643
v 1.12253 0.62000 8.52643
v 0.00000 0.00000 8.60000
v 0.00000 0.62000 8.60000
v -1.12253 0.00000 8.52643
v -1.12253 0.62000 8.52643
v -2.22584 0.00000 8.30696
v -2.22584 0.62000 8.30696
v -3.29108 0.00000 7.94536
v -3.29108 0.62000 7.94536
v -4.30000 0.00000 7.44782
v -4.30000 0.62000 7.44782
v -5.23535 0.00000 6.82284
v -5.23535 0.62000 6.82284
v -6.08112 0.00000 6.08112
v -6.08112 0.62000 6.08112
v -6.82284 0.00000 5.23535
v -6.82284 0.62000 5.23535
v -7.44782 0.00000 4.30000
v -7.44782 0.62000 4.30000
v -7.94536 0.00000 3.29108
v -7.94536 0.62000 3.29108
v -8.30696 0.00000 2.22584
v -8.30696 0.62000 2.22584
v -8.52643 0.00000 1.12253
v -8.52643 0.62000 1.12253
v -8.60000 0.00000 0.00000
v -8.60000 0.62000 0.00000
v -8.52643 0.00000 -1.12253
v -8.52643 0.62000 -1.12253
v -8.30696 0.00000 -2.22584
v -8.30696 0.62000 -2.22584
v -7.94536 0.00000 -3.29108
v -7.94536 0.62000 -3.29108
v -7.44782 0.00000 -4.30000
v -7.44782 0.62000 -4.30000
v -6.82284 0.00000 -5.23535
v -6.82284 0.62000 -5.23535
v -6.08112 0.00000 -6.08112
v -6.08112 0.62000 -6.08112
v -5.23535 0.00000 -6.82284
v -5.23535 0.62000 -6.82284
v -4.30000 0.00000 -7.44782
v -4.30000 0.62000 -7.44782
v -3.29108 0.00000 -7.94536
v -3.29108 0.62000 -7.94536
v -2.22584 0.00000 -8.30696
v -2.22584 0.62000 -8.30696
v -1.12253 0.00000 -8.52643
v -1.12253 0.62000 -8.52643
v -0.00000 0.00000 -8.60000
v -0.00000 0.62000 -8.60000
v 1.12253 0.00000 -8.52643
v 1.12253 0.62000 -8.52643
v 2.22584 0.00000 -8.30696
v 2.22584 0.62000 -8.30696
v 3.29108 0.00000 -7.94536
v 3.29108 0.62000 -7.94536
v 4.30000 0.00000 -7.44782
v 4.30000 0.62000 -7.44782
v 5.23535 0.00000 -6.82284
v 5.23535 0.62000 -6.82284
v 6.08112 0.00000 -6.08112
v 6.08112 0.62000 -6.08112
v 6.82284 0.00000 -5.23535
v 6.82284 0.62000 -5.23535
v 7.44782 0.00000 -4.30000
v 7.44782 0.62000 -4.30000
v 7.94536 0.00000 -3.29108
v 7.94536 0.62000 -3.29108
v 8.30696 0.00000 -2.22584
v 8.30696 0.62000 -2.22584
v 8.52643 0.00000 -1.12253
v 8.52643 0.62000 -1.12253
v 0.00000 0.00000 0.00000
v 0.00000 0.62000 0.00000
v 8.62000 0.00000 0.00000
v 8.62000 0.50000 0.00000
v 8.54625 0.00000 1.12514
v 8.54625 0.50000 1.12514
v 8.32628 0.00000 2.23102
v 8.32628 0.50000 2.23102
v 7.96384 0.00000 3.29873
v 7.96384 0.50000 3.29873
v 7.46514 0.00000 4.31000
v 7.46514 0.50000 4.31000
v 6.83871 0.00000 5.24752
v 6.83871 0.50000 5.24752
v 6.09526 0.00000 6.09526
v 6.09526 0.50000 6.09526
v 5.24752 0.00000 6.83871
v 5.24752 0.50000 6.83871
v 4.31000 0.00000 7.46514
v 4.31000 0.50000 7.46514
v 3.29873 0.00000 7.96384
v 3.29873 0.50000 7.96384
v 2.23102 0.00000 8.32628
v 2.23102 0.50000 8.32628
v 1.12514 0.00000 8.54625
v 1.12514 0.50000 8.54625
v 0.00000 0.00000 8.62000
v 0.00000 0.50000 8.62000
v -1.12514 0.00000 8.54625
v -1.12514 0.50000 8.54625
v -2.23102 0.00000 8.32628
v -2.23102 0.50000 8.32628
v -3.29873 0.00000 7.96384
v -3.29873 0.50000 7.96384
v -4.31000 0.00000 7.46514
v -4.31000 0.50000 7.46514
v -5.24752 0.00000 6.83871
v -5.24752 0.50000 6.83871
v -6.09526 0.00000 6.09526
v -6.09526 0.50000 6.09526
v -6.83871 0.00000 5.24752
v -6.83871 0.50000 5.24752
v -7.46514 0.00000 4.31000
v -7.46514 0.50000 4.31000
v -7.96384 0.00000 3.29873
v -7.96384 0.50000 3.29873
v -8.32628 0.00000 2.23102
v -8.32628 0.50000 2.23102
v -8.54625 0.00000 1.12514
v -8.54625 0.50000 1.12514
v -8.62000 0.00000 0.00000
v -8.62000 0.50000 0.00000
v -8.54625 0.00000 -1.12514
v -8.54625 0.50000 -1.12514
v -8.32628 0.00000 -2.23102
v -8.32628 0.50000 -2.23102
v -7.96384 0.00000 -3.29873
v -7.96384 0.50000 -3.29873
v -7.46514 0.00000 -4.31000
v -7.46514 0.50000 -4.31000
v -6.83871 0.00000 -5.24752
v -6.83871 0.50000 -5.24752
v -6.09526 0.00000 -6.09526
v -6.09526 0.50000 -6.09526
v -5.24752 0.00000 -6.83871
v -5.24752 0.50000 -6.83871
v -4.31000 0.00000 -7.46514
v -4.31000 0.50000 -7.46514
v -3.29873 0.00000 -7.96384
v -3.29873 0.50000 -7.96384
v -2.23102 0.00000 -8.32628
v -2.23102 0.50000 -8.32628
v -1.12514 0.00000 -8.54625
v -1.12514 0.50000 -8.54625
v -0.00000 0.00000 -8.62000
v -0.00000 0.50000 -8.62000
v 1.12514 0.00000 -8.54625
v 1.12514 0.50000 -8.54625
v 2.23102 0.00000 -8.32628
v 2.23102 0.50000 -8.32628
v 3.29873 0.00000 -7.96384
v 3.29873 0.50000 -7.96384
v 4.31000 0.00000 -7.46514
v 4.31000 0.50000 -7.46514
v 5.24752 0.00000 -6.83871
v 5.24752 0.50000 -6.83871
v 6.09526 0.00000 -6.09526
v 6.09526 0.50000 -6.09526
v 6.83871 0.00000 -5.24752
v 6.83871 0.50000 -5.24752
v 7.46514 0.00000 -4.31000
v 7.46514 0.50000 -4.31000
v 7.96384 0.00000 -3.29873
v 7.96384 0.50000 -3.29873
v 8.32628 0.00000 -2.23102
v 8.32628 0.50000 -2.23102
v 8.54625 0.00000 -1.12514
v 8.54625 0.50000 -1.12514
v 0.00000 0.00000 0.00000
v 0.00000 0.50000 0.00000
v 7.90000 0.50000 0.00000
v 7.90000 0.70000 0.00000
v 7.83241 0.50000 1.03116
v 7.83241 0.70000 1.03116
v 7.63081 0.50000 2.04467
v 7.63081 0.70000 2.04467
v 7.29865 0.50000 3.02320
v 7.29865 0.70000 3.02320
v 6.84160 0.50000 3.95000
v 6.84160 0.70000 3.95000
v 6.26749 0.50000 4.80922
v 6.26749 0.70000 4.80922
v 5.58614 0.50000 5.58614
v 5.58614 0.70000 5.58614
v 4.80922 0.50000 6.26749
v 4.80922 0.70000 6.26749
v 3.95000 0.50000 6.84160
v 3.95000 0.70000 6.84160
v 3.02320 0.50000 7.29865
v 3.02320 0.70000 7.29865
v 2.04467 0.50000 7.63081
v 2.04467 0.70000 7.63081
v 1.03116 0.50000 7.83241
v 1.03116 0.70000 7.83241
v 0.00000 0.50000 7.90000
v 0.00000 0.70000 7.90000
v -1.03116 0.50000 7.83241
v -1.03116 0.70000 7.83241
v -2.04467 0.50000 7.63081
v -2.04467 0.70000 7.63081
v -3.02320 0.50000 7.29865
v -3.02320 0.70000 7.29865
v -3.95000 0.50000 6.84160
v -3.95000 0.70000 6.84160
v -4.80922 0.50000 6.26749
v -4.80922 0.70000 6.26749
v -5.58614 0.50000 5.58614
v -5.58614 0.70000 5.58614
v -6.26749 0.50000 4.80922
v -6.26749 0.70000 4.80922
v -6.84160 0.50000 3.95000
v -6.84160 0.70000 3.95000
v -7.29865 0.50000 3.02320
v -7.29865 0.70000 3.02320
v -7.63081 0.50000 2.04467
v -7.63081 0.70000 2.04467
v -7.83241 0.50000 1.03116
v -7.83241 0.70000 1.03116
v -7.90000 0.50000 0.00000
v -7.90000 0.70000 0.00000
v -7.83241 0.50000 -1.03116
v -7.83241 0.70000 -1.03116
v -7.63081 0.50000 -2.04467
v -7.63081 0.70000 -2.04467
v -7.29865 0.50000 -3.02320
v -7.29865 0.70000 -3.02320
v -6.84160 0.50000 -3.95000
v -6.84160 0.70000 -3.95000
v -6.26749 0.50000 -4.80922
v -6.26749 0.70000 -4.80922
v -5.58614 0.50000 -5.58614
v -5.58614 0.70000 -5.58614
v -4.80922 0.50000 -6.26749
v -4.80922 0.70000 -6.26749
v -3.95000 0.50000 -6.84160
v -3.95000 0.70000 -6.84160
v -3.02320 0.50000 -7.29865
v -3.02320 0.70000 -7.29865
v -2.04467 0.50000 -7.63081
v -2.04467 0.70000 -7.63081
v -1.03116 0.50000 -7.83241
v -1.03116 0.70000 -7.83241
v -0.00000 0.50000 -7.90000
v -0.00000 0.70000 -7.90000
v 1.03116 0.50000 -7.83241
v 1.03116 0.70000 -7.83241
v 2.04467 0.50000 -7.63081
v 2.04467 0.70000 -7.63081
v 3.02320 0.50000 -7.29865
v 3.02320 0.70000 -7.29865
v 3.95000 0.50000 -6.84160
v 3.95000 0.70000 -6.84160
v 4.80922 0.50000 -6.26749
v 4.80922 0.70000 -6.26749
v 5.58614 0.50000 -5.58614
v 5.58614 0.70000 -5.58614
v 6.26749 0.50000 -4.80922
v 6.26749 0.70000 -4.80922
v 6.84160 0.50000 -3.95000
v 6.84160 0.70000 -3.95000
v 7.29865 0.50000 -3.02320
v 7.29865 0.70000 -3.02320
v 7.63081 0.50000 -2.04467
v 7.63081 0.70000 -2.04467
v 7.83241 0.50000 -1.03116
v 7.83241 0.70000 -1.03116
v 0.00000 0.50000 0.00000
v 0.00000 0.70000 0.00000
v 8.54000 0.72000 0.00000
v 8.47000 0.84124 0.00000
v 8.33000 0.84124 0.00000
v 8.26000 0.72000 0.00000
v 8.33000 0.59876 0.00000
v 8.47000 0.59876 0.00000
v 8.46694 0.72000 1.11469
v 8.39754 0.84124 1.10556
v 8.25874 0.84124 1.08728
v 8.18933 0.72000 1.07815
v 8.25874 0.59876 1.08728
v 8.39754 0.59876 1.10556
v 8.24901 0.72000 2.21031
v 8.18139 0.84124 2.19220
v 8.04616 0.84124 2.15596
v 7.97855 0.72000 2.13785
v 8.04616 0.59876 2.15596
v 8.18139 0.59876 2.19220
v 7.88993 0.72000 3.26812
v 7.82526 0.84124 3.24133
v 7.69592 0.84124 3.18775
v 7.63124 0.72000 3.16097
v 7.69592 0.59876 3.18775
v 7.82526 0.59876 3.24133
v 7.39586 0.72000 4.27000
v 7.33524 0.84124 4.23500
v 7.21399 0.84124 4.16500
v 7.15337 0.72000 4.13000
v 7.21399 0.59876 4.16500
v 7.33524 0.59876 4.23500
v 6.77524 0.72000 5.19882
v 6.71970 0.84124 5.15621
v 6.60863 0.84124 5.07098
v 6.55310 0.72000 5.02837
v 6.60863 0.59876 5.07098
v 6.71970 0.59876 5.15621
v 6.03869 0.72000 6.03869
v 5.98919 0.84124 5.98919
v 5.89020 0.84124 5.89020
v 5.84070 0.72000 5.84070
v 5.89020 0.59876 5.89020
v 5.98919 0.59876 5.98919
v 5.19882 0.72000 6.77524
v 5.15621 0.84124 6.71970
v 5.07098 0.84124 6.60863
v 5.02837 0.72000 6.55310
v 5.07098 0.59876 6.60863
v 5.15621 0.59876 6.71970
v 4.27000 0.72000 7.39586
v 4.23500 0.84124 7.33524
v 4.16500 0.84124 7.21399
v 4.13000 0.72000 7.15337
v 4.16500 0.59876 7.21399
v 4.23500 0.59876 7.33524
v 3.26812 0.72000 7.88993
v 3.24133 0.84124 7.82526
v 3.18775 0.84124 7.69592
v 3.16097 0.72000 7.63124
v 3.18775 0.59876 7.69592
v 3.24133 0.59876 7.82526
v 2.21031 0.72000 8.24901
v 2.19220 0.84124 8.18139
v 2.15596 0.84124 8.04616
v 2.13785 0.72000 7.97855
v 2.15596 0.59876 8.04616
v 2.19220 0.59876 8.18139
v 1.11469 0.72000 8.46694
v 1.10556 0.84124 8.39754
v 1.08728 0.84124 8.25874
v 1.07815 0.72000 8.18933
v 1.08728 0.59876 8.25874
v 1.10556 0.59876 8.39754
v 0.00000 0.72000 8.54000
v 0.00000 0.84124 8.47000
v 0.00000 0.84124 8.33000
v 0.00000 0.72000 8.26000
v 0.00000 0.59876 8.33000
v 0.00000 0.59876 8.47000
v -1.11469 0.72000 8.46694
v -1.10556 0.84124 8.39754
v -1.08728 0.84124 8.25874
v -1.07815 0.72000 8.18933
v -1.08728 0.59876 8.25874
v -1.10556 0.59876 8.39754
v -2.21031 0.72000 8.24901
v -2.19220 0.84124 8.18139
v -2.15596 0.84124 8.04616
v -2.13785 0.72000 7.97855
v -2.15596 0.59876 8.04616
v -2.19220 0.59876 8.18139
v -3.26812 0.72000 7.88993
v -3.24133 0.84124 7.82526
v -3.18775 0.84124 7.69592
v -3.16097 0.72000 7.63124
v -3.18775 0.59876 7.69592
v -3.24133 0.59876 7.82526
v -4.27000 0.72000 7.39586
v -4.23500 0.84124 7.33524
v -4.16500 0.84124 7.21399
v -4.13000 0.72000 7.15337
v -4.16500 0.59876 7.21399
v -4.23500 0.59876 7.33524
v -5.19882 0.72000 6.77524
v -5.15621 0.84124 6.71970
v -5.07098 0.84124 6.60863
v -5.02837 0.72000 6.55310
v -5.07098 0.59876 6.60863
v -5.15621 0.59876 6.71970
v -6.03869 0.72000 6.03869
v -5.98919 0.84124 5.98919
v -5.89020 0.84124 5.89020
v -5.84070 0.72000 5.84070
v -5.89020 0.59876 5.89020
v -5.98919 0.59876 5.98919
v -6.77524 0.72000 5.19882
v -6.71970 0.84124 5.15621
v -6.60863 0.84124 5.07098
v -6.55310 0.72000 5.02837
v -6.60863 0.59876 5.07098
v -6.71970 0.59876 5.15621
v -7.39586 0.72000 4.27000
v -7.33524 0.84124 4.23500
v -7.21399 0.84124 4.16500
v -7.15337 0.72000 4.13000
v -7.21399 0.59876 4.16500
v -7.33524 0.59876 4.23500
v -7.88993 0.72000 3.26812
v -7.82526 0.84124 3.24133
v -7.69592 0.84124 3.18775
v -7.63124 0.72000 3.16097
v -7.69592 0.59876 3.18775
v -7.82526 0.59876 3.24133
v -8.24901 0.72000 2.21031
v -8.18139 0.84124 2.19220
v -8.04616 0.84124 2.15596
v -7.97855 0.72000 2.13785
v -8.04616 0.59876 2.15596
v -8.18139 0.59876 2.19220
v -8.46694 0.72000 1.11469
v -8.39754 0.84124 1.10556
v -8.25874 0.84124 1.08728
v -8.18933 0.72000 1.07815
v -8.25874 0.59876 1.08728
v -8.39754 0.59876 1.10556
v -8.54000 0.72000 0.00000
v -8.47000 0.84124 0.00000
v -8.33000 0.84124 0.00000
v -8.26000 0.72000 0.00000
v -8.33000 0.59876 0.00000
v -8.47000 0.59876 0.00000
v -8.46694 0.72000 -1.11469
v -8.39754 0.84124 -1.10556
v -8.25874 0.84124 -1.08728
v -8.18933 0.72000 -1.07815
v -8.25874 0.59876 -1.08728
v -8.39754 0.59876 -1.10556
v -8.24901 0.72000 -2.21031
v -8.18139 0.84124 -2.19220
v -8.04616 0.84124 -2.15596
v -7.97855 0.72000 -2.13785
v -8.04616 0.59876 -2.15596
v -8.18139 0.59876 -2.19220
v -7.88993 0.72000 -3.26812
v -7.82526 0.84124 -3.24133
v -7.69592 0.84124 -3.18775
v -7.63124 0.72000 -3.16097
v -7.69592 0.59876 -3.18775
v -7.82526 0.59876 -3.24133
v -7.39586 0.72000 -4.27000
v -7.33524 0.84124 -4.23500
v -7.21399 0.84124 -4.16500
v -7.15337 0.72000 -4.13000
v -7.21399 0.59876 -4.16500
v -7.33524 0.59876 -4.23500
v -6.77524 0.72000 -5.19882
v -6.71970 0.84124 -5.15621
v -6.60863 0.84124 -5.07098
v -6.55310 0.72000 -5.02837
v -6.60863 0.59876 -5.07098
v -6.71970 0.59876 -5.15621
v -6.03869 0.72000 -6.03869
v -5.98919 0.84124 -5.98919
v -5.89020 0.84124 -5.89020
v -5.84070 0.72000 -5.84070
v -5.89020 0.59876 -5.89020
v -5.98919 0.59876 -5.98919
v -5.19882 0.72000 -6.77524
v -5.15621 0.84124 -6.71970
v -5.07098 0.84124 -6.60863
v -5.02837 0.72000 -6.55310
v -5.07098 0.59876 -6.60863
v -5.15621 0.59876 -6.71970
v -4.27000 0.72000 -7.39586
v -4.23500 0.84124 -7.33524
v -4.16500 0.84124 -7.21399
v -4.13000 0.72000 -7.15337
v -4.16500 0.59876 -7.21399
v -4.23500 0.59876 -7.33524
v -3.26812 0.72000 -7.88993
v -3.24133 0.84124 -7.82526
v -3.18775 0.84124 -7.69592
v -3.16097 0.72000 -7.63124
v -3.18775 0.59876 -7.69592
v -3.24133 0.59876 -7.82526
v -2.21031 0.72000 -8.24901
v -2.19220 0.84124 -8.18139
v -2.15596 0.84124 -8.04616
v -2.13785 0.72000 -7.97855
v -2.15596 0.59876 -8.04616
v -2.19220 0.59876 -8.18139
v -1.11469 0.72000 -8.46694
v -1.10556 0.84124 -8.39754
v -1.08728 0.84124 -8.25874
v -1.07815 0.72000 -8.18933
v -1.08728 0.59876 -8.25874
v -1.10556 0.59876 -8.39754
v -0.00000 0.72000 -8.54000
v -0.00000 0.84124 -8.47000
v -0.00000 0.84124 -8.33000
v -0.00000 0.72000 -8.26000
v -0.00000 0.59876 -8.33000
v -0.00000 0.59876 -8.47000
v 1.11469 0.72000 -8.46694
v 1.10556 0.84124 -8.39754
v 1.08728 0.84124 -8.25874
v 1.07815 0.72000 -8.18933
v 1.08728 0.59876 -8.25874
v 1.10556 0.59876 -8.39754
v 2.21031 0.72000 -8.24901
v 2.19220 0.84124 -8.18139
v 2.15596 0.84124 -8.04616
v 2.13785 0.72000 -7.97855
v 2.15596 0.59876 -8.04616
v 2.19220 0.59876 -8.18139
v 3.26812 0.72000 -7.88993
v 3.24133 0.84124 -7.82526
v 3.18775 0.84124 -7.69592
v 3.16097 0.72000 -7.63124
v 3.18775 0.59876 -7.69592
v 3.24133 0.59876 -7.82526
v 4.27000 0.72000 -7.39586
v 4.23500 0.84124 -7.33524
v 4.16500 0.84124 -7.21399
v 4.13000 0.72000 -7.15337
v 4.16500 0.59876 -7.21399
v 4.23500 0.59876 -7.33524
v 5.19882 0.72000 -6.77524
v 5.15621 0.84124 -6.71970
v 5.07098 0.84124 -6.60863
v 5.02837 0.72000 -6.55310
v 5.07098 0.59876 -6.60863
v 5.15621 0.59876 -6.71970
v 6.03869 0.72000 -6.03869
v 5.98919 0.84124 -5.98919
v 5.89020 0.84124 -5.89020
v 5.84070 0.72000 -5.84070
v 5.89020 0.59876 -5.89020
v 5.98919 0.59876 -5.98919
v 6.77524 0.72000 -5.19882
v 6.71970 0.84124 -5.15621
v 6.60863 0.84124 -5.07098
v 6.55310 0.72000 -5.02837
v 6.60863 0.59876 -5.07098
v 6.71970 0.59876 -5.15621
v 7.39586 0.72000 -4.27000
v 7.33524 0.84124 -4.23500
v 7.21399 0.84124 -4.16500
v 7.15337 0.72000 -4.13000
v 7.21399 0.59876 -4.16500
v 7.33524 0.59876 -4.23500
v 7.88993 0.72000 -3.26812
v 7.82526 0.84124 -3.24133
v 7.69592 0.84124 -3.18775
v 7.63124 0.72000 -3.16097
v 7.69592 0.59876 -3.18775
v 7.82526 0.59876 -3.24133
v 8.24901 0.72000 -2.21031
v 8.18139 0.84124 -2.19220
v 8.04616 0.84124 -2.15596
v 7.97855 0.72000 -2.13785
v 8.04616 0.59876 -2.15596
v 8.18139 0.59876 -2.19220
v 8.46694 0.72000 -1.11469
v 8.39754 0.84124 -1.10556
v 8.25874 0.84124 -1.08728
v 8.18933 0.72000 -1.07815
v 8.25874 0.59876 -1.08728
v 8.39754 0.59876 -1.10556
v 0.00000 0.70000 0.00000
v 0.00000 0.70000 0.00000
v 0.00000 0.70000 0.00000
v 0.00000 0.70000 0.00000
v 0.00000 0.70000 0.00000
v 0.00000 0.70000 0.00000
v 0.00000 0.70000 0.00000
v 0.00000 0.70000 0.00000
v -0.00000 0.70000 0.00000
v -0.00000 0.70000 0.00000
v -0.00000 0.70000 0.00000
v -0.00000 0.70000 0.00000
v -0.00000 0.70000 0.00000
v -0.00000 0.70000 0.00000
v -0.00000 0.70000 0.00000
v -0.00000 0.70000 -0.00000
v -0.00000 0.70000 -0.00000
v -0.00000 0.70000 -0.00000
v -0.00000 0.70000 -0.00000
v -0.00000 0.70000 -0.00000
v -0.00000 0.70000 -0.00000
v -0.00000 0.70000 -0.00000
v 0.00000 0.70000 -0.00000
v 0.00000 0.70000 -0.00000
v 0.00000 0.70000 -0.00000
v 0.00000 0.70000 -0.00000
v 0.00000 0.70000 -0.00000
v 0.00000 0.70000 -0.00000
v 1.50000 0.70000 0.00000
v 1.46239 0.70000 0.33378
v 1.35145 0.70000 0.65083
v 1.17275 0.70000 0.93523
v 0.93523 0.70000 1.17275
v 0.65083 0.70000 1.35145
v 0.33378 0.70000 1.46239
v 0.00000 0.70000 1.50000
v -0.33378 0.70000 1.46239
v -0.65083 0.70000 1.35145
v -0.93523 0.70000 1.17275
v -1.17275 0.70000 0.93523
v -1.35145 0.70000 0.65083
v -1.46239 0.70000 0.33378
v -1.50000 0.70000 0.00000
v -1.46239 0.70000 -0.33378
v -1.35145 0.70000 -0.65083
v -1.17275 0.70000 -0.93523
v -0.93523 0.70000 -1.17275
v -0.65083 0.70000 -1.35145
v -0.33378 0.70000 -1.46239
v -0.00000 0.70000 -1.50000
v 0.33378 0.70000 -1.46239
v 0.65083 0.70000 -1.35145
v 0.93523 0.70000 -1.17275
v 1.17275 0.70000 -0.93523
v 1.35145 0.70000 -0.65083
v 1.46239 0.70000 -0.33378
v 1.10000 1.30000 0.00000
v 1.07242 1.30000 0.24477
v 0.99107 1.30000 0.47727
v 0.86001 1.30000 0.68584
v 0.68584 1.30000 0.86001
v 0.47727 1.30000 0.99107
v 0.24477 1.30000 1.07242
v 0.00000 1.30000 1.10000
v -0.24477 1.30000 1.07242
v -0.47727 1.30000 0.99107
v -0.68584 1.30000 0.86001
v -0.86001 1.30000 0.68584
v -0.99107 1.30000 0.47727
v -1.07242 1.30000 0.24477
v -1.10000 1.30000 0.00000
v -1.07242 1.30000 -0.24477
v -0.99107 1.30000 -0.47727
v -0.86001 1.30000 -0.68584
v -0.68584 1.30000 -0.86001
v -0.47727 1.30000 -0.99107
v -0.24477 1.30000 -1.07242
v -0.00000 1.30000 -1.10000
v 0.24477 1.30000 -1.07242
v 0.47727 1.30000 -0.99107
v 0.68584 1.30000 -0.86001
v 0.86001 1.30000 -0.68584
v 0.99107 1.30000 -0.47727
v 1.07242 1.30000 -0.24477
v 0.80000 1.70000 0.00000
v 0.77994 1.70000 0.17802
v 0.72078 1.70000 0.34711
v 0.62547 1.70000 0.49879
v 0.49879 1.70000 0.62547
v 0.34711 1.70000 0.72078
v 0.17802 1.70000 0.77994
v 0.00000 1.70000 0.80000
v -0.17802 1.70000 0.77994
v -0.34711 1.70000 0.72078
v -0.49879 1.70000 0.62547
v -0.62547 1.70000 0.49879
v -0.72078 1.70000 0.34711
v -0.77994 1.70000 0.17802
v -0.80000 1.70000 0.00000
v -0.77994 1.70000 -0.17802
v -0.72078 1.70000 -0.34711
v -0.62547 1.70000 -0.49879
v -0.49879 1.70000 -0.62547
v -0.34711 1.70000 -0.72078
v -0.17802 1.70000 -0.77994
v -0.00000 1.70000 -0.80000
v 0.17802 1.70000 -0.77994
v 0.34711 1.70000 -0.72078
v 0.49879 1.70000 -0.62547
v 0.62547 1.70000 -0.49879
v 0.72078 1.70000 -0.34711
v 0.77994 1.70000 -0.17802
v 0.70000 3.60000 0.00000
v 0.68245 3.60000 0.15576
v 0.63068 3.60000 0.30372
v 0.54728 3.60000 0.43644
v 0.43644 3.60000 0.54728
v 0.30372 3.60000 0.63068
v 0.15576 3.60000 0.68245
v 0.00000 3.60000 0.70000
v -0.15576 3.60000 0.68245
v -0.30372 3.60000 0.63068
v -0.43644 3.60000 0.54728
v -0.54728 3.60000 0.43644
v -0.63068 3.60000 0.30372
v -0.68245 3.60000 0.15576
v -0.70000 3.60000 0.00000
v -0.68245 3.60000 -0.15576
v -0.63068 3.60000 -0.30372
v -0.54728 3.60000 -0.43644
v -0.43644 3.60000 -0.54728
v -0.30372 3.60000 -0.63068
v -0.15576 3.60000 -0.68245
v -0.00000 3.60000 -0.70000
v 0.15576 3.60000 -0.68245
v 0.30372 3.60000 -0.63068
v 0.43644 3.60000 -0.54728
v 0.54728 3.60000 -0.43644
v 0.63068 3.60000 -0.30372
v 0.68245 3.60000 -0.15576
v 0.85000 3.70000 0.00000
v 0.82869 3.70000 0.18914
v 0.76582 3.70000 0.36880
v 0.66456 3.70000 0.52997
v 0.52997 3.70000 0.66456
v 0.36880 3.70000 0.76582
v 0.18914 3.70000 0.82869
v 0.00000 3.70000 0.85000
v -0.18914 3.70000 0.82869
v -0.36880 3.70000 0.76582
v -0.52997 3.70000 0.66456
v -0.66456 3.70000 0.52997
v -0.76582 3.70000 0.36880
v -0.82869 3.70000 0.18914
v -0.85000 3.70000 0.00000
v -0.82869 3.70000 -0.18914
v -0.76582 3.70000 -0.36880
v -0.66456 3.70000 -0.52997
v -0.52997 3.70000 -0.66456
v -0.36880 3.70000 -0.76582
v -0.18914 3.70000 -0.82869
v -0.00000 3.70000 -0.85000
v 0.18914 3.70000 -0.82869
v 0.36880 3.70000 -0.76582
v 0.52997 3.70000 -0.66456
v 0.66456 3.70000 -0.52997
v 0.76582 3.70000 -0.36880
v 0.82869 3.70000 -0.18914
v 0.70000 4.40000 0.00000
v 0.68245 4.40000 0.15576
v 0.63068 4.40000 0.30372
v 0.54728 4.40000 0.43644
v 0.43644 4.40000 0.54728
v 0.30372 4.40000 0.63068
v 0.15576 4.40000 0.68245
v 0.00000 4.40000 0.70000
v -0.15576 4.40000 0.68245
v -0.30372 4.40000 0.63068
v -0.43644 4.40000 0.54728
v -0.54728 4.40000 0.43644
v -0.63068 4.40000 0.30372
v -0.68245 4.40000 0.15576
v -0.70000 4.40000 0.00000
v -0.68245 4.40000 -0.15576
v -0.63068 4.40000 -0.30372
v -0.54728 4.40000 -0.43644
v -0.43644 4.40000 -0.54728
v -0.30372 4.40000 -0.63068
v -0.15576 4.40000 -0.68245
v -0.00000 4.40000 -0.70000
v 0.15576 4.40000 -0.68245
v 0.30372 4.40000 -0.63068
v 0.43644 4.40000 -0.54728
v 0.54728 4.40000 -0.43644
v 0.63068 4.40000 -0.30372
v 0.68245 4.40000 -0.15576
v 0.95000 4.55000 0.00000
v 0.92618 4.55000 0.21139
v 0.85592 4.55000 0.41219
v 0.74274 4.55000 0.59232
v 0.59232 4.55000 0.74274
v 0.41219 4.55000 0.85592
v 0.21139 4.55000 0.92618
v 0.00000 4.55000 0.95000
v -0.21139 4.55000 0.92618
v -0.41219 4.55000 0.85592
v -0.59232 4.55000 0.74274
v -0.74274 4.55000 0.59232
v -0.85592 4.55000 0.41219
v -0.92618 4.55000 0.21139
v -0.95000 4.55000 0.00000
v -0.92618 4.55000 -0.21139
v -0.85592 4.55000 -0.41219
v -0.74274 4.55000 -0.59232
v -0.59232 4.55000 -0.74274
v -0.41219 4.55000 -0.85592
v -0.21139 4.55000 -0.92618
v -0.00000 4.55000 -0.95000
v 0.21139 4.55000 -0.92618
v 0.41219 4.55000 -0.85592
v 0.59232 4.55000 -0.74274
v 0.74274 4.55000 -0.59232
v 0.85592 4.55000 -0.41219
v 0.92618 4.55000 -0.21139
v 0.00000 5.60000 0.00000
v 0.00000 5.60000 0.00000
v 0.00000 5.60000 0.00000
v 0.00000 5.60000 0.00000
v 0.00000 5.60000 0.00000
v 0.00000 5.60000 0.00000
v 0.00000 5.60000 0.00000
v 0.00000 5.60000 0.00000
v -0.00000 5.60000 0.00000
v -0.00000 5.60000 0.00000
v -0.00000 5.60000 0.00000
v -0.00000 5.60000 0.00000
v -0.00000 5.60000 0.00000
v -0.00000 5.60000 0.00000
v -0.00000 5.60000 0.00000
v -0.00000 5.60000 -0.00000
v -0.00000 5.60000 -0.00000
v -0.00000 5.60000 -0.00000
v -0.00000 5.60000 -0.00000
v -0.00000 5.60000 -0.00000
v -0.00000 5.60000 -0.00000
v -0.00000 5.60000 -0.00000
v 0.00000 5.60000 -0.00000
v 0.00000 5.60000 -0.00000
v 0.00000 5.60000 -0.00000
v 0.00000 5.60000 -0.00000
v 0.00000 5.60000 -0.00000
v 0.00000 5.60000 -0.00000
v 0.25000 5.56699 0.00000
v 0.20225 5.56699 0.14695
v 0.07725 5.56699 0.23776
v -0.07725 5.56699 0.23776
v -0.20225 5.56699 0.14695
v -0.25000 5.56699 0.00000
v -0.20225 5.56699 -0.14695
v -0.07725 5.56699 -0.23776
v 0.07725 5.56699 -0.23776
v 0.20225 5.56699 -0.14695
v 0.43301 5.75000 0.00000
v 0.35031 5.75000 0.25452
v 0.13381 5.75000 0.41182
v -0.13381 5.75000 0.41182
v -0.35031 5.75000 0.25452
v -0.43301 5.75000 0.00000
v -0.35031 5.75000 -0.25452
v -0.13381 5.75000 -0.41182
v 0.13381 5.75000 -0.41182
v 0.35031 5.75000 -0.25452
v 0.50000 6.00000 0.00000
v 0.40451 6.00000 0.29389
v 0.15451 6.00000 0.47553
v -0.15451 6.00000 0.47553
v -0.40451 6.00000 0.29389
v -0.50000 6.00000 0.00000
v -0.40451 6.00000 -0.29389
v -0.15451 6.00000 -0.47553
v 0.15451 6.00000 -0.47553
v 0.40451 6.00000 -0.29389
v 0.43301 6.25000 0.00000
v 0.35031 6.25000 0.25452
v 0.13381 6.25000 0.41182
v -0.13381 6.25000 0.41182
v -0.35031 6.25000 0.25452
v -0.43301 6.25000 0.00000
v -0.35031 6.25000 -0.25452
v -0.13381 6.25000 -0.41182
v 0.13381 6.25000 -0.41182
v 0.35031 6.25000 -0.25452
v 0.25000 6.43301 0.00000
v 0.20225 6.43301 0.14695
v 0.07725 6.43301 0.23776
v -0.07725 6.43301 0.23776
v -0.20225 6.43301 0.14695
v -0.25000 6.43301 0.00000
v -0.20225 6.43301 -0.14695
v -0.07725 6.43301 -0.23776
v 0.07725 6.43301 -0.23776
v 0.20225 6.43301 -0.14695
v 0.00000 5.50000 0.00000
v 0.00000 6.50000 0.00000
v 0.00000 0.95000 0.20000
v 0.00000 0.80858 0.14142
v 0.00000 0.75000 0.00000
v 0.00000 0.80858 -0.14142
v 0.00000 0.95000 -0.20000
v 0.00000 1.09142 -0.14142
v 0.00000 1.15000 -0.00000
v 0.00000 1.09142 0.14142
v 5.60000 0.95000 0.20000
v 5.60000 0.80858 0.14142
v 5.60000 0.75000 0.00000
v 5.60000 0.80858 -0.14142
v 5.60000 0.95000 -0.20000
v 5.60000 1.09142 -0.14142
v 5.60000 1.15000 -0.00000
v 5.60000 1.09142 0.14142
v 0.00000 0.95000 0.00000
v 5.60000 0.95000 0.00000
v 7.50000 0.62000 0.00000
v 7.50000 0.96000 0.00000
v 7.45236 0.62000 0.42279
v 7.45236 0.96000 0.42279
v 7.31184 0.62000 0.82438
v 7.31184 0.96000 0.82438
v 7.08548 0.62000 1.18463
v 7.08548 0.96000 1.18463
v 6.78463 0.62000 1.48548
v 6.78463 0.96000 1.48548
v 6.42438 0.62000 1.71184
v 6.42438 0.96000 1.71184
v 6.02279 0.62000 1.85236
v 6.02279 0.96000 1.85236
v 5.60000 0.62000 1.90000
v 5.60000 0.96000 1.90000
v 5.17721 0.62000 1.85236
v 5.17721 0.96000 1.85236
v 4.77562 0.62000 1.71184
v 4.77562 0.96000 1.71184
v 4.41537 0.62000 1.48548
v 4.41537 0.96000 1.48548
v 4.11452 0.62000 1.18463
v 4.11452 0.96000 1.18463
v 3.88816 0.62000 0.82438
v 3.88816 0.96000 0.82438
v 3.74764 0.62000 0.42279
v 3.74764 0.96000 0.42279
v 3.70000 0.62000 0.00000
v 3.70000 0.96000 0.00000
v 3.74764 0.62000 -0.42279
v 3.74764 0.96000 -0.42279
v 3.88816 0.62000 -0.82438
v 3.88816 0.96000 -0.82438
v 4.11452 0.62000 -1.18463
v 4.11452 0.96000 -1.18463
v 4.41537 0.62000 -1.48548
v 4.41537 0.96000 -1.48548
v 4.77562 0.62000 -1.71184
v 4.77562 0.96000 -1.71184
v 5.17721 0.62000 -1.85236
v 5.17721 0.96000 -1.85236
v 5.60000 0.62000 -1.90000
v 5.60000 0.96000 -1.90000
v 6.02279 0.62000 -1.85236
v 6.02279 0.96000 -1.85236
v 6.42438 0.62000 -1.71184
v 6.42438 0.96000 -1.71184
v 6.78463 0.62000 -1.48548
v 6.78463 0.96000 -1.48548
v 7.08548 0.62000 -1.18463
v 7.08548 0.96000 -1.18463
v 7.31184 0.62000 -0.82438
v 7.31184 0.96000 -0.82438
v 7.45236 0.62000 -0.42279
v 7.45236 0.96000 -0.42279
v 5.60000 0.62000 0.00000
v 5.60000 0.96000 0.00000
v 7.20000 0.96000 0.00000
v 7.20000 1.04000 0.00000
v 7.15988 0.96000 0.35603
v 7.15988 1.04000 0.35603
v 7.04155 0.96000 0.69421
v 7.04155 1.04000 0.69421
v 6.85093 0.96000 0.99758
v 6.85093 1.04000 0.99758
v 6.59758 0.96000 1.25093
v 6.59758 1.04000 1.25093
v 6.29421 0.96000 1.44155
v 6.29421 1.04000 1.44155
v 5.95603 0.96000 1.55988
v 5.95603 1.04000 1.55988
v 5.60000 0.96000 1.60000
v 5.60000 1.04000 1.60000
v 5.24397 0.96000 1.55988
v 5.24397 1.04000 1.55988
v 4.90579 0.96000 1.44155
v 4.90579 1.04000 1.44155
v 4.60242 0.96000 1.25093
v 4.60242 1.04000 1.25093
v 4.34907 0.96000 0.99758
v 4.34907 1.04000 0.99758
v 4.15845 0.96000 0.69421
v 4.15845 1.04000 0.69421
v 4.04012 0.96000 0.35603
v 4.04012 1.04000 0.35603
v 4.00000 0.96000 0.00000
v 4.00000 1.04000 0.00000
v 4.04012 0.96000 -0.35603
v 4.04012 1.04000 -0.35603
v 4.15845 0.96000 -0.69421
v 4.15845 1.04000 -0.69421
v 4.34907 0.96000 -0.99758
v 4.34907 1.04000 -0.99758
v 4.60242 0.96000 -1.25093
v 4.60242 1.04000 -1.25093
v 4.90579 0.96000 -1.44155
v 4.90579 1.04000 -1.44155
v 5.24397 0.96000 -1.55988
v 5.24397 1.04000 -1.55988
v 5.60000 0.96000 -1.60000
v 5.60000 1.04000 -1.60000
v 5.95603 0.96000 -1.55988
v 5.95603 1.04000 -1.55988
v 6.29421 0.96000 -1.44155
v 6.29421 1.04000 -1.44155
v 6.59758 0.96000 -1.25093
v 6.59758 1.04000 -1.25093
v 6.85093 0.96000 -0.99758
v 6.85093 1.04000 -0.99758
v 7.04155 0.96000 -0.69421
v 7.04155 1.04000 -0.69421
v 7.15988 0.96000 -0.35603
v 7.15988 1.04000 -0.35603
v 5.60000 0.96000 0.00000
v 5.60000 1.04000 0.00000
v -0.17321 0.95000 0.10000
v -0.12247 0.80858 0.07071
v -0.00000 0.75000 0.00000
v 0.12247 0.80858 -0.07071
v 0.17321 0.95000 -0.10000
v 0.12247 1.09142 -0.07071
v 0.00000 1.15000 -0.00000
v -0.12247 1.09142 0.07071
v 2.62679 0.95000 4.94974
v 2.67753 0.80858 4.92045
v 2.80000 0.75000 4.84974
v 2.92247 0.80858 4.77903
v 2.97321 0.95000 4.74974
v 2.92247 1.09142 4.77903
v 2.80000 1.15000 4.84974
v 2.67753 1.09142 4.92045
v 0.00000 0.95000 0.00000
v 2.80000 0.95000 4.84974
v 4.70000 0.62000 4.84974
v 4.70000 0.96000 4.84974
v 4.65236 0.62000 5.27253
v 4.65236 0.96000 5.27253
v 4.51184 0.62000 5.67412
v 4.51184 0.96000 5.67412
v 4.28548 0.62000 6.03437
v 4.28548 0.96000 6.03437
v 3.98463 0.62000 6.33522
v 3.98463 0.96000 6.33522
v 3.62438 0.62000 6.56158
v 3.62438 0.96000 6.56158
v 3.22279 0.62000 6.70211
v 3.22279 0.96000 6.70211
v 2.80000 0.62000 6.74974
v 2.80000 0.96000 6.74974
v 2.37721 0.62000 6.70211
v 2.37721 0.96000 6.70211
v 1.97562 0.62000 6.56158
v 1.97562 0.96000 6.56158
v 1.61537 0.62000 6.33522
v 1.61537 0.96000 6.33522
v 1.31452 0.62000 6.03437
v 1.31452 0.96000 6.03437
v 1.08816 0.62000 5.67412
v 1.08816 0.96000 5.67412
v 0.94764 0.62000 5.27253
v 0.94764 0.96000 5.27253
v 0.90000 0.62000 4.84974
v 0.90000 0.96000 4.84974
v 0.94764 0.62000 4.42695
v 0.94764 0.96000 4.42695
v 1.08816 0.62000 4.02536
v 1.08816 0.96000 4.02536
v 1.31452 0.62000 3.66511
v 1.31452 0.96000 3.66511
v 1.61537 0.62000 3.36426
v 1.61537 0.96000 3.36426
v 1.97562 0.62000 3.13790
v 1.97562 0.96000 3.13790
v 2.37721 0.62000 2.99738
v 2.37721 0.96000 2.99738
v 2.80000 0.62000 2.94974
v 2.80000 0.96000 2.94974
v 3.22279 0.62000 2.99738
v 3.22279 0.96000 2.99738
v 3.62438 0.62000 3.13790
v 3.62438 0.96000 3.13790
v 3.98463 0.62000 3.36426
v 3.98463 0.96000 3.36426
v 4.28548 0.62000 3.66511
v 4.28548 0.96000 3.66511
v 4.51184 0.62000 4.02536
v 4.51184 0.96000 4.02536
v 4.65236 0.62000 4.42695
v 4.65236 0.96000 4.42695
v 2.80000 0.62000 4.84974
v 2.80000 0.96000 4.84974
v 4.40000 0.96000 4.84974
v 4.40000 1.04000 4.84974
v 4.35988 0.96000 5.20578
v 4.35988 1.04000 5.20578
v 4.24155 0.96000 5.54396
v 4.24155 1.04000 5.54396
v 4.05093 0.96000 5.84733
v 4.05093 1.04000 5.84733
v 3.79758 0.96000 6.10067
v 3.79758 1.04000 6.10067
v 3.49421 0.96000 6.29129
v 3.49421 1.04000 6.29129
v 3.15603 0.96000 6.40963
v 3.15603 1.04000 6.40963
v 2.80000 0.96000 6.44974
v 2.80000 1.04000 6.44974
v 2.44397 0.96000 6.40963
v 2.44397 1.04000 6.40963
v 2.10579 0.96000 6.29129
v 2.10579 1.04000 6.29129
v 1.80242 0.96000 6.10067
v 1.80242 1.04000 6.10067
v 1.54907 0.96000 5.84733
v 1.54907 1.04000 5.84733
v 1.35845 0.96000 5.54396
v 1.35845 1.04000 5.54396
v 1.24012 0.96000 5.20578
v 1.24012 1.04000 5.20578
v 1.20000 0.96000 4.84974
v 1.20000 1.04000 4.84974
v 1.24012 0.96000 4.49371
v 1.24012 1.04000 4.49371
v 1.35845 0.96000 4.15553
v 1.35845 1.04000 4.15553
v 1.54907 0.96000 3.85216
v 1.54907 1.04000 3.85216
v 1.80242 0.96000 3.59881
v 1.80242 1.04000 3.59881
v 2.10579 0.96000 3.40819
v 2.10579 1.04000 3.40819
v 2.44397 0.96000 3.28986
v 2.44397 1.04000 3.28986
v 2.80000 0.96000 3.24974
v 2.80000 1.04000 3.24974
v 3.15603 0.96000 3.28986
v 3.15603 1.04000 3.28986
v 3.49421 0.96000 3.40819
v 3.49421 1.04000 3.40819
v 3.79758 0.96000 3.59881
v 3.79758 1.04000 3.59881
v 4.05093 0.96000 3.85216
v 4.05093 1.04000 3.85216
v 4.24155 0.96000 4.15553
v 4.24155 1.04000 4.15553
v 4.35988 0.96000 4.49371
v 4.35988 1.04000 4.49371
v 2.80000 0.96000 4.84974
v 2.80000 1.04000 4.84974
v -0.17321 0.95000 -0.10000
v -0.12247 0.80858 -0.07071
v -0.00000 0.75000 -0.00000
v 0.12247 0.80858 0.07071
v 0.17321 0.95000 0.10000
v 0.12247 1.09142 0.07071
v 0.00000 1.15000 0.00000
v -0.12247 1.09142 -0.07071
v -2.97321 0.95000 4.74974
v -2.92247 0.80858 4.77903
v -2.80000 0.75000 4.84974
v -2.67753 0.80858 4.92045
v -2.62679 0.95000 4.94974
v -2.67753 1.09142 4.92045
v -2.80000 1.15000 4.84974
v -2.92247 1.09142 4.77903
v 0.00000 0.95000 0.00000
v -2.80000 0.95000 4.84974
v -0.90000 0.62000 4.84974
v -0.90000 0.96000 4.84974
v -0.94764 0.62000 5.27253
v -0.94764 0.96000 5.27253
v -1.08816 0.62000 5.67412
v -1.08816 0.96000 5.67412
v -1.31452 0.62000 6.03437
v -1.31452 0.96000 6.03437
v -1.61537 0.62000 6.33522
v -1.61537 0.96000 6.33522
v -1.97562 0.62000 6.56158
v -1.97562 0.96000 6.56158
v -2.37721 0.62000 6.70211
v -2.37721 0.96000 6.70211
v -2.80000 0.62000 6.74974
v -2.80000 0.96000 6.74974
v -3.22279 0.62000 6.70211
v -3.22279 0.96000 6.70211
v -3.62438 0.62000 6.56158
v -3.62438 0.96000 6.56158
v -3.98463 0.62000 6.33522
v -3.98463 0.96000 6.33522
v -4.28548 0.62000 6.03437
v -4.28548 0.96000 6.03437
v -4.51184 0.62000 5.67412
v -4.51184 0.96000 5.67412
v -4.65236 0.62000 5.27253
v -4.65236 0.96000 5.27253
v -4.70000 0.62000 4.84974
v -4.70000 0.96000 4.84974
v -4.65236 0.62000 4.42695
v -4.65236 0.96000 4.42695
v -4.51184 0.62000 4.02536
v -4.51184 0.96000 4.02536
v -4.28548 0.62000 3.66511
v -4.28548 0.96000 3.66511
v -3.98463 0.62000 3.36426
v -3.98463 0.96000 3.36426
v -3.62438 0.62000 3.13790
v -3.62438 0.96000 3.13790
v -3.22279 0.62000 2.99738
v -3.22279 0.96000 2.99738
v -2.80000 0.62000 2.94974
v -2.80000 0.96000 2.94974
v -2.37721 0.62000 2.99738
v -2.37721 0.96000 2.99738
v -1.97562 0.62000 3.13790
v -1.97562 0.96000 3.13790
v -1.61537 0.62000 3.36426
v -1.61537 0.96000 3.36426
v -1.31452 0.62000 3.66511
v -1.31452 0.96000 3.66511
v -1.08816 0.62000 4.02536
v -1.08816 0.96000 4.02536
v -0.94764 0.62000 4.42695
v -0.94764 0.96000 4.42695
v -2.80000 0.62000 4.84974
v -2.80000 0.96000 4.84974
v -1.20000 0.96000 4.84974
v -1.20000 1.04000 4.84974
v -1.24012 0.96000 5.20578
v -1.24012 1.04000 5.20578
v -1.35845 0.96000 5.54396
v -1.35845 1.04000 5.54396
v -1.54907 0.96000 5.84733
v -1.54907 1.04000 5.84733
v -1.80242 0.96000 6.10067
v -1.80242 1.04000 6.10067
v -2.10579 0.96000 6.29129
v -2.10579 1.04000 6.29129
v -2.44397 0.96000 6.40963
v -2.44397 1.04000 6.40963
v -2.80000 0.96000 6.44974
v -2.80000 1.04000 6.44974
v -3.15603 0.96000 6.40963
v -3.15603 1.04000 6.40963
v -3.49421 0.96000 6.29129
v -3.49421 1.04000 6.29129
v -3.79758 0.96000 6.10067
v -3.79758 1.04000 6.10067
v -4.05093 0.96000 5.84733
v -4.05093 1.04000 5.84733
v -4.24155 0.96000 5.54396
v -4.24155 1.04000 5.54396
v -4.35988 0.96000 5.20578
v -4.35988 1.04000 5.20578
v -4.40000 0.96000 4.84974
v -4.40000 1.04000 4.84974
v -4.35988 0.96000 4.49371
v -4.35988 1.04000 4.49371
v -4.24155 0.96000 4.15553
v -4.24155 1.04000 4.15553
v -4.05093 0.96000 3.85216
v -4.05093 1.04000 3.85216
v -3.79758 0.96000 3.59881
v -3.79758 1.04000 3.59881
v -3.49421 0.96000 3.40819
v -3.49421 1.04000 3.40819
v -3.15603 0.96000 3.28986
v -3.15603 1.04000 3.28986
v -2.80000 0.96000 3.24974
v -2.80000 1.04000 3.24974
v -2.44397 0.96000 3.28986
v -2.44397 1.04000 3.28986
v -2.10579 0.96000 3.40819
v -2.10579 1.04000 3.40819
v -1.80242 0.96000 3.59881
v -1.80242 1.04000 3.59881
v -1.54907 0.96000 3.85216
v -1.54907 1.04000 3.85216
v -1.35845 0.96000 4.15553
v -1.35845 1.04000 4.15553
v -1.24012 0.96000 4.49371
v -1.24012 1.04000 4.49371
v -2.80000 0.96000 4.84974
v -2.80000 1.04000 4.84974
v -0.00000 0.95000 -0.20000
v -0.00000 0.80858 -0.14142
v -0.00000 0.75000 -0.00000
v 0.00000 0.80858 0.14142
v 0.00000 0.95000 0.20000
v 0.00000 1.09142 0.14142
v 0.00000 1.15000 0.00000
v -0.00000 1.09142 -0.14142
v -5.60000 0.95000 -0.20000
v -5.60000 0.80858 -0.14142
v -5.60000 0.75000 0.00000
v -5.60000 0.80858 0.14142
v -5.60000 0.95000 0.20000
v -5.60000 1.09142 0.14142
v -5.60000 1.15000 0.00000
v -5.60000 1.09142 -0.14142
v 0.00000 0.95000 0.00000
v -5.60000 0.95000 0.00000
v -3.70000 0.62000 0.00000
v -3.70000 0.96000 0.00000
v -3.74764 0.62000 0.42279
v -3.74764 0.96000 0.42279
v -3.88816 0.62000 0.82438
v -3.88816 0.96000 0.82438
v -4.11452 0.62000 1.18463
v -4.11452 0.96000 1.18463
v -4.41537 0.62000 1.48548
v -4.41537 0.96000 1.48548
v -4.77562 0.62000 1.71184
v -4.77562 0.96000 1.71184
v -5.17721 0.62000 1.85236
v -5.17721 0.96000 1.85236
v -5.60000 0.62000 1.90000
v -5.60000 0.96000 1.90000
v -6.02279 0.62000 1.85236
v -6.02279 0.96000 1.85236
v -6.42438 0.62000 1.71184
v -6.42438 0.96000 1.71184
v -6.78463 0.62000 1.48548
v -6.78463 0.96000 1.48548
v -7.08548 0.62000 1.18463
v -7.08548 0.96000 1.18463
v -7.31184 0.62000 0.82438
v -7.31184 0.96000 0.82438
v -7.45236 0.62000 0.42279
v -7.45236 0.96000 0.42279
v -7.50000 0.62000 0.00000
v -7.50000 0.96000 0.00000
v -7.45236 0.62000 -0.42279
v -7.45236 0.96000 -0.42279
v -7.31184 0.62000 -0.82438
v -7.31184 0.96000 -0.82438
v -7.08548 0.62000 -1.18463
v -7.08548 0.96000 -1.18463
v -6.78463 0.62000 -1.48548
v -6.78463 0.96000 -1.48548
v -6.42438 0.62000 -1.71184
v -6.42438 0.96000 -1.71184
v -6.02279 0.62000 -1.85236
v -6.02279 0.96000 -1.85236
v -5.60000 0.62000 -1.90000
v -5.60000 0.96000 -1.90000
v -5.17721 0.62000 -1.85236
v -5.17721 0.96000 -1.85236
v -4.77562 0.62000 -1.71184
v -4.77562 0.96000 -1.71184
v -4.41537 0.62000 -1.48548
v -4.41537 0.96000 -1.48548
v -4.11452 0.62000 -1.18463
v -4.11452 0.96000 -1.18463
v -3.88816 0.62000 -0.82438
v -3.88816 0.96000 -0.82438
v -3.74764 0.62000 -0.42279
v -3.74764 0.96000 -0.42279
v -5.60000 0.62000 0.00000
v -5.60000 0.96000 0.00000
v -4.00000 0.96000 0.00000
v -4.00000 1.04000 0.00000
v -4.04012 0.96000 0.35603
v -4.04012 1.04000 0.35603
v -4.15845 0.96000 0.69421
v -4.15845 1.04000 0.69421
v -4.34907 0.96000 0.99758
v -4.34907 1.04000 0.99758
v -4.60242 0.96000 1.25093
v -4.60242 1.04000 1.25093
v -4.90579 0.96000 1.44155
v -4.90579 1.04000 1.44155
v -5.24397 0.96000 1.55988
v -5.24397 1.04000 1.55988
v -5.60000 0.96000 1.60000
v -5.60000 1.04000 1.60000
v -5.95603 0.96000 1.55988
v -5.95603 1.04000 1.55988
v -6.29421 0.96000 1.44155
v -6.29421 1.04000 1.44155
v -6.59758 0.96000 1.25093
v -6.59758 1.04000 1.25093
v -6.85093 0.96000 0.99758
v -6.85093 1.04000 0.99758
v -7.04155 0.96000 0.69421
v -7.04155 1.04000 0.69421
v -7.15988 0.96000 0.35603
v -7.15988 1.04000 0.35603
v -7.20000 0.96000 0.00000
v -7.20000 1.04000 0.00000
v -7.15988 0.96000 -0.35603
v -7.15988 1.04000 -0.35603
v -7.04155 0.96000 -0.69421
v -7.04155 1.04000 -0.69421
v -6.85093 0.96000 -0.99758
v -6.85093 1.04000 -0.99758
v -6.59758 0.96000 -1.25093
v -6.59758 1.04000 -1.25093
v -6.29421 0.96000 -1.44155
v -6.29421 1.04000 -1.44155
v -5.95603 0.96000 -1.55988
v -5.95603 1.04000 -1.55988
v -5.60000 0.96000 -1.60000
v -5.60000 1.04000 -1.60000
v -5.24397 0.96000 -1.55988
v -5.24397 1.04000 -1.55988
v -4.90579 0.96000 -1.44155
v -4.90579 1.04000 -1.44155
v -4.60242 0.96000 -1.25093
v -4.60242 1.04000 -1.25093
v -4.34907 0.96000 -0.99758
v -4.34907 1.04000 -0.99758
v -4.15845 0.96000 -0.69421
v -4.15845 1.04000 -0.69421
v -4.04012 0.96000 -0.35603
v -4.04012 1.04000 -0.35603
v -5.60000 0.96000 0.00000
v -5.60000 1.04000 0.00000
v 0.17321 0.95000 -0.10000
v 0.12247 0.80858 -0.07071
v 0.00000 0.75000 -0.00000
v -0.12247 0.80858 0.07071
v -0.17321 0.95000 0.10000
v -0.12247 1.09142 0.07071
v -0.00000 1.15000 0.00000
v 0.12247 1.09142 -0.07071
v -2.62679 0.95000 -4.94974
v -2.67753 0.80858 -4.92045
v -2.80000 0.75000 -4.84974
v -2.92247 0.80858 -4.77903
v -2.97321 0.95000 -4.74974
v -2.92247 1.09142 -4.77903
v -2.80000 1.15000 -4.84974
v -2.67753 1.09142 -4.92045
v 0.00000 0.95000 0.00000
v -2.80000 0.95000 -4.84974
v -0.90000 0.62000 -4.84974
v -0.90000 0.96000 -4.84974
v -0.94764 0.62000 -4.42695
v -0.94764 0.96000 -4.42695
v -1.08816 0.62000 -4.02536
v -1.08816 0.96000 -4.02536
v -1.31452 0.62000 -3.66511
v -1.31452 0.96000 -3.66511
v -1.61537 0.62000 -3.36426
v -1.61537 0.96000 -3.36426
v -1.97562 0.62000 -3.13790
v -1.97562 0.96000 -3.13790
v -2.37721 0.62000 -2.99738
v -2.37721 0.96000 -2.99738
v -2.80000 0.62000 -2.94974
v -2.80000 0.96000 -2.94974
v -3.22279 0.62000 -2.99738
v -3.22279 0.96000 -2.99738
v -3.62438 0.62000 -3.13790
v -3.62438 0.96000 -3.13790
v -3.98463 0.62000 -3.36426
v -3.98463 0.96000 -3.36426
v -4.28548 0.62000 -3.66511
v -4.28548 0.96000 -3.66511
v -4.51184 0.62000 -4.02536
v -4.51184 0.96000 -4.02536
v -4.65236 0.62000 -4.42695
v -4.65236 0.96000 -4.42695
v -4.70000 0.62000 -4.84974
v -4.70000 0.96000 -4.84974
v -4.65236 0.62000 -5.27253
v -4.65236 0.96000 -5.27253
v -4.51184 0.62000 -5.67412
v -4.51184 0.96000 -5.67412
v -4.28548 0.62000 -6.03437
v -4.28548 0.96000 -6.03437
v -3.98463 0.62000 -6.33522
v -3.98463 0.96000 -6.33522
v -3.62438 0.62000 -6.56158
v -3.62438 0.96000 -6.56158
v -3.22279 0.62000 -6.70211
v -3.22279 0.96000 -6.70211
v -2.80000 0.62000 -6.74974
v -2.80000 0.96000 -6.74974
v -2.37721 0.62000 -6.70211
v -2.37721 0.96000 -6.70211
v -1.97562 0.62000 -6.56158
v -1.97562 0.96000 -6.56158
v -1.61537 0.62000 -6.33522
v -1.61537 0.96000 -6.33522
v -1.31452 0.62000 -6.03437
v -1.31452 0.96000 -6.03437
v -1.08816 0.62000 -5.67412
v -1.08816 0.96000 -5.67412
v -0.94764 0.62000 -5.27253
v -0.94764 0.96000 -5.27253
v -2.80000 0.62000 -4.84974
v -2.80000 0.96000 -4.84974
v -1.20000 0.96000 -4.84974
v -1.20000 1.04000 -4.84974
v -1.24012 0.96000 -4.49371
v -1.24012 1.04000 -4.49371
v -1.35845 0.96000 -4.15553
v -1.35845 1.04000 -4.15553
v -1.54907 0.96000 -3.85216
v -1.54907 1.04000 -3.85216
v -1.80242 0.96000 -3.59881
v -1.80242 1.04000 -3.59881
v -2.10579 0.96000 -3.40819
v -2.10579 1.04000 -3.40819
v -2.44397 0.96000 -3.28986
v -2.44397 1.04000 -3.28986
v -2.80000 0.96000 -3.24974
v -2.80000 1.04000 -3.24974
v -3.15603 0.96000 -3.28986
v -3.15603 1.04000 -3.28986
v -3.49421 0.96000 -3.40819
v -3.49421 1.04000 -3.40819
v -3.79758 0.96000 -3.59881
v -3.79758 1.04000 -3.59881
v -4.05093 0.96000 -3.85216
v -4.05093 1.04000 -3.85216
v -4.24155 0.96000 -4.15553
v -4.24155 1.04000 -4.15553
v -4.35988 0.96000 -4.49371
v -4.35988 1.04000 -4.49371
v -4.40000 0.96000 -4.84974
v -4.40000 1.04000 -4.84974
v -4.35988 0.96000 -5.20578
v -4.35988 1.04000 -5.20578
v -4.24155 0.96000 -5.54396
v -4.24155 1.04000 -5.54396
v -4.05093 0.96000 -5.84733
v -4.05093 1.04000 -5.84733
v -3.79758 0.96000 -6.10067
v -3.79758 1.04000 -6.10067
v -3.49421 0.96000 -6.29129
v -3.49421 1.04000 -6.29129
v -3.15603 0.96000 -6.40963
v -3.15603 1.04000 -6.40963
v -2.80000 0.96000 -6.44974
v -2.80000 1.04000 -6.44974
v -2.44397 0.96000 -6.40963
v -2.44397 1.04000 -6.40963
v -2.10579 0.96000 -6.29129
v -2.10579 1.04000 -6.29129
v -1.80242 0.96000 -6.10067
v -1.80242 1.04000 -6.10067
v -1.54907 0.96000 -5.84733
v -1.54907 1.04000 -5.84733
v -1.35845 0.96000 -5.54396
v -1.35845 1.04000 -5.54396
v -1.24012 0.96000 -5.20578
v -1.24012 1.04000 -5.20578
v -2.80000 0.96000 -4.84974
v -2.80000 1.04000 -4.84974
v 0.17321 0.95000 0.10000
v 0.12247 0.80858 0.07071
v 0.00000 0.75000 0.00000
v -0.12247 0.80858 -0.07071
v -0.17321 0.95000 -0.10000
v -0.12247 1.09142 -0.07071
v -0.00000 1.15000 -0.00000
v 0.12247 1.09142 0.07071
v 2.97321 0.95000 -4.74974
v 2.92247 0.80858 -4.77903
v 2.80000 0.75000 -4.84974
v 2.67753 0.80858 -4.92045
v 2.62679 0.95000 -4.94974
v 2.67753 1.09142 -4.92045
v 2.80000 1.15000 -4.84974
v 2.92247 1.09142 -4.77903
v 0.00000 0.95000 0.00000
v 2.80000 0.95000 -4.84974
v 4.70000 0.62000 -4.84974
v 4.70000 0.96000 -4.84974
v 4.65236 0.62000 -4.42695
v 4.65236 0.96000 -4.42695
v 4.51184 0.62000 -4.02536
v 4.51184 0.96000 -4.02536
v 4.28548 0.62000 -3.66511
v 4.28548 0.96000 -3.66511
v 3.98463 0.62000 -3.36426
v 3.98463 0.96000 -3.36426
v 3.62438 0.62000 -3.13790
v 3.62438 0.96000 -3.13790
v 3.22279 0.62000 -2.99738
v 3.22279 0.96000 -2.99738
v 2.80000 0.62000 -2.94974
v 2.80000 0.96000 -2.94974
v 2.37721 0.62000 -2.99738
v 2.37721 0.96000 -2.99738
v 1.97562 0.62000 -3.13790
v 1.97562 0.96000 -3.13790
v 1.61537 0.62000 -3.36426
v 1.61537 0.96000 -3.36426
v 1.31452 0.62000 -3.66511
v 1.31452 0.96000 -3.66511
v 1.08816 0.62000 -4.02536
v 1.08816 0.96000 -4.02536
v 0.94764 0.62000 -4.42695
v 0.94764 0.96000 -4.42695
v 0.90000 0.62000 -4.84974
v 0.90000 0.96000 -4.84974
v 0.94764 0.62000 -5.27253
v 0.94764 0.96000 -5.27253
v 1.08816 0.62000 -5.67412
v 1.08816 0.96000 -5.67412
v 1.31452 0.62000 -6.03437
v 1.31452 0.96000 -6.03437
v 1.61537 0.62000 -6.33522
v 1.61537 0.96000 -6.33522
v 1.97562 0.62000 -6.56158
v 1.97562 0.96000 -6.56158
v 2.37721 0.62000 -6.70211
v 2.37721 0.96000 -6.70211
v 2.80000 0.62000 -6.74974
v 2.80000 0.96000 -6.74974
v 3.22279 0.62000 -6.70211
v 3.22279 0.96000 -6.70211
v 3.62438 0.62000 -6.56158
v 3.62438 0.96000 -6.56158
v 3.98463 0.62000 -6.33522
v 3.98463 0.96000 -6.33522
v 4.28548 0.62000 -6.03437
v 4.28548 0.96000 -6.03437
v 4.51184 0.62000 -5.67412
v 4.51184 0.96000 -5.67412
v 4.65236 0.62000 -5.27253
v 4.65236 0.96000 -5.27253
v 2.80000 0.62000 -4.84974
v 2.80000 0.96000 -4.84974
v 4.40000 0.96000 -4.84974
v 4.40000 1.04000 -4.84974
v 4.35988 0.96000 -4.49371
v 4.35988 1.04000 -4.49371
v 4.24155 0.96000 -4.15553
v 4.24155 1.04000 -4.15553
v 4.05093 0.96000 -3.85216
v 4.05093 1.04000 -3.85216
v 3.79758 0.96000 -3.59881
v 3.79758 1.04000 -3.59881
v 3.49421 0.96000 -3.40819
v 3.49421 1.04000 -3.40819
v 3.15603 0.96000 -3.28986
v 3.15603 1.04000 -3.28986
v 2.80000 0.96000 -3.24974
v 2.80000 1.04000 -3.24974
v 2.44397 0.96000 -3.28986
v 2.44397 1.04000 -3.28986
v 2.10579 0.96000 -3.40819
v 2.10579 1.04000 -3.40819
v 1.80242 0.96000 -3.59881
v 1.80242 1.04000 -3.59881
v 1.54907 0.96000 -3.85216
v 1.54907 1.04000 -3.85216
v 1.35845 0.96000 -4.15553
v 1.35845 1.04000 -4.15553
v 1.24012 0.96000 -4.49371
v 1.24012 1.04000 -4.49371
v 1.20000 0.96000 -4.84974
v 1.20000 1.04000 -4.84974
v 1.24012 0.96000 -5.20578
v 1.24012 1.04000 -5.20578
v 1.35845 0.96000 -5.54396
v 1.35845 1.04000 -5.54396
v 1.54907 0.96000 -5.84733
v 1.54907 1.04000 -5.84733
v 1.80242 0.96000 -6.10067
v 1.80242 1.04000 -6.10067
v 2.10579 0.96000 -6.29129
v 2.10579 1.04000 -6.29129
v 2.44397 0.96000 -6.40963
v 2.44397 1.04000 -6.40963
v 2.80000 0.96000 -6.44974
v 2.80000 1.04000 -6.44974
v 3.15603 0.96000 -6.40963
v 3.15603 1.04000 -6.40963
v 3.49421 0.96000 -6.29129
v 3.49421 1.04000 -6.29129
v 3.79758 0.96000 -6.10067
v 3.79758 1.04000 -6.10067
v 4.05093 0.96000 -5.84733
v 4.05093 1.04000 -5.84733
v 4.24155 0.96000 -5.54396
v 4.24155 1.04000 -5.54396
v 4.35988 0.96000 -5.20578
v 4.35988 1.04000 -5.20578
v 2.80000 0.96000 -4.84974
v 2.80000 1.04000 -4.84974
vt 0.05000 0.50000
vt 0.15000 0.50000
vt 0.25000 0.50000
vt 0.35000 0.50000
vt 0.45000 0.50000
vt 0.55000 0.50000
vt 0.65000 0.50000
vt 0.75000 0.50000
vt 0.85000 0.50000
vt 0.95000 0.50000
usemtl cream
f 2/1 4/1 3/1 1/1
f 1/1 3/1 97/1
f 4/1 2/1 98/1
f 4/1 6/1 5/1 3/1
f 3/1 5/1 97/1
f 6/1 4/1 98/1
f 6/1 8/1 7/1 5/1
f 5/1 7/1 97/1
f 8/1 6/1 98/1
f 8/1 10/1 9/1 7/1
f 7/1 9/1 97/1
f 10/1 8/1 98/1
f 10/1 12/1 11/1 9/1
f 9/1 11/1 97/1
f 12/1 10/1 98/1
f 12/1 14/1 13/1 11/1
f 11/1 13/1 97/1
f 14/1 12/1 98/1
f 14/1 16/1 15/1 13/1
f 13/1 15/1 97/1
f 16/1 14/1 98/1
f 16/1 18/1 17/1 15/1
f 15/1 17/1 97/1
f 18/1 16/1 98/1
f 18/1 20/1 19/1 17/1
f 17/1 19/1 97/1
f 20/1 18/1 98/1
f 20/1 22/1 21/1 19/1
f 19/1 21/1 97/1
f 22/1 20/1 98/1
f 22/1 24/1 23/1 21/1
f 21/1 23/1 97/1
f 24/1 22/1 98/1
f 24/1 26/1 25/1 23/1
f 23/1 25/1 97/1
f 26/1 24/1 98/1
f 26/1 28/1 27/1 25/1
f 25/1 27/1 97/1
f 28/1 26/1 98/1
f 28/1 30/1 29/1 27/1
f 27/1 29/1 97/1
f 30/1 28/1 98/1
f 30/1 32/1 31/1 29/1
f 29/1 31/1 97/1
f 32/1 30/1 98/1
f 32/1 34/1 33/1 31/1
f 31/1 33/1 97/1
f 34/1 32/1 98/1
f 34/1 36/1 35/1 33/1
f 33/1 35/1 97/1
f 36/1 34/1 98/1
f 36/1 38/1 37/1 35/1
f 35/1 37/1 97/1
f 38/1 36/1 98/1
f 38/1 40/1 39/1 37/1
f 37/1 39/1 97/1
f 40/1 38/1 98/1
f 40/1 42/1 41/1 39/1
f 39/1 41/1 97/1
f 42/1 40/1 98/1
f 42/1 44/1 43/1 41/1
f 41/1 43/1 97/1
f 44/1 42/1 98/1
f 44/1 46/1 45/1 43/1
f 43/1 45/1 97/1
f 46/1 44/1 98/1
f 46/1 48/1 47/1 45/1
f 45/1 47/1 97/1
f 48/1 46/1 98/1
f 48/1 50/1 49/1 47/1
f 47/1 49/1 97/1
f 50/1 48/1 98/1
f 50/1 52/1 51/1 49/1
f 49/1 51/1 97/1
f 52/1 50/1 98/1
f 52/1 54/1 53/1 51/1
f 51/1 53/1 97/1
f 54/1 52/1 98/1
f 54/1 56/1 55/1 53/1
f 53/1 55/1 97/1
f 56/1 54/1 98/1
f 56/1 58/1 57/1 55/1
f 55/1 57/1 97/1
f 58/1 56/1 98/1
f 58/1 60/1 59/1 57/1
f 57/1 59/1 97/1
f 60/1 58/1 98/1
f 60/1 62/1 61/1 59/1
f 59/1 61/1 97/1
f 62/1 60/1 98/1
f 62/1 64/1 63/1 61/1
f 61/1 63/1 97/1
f 64/1 62/1 98/1
f 64/1 66/1 65/1 63/1
f 63/1 65/1 97/1
f 66/1 64/1 98/1
f 66/1 68/1 67/1 65/1
f 65/1 67/1 97/1
f 68/1 66/1 98/1
f 68/1 70/1 69/1 67/1
f 67/1 69/1 97/1
f 70/1 68/1 98/1
f 70/1 72/1 71/1 69/1
f 69/1 71/1 97/1
f 72/1 70/1 98/1
f 72/1 74/1 73/1 71/1
f 71/1 73/1 97/1
f 74/1 72/1 98/1
f 74/1 76/1 75/1 73/1
f 73/1 75/1 97/1
f 76/1 74/1 98/1
f 76/1 78/1 77/1 75/1
f 75/1 77/1 97/1
f 78/1 76/1 98/1
f 78/1 80/1 79/1 77/1
f 77/1 79/1 97/1
f 80/1 78/1 98/1
f 80/1 82/1 81/1 79/1
f 79/1 81/1 97/1
f 82/1 80/1 98/1
f 82/1 84/1 83/1 81/1
f 81/1 83/1 97/1
f 84/1 82/1 98/1
f 84/1 86/1 85/1 83/1
f 83/1 85/1 97/1
f 86/1 84/1 98/1
f 86/1 88/1 87/1 85/1
f 85/1 87/1 97/1
f 88/1 86/1 98/1
f 88/1 90/1 89/1 87/1
f 87/1 89/1 97/1
f 90/1 88/1 98/1
f 90/1 92/1 91/1 89/1
f 89/1 91/1 97/1
f 92/1 90/1 98/1
f 92/1 94/1 93/1 91/1
f 91/1 93/1 97/1
f 94/1 92/1 98/1
f 94/1 96/1 95/1 93/1
f 93/1 95/1 97/1
f 96/1 94/1 98/1
f 96/1 2/1 1/1 95/1
f 95/1 1/1 97/1
f 2/1 96/1 98/1
f 667/1 668/1 640/1 639/1
f 668/1 669/1 641/1 640/1
f 669/1 670/1 642/1 641/1
f 670/1 671/1 643/1 642/1
f 671/1 672/1 644/1 643/1
f 672/1 673/1 645/1 644/1
f 673/1 674/1 646/1 645/1
f 674/1 675/1 647/1 646/1
f 675/1 676/1 648/1 647/1
f 676/1 677/1 649/1 648/1
f 677/1 678/1 650/1 649/1
f 678/1 679/1 651/1 650/1
f 679/1 680/1 652/1 651/1
f 680/1 681/1 653/1 652/1
f 681/1 682/1 654/1 653/1
f 682/1 683/1 655/1 654/1
f 683/1 684/1 656/1 655/1
f 684/1 685/1 657/1 656/1
f 685/1 686/1 658/1 657/1
f 686/1 687/1 659/1 658/1
f 687/1 688/1 660/1 659/1
f 688/1 689/1 661/1 660/1
f 689/1 690/1 662/1 661/1
f 690/1 691/1 663/1 662/1
f 691/1 692/1 664/1 663/1
f 692/1 693/1 665/1 664/1
f 693/1 694/1 666/1 665/1
f 694/1 667/1 639/1 666/1
f 723/1 724/1 696/1 695/1
f 724/1 725/1 697/1 696/1
f 725/1 726/1 698/1 697/1
f 726/1 727/1 699/1 698/1
f 727/1 728/1 700/1 699/1
f 728/1 729/1 701/1 700/1
f 729/1 730/1 702/1 701/1
f 730/1 731/1 703/1 702/1
f 731/1 732/1 704/1 703/1
f 732/1 733/1 705/1 704/1
f 733/1 734/1 706/1 705/1
f 734/1 735/1 707/1 706/1
f 735/1 736/1 708/1 707/1
f 736/1 737/1 709/1 708/1
f 737/1 738/1 710/1 709/1
f 738/1 739/1 711/1 710/1
f 739/1 740/1 712/1 711/1
f 740/1 741/1 713/1 712/1
f 741/1 742/1 714/1 713/1
f 742/1 743/1 715/1 714/1
f 743/1 744/1 716/1 715/1
f 744/1 745/1 717/1 716/1
f 745/1 746/1 718/1 717/1
f 746/1 747/1 719/1 718/1
f 747/1 748/1 720/1 719/1
f 748/1 749/1 721/1 720/1
f 749/1 750/1 722/1 721/1
f 750/1 723/1 695/1 722/1
f 964/1 966/1 965/1 963/1
f 963/1 965/1 1019/1
f 966/1 964/1 1020/1
f 966/1 968/1 967/1 965/1
f 965/1 967/1 1019/1
f 968/1 966/1 1020/1
f 968/1 970/1 969/1 967/1
f 967/1 969/1 1019/1
f 970/1 968/1 1020/1
f 970/1 972/1 971/1 969/1
f 969/1 971/1 1019/1
f 972/1 970/1 1020/1
f 972/1 974/1 973/1 971/1
f 971/1 973/1 1019/1
f 974/1 972/1 1020/1
f 974/1 976/1 975/1 973/1
f 973/1 975/1 1019/1
f 976/1 974/1 1020/1
f 976/1 978/1 977/1 975/1
f 975/1 977/1 1019/1
f 978/1 976/1 1020/1
f 978/1 980/1 979/1 977/1
f 977/1 979/1 1019/1
f 980/1 978/1 1020/1
f 980/1 982/1 981/1 979/1
f 979/1 981/1 1019/1
f 982/1 980/1 1020/1
f 982/1 984/1 983/1 981/1
f 981/1 983/1 1019/1
f 984/1 982/1 1020/1
f 984/1 986/1 985/1 983/1
f 983/1 985/1 1019/1
f 986/1 984/1 1020/1
f 986/1 988/1 987/1 985/1
f 985/1 987/1 1019/1
f 988/1 986/1 1020/1
f 988/1 990/1 989/1 987/1
f 987/1 989/1 1019/1
f 990/1 988/1 1020/1
f 990/1 992/1 991/1 989/1
f 989/1 991/1 1019/1
f 992/1 990/1 1020/1
f 992/1 994/1 993/1 991/1
f 991/1 993/1 1019/1
f 994/1 992/1 1020/1
f 994/1 996/1 995/1 993/1
f 993/1 995/1 1019/1
f 996/1 994/1 1020/1
f 996/1 998/1 997/1 995/1
f 995/1 997/1 1019/1
f 998/1 996/1 1020/1
f 998/1 1000/1 999/1 997/1
f 997/1 999/1 1019/1
f 1000/1 998/1 1020/1
f 1000/1 1002/1 1001/1 999/1
f 999/1 1001/1 1019/1
f 1002/1 1000/1 1020/1
f 1002/1 1004/1 1003/1 1001/1
f 1001/1 1003/1 1019/1
f 1004/1 1002/1 1020/1
f 1004/1 1006/1 1005/1 1003/1
f 1003/1 1005/1 1019/1
f 1006/1 1004/1 1020/1
f 1006/1 1008/1 1007/1 1005/1
f 1005/1 1007/1 1019/1
f 1008/1 1006/1 1020/1
f 1008/1 1010/1 1009/1 1007/1
f 1007/1 1009/1 1019/1
f 1010/1 1008/1 1020/1
f 1010/1 1012/1 1011/1 1009/1
f 1009/1 1011/1 1019/1
f 1012/1 1010/1 1020/1
f 1012/1 1014/1 1013/1 1011/1
f 1011/1 1013/1 1019/1
f 1014/1 1012/1 1020/1
f 1014/1 1016/1 1015/1 1013/1
f 1013/1 1015/1 1019/1
f 1016/1 1014/1 1020/1
f 1016/1 1018/1 1017/1 1015/1
f 1015/1 1017/1 1019/1
f 1018/1 1016/1 1020/1
f 1018/1 964/1 963/1 1017/1
f 1017/1 963/1 1019/1
f 964/1 1018/1 1020/1
f 1098/1 1100/1 1099/1 1097/1
f 1097/1 1099/1 1153/1
f 1100/1 1098/1 1154/1
f 1100/1 1102/1 1101/1 1099/1
f 1099/1 1101/1 1153/1
f 1102/1 1100/1 1154/1
f 1102/1 1104/1 1103/1 1101/1
f 1101/1 1103/1 1153/1
f 1104/1 1102/1 1154/1
f 1104/1 1106/1 1105/1 1103/1
f 1103/1 1105/1 1153/1
f 1106/1 1104/1 1154/1
f 1106/1 1108/1 1107/1 1105/1
f 1105/1 1107/1 1153/1
f 1108/1 1106/1 1154/1
f 1108/1 1110/1 1109/1 1107/1
f 1107/1 1109/1 1153/1
f 1110/1 1108/1 1154/1
f 1110/1 1112/1 1111/1 1109/1
f 1109/1 1111/1 1153/1
f 1112/1 1110/1 1154/1
f 1112/1 1114/1 1113/1 1111/1
f 1111/1 1113/1 1153/1
f 1114/1 1112/1 1154/1
f 1114/1 1116/1 1115/1 1113/1
f 1113/1 1115/1 1153/1
f 1116/1 1114/1 1154/1
f 1116/1 1118/1 1117/1 1115/1
f 1115/1 1117/1 1153/1
f 1118/1 1116/1 1154/1
f 1118/1 1120/1 1119/1 1117/1
f 1117/1 1119/1 1153/1
f 1120/1 1118/1 1154/1
f 1120/1 1122/1 1121/1 1119/1
f 1119/1 1121/1 1153/1
f 1122/1 1120/1 1154/1
f 1122/1 1124/1 1123/1 1121/1
f 1121/1 1123/1 1153/1
f 1124/1 1122/1 1154/1
f 1124/1 1126/1 1125/1 1123/1
f 1123/1 1125/1 1153/1
f 1126/1 1124/1 1154/1
f 1126/1 1128/1 1127/1 1125/1
f 1125/1 1127/1 1153/1
f 1128/1 1126/1 1154/1
f 1128/1 1130/1 1129/1 1127/1
f 1127/1 1129/1 1153/1
f 1130/1 1128/1 1154/1
f 1130/1 1132/1 1131/1 1129/1
f 1129/1 1131/1 1153/1
f 1132/1 1130/1 1154/1
f 1132/1 1134/1 1133/1 1131/1
f 1131/1 1133/1 1153/1
f 1134/1 1132/1 1154/1
f 1134/1 1136/1 1135/1 1133/1
f 1133/1 1135/1 1153/1
f 1136/1 1134/1 1154/1
f 1136/1 1138/1 1137/1 1135/1
f 1135/1 1137/1 1153/1
f 1138/1 1136/1 1154/1
f 1138/1 1140/1 1139/1 1137/1
f 1137/1 1139/1 1153/1
f 1140/1 1138/1 1154/1
f 1140/1 1142/1 1141/1 1139/1
f 1139/1 1141/1 1153/1
f 1142/1 1140/1 1154/1
f 1142/1 1144/1 1143/1 1141/1
f 1141/1 1143/1 1153/1
f 1144/1 1142/1 1154/1
f 1144/1 1146/1 1145/1 1143/1
f 1143/1 1145/1 1153/1
f 1146/1 1144/1 1154/1
f 1146/1 1148/1 1147/1 1145/1
f 1145/1 1147/1 1153/1
f 1148/1 1146/1 1154/1
f 1148/1 1150/1 1149/1 1147/1
f 1147/1 1149/1 1153/1
f 1150/1 1148/1 1154/1
f 1150/1 1152/1 1151/1 1149/1
f 1149/1 1151/1 1153/1
f 1152/1 1150/1 1154/1
f 1152/1 1098/1 1097/1 1151/1
f 1151/1 1097/1 1153/1
f 1098/1 1152/1 1154/1
f 1232/1 1234/1 1233/1 1231/1
f 1231/1 1233/1 1287/1
f 1234/1 1232/1 1288/1
f 1234/1 1236/1 1235/1 1233/1
f 1233/1 1235/1 1287/1
f 1236/1 1234/1 1288/1
f 1236/1 1238/1 1237/1 1235/1
f 1235/1 1237/1 1287/1
f 1238/1 1236/1 1288/1
f 1238/1 1240/1 1239/1 1237/1
f 1237/1 1239/1 1287/1
f 1240/1 1238/1 1288/1
f 1240/1 1242/1 1241/1 1239/1
f 1239/1 1241/1 1287/1
f 1242/1 1240/1 1288/1
f 1242/1 1244/1 1243/1 1241/1
f 1241/1 1243/1 1287/1
f 1244/1 1242/1 1288/1
f 1244/1 1246/1 1245/1 1243/1
f 1243/1 1245/1 1287/1
f 1246/1 1244/1 1288/1
f 1246/1 1248/1 1247/1 1245/1
f 1245/1 1247/1 1287/1
f 1248/1 1246/1 1288/1
f 1248/1 1250/1 1249/1 1247/1
f 1247/1 1249/1 1287/1
f 1250/1 1248/1 1288/1
f 1250/1 1252/1 1251/1 1249/1
f 1249/1 1251/1 1287/1
f 1252/1 1250/1 1288/1
f 1252/1 1254/1 1253/1 1251/1
f 1251/1 1253/1 1287/1
f 1254/1 1252/1 1288/1
f 1254/1 1256/1 1255/1 1253/1
f 1253/1 1255/1 1287/1
f 1256/1 1254/1 1288/1
f 1256/1 1258/1 1257/1 1255/1
f 1255/1 1257/1 1287/1
f 1258/1 1256/1 1288/1
f 1258/1 1260/1 1259/1 1257/1
f 1257/1 1259/1 1287/1
f 1260/1 1258/1 1288/1
f 1260/1 1262/1 1261/1 1259/1
f 1259/1 1261/1 1287/1
f 1262/1 1260/1 1288/1
f 1262/1 1264/1 1263/1 1261/1
f 1261/1 1263/1 1287/1
f 1264/1 1262/1 1288/1
f 1264/1 1266/1 1265/1 1263/1
f 1263/1 1265/1 1287/1
f 1266/1 1264/1 1288/1
f 1266/1 1268/1 1267/1 1265/1
f 1265/1 1267/1 1287/1
f 1268/1 1266/1 1288/1
f 1268/1 1270/1 1269/1 1267/1
f 1267/1 1269/1 1287/1
f 1270/1 1268/1 1288/1
f 1270/1 1272/1 1271/1 1269/1
f 1269/1 1271/1 1287/1
f 1272/1 1270/1 1288/1
f 1272/1 1274/1 1273/1 1271/1
f 1271/1 1273/1 1287/1
f 1274/1 1272/1 1288/1
f 1274/1 1276/1 1275/1 1273/1
f 1273/1 1275/1 1287/1
f 1276/1 1274/1 1288/1
f 1276/1 1278/1 1277/1 1275/1
f 1275/1 1277/1 1287/1
f 1278/1 1276/1 1288/1
f 1278/1 1280/1 1279/1 1277/1
f 1277/1 1279/1 1287/1
f 1280/1 1278/1 1288/1
f 1280/1 1282/1 1281/1 1279/1
f 1279/1 1281/1 1287/1
f 1282/1 1280/1 1288/1
f 1282/1 1284/1 1283/1 1281/1
f 1281/1 1283/1 1287/1
f 1284/1 1282/1 1288/1
f 1284/1 1286/1 1285/1 1283/1
f 1283/1 1285/1 1287/1
f 1286/1 1284/1 1288/1
f 1286/1 1232/1 1231/1 1285/1
f 1285/1 1231/1 1287/1
f 1232/1 1286/1 1288/1
f 1366/1 1368/1 1367/1 1365/1
f 1365/1 1367/1 1421/1
f 1368/1 1366/1 1422/1
f 1368/1 1370/1 1369/1 1367/1
f 1367/1 1369/1 1421/1
f 1370/1 1368/1 1422/1
f 1370/1 1372/1 1371/1 1369/1
f 1369/1 1371/1 1421/1
f 1372/1 1370/1 1422/1
f 1372/1 1374/1 1373/1 1371/1
f 1371/1 1373/1 1421/1
f 1374/1 1372/1 1422/1
f 1374/1 1376/1 1375/1 1373/1
f 1373/1 1375/1 1421/1
f 1376/1 1374/1 1422/1
f 1376/1 1378/1 1377/1 1375/1
f 1375/1 1377/1 1421/1
f 1378/1 1376/1 1422/1
f 1378/1 1380/1 1379/1 1377/1
f 1377/1 1379/1 1421/1
f 1380/1 1378/1 1422/1
f 1380/1 1382/1 1381/1 1379/1
f 1379/1 1381/1 1421/1
f 1382/1 1380/1 1422/1
f 1382/1 1384/1 1383/1 1381/1
f 1381/1 1383/1 1421/1
f 1384/1 1382/1 1422/1
f 1384/1 1386/1 1385/1 1383/1
f 1383/1 1385/1 1421/1
f 1386/1 1384/1 1422/1
f 1386/1 1388/1 1387/1 1385/1
f 1385/1 1387/1 1421/1
f 1388/1 1386/1 1422/1
f 1388/1 1390/1 1389/1 1387/1
f 1387/1 1389/1 1421/1
f 1390/1 1388/1 1422/1
f 1390/1 1392/1 1391/1 1389/1
f 1389/1 1391/1 1421/1
f 1392/1 1390/1 1422/1
f 1392/1 1394/1 1393/1 1391/1
f 1391/1 1393/1 1421/1
f 1394/1 1392/1 1422/1
f 1394/1 1396/1 1395/1 1393/1
f 1393/1 1395/1 1421/1
f 1396/1 1394/1 1422/1
f 1396/1 1398/1 1397/1 1395/1
f 1395/1 1397/1 1421/1
f 1398/1 1396/1 1422/1
f 1398/1 1400/1 1399/1 1397/1
f 1397/1 1399/1 1421/1
f 1400/1 1398/1 1422/1
f 1400/1 1402/1 1401/1 1399/1
f 1399/1 1401/1 1421/1
f 1402/1 1400/1 1422/1
f 1402/1 1404/1 1403/1 1401/1
f 1401/1 1403/1 1421/1
f 1404/1 1402/1 1422/1
f 1404/1 1406/1 1405/1 1403/1
f 1403/1 1405/1 1421/1
f 1406/1 1404/1 1422/1
f 1406/1 1408/1 1407/1 1405/1
f 1405/1 1407/1 1421/1
f 1408/1 1406/1 1422/1
f 1408/1 1410/1 1409/1 1407/1
f 1407/1 1409/1 1421/1
f 1410/1 1408/1 1422/1
f 1410/1 1412/1 1411/1 1409/1
f 1409/1 1411/1 1421/1
f 1412/1 1410/1 1422/1
f 1412/1 1414/1 1413/1 1411/1
f 1411/1 1413/1 1421/1
f 1414/1 1412/1 1422/1
f 1414/1 1416/1 1415/1 1413/1
f 1413/1 1415/1 1421/1
f 1416/1 1414/1 1422/1
f 1416/1 1418/1 1417/1 1415/1
f 1415/1 1417/1 1421/1
f 1418/1 1416/1 1422/1
f 1418/1 1420/1 1419/1 1417/1
f 1417/1 1419/1 1421/1
f 1420/1 1418/1 1422/1
f 1420/1 1366/1 1365/1 1419/1
f 1419/1 1365/1 1421/1
f 1366/1 1420/1 1422/1
f 1500/1 1502/1 1501/1 1499/1
f 1499/1 1501/1 1555/1
f 1502/1 1500/1 1556/1
f 1502/1 1504/1 1503/1 1501/1
f 1501/1 1503/1 1555/1
f 1504/1 1502/1 1556/1
f 1504/1 1506/1 1505/1 1503/1
f 1503/1 1505/1 1555/1
f 1506/1 1504/1 1556/1
f 1506/1 1508/1 1507/1 1505/1
f 1505/1 1507/1 1555/1
f 1508/1 1506/1 1556/1
f 1508/1 1510/1 1509/1 1507/1
f 1507/1 1509/1 1555/1
f 1510/1 1508/1 1556/1
f 1510/1 1512/1 1511/1 1509/1
f 1509/1 1511/1 1555/1
f 1512/1 1510/1 1556/1
f 1512/1 1514/1 1513/1 1511/1
f 1511/1 1513/1 1555/1
f 1514/1 1512/1 1556/1
f 1514/1 1516/1 1515/1 1513/1
f 1513/1 1515/1 1555/1
f 1516/1 1514/1 1556/1
f 1516/1 1518/1 1517/1 1515/1
f 1515/1 1517/1 1555/1
f 1518/1 1516/1 1556/1
f 1518/1 1520/1 1519/1 1517/1
f 1517/1 1519/1 1555/1
f 1520/1 1518/1 1556/1
f 1520/1 1522/1 1521/1 1519/1
f 1519/1 1521/1 1555/1
f 1522/1 1520/1 1556/1
f 1522/1 1524/1 1523/1 1521/1
f 1521/1 1523/1 1555/1
f 1524/1 1522/1 1556/1
f 1524/1 1526/1 1525/1 1523/1
f 1523/1 1525/1 1555/1
f 1526/1 1524/1 1556/1
f 1526/1 1528/1 1527/1 1525/1
f 1525/1 1527/1 1555/1
f 1528/1 1526/1 1556/1
f 1528/1 1530/1 1529/1 1527/1
f 1527/1 1529/1 1555/1
f 1530/1 1528/1 1556/1
f 1530/1 1532/1 1531/1 1529/1
f 1529/1 1531/1 1555/1
f 1532/1 1530/1 1556/1
f 1532/1 1534/1 1533/1 1531/1
f 1531/1 1533/1 1555/1
f 1534/1 1532/1 1556/1
f 1534/1 1536/1 1535/1 1533/1
f 1533/1 1535/1 1555/1
f 1536/1 1534/1 1556/1
f 1536/1 1538/1 1537/1 1535/1
f 1535/1 1537/1 1555/1
f 1538/1 1536/1 1556/1
f 1538/1 1540/1 1539/1 1537/1
f 1537/1 1539/1 1555/1
f 1540/1 1538/1 1556/1
f 1540/1 1542/1 1541/1 1539/1
f 1539/1 1541/1 1555/1
f 1542/1 1540/1 1556/1
f 1542/1 1544/1 1543/1 1541/1
f 1541/1 1543/1 1555/1
f 1544/1 1542/1 1556/1
f 1544/1 1546/1 1545/1 1543/1
f 1543/1 1545/1 1555/1
f 1546/1 1544/1 1556/1
f 1546/1 1548/1 1547/1 1545/1
f 1545/1 1547/1 1555/1
f 1548/1 1546/1 1556/1
f 1548/1 1550/1 1549/1 1547/1
f 1547/1 1549/1 1555/1
f 1550/1 1548/1 1556/1
f 1550/1 1552/1 1551/1 1549/1
f 1549/1 1551/1 1555/1
f 1552/1 1550/1 1556/1
f 1552/1 1554/1 1553/1 1551/1
f 1551/1 1553/1 1555/1
f 1554/1 1552/1 1556/1
f 1554/1 1500/1 1499/1 1553/1
f 1553/1 1499/1 1555/1
f 1500/1 1554/1 1556/1
f 1634/1 1636/1 1635/1 1633/1
f 1633/1 1635/1 1689/1
f 1636/1 1634/1 1690/1
f 1636/1 1638/1 1637/1 1635/1
f 1635/1 1637/1 1689/1
f 1638/1 1636/1 1690/1
f 1638/1 1640/1 1639/1 1637/1
f 1637/1 1639/1 1689/1
f 1640/1 1638/1 1690/1
f 1640/1 1642/1 1641/1 1639/1
f 1639/1 1641/1 1689/1
f 1642/1 1640/1 1690/1
f 1642/1 1644/1 1643/1 1641/1
f 1641/1 1643/1 1689/1
f 1644/1 1642/1 1690/1
f 1644/1 1646/1 1645/1 1643/1
f 1643/1 1645/1 1689/1
f 1646/1 1644/1 1690/1
f 1646/1 1648/1 1647/1 1645/1
f 1645/1 1647/1 1689/1
f 1648/1 1646/1 1690/1
f 1648/1 1650/1 1649/1 1647/1
f 1647/1 1649/1 1689/1
f 1650/1 1648/1 1690/1
f 1650/1 1652/1 1651/1 1649/1
f 1649/1 1651/1 1689/1
f 1652/1 1650/1 1690/1
f 1652/1 1654/1 1653/1 1651/1
f 1651/1 1653/1 1689/1
f 1654/1 1652/1 1690/1
f 1654/1 1656/1 1655/1 1653/1
f 1653/1 1655/1 1689/1
f 1656/1 1654/1 1690/1
f 1656/1 1658/1 1657/1 1655/1
f 1655/1 1657/1 1689/1
f 1658/1 1656/1 1690/1
f 1658/1 1660/1 1659/1 1657/1
f 1657/1 1659/1 1689/1
f 1660/1 1658/1 1690/1
f 1660/1 1662/1 1661/1 1659/1
f 1659/1 1661/1 1689/1
f 1662/1 1660/1 1690/1
f 1662/1 1664/1 1663/1 1661/1
f 1661/1 1663/1 1689/1
f 1664/1 1662/1 1690/1
f 1664/1 1666/1 1665/1 1663/1
f 1663/1 1665/1 1689/1
f 1666/1 1664/1 1690/1
f 1666/1 1668/1 1667/1 1665/1
f 1665/1 1667/1 1689/1
f 1668/1 1666/1 1690/1
f 1668/1 1670/1 1669/1 1667/1
f 1667/1 1669/1 1689/1
f 1670/1 1668/1 1690/1
f 1670/1 1672/1 1671/1 1669/1
f 1669/1 1671/1 1689/1
f 1672/1 1670/1 1690/1
f 1672/1 1674/1 1673/1 1671/1
f 1671/1 1673/1 1689/1
f 1674/1 1672/1 1690/1
f 1674/1 1676/1 1675/1 1673/1
f 1673/1 1675/1 1689/1
f 1676/1 1674/1 1690/1
f 1676/1 1678/1 1677/1 1675/1
f 1675/1 1677/1 1689/1
f 1678/1 1676/1 1690/1
f 1678/1 1680/1 1679/1 1677/1
f 1677/1 1679/1 1689/1
f 1680/1 1678/1 1690/1
f 1680/1 1682/1 1681/1 1679/1
f 1679/1 1681/1 1689/1
f 1682/1 1680/1 1690/1
f 1682/1 1684/1 1683/1 1681/1
f 1681/1 1683/1 1689/1
f 1684/1 1682/1 1690/1
f 1684/1 1686/1 1685/1 1683/1
f 1683/1 1685/1 1689/1
f 1686/1 1684/1 1690/1
f 1686/1 1688/1 1687/1 1685/1
f 1685/1 1687/1 1689/1
f 1688/1 1686/1 1690/1
f 1688/1 1634/1 1633/1 1687/1
f 1687/1 1633/1 1689/1
f 1634/1 1688/1 1690/1
usemtl gold
f 100/4 102/4 101/4 99/4
f 99/4 101/4 195/4
f 102/4 100/4 196/4
f 102/4 104/4 103/4 101/4
f 101/4 103/4 195/4
f 104/4 102/4 196/4
f 104/4 106/4 105/4 103/4
f 103/4 105/4 195/4
f 106/4 104/4 196/4
f 106/4 108/4 107/4 105/4
f 105/4 107/4 195/4
f 108/4 106/4 196/4
f 108/4 110/4 109/4 107/4
f 107/4 109/4 195/4
f 110/4 108/4 196/4
f 110/4 112/4 111/4 109/4
f 109/4 111/4 195/4
f 112/4 110/4 196/4
f 112/4 114/4 113/4 111/4
f 111/4 113/4 195/4
f 114/4 112/4 196/4
f 114/4 116/4 115/4 113/4
f 113/4 115/4 195/4
f 116/4 114/4 196/4
f 116/4 118/4 117/4 115/4
f 115/4 117/4 195/4
f 118/4 116/4 196/4
f 118/4 120/4 119/4 117/4
f 117/4 119/4 195/4
f 120/4 118/4 196/4
f 120/4 122/4 121/4 119/4
f 119/4 121/4 195/4
f 122/4 120/4 196/4
f 122/4 124/4 123/4 121/4
f 121/4 123/4 195/4
f 124/4 122/4 196/4
f 124/4 126/4 125/4 123/4
f 123/4 125/4 195/4
f 126/4 124/4 196/4
f 126/4 128/4 127/4 125/4
f 125/4 127/4 195/4
f 128/4 126/4 196/4
f 128/4 130/4 129/4 127/4
f 127/4 129/4 195/4
f 130/4 128/4 196/4
f 130/4 132/4 131/4 129/4
f 129/4 131/4 195/4
f 132/4 130/4 196/4
f 132/4 134/4 133/4 131/4
f 131/4 133/4 195/4
f 134/4 132/4 196/4
f 134/4 136/4 135/4 133/4
f 133/4 135/4 195/4
f 136/4 134/4 196/4
f 136/4 138/4 137/4 135/4
f 135/4 137/4 195/4
f 138/4 136/4 196/4
f 138/4 140/4 139/4 137/4
f 137/4 139/4 195/4
f 140/4 138/4 196/4
f 140/4 142/4 141/4 139/4
f 139/4 141/4 195/4
f 142/4 140/4 196/4
f 142/4 144/4 143/4 141/4
f 141/4 143/4 195/4
f 144/4 142/4 196/4
f 144/4 146/4 145/4 143/4
f 143/4 145/4 195/4
f 146/4 144/4 196/4
f 146/4 148/4 147/4 145/4
f 145/4 147/4 195/4
f 148/4 146/4 196/4
f 148/4 150/4 149/4 147/4
f 147/4 149/4 195/4
f 150/4 148/4 196/4
f 150/4 152/4 151/4 149/4
f 149/4 151/4 195/4
f 152/4 150/4 196/4
f 152/4 154/4 153/4 151/4
f 151/4 153/4 195/4
f 154/4 152/4 196/4
f 154/4 156/4 155/4 153/4
f 153/4 155/4 195/4
f 156/4 154/4 196/4
f 156/4 158/4 157/4 155/4
f 155/4 157/4 195/4
f 158/4 156/4 196/4
f 158/4 160/4 159/4 157/4
f 157/4 159/4 195/4
f 160/4 158/4 196/4
f 160/4 162/4 161/4 159/4
f 159/4 161/4 195/4
f 162/4 160/4 196/4
f 162/4 164/4 163/4 161/4
f 161/4 163/4 195/4
f 164/4 162/4 196/4
f 164/4 166/4 165/4 163/4
f 163/4 165/4 195/4
f 166/4 164/4 196/4
f 166/4 168/4 167/4 165/4
f 165/4 167/4 195/4
f 168/4 166/4 196/4
f 168/4 170/4 169/4 167/4
f 167/4 169/4 195/4
f 170/4 168/4 196/4
f 170/4 172/4 171/4 169/4
f 169/4 171/4 195/4
f 172/4 170/4 196/4
f 172/4 174/4 173/4 171/4
f 171/4 173/4 195/4
f 174/4 172/4 196/4
f 174/4 176/4 175/4 173/4
f 173/4 175/4 195/4
f 176/4 174/4 196/4
f 176/4 178/4 177/4 175/4
f 175/4 177/4 195/4
f 178/4 176/4 196/4
f 178/4 180/4 179/4 177/4
f 177/4 179/4 195/4
f 180/4 178/4 196/4
f 180/4 182/4 181/4 179/4
f 179/4 181/4 195/4
f 182/4 180/4 196/4
f 182/4 184/4 183/4 181/4
f 181/4 183/4 195/4
f 184/4 182/4 196/4
f 184/4 186/4 185/4 183/4
f 183/4 185/4 195/4
f 186/4 184/4 196/4
f 186/4 188/4 187/4 185/4
f 185/4 187/4 195/4
f 188/4 186/4 196/4
f 188/4 190/4 189/4 187/4
f 187/4 189/4 195/4
f 190/4 188/4 196/4
f 190/4 192/4 191/4 189/4
f 189/4 191/4 195/4
f 192/4 190/4 196/4
f 192/4 194/4 193/4 191/4
f 191/4 193/4 195/4
f 194/4 192/4 196/4
f 194/4 100/4 99/4 193/4
f 193/4 99/4 195/4
f 100/4 194/4 196/4
f 639/4 640/4 612/4 611/4
f 640/4 641/4 613/4 612/4
f 641/4 642/4 614/4 613/4
f 642/4 643/4 615/4 614/4
f 643/4 644/4 616/4 615/4
f 644/4 645/4 617/4 616/4
f 645/4 646/4 618/4 617/4
f 646/4 647/4 619/4 618/4
f 647/4 648/4 620/4 619/4
f 648/4 649/4 621/4 620/4
f 649/4 650/4 622/4 621/4
f 650/4 651/4 623/4 622/4
f 651/4 652/4 624/4 623/4
f 652/4 653/4 625/4 624/4
f 653/4 654/4 626/4 625/4
f 654/4 655/4 627/4 626/4
f 655/4 656/4 628/4 627/4
f 656/4 657/4 629/4 628/4
f 657/4 658/4 630/4 629/4
f 658/4 659/4 631/4 630/4
f 659/4 660/4 632/4 631/4
f 660/4 661/4 633/4 632/4
f 661/4 662/4 634/4 633/4
f 662/4 663/4 635/4 634/4
f 663/4 664/4 636/4 635/4
f 664/4 665/4 637/4 636/4
f 665/4 666/4 638/4 637/4
f 666/4 639/4 611/4 638/4
f 779/4 780/4 752/4 751/4
f 780/4 781/4 753/4 752/4
f 781/4 782/4 754/4 753/4
f 782/4 783/4 755/4 754/4
f 783/4 784/4 756/4 755/4
f 784/4 785/4 757/4 756/4
f 785/4 786/4 758/4 757/4
f 786/4 787/4 759/4 758/4
f 787/4 788/4 760/4 759/4
f 788/4 789/4 761/4 760/4
f 789/4 790/4 762/4 761/4
f 790/4 791/4 763/4 762/4
f 791/4 792/4 764/4 763/4
f 792/4 793/4 765/4 764/4
f 793/4 794/4 766/4 765/4
f 794/4 795/4 767/4 766/4
f 795/4 796/4 768/4 767/4
f 796/4 797/4 769/4 768/4
f 797/4 798/4 770/4 769/4
f 798/4 799/4 771/4 770/4
f 799/4 800/4 772/4 771/4
f 800/4 801/4 773/4 772/4
f 801/4 802/4 774/4 773/4
f 802/4 803/4 775/4 774/4
f 803/4 804/4 776/4 775/4
f 804/4 805/4 777/4 776/4
f 805/4 806/4 778/4 777/4
f 806/4 779/4 751/4 778/4
f 835/4 836/4 885/4
f 876/4 875/4 886/4
f 836/4 837/4 885/4
f 877/4 876/4 886/4
f 837/4 838/4 885/4
f 878/4 877/4 886/4
f 838/4 839/4 885/4
f 879/4 878/4 886/4
f 839/4 840/4 885/4
f 880/4 879/4 886/4
f 840/4 841/4 885/4
f 881/4 880/4 886/4
f 841/4 842/4 885/4
f 882/4 881/4 886/4
f 842/4 843/4 885/4
f 883/4 882/4 886/4
f 843/4 844/4 885/4
f 884/4 883/4 886/4
f 844/4 835/4 885/4
f 875/4 884/4 886/4
f 845/4 846/4 836/4 835/4
f 846/4 847/4 837/4 836/4
f 847/4 848/4 838/4 837/4
f 848/4 849/4 839/4 838/4
f 849/4 850/4 840/4 839/4
f 850/4 851/4 841/4 840/4
f 851/4 852/4 842/4 841/4
f 852/4 853/4 843/4 842/4
f 853/4 854/4 844/4 843/4
f 854/4 845/4 835/4 844/4
f 855/4 856/4 846/4 845/4
f 856/4 857/4 847/4 846/4
f 857/4 858/4 848/4 847/4
f 858/4 859/4 849/4 848/4
f 859/4 860/4 850/4 849/4
f 860/4 861/4 851/4 850/4
f 861/4 862/4 852/4 851/4
f 862/4 863/4 853/4 852/4
f 863/4 864/4 854/4 853/4
f 864/4 855/4 845/4 854/4
f 865/4 866/4 856/4 855/4
f 866/4 867/4 857/4 856/4
f 867/4 868/4 858/4 857/4
f 868/4 869/4 859/4 858/4
f 869/4 870/4 860/4 859/4
f 870/4 871/4 861/4 860/4
f 871/4 872/4 862/4 861/4
f 872/4 873/4 863/4 862/4
f 873/4 874/4 864/4 863/4
f 874/4 865/4 855/4 864/4
f 875/4 876/4 866/4 865/4
f 876/4 877/4 867/4 866/4
f 877/4 878/4 868/4 867/4
f 878/4 879/4 869/4 868/4
f 879/4 880/4 870/4 869/4
f 880/4 881/4 871/4 870/4
f 881/4 882/4 872/4 871/4
f 882/4 883/4 873/4 872/4
f 883/4 884/4 874/4 873/4
f 884/4 875/4 865/4 874/4
f 906/4 908/4 907/4 905/4
f 905/4 907/4 961/4
f 908/4 906/4 962/4
f 908/4 910/4 909/4 907/4
f 907/4 909/4 961/4
f 910/4 908/4 962/4
f 910/4 912/4 911/4 909/4
f 909/4 911/4 961/4
f 912/4 910/4 962/4
f 912/4 914/4 913/4 911/4
f 911/4 913/4 961/4
f 914/4 912/4 962/4
f 914/4 916/4 915/4 913/4
f 913/4 915/4 961/4
f 916/4 914/4 962/4
f 916/4 918/4 917/4 915/4
f 915/4 917/4 961/4
f 918/4 916/4 962/4
f 918/4 920/4 919/4 917/4
f 917/4 919/4 961/4
f 920/4 918/4 962/4
f 920/4 922/4 921/4 919/4
f 919/4 921/4 961/4
f 922/4 920/4 962/4
f 922/4 924/4 923/4 921/4
f 921/4 923/4 961/4
f 924/4 922/4 962/4
f 924/4 926/4 925/4 923/4
f 923/4 925/4 961/4
f 926/4 924/4 962/4
f 926/4 928/4 927/4 925/4
f 925/4 927/4 961/4
f 928/4 926/4 962/4
f 928/4 930/4 929/4 927/4
f 927/4 929/4 961/4
f 930/4 928/4 962/4
f 930/4 932/4 931/4 929/4
f 929/4 931/4 961/4
f 932/4 930/4 962/4
f 932/4 934/4 933/4 931/4
f 931/4 933/4 961/4
f 934/4 932/4 962/4
f 934/4 936/4 935/4 933/4
f 933/4 935/4 961/4
f 936/4 934/4 962/4
f 936/4 938/4 937/4 935/4
f 935/4 937/4 961/4
f 938/4 936/4 962/4
f 938/4 940/4 939/4 937/4
f 937/4 939/4 961/4
f 940/4 938/4 962/4
f 940/4 942/4 941/4 939/4
f 939/4 941/4 961/4
f 942/4 940/4 962/4
f 942/4 944/4 943/4 941/4
f 941/4 943/4 961/4
f 944/4 942/4 962/4
f 944/4 946/4 945/4 943/4
f 943/4 945/4 961/4
f 946/4 944/4 962/4
f 946/4 948/4 947/4 945/4
f 945/4 947/4 961/4
f 948/4 946/4 962/4
f 948/4 950/4 949/4 947/4
f 947/4 949/4 961/4
f 950/4 948/4 962/4
f 950/4 952/4 951/4 949/4
f 949/4 951/4 961/4
f 952/4 950/4 962/4
f 952/4 954/4 953/4 951/4
f 951/4 953/4 961/4
f 954/4 952/4 962/4
f 954/4 956/4 955/4 953/4
f 953/4 955/4 961/4
f 956/4 954/4 962/4
f 956/4 958/4 957/4 955/4
f 955/4 957/4 961/4
f 958/4 956/4 962/4
f 958/4 960/4 959/4 957/4
f 957/4 959/4 961/4
f 960/4 958/4 962/4
f 960/4 906/4 905/4 959/4
f 959/4 905/4 961/4
f 906/4 960/4 962/4
f 1040/4 1042/4 1041/4 1039/4
f 1039/4 1041/4 1095/4
f 1042/4 1040/4 1096/4
f 1042/4 1044/4 1043/4 1041/4
f 1041/4 1043/4 1095/4
f 1044/4 1042/4 1096/4
f 1044/4 1046/4 1045/4 1043/4
f 1043/4 1045/4 1095/4
f 1046/4 1044/4 1096/4
f 1046/4 1048/4 1047/4 1045/4
f 1045/4 1047/4 1095/4
f 1048/4 1046/4 1096/4
f 1048/4 1050/4 1049/4 1047/4
f 1047/4 1049/4 1095/4
f 1050/4 1048/4 1096/4
f 1050/4 1052/4 1051/4 1049/4
f 1049/4 1051/4 1095/4
f 1052/4 1050/4 1096/4
f 1052/4 1054/4 1053/4 1051/4
f 1051/4 1053/4 1095/4
f 1054/4 1052/4 1096/4
f 1054/4 1056/4 1055/4 1053/4
f 1053/4 1055/4 1095/4
f 1056/4 1054/4 1096/4
f 1056/4 1058/4 1057/4 1055/4
f 1055/4 1057/4 1095/4
f 1058/4 1056/4 1096/4
f 1058/4 1060/4 1059/4 1057/4
f 1057/4 1059/4 1095/4
f 1060/4 1058/4 1096/4
f 1060/4 1062/4 1061/4 1059/4
f 1059/4 1061/4 1095/4
f 1062/4 1060/4 1096/4
f 1062/4 1064/4 1063/4 1061/4
f 1061/4 1063/4 1095/4
f 1064/4 1062/4 1096/4
f 1064/4 1066/4 1065/4 1063/4
f 1063/4 1065/4 1095/4
f 1066/4 1064/4 1096/4
f 1066/4 1068/4 1067/4 1065/4
f 1065/4 1067/4 1095/4
f 1068/4 1066/4 1096/4
f 1068/4 1070/4 1069/4 1067/4
f 1067/4 1069/4 1095/4
f 1070/4 1068/4 1096/4
f 1070/4 1072/4 1071/4 1069/4
f 1069/4 1071/4 1095/4
f 1072/4 1070/4 1096/4
f 1072/4 1074/4 1073/4 1071/4
f 1071/4 1073/4 1095/4
f 1074/4 1072/4 1096/4
f 1074/4 1076/4 1075/4 1073/4
f 1073/4 1075/4 1095/4
f 1076/4 1074/4 1096/4
f 1076/4 1078/4 1077/4 1075/4
f 1075/4 1077/4 1095/4
f 1078/4 1076/4 1096/4
f 1078/4 1080/4 1079/4 1077/4
f 1077/4 1079/4 1095/4
f 1080/4 1078/4 1096/4
f 1080/4 1082/4 1081/4 1079/4
f 1079/4 1081/4 1095/4
f 1082/4 1080/4 1096/4
f 1082/4 1084/4 1083/4 1081/4
f 1081/4 1083/4 1095/4
f 1084/4 1082/4 1096/4
f 1084/4 1086/4 1085/4 1083/4
f 1083/4 1085/4 1095/4
f 1086/4 1084/4 1096/4
f 1086/4 1088/4 1087/4 1085/4
f 1085/4 1087/4 1095/4
f 1088/4 1086/4 1096/4
f 1088/4 1090/4 1089/4 1087/4
f 1087/4 1089/4 1095/4
f 1090/4 1088/4 1096/4
f 1090/4 1092/4 1091/4 1089/4
f 1089/4 1091/4 1095/4
f 1092/4 1090/4 1096/4
f 1092/4 1094/4 1093/4 1091/4
f 1091/4 1093/4 1095/4
f 1094/4 1092/4 1096/4
f 1094/4 1040/4 1039/4 1093/4
f 1093/4 1039/4 1095/4
f 1040/4 1094/4 1096/4
f 1174/4 1176/4 1175/4 1173/4
f 1173/4 1175/4 1229/4
f 1176/4 1174/4 1230/4
f 1176/4 1178/4 1177/4 1175/4
f 1175/4 1177/4 1229/4
f 1178/4 1176/4 1230/4
f 1178/4 1180/4 1179/4 1177/4
f 1177/4 1179/4 1229/4
f 1180/4 1178/4 1230/4
f 1180/4 1182/4 1181/4 1179/4
f 1179/4 1181/4 1229/4
f 1182/4 1180/4 1230/4
f 1182/4 1184/4 1183/4 1181/4
f 1181/4 1183/4 1229/4
f 1184/4 1182/4 1230/4
f 1184/4 1186/4 1185/4 1183/4
f 1183/4 1185/4 1229/4
f 1186/4 1184/4 1230/4
f 1186/4 1188/4 1187/4 1185/4
f 1185/4 1187/4 1229/4
f 1188/4 1186/4 1230/4
f 1188/4 1190/4 1189/4 1187/4
f 1187/4 1189/4 1229/4
f 1190/4 1188/4 1230/4
f 1190/4 1192/4 1191/4 1189/4
f 1189/4 1191/4 1229/4
f 1192/4 1190/4 1230/4
f 1192/4 1194/4 1193/4 1191/4
f 1191/4 1193/4 1229/4
f 1194/4 1192/4 1230/4
f 1194/4 1196/4 1195/4 1193/4
f 1193/4 1195/4 1229/4
f 1196/4 1194/4 1230/4
f 1196/4 1198/4 1197/4 1195/4
f 1195/4 1197/4 1229/4
f 1198/4 1196/4 1230/4
f 1198/4 1200/4 1199/4 1197/4
f 1197/4 1199/4 1229/4
f 1200/4 1198/4 1230/4
f 1200/4 1202/4 1201/4 1199/4
f 1199/4 1201/4 1229/4
f 1202/4 1200/4 1230/4
f 1202/4 1204/4 1203/4 1201/4
f 1201/4 1203/4 1229/4
f 1204/4 1202/4 1230/4
f 1204/4 1206/4 1205/4 1203/4
f 1203/4 1205/4 1229/4
f 1206/4 1204/4 1230/4
f 1206/4 1208/4 1207/4 1205/4
f 1205/4 1207/4 1229/4
f 1208/4 1206/4 1230/4
f 1208/4 1210/4 1209/4 1207/4
f 1207/4 1209/4 1229/4
f 1210/4 1208/4 1230/4
f 1210/4 1212/4 1211/4 1209/4
f 1209/4 1211/4 1229/4
f 1212/4 1210/4 1230/4
f 1212/4 1214/4 1213/4 1211/4
f 1211/4 1213/4 1229/4
f 1214/4 1212/4 1230/4
f 1214/4 1216/4 1215/4 1213/4
f 1213/4 1215/4 1229/4
f 1216/4 1214/4 1230/4
f 1216/4 1218/4 1217/4 1215/4
f 1215/4 1217/4 1229/4
f 1218/4 1216/4 1230/4
f 1218/4 1220/4 1219/4 1217/4
f 1217/4 1219/4 1229/4
f 1220/4 1218/4 1230/4
f 1220/4 1222/4 1221/4 1219/4
f 1219/4 1221/4 1229/4
f 1222/4 1220/4 1230/4
f 1222/4 1224/4 1223/4 1221/4
f 1221/4 1223/4 1229/4
f 1224/4 1222/4 1230/4
f 1224/4 1226/4 1225/4 1223/4
f 1223/4 1225/4 1229/4
f 1226/4 1224/4 1230/4
f 1226/4 1228/4 1227/4 1225/4
f 1225/4 1227/4 1229/4
f 1228/4 1226/4 1230/4
f 1228/4 1174/4 1173/4 1227/4
f 1227/4 1173/4 1229/4
f 1174/4 1228/4 1230/4
f 1308/4 1310/4 1309/4 1307/4
f 1307/4 1309/4 1363/4
f 1310/4 1308/4 1364/4
f 1310/4 1312/4 1311/4 1309/4
f 1309/4 1311/4 1363/4
f 1312/4 1310/4 1364/4
f 1312/4 1314/4 1313/4 1311/4
f 1311/4 1313/4 1363/4
f 1314/4 1312/4 1364/4
f 1314/4 1316/4 1315/4 1313/4
f 1313/4 1315/4 1363/4
f 1316/4 1314/4 1364/4
f 1316/4 1318/4 1317/4 1315/4
f 1315/4 1317/4 1363/4
f 1318/4 1316/4 1364/4
f 1318/4 1320/4 1319/4 1317/4
f 1317/4 1319/4 1363/4
f 1320/4 1318/4 1364/4
f 1320/4 1322/4 1321/4 1319/4
f 1319/4 1321/4 1363/4
f 1322/4 1320/4 1364/4
f 1322/4 1324/4 1323/4 1321/4
f 1321/4 1323/4 1363/4
f 1324/4 1322/4 1364/4
f 1324/4 1326/4 1325/4 1323/4
f 1323/4 1325/4 1363/4
f 1326/4 1324/4 1364/4
f 1326/4 1328/4 1327/4 1325/4
f 1325/4 1327/4 1363/4
f 1328/4 1326/4 1364/4
f 1328/4 1330/4 1329/4 1327/4
f 1327/4 1329/4 1363/4
f 1330/4 1328/4 1364/4
f 1330/4 1332/4 1331/4 1329/4
f 1329/4 1331/4 1363/4
f 1332/4 1330/4 1364/4
f 1332/4 1334/4 1333/4 1331/4
f 1331/4 1333/4 1363/4
f 1334/4 1332/4 1364/4
f 1334/4 1336/4 1335/4 1333/4
f 1333/4 1335/4 1363/4
f 1336/4 1334/4 1364/4
f 1336/4 1338/4 1337/4 1335/4
f 1335/4 1337/4 1363/4
f 1338/4 1336/4 1364/4
f 1338/4 1340/4 1339/4 1337/4
f 1337/4 1339/4 1363/4
f 1340/4 1338/4 1364/4
f 1340/4 1342/4 1341/4 1339/4
f 1339/4 1341/4 1363/4
f 1342/4 1340/4 1364/4
f 1342/4 1344/4 1343/4 1341/4
f 1341/4 1343/4 1363/4
f 1344/4 1342/4 1364/4
f 1344/4 1346/4 1345/4 1343/4
f 1343/4 1345/4 1363/4
f 1346/4 1344/4 1364/4
f 1346/4 1348/4 1347/4 1345/4
f 1345/4 1347/4 1363/4
f 1348/4 1346/4 1364/4
f 1348/4 1350/4 1349/4 1347/4
f 1347/4 1349/4 1363/4
f 1350/4 1348/4 1364/4
f 1350/4 1352/4 1351/4 1349/4
f 1349/4 1351/4 1363/4
f 1352/4 1350/4 1364/4
f 1352/4 1354/4 1353/4 1351/4
f 1351/4 1353/4 1363/4
f 1354/4 1352/4 1364/4
f 1354/4 1356/4 1355/4 1353/4
f 1353/4 1355/4 1363/4
f 1356/4 1354/4 1364/4
f 1356/4 1358/4 1357/4 1355/4
f 1355/4 1357/4 1363/4
f 1358/4 1356/4 1364/4
f 1358/4 1360/4 1359/4 1357/4
f 1357/4 1359/4 1363/4
f 1360/4 1358/4 1364/4
f 1360/4 1362/4 1361/4 1359/4
f 1359/4 1361/4 1363/4
f 1362/4 1360/4 1364/4
f 1362/4 1308/4 1307/4 1361/4
f 1361/4 1307/4 1363/4
f 1308/4 1362/4 1364/4
f 1442/4 1444/4 1443/4 1441/4
f 1441/4 1443/4 1497/4
f 1444/4 1442/4 1498/4
f 1444/4 1446/4 1445/4 1443/4
f 1443/4 1445/4 1497/4
f 1446/4 1444/4 1498/4
f 1446/4 1448/4 1447/4 1445/4
f 1445/4 1447/4 1497/4
f 1448/4 1446/4 1498/4
f 1448/4 1450/4 1449/4 1447/4
f 1447/4 1449/4 1497/4
f 1450/4 1448/4 1498/4
f 1450/4 1452/4 1451/4 1449/4
f 1449/4 1451/4 1497/4
f 1452/4 1450/4 1498/4
f 1452/4 1454/4 1453/4 1451/4
f 1451/4 1453/4 1497/4
f 1454/4 1452/4 1498/4
f 1454/4 1456/4 1455/4 1453/4
f 1453/4 1455/4 1497/4
f 1456/4 1454/4 1498/4
f 1456/4 1458/4 1457/4 1455/4
f 1455/4 1457/4 1497/4
f 1458/4 1456/4 1498/4
f 1458/4 1460/4 1459/4 1457/4
f 1457/4 1459/4 1497/4
f 1460/4 1458/4 1498/4
f 1460/4 1462/4 1461/4 1459/4
f 1459/4 1461/4 1497/4
f 1462/4 1460/4 1498/4
f 1462/4 1464/4 1463/4 1461/4
f 1461/4 1463/4 1497/4
f 1464/4 1462/4 1498/4
f 1464/4 1466/4 1465/4 1463/4
f 1463/4 1465/4 1497/4
f 1466/4 1464/4 1498/4
f 1466/4 1468/4 1467/4 1465/4
f 1465/4 1467/4 1497/4
f 1468/4 1466/4 1498/4
f 1468/4 1470/4 1469/4 1467/4
f 1467/4 1469/4 1497/4
f 1470/4 1468/4 1498/4
f 1470/4 1472/4 1471/4 1469/4
f 1469/4 1471/4 1497/4
f 1472/4 1470/4 1498/4
f 1472/4 1474/4 1473/4 1471/4
f 1471/4 1473/4 1497/4
f 1474/4 1472/4 1498/4
f 1474/4 1476/4 1475/4 1473/4
f 1473/4 1475/4 1497/4
f 1476/4 1474/4 1498/4
f 1476/4 1478/4 1477/4 1475/4
f 1475/4 1477/4 1497/4
f 1478/4 1476/4 1498/4
f 1478/4 1480/4 1479/4 1477/4
f 1477/4 1479/4 1497/4
f 1480/4 1478/4 1498/4
f 1480/4 1482/4 1481/4 1479/4
f 1479/4 1481/4 1497/4
f 1482/4 1480/4 1498/4
f 1482/4 1484/4 1483/4 1481/4
f 1481/4 1483/4 1497/4
f 1484/4 1482/4 1498/4
f 1484/4 1486/4 1485/4 1483/4
f 1483/4 1485/4 1497/4
f 1486/4 1484/4 1498/4
f 1486/4 1488/4 1487/4 1485/4
f 1485/4 1487/4 1497/4
f 1488/4 1486/4 1498/4
f 1488/4 1490/4 1489/4 1487/4
f 1487/4 1489/4 1497/4
f 1490/4 1488/4 1498/4
f 1490/4 1492/4 1491/4 1489/4
f 1489/4 1491/4 1497/4
f 1492/4 1490/4 1498/4
f 1492/4 1494/4 1493/4 1491/4
f 1491/4 1493/4 1497/4
f 1494/4 1492/4 1498/4
f 1494/4 1496/4 1495/4 1493/4
f 1493/4 1495/4 1497/4
f 1496/4 1494/4 1498/4
f 1496/4 1442/4 1441/4 1495/4
f 1495/4 1441/4 1497/4
f 1442/4 1496/4 1498/4
f 1576/4 1578/4 1577/4 1575/4
f 1575/4 1577/4 1631/4
f 1578/4 1576/4 1632/4
f 1578/4 1580/4 1579/4 1577/4
f 1577/4 1579/4 1631/4
f 1580/4 1578/4 1632/4
f 1580/4 1582/4 1581/4 1579/4
f 1579/4 1581/4 1631/4
f 1582/4 1580/4 1632/4
f 1582/4 1584/4 1583/4 1581/4
f 1581/4 1583/4 1631/4
f 1584/4 1582/4 1632/4
f 1584/4 1586/4 1585/4 1583/4
f 1583/4 1585/4 1631/4
f 1586/4 1584/4 1632/4
f 1586/4 1588/4 1587/4 1585/4
f 1585/4 1587/4 1631/4
f 1588/4 1586/4 1632/4
f 1588/4 1590/4 1589/4 1587/4
f 1587/4 1589/4 1631/4
f 1590/4 1588/4 1632/4
f 1590/4 1592/4 1591/4 1589/4
f 1589/4 1591/4 1631/4
f 1592/4 1590/4 1632/4
f 1592/4 1594/4 1593/4 1591/4
f 1591/4 1593/4 1631/4
f 1594/4 1592/4 1632/4
f 1594/4 1596/4 1595/4 1593/4
f 1593/4 1595/4 1631/4
f 1596/4 1594/4 1632/4
f 1596/4 1598/4 1597/4 1595/4
f 1595/4 1597/4 1631/4
f 1598/4 1596/4 1632/4
f 1598/4 1600/4 1599/4 1597/4
f 1597/4 1599/4 1631/4
f 1600/4 1598/4 1632/4
f 1600/4 1602/4 1601/4 1599/4
f 1599/4 1601/4 1631/4
f 1602/4 1600/4 1632/4
f 1602/4 1604/4 1603/4 1601/4
f 1601/4 1603/4 1631/4
f 1604/4 1602/4 1632/4
f 1604/4 1606/4 1605/4 1603/4
f 1603/4 1605/4 1631/4
f 1606/4 1604/4 1632/4
f 1606/4 1608/4 1607/4 1605/4
f 1605/4 1607/4 1631/4
f 1608/4 1606/4 1632/4
f 1608/4 1610/4 1609/4 1607/4
f 1607/4 1609/4 1631/4
f 1610/4 1608/4 1632/4
f 1610/4 1612/4 1611/4 1609/4
f 1609/4 1611/4 1631/4
f 1612/4 1610/4 1632/4
f 1612/4 1614/4 1613/4 1611/4
f 1611/4 1613/4 1631/4
f 1614/4 1612/4 1632/4
f 1614/4 1616/4 1615/4 1613/4
f 1613/4 1615/4 1631/4
f 1616/4 1614/4 1632/4
f 1616/4 1618/4 1617/4 1615/4
f 1615/4 1617/4 1631/4
f 1618/4 1616/4 1632/4
f 1618/4 1620/4 1619/4 1617/4
f 1617/4 1619/4 1631/4
f 1620/4 1618/4 1632/4
f 1620/4 1622/4 1621/4 1619/4
f 1619/4 1621/4 1631/4
f 1622/4 1620/4 1632/4
f 1622/4 1624/4 1623/4 1621/4
f 1621/4 1623/4 1631/4
f 1624/4 1622/4 1632/4
f 1624/4 1626/4 1625/4 1623/4
f 1623/4 1625/4 1631/4
f 1626/4 1624/4 1632/4
f 1626/4 1628/4 1627/4 1625/4
f 1625/4 1627/4 1631/4
f 1628/4 1626/4 1632/4
f 1628/4 1630/4 1629/4 1627/4
f 1627/4 1629/4 1631/4
f 1630/4 1628/4 1632/4
f 1630/4 1576/4 1575/4 1629/4
f 1629/4 1575/4 1631/4
f 1576/4 1630/4 1632/4
usemtl mint
f 198/3 200/3 199/3 197/3
f 197/3 199/3 293/3
f 200/3 198/3 294/3
f 200/3 202/3 201/3 199/3
f 199/3 201/3 293/3
f 202/3 200/3 294/3
f 202/3 204/3 203/3 201/3
f 201/3 203/3 293/3
f 204/3 202/3 294/3
f 204/3 206/3 205/3 203/3
f 203/3 205/3 293/3
f 206/3 204/3 294/3
f 206/3 208/3 207/3 205/3
f 205/3 207/3 293/3
f 208/3 206/3 294/3
f 208/3 210/3 209/3 207/3
f 207/3 209/3 293/3
f 210/3 208/3 294/3
f 210/3 212/3 211/3 209/3
f 209/3 211/3 293/3
f 212/3 210/3 294/3
f 212/3 214/3 213/3 211/3
f 211/3 213/3 293/3
f 214/3 212/3 294/3
f 214/3 216/3 215/3 213/3
f 213/3 215/3 293/3
f 216/3 214/3 294/3
f 216/3 218/3 217/3 215/3
f 215/3 217/3 293/3
f 218/3 216/3 294/3
f 218/3 220/3 219/3 217/3
f 217/3 219/3 293/3
f 220/3 218/3 294/3
f 220/3 222/3 221/3 219/3
f 219/3 221/3 293/3
f 222/3 220/3 294/3
f 222/3 224/3 223/3 221/3
f 221/3 223/3 293/3
f 224/3 222/3 294/3
f 224/3 226/3 225/3 223/3
f 223/3 225/3 293/3
f 226/3 224/3 294/3
f 226/3 228/3 227/3 225/3
f 225/3 227/3 293/3
f 228/3 226/3 294/3
f 228/3 230/3 229/3 227/3
f 227/3 229/3 293/3
f 230/3 228/3 294/3
f 230/3 232/3 231/3 229/3
f 229/3 231/3 293/3
f 232/3 230/3 294/3
f 232/3 234/3 233/3 231/3
f 231/3 233/3 293/3
f 234/3 232/3 294/3
f 234/3 236/3 235/3 233/3
f 233/3 235/3 293/3
f 236/3 234/3 294/3
f 236/3 238/3 237/3 235/3
f 235/3 237/3 293/3
f 238/3 236/3 294/3
f 238/3 240/3 239/3 237/3
f 237/3 239/3 293/3
f 240/3 238/3 294/3
f 240/3 242/3 241/3 239/3
f 239/3 241/3 293/3
f 242/3 240/3 294/3
f 242/3 244/3 243/3 241/3
f 241/3 243/3 293/3
f 244/3 242/3 294/3
f 244/3 246/3 245/3 243/3
f 243/3 245/3 293/3
f 246/3 244/3 294/3
f 246/3 248/3 247/3 245/3
f 245/3 247/3 293/3
f 248/3 246/3 294/3
f 248/3 250/3 249/3 247/3
f 247/3 249/3 293/3
f 250/3 248/3 294/3
f 250/3 252/3 251/3 249/3
f 249/3 251/3 293/3
f 252/3 250/3 294/3
f 252/3 254/3 253/3 251/3
f 251/3 253/3 293/3
f 254/3 252/3 294/3
f 254/3 256/3 255/3 253/3
f 253/3 255/3 293/3
f 256/3 254/3 294/3
f 256/3 258/3 257/3 255/3
f 255/3 257/3 293/3
f 258/3 256/3 294/3
f 258/3 260/3 259/3 257/3
f 257/3 259/3 293/3
f 260/3 258/3 294/3
f 260/3 262/3 261/3 259/3
f 259/3 261/3 293/3
f 262/3 260/3 294/3
f 262/3 264/3 263/3 261/3
f 261/3 263/3 293/3
f 264/3 262/3 294/3
f 264/3 266/3 265/3 263/3
f 263/3 265/3 293/3
f 266/3 264/3 294/3
f 266/3 268/3 267/3 265/3
f 265/3 267/3 293/3
f 268/3 266/3 294/3
f 268/3 270/3 269/3 267/3
f 267/3 269/3 293/3
f 270/3 268/3 294/3
f 270/3 272/3 271/3 269/3
f 269/3 271/3 293/3
f 272/3 270/3 294/3
f 272/3 274/3 273/3 271/3
f 271/3 273/3 293/3
f 274/3 272/3 294/3
f 274/3 276/3 275/3 273/3
f 273/3 275/3 293/3
f 276/3 274/3 294/3
f 276/3 278/3 277/3 275/3
f 275/3 277/3 293/3
f 278/3 276/3 294/3
f 278/3 280/3 279/3 277/3
f 277/3 279/3 293/3
f 280/3 278/3 294/3
f 280/3 282/3 281/3 279/3
f 279/3 281/3 293/3
f 282/3 280/3 294/3
f 282/3 284/3 283/3 281/3
f 281/3 283/3 293/3
f 284/3 282/3 294/3
f 284/3 286/3 285/3 283/3
f 283/3 285/3 293/3
f 286/3 284/3 294/3
f 286/3 288/3 287/3 285/3
f 285/3 287/3 293/3
f 288/3 286/3 294/3
f 288/3 290/3 289/3 287/3
f 287/3 289/3 293/3
f 290/3 288/3 294/3
f 290/3 292/3 291/3 289/3
f 289/3 291/3 293/3
f 292/3 290/3 294/3
f 292/3 198/3 197/3 291/3
f 291/3 197/3 293/3
f 198/3 292/3 294/3
usemtl coral
f 295/2 296/2 302/2 301/2
f 296/2 297/2 303/2 302/2
f 297/2 298/2 304/2 303/2
f 298/2 299/2 305/2 304/2
f 299/2 300/2 306/2 305/2
f 300/2 295/2 301/2 306/2
f 301/2 302/2 308/2 307/2
f 302/2 303/2 309/2 308/2
f 303/2 304/2 310/2 309/2
f 304/2 305/2 311/2 310/2
f 305/2 306/2 312/2 311/2
f 306/2 301/2 307/2 312/2
f 307/2 308/2 314/2 313/2
f 308/2 309/2 315/2 314/2
f 309/2 310/2 316/2 315/2
f 310/2 311/2 317/2 316/2
f 311/2 312/2 318/2 317/2
f 312/2 307/2 313/2 318/2
f 313/2 314/2 320/2 319/2
f 314/2 315/2 321/2 320/2
f 315/2 316/2 322/2 321/2
f 316/2 317/2 323/2 322/2
f 317/2 318/2 324/2 323/2
f 318/2 313/2 319/2 324/2
f 319/2 320/2 326/2 325/2
f 320/2 321/2 327/2 326/2
f 321/2 322/2 328/2 327/2
f 322/2 323/2 329/2 328/2
f 323/2 324/2 330/2 329/2
f 324/2 319/2 325/2 330/2
f 325/2 326/2 332/2 331/2
f 326/2 327/2 333/2 332/2
f 327/2 328/2 334/2 333/2
f 328/2 329/2 335/2 334/2
f 329/2 330/2 336/2 335/2
f 330/2 325/2 331/2 336/2
f 331/2 332/2 338/2 337/2
f 332/2 333/2 339/2 338/2
f 333/2 334/2 340/2 339/2
f 334/2 335/2 341/2 340/2
f 335/2 336/2 342/2 341/2
f 336/2 331/2 337/2 342/2
f 337/2 338/2 344/2 343/2
f 338/2 339/2 345/2 344/2
f 339/2 340/2 346/2 345/2
f 340/2 341/2 347/2 346/2
f 341/2 342/2 348/2 347/2
f 342/2 337/2 343/2 348/2
f 343/2 344/2 350/2 349/2
f 344/2 345/2 351/2 350/2
f 345/2 346/2 352/2 351/2
f 346/2 347/2 353/2 352/2
f 347/2 348/2 354/2 353/2
f 348/2 343/2 349/2 354/2
f 349/2 350/2 356/2 355/2
f 350/2 351/2 357/2 356/2
f 351/2 352/2 358/2 357/2
f 352/2 353/2 359/2 358/2
f 353/2 354/2 360/2 359/2
f 354/2 349/2 355/2 360/2
f 355/2 356/2 362/2 361/2
f 356/2 357/2 363/2 362/2
f 357/2 358/2 364/2 363/2
f 358/2 359/2 365/2 364/2
f 359/2 360/2 366/2 365/2
f 360/2 355/2 361/2 366/2
f 361/2 362/2 368/2 367/2
f 362/2 363/2 369/2 368/2
f 363/2 364/2 370/2 369/2
f 364/2 365/2 371/2 370/2
f 365/2 366/2 372/2 371/2
f 366/2 361/2 367/2 372/2
f 367/2 368/2 374/2 373/2
f 368/2 369/2 375/2 374/2
f 369/2 370/2 376/2 375/2
f 370/2 371/2 377/2 376/2
f 371/2 372/2 378/2 377/2
f 372/2 367/2 373/2 378/2
f 373/2 374/2 380/2 379/2
f 374/2 375/2 381/2 380/2
f 375/2 376/2 382/2 381/2
f 376/2 377/2 383/2 382/2
f 377/2 378/2 384/2 383/2
f 378/2 373/2 379/2 384/2
f 379/2 380/2 386/2 385/2
f 380/2 381/2 387/2 386/2
f 381/2 382/2 388/2 387/2
f 382/2 383/2 389/2 388/2
f 383/2 384/2 390/2 389/2
f 384/2 379/2 385/2 390/2
f 385/2 386/2 392/2 391/2
f 386/2 387/2 393/2 392/2
f 387/2 388/2 394/2 393/2
f 388/2 389/2 395/2 394/2
f 389/2 390/2 396/2 395/2
f 390/2 385/2 391/2 396/2
f 391/2 392/2 398/2 397/2
f 392/2 393/2 399/2 398/2
f 393/2 394/2 400/2 399/2
f 394/2 395/2 401/2 400/2
f 395/2 396/2 402/2 401/2
f 396/2 391/2 397/2 402/2
f 397/2 398/2 404/2 403/2
f 398/2 399/2 405/2 404/2
f 399/2 400/2 406/2 405/2
f 400/2 401/2 407/2 406/2
f 401/2 402/2 408/2 407/2
f 402/2 397/2 403/2 408/2
f 403/2 404/2 410/2 409/2
f 404/2 405/2 411/2 410/2
f 405/2 406/2 412/2 411/2
f 406/2 407/2 413/2 412/2
f 407/2 408/2 414/2 413/2
f 408/2 403/2 409/2 414/2
f 409/2 410/2 416/2 415/2
f 410/2 411/2 417/2 416/2
f 411/2 412/2 418/2 417/2
f 412/2 413/2 419/2 418/2
f 413/2 414/2 420/2 419/2
f 414/2 409/2 415/2 420/2
f 415/2 416/2 422/2 421/2
f 416/2 417/2 423/2 422/2
f 417/2 418/2 424/2 423/2
f 418/2 419/2 425/2 424/2
f 419/2 420/2 426/2 425/2
f 420/2 415/2 421/2 426/2
f 421/2 422/2 428/2 427/2
f 422/2 423/2 429/2 428/2
f 423/2 424/2 430/2 429/2
f 424/2 425/2 431/2 430/2
f 425/2 426/2 432/2 431/2
f 426/2 421/2 427/2 432/2
f 427/2 428/2 434/2 433/2
f 428/2 429/2 435/2 434/2
f 429/2 430/2 436/2 435/2
f 430/2 431/2 437/2 436/2
f 431/2 432/2 438/2 437/2
f 432/2 427/2 433/2 438/2
f 433/2 434/2 440/2 439/2
f 434/2 435/2 441/2 440/2
f 435/2 436/2 442/2 441/2
f 436/2 437/2 443/2 442/2
f 437/2 438/2 444/2 443/2
f 438/2 433/2 439/2 444/2
f 439/2 440/2 446/2 445/2
f 440/2 441/2 447/2 446/2
f 441/2 442/2 448/2 447/2
f 442/2 443/2 449/2 448/2
f 443/2 444/2 450/2 449/2
f 444/2 439/2 445/2 450/2
f 445/2 446/2 452/2 451/2
f 446/2 447/2 453/2 452/2
f 447/2 448/2 454/2 453/2
f 448/2 449/2 455/2 454/2
f 449/2 450/2 456/2 455/2
f 450/2 445/2 451/2 456/2
f 451/2 452/2 458/2 457/2
f 452/2 453/2 459/2 458/2
f 453/2 454/2 460/2 459/2
f 454/2 455/2 461/2 460/2
f 455/2 456/2 462/2 461/2
f 456/2 451/2 457/2 462/2
f 457/2 458/2 464/2 463/2
f 458/2 459/2 465/2 464/2
f 459/2 460/2 466/2 465/2
f 460/2 461/2 467/2 466/2
f 461/2 462/2 468/2 467/2
f 462/2 457/2 463/2 468/2
f 463/2 464/2 470/2 469/2
f 464/2 465/2 471/2 470/2
f 465/2 466/2 472/2 471/2
f 466/2 467/2 473/2 472/2
f 467/2 468/2 474/2 473/2
f 468/2 463/2 469/2 474/2
f 469/2 470/2 476/2 475/2
f 470/2 471/2 477/2 476/2
f 471/2 472/2 478/2 477/2
f 472/2 473/2 479/2 478/2
f 473/2 474/2 480/2 479/2
f 474/2 469/2 475/2 480/2
f 475/2 476/2 482/2 481/2
f 476/2 477/2 483/2 482/2
f 477/2 478/2 484/2 483/2
f 478/2 479/2 485/2 484/2
f 479/2 480/2 486/2 485/2
f 480/2 475/2 481/2 486/2
f 481/2 482/2 488/2 487/2
f 482/2 483/2 489/2 488/2
f 483/2 484/2 490/2 489/2
f 484/2 485/2 491/2 490/2
f 485/2 486/2 492/2 491/2
f 486/2 481/2 487/2 492/2
f 487/2 488/2 494/2 493/2
f 488/2 489/2 495/2 494/2
f 489/2 490/2 496/2 495/2
f 490/2 491/2 497/2 496/2
f 491/2 492/2 498/2 497/2
f 492/2 487/2 493/2 498/2
f 493/2 494/2 500/2 499/2
f 494/2 495/2 501/2 500/2
f 495/2 496/2 502/2 501/2
f 496/2 497/2 503/2 502/2
f 497/2 498/2 504/2 503/2
f 498/2 493/2 499/2 504/2
f 499/2 500/2 506/2 505/2
f 500/2 501/2 507/2 506/2
f 501/2 502/2 508/2 507/2
f 502/2 503/2 509/2 508/2
f 503/2 504/2 510/2 509/2
f 504/2 499/2 505/2 510/2
f 505/2 506/2 512/2 511/2
f 506/2 507/2 513/2 512/2
f 507/2 508/2 514/2 513/2
f 508/2 509/2 515/2 514/2
f 509/2 510/2 516/2 515/2
f 510/2 505/2 511/2 516/2
f 511/2 512/2 518/2 517/2
f 512/2 513/2 519/2 518/2
f 513/2 514/2 520/2 519/2
f 514/2 515/2 521/2 520/2
f 515/2 516/2 522/2 521/2
f 516/2 511/2 517/2 522/2
f 517/2 518/2 524/2 523/2
f 518/2 519/2 525/2 524/2
f 519/2 520/2 526/2 525/2
f 520/2 521/2 527/2 526/2
f 521/2 522/2 528/2 527/2
f 522/2 517/2 523/2 528/2
f 523/2 524/2 530/2 529/2
f 524/2 525/2 531/2 530/2
f 525/2 526/2 532/2 531/2
f 526/2 527/2 533/2 532/2
f 527/2 528/2 534/2 533/2
f 528/2 523/2 529/2 534/2
f 529/2 530/2 536/2 535/2
f 530/2 531/2 537/2 536/2
f 531/2 532/2 538/2 537/2
f 532/2 533/2 539/2 538/2
f 533/2 534/2 540/2 539/2
f 534/2 529/2 535/2 540/2
f 535/2 536/2 542/2 541/2
f 536/2 537/2 543/2 542/2
f 537/2 538/2 544/2 543/2
f 538/2 539/2 545/2 544/2
f 539/2 540/2 546/2 545/2
f 540/2 535/2 541/2 546/2
f 541/2 542/2 548/2 547/2
f 542/2 543/2 549/2 548/2
f 543/2 544/2 550/2 549/2
f 544/2 545/2 551/2 550/2
f 545/2 546/2 552/2 551/2
f 546/2 541/2 547/2 552/2
f 547/2 548/2 554/2 553/2
f 548/2 549/2 555/2 554/2
f 549/2 550/2 556/2 555/2
f 550/2 551/2 557/2 556/2
f 551/2 552/2 558/2 557/2
f 552/2 547/2 553/2 558/2
f 553/2 554/2 560/2 559/2
f 554/2 555/2 561/2 560/2
f 555/2 556/2 562/2 561/2
f 556/2 557/2 563/2 562/2
f 557/2 558/2 564/2 563/2
f 558/2 553/2 559/2 564/2
f 559/2 560/2 566/2 565/2
f 560/2 561/2 567/2 566/2
f 561/2 562/2 568/2 567/2
f 562/2 563/2 569/2 568/2
f 563/2 564/2 570/2 569/2
f 564/2 559/2 565/2 570/2
f 565/2 566/2 572/2 571/2
f 566/2 567/2 573/2 572/2
f 567/2 568/2 574/2 573/2
f 568/2 569/2 575/2 574/2
f 569/2 570/2 576/2 575/2
f 570/2 565/2 571/2 576/2
f 571/2 572/2 578/2 577/2
f 572/2 573/2 579/2 578/2
f 573/2 574/2 580/2 579/2
f 574/2 575/2 581/2 580/2
f 575/2 576/2 582/2 581/2
f 576/2 571/2 577/2 582/2
f 577/2 578/2 296/2 295/2
f 578/2 579/2 297/2 296/2
f 579/2 580/2 298/2 297/2
f 580/2 581/2 299/2 298/2
f 581/2 582/2 300/2 299/2
f 582/2 577/2 295/2 300/2
f 695/2 696/2 668/2 667/2
f 696/2 697/2 669/2 668/2
f 697/2 698/2 670/2 669/2
f 698/2 699/2 671/2 670/2
f 699/2 700/2 672/2 671/2
f 700/2 701/2 673/2 672/2
f 701/2 702/2 674/2 673/2
f 702/2 703/2 675/2 674/2
f 703/2 704/2 676/2 675/2
f 704/2 705/2 677/2 676/2
f 705/2 706/2 678/2 677/2
f 706/2 707/2 679/2 678/2
f 707/2 708/2 680/2 679/2
f 708/2 709/2 681/2 680/2
f 709/2 710/2 682/2 681/2
f 710/2 711/2 683/2 682/2
f 711/2 712/2 684/2 683/2
f 712/2 713/2 685/2 684/2
f 713/2 714/2 686/2 685/2
f 714/2 715/2 687/2 686/2
f 715/2 716/2 688/2 687/2
f 716/2 717/2 689/2 688/2
f 717/2 718/2 690/2 689/2
f 718/2 719/2 691/2 690/2
f 719/2 720/2 692/2 691/2
f 720/2 721/2 693/2 692/2
f 721/2 722/2 694/2 693/2
f 722/2 695/2 667/2 694/2
f 751/2 752/2 724/2 723/2
f 752/2 753/2 725/2 724/2
f 753/2 754/2 726/2 725/2
f 754/2 755/2 727/2 726/2
f 755/2 756/2 728/2 727/2
f 756/2 757/2 729/2 728/2
f 757/2 758/2 730/2 729/2
f 758/2 759/2 731/2 730/2
f 759/2 760/2 732/2 731/2
f 760/2 761/2 733/2 732/2
f 761/2 762/2 734/2 733/2
f 762/2 763/2 735/2 734/2
f 763/2 764/2 736/2 735/2
f 764/2 765/2 737/2 736/2
f 765/2 766/2 738/2 737/2
f 766/2 767/2 739/2 738/2
f 767/2 768/2 740/2 739/2
f 768/2 769/2 741/2 740/2
f 769/2 770/2 742/2 741/2
f 770/2 771/2 743/2 742/2
f 771/2 772/2 744/2 743/2
f 772/2 773/2 745/2 744/2
f 773/2 774/2 746/2 745/2
f 774/2 775/2 747/2 746/2
f 775/2 776/2 748/2 747/2
f 776/2 777/2 749/2 748/2
f 777/2 778/2 750/2 749/2
f 778/2 751/2 723/2 750/2
f 807/2 808/2 780/2 779/2
f 808/2 809/2 781/2 780/2
f 809/2 810/2 782/2 781/2
f 810/2 811/2 783/2 782/2
f 811/2 812/2 784/2 783/2
f 812/2 813/2 785/2 784/2
f 813/2 814/2 786/2 785/2
f 814/2 815/2 787/2 786/2
f 815/2 816/2 788/2 787/2
f 816/2 817/2 789/2 788/2
f 817/2 818/2 790/2 789/2
f 818/2 819/2 791/2 790/2
f 819/2 820/2 792/2 791/2
f 820/2 821/2 793/2 792/2
f 821/2 822/2 794/2 793/2
f 822/2 823/2 795/2 794/2
f 823/2 824/2 796/2 795/2
f 824/2 825/2 797/2 796/2
f 825/2 826/2 798/2 797/2
f 826/2 827/2 799/2 798/2
f 827/2 828/2 800/2 799/2
f 828/2 829/2 801/2 800/2
f 829/2 830/2 802/2 801/2
f 830/2 831/2 803/2 802/2
f 831/2 832/2 804/2 803/2
f 832/2 833/2 805/2 804/2
f 833/2 834/2 806/2 805/2
f 834/2 807/2 779/2 806/2
f 887/2 888/2 896/2 895/2
f 903/2 888/2 887/2
f 904/2 895/2 896/2
f 888/2 889/2 897/2 896/2
f 903/2 889/2 888/2
f 904/2 896/2 897/2
f 889/2 890/2 898/2 897/2
f 903/2 890/2 889/2
f 904/2 897/2 898/2
f 890/2 891/2 899/2 898/2
f 903/2 891/2 890/2
f 904/2 898/2 899/2
f 891/2 892/2 900/2 899/2
f 903/2 892/2 891/2
f 904/2 899/2 900/2
f 892/2 893/2 901/2 900/2
f 903/2 893/2 892/2
f 904/2 900/2 901/2
f 893/2 894/2 902/2 901/2
f 903/2 894/2 893/2
f 904/2 901/2 902/2
f 894/2 887/2 895/2 902/2
f 903/2 887/2 894/2
f 904/2 902/2 895/2
f 1021/2 1022/2 1030/2 1029/2
f 1037/2 1022/2 1021/2
f 1038/2 1029/2 1030/2
f 1022/2 1023/2 1031/2 1030/2
f 1037/2 1023/2 1022/2
f 1038/2 1030/2 1031/2
f 1023/2 1024/2 1032/2 1031/2
f 1037/2 1024/2 1023/2
f 1038/2 1031/2 1032/2
f 1024/2 1025/2 1033/2 1032/2
f 1037/2 1025/2 1024/2
f 1038/2 1032/2 1033/2
f 1025/2 1026/2 1034/2 1033/2
f 1037/2 1026/2 1025/2
f 1038/2 1033/2 1034/2
f 1026/2 1027/2 1035/2 1034/2
f 1037/2 1027/2 1026/2
f 1038/2 1034/2 1035/2
f 1027/2 1028/2 1036/2 1035/2
f 1037/2 1028/2 1027/2
f 1038/2 1035/2 1036/2
f 1028/2 1021/2 1029/2 1036/2
f 1037/2 1021/2 1028/2
f 1038/2 1036/2 1029/2
f 1155/2 1156/2 1164/2 1163/2
f 1171/2 1156/2 1155/2
f 1172/2 1163/2 1164/2
f 1156/2 1157/2 1165/2 1164/2
f 1171/2 1157/2 1156/2
f 1172/2 1164/2 1165/2
f 1157/2 1158/2 1166/2 1165/2
f 1171/2 1158/2 1157/2
f 1172/2 1165/2 1166/2
f 1158/2 1159/2 1167/2 1166/2
f 1171/2 1159/2 1158/2
f 1172/2 1166/2 1167/2
f 1159/2 1160/2 1168/2 1167/2
f 1171/2 1160/2 1159/2
f 1172/2 1167/2 1168/2
f 1160/2 1161/2 1169/2 1168/2
f 1171/2 1161/2 1160/2
f 1172/2 1168/2 1169/2
f 1161/2 1162/2 1170/2 1169/2
f 1171/2 1162/2 1161/2
f 1172/2 1169/2 1170/2
f 1162/2 1155/2 1163/2 1170/2
f 1171/2 1155/2 1162/2
f 1172/2 1170/2 1163/2
f 1289/2 1290/2 1298/2 1297/2
f 1305/2 1290/2 1289/2
f 1306/2 1297/2 1298/2
f 1290/2 1291/2 1299/2 1298/2
f 1305/2 1291/2 1290/2
f 1306/2 1298/2 1299/2
f 1291/2 1292/2 1300/2 1299/2
f 1305/2 1292/2 1291/2
f 1306/2 1299/2 1300/2
f 1292/2 1293/2 1301/2 1300/2
f 1305/2 1293/2 1292/2
f 1306/2 1300/2 1301/2
f 1293/2 1294/2 1302/2 1301/2
f 1305/2 1294/2 1293/2
f 1306/2 1301/2 1302/2
f 1294/2 1295/2 1303/2 1302/2
f 1305/2 1295/2 1294/2
f 1306/2 1302/2 1303/2
f 1295/2 1296/2 1304/2 1303/2
f 1305/2 1296/2 1295/2
f 1306/2 1303/2 1304/2
f 1296/2 1289/2 1297/2 1304/2
f 1305/2 1289/2 1296/2
f 1306/2 1304/2 1297/2
f 1423/2 1424/2 1432/2 1431/2
f 1439/2 1424/2 1423/2
f 1440/2 1431/2 1432/2
f 1424/2 1425/2 1433/2 1432/2
f 1439/2 1425/2 1424/2
f 1440/2 1432/2 1433/2
f 1425/2 1426/2 1434/2 1433/2
f 1439/2 1426/2 1425/2
f 1440/2 1433/2 1434/2
f 1426/2 1427/2 1435/2 1434/2
f 1439/2 1427/2 1426/2
f 1440/2 1434/2 1435/2
f 1427/2 1428/2 1436/2 1435/2
f 1439/2 1428/2 1427/2
f 1440/2 1435/2 1436/2
f 1428/2 1429/2 1437/2 1436/2
f 1439/2 1429/2 1428/2
f 1440/2 1436/2 1437/2
f 1429/2 1430/2 1438/2 1437/2
f 1439/2 1430/2 1429/2
f 1440/2 1437/2 1438/2
f 1430/2 1423/2 1431/2 1438/2
f 1439/2 1423/2 1430/2
f 1440/2 1438/2 1431/2
f 1557/2 1558/2 1566/2 1565/2
f 1573/2 1558/2 1557/2
f 1574/2 1565/2 1566/2
f 1558/2 1559/2 1567/2 1566/2
f 1573/2 1559/2 1558/2
f 1574/2 1566/2 1567/2
f 1559/2 1560/2 1568/2 1567/2
f 1573/2 1560/2 1559/2
f 1574/2 1567/2 1568/2
f 1560/2 1561/2 1569/2 1568/2
f 1573/2 1561/2 1560/2
f 1574/2 1568/2 1569/2
f 1561/2 1562/2 1570/2 1569/2
f 1573/2 1562/2 1561/2
f 1574/2 1569/2 1570/2
f 1562/2 1563/2 1571/2 1570/2
f 1573/2 1563/2 1562/2
f 1574/2 1570/2 1571/2
f 1563/2 1564/2 1572/2 1571/2
f 1573/2 1564/2 1563/2
f 1574/2 1571/2 1572/2
f 1564/2 1557/2 1565/2 1572/2
f 1573/2 1557/2 1564/2
f 1574/2 1572/2 1565/2
usemtl wood
f 611/5 612/5 584/5 583/5
f 612/5 613/5 585/5 584/5
f 613/5 614/5 586/5 585/5
f 614/5 615/5 587/5 586/5
f 615/5 616/5 588/5 587/5
f 616/5 617/5 589/5 588/5
f 617/5 618/5 590/5 589/5
f 618/5 619/5 591/5 590/5
f 619/5 620/5 592/5 591/5
f 620/5 621/5 593/5 592/5
f 621/5 622/5 594/5 593/5
f 622/5 623/5 595/5 594/5
f 623/5 624/5 596/5 595/5
f 624/5 625/5 597/5 596/5
f 625/5 626/5 598/5 597/5
f 626/5 627/5 599/5 598/5
f 627/5 628/5 600/5 599/5
f 628/5 629/5 601/5 600/5
f 629/5 630/5 602/5 601/5
f 630/5 631/5 603/5 602/5
f 631/5 632/5 604/5 603/5
f 632/5 633/5 605/5 604/5
f 633/5 634/5 606/5 605/5
f 634/5 635/5 607/5 606/5
f 635/5 636/5 608/5 607/5
f 636/5 637/5 609/5 608/5
f 637/5 638/5 610/5 609/5
f 638/5 611/5 583/5 610/5
