# ParkParkRocketHub — ParkPark original fairground mesh
mtllib ParkParkFairground.mtl
o ParkParkRocketHub
v 8.20000 0.00000 0.00000
v 8.20000 0.60000 0.00000
v 8.11654 0.00000 1.16698
v 8.11654 0.60000 1.16698
v 7.86784 0.00000 2.31021
v 7.86784 0.60000 2.31021
v 7.45898 0.00000 3.40640
v 7.45898 0.60000 3.40640
v 6.89828 0.00000 4.43325
v 6.89828 0.60000 4.43325
v 6.19715 0.00000 5.36986
v 6.19715 0.60000 5.36986
v 5.36986 0.00000 6.19715
v 5.36986 0.60000 6.19715
v 4.43325 0.00000 6.89828
v 4.43325 0.60000 6.89828
v 3.40640 0.00000 7.45898
v 3.40640 0.60000 7.45898
v 2.31021 0.00000 7.86784
v 2.31021 0.60000 7.86784
v 1.16698 0.00000 8.11654
v 1.16698 0.60000 8.11654
v 0.00000 0.00000 8.20000
v 0.00000 0.60000 8.20000
v -1.16698 0.00000 8.11654
v -1.16698 0.60000 8.11654
v -2.31021 0.00000 7.86784
v -2.31021 0.60000 7.86784
v -3.40640 0.00000 7.45898
v -3.40640 0.60000 7.45898
v -4.43325 0.00000 6.89828
v -4.43325 0.60000 6.89828
v -5.36986 0.00000 6.19715
v -5.36986 0.60000 6.19715
v -6.19715 0.00000 5.36986
v -6.19715 0.60000 5.36986
v -6.89828 0.00000 4.43325
v -6.89828 0.60000 4.43325
v -7.45898 0.00000 3.40640
v -7.45898 0.60000 3.40640
v -7.86784 0.00000 2.31021
v -7.86784 0.60000 2.31021
v -8.11654 0.00000 1.16698
v -8.11654 0.60000 1.16698
v -8.20000 0.00000 0.00000
v -8.20000 0.60000 0.00000
v -8.11654 0.00000 -1.16698
v -8.11654 0.60000 -1.16698
v -7.86784 0.00000 -2.31021
v -7.86784 0.60000 -2.31021
v -7.45898 0.00000 -3.40640
v -7.45898 0.60000 -3.40640
v -6.89828 0.00000 -4.43325
v -6.89828 0.60000 -4.43325
v -6.19715 0.00000 -5.36986
v -6.19715 0.60000 -5.36986
v -5.36986 0.00000 -6.19715
v -5.36986 0.60000 -6.19715
v -4.43325 0.00000 -6.89828
v -4.43325 0.60000 -6.89828
v -3.40640 0.00000 -7.45898
v -3.40640 0.60000 -7.45898
v -2.31021 0.00000 -7.86784
v -2.31021 0.60000 -7.86784
v -1.16698 0.00000 -8.11654
v -1.16698 0.60000 -8.11654
v -0.00000 0.00000 -8.20000
v -0.00000 0.60000 -8.20000
v 1.16698 0.00000 -8.11654
v 1.16698 0.60000 -8.11654
v 2.31021 0.00000 -7.86784
v 2.31021 0.60000 -7.86784
v 3.40640 0.00000 -7.45898
v 3.40640 0.60000 -7.45898
v 4.43325 0.00000 -6.89828
v 4.43325 0.60000 -6.89828
v 5.36986 0.00000 -6.19715
v 5.36986 0.60000 -6.19715
v 6.19715 0.00000 -5.36986
v 6.19715 0.60000 -5.36986
v 6.89828 0.00000 -4.43325
v 6.89828 0.60000 -4.43325
v 7.45898 0.00000 -3.40640
v 7.45898 0.60000 -3.40640
v 7.86784 0.00000 -2.31021
v 7.86784 0.60000 -2.31021
v 8.11654 0.00000 -1.16698
v 8.11654 0.60000 -1.16698
v 0.00000 0.00000 0.00000
v 0.00000 0.60000 0.00000
v 8.25000 0.00000 0.00000
v 8.25000 0.45000 0.00000
v 8.16603 0.00000 1.17410
v 8.16603 0.45000 1.17410
v 7.91582 0.00000 2.32429
v 7.91582 0.45000 2.32429
v 7.50446 0.00000 3.42717
v 7.50446 0.45000 3.42717
v 6.94034 0.00000 4.46029
v 6.94034 0.45000 4.46029
v 6.23493 0.00000 5.40260
v 6.23493 0.45000 5.40260
v 5.40260 0.00000 6.23493
v 5.40260 0.45000 6.23493
v 4.46029 0.00000 6.94034
v 4.46029 0.45000 6.94034
v 3.42717 0.00000 7.50446
v 3.42717 0.45000 7.50446
v 2.32429 0.00000 7.91582
v 2.32429 0.45000 7.91582
v 1.17410 0.00000 8.16603
v 1.17410 0.45000 8.16603
v 0.00000 0.00000 8.25000
v 0.00000 0.45000 8.25000
v -1.17410 0.00000 8.16603
v -1.17410 0.45000 8.16603
v -2.32429 0.00000 7.91582
v -2.32429 0.45000 7.91582
v -3.42717 0.00000 7.50446
v -3.42717 0.45000 7.50446
v -4.46029 0.00000 6.94034
v -4.46029 0.45000 6.94034
v -5.40260 0.00000 6.23493
v -5.40260 0.45000 6.23493
v -6.23493 0.00000 5.40260
v -6.23493 0.45000 5.40260
v -6.94034 0.00000 4.46029
v -6.94034 0.45000 4.46029
v -7.50446 0.00000 3.42717
v -7.50446 0.45000 3.42717
v -7.91582 0.00000 2.32429
v -7.91582 0.45000 2.32429
v -8.16603 0.00000 1.17410
v -8.16603 0.45000 1.17410
v -8.25000 0.00000 0.00000
v -8.25000 0.45000 0.00000
v -8.16603 0.00000 -1.17410
v -8.16603 0.45000 -1.17410
v -7.91582 0.00000 -2.32429
v -7.91582 0.45000 -2.32429
v -7.50446 0.00000 -3.42717
v -7.50446 0.45000 -3.42717
v -6.94034 0.00000 -4.46029
v -6.94034 0.45000 -4.46029
v -6.23493 0.00000 -5.40260
v -6.23493 0.45000 -5.40260
v -5.40260 0.00000 -6.23493
v -5.40260 0.45000 -6.23493
v -4.46029 0.00000 -6.94034
v -4.46029 0.45000 -6.94034
v -3.42717 0.00000 -7.50446
v -3.42717 0.45000 -7.50446
v -2.32429 0.00000 -7.91582
v -2.32429 0.45000 -7.91582
v -1.17410 0.00000 -8.16603
v -1.17410 0.45000 -8.16603
v -0.00000 0.00000 -8.25000
v -0.00000 0.45000 -8.25000
v 1.17410 0.00000 -8.16603
v 1.17410 0.45000 -8.16603
v 2.32429 0.00000 -7.91582
v 2.32429 0.45000 -7.91582
v 3.42717 0.00000 -7.50446
v 3.42717 0.45000 -7.50446
v 4.46029 0.00000 -6.94034
v 4.46029 0.45000 -6.94034
v 5.40260 0.00000 -6.23493
v 5.40260 0.45000 -6.23493
v 6.23493 0.00000 -5.40260
v 6.23493 0.45000 -5.40260
v 6.94034 0.00000 -4.46029
v 6.94034 0.45000 -4.46029
v 7.50446 0.00000 -3.42717
v 7.50446 0.45000 -3.42717
v 7.91582 0.00000 -2.32429
v 7.91582 0.45000 -2.32429
v 8.16603 0.00000 -1.17410
v 8.16603 0.45000 -1.17410
v 0.00000 0.00000 0.00000
v 0.00000 0.45000 0.00000
v 8.14000 0.62000 0.00000
v 8.07000 0.74124 0.00000
v 7.93000 0.74124 0.00000
v 7.86000 0.62000 0.00000
v 7.93000 0.49876 0.00000
v 8.07000 0.49876 0.00000
v 8.05715 0.62000 1.15844
v 7.98786 0.74124 1.14848
v 7.84928 0.74124 1.12856
v 7.78000 0.62000 1.11859
v 7.84928 0.49876 1.12856
v 7.98786 0.49876 1.14848
v 7.81027 0.62000 2.29330
v 7.74311 0.74124 2.27358
v 7.60878 0.74124 2.23414
v 7.54161 0.62000 2.21442
v 7.60878 0.49876 2.23414
v 7.74311 0.49876 2.27358
v 7.40440 0.62000 3.38148
v 7.34073 0.74124 3.35240
v 7.21338 0.74124 3.29424
v 7.14971 0.62000 3.26516
v 7.21338 0.49876 3.29424
v 7.34073 0.49876 3.35240
v 6.84780 0.62000 4.40082
v 6.78892 0.74124 4.36297
v 6.67114 0.74124 4.28728
v 6.61225 0.62000 4.24944
v 6.67114 0.49876 4.28728
v 6.78892 0.49876 4.36297
v 6.15180 0.62000 5.33057
v 6.09890 0.74124 5.28473
v 5.99309 0.74124 5.19305
v 5.94019 0.62000 5.14721
v 5.99309 0.49876 5.19305
v 6.09890 0.49876 5.28473
v 5.33057 0.62000 6.15180
v 5.28473 0.74124 6.09890
v 5.19305 0.74124 5.99309
v 5.14721 0.62000 5.94019
v 5.19305 0.49876 5.99309
v 5.28473 0.49876 6.09890
v 4.40082 0.62000 6.84780
v 4.36297 0.74124 6.78892
v 4.28728 0.74124 6.67114
v 4.24944 0.62000 6.61225
v 4.28728 0.49876 6.67114
v 4.36297 0.49876 6.78892
v 3.38148 0.62000 7.40440
v 3.35240 0.74124 7.34073
v 3.29424 0.74124 7.21338
v 3.26516 0.62000 7.14971
v 3.29424 0.49876 7.21338
v 3.35240 0.49876 7.34073
v 2.29330 0.62000 7.81027
v 2.27358 0.74124 7.74311
v 2.23414 0.74124 7.60878
v 2.21442 0.62000 7.54161
v 2.23414 0.49876 7.60878
v 2.27358 0.49876 7.74311
v 1.15844 0.62000 8.05715
v 1.14848 0.74124 7.98786
v 1.12856 0.74124 7.84928
v 1.11859 0.62000 7.78000
v 1.12856 0.49876 7.84928
v 1.14848 0.49876 7.98786
v 0.00000 0.62000 8.14000
v 0.00000 0.74124 8.07000
v 0.00000 0.74124 7.93000
v 0.00000 0.62000 7.86000
v 0.00000 0.49876 7.93000
v 0.00000 0.49876 8.07000
v -1.15844 0.62000 8.05715
v -1.14848 0.74124 7.98786
v -1.12856 0.74124 7.84928
v -1.11859 0.62000 7.78000
v -1.12856 0.49876 7.84928
v -1.14848 0.49876 7.98786
v -2.29330 0.62000 7.81027
v -2.27358 0.74124 7.74311
v -2.23414 0.74124 7.60878
v -2.21442 0.62000 7.54161
v -2.23414 0.49876 7.60878
v -2.27358 0.49876 7.74311
v -3.38148 0.62000 7.40440
v -3.35240 0.74124 7.34073
v -3.29424 0.74124 7.21338
v -3.26516 0.62000 7.14971
v -3.29424 0.49876 7.21338
v -3.35240 0.49876 7.34073
v -4.40082 0.62000 6.84780
v -4.36297 0.74124 6.78892
v -4.28728 0.74124 6.67114
v -4.24944 0.62000 6.61225
v -4.28728 0.49876 6.67114
v -4.36297 0.49876 6.78892
v -5.33057 0.62000 6.15180
v -5.28473 0.74124 6.09890
v -5.19305 0.74124 5.99309
v -5.14721 0.62000 5.94019
v -5.19305 0.49876 5.99309
v -5.28473 0.49876 6.09890
v -6.15180 0.62000 5.33057
v -6.09890 0.74124 5.28473
v -5.99309 0.74124 5.19305
v -5.94019 0.62000 5.14721
v -5.99309 0.49876 5.19305
v -6.09890 0.49876 5.28473
v -6.84780 0.62000 4.40082
v -6.78892 0.74124 4.36297
v -6.67114 0.74124 4.28728
v -6.61225 0.62000 4.24944
v -6.67114 0.49876 4.28728
v -6.78892 0.49876 4.36297
v -7.40440 0.62000 3.38148
v -7.34073 0.74124 3.35240
v -7.21338 0.74124 3.29424
v -7.14971 0.62000 3.26516
v -7.21338 0.49876 3.29424
v -7.34073 0.49876 3.35240
v -7.81027 0.62000 2.29330
v -7.74311 0.74124 2.27358
v -7.60878 0.74124 2.23414
v -7.54161 0.62000 2.21442
v -7.60878 0.49876 2.23414
v -7.74311 0.49876 2.27358
v -8.05715 0.62000 1.15844
v -7.98786 0.74124 1.14848
v -7.84928 0.74124 1.12856
v -7.78000 0.62000 1.11859
v -7.84928 0.49876 1.12856
v -7.98786 0.49876 1.14848
v -8.14000 0.62000 0.00000
v -8.07000 0.74124 0.00000
v -7.93000 0.74124 0.00000
v -7.86000 0.62000 0.00000
v -7.93000 0.49876 0.00000
v -8.07000 0.49876 0.00000
v -8.05715 0.62000 -1.15844
v -7.98786 0.74124 -1.14848
v -7.84928 0.74124 -1.12856
v -7.78000 0.62000 -1.11859
v -7.84928 0.49876 -1.12856
v -7.98786 0.49876 -1.14848
v -7.81027 0.62000 -2.29330
v -7.74311 0.74124 -2.27358
v -7.60878 0.74124 -2.23414
v -7.54161 0.62000 -2.21442
v -7.60878 0.49876 -2.23414
v -7.74311 0.49876 -2.27358
v -7.40440 0.62000 -3.38148
v -7.34073 0.74124 -3.35240
v -7.21338 0.74124 -3.29424
v -7.14971 0.62000 -3.26516
v -7.21338 0.49876 -3.29424
v -7.34073 0.49876 -3.35240
v -6.84780 0.62000 -4.40082
v -6.78892 0.74124 -4.36297
v -6.67114 0.74124 -4.28728
v -6.61225 0.62000 -4.24944
v -6.67114 0.49876 -4.28728
v -6.78892 0.49876 -4.36297
v -6.15180 0.62000 -5.33057
v -6.09890 0.74124 -5.28473
v -5.99309 0.74124 -5.19305
v -5.94019 0.62000 -5.14721
v -5.99309 0.49876 -5.19305
v -6.09890 0.49876 -5.28473
v -5.33057 0.62000 -6.15180
v -5.28473 0.74124 -6.09890
v -5.19305 0.74124 -5.99309
v -5.14721 0.62000 -5.94019
v -5.19305 0.49876 -5.99309
v -5.28473 0.49876 -6.09890
v -4.40082 0.62000 -6.84780
v -4.36297 0.74124 -6.78892
v -4.28728 0.74124 -6.67114
v -4.24944 0.62000 -6.61225
v -4.28728 0.49876 -6.67114
v -4.36297 0.49876 -6.78892
v -3.38148 0.62000 -7.40440
v -3.35240 0.74124 -7.34073
v -3.29424 0.74124 -7.21338
v -3.26516 0.62000 -7.14971
v -3.29424 0.49876 -7.21338
v -3.35240 0.49876 -7.34073
v -2.29330 0.62000 -7.81027
v -2.27358 0.74124 -7.74311
v -2.23414 0.74124 -7.60878
v -2.21442 0.62000 -7.54161
v -2.23414 0.49876 -7.60878
v -2.27358 0.49876 -7.74311
v -1.15844 0.62000 -8.05715
v -1.14848 0.74124 -7.98786
v -1.12856 0.74124 -7.84928
v -1.11859 0.62000 -7.78000
v -1.12856 0.49876 -7.84928
v -1.14848 0.49876 -7.98786
v -0.00000 0.62000 -8.14000
v -0.00000 0.74124 -8.07000
v -0.00000 0.74124 -7.93000
v -0.00000 0.62000 -7.86000
v -0.00000 0.49876 -7.93000
v -0.00000 0.49876 -8.07000
v 1.15844 0.62000 -8.05715
v 1.14848 0.74124 -7.98786
v 1.12856 0.74124 -7.84928
v 1.11859 0.62000 -7.78000
v 1.12856 0.49876 -7.84928
v 1.14848 0.49876 -7.98786
v 2.29330 0.62000 -7.81027
v 2.27358 0.74124 -7.74311
v 2.23414 0.74124 -7.60878
v 2.21442 0.62000 -7.54161
v 2.23414 0.49876 -7.60878
v 2.27358 0.49876 -7.74311
v 3.38148 0.62000 -7.40440
v 3.35240 0.74124 -7.34073
v 3.29424 0.74124 -7.21338
v 3.26516 0.62000 -7.14971
v 3.29424 0.49876 -7.21338
v 3.35240 0.49876 -7.34073
v 4.40082 0.62000 -6.84780
v 4.36297 0.74124 -6.78892
v 4.28728 0.74124 -6.67114
v 4.24944 0.62000 -6.61225
v 4.28728 0.49876 -6.67114
v 4.36297 0.49876 -6.78892
v 5.33057 0.62000 -6.15180
v 5.28473 0.74124 -6.09890
v 5.19305 0.74124 -5.99309
v 5.14721 0.62000 -5.94019
v 5.19305 0.49876 -5.99309
v 5.28473 0.49876 -6.09890
v 6.15180 0.62000 -5.33057
v 6.09890 0.74124 -5.28473
v 5.99309 0.74124 -5.19305
v 5.94019 0.62000 -5.14721
v 5.99309 0.49876 -5.19305
v 6.09890 0.49876 -5.28473
v 6.84780 0.62000 -4.40082
v 6.78892 0.74124 -4.36297
v 6.67114 0.74124 -4.28728
v 6.61225 0.62000 -4.24944
v 6.67114 0.49876 -4.28728
v 6.78892 0.49876 -4.36297
v 7.40440 0.62000 -3.38148
v 7.34073 0.74124 -3.35240
v 7.21338 0.74124 -3.29424
v 7.14971 0.62000 -3.26516
v 7.21338 0.49876 -3.29424
v 7.34073 0.49876 -3.35240
v 7.81027 0.62000 -2.29330
v 7.74311 0.74124 -2.27358
v 7.60878 0.74124 -2.23414
v 7.54161 0.62000 -2.21442
v 7.60878 0.49876 -2.23414
v 7.74311 0.49876 -2.27358
v 8.05715 0.62000 -1.15844
v 7.98786 0.74124 -1.14848
v 7.84928 0.74124 -1.12856
v 7.78000 0.62000 -1.11859
v 7.84928 0.49876 -1.12856
v 7.98786 0.49876 -1.14848
v 0.00000 0.60000 0.00000
v 0.00000 0.60000 0.00000
v 0.00000 0.60000 0.00000
v 0.00000 0.60000 0.00000
v 0.00000 0.60000 0.00000
v 0.00000 0.60000 0.00000
v 0.00000 0.60000 0.00000
v -0.00000 0.60000 0.00000
v -0.00000 0.60000 0.00000
v -0.00000 0.60000 0.00000
v -0.00000 0.60000 0.00000
v -0.00000 0.60000 0.00000
v -0.00000 0.60000 0.00000
v -0.00000 0.60000 -0.00000
v -0.00000 0.60000 -0.00000
v -0.00000 0.60000 -0.00000
v -0.00000 0.60000 -0.00000
v -0.00000 0.60000 -0.00000
v -0.00000 0.60000 -0.00000
v 0.00000 0.60000 -0.00000
v 0.00000 0.60000 -0.00000
v 0.00000 0.60000 -0.00000
v 0.00000 0.60000 -0.00000
v 0.00000 0.60000 -0.00000
v 1.40000 0.60000 0.00000
v 1.35230 0.60000 0.36235
v 1.21244 0.60000 0.70000
v 0.98995 0.60000 0.98995
v 0.70000 0.60000 1.21244
v 0.36235 0.60000 1.35230
v 0.00000 0.60000 1.40000
v -0.36235 0.60000 1.35230
v -0.70000 0.60000 1.21244
v -0.98995 0.60000 0.98995
v -1.21244 0.60000 0.70000
v -1.35230 0.60000 0.36235
v -1.40000 0.60000 0.00000
v -1.35230 0.60000 -0.36235
v -1.21244 0.60000 -0.70000
v -0.98995 0.60000 -0.98995
v -0.70000 0.60000 -1.21244
v -0.36235 0.60000 -1.35230
v -0.00000 0.60000 -1.40000
v 0.36235 0.60000 -1.35230
v 0.70000 0.60000 -1.21244
v 0.98995 0.60000 -0.98995
v 1.21244 0.60000 -0.70000
v 1.35230 0.60000 -0.36235
v 1.00000 1.40000 0.00000
v 0.96593 1.40000 0.25882
v 0.86603 1.40000 0.50000
v 0.70711 1.40000 0.70711
v 0.50000 1.40000 0.86603
v 0.25882 1.40000 0.96593
v 0.00000 1.40000 1.00000
v -0.25882 1.40000 0.96593
v -0.50000 1.40000 0.86603
v -0.70711 1.40000 0.70711
v -0.86603 1.40000 0.50000
v -0.96593 1.40000 0.25882
v -1.00000 1.40000 0.00000
v -0.96593 1.40000 -0.25882
v -0.86603 1.40000 -0.50000
v -0.70711 1.40000 -0.70711
v -0.50000 1.40000 -0.86603
v -0.25882 1.40000 -0.96593
v -0.00000 1.40000 -1.00000
v 0.25882 1.40000 -0.96593
v 0.50000 1.40000 -0.86603
v 0.70711 1.40000 -0.70711
v 0.86603 1.40000 -0.50000
v 0.96593 1.40000 -0.25882
v 0.60000 2.20000 0.00000
v 0.57956 2.20000 0.15529
v 0.51962 2.20000 0.30000
v 0.42426 2.20000 0.42426
v 0.30000 2.20000 0.51962
v 0.15529 2.20000 0.57956
v 0.00000 2.20000 0.60000
v -0.15529 2.20000 0.57956
v -0.30000 2.20000 0.51962
v -0.42426 2.20000 0.42426
v -0.51962 2.20000 0.30000
v -0.57956 2.20000 0.15529
v -0.60000 2.20000 0.00000
v -0.57956 2.20000 -0.15529
v -0.51962 2.20000 -0.30000
v -0.42426 2.20000 -0.42426
v -0.30000 2.20000 -0.51962
v -0.15529 2.20000 -0.57956
v -0.00000 2.20000 -0.60000
v 0.15529 2.20000 -0.57956
v 0.30000 2.20000 -0.51962
v 0.42426 2.20000 -0.42426
v 0.51962 2.20000 -0.30000
v 0.57956 2.20000 -0.15529
v 0.50000 5.00000 0.00000
v 0.48296 5.00000 0.12941
v 0.43301 5.00000 0.25000
v 0.35355 5.00000 0.35355
v 0.25000 5.00000 0.43301
v 0.12941 5.00000 0.48296
v 0.00000 5.00000 0.50000
v -0.12941 5.00000 0.48296
v -0.25000 5.00000 0.43301
v -0.35355 5.00000 0.35355
v -0.43301 5.00000 0.25000
v -0.48296 5.00000 0.12941
v -0.50000 5.00000 0.00000
v -0.48296 5.00000 -0.12941
v -0.43301 5.00000 -0.25000
v -0.35355 5.00000 -0.35355
v -0.25000 5.00000 -0.43301
v -0.12941 5.00000 -0.48296
v -0.00000 5.00000 -0.50000
v 0.12941 5.00000 -0.48296
v 0.25000 5.00000 -0.43301
v 0.35355 5.00000 -0.35355
v 0.43301 5.00000 -0.25000
v 0.48296 5.00000 -0.12941
v 0.90000 5.30000 0.00000
v 0.86933 5.30000 0.23294
v 0.77942 5.30000 0.45000
v 0.63640 5.30000 0.63640
v 0.45000 5.30000 0.77942
v 0.23294 5.30000 0.86933
v 0.00000 5.30000 0.90000
v -0.23294 5.30000 0.86933
v -0.45000 5.30000 0.77942
v -0.63640 5.30000 0.63640
v -0.77942 5.30000 0.45000
v -0.86933 5.30000 0.23294
v -0.90000 5.30000 0.00000
v -0.86933 5.30000 -0.23294
v -0.77942 5.30000 -0.45000
v -0.63640 5.30000 -0.63640
v -0.45000 5.30000 -0.77942
v -0.23294 5.30000 -0.86933
v -0.00000 5.30000 -0.90000
v 0.23294 5.30000 -0.86933
v 0.45000 5.30000 -0.77942
v 0.63640 5.30000 -0.63640
v 0.77942 5.30000 -0.45000
v 0.86933 5.30000 -0.23294
v 0.00000 6.40000 0.00000
v 0.00000 6.40000 0.00000
v 0.00000 6.40000 0.00000
v 0.00000 6.40000 0.00000
v 0.00000 6.40000 0.00000
v 0.00000 6.40000 0.00000
v 0.00000 6.40000 0.00000
v -0.00000 6.40000 0.00000
v -0.00000 6.40000 0.00000
v -0.00000 6.40000 0.00000
v -0.00000 6.40000 0.00000
v -0.00000 6.40000 0.00000
v -0.00000 6.40000 0.00000
v -0.00000 6.40000 -0.00000
v -0.00000 6.40000 -0.00000
v -0.00000 6.40000 -0.00000
v -0.00000 6.40000 -0.00000
v -0.00000 6.40000 -0.00000
v -0.00000 6.40000 -0.00000
v 0.00000 6.40000 -0.00000
v 0.00000 6.40000 -0.00000
v 0.00000 6.40000 -0.00000
v 0.00000 6.40000 -0.00000
v 0.00000 6.40000 -0.00000
v 0.00000 0.90000 0.18000
v 0.00000 0.77272 0.12728
v 0.00000 0.72000 0.00000
v 0.00000 0.77272 -0.12728
v 0.00000 0.90000 -0.18000
v 0.00000 1.02728 -0.12728
v 0.00000 1.08000 -0.00000
v 0.00000 1.02728 0.12728
v 5.40000 0.90000 0.18000
v 5.40000 0.77272 0.12728
v 5.40000 0.72000 0.00000
v 5.40000 0.77272 -0.12728
v 5.40000 0.90000 -0.18000
v 5.40000 1.02728 -0.12728
v 5.40000 1.08000 -0.00000
v 5.40000 1.02728 0.12728
v 0.00000 0.90000 0.00000
v 5.40000 0.90000 0.00000
v 6.90000 0.60000 0.00000
v 6.90000 0.90000 0.00000
v 6.84889 0.60000 0.38823
v 6.84889 0.90000 0.38823
v 6.69904 0.60000 0.75000
v 6.69904 0.90000 0.75000
v 6.46066 0.60000 1.06066
v 6.46066 0.90000 1.06066
v 6.15000 0.60000 1.29904
v 6.15000 0.90000 1.29904
v 5.78823 0.60000 1.44889
v 5.78823 0.90000 1.44889
v 5.40000 0.60000 1.50000
v 5.40000 0.90000 1.50000
v 5.01177 0.60000 1.44889
v 5.01177 0.90000 1.44889
v 4.65000 0.60000 1.29904
v 4.65000 0.90000 1.29904
v 4.33934 0.60000 1.06066
v 4.33934 0.90000 1.06066
v 4.10096 0.60000 0.75000
v 4.10096 0.90000 0.75000
v 3.95111 0.60000 0.38823
v 3.95111 0.90000 0.38823
v 3.90000 0.60000 0.00000
v 3.90000 0.90000 0.00000
v 3.95111 0.60000 -0.38823
v 3.95111 0.90000 -0.38823
v 4.10096 0.60000 -0.75000
v 4.10096 0.90000 -0.75000
v 4.33934 0.60000 -1.06066
v 4.33934 0.90000 -1.06066
v 4.65000 0.60000 -1.29904
v 4.65000 0.90000 -1.29904
v 5.01177 0.60000 -1.44889
v 5.01177 0.90000 -1.44889
v 5.40000 0.60000 -1.50000
v 5.40000 0.90000 -1.50000
v 5.78823 0.60000 -1.44889
v 5.78823 0.90000 -1.44889
v 6.15000 0.60000 -1.29904
v 6.15000 0.90000 -1.29904
v 6.46066 0.60000 -1.06066
v 6.46066 0.90000 -1.06066
v 6.69904 0.60000 -0.75000
v 6.69904 0.90000 -0.75000
v 6.84889 0.60000 -0.38823
v 6.84889 0.90000 -0.38823
v 5.40000 0.60000 0.00000
v 5.40000 0.90000 0.00000
v 6.60000 0.90000 0.00000
v 6.60000 0.98000 0.00000
v 6.55911 0.90000 0.31058
v 6.55911 0.98000 0.31058
v 6.43923 0.90000 0.60000
v 6.43923 0.98000 0.60000
v 6.24853 0.90000 0.84853
v 6.24853 0.98000 0.84853
v 6.00000 0.90000 1.03923
v 6.00000 0.98000 1.03923
v 5.71058 0.90000 1.15911
v 5.71058 0.98000 1.15911
v 5.40000 0.90000 1.20000
v 5.40000 0.98000 1.20000
v 5.08942 0.90000 1.15911
v 5.08942 0.98000 1.15911
v 4.80000 0.90000 1.03923
v 4.80000 0.98000 1.03923
v 4.55147 0.90000 0.84853
v 4.55147 0.98000 0.84853
v 4.36077 0.90000 0.60000
v 4.36077 0.98000 0.60000
v 4.24089 0.90000 0.31058
v 4.24089 0.98000 0.31058
v 4.20000 0.90000 0.00000
v 4.20000 0.98000 0.00000
v 4.24089 0.90000 -0.31058
v 4.24089 0.98000 -0.31058
v 4.36077 0.90000 -0.60000
v 4.36077 0.98000 -0.60000
v 4.55147 0.90000 -0.84853
v 4.55147 0.98000 -0.84853
v 4.80000 0.90000 -1.03923
v 4.80000 0.98000 -1.03923
v 5.08942 0.90000 -1.15911
v 5.08942 0.98000 -1.15911
v 5.40000 0.90000 -1.20000
v 5.40000 0.98000 -1.20000
v 5.71058 0.90000 -1.15911
v 5.71058 0.98000 -1.15911
v 6.00000 0.90000 -1.03923
v 6.00000 0.98000 -1.03923
v 6.24853 0.90000 -0.84853
v 6.24853 0.98000 -0.84853
v 6.43923 0.90000 -0.60000
v 6.43923 0.98000 -0.60000
v 6.55911 0.90000 -0.31058
v 6.55911 0.98000 -0.31058
v 5.40000 0.90000 0.00000
v 5.40000 0.98000 0.00000
v -0.15588 0.90000 0.09000
v -0.11023 0.77272 0.06364
v -0.00000 0.72000 0.00000
v 0.11023 0.77272 -0.06364
v 0.15588 0.90000 -0.09000
v 0.11023 1.02728 -0.06364
v 0.00000 1.08000 -0.00000
v -0.11023 1.02728 0.06364
v 2.54412 0.90000 4.76654
v 2.58977 0.77272 4.74018
v 2.70000 0.72000 4.67654
v 2.81023 0.77272 4.61290
v 2.85588 0.90000 4.58654
v 2.81023 1.02728 4.61290
v 2.70000 1.08000 4.67654
v 2.58977 1.02728 4.74018
v 0.00000 0.90000 0.00000
v 2.70000 0.90000 4.67654
v 4.20000 0.60000 4.67654
v 4.20000 0.90000 4.67654
v 4.14889 0.60000 5.06477
v 4.14889 0.90000 5.06477
v 3.99904 0.60000 5.42654
v 3.99904 0.90000 5.42654
v 3.76066 0.60000 5.73720
v 3.76066 0.90000 5.73720
v 3.45000 0.60000 5.97558
v 3.45000 0.90000 5.97558
v 3.08823 0.60000 6.12543
v 3.08823 0.90000 6.12543
v 2.70000 0.60000 6.17654
v 2.70000 0.90000 6.17654
v 2.31177 0.60000 6.12543
v 2.31177 0.90000 6.12543
v 1.95000 0.60000 5.97558
v 1.95000 0.90000 5.97558
v 1.63934 0.60000 5.73720
v 1.63934 0.90000 5.73720
v 1.40096 0.60000 5.42654
v 1.40096 0.90000 5.42654
v 1.25111 0.60000 5.06477
v 1.25111 0.90000 5.06477
v 1.20000 0.60000 4.67654
v 1.20000 0.90000 4.67654
v 1.25111 0.60000 4.28831
v 1.25111 0.90000 4.28831
v 1.40096 0.60000 3.92654
v 1.40096 0.90000 3.92654
v 1.63934 0.60000 3.61588
v 1.63934 0.90000 3.61588
v 1.95000 0.60000 3.37750
v 1.95000 0.90000 3.37750
v 2.31177 0.60000 3.22765
v 2.31177 0.90000 3.22765
v 2.70000 0.60000 3.17654
v 2.70000 0.90000 3.17654
v 3.08823 0.60000 3.22765
v 3.08823 0.90000 3.22765
v 3.45000 0.60000 3.37750
v 3.45000 0.90000 3.37750
v 3.76066 0.60000 3.61588
v 3.76066 0.90000 3.61588
v 3.99904 0.60000 3.92654
v 3.99904 0.90000 3.92654
v 4.14889 0.60000 4.28831
v 4.14889 0.90000 4.28831
v 2.70000 0.60000 4.67654
v 2.70000 0.90000 4.67654
v 3.90000 0.90000 4.67654
v 3.90000 0.98000 4.67654
v 3.85911 0.90000 4.98712
v 3.85911 0.98000 4.98712
v 3.73923 0.90000 5.27654
v 3.73923 0.98000 5.27654
v 3.54853 0.90000 5.52507
v 3.54853 0.98000 5.52507
v 3.30000 0.90000 5.71577
v 3.30000 0.98000 5.71577
v 3.01058 0.90000 5.83565
v 3.01058 0.98000 5.83565
v 2.70000 0.90000 5.87654
v 2.70000 0.98000 5.87654
v 2.38942 0.90000 5.83565
v 2.38942 0.98000 5.83565
v 2.10000 0.90000 5.71577
v 2.10000 0.98000 5.71577
v 1.85147 0.90000 5.52507
v 1.85147 0.98000 5.52507
v 1.66077 0.90000 5.27654
v 1.66077 0.98000 5.27654
v 1.54089 0.90000 4.98712
v 1.54089 0.98000 4.98712
v 1.50000 0.90000 4.67654
v 1.50000 0.98000 4.67654
v 1.54089 0.90000 4.36595
v 1.54089 0.98000 4.36595
v 1.66077 0.90000 4.07654
v 1.66077 0.98000 4.07654
v 1.85147 0.90000 3.82801
v 1.85147 0.98000 3.82801
v 2.10000 0.90000 3.63731
v 2.10000 0.98000 3.63731
v 2.38942 0.90000 3.51743
v 2.38942 0.98000 3.51743
v 2.70000 0.90000 3.47654
v 2.70000 0.98000 3.47654
v 3.01058 0.90000 3.51743
v 3.01058 0.98000 3.51743
v 3.30000 0.90000 3.63731
v 3.30000 0.98000 3.63731
v 3.54853 0.90000 3.82801
v 3.54853 0.98000 3.82801
v 3.73923 0.90000 4.07654
v 3.73923 0.98000 4.07654
v 3.85911 0.90000 4.36595
v 3.85911 0.98000 4.36595
v 2.70000 0.90000 4.67654
v 2.70000 0.98000 4.67654
v -0.15588 0.90000 -0.09000
v -0.11023 0.77272 -0.06364
v -0.00000 0.72000 -0.00000
v 0.11023 0.77272 0.06364
v 0.15588 0.90000 0.09000
v 0.11023 1.02728 0.06364
v 0.00000 1.08000 0.00000
v -0.11023 1.02728 -0.06364
v -2.85588 0.90000 4.58654
v -2.81023 0.77272 4.61290
v -2.70000 0.72000 4.67654
v -2.58977 0.77272 4.74018
v -2.54412 0.90000 4.76654
v -2.58977 1.02728 4.74018
v -2.70000 1.08000 4.67654
v -2.81023 1.02728 4.61290
v 0.00000 0.90000 0.00000
v -2.70000 0.90000 4.67654
v -1.20000 0.60000 4.67654
v -1.20000 0.90000 4.67654
v -1.25111 0.60000 5.06477
v -1.25111 0.90000 5.06477
v -1.40096 0.60000 5.42654
v -1.40096 0.90000 5.42654
v -1.63934 0.60000 5.73720
v -1.63934 0.90000 5.73720
v -1.95000 0.60000 5.97558
v -1.95000 0.90000 5.97558
v -2.31177 0.60000 6.12543
v -2.31177 0.90000 6.12543
v -2.70000 0.60000 6.17654
v -2.70000 0.90000 6.17654
v -3.08823 0.60000 6.12543
v -3.08823 0.90000 6.12543
v -3.45000 0.60000 5.97558
v -3.45000 0.90000 5.97558
v -3.76066 0.60000 5.73720
v -3.76066 0.90000 5.73720
v -3.99904 0.60000 5.42654
v -3.99904 0.90000 5.42654
v -4.14889 0.60000 5.06477
v -4.14889 0.90000 5.06477
v -4.20000 0.60000 4.67654
v -4.20000 0.90000 4.67654
v -4.14889 0.60000 4.28831
v -4.14889 0.90000 4.28831
v -3.99904 0.60000 3.92654
v -3.99904 0.90000 3.92654
v -3.76066 0.60000 3.61588
v -3.76066 0.90000 3.61588
v -3.45000 0.60000 3.37750
v -3.45000 0.90000 3.37750
v -3.08823 0.60000 3.22765
v -3.08823 0.90000 3.22765
v -2.70000 0.60000 3.17654
v -2.70000 0.90000 3.17654
v -2.31177 0.60000 3.22765
v -2.31177 0.90000 3.22765
v -1.95000 0.60000 3.37750
v -1.95000 0.90000 3.37750
v -1.63934 0.60000 3.61588
v -1.63934 0.90000 3.61588
v -1.40096 0.60000 3.92654
v -1.40096 0.90000 3.92654
v -1.25111 0.60000 4.28831
v -1.25111 0.90000 4.28831
v -2.70000 0.60000 4.67654
v -2.70000 0.90000 4.67654
v -1.50000 0.90000 4.67654
v -1.50000 0.98000 4.67654
v -1.54089 0.90000 4.98712
v -1.54089 0.98000 4.98712
v -1.66077 0.90000 5.27654
v -1.66077 0.98000 5.27654
v -1.85147 0.90000 5.52507
v -1.85147 0.98000 5.52507
v -2.10000 0.90000 5.71577
v -2.10000 0.98000 5.71577
v -2.38942 0.90000 5.83565
v -2.38942 0.98000 5.83565
v -2.70000 0.90000 5.87654
v -2.70000 0.98000 5.87654
v -3.01058 0.90000 5.83565
v -3.01058 0.98000 5.83565
v -3.30000 0.90000 5.71577
v -3.30000 0.98000 5.71577
v -3.54853 0.90000 5.52507
v -3.54853 0.98000 5.52507
v -3.73923 0.90000 5.27654
v -3.73923 0.98000 5.27654
v -3.85911 0.90000 4.98712
v -3.85911 0.98000 4.98712
v -3.90000 0.90000 4.67654
v -3.90000 0.98000 4.67654
v -3.85911 0.90000 4.36595
v -3.85911 0.98000 4.36595
v -3.73923 0.90000 4.07654
v -3.73923 0.98000 4.07654
v -3.54853 0.90000 3.82801
v -3.54853 0.98000 3.82801
v -3.30000 0.90000 3.63731
v -3.30000 0.98000 3.63731
v -3.01058 0.90000 3.51743
v -3.01058 0.98000 3.51743
v -2.70000 0.90000 3.47654
v -2.70000 0.98000 3.47654
v -2.38942 0.90000 3.51743
v -2.38942 0.98000 3.51743
v -2.10000 0.90000 3.63731
v -2.10000 0.98000 3.63731
v -1.85147 0.90000 3.82801
v -1.85147 0.98000 3.82801
v -1.66077 0.90000 4.07654
v -1.66077 0.98000 4.07654
v -1.54089 0.90000 4.36595
v -1.54089 0.98000 4.36595
v -2.70000 0.90000 4.67654
v -2.70000 0.98000 4.67654
v -0.00000 0.90000 -0.18000
v -0.00000 0.77272 -0.12728
v -0.00000 0.72000 -0.00000
v 0.00000 0.77272 0.12728
v 0.00000 0.90000 0.18000
v 0.00000 1.02728 0.12728
v 0.00000 1.08000 0.00000
v -0.00000 1.02728 -0.12728
v -5.40000 0.90000 -0.18000
v -5.40000 0.77272 -0.12728
v -5.40000 0.72000 0.00000
v -5.40000 0.77272 0.12728
v -5.40000 0.90000 0.18000
v -5.40000 1.02728 0.12728
v -5.40000 1.08000 0.00000
v -5.40000 1.02728 -0.12728
v 0.00000 0.90000 0.00000
v -5.40000 0.90000 0.00000
v -3.90000 0.60000 0.00000
v -3.90000 0.90000 0.00000
v -3.95111 0.60000 0.38823
v -3.95111 0.90000 0.38823
v -4.10096 0.60000 0.75000
v -4.10096 0.90000 0.75000
v -4.33934 0.60000 1.06066
v -4.33934 0.90000 1.06066
v -4.65000 0.60000 1.29904
v -4.65000 0.90000 1.29904
v -5.01177 0.60000 1.44889
v -5.01177 0.90000 1.44889
v -5.40000 0.60000 1.50000
v -5.40000 0.90000 1.50000
v -5.78823 0.60000 1.44889
v -5.78823 0.90000 1.44889
v -6.15000 0.60000 1.29904
v -6.15000 0.90000 1.29904
v -6.46066 0.60000 1.06066
v -6.46066 0.90000 1.06066
v -6.69904 0.60000 0.75000
v -6.69904 0.90000 0.75000
v -6.84889 0.60000 0.38823
v -6.84889 0.90000 0.38823
v -6.90000 0.60000 0.00000
v -6.90000 0.90000 0.00000
v -6.84889 0.60000 -0.38823
v -6.84889 0.90000 -0.38823
v -6.69904 0.60000 -0.75000
v -6.69904 0.90000 -0.75000
v -6.46066 0.60000 -1.06066
v -6.46066 0.90000 -1.06066
v -6.15000 0.60000 -1.29904
v -6.15000 0.90000 -1.29904
v -5.78823 0.60000 -1.44889
v -5.78823 0.90000 -1.44889
v -5.40000 0.60000 -1.50000
v -5.40000 0.90000 -1.50000
v -5.01177 0.60000 -1.44889
v -5.01177 0.90000 -1.44889
v -4.65000 0.60000 -1.29904
v -4.65000 0.90000 -1.29904
v -4.33934 0.60000 -1.06066
v -4.33934 0.90000 -1.06066
v -4.10096 0.60000 -0.75000
v -4.10096 0.90000 -0.75000
v -3.95111 0.60000 -0.38823
v -3.95111 0.90000 -0.38823
v -5.40000 0.60000 0.00000
v -5.40000 0.90000 0.00000
v -4.20000 0.90000 0.00000
v -4.20000 0.98000 0.00000
v -4.24089 0.90000 0.31058
v -4.24089 0.98000 0.31058
v -4.36077 0.90000 0.60000
v -4.36077 0.98000 0.60000
v -4.55147 0.90000 0.84853
v -4.55147 0.98000 0.84853
v -4.80000 0.90000 1.03923
v -4.80000 0.98000 1.03923
v -5.08942 0.90000 1.15911
v -5.08942 0.98000 1.15911
v -5.40000 0.90000 1.20000
v -5.40000 0.98000 1.20000
v -5.71058 0.90000 1.15911
v -5.71058 0.98000 1.15911
v -6.00000 0.90000 1.03923
v -6.00000 0.98000 1.03923
v -6.24853 0.90000 0.84853
v -6.24853 0.98000 0.84853
v -6.43923 0.90000 0.60000
v -6.43923 0.98000 0.60000
v -6.55911 0.90000 0.31058
v -6.55911 0.98000 0.31058
v -6.60000 0.90000 0.00000
v -6.60000 0.98000 0.00000
v -6.55911 0.90000 -0.31058
v -6.55911 0.98000 -0.31058
v -6.43923 0.90000 -0.60000
v -6.43923 0.98000 -0.60000
v -6.24853 0.90000 -0.84853
v -6.24853 0.98000 -0.84853
v -6.00000 0.90000 -1.03923
v -6.00000 0.98000 -1.03923
v -5.71058 0.90000 -1.15911
v -5.71058 0.98000 -1.15911
v -5.40000 0.90000 -1.20000
v -5.40000 0.98000 -1.20000
v -5.08942 0.90000 -1.15911
v -5.08942 0.98000 -1.15911
v -4.80000 0.90000 -1.03923
v -4.80000 0.98000 -1.03923
v -4.55147 0.90000 -0.84853
v -4.55147 0.98000 -0.84853
v -4.36077 0.90000 -0.60000
v -4.36077 0.98000 -0.60000
v -4.24089 0.90000 -0.31058
v -4.24089 0.98000 -0.31058
v -5.40000 0.90000 0.00000
v -5.40000 0.98000 0.00000
v 0.15588 0.90000 -0.09000
v 0.11023 0.77272 -0.06364
v 0.00000 0.72000 -0.00000
v -0.11023 0.77272 0.06364
v -0.15588 0.90000 0.09000
v -0.11023 1.02728 0.06364
v -0.00000 1.08000 0.00000
v 0.11023 1.02728 -0.06364
v -2.54412 0.90000 -4.76654
v -2.58977 0.77272 -4.74018
v -2.70000 0.72000 -4.67654
v -2.81023 0.77272 -4.61290
v -2.85588 0.90000 -4.58654
v -2.81023 1.02728 -4.61290
v -2.70000 1.08000 -4.67654
v -2.58977 1.02728 -4.74018
v 0.00000 0.90000 0.00000
v -2.70000 0.90000 -4.67654
v -1.20000 0.60000 -4.67654
v -1.20000 0.90000 -4.67654
v -1.25111 0.60000 -4.28831
v -1.25111 0.90000 -4.28831
v -1.40096 0.60000 -3.92654
v -1.40096 0.90000 -3.92654
v -1.63934 0.60000 -3.61588
v -1.63934 0.90000 -3.61588
v -1.95000 0.60000 -3.37750
v -1.95000 0.90000 -3.37750
v -2.31177 0.60000 -3.22765
v -2.31177 0.90000 -3.22765
v -2.70000 0.60000 -3.17654
v -2.70000 0.90000 -3.17654
v -3.08823 0.60000 -3.22765
v -3.08823 0.90000 -3.22765
v -3.45000 0.60000 -3.37750
v -3.45000 0.90000 -3.37750
v -3.76066 0.60000 -3.61588
v -3.76066 0.90000 -3.61588
v -3.99904 0.60000 -3.92654
v -3.99904 0.90000 -3.92654
v -4.14889 0.60000 -4.28831
v -4.14889 0.90000 -4.28831
v -4.20000 0.60000 -4.67654
v -4.20000 0.90000 -4.67654
v -4.14889 0.60000 -5.06477
v -4.14889 0.90000 -5.06477
v -3.99904 0.60000 -5.42654
v -3.99904 0.90000 -5.42654
v -3.76066 0.60000 -5.73720
v -3.76066 0.90000 -5.73720
v -3.45000 0.60000 -5.97558
v -3.45000 0.90000 -5.97558
v -3.08823 0.60000 -6.12543
v -3.08823 0.90000 -6.12543
v -2.70000 0.60000 -6.17654
v -2.70000 0.90000 -6.17654
v -2.31177 0.60000 -6.12543
v -2.31177 0.90000 -6.12543
v -1.95000 0.60000 -5.97558
v -1.95000 0.90000 -5.97558
v -1.63934 0.60000 -5.73720
v -1.63934 0.90000 -5.73720
v -1.40096 0.60000 -5.42654
v -1.40096 0.90000 -5.42654
v -1.25111 0.60000 -5.06477
v -1.25111 0.90000 -5.06477
v -2.70000 0.60000 -4.67654
v -2.70000 0.90000 -4.67654
v -1.50000 0.90000 -4.67654
v -1.50000 0.98000 -4.67654
v -1.54089 0.90000 -4.36595
v -1.54089 0.98000 -4.36595
v -1.66077 0.90000 -4.07654
v -1.66077 0.98000 -4.07654
v -1.85147 0.90000 -3.82801
v -1.85147 0.98000 -3.82801
v -2.10000 0.90000 -3.63731
v -2.10000 0.98000 -3.63731
v -2.38942 0.90000 -3.51743
v -2.38942 0.98000 -3.51743
v -2.70000 0.90000 -3.47654
v -2.70000 0.98000 -3.47654
v -3.01058 0.90000 -3.51743
v -3.01058 0.98000 -3.51743
v -3.30000 0.90000 -3.63731
v -3.30000 0.98000 -3.63731
v -3.54853 0.90000 -3.82801
v -3.54853 0.98000 -3.82801
v -3.73923 0.90000 -4.07654
v -3.73923 0.98000 -4.07654
v -3.85911 0.90000 -4.36595
v -3.85911 0.98000 -4.36595
v -3.90000 0.90000 -4.67654
v -3.90000 0.98000 -4.67654
v -3.85911 0.90000 -4.98712
v -3.85911 0.98000 -4.98712
v -3.73923 0.90000 -5.27654
v -3.73923 0.98000 -5.27654
v -3.54853 0.90000 -5.52507
v -3.54853 0.98000 -5.52507
v -3.30000 0.90000 -5.71577
v -3.30000 0.98000 -5.71577
v -3.01058 0.90000 -5.83565
v -3.01058 0.98000 -5.83565
v -2.70000 0.90000 -5.87654
v -2.70000 0.98000 -5.87654
v -2.38942 0.90000 -5.83565
v -2.38942 0.98000 -5.83565
v -2.10000 0.90000 -5.71577
v -2.10000 0.98000 -5.71577
v -1.85147 0.90000 -5.52507
v -1.85147 0.98000 -5.52507
v -1.66077 0.90000 -5.27654
v -1.66077 0.98000 -5.27654
v -1.54089 0.90000 -4.98712
v -1.54089 0.98000 -4.98712
v -2.70000 0.90000 -4.67654
v -2.70000 0.98000 -4.67654
v 0.15588 0.90000 0.09000
v 0.11023 0.77272 0.06364
v 0.00000 0.72000 0.00000
v -0.11023 0.77272 -0.06364
v -0.15588 0.90000 -0.09000
v -0.11023 1.02728 -0.06364
v -0.00000 1.08000 -0.00000
v 0.11023 1.02728 0.06364
v 2.85588 0.90000 -4.58654
v 2.81023 0.77272 -4.61290
v 2.70000 0.72000 -4.67654
v 2.58977 0.77272 -4.74018
v 2.54412 0.90000 -4.76654
v 2.58977 1.02728 -4.74018
v 2.70000 1.08000 -4.67654
v 2.81023 1.02728 -4.61290
v 0.00000 0.90000 0.00000
v 2.70000 0.90000 -4.67654
v 4.20000 0.60000 -4.67654
v 4.20000 0.90000 -4.67654
v 4.14889 0.60000 -4.28831
v 4.14889 0.90000 -4.28831
v 3.99904 0.60000 -3.92654
v 3.99904 0.90000 -3.92654
v 3.76066 0.60000 -3.61588
v 3.76066 0.90000 -3.61588
v 3.45000 0.60000 -3.37750
v 3.45000 0.90000 -3.37750
v 3.08823 0.60000 -3.22765
v 3.08823 0.90000 -3.22765
v 2.70000 0.60000 -3.17654
v 2.70000 0.90000 -3.17654
v 2.31177 0.60000 -3.22765
v 2.31177 0.90000 -3.22765
v 1.95000 0.60000 -3.37750
v 1.95000 0.90000 -3.37750
v 1.63934 0.60000 -3.61588
v 1.63934 0.90000 -3.61588
v 1.40096 0.60000 -3.92654
v 1.40096 0.90000 -3.92654
v 1.25111 0.60000 -4.28831
v 1.25111 0.90000 -4.28831
v 1.20000 0.60000 -4.67654
v 1.20000 0.90000 -4.67654
v 1.25111 0.60000 -5.06477
v 1.25111 0.90000 -5.06477
v 1.40096 0.60000 -5.42654
v 1.40096 0.90000 -5.42654
v 1.63934 0.60000 -5.73720
v 1.63934 0.90000 -5.73720
v 1.95000 0.60000 -5.97558
v 1.95000 0.90000 -5.97558
v 2.31177 0.60000 -6.12543
v 2.31177 0.90000 -6.12543
v 2.70000 0.60000 -6.17654
v 2.70000 0.90000 -6.17654
v 3.08823 0.60000 -6.12543
v 3.08823 0.90000 -6.12543
v 3.45000 0.60000 -5.97558
v 3.45000 0.90000 -5.97558
v 3.76066 0.60000 -5.73720
v 3.76066 0.90000 -5.73720
v 3.99904 0.60000 -5.42654
v 3.99904 0.90000 -5.42654
v 4.14889 0.60000 -5.06477
v 4.14889 0.90000 -5.06477
v 2.70000 0.60000 -4.67654
v 2.70000 0.90000 -4.67654
v 3.90000 0.90000 -4.67654
v 3.90000 0.98000 -4.67654
v 3.85911 0.90000 -4.36595
v 3.85911 0.98000 -4.36595
v 3.73923 0.90000 -4.07654
v 3.73923 0.98000 -4.07654
v 3.54853 0.90000 -3.82801
v 3.54853 0.98000 -3.82801
v 3.30000 0.90000 -3.63731
v 3.30000 0.98000 -3.63731
v 3.01058 0.90000 -3.51743
v 3.01058 0.98000 -3.51743
v 2.70000 0.90000 -3.47654
v 2.70000 0.98000 -3.47654
v 2.38942 0.90000 -3.51743
v 2.38942 0.98000 -3.51743
v 2.10000 0.90000 -3.63731
v 2.10000 0.98000 -3.63731
v 1.85147 0.90000 -3.82801
v 1.85147 0.98000 -3.82801
v 1.66077 0.90000 -4.07654
v 1.66077 0.98000 -4.07654
v 1.54089 0.90000 -4.36595
v 1.54089 0.98000 -4.36595
v 1.50000 0.90000 -4.67654
v 1.50000 0.98000 -4.67654
v 1.54089 0.90000 -4.98712
v 1.54089 0.98000 -4.98712
v 1.66077 0.90000 -5.27654
v 1.66077 0.98000 -5.27654
v 1.85147 0.90000 -5.52507
v 1.85147 0.98000 -5.52507
v 2.10000 0.90000 -5.71577
v 2.10000 0.98000 -5.71577
v 2.38942 0.90000 -5.83565
v 2.38942 0.98000 -5.83565
v 2.70000 0.90000 -5.87654
v 2.70000 0.98000 -5.87654
v 3.01058 0.90000 -5.83565
v 3.01058 0.98000 -5.83565
v 3.30000 0.90000 -5.71577
v 3.30000 0.98000 -5.71577
v 3.54853 0.90000 -5.52507
v 3.54853 0.98000 -5.52507
v 3.73923 0.90000 -5.27654
v 3.73923 0.98000 -5.27654
v 3.85911 0.90000 -4.98712
v 3.85911 0.98000 -4.98712
v 2.70000 0.90000 -4.67654
v 2.70000 0.98000 -4.67654
v 0.00000 7.50000 -0.12000
v -0.12637 7.17394 -0.12000
v -0.47553 7.15451 -0.12000
v -0.20448 6.93356 -0.12000
v -0.29389 6.59549 -0.12000
v -0.00000 6.78500 -0.12000
v 0.29389 6.59549 -0.12000
v 0.20448 6.93356 -0.12000
v 0.47553 7.15451 -0.12000
v 0.12637 7.17394 -0.12000
v 0.00000 7.50000 0.12000
v -0.12637 7.17394 0.12000
v -0.47553 7.15451 0.12000
v -0.20448 6.93356 0.12000
v -0.29389 6.59549 0.12000
v -0.00000 6.78500 0.12000
v 0.29389 6.59549 0.12000
v 0.20448 6.93356 0.12000
v 0.47553 7.15451 0.12000
v 0.12637 7.17394 0.12000
v 0.00000 7.00000 -0.12000
v 0.00000 7.00000 0.12000
vt 0.05000 0.50000
vt 0.15000 0.50000
vt 0.25000 0.50000
vt 0.35000 0.50000
vt 0.45000 0.50000
vt 0.55000 0.50000
vt 0.65000 0.50000
vt 0.75000 0.50000
vt 0.85000 0.50000
vt 0.95000 0.50000
usemtl ink
f 2/6 4/6 3/6 1/6
f 1/6 3/6 89/6
f 4/6 2/6 90/6
f 4/6 6/6 5/6 3/6
f 3/6 5/6 89/6
f 6/6 4/6 90/6
f 6/6 8/6 7/6 5/6
f 5/6 7/6 89/6
f 8/6 6/6 90/6
f 8/6 10/6 9/6 7/6
f 7/6 9/6 89/6
f 10/6 8/6 90/6
f 10/6 12/6 11/6 9/6
f 9/6 11/6 89/6
f 12/6 10/6 90/6
f 12/6 14/6 13/6 11/6
f 11/6 13/6 89/6
f 14/6 12/6 90/6
f 14/6 16/6 15/6 13/6
f 13/6 15/6 89/6
f 16/6 14/6 90/6
f 16/6 18/6 17/6 15/6
f 15/6 17/6 89/6
f 18/6 16/6 90/6
f 18/6 20/6 19/6 17/6
f 17/6 19/6 89/6
f 20/6 18/6 90/6
f 20/6 22/6 21/6 19/6
f 19/6 21/6 89/6
f 22/6 20/6 90/6
f 22/6 24/6 23/6 21/6
f 21/6 23/6 89/6
f 24/6 22/6 90/6
f 24/6 26/6 25/6 23/6
f 23/6 25/6 89/6
f 26/6 24/6 90/6
f 26/6 28/6 27/6 25/6
f 25/6 27/6 89/6
f 28/6 26/6 90/6
f 28/6 30/6 29/6 27/6
f 27/6 29/6 89/6
f 30/6 28/6 90/6
f 30/6 32/6 31/6 29/6
f 29/6 31/6 89/6
f 32/6 30/6 90/6
f 32/6 34/6 33/6 31/6
f 31/6 33/6 89/6
f 34/6 32/6 90/6
f 34/6 36/6 35/6 33/6
f 33/6 35/6 89/6
f 36/6 34/6 90/6
f 36/6 38/6 37/6 35/6
f 35/6 37/6 89/6
f 38/6 36/6 90/6
f 38/6 40/6 39/6 37/6
f 37/6 39/6 89/6
f 40/6 38/6 90/6
f 40/6 42/6 41/6 39/6
f 39/6 41/6 89/6
f 42/6 40/6 90/6
f 42/6 44/6 43/6 41/6
f 41/6 43/6 89/6
f 44/6 42/6 90/6
f 44/6 46/6 45/6 43/6
f 43/6 45/6 89/6
f 46/6 44/6 90/6
f 46/6 48/6 47/6 45/6
f 45/6 47/6 89/6
f 48/6 46/6 90/6
f 48/6 50/6 49/6 47/6
f 47/6 49/6 89/6
f 50/6 48/6 90/6
f 50/6 52/6 51/6 49/6
f 49/6 51/6 89/6
f 52/6 50/6 90/6
f 52/6 54/6 53/6 51/6
f 51/6 53/6 89/6
f 54/6 52/6 90/6
f 54/6 56/6 55/6 53/6
f 53/6 55/6 89/6
f 56/6 54/6 90/6
f 56/6 58/6 57/6 55/6
f 55/6 57/6 89/6
f 58/6 56/6 90/6
f 58/6 60/6 59/6 57/6
f 57/6 59/6 89/6
f 60/6 58/6 90/6
f 60/6 62/6 61/6 59/6
f 59/6 61/6 89/6
f 62/6 60/6 90/6
f 62/6 64/6 63/6 61/6
f 61/6 63/6 89/6
f 64/6 62/6 90/6
f 64/6 66/6 65/6 63/6
f 63/6 65/6 89/6
f 66/6 64/6 90/6
f 66/6 68/6 67/6 65/6
f 65/6 67/6 89/6
f 68/6 66/6 90/6
f 68/6 70/6 69/6 67/6
f 67/6 69/6 89/6
f 70/6 68/6 90/6
f 70/6 72/6 71/6 69/6
f 69/6 71/6 89/6
f 72/6 70/6 90/6
f 72/6 74/6 73/6 71/6
f 71/6 73/6 89/6
f 74/6 72/6 90/6
f 74/6 76/6 75/6 73/6
f 73/6 75/6 89/6
f 76/6 74/6 90/6
f 76/6 78/6 77/6 75/6
f 75/6 77/6 89/6
f 78/6 76/6 90/6
f 78/6 80/6 79/6 77/6
f 77/6 79/6 89/6
f 80/6 78/6 90/6
f 80/6 82/6 81/6 79/6
f 79/6 81/6 89/6
f 82/6 80/6 90/6
f 82/6 84/6 83/6 81/6
f 81/6 83/6 89/6
f 84/6 82/6 90/6
f 84/6 86/6 85/6 83/6
f 83/6 85/6 89/6
f 86/6 84/6 90/6
f 86/6 88/6 87/6 85/6
f 85/6 87/6 89/6
f 88/6 86/6 90/6
f 88/6 2/6 1/6 87/6
f 87/6 1/6 89/6
f 2/6 88/6 90/6
usemtl gold
f 92/4 94/4 93/4 91/4
f 91/4 93/4 179/4
f 94/4 92/4 180/4
f 94/4 96/4 95/4 93/4
f 93/4 95/4 179/4
f 96/4 94/4 180/4
f 96/4 98/4 97/4 95/4
f 95/4 97/4 179/4
f 98/4 96/4 180/4
f 98/4 100/4 99/4 97/4
f 97/4 99/4 179/4
f 100/4 98/4 180/4
f 100/4 102/4 101/4 99/4
f 99/4 101/4 179/4
f 102/4 100/4 180/4
f 102/4 104/4 103/4 101/4
f 101/4 103/4 179/4
f 104/4 102/4 180/4
f 104/4 106/4 105/4 103/4
f 103/4 105/4 179/4
f 106/4 104/4 180/4
f 106/4 108/4 107/4 105/4
f 105/4 107/4 179/4
f 108/4 106/4 180/4
f 108/4 110/4 109/4 107/4
f 107/4 109/4 179/4
f 110/4 108/4 180/4
f 110/4 112/4 111/4 109/4
f 109/4 111/4 179/4
f 112/4 110/4 180/4
f 112/4 114/4 113/4 111/4
f 111/4 113/4 179/4
f 114/4 112/4 180/4
f 114/4 116/4 115/4 113/4
f 113/4 115/4 179/4
f 116/4 114/4 180/4
f 116/4 118/4 117/4 115/4
f 115/4 117/4 179/4
f 118/4 116/4 180/4
f 118/4 120/4 119/4 117/4
f 117/4 119/4 179/4
f 120/4 118/4 180/4
f 120/4 122/4 121/4 119/4
f 119/4 121/4 179/4
f 122/4 120/4 180/4
f 122/4 124/4 123/4 121/4
f 121/4 123/4 179/4
f 124/4 122/4 180/4
f 124/4 126/4 125/4 123/4
f 123/4 125/4 179/4
f 126/4 124/4 180/4
f 126/4 128/4 127/4 125/4
f 125/4 127/4 179/4
f 128/4 126/4 180/4
f 128/4 130/4 129/4 127/4
f 127/4 129/4 179/4
f 130/4 128/4 180/4
f 130/4 132/4 131/4 129/4
f 129/4 131/4 179/4
f 132/4 130/4 180/4
f 132/4 134/4 133/4 131/4
f 131/4 133/4 179/4
f 134/4 132/4 180/4
f 134/4 136/4 135/4 133/4
f 133/4 135/4 179/4
f 136/4 134/4 180/4
f 136/4 138/4 137/4 135/4
f 135/4 137/4 179/4
f 138/4 136/4 180/4
f 138/4 140/4 139/4 137/4
f 137/4 139/4 179/4
f 140/4 138/4 180/4
f 140/4 142/4 141/4 139/4
f 139/4 141/4 179/4
f 142/4 140/4 180/4
f 142/4 144/4 143/4 141/4
f 141/4 143/4 179/4
f 144/4 142/4 180/4
f 144/4 146/4 145/4 143/4
f 143/4 145/4 179/4
f 146/4 144/4 180/4
f 146/4 148/4 147/4 145/4
f 145/4 147/4 179/4
f 148/4 146/4 180/4
f 148/4 150/4 149/4 147/4
f 147/4 149/4 179/4
f 150/4 148/4 180/4
f 150/4 152/4 151/4 149/4
f 149/4 151/4 179/4
f 152/4 150/4 180/4
f 152/4 154/4 153/4 151/4
f 151/4 153/4 179/4
f 154/4 152/4 180/4
f 154/4 156/4 155/4 153/4
f 153/4 155/4 179/4
f 156/4 154/4 180/4
f 156/4 158/4 157/4 155/4
f 155/4 157/4 179/4
f 158/4 156/4 180/4
f 158/4 160/4 159/4 157/4
f 157/4 159/4 179/4
f 160/4 158/4 180/4
f 160/4 162/4 161/4 159/4
f 159/4 161/4 179/4
f 162/4 160/4 180/4
f 162/4 164/4 163/4 161/4
f 161/4 163/4 179/4
f 164/4 162/4 180/4
f 164/4 166/4 165/4 163/4
f 163/4 165/4 179/4
f 166/4 164/4 180/4
f 166/4 168/4 167/4 165/4
f 165/4 167/4 179/4
f 168/4 166/4 180/4
f 168/4 170/4 169/4 167/4
f 167/4 169/4 179/4
f 170/4 168/4 180/4
f 170/4 172/4 171/4 169/4
f 169/4 171/4 179/4
f 172/4 170/4 180/4
f 172/4 174/4 173/4 171/4
f 171/4 173/4 179/4
f 174/4 172/4 180/4
f 174/4 176/4 175/4 173/4
f 173/4 175/4 179/4
f 176/4 174/4 180/4
f 176/4 178/4 177/4 175/4
f 175/4 177/4 179/4
f 178/4 176/4 180/4
f 178/4 92/4 91/4 177/4
f 177/4 91/4 179/4
f 92/4 178/4 180/4
f 493/4 494/4 470/4 469/4
f 494/4 495/4 471/4 470/4
f 495/4 496/4 472/4 471/4
f 496/4 497/4 473/4 472/4
f 497/4 498/4 474/4 473/4
f 498/4 499/4 475/4 474/4
f 499/4 500/4 476/4 475/4
f 500/4 501/4 477/4 476/4
f 501/4 502/4 478/4 477/4
f 502/4 503/4 479/4 478/4
f 503/4 504/4 480/4 479/4
f 504/4 505/4 481/4 480/4
f 505/4 506/4 482/4 481/4
f 506/4 507/4 483/4 482/4
f 507/4 508/4 484/4 483/4
f 508/4 509/4 485/4 484/4
f 509/4 510/4 486/4 485/4
f 510/4 511/4 487/4 486/4
f 511/4 512/4 488/4 487/4
f 512/4 513/4 489/4 488/4
f 513/4 514/4 490/4 489/4
f 514/4 515/4 491/4 490/4
f 515/4 516/4 492/4 491/4
f 516/4 493/4 469/4 492/4
f 565/4 566/4 542/4 541/4
f 566/4 567/4 543/4 542/4
f 567/4 568/4 544/4 543/4
f 568/4 569/4 545/4 544/4
f 569/4 570/4 546/4 545/4
f 570/4 571/4 547/4 546/4
f 571/4 572/4 548/4 547/4
f 572/4 573/4 549/4 548/4
f 573/4 574/4 550/4 549/4
f 574/4 575/4 551/4 550/4
f 575/4 576/4 552/4 551/4
f 576/4 577/4 553/4 552/4
f 577/4 578/4 554/4 553/4
f 578/4 579/4 555/4 554/4
f 579/4 580/4 556/4 555/4
f 580/4 581/4 557/4 556/4
f 581/4 582/4 558/4 557/4
f 582/4 583/4 559/4 558/4
f 583/4 584/4 560/4 559/4
f 584/4 585/4 561/4 560/4
f 585/4 586/4 562/4 561/4
f 586/4 587/4 563/4 562/4
f 587/4 588/4 564/4 563/4
f 588/4 565/4 541/4 564/4
f 632/4 634/4 633/4 631/4
f 631/4 633/4 679/4
f 634/4 632/4 680/4
f 634/4 636/4 635/4 633/4
f 633/4 635/4 679/4
f 636/4 634/4 680/4
f 636/4 638/4 637/4 635/4
f 635/4 637/4 679/4
f 638/4 636/4 680/4
f 638/4 640/4 639/4 637/4
f 637/4 639/4 679/4
f 640/4 638/4 680/4
f 640/4 642/4 641/4 639/4
f 639/4 641/4 679/4
f 642/4 640/4 680/4
f 642/4 644/4 643/4 641/4
f 641/4 643/4 679/4
f 644/4 642/4 680/4
f 644/4 646/4 645/4 643/4
f 643/4 645/4 679/4
f 646/4 644/4 680/4
f 646/4 648/4 647/4 645/4
f 645/4 647/4 679/4
f 648/4 646/4 680/4
f 648/4 650/4 649/4 647/4
f 647/4 649/4 679/4
f 650/4 648/4 680/4
f 650/4 652/4 651/4 649/4
f 649/4 651/4 679/4
f 652/4 650/4 680/4
f 652/4 654/4 653/4 651/4
f 651/4 653/4 679/4
f 654/4 652/4 680/4
f 654/4 656/4 655/4 653/4
f 653/4 655/4 679/4
f 656/4 654/4 680/4
f 656/4 658/4 657/4 655/4
f 655/4 657/4 679/4
f 658/4 656/4 680/4
f 658/4 660/4 659/4 657/4
f 657/4 659/4 679/4
f 660/4 658/4 680/4
f 660/4 662/4 661/4 659/4
f 659/4 661/4 679/4
f 662/4 660/4 680/4
f 662/4 664/4 663/4 661/4
f 661/4 663/4 679/4
f 664/4 662/4 680/4
f 664/4 666/4 665/4 663/4
f 663/4 665/4 679/4
f 666/4 664/4 680/4
f 666/4 668/4 667/4 665/4
f 665/4 667/4 679/4
f 668/4 666/4 680/4
f 668/4 670/4 669/4 667/4
f 667/4 669/4 679/4
f 670/4 668/4 680/4
f 670/4 672/4 671/4 669/4
f 669/4 671/4 679/4
f 672/4 670/4 680/4
f 672/4 674/4 673/4 671/4
f 671/4 673/4 679/4
f 674/4 672/4 680/4
f 674/4 676/4 675/4 673/4
f 673/4 675/4 679/4
f 676/4 674/4 680/4
f 676/4 678/4 677/4 675/4
f 675/4 677/4 679/4
f 678/4 676/4 680/4
f 678/4 632/4 631/4 677/4
f 677/4 631/4 679/4
f 632/4 678/4 680/4
f 750/4 752/4 751/4 749/4
f 749/4 751/4 797/4
f 752/4 750/4 798/4
f 752/4 754/4 753/4 751/4
f 751/4 753/4 797/4
f 754/4 752/4 798/4
f 754/4 756/4 755/4 753/4
f 753/4 755/4 797/4
f 756/4 754/4 798/4
f 756/4 758/4 757/4 755/4
f 755/4 757/4 797/4
f 758/4 756/4 798/4
f 758/4 760/4 759/4 757/4
f 757/4 759/4 797/4
f 760/4 758/4 798/4
f 760/4 762/4 761/4 759/4
f 759/4 761/4 797/4
f 762/4 760/4 798/4
f 762/4 764/4 763/4 761/4
f 761/4 763/4 797/4
f 764/4 762/4 798/4
f 764/4 766/4 765/4 763/4
f 763/4 765/4 797/4
f 766/4 764/4 798/4
f 766/4 768/4 767/4 765/4
f 765/4 767/4 797/4
f 768/4 766/4 798/4
f 768/4 770/4 769/4 767/4
f 767/4 769/4 797/4
f 770/4 768/4 798/4
f 770/4 772/4 771/4 769/4
f 769/4 771/4 797/4
f 772/4 770/4 798/4
f 772/4 774/4 773/4 771/4
f 771/4 773/4 797/4
f 774/4 772/4 798/4
f 774/4 776/4 775/4 773/4
f 773/4 775/4 797/4
f 776/4 774/4 798/4
f 776/4 778/4 777/4 775/4
f 775/4 777/4 797/4
f 778/4 776/4 798/4
f 778/4 780/4 779/4 777/4
f 777/4 779/4 797/4
f 780/4 778/4 798/4
f 780/4 782/4 781/4 779/4
f 779/4 781/4 797/4
f 782/4 780/4 798/4
f 782/4 784/4 783/4 781/4
f 781/4 783/4 797/4
f 784/4 782/4 798/4
f 784/4 786/4 785/4 783/4
f 783/4 785/4 797/4
f 786/4 784/4 798/4
f 786/4 788/4 787/4 785/4
f 785/4 787/4 797/4
f 788/4 786/4 798/4
f 788/4 790/4 789/4 787/4
f 787/4 789/4 797/4
f 790/4 788/4 798/4
f 790/4 792/4 791/4 789/4
f 789/4 791/4 797/4
f 792/4 790/4 798/4
f 792/4 794/4 793/4 791/4
f 791/4 793/4 797/4
f 794/4 792/4 798/4
f 794/4 796/4 795/4 793/4
f 793/4 795/4 797/4
f 796/4 794/4 798/4
f 796/4 750/4 749/4 795/4
f 795/4 749/4 797/4
f 750/4 796/4 798/4
f 868/4 870/4 869/4 867/4
f 867/4 869/4 915/4
f 870/4 868/4 916/4
f 870/4 872/4 871/4 869/4
f 869/4 871/4 915/4
f 872/4 870/4 916/4
f 872/4 874/4 873/4 871/4
f 871/4 873/4 915/4
f 874/4 872/4 916/4
f 874/4 876/4 875/4 873/4
f 873/4 875/4 915/4
f 876/4 874/4 916/4
f 876/4 878/4 877/4 875/4
f 875/4 877/4 915/4
f 878/4 876/4 916/4
f 878/4 880/4 879/4 877/4
f 877/4 879/4 915/4
f 880/4 878/4 916/4
f 880/4 882/4 881/4 879/4
f 879/4 881/4 915/4
f 882/4 880/4 916/4
f 882/4 884/4 883/4 881/4
f 881/4 883/4 915/4
f 884/4 882/4 916/4
f 884/4 886/4 885/4 883/4
f 883/4 885/4 915/4
f 886/4 884/4 916/4
f 886/4 888/4 887/4 885/4
f 885/4 887/4 915/4
f 888/4 886/4 916/4
f 888/4 890/4 889/4 887/4
f 887/4 889/4 915/4
f 890/4 888/4 916/4
f 890/4 892/4 891/4 889/4
f 889/4 891/4 915/4
f 892/4 890/4 916/4
f 892/4 894/4 893/4 891/4
f 891/4 893/4 915/4
f 894/4 892/4 916/4
f 894/4 896/4 895/4 893/4
f 893/4 895/4 915/4
f 896/4 894/4 916/4
f 896/4 898/4 897/4 895/4
f 895/4 897/4 915/4
f 898/4 896/4 916/4
f 898/4 900/4 899/4 897/4
f 897/4 899/4 915/4
f 900/4 898/4 916/4
f 900/4 902/4 901/4 899/4
f 899/4 901/4 915/4
f 902/4 900/4 916/4
f 902/4 904/4 903/4 901/4
f 901/4 903/4 915/4
f 904/4 902/4 916/4
f 904/4 906/4 905/4 903/4
f 903/4 905/4 915/4
f 906/4 904/4 916/4
f 906/4 908/4 907/4 905/4
f 905/4 907/4 915/4
f 908/4 906/4 916/4
f 908/4 910/4 909/4 907/4
f 907/4 909/4 915/4
f 910/4 908/4 916/4
f 910/4 912/4 911/4 909/4
f 909/4 911/4 915/4
f 912/4 910/4 916/4
f 912/4 914/4 913/4 911/4
f 911/4 913/4 915/4
f 914/4 912/4 916/4
f 914/4 868/4 867/4 913/4
f 913/4 867/4 915/4
f 868/4 914/4 916/4
f 986/4 988/4 987/4 985/4
f 985/4 987/4 1033/4
f 988/4 986/4 1034/4
f 988/4 990/4 989/4 987/4
f 987/4 989/4 1033/4
f 990/4 988/4 1034/4
f 990/4 992/4 991/4 989/4
f 989/4 991/4 1033/4
f 992/4 990/4 1034/4
f 992/4 994/4 993/4 991/4
f 991/4 993/4 1033/4
f 994/4 992/4 1034/4
f 994/4 996/4 995/4 993/4
f 993/4 995/4 1033/4
f 996/4 994/4 1034/4
f 996/4 998/4 997/4 995/4
f 995/4 997/4 1033/4
f 998/4 996/4 1034/4
f 998/4 1000/4 999/4 997/4
f 997/4 999/4 1033/4
f 1000/4 998/4 1034/4
f 1000/4 1002/4 1001/4 999/4
f 999/4 1001/4 1033/4
f 1002/4 1000/4 1034/4
f 1002/4 1004/4 1003/4 1001/4
f 1001/4 1003/4 1033/4
f 1004/4 1002/4 1034/4
f 1004/4 1006/4 1005/4 1003/4
f 1003/4 1005/4 1033/4
f 1006/4 1004/4 1034/4
f 1006/4 1008/4 1007/4 1005/4
f 1005/4 1007/4 1033/4
f 1008/4 1006/4 1034/4
f 1008/4 1010/4 1009/4 1007/4
f 1007/4 1009/4 1033/4
f 1010/4 1008/4 1034/4
f 1010/4 1012/4 1011/4 1009/4
f 1009/4 1011/4 1033/4
f 1012/4 1010/4 1034/4
f 1012/4 1014/4 1013/4 1011/4
f 1011/4 1013/4 1033/4
f 1014/4 1012/4 1034/4
f 1014/4 1016/4 1015/4 1013/4
f 1013/4 1015/4 1033/4
f 1016/4 1014/4 1034/4
f 1016/4 1018/4 1017/4 1015/4
f 1015/4 1017/4 1033/4
f 1018/4 1016/4 1034/4
f 1018/4 1020/4 1019/4 1017/4
f 1017/4 1019/4 1033/4
f 1020/4 1018/4 1034/4
f 1020/4 1022/4 1021/4 1019/4
f 1019/4 1021/4 1033/4
f 1022/4 1020/4 1034/4
f 1022/4 1024/4 1023/4 1021/4
f 1021/4 1023/4 1033/4
f 1024/4 1022/4 1034/4
f 1024/4 1026/4 1025/4 1023/4
f 1023/4 1025/4 1033/4
f 1026/4 1024/4 1034/4
f 1026/4 1028/4 1027/4 1025/4
f 1025/4 1027/4 1033/4
f 1028/4 1026/4 1034/4
f 1028/4 1030/4 1029/4 1027/4
f 1027/4 1029/4 1033/4
f 1030/4 1028/4 1034/4
f 1030/4 1032/4 1031/4 1029/4
f 1029/4 1031/4 1033/4
f 1032/4 1030/4 1034/4
f 1032/4 986/4 985/4 1031/4
f 1031/4 985/4 1033/4
f 986/4 1032/4 1034/4
f 1104/4 1106/4 1105/4 1103/4
f 1103/4 1105/4 1151/4
f 1106/4 1104/4 1152/4
f 1106/4 1108/4 1107/4 1105/4
f 1105/4 1107/4 1151/4
f 1108/4 1106/4 1152/4
f 1108/4 1110/4 1109/4 1107/4
f 1107/4 1109/4 1151/4
f 1110/4 1108/4 1152/4
f 1110/4 1112/4 1111/4 1109/4
f 1109/4 1111/4 1151/4
f 1112/4 1110/4 1152/4
f 1112/4 1114/4 1113/4 1111/4
f 1111/4 1113/4 1151/4
f 1114/4 1112/4 1152/4
f 1114/4 1116/4 1115/4 1113/4
f 1113/4 1115/4 1151/4
f 1116/4 1114/4 1152/4
f 1116/4 1118/4 1117/4 1115/4
f 1115/4 1117/4 1151/4
f 1118/4 1116/4 1152/4
f 1118/4 1120/4 1119/4 1117/4
f 1117/4 1119/4 1151/4
f 1120/4 1118/4 1152/4
f 1120/4 1122/4 1121/4 1119/4
f 1119/4 1121/4 1151/4
f 1122/4 1120/4 1152/4
f 1122/4 1124/4 1123/4 1121/4
f 1121/4 1123/4 1151/4
f 1124/4 1122/4 1152/4
f 1124/4 1126/4 1125/4 1123/4
f 1123/4 1125/4 1151/4
f 1126/4 1124/4 1152/4
f 1126/4 1128/4 1127/4 1125/4
f 1125/4 1127/4 1151/4
f 1128/4 1126/4 1152/4
f 1128/4 1130/4 1129/4 1127/4
f 1127/4 1129/4 1151/4
f 1130/4 1128/4 1152/4
f 1130/4 1132/4 1131/4 1129/4
f 1129/4 1131/4 1151/4
f 1132/4 1130/4 1152/4
f 1132/4 1134/4 1133/4 1131/4
f 1131/4 1133/4 1151/4
f 1134/4 1132/4 1152/4
f 1134/4 1136/4 1135/4 1133/4
f 1133/4 1135/4 1151/4
f 1136/4 1134/4 1152/4
f 1136/4 1138/4 1137/4 1135/4
f 1135/4 1137/4 1151/4
f 1138/4 1136/4 1152/4
f 1138/4 1140/4 1139/4 1137/4
f 1137/4 1139/4 1151/4
f 1140/4 1138/4 1152/4
f 1140/4 1142/4 1141/4 1139/4
f 1139/4 1141/4 1151/4
f 1142/4 1140/4 1152/4
f 1142/4 1144/4 1143/4 1141/4
f 1141/4 1143/4 1151/4
f 1144/4 1142/4 1152/4
f 1144/4 1146/4 1145/4 1143/4
f 1143/4 1145/4 1151/4
f 1146/4 1144/4 1152/4
f 1146/4 1148/4 1147/4 1145/4
f 1145/4 1147/4 1151/4
f 1148/4 1146/4 1152/4
f 1148/4 1150/4 1149/4 1147/4
f 1147/4 1149/4 1151/4
f 1150/4 1148/4 1152/4
f 1150/4 1104/4 1103/4 1149/4
f 1149/4 1103/4 1151/4
f 1104/4 1150/4 1152/4
f 1222/4 1224/4 1223/4 1221/4
f 1221/4 1223/4 1269/4
f 1224/4 1222/4 1270/4
f 1224/4 1226/4 1225/4 1223/4
f 1223/4 1225/4 1269/4
f 1226/4 1224/4 1270/4
f 1226/4 1228/4 1227/4 1225/4
f 1225/4 1227/4 1269/4
f 1228/4 1226/4 1270/4
f 1228/4 1230/4 1229/4 1227/4
f 1227/4 1229/4 1269/4
f 1230/4 1228/4 1270/4
f 1230/4 1232/4 1231/4 1229/4
f 1229/4 1231/4 1269/4
f 1232/4 1230/4 1270/4
f 1232/4 1234/4 1233/4 1231/4
f 1231/4 1233/4 1269/4
f 1234/4 1232/4 1270/4
f 1234/4 1236/4 1235/4 1233/4
f 1233/4 1235/4 1269/4
f 1236/4 1234/4 1270/4
f 1236/4 1238/4 1237/4 1235/4
f 1235/4 1237/4 1269/4
f 1238/4 1236/4 1270/4
f 1238/4 1240/4 1239/4 1237/4
f 1237/4 1239/4 1269/4
f 1240/4 1238/4 1270/4
f 1240/4 1242/4 1241/4 1239/4
f 1239/4 1241/4 1269/4
f 1242/4 1240/4 1270/4
f 1242/4 1244/4 1243/4 1241/4
f 1241/4 1243/4 1269/4
f 1244/4 1242/4 1270/4
f 1244/4 1246/4 1245/4 1243/4
f 1243/4 1245/4 1269/4
f 1246/4 1244/4 1270/4
f 1246/4 1248/4 1247/4 1245/4
f 1245/4 1247/4 1269/4
f 1248/4 1246/4 1270/4
f 1248/4 1250/4 1249/4 1247/4
f 1247/4 1249/4 1269/4
f 1250/4 1248/4 1270/4
f 1250/4 1252/4 1251/4 1249/4
f 1249/4 1251/4 1269/4
f 1252/4 1250/4 1270/4
f 1252/4 1254/4 1253/4 1251/4
f 1251/4 1253/4 1269/4
f 1254/4 1252/4 1270/4
f 1254/4 1256/4 1255/4 1253/4
f 1253/4 1255/4 1269/4
f 1256/4 1254/4 1270/4
f 1256/4 1258/4 1257/4 1255/4
f 1255/4 1257/4 1269/4
f 1258/4 1256/4 1270/4
f 1258/4 1260/4 1259/4 1257/4
f 1257/4 1259/4 1269/4
f 1260/4 1258/4 1270/4
f 1260/4 1262/4 1261/4 1259/4
f 1259/4 1261/4 1269/4
f 1262/4 1260/4 1270/4
f 1262/4 1264/4 1263/4 1261/4
f 1261/4 1263/4 1269/4
f 1264/4 1262/4 1270/4
f 1264/4 1266/4 1265/4 1263/4
f 1263/4 1265/4 1269/4
f 1266/4 1264/4 1270/4
f 1266/4 1268/4 1267/4 1265/4
f 1265/4 1267/4 1269/4
f 1268/4 1266/4 1270/4
f 1268/4 1222/4 1221/4 1267/4
f 1267/4 1221/4 1269/4
f 1222/4 1268/4 1270/4
f 1322/4 1321/4 1341/4
f 1331/4 1332/4 1342/4
f 1322/4 1332/4 1331/4 1321/4
f 1323/4 1322/4 1341/4
f 1332/4 1333/4 1342/4
f 1323/4 1333/4 1332/4 1322/4
f 1324/4 1323/4 1341/4
f 1333/4 1334/4 1342/4
f 1324/4 1334/4 1333/4 1323/4
f 1325/4 1324/4 1341/4
f 1334/4 1335/4 1342/4
f 1325/4 1335/4 1334/4 1324/4
f 1326/4 1325/4 1341/4
f 1335/4 1336/4 1342/4
f 1326/4 1336/4 1335/4 1325/4
f 1327/4 1326/4 1341/4
f 1336/4 1337/4 1342/4
f 1327/4 1337/4 1336/4 1326/4
f 1328/4 1327/4 1341/4
f 1337/4 1338/4 1342/4
f 1328/4 1338/4 1337/4 1327/4
f 1329/4 1328/4 1341/4
f 1338/4 1339/4 1342/4
f 1329/4 1339/4 1338/4 1328/4
f 1330/4 1329/4 1341/4
f 1339/4 1340/4 1342/4
f 1330/4 1340/4 1339/4 1329/4
f 1321/4 1330/4 1341/4
f 1340/4 1331/4 1342/4
f 1321/4 1331/4 1340/4 1330/4
usemtl coral
f 181/2 182/2 188/2 187/2
f 182/2 183/2 189/2 188/2
f 183/2 184/2 190/2 189/2
f 184/2 185/2 191/2 190/2
f 185/2 186/2 192/2 191/2
f 186/2 181/2 187/2 192/2
f 187/2 188/2 194/2 193/2
f 188/2 189/2 195/2 194/2
f 189/2 190/2 196/2 195/2
f 190/2 191/2 197/2 196/2
f 191/2 192/2 198/2 197/2
f 192/2 187/2 193/2 198/2
f 193/2 194/2 200/2 199/2
f 194/2 195/2 201/2 200/2
f 195/2 196/2 202/2 201/2
f 196/2 197/2 203/2 202/2
f 197/2 198/2 204/2 203/2
f 198/2 193/2 199/2 204/2
f 199/2 200/2 206/2 205/2
f 200/2 201/2 207/2 206/2
f 201/2 202/2 208/2 207/2
f 202/2 203/2 209/2 208/2
f 203/2 204/2 210/2 209/2
f 204/2 199/2 205/2 210/2
f 205/2 206/2 212/2 211/2
f 206/2 207/2 213/2 212/2
f 207/2 208/2 214/2 213/2
f 208/2 209/2 215/2 214/2
f 209/2 210/2 216/2 215/2
f 210/2 205/2 211/2 216/2
f 211/2 212/2 218/2 217/2
f 212/2 213/2 219/2 218/2
f 213/2 214/2 220/2 219/2
f 214/2 215/2 221/2 220/2
f 215/2 216/2 222/2 221/2
f 216/2 211/2 217/2 222/2
f 217/2 218/2 224/2 223/2
f 218/2 219/2 225/2 224/2
f 219/2 220/2 226/2 225/2
f 220/2 221/2 227/2 226/2
f 221/2 222/2 228/2 227/2
f 222/2 217/2 223/2 228/2
f 223/2 224/2 230/2 229/2
f 224/2 225/2 231/2 230/2
f 225/2 226/2 232/2 231/2
f 226/2 227/2 233/2 232/2
f 227/2 228/2 234/2 233/2
f 228/2 223/2 229/2 234/2
f 229/2 230/2 236/2 235/2
f 230/2 231/2 237/2 236/2
f 231/2 232/2 238/2 237/2
f 232/2 233/2 239/2 238/2
f 233/2 234/2 240/2 239/2
f 234/2 229/2 235/2 240/2
f 235/2 236/2 242/2 241/2
f 236/2 237/2 243/2 242/2
f 237/2 238/2 244/2 243/2
f 238/2 239/2 245/2 244/2
f 239/2 240/2 246/2 245/2
f 240/2 235/2 241/2 246/2
f 241/2 242/2 248/2 247/2
f 242/2 243/2 249/2 248/2
f 243/2 244/2 250/2 249/2
f 244/2 245/2 251/2 250/2
f 245/2 246/2 252/2 251/2
f 246/2 241/2 247/2 252/2
f 247/2 248/2 254/2 253/2
f 248/2 249/2 255/2 254/2
f 249/2 250/2 256/2 255/2
f 250/2 251/2 257/2 256/2
f 251/2 252/2 258/2 257/2
f 252/2 247/2 253/2 258/2
f 253/2 254/2 260/2 259/2
f 254/2 255/2 261/2 260/2
f 255/2 256/2 262/2 261/2
f 256/2 257/2 263/2 262/2
f 257/2 258/2 264/2 263/2
f 258/2 253/2 259/2 264/2
f 259/2 260/2 266/2 265/2
f 260/2 261/2 267/2 266/2
f 261/2 262/2 268/2 267/2
f 262/2 263/2 269/2 268/2
f 263/2 264/2 270/2 269/2
f 264/2 259/2 265/2 270/2
f 265/2 266/2 272/2 271/2
f 266/2 267/2 273/2 272/2
f 267/2 268/2 274/2 273/2
f 268/2 269/2 275/2 274/2
f 269/2 270/2 276/2 275/2
f 270/2 265/2 271/2 276/2
f 271/2 272/2 278/2 277/2
f 272/2 273/2 279/2 278/2
f 273/2 274/2 280/2 279/2
f 274/2 275/2 281/2 280/2
f 275/2 276/2 282/2 281/2
f 276/2 271/2 277/2 282/2
f 277/2 278/2 284/2 283/2
f 278/2 279/2 285/2 284/2
f 279/2 280/2 286/2 285/2
f 280/2 281/2 287/2 286/2
f 281/2 282/2 288/2 287/2
f 282/2 277/2 283/2 288/2
f 283/2 284/2 290/2 289/2
f 284/2 285/2 291/2 290/2
f 285/2 286/2 292/2 291/2
f 286/2 287/2 293/2 292/2
f 287/2 288/2 294/2 293/2
f 288/2 283/2 289/2 294/2
f 289/2 290/2 296/2 295/2
f 290/2 291/2 297/2 296/2
f 291/2 292/2 298/2 297/2
f 292/2 293/2 299/2 298/2
f 293/2 294/2 300/2 299/2
f 294/2 289/2 295/2 300/2
f 295/2 296/2 302/2 301/2
f 296/2 297/2 303/2 302/2
f 297/2 298/2 304/2 303/2
f 298/2 299/2 305/2 304/2
f 299/2 300/2 306/2 305/2
f 300/2 295/2 301/2 306/2
f 301/2 302/2 308/2 307/2
f 302/2 303/2 309/2 308/2
f 303/2 304/2 310/2 309/2
f 304/2 305/2 311/2 310/2
f 305/2 306/2 312/2 311/2
f 306/2 301/2 307/2 312/2
f 307/2 308/2 314/2 313/2
f 308/2 309/2 315/2 314/2
f 309/2 310/2 316/2 315/2
f 310/2 311/2 317/2 316/2
f 311/2 312/2 318/2 317/2
f 312/2 307/2 313/2 318/2
f 313/2 314/2 320/2 319/2
f 314/2 315/2 321/2 320/2
f 315/2 316/2 322/2 321/2
f 316/2 317/2 323/2 322/2
f 317/2 318/2 324/2 323/2
f 318/2 313/2 319/2 324/2
f 319/2 320/2 326/2 325/2
f 320/2 321/2 327/2 326/2
f 321/2 322/2 328/2 327/2
f 322/2 323/2 329/2 328/2
f 323/2 324/2 330/2 329/2
f 324/2 319/2 325/2 330/2
f 325/2 326/2 332/2 331/2
f 326/2 327/2 333/2 332/2
f 327/2 328/2 334/2 333/2
f 328/2 329/2 335/2 334/2
f 329/2 330/2 336/2 335/2
f 330/2 325/2 331/2 336/2
f 331/2 332/2 338/2 337/2
f 332/2 333/2 339/2 338/2
f 333/2 334/2 340/2 339/2
f 334/2 335/2 341/2 340/2
f 335/2 336/2 342/2 341/2
f 336/2 331/2 337/2 342/2
f 337/2 338/2 344/2 343/2
f 338/2 339/2 345/2 344/2
f 339/2 340/2 346/2 345/2
f 340/2 341/2 347/2 346/2
f 341/2 342/2 348/2 347/2
f 342/2 337/2 343/2 348/2
f 343/2 344/2 350/2 349/2
f 344/2 345/2 351/2 350/2
f 345/2 346/2 352/2 351/2
f 346/2 347/2 353/2 352/2
f 347/2 348/2 354/2 353/2
f 348/2 343/2 349/2 354/2
f 349/2 350/2 356/2 355/2
f 350/2 351/2 357/2 356/2
f 351/2 352/2 358/2 357/2
f 352/2 353/2 359/2 358/2
f 353/2 354/2 360/2 359/2
f 354/2 349/2 355/2 360/2
f 355/2 356/2 362/2 361/2
f 356/2 357/2 363/2 362/2
f 357/2 358/2 364/2 363/2
f 358/2 359/2 365/2 364/2
f 359/2 360/2 366/2 365/2
f 360/2 355/2 361/2 366/2
f 361/2 362/2 368/2 367/2
f 362/2 363/2 369/2 368/2
f 363/2 364/2 370/2 369/2
f 364/2 365/2 371/2 370/2
f 365/2 366/2 372/2 371/2
f 366/2 361/2 367/2 372/2
f 367/2 368/2 374/2 373/2
f 368/2 369/2 375/2 374/2
f 369/2 370/2 376/2 375/2
f 370/2 371/2 377/2 376/2
f 371/2 372/2 378/2 377/2
f 372/2 367/2 373/2 378/2
f 373/2 374/2 380/2 379/2
f 374/2 375/2 381/2 380/2
f 375/2 376/2 382/2 381/2
f 376/2 377/2 383/2 382/2
f 377/2 378/2 384/2 383/2
f 378/2 373/2 379/2 384/2
f 379/2 380/2 386/2 385/2
f 380/2 381/2 387/2 386/2
f 381/2 382/2 388/2 387/2
f 382/2 383/2 389/2 388/2
f 383/2 384/2 390/2 389/2
f 384/2 379/2 385/2 390/2
f 385/2 386/2 392/2 391/2
f 386/2 387/2 393/2 392/2
f 387/2 388/2 394/2 393/2
f 388/2 389/2 395/2 394/2
f 389/2 390/2 396/2 395/2
f 390/2 385/2 391/2 396/2
f 391/2 392/2 398/2 397/2
f 392/2 393/2 399/2 398/2
f 393/2 394/2 400/2 399/2
f 394/2 395/2 401/2 400/2
f 395/2 396/2 402/2 401/2
f 396/2 391/2 397/2 402/2
f 397/2 398/2 404/2 403/2
f 398/2 399/2 405/2 404/2
f 399/2 400/2 406/2 405/2
f 400/2 401/2 407/2 406/2
f 401/2 402/2 408/2 407/2
f 402/2 397/2 403/2 408/2
f 403/2 404/2 410/2 409/2
f 404/2 405/2 411/2 410/2
f 405/2 406/2 412/2 411/2
f 406/2 407/2 413/2 412/2
f 407/2 408/2 414/2 413/2
f 408/2 403/2 409/2 414/2
f 409/2 410/2 416/2 415/2
f 410/2 411/2 417/2 416/2
f 411/2 412/2 418/2 417/2
f 412/2 413/2 419/2 418/2
f 413/2 414/2 420/2 419/2
f 414/2 409/2 415/2 420/2
f 415/2 416/2 422/2 421/2
f 416/2 417/2 423/2 422/2
f 417/2 418/2 424/2 423/2
f 418/2 419/2 425/2 424/2
f 419/2 420/2 426/2 425/2
f 420/2 415/2 421/2 426/2
f 421/2 422/2 428/2 427/2
f 422/2 423/2 429/2 428/2
f 423/2 424/2 430/2 429/2
f 424/2 425/2 431/2 430/2
f 425/2 426/2 432/2 431/2
f 426/2 421/2 427/2 432/2
f 427/2 428/2 434/2 433/2
f 428/2 429/2 435/2 434/2
f 429/2 430/2 436/2 435/2
f 430/2 431/2 437/2 436/2
f 431/2 432/2 438/2 437/2
f 432/2 427/2 433/2 438/2
f 433/2 434/2 440/2 439/2
f 434/2 435/2 441/2 440/2
f 435/2 436/2 442/2 441/2
f 436/2 437/2 443/2 442/2
f 437/2 438/2 444/2 443/2
f 438/2 433/2 439/2 444/2
f 439/2 440/2 182/2 181/2
f 440/2 441/2 183/2 182/2
f 441/2 442/2 184/2 183/2
f 442/2 443/2 185/2 184/2
f 443/2 444/2 186/2 185/2
f 444/2 439/2 181/2 186/2
f 541/2 542/2 518/2 517/2
f 542/2 543/2 519/2 518/2
f 543/2 544/2 520/2 519/2
f 544/2 545/2 521/2 520/2
f 545/2 546/2 522/2 521/2
f 546/2 547/2 523/2 522/2
f 547/2 548/2 524/2 523/2
f 548/2 549/2 525/2 524/2
f 549/2 550/2 526/2 525/2
f 550/2 551/2 527/2 526/2
f 551/2 552/2 528/2 527/2
f 552/2 553/2 529/2 528/2
f 553/2 554/2 530/2 529/2
f 554/2 555/2 531/2 530/2
f 555/2 556/2 532/2 531/2
f 556/2 557/2 533/2 532/2
f 557/2 558/2 534/2 533/2
f 558/2 559/2 535/2 534/2
f 559/2 560/2 536/2 535/2
f 560/2 561/2 537/2 536/2
f 561/2 562/2 538/2 537/2
f 562/2 563/2 539/2 538/2
f 563/2 564/2 540/2 539/2
f 564/2 541/2 517/2 540/2
f 621/2 622/2 614/2 613/2
f 613/2 614/2 629/2
f 622/2 621/2 630/2
f 622/2 623/2 615/2 614/2
f 614/2 615/2 629/2
f 623/2 622/2 630/2
f 623/2 624/2 616/2 615/2
f 615/2 616/2 629/2
f 624/2 623/2 630/2
f 624/2 625/2 617/2 616/2
f 616/2 617/2 629/2
f 625/2 624/2 630/2
f 625/2 626/2 618/2 617/2
f 617/2 618/2 629/2
f 626/2 625/2 630/2
f 626/2 627/2 619/2 618/2
f 618/2 619/2 629/2
f 627/2 626/2 630/2
f 627/2 628/2 620/2 619/2
f 619/2 620/2 629/2
f 628/2 627/2 630/2
f 628/2 621/2 613/2 620/2
f 620/2 613/2 629/2
f 621/2 628/2 630/2
f 739/2 740/2 732/2 731/2
f 731/2 732/2 747/2
f 740/2 739/2 748/2
f 740/2 741/2 733/2 732/2
f 732/2 733/2 747/2
f 741/2 740/2 748/2
f 741/2 742/2 734/2 733/2
f 733/2 734/2 747/2
f 742/2 741/2 748/2
f 742/2 743/2 735/2 734/2
f 734/2 735/2 747/2
f 743/2 742/2 748/2
f 743/2 744/2 736/2 735/2
f 735/2 736/2 747/2
f 744/2 743/2 748/2
f 744/2 745/2 737/2 736/2
f 736/2 737/2 747/2
f 745/2 744/2 748/2
f 745/2 746/2 738/2 737/2
f 737/2 738/2 747/2
f 746/2 745/2 748/2
f 746/2 739/2 731/2 738/2
f 738/2 731/2 747/2
f 739/2 746/2 748/2
f 857/2 858/2 850/2 849/2
f 849/2 850/2 865/2
f 858/2 857/2 866/2
f 858/2 859/2 851/2 850/2
f 850/2 851/2 865/2
f 859/2 858/2 866/2
f 859/2 860/2 852/2 851/2
f 851/2 852/2 865/2
f 860/2 859/2 866/2
f 860/2 861/2 853/2 852/2
f 852/2 853/2 865/2
f 861/2 860/2 866/2
f 861/2 862/2 854/2 853/2
f 853/2 854/2 865/2
f 862/2 861/2 866/2
f 862/2 863/2 855/2 854/2
f 854/2 855/2 865/2
f 863/2 862/2 866/2
f 863/2 864/2 856/2 855/2
f 855/2 856/2 865/2
f 864/2 863/2 866/2
f 864/2 857/2 849/2 856/2
f 856/2 849/2 865/2
f 857/2 864/2 866/2
f 975/2 976/2 968/2 967/2
f 967/2 968/2 983/2
f 976/2 975/2 984/2
f 976/2 977/2 969/2 968/2
f 968/2 969/2 983/2
f 977/2 976/2 984/2
f 977/2 978/2 970/2 969/2
f 969/2 970/2 983/2
f 978/2 977/2 984/2
f 978/2 979/2 971/2 970/2
f 970/2 971/2 983/2
f 979/2 978/2 984/2
f 979/2 980/2 972/2 971/2
f 971/2 972/2 983/2
f 980/2 979/2 984/2
f 980/2 981/2 973/2 972/2
f 972/2 973/2 983/2
f 981/2 980/2 984/2
f 981/2 982/2 974/2 973/2
f 973/2 974/2 983/2
f 982/2 981/2 984/2
f 982/2 975/2 967/2 974/2
f 974/2 967/2 983/2
f 975/2 982/2 984/2
f 1093/2 1094/2 1086/2 1085/2
f 1085/2 1086/2 1101/2
f 1094/2 1093/2 1102/2
f 1094/2 1095/2 1087/2 1086/2
f 1086/2 1087/2 1101/2
f 1095/2 1094/2 1102/2
f 1095/2 1096/2 1088/2 1087/2
f 1087/2 1088/2 1101/2
f 1096/2 1095/2 1102/2
f 1096/2 1097/2 1089/2 1088/2
f 1088/2 1089/2 1101/2
f 1097/2 1096/2 1102/2
f 1097/2 1098/2 1090/2 1089/2
f 1089/2 1090/2 1101/2
f 1098/2 1097/2 1102/2
f 1098/2 1099/2 1091/2 1090/2
f 1090/2 1091/2 1101/2
f 1099/2 1098/2 1102/2
f 1099/2 1100/2 1092/2 1091/2
f 1091/2 1092/2 1101/2
f 1100/2 1099/2 1102/2
f 1100/2 1093/2 1085/2 1092/2
f 1092/2 1085/2 1101/2
f 1093/2 1100/2 1102/2
f 1211/2 1212/2 1204/2 1203/2
f 1203/2 1204/2 1219/2
f 1212/2 1211/2 1220/2
f 1212/2 1213/2 1205/2 1204/2
f 1204/2 1205/2 1219/2
f 1213/2 1212/2 1220/2
f 1213/2 1214/2 1206/2 1205/2
f 1205/2 1206/2 1219/2
f 1214/2 1213/2 1220/2
f 1214/2 1215/2 1207/2 1206/2
f 1206/2 1207/2 1219/2
f 1215/2 1214/2 1220/2
f 1215/2 1216/2 1208/2 1207/2
f 1207/2 1208/2 1219/2
f 1216/2 1215/2 1220/2
f 1216/2 1217/2 1209/2 1208/2
f 1208/2 1209/2 1219/2
f 1217/2 1216/2 1220/2
f 1217/2 1218/2 1210/2 1209/2
f 1209/2 1210/2 1219/2
f 1218/2 1217/2 1220/2
f 1218/2 1211/2 1203/2 1210/2
f 1210/2 1203/2 1219/2
f 1211/2 1218/2 1220/2
usemtl wood
f 469/5 470/5 446/5 445/5
f 470/5 471/5 447/5 446/5
f 471/5 472/5 448/5 447/5
f 472/5 473/5 449/5 448/5
f 473/5 474/5 450/5 449/5
f 474/5 475/5 451/5 450/5
f 475/5 476/5 452/5 451/5
f 476/5 477/5 453/5 452/5
f 477/5 478/5 454/5 453/5
f 478/5 479/5 455/5 454/5
f 479/5 480/5 456/5 455/5
f 480/5 481/5 457/5 456/5
f 481/5 482/5 458/5 457/5
f 482/5 483/5 459/5 458/5
f 483/5 484/5 460/5 459/5
f 484/5 485/5 461/5 460/5
f 485/5 486/5 462/5 461/5
f 486/5 487/5 463/5 462/5
f 487/5 488/5 464/5 463/5
f 488/5 489/5 465/5 464/5
f 489/5 490/5 466/5 465/5
f 490/5 491/5 467/5 466/5
f 491/5 492/5 468/5 467/5
f 492/5 469/5 445/5 468/5
usemtl cream
f 517/1 518/1 494/1 493/1
f 518/1 519/1 495/1 494/1
f 519/1 520/1 496/1 495/1
f 520/1 521/1 497/1 496/1
f 521/1 522/1 498/1 497/1
f 522/1 523/1 499/1 498/1
f 523/1 524/1 500/1 499/1
f 524/1 525/1 501/1 500/1
f 525/1 526/1 502/1 501/1
f 526/1 527/1 503/1 502/1
f 527/1 528/1 504/1 503/1
f 528/1 529/1 505/1 504/1
f 529/1 530/1 506/1 505/1
f 530/1 531/1 507/1 506/1
f 531/1 532/1 508/1 507/1
f 532/1 533/1 509/1 508/1
f 533/1 534/1 510/1 509/1
f 534/1 535/1 511/1 510/1
f 535/1 536/1 512/1 511/1
f 536/1 537/1 513/1 512/1
f 537/1 538/1 514/1 513/1
f 538/1 539/1 515/1 514/1
f 539/1 540/1 516/1 515/1
f 540/1 517/1 493/1 516/1
f 589/1 590/1 566/1 565/1
f 590/1 591/1 567/1 566/1
f 591/1 592/1 568/1 567/1
f 592/1 593/1 569/1 568/1
f 593/1 594/1 570/1 569/1
f 594/1 595/1 571/1 570/1
f 595/1 596/1 572/1 571/1
f 596/1 597/1 573/1 572/1
f 597/1 598/1 574/1 573/1
f 598/1 599/1 575/1 574/1
f 599/1 600/1 576/1 575/1
f 600/1 601/1 577/1 576/1
f 601/1 602/1 578/1 577/1
f 602/1 603/1 579/1 578/1
f 603/1 604/1 580/1 579/1
f 604/1 605/1 581/1 580/1
f 605/1 606/1 582/1 581/1
f 606/1 607/1 583/1 582/1
f 607/1 608/1 584/1 583/1
f 608/1 609/1 585/1 584/1
f 609/1 610/1 586/1 585/1
f 610/1 611/1 587/1 586/1
f 611/1 612/1 588/1 587/1
f 612/1 589/1 565/1 588/1
usemtl mint
f 682/3 684/3 683/3 681/3
f 681/3 683/3 729/3
f 684/3 682/3 730/3
f 684/3 686/3 685/3 683/3
f 683/3 685/3 729/3
f 686/3 684/3 730/3
f 686/3 688/3 687/3 685/3
f 685/3 687/3 729/3
f 688/3 686/3 730/3
f 688/3 690/3 689/3 687/3
f 687/3 689/3 729/3
f 690/3 688/3 730/3
f 690/3 692/3 691/3 689/3
f 689/3 691/3 729/3
f 692/3 690/3 730/3
f 692/3 694/3 693/3 691/3
f 691/3 693/3 729/3
f 694/3 692/3 730/3
f 694/3 696/3 695/3 693/3
f 693/3 695/3 729/3
f 696/3 694/3 730/3
f 696/3 698/3 697/3 695/3
f 695/3 697/3 729/3
f 698/3 696/3 730/3
f 698/3 700/3 699/3 697/3
f 697/3 699/3 729/3
f 700/3 698/3 730/3
f 700/3 702/3 701/3 699/3
f 699/3 701/3 729/3
f 702/3 700/3 730/3
f 702/3 704/3 703/3 701/3
f 701/3 703/3 729/3
f 704/3 702/3 730/3
f 704/3 706/3 705/3 703/3
f 703/3 705/3 729/3
f 706/3 704/3 730/3
f 706/3 708/3 707/3 705/3
f 705/3 707/3 729/3
f 708/3 706/3 730/3
f 708/3 710/3 709/3 707/3
f 707/3 709/3 729/3
f 710/3 708/3 730/3
f 710/3 712/3 711/3 709/3
f 709/3 711/3 729/3
f 712/3 710/3 730/3
f 712/3 714/3 713/3 711/3
f 711/3 713/3 729/3
f 714/3 712/3 730/3
f 714/3 716/3 715/3 713/3
f 713/3 715/3 729/3
f 716/3 714/3 730/3
f 716/3 718/3 717/3 715/3
f 715/3 717/3 729/3
f 718/3 716/3 730/3
f 718/3 720/3 719/3 717/3
f 717/3 719/3 729/3
f 720/3 718/3 730/3
f 720/3 722/3 721/3 719/3
f 719/3 721/3 729/3
f 722/3 720/3 730/3
f 722/3 724/3 723/3 721/3
f 721/3 723/3 729/3
f 724/3 722/3 730/3
f 724/3 726/3 725/3 723/3
f 723/3 725/3 729/3
f 726/3 724/3 730/3
f 726/3 728/3 727/3 725/3
f 725/3 727/3 729/3
f 728/3 726/3 730/3
f 728/3 682/3 681/3 727/3
f 727/3 681/3 729/3
f 682/3 728/3 730/3
f 800/3 802/3 801/3 799/3
f 799/3 801/3 847/3
f 802/3 800/3 848/3
f 802/3 804/3 803/3 801/3
f 801/3 803/3 847/3
f 804/3 802/3 848/3
f 804/3 806/3 805/3 803/3
f 803/3 805/3 847/3
f 806/3 804/3 848/3
f 806/3 808/3 807/3 805/3
f 805/3 807/3 847/3
f 808/3 806/3 848/3
f 808/3 810/3 809/3 807/3
f 807/3 809/3 847/3
f 810/3 808/3 848/3
f 810/3 812/3 811/3 809/3
f 809/3 811/3 847/3
f 812/3 810/3 848/3
f 812/3 814/3 813/3 811/3
f 811/3 813/3 847/3
f 814/3 812/3 848/3
f 814/3 816/3 815/3 813/3
f 813/3 815/3 847/3
f 816/3 814/3 848/3
f 816/3 818/3 817/3 815/3
f 815/3 817/3 847/3
f 818/3 816/3 848/3
f 818/3 820/3 819/3 817/3
f 817/3 819/3 847/3
f 820/3 818/3 848/3
f 820/3 822/3 821/3 819/3
f 819/3 821/3 847/3
f 822/3 820/3 848/3
f 822/3 824/3 823/3 821/3
f 821/3 823/3 847/3
f 824/3 822/3 848/3
f 824/3 826/3 825/3 823/3
f 823/3 825/3 847/3
f 826/3 824/3 848/3
f 826/3 828/3 827/3 825/3
f 825/3 827/3 847/3
f 828/3 826/3 848/3
f 828/3 830/3 829/3 827/3
f 827/3 829/3 847/3
f 830/3 828/3 848/3
f 830/3 832/3 831/3 829/3
f 829/3 831/3 847/3
f 832/3 830/3 848/3
f 832/3 834/3 833/3 831/3
f 831/3 833/3 847/3
f 834/3 832/3 848/3
f 834/3 836/3 835/3 833/3
f 833/3 835/3 847/3
f 836/3 834/3 848/3
f 836/3 838/3 837/3 835/3
f 835/3 837/3 847/3
f 838/3 836/3 848/3
f 838/3 840/3 839/3 837/3
f 837/3 839/3 847/3
f 840/3 838/3 848/3
f 840/3 842/3 841/3 839/3
f 839/3 841/3 847/3
f 842/3 840/3 848/3
f 842/3 844/3 843/3 841/3
f 841/3 843/3 847/3
f 844/3 842/3 848/3
f 844/3 846/3 845/3 843/3
f 843/3 845/3 847/3
f 846/3 844/3 848/3
f 846/3 800/3 799/3 845/3
f 845/3 799/3 847/3
f 800/3 846/3 848/3
f 918/3 920/3 919/3 917/3
f 917/3 919/3 965/3
f 920/3 918/3 966/3
f 920/3 922/3 921/3 919/3
f 919/3 921/3 965/3
f 922/3 920/3 966/3
f 922/3 924/3 923/3 921/3
f 921/3 923/3 965/3
f 924/3 922/3 966/3
f 924/3 926/3 925/3 923/3
f 923/3 925/3 965/3
f 926/3 924/3 966/3
f 926/3 928/3 927/3 925/3
f 925/3 927/3 965/3
f 928/3 926/3 966/3
f 928/3 930/3 929/3 927/3
f 927/3 929/3 965/3
f 930/3 928/3 966/3
f 930/3 932/3 931/3 929/3
f 929/3 931/3 965/3
f 932/3 930/3 966/3
f 932/3 934/3 933/3 931/3
f 931/3 933/3 965/3
f 934/3 932/3 966/3
f 934/3 936/3 935/3 933/3
f 933/3 935/3 965/3
f 936/3 934/3 966/3
f 936/3 938/3 937/3 935/3
f 935/3 937/3 965/3
f 938/3 936/3 966/3
f 938/3 940/3 939/3 937/3
f 937/3 939/3 965/3
f 940/3 938/3 966/3
f 940/3 942/3 941/3 939/3
f 939/3 941/3 965/3
f 942/3 940/3 966/3
f 942/3 944/3 943/3 941/3
f 941/3 943/3 965/3
f 944/3 942/3 966/3
f 944/3 946/3 945/3 943/3
f 943/3 945/3 965/3
f 946/3 944/3 966/3
f 946/3 948/3 947/3 945/3
f 945/3 947/3 965/3
f 948/3 946/3 966/3
f 948/3 950/3 949/3 947/3
f 947/3 949/3 965/3
f 950/3 948/3 966/3
f 950/3 952/3 951/3 949/3
f 949/3 951/3 965/3
f 952/3 950/3 966/3
f 952/3 954/3 953/3 951/3
f 951/3 953/3 965/3
f 954/3 952/3 966/3
f 954/3 956/3 955/3 953/3
f 953/3 955/3 965/3
f 956/3 954/3 966/3
f 956/3 958/3 957/3 955/3
f 955/3 957/3 965/3
f 958/3 956/3 966/3
f 958/3 960/3 959/3 957/3
f 957/3 959/3 965/3
f 960/3 958/3 966/3
f 960/3 962/3 961/3 959/3
f 959/3 961/3 965/3
f 962/3 960/3 966/3
f 962/3 964/3 963/3 961/3
f 961/3 963/3 965/3
f 964/3 962/3 966/3
f 964/3 918/3 917/3 963/3
f 963/3 917/3 965/3
f 918/3 964/3 966/3
f 1036/3 1038/3 1037/3 1035/3
f 1035/3 1037/3 1083/3
f 1038/3 1036/3 1084/3
f 1038/3 1040/3 1039/3 1037/3
f 1037/3 1039/3 1083/3
f 1040/3 1038/3 1084/3
f 1040/3 1042/3 1041/3 1039/3
f 1039/3 1041/3 1083/3
f 1042/3 1040/3 1084/3
f 1042/3 1044/3 1043/3 1041/3
f 1041/3 1043/3 1083/3
f 1044/3 1042/3 1084/3
f 1044/3 1046/3 1045/3 1043/3
f 1043/3 1045/3 1083/3
f 1046/3 1044/3 1084/3
f 1046/3 1048/3 1047/3 1045/3
f 1045/3 1047/3 1083/3
f 1048/3 1046/3 1084/3
f 1048/3 1050/3 1049/3 1047/3
f 1047/3 1049/3 1083/3
f 1050/3 1048/3 1084/3
f 1050/3 1052/3 1051/3 1049/3
f 1049/3 1051/3 1083/3
f 1052/3 1050/3 1084/3
f 1052/3 1054/3 1053/3 1051/3
f 1051/3 1053/3 1083/3
f 1054/3 1052/3 1084/3
f 1054/3 1056/3 1055/3 1053/3
f 1053/3 1055/3 1083/3
f 1056/3 1054/3 1084/3
f 1056/3 1058/3 1057/3 1055/3
f 1055/3 1057/3 1083/3
f 1058/3 1056/3 1084/3
f 1058/3 1060/3 1059/3 1057/3
f 1057/3 1059/3 1083/3
f 1060/3 1058/3 1084/3
f 1060/3 1062/3 1061/3 1059/3
f 1059/3 1061/3 1083/3
f 1062/3 1060/3 1084/3
f 1062/3 1064/3 1063/3 1061/3
f 1061/3 1063/3 1083/3
f 1064/3 1062/3 1084/3
f 1064/3 1066/3 1065/3 1063/3
f 1063/3 1065/3 1083/3
f 1066/3 1064/3 1084/3
f 1066/3 1068/3 1067/3 1065/3
f 1065/3 1067/3 1083/3
f 1068/3 1066/3 1084/3
f 1068/3 1070/3 1069/3 1067/3
f 1067/3 1069/3 1083/3
f 1070/3 1068/3 1084/3
f 1070/3 1072/3 1071/3 1069/3
f 1069/3 1071/3 1083/3
f 1072/3 1070/3 1084/3
f 1072/3 1074/3 1073/3 1071/3
f 1071/3 1073/3 1083/3
f 1074/3 1072/3 1084/3
f 1074/3 1076/3 1075/3 1073/3
f 1073/3 1075/3 1083/3
f 1076/3 1074/3 1084/3
f 1076/3 1078/3 1077/3 1075/3
f 1075/3 1077/3 1083/3
f 1078/3 1076/3 1084/3
f 1078/3 1080/3 1079/3 1077/3
f 1077/3 1079/3 1083/3
f 1080/3 1078/3 1084/3
f 1080/3 1082/3 1081/3 1079/3
f 1079/3 1081/3 1083/3
f 1082/3 1080/3 1084/3
f 1082/3 1036/3 1035/3 1081/3
f 1081/3 1035/3 1083/3
f 1036/3 1082/3 1084/3
f 1154/3 1156/3 1155/3 1153/3
f 1153/3 1155/3 1201/3
f 1156/3 1154/3 1202/3
f 1156/3 1158/3 1157/3 1155/3
f 1155/3 1157/3 1201/3
f 1158/3 1156/3 1202/3
f 1158/3 1160/3 1159/3 1157/3
f 1157/3 1159/3 1201/3
f 1160/3 1158/3 1202/3
f 1160/3 1162/3 1161/3 1159/3
f 1159/3 1161/3 1201/3
f 1162/3 1160/3 1202/3
f 1162/3 1164/3 1163/3 1161/3
f 1161/3 1163/3 1201/3
f 1164/3 1162/3 1202/3
f 1164/3 1166/3 1165/3 1163/3
f 1163/3 1165/3 1201/3
f 1166/3 1164/3 1202/3
f 1166/3 1168/3 1167/3 1165/3
f 1165/3 1167/3 1201/3
f 1168/3 1166/3 1202/3
f 1168/3 1170/3 1169/3 1167/3
f 1167/3 1169/3 1201/3
f 1170/3 1168/3 1202/3
f 1170/3 1172/3 1171/3 1169/3
f 1169/3 1171/3 1201/3
f 1172/3 1170/3 1202/3
f 1172/3 1174/3 1173/3 1171/3
f 1171/3 1173/3 1201/3
f 1174/3 1172/3 1202/3
f 1174/3 1176/3 1175/3 1173/3
f 1173/3 1175/3 1201/3
f 1176/3 1174/3 1202/3
f 1176/3 1178/3 1177/3 1175/3
f 1175/3 1177/3 1201/3
f 1178/3 1176/3 1202/3
f 1178/3 1180/3 1179/3 1177/3
f 1177/3 1179/3 1201/3
f 1180/3 1178/3 1202/3
f 1180/3 1182/3 1181/3 1179/3
f 1179/3 1181/3 1201/3
f 1182/3 1180/3 1202/3
f 1182/3 1184/3 1183/3 1181/3
f 1181/3 1183/3 1201/3
f 1184/3 1182/3 1202/3
f 1184/3 1186/3 1185/3 1183/3
f 1183/3 1185/3 1201/3
f 1186/3 1184/3 1202/3
f 1186/3 1188/3 1187/3 1185/3
f 1185/3 1187/3 1201/3
f 1188/3 1186/3 1202/3
f 1188/3 1190/3 1189/3 1187/3
f 1187/3 1189/3 1201/3
f 1190/3 1188/3 1202/3
f 1190/3 1192/3 1191/3 1189/3
f 1189/3 1191/3 1201/3
f 1192/3 1190/3 1202/3
f 1192/3 1194/3 1193/3 1191/3
f 1191/3 1193/3 1201/3
f 1194/3 1192/3 1202/3
f 1194/3 1196/3 1195/3 1193/3
f 1193/3 1195/3 1201/3
f 1196/3 1194/3 1202/3
f 1196/3 1198/3 1197/3 1195/3
f 1195/3 1197/3 1201/3
f 1198/3 1196/3 1202/3
f 1198/3 1200/3 1199/3 1197/3
f 1197/3 1199/3 1201/3
f 1200/3 1198/3 1202/3
f 1200/3 1154/3 1153/3 1199/3
f 1199/3 1153/3 1201/3
f 1154/3 1200/3 1202/3
f 1272/3 1274/3 1273/3 1271/3
f 1271/3 1273/3 1319/3
f 1274/3 1272/3 1320/3
f 1274/3 1276/3 1275/3 1273/3
f 1273/3 1275/3 1319/3
f 1276/3 1274/3 1320/3
f 1276/3 1278/3 1277/3 1275/3
f 1275/3 1277/3 1319/3
f 1278/3 1276/3 1320/3
f 1278/3 1280/3 1279/3 1277/3
f 1277/3 1279/3 1319/3
f 1280/3 1278/3 1320/3
f 1280/3 1282/3 1281/3 1279/3
f 1279/3 1281/3 1319/3
f 1282/3 1280/3 1320/3
f 1282/3 1284/3 1283/3 1281/3
f 1281/3 1283/3 1319/3
f 1284/3 1282/3 1320/3
f 1284/3 1286/3 1285/3 1283/3
f 1283/3 1285/3 1319/3
f 1286/3 1284/3 1320/3
f 1286/3 1288/3 1287/3 1285/3
f 1285/3 1287/3 1319/3
f 1288/3 1286/3 1320/3
f 1288/3 1290/3 1289/3 1287/3
f 1287/3 1289/3 1319/3
f 1290/3 1288/3 1320/3
f 1290/3 1292/3 1291/3 1289/3
f 1289/3 1291/3 1319/3
f 1292/3 1290/3 1320/3
f 1292/3 1294/3 1293/3 1291/3
f 1291/3 1293/3 1319/3
f 1294/3 1292/3 1320/3
f 1294/3 1296/3 1295/3 1293/3
f 1293/3 1295/3 1319/3
f 1296/3 1294/3 1320/3
f 1296/3 1298/3 1297/3 1295/3
f 1295/3 1297/3 1319/3
f 1298/3 1296/3 1320/3
f 1298/3 1300/3 1299/3 1297/3
f 1297/3 1299/3 1319/3
f 1300/3 1298/3 1320/3
f 1300/3 1302/3 1301/3 1299/3
f 1299/3 1301/3 1319/3
f 1302/3 1300/3 1320/3
f 1302/3 1304/3 1303/3 1301/3
f 1301/3 1303/3 1319/3
f 1304/3 1302/3 1320/3
f 1304/3 1306/3 1305/3 1303/3
f 1303/3 1305/3 1319/3
f 1306/3 1304/3 1320/3
f 1306/3 1308/3 1307/3 1305/3
f 1305/3 1307/3 1319/3
f 1308/3 1306/3 1320/3
f 1308/3 1310/3 1309/3 1307/3
f 1307/3 1309/3 1319/3
f 1310/3 1308/3 1320/3
f 1310/3 1312/3 1311/3 1309/3
f 1309/3 1311/3 1319/3
f 1312/3 1310/3 1320/3
f 1312/3 1314/3 1313/3 1311/3
f 1311/3 1313/3 1319/3
f 1314/3 1312/3 1320/3
f 1314/3 1316/3 1315/3 1313/3
f 1313/3 1315/3 1319/3
f 1316/3 1314/3 1320/3
f 1316/3 1318/3 1317/3 1315/3
f 1315/3 1317/3 1319/3
f 1318/3 1316/3 1320/3
f 1318/3 1272/3 1271/3 1317/3
f 1317/3 1271/3 1319/3
f 1272/3 1318/3 1320/3
