# ParkParkCarouselPlatform — ParkPark original fairground mesh
mtllib ParkParkFairground.mtl
o ParkParkCarouselPlatform
v 0.00000 0.08000 0.00000
v 0.00000 0.08000 0.00000
v 0.00000 0.08000 0.00000
v 0.00000 0.08000 0.00000
v 0.00000 0.08000 0.00000
v 0.00000 0.08000 0.00000
v 0.00000 0.08000 0.00000
v 0.00000 0.08000 0.00000
v 0.00000 0.08000 0.00000
v 0.00000 0.08000 0.00000
v 0.00000 0.08000 0.00000
v 0.00000 0.08000 0.00000
v 0.00000 0.08000 0.00000
v 0.00000 0.08000 0.00000
v 0.00000 0.08000 0.00000
v 0.00000 0.08000 0.00000
v 0.00000 0.08000 0.00000
v -0.00000 0.08000 0.00000
v -0.00000 0.08000 0.00000
v -0.00000 0.08000 0.00000
v -0.00000 0.08000 0.00000
v -0.00000 0.08000 0.00000
v -0.00000 0.08000 0.00000
v -0.00000 0.08000 0.00000
v -0.00000 0.08000 0.00000
v -0.00000 0.08000 0.00000
v -0.00000 0.08000 0.00000
v -0.00000 0.08000 0.00000
v -0.00000 0.08000 0.00000
v -0.00000 0.08000 0.00000
v -0.00000 0.08000 0.00000
v -0.00000 0.08000 0.00000
v -0.00000 0.08000 0.00000
v -0.00000 0.08000 -0.00000
v -0.00000 0.08000 -0.00000
v -0.00000 0.08000 -0.00000
v -0.00000 0.08000 -0.00000
v -0.00000 0.08000 -0.00000
v -0.00000 0.08000 -0.00000
v -0.00000 0.08000 -0.00000
v -0.00000 0.08000 -0.00000
v -0.00000 0.08000 -0.00000
v -0.00000 0.08000 -0.00000
v -0.00000 0.08000 -0.00000
v -0.00000 0.08000 -0.00000
v -0.00000 0.08000 -0.00000
v -0.00000 0.08000 -0.00000
v -0.00000 0.08000 -0.00000
v -0.00000 0.08000 -0.00000
v 0.00000 0.08000 -0.00000
v 0.00000 0.08000 -0.00000
v 0.00000 0.08000 -0.00000
v 0.00000 0.08000 -0.00000
v 0.00000 0.08000 -0.00000
v 0.00000 0.08000 -0.00000
v 0.00000 0.08000 -0.00000
v 0.00000 0.08000 -0.00000
v 0.00000 0.08000 -0.00000
v 0.00000 0.08000 -0.00000
v 0.00000 0.08000 -0.00000
v 0.00000 0.08000 -0.00000
v 0.00000 0.08000 -0.00000
v 0.00000 0.08000 -0.00000
v 0.00000 0.08000 -0.00000
v 11.70000 0.08000 0.00000
v 11.64366 0.08000 1.14680
v 11.47519 0.08000 2.28256
v 11.19620 0.08000 3.39633
v 10.80939 0.08000 4.47740
v 10.31848 0.08000 5.51534
v 9.72819 0.08000 6.50017
v 9.04422 0.08000 7.42240
v 8.27315 0.08000 8.27315
v 7.42240 0.08000 9.04422
v 6.50017 0.08000 9.72819
v 5.51534 0.08000 10.31848
v 4.47740 0.08000 10.80939
v 3.39633 0.08000 11.19620
v 2.28256 0.08000 11.47519
v 1.14680 0.08000 11.64366
v 0.00000 0.08000 11.70000
v -1.14680 0.08000 11.64366
v -2.28256 0.08000 11.47519
v -3.39633 0.08000 11.19620
v -4.47740 0.08000 10.80939
v -5.51534 0.08000 10.31848
v -6.50017 0.08000 9.72819
v -7.42240 0.08000 9.04422
v -8.27315 0.08000 8.27315
v -9.04422 0.08000 7.42240
v -9.72819 0.08000 6.50017
v -10.31848 0.08000 5.51534
v -10.80939 0.08000 4.47740
v -11.19620 0.08000 3.39633
v -11.47519 0.08000 2.28256
v -11.64366 0.08000 1.14680
v -11.70000 0.08000 0.00000
v -11.64366 0.08000 -1.14680
v -11.47519 0.08000 -2.28256
v -11.19620 0.08000 -3.39633
v -10.80939 0.08000 -4.47740
v -10.31848 0.08000 -5.51534
v -9.72819 0.08000 -6.50017
v -9.04422 0.08000 -7.42240
v -8.27315 0.08000 -8.27315
v -7.42240 0.08000 -9.04422
v -6.50017 0.08000 -9.72819
v -5.51534 0.08000 -10.31848
v -4.47740 0.08000 -10.80939
v -3.39633 0.08000 -11.19620
v -2.28256 0.08000 -11.47519
v -1.14680 0.08000 -11.64366
v -0.00000 0.08000 -11.70000
v 1.14680 0.08000 -11.64366
v 2.28256 0.08000 -11.47519
v 3.39633 0.08000 -11.19620
v 4.47740 0.08000 -10.80939
v 5.51534 0.08000 -10.31848
v 6.50017 0.08000 -9.72819
v 7.42240 0.08000 -9.04422
v 8.27315 0.08000 -8.27315
v 9.04422 0.08000 -7.42240
v 9.72819 0.08000 -6.50017
v 10.31848 0.08000 -5.51534
v 10.80939 0.08000 -4.47740
v 11.19620 0.08000 -3.39633
v 11.47519 0.08000 -2.28256
v 11.64366 0.08000 -1.14680
v 12.00000 0.25000 0.00000
v 11.94222 0.25000 1.17621
v 11.76942 0.25000 2.34108
v 11.48328 0.25000 3.48342
v 11.08655 0.25000 4.59220
v 10.58306 0.25000 5.65676
v 9.97764 0.25000 6.66684
v 9.27613 0.25000 7.61272
v 8.48528 0.25000 8.48528
v 7.61272 0.25000 9.27613
v 6.66684 0.25000 9.97764
v 5.65676 0.25000 10.58306
v 4.59220 0.25000 11.08655
v 3.48342 0.25000 11.48328
v 2.34108 0.25000 11.76942
v 1.17621 0.25000 11.94222
v 0.00000 0.25000 12.00000
v -1.17621 0.25000 11.94222
v -2.34108 0.25000 11.76942
v -3.48342 0.25000 11.48328
v -4.59220 0.25000 11.08655
v -5.65676 0.25000 10.58306
v -6.66684 0.25000 9.97764
v -7.61272 0.25000 9.27613
v -8.48528 0.25000 8.48528
v -9.27613 0.25000 7.61272
v -9.97764 0.25000 6.66684
v -10.58306 0.25000 5.65676
v -11.08655 0.25000 4.59220
v -11.48328 0.25000 3.48342
v -11.76942 0.25000 2.34108
v -11.94222 0.25000 1.17621
v -12.00000 0.25000 0.00000
v -11.94222 0.25000 -1.17621
v -11.76942 0.25000 -2.34108
v -11.48328 0.25000 -3.48342
v -11.08655 0.25000 -4.59220
v -10.58306 0.25000 -5.65676
v -9.97764 0.25000 -6.66684
v -9.27613 0.25000 -7.61272
v -8.48528 0.25000 -8.48528
v -7.61272 0.25000 -9.27613
v -6.66684 0.25000 -9.97764
v -5.65676 0.25000 -10.58306
v -4.59220 0.25000 -11.08655
v -3.48342 0.25000 -11.48328
v -2.34108 0.25000 -11.76942
v -1.17621 0.25000 -11.94222
v -0.00000 0.25000 -12.00000
v 1.17621 0.25000 -11.94222
v 2.34108 0.25000 -11.76942
v 3.48342 0.25000 -11.48328
v 4.59220 0.25000 -11.08655
v 5.65676 0.25000 -10.58306
v 6.66684 0.25000 -9.97764
v 7.61272 0.25000 -9.27613
v 8.48528 0.25000 -8.48528
v 9.27613 0.25000 -7.61272
v 9.97764 0.25000 -6.66684
v 10.58306 0.25000 -5.65676
v 11.08655 0.25000 -4.59220
v 11.48328 0.25000 -3.48342
v 11.76942 0.25000 -2.34108
v 11.94222 0.25000 -1.17621
v 11.70000 0.48000 0.00000
v 11.64366 0.48000 1.14680
v 11.47519 0.48000 2.28256
v 11.19620 0.48000 3.39633
v 10.80939 0.48000 4.47740
v 10.31848 0.48000 5.51534
v 9.72819 0.48000 6.50017
v 9.04422 0.48000 7.42240
v 8.27315 0.48000 8.27315
v 7.42240 0.48000 9.04422
v 6.50017 0.48000 9.72819
v 5.51534 0.48000 10.31848
v 4.47740 0.48000 10.80939
v 3.39633 0.48000 11.19620
v 2.28256 0.48000 11.47519
v 1.14680 0.48000 11.64366
v 0.00000 0.48000 11.70000
v -1.14680 0.48000 11.64366
v -2.28256 0.48000 11.47519
v -3.39633 0.48000 11.19620
v -4.47740 0.48000 10.80939
v -5.51534 0.48000 10.31848
v -6.50017 0.48000 9.72819
v -7.42240 0.48000 9.04422
v -8.27315 0.48000 8.27315
v -9.04422 0.48000 7.42240
v -9.72819 0.48000 6.50017
v -10.31848 0.48000 5.51534
v -10.80939 0.48000 4.47740
v -11.19620 0.48000 3.39633
v -11.47519 0.48000 2.28256
v -11.64366 0.48000 1.14680
v -11.70000 0.48000 0.00000
v -11.64366 0.48000 -1.14680
v -11.47519 0.48000 -2.28256
v -11.19620 0.48000 -3.39633
v -10.80939 0.48000 -4.47740
v -10.31848 0.48000 -5.51534
v -9.72819 0.48000 -6.50017
v -9.04422 0.48000 -7.42240
v -8.27315 0.48000 -8.27315
v -7.42240 0.48000 -9.04422
v -6.50017 0.48000 -9.72819
v -5.51534 0.48000 -10.31848
v -4.47740 0.48000 -10.80939
v -3.39633 0.48000 -11.19620
v -2.28256 0.48000 -11.47519
v -1.14680 0.48000 -11.64366
v -0.00000 0.48000 -11.70000
v 1.14680 0.48000 -11.64366
v 2.28256 0.48000 -11.47519
v 3.39633 0.48000 -11.19620
v 4.47740 0.48000 -10.80939
v 5.51534 0.48000 -10.31848
v 6.50017 0.48000 -9.72819
v 7.42240 0.48000 -9.04422
v 8.27315 0.48000 -8.27315
v 9.04422 0.48000 -7.42240
v 9.72819 0.48000 -6.50017
v 10.31848 0.48000 -5.51534
v 10.80939 0.48000 -4.47740
v 11.19620 0.48000 -3.39633
v 11.47519 0.48000 -2.28256
v 11.64366 0.48000 -1.14680
v 10.90000 0.62000 0.00000
v 10.84751 0.62000 1.06839
v 10.69056 0.62000 2.12648
v 10.43065 0.62000 3.16410
v 10.07029 0.62000 4.17125
v 9.61294 0.62000 5.13822
v 9.06302 0.62000 6.05572
v 8.42581 0.62000 6.91489
v 7.70746 0.62000 7.70746
v 6.91489 0.62000 8.42581
v 6.05572 0.62000 9.06302
v 5.13822 0.62000 9.61294
v 4.17125 0.62000 10.07029
v 3.16410 0.62000 10.43065
v 2.12648 0.62000 10.69056
v 1.06839 0.62000 10.84751
v 0.00000 0.62000 10.90000
v -1.06839 0.62000 10.84751
v -2.12648 0.62000 10.69056
v -3.16410 0.62000 10.43065
v -4.17125 0.62000 10.07029
v -5.13822 0.62000 9.61294
v -6.05572 0.62000 9.06302
v -6.91489 0.62000 8.42581
v -7.70746 0.62000 7.70746
v -8.42581 0.62000 6.91489
v -9.06302 0.62000 6.05572
v -9.61294 0.62000 5.13822
v -10.07029 0.62000 4.17125
v -10.43065 0.62000 3.16410
v -10.69056 0.62000 2.12648
v -10.84751 0.62000 1.06839
v -10.90000 0.62000 0.00000
v -10.84751 0.62000 -1.06839
v -10.69056 0.62000 -2.12648
v -10.43065 0.62000 -3.16410
v -10.07029 0.62000 -4.17125
v -9.61294 0.62000 -5.13822
v -9.06302 0.62000 -6.05572
v -8.42581 0.62000 -6.91489
v -7.70746 0.62000 -7.70746
v -6.91489 0.62000 -8.42581
v -6.05572 0.62000 -9.06302
v -5.13822 0.62000 -9.61294
v -4.17125 0.62000 -10.07029
v -3.16410 0.62000 -10.43065
v -2.12648 0.62000 -10.69056
v -1.06839 0.62000 -10.84751
v -0.00000 0.62000 -10.90000
v 1.06839 0.62000 -10.84751
v 2.12648 0.62000 -10.69056
v 3.16410 0.62000 -10.43065
v 4.17125 0.62000 -10.07029
v 5.13822 0.62000 -9.61294
v 6.05572 0.62000 -9.06302
v 6.91489 0.62000 -8.42581
v 7.70746 0.62000 -7.70746
v 8.42581 0.62000 -6.91489
v 9.06302 0.62000 -6.05572
v 9.61294 0.62000 -5.13822
v 10.07029 0.62000 -4.17125
v 10.43065 0.62000 -3.16410
v 10.69056 0.62000 -2.12648
v 10.84751 0.62000 -1.06839
v 0.00000 0.62000 0.00000
v 0.00000 0.62000 0.00000
v 0.00000 0.62000 0.00000
v 0.00000 0.62000 0.00000
v 0.00000 0.62000 0.00000
v 0.00000 0.62000 0.00000
v 0.00000 0.62000 0.00000
v 0.00000 0.62000 0.00000
v 0.00000 0.62000 0.00000
v 0.00000 0.62000 0.00000
v 0.00000 0.62000 0.00000
v 0.00000 0.62000 0.00000
v 0.00000 0.62000 0.00000
v 0.00000 0.62000 0.00000
v 0.00000 0.62000 0.00000
v 0.00000 0.62000 0.00000
v 0.00000 0.62000 0.00000
v -0.00000 0.62000 0.00000
v -0.00000 0.62000 0.00000
v -0.00000 0.62000 0.00000
v -0.00000 0.62000 0.00000
v -0.00000 0.62000 0.00000
v -0.00000 0.62000 0.00000
v -0.00000 0.62000 0.00000
v -0.00000 0.62000 0.00000
v -0.00000 0.62000 0.00000
v -0.00000 0.62000 0.00000
v -0.00000 0.62000 0.00000
v -0.00000 0.62000 0.00000
v -0.00000 0.62000 0.00000
v -0.00000 0.62000 0.00000
v -0.00000 0.62000 0.00000
v -0.00000 0.62000 0.00000
v -0.00000 0.62000 -0.00000
v -0.00000 0.62000 -0.00000
v -0.00000 0.62000 -0.00000
v -0.00000 0.62000 -0.00000
v -0.00000 0.62000 -0.00000
v -0.00000 0.62000 -0.00000
v -0.00000 0.62000 -0.00000
v -0.00000 0.62000 -0.00000
v -0.00000 0.62000 -0.00000
v -0.00000 0.62000 -0.00000
v -0.00000 0.62000 -0.00000
v -0.00000 0.62000 -0.00000
v -0.00000 0.62000 -0.00000
v -0.00000 0.62000 -0.00000
v -0.00000 0.62000 -0.00000
v -0.00000 0.62000 -0.00000
v 0.00000 0.62000 -0.00000
v 0.00000 0.62000 -0.00000
v 0.00000 0.62000 -0.00000
v 0.00000 0.62000 -0.00000
v 0.00000 0.62000 -0.00000
v 0.00000 0.62000 -0.00000
v 0.00000 0.62000 -0.00000
v 0.00000 0.62000 -0.00000
v 0.00000 0.62000 -0.00000
v 0.00000 0.62000 -0.00000
v 0.00000 0.62000 -0.00000
v 0.00000 0.62000 -0.00000
v 0.00000 0.62000 -0.00000
v 0.00000 0.62000 -0.00000
v 0.00000 0.62000 -0.00000
v 11.38000 0.63000 0.00000
v 11.34192 0.72192 0.00000
v 11.25000 0.76000 0.00000
v 11.15808 0.72192 0.00000
v 11.12000 0.63000 0.00000
v 11.15808 0.53808 0.00000
v 11.25000 0.50000 0.00000
v 11.34192 0.53808 0.00000
v 11.28264 0.63000 1.48539
v 11.24489 0.72192 1.48042
v 11.15375 0.76000 1.46842
v 11.06262 0.72192 1.45642
v 11.02487 0.63000 1.45145
v 11.06262 0.53808 1.45642
v 11.15375 0.50000 1.46842
v 11.24489 0.53808 1.48042
v 10.99224 0.63000 2.94536
v 10.95546 0.72192 2.93551
v 10.86667 0.76000 2.91171
v 10.77787 0.72192 2.88792
v 10.74110 0.63000 2.87807
v 10.77787 0.53808 2.88792
v 10.86667 0.50000 2.91171
v 10.95546 0.53808 2.93551
v 10.51375 0.63000 4.35494
v 10.47857 0.72192 4.34037
v 10.39364 0.76000 4.30519
v 10.30872 0.72192 4.27001
v 10.27354 0.63000 4.25544
v 10.30872 0.53808 4.27001
v 10.39364 0.50000 4.30519
v 10.47857 0.53808 4.34037
v 9.85537 0.63000 5.69000
v 9.82239 0.72192 5.67096
v 9.74279 0.76000 5.62500
v 9.66318 0.72192 5.57904
v 9.63020 0.63000 5.56000
v 9.66318 0.53808 5.57904
v 9.74279 0.50000 5.62500
v 9.82239 0.53808 5.67096
v 9.02836 0.63000 6.92771
v 8.99815 0.72192 6.90453
v 8.92523 0.76000 6.84857
v 8.85230 0.72192 6.79261
v 8.82209 0.63000 6.76943
v 8.85230 0.53808 6.79261
v 8.92523 0.50000 6.84857
v 8.99815 0.53808 6.90453
v 8.04688 0.63000 8.04688
v 8.01995 0.72192 8.01995
v 7.95495 0.76000 7.95495
v 7.88995 0.72192 7.88995
v 7.86303 0.63000 7.86303
v 7.88995 0.53808 7.88995
v 7.95495 0.50000 7.95495
v 8.01995 0.53808 8.01995
v 6.92771 0.63000 9.02836
v 6.90453 0.72192 8.99815
v 6.84857 0.76000 8.92523
v 6.79261 0.72192 8.85230
v 6.76943 0.63000 8.82209
v 6.79261 0.53808 8.85230
v 6.84857 0.50000 8.92523
v 6.90453 0.53808 8.99815
v 5.69000 0.63000 9.85537
v 5.67096 0.72192 9.82239
v 5.62500 0.76000 9.74279
v 5.57904 0.72192 9.66318
v 5.56000 0.63000 9.63020
v 5.57904 0.53808 9.66318
v 5.62500 0.50000 9.74279
v 5.67096 0.53808 9.82239
v 4.35494 0.63000 10.51375
v 4.34037 0.72192 10.47857
v 4.30519 0.76000 10.39364
v 4.27001 0.72192 10.30872
v 4.25544 0.63000 10.27354
v 4.27001 0.53808 10.30872
v 4.30519 0.50000 10.39364
v 4.34037 0.53808 10.47857
v 2.94536 0.63000 10.99224
v 2.93551 0.72192 10.95546
v 2.91171 0.76000 10.86667
v 2.88792 0.72192 10.77787
v 2.87807 0.63000 10.74110
v 2.88792 0.53808 10.77787
v 2.91171 0.50000 10.86667
v 2.93551 0.53808 10.95546
v 1.48539 0.63000 11.28264
v 1.48042 0.72192 11.24489
v 1.46842 0.76000 11.15375
v 1.45642 0.72192 11.06262
v 1.45145 0.63000 11.02487
v 1.45642 0.53808 11.06262
v 1.46842 0.50000 11.15375
v 1.48042 0.53808 11.24489
v 0.00000 0.63000 11.38000
v 0.00000 0.72192 11.34192
v 0.00000 0.76000 11.25000
v 0.00000 0.72192 11.15808
v 0.00000 0.63000 11.12000
v 0.00000 0.53808 11.15808
v 0.00000 0.50000 11.25000
v 0.00000 0.53808 11.34192
v -1.48539 0.63000 11.28264
v -1.48042 0.72192 11.24489
v -1.46842 0.76000 11.15375
v -1.45642 0.72192 11.06262
v -1.45145 0.63000 11.02487
v -1.45642 0.53808 11.06262
v -1.46842 0.50000 11.15375
v -1.48042 0.53808 11.24489
v -2.94536 0.63000 10.99224
v -2.93551 0.72192 10.95546
v -2.91171 0.76000 10.86667
v -2.88792 0.72192 10.77787
v -2.87807 0.63000 10.74110
v -2.88792 0.53808 10.77787
v -2.91171 0.50000 10.86667
v -2.93551 0.53808 10.95546
v -4.35494 0.63000 10.51375
v -4.34037 0.72192 10.47857
v -4.30519 0.76000 10.39364
v -4.27001 0.72192 10.30872
v -4.25544 0.63000 10.27354
v -4.27001 0.53808 10.30872
v -4.30519 0.50000 10.39364
v -4.34037 0.53808 10.47857
v -5.69000 0.63000 9.85537
v -5.67096 0.72192 9.82239
v -5.62500 0.76000 9.74279
v -5.57904 0.72192 9.66318
v -5.56000 0.63000 9.63020
v -5.57904 0.53808 9.66318
v -5.62500 0.50000 9.74279
v -5.67096 0.53808 9.82239
v -6.92771 0.63000 9.02836
v -6.90453 0.72192 8.99815
v -6.84857 0.76000 8.92523
v -6.79261 0.72192 8.85230
v -6.76943 0.63000 8.82209
v -6.79261 0.53808 8.85230
v -6.84857 0.50000 8.92523
v -6.90453 0.53808 8.99815
v -8.04688 0.63000 8.04688
v -8.01995 0.72192 8.01995
v -7.95495 0.76000 7.95495
v -7.88995 0.72192 7.88995
v -7.86303 0.63000 7.86303
v -7.88995 0.53808 7.88995
v -7.95495 0.50000 7.95495
v -8.01995 0.53808 8.01995
v -9.02836 0.63000 6.92771
v -8.99815 0.72192 6.90453
v -8.92523 0.76000 6.84857
v -8.85230 0.72192 6.79261
v -8.82209 0.63000 6.76943
v -8.85230 0.53808 6.79261
v -8.92523 0.50000 6.84857
v -8.99815 0.53808 6.90453
v -9.85537 0.63000 5.69000
v -9.82239 0.72192 5.67096
v -9.74279 0.76000 5.62500
v -9.66318 0.72192 5.57904
v -9.63020 0.63000 5.56000
v -9.66318 0.53808 5.57904
v -9.74279 0.50000 5.62500
v -9.82239 0.53808 5.67096
v -10.51375 0.63000 4.35494
v -10.47857 0.72192 4.34037
v -10.39364 0.76000 4.30519
v -10.30872 0.72192 4.27001
v -10.27354 0.63000 4.25544
v -10.30872 0.53808 4.27001
v -10.39364 0.50000 4.30519
v -10.47857 0.53808 4.34037
v -10.99224 0.63000 2.94536
v -10.95546 0.72192 2.93551
v -10.86667 0.76000 2.91171
v -10.77787 0.72192 2.88792
v -10.74110 0.63000 2.87807
v -10.77787 0.53808 2.88792
v -10.86667 0.50000 2.91171
v -10.95546 0.53808 2.93551
v -11.28264 0.63000 1.48539
v -11.24489 0.72192 1.48042
v -11.15375 0.76000 1.46842
v -11.06262 0.72192 1.45642
v -11.02487 0.63000 1.45145
v -11.06262 0.53808 1.45642
v -11.15375 0.50000 1.46842
v -11.24489 0.53808 1.48042
v -11.38000 0.63000 0.00000
v -11.34192 0.72192 0.00000
v -11.25000 0.76000 0.00000
v -11.15808 0.72192 0.00000
v -11.12000 0.63000 0.00000
v -11.15808 0.53808 0.00000
v -11.25000 0.50000 0.00000
v -11.34192 0.53808 0.00000
v -11.28264 0.63000 -1.48539
v -11.24489 0.72192 -1.48042
v -11.15375 0.76000 -1.46842
v -11.06262 0.72192 -1.45642
v -11.02487 0.63000 -1.45145
v -11.06262 0.53808 -1.45642
v -11.15375 0.50000 -1.46842
v -11.24489 0.53808 -1.48042
v -10.99224 0.63000 -2.94536
v -10.95546 0.72192 -2.93551
v -10.86667 0.76000 -2.91171
v -10.77787 0.72192 -2.88792
v -10.74110 0.63000 -2.87807
v -10.77787 0.53808 -2.88792
v -10.86667 0.50000 -2.91171
v -10.95546 0.53808 -2.93551
v -10.51375 0.63000 -4.35494
v -10.47857 0.72192 -4.34037
v -10.39364 0.76000 -4.30519
v -10.30872 0.72192 -4.27001
v -10.27354 0.63000 -4.25544
v -10.30872 0.53808 -4.27001
v -10.39364 0.50000 -4.30519
v -10.47857 0.53808 -4.34037
v -9.85537 0.63000 -5.69000
v -9.82239 0.72192 -5.67096
v -9.74279 0.76000 -5.62500
v -9.66318 0.72192 -5.57904
v -9.63020 0.63000 -5.56000
v -9.66318 0.53808 -5.57904
v -9.74279 0.50000 -5.62500
v -9.82239 0.53808 -5.67096
v -9.02836 0.63000 -6.92771
v -8.99815 0.72192 -6.90453
v -8.92523 0.76000 -6.84857
v -8.85230 0.72192 -6.79261
v -8.82209 0.63000 -6.76943
v -8.85230 0.53808 -6.79261
v -8.92523 0.50000 -6.84857
v -8.99815 0.53808 -6.90453
v -8.04688 0.63000 -8.04688
v -8.01995 0.72192 -8.01995
v -7.95495 0.76000 -7.95495
v -7.88995 0.72192 -7.88995
v -7.86303 0.63000 -7.86303
v -7.88995 0.53808 -7.88995
v -7.95495 0.50000 -7.95495
v -8.01995 0.53808 -8.01995
v -6.92771 0.63000 -9.02836
v -6.90453 0.72192 -8.99815
v -6.84857 0.76000 -8.92523
v -6.79261 0.72192 -8.85230
v -6.76943 0.63000 -8.82209
v -6.79261 0.53808 -8.85230
v -6.84857 0.50000 -8.92523
v -6.90453 0.53808 -8.99815
v -5.69000 0.63000 -9.85537
v -5.67096 0.72192 -9.82239
v -5.62500 0.76000 -9.74279
v -5.57904 0.72192 -9.66318
v -5.56000 0.63000 -9.63020
v -5.57904 0.53808 -9.66318
v -5.62500 0.50000 -9.74279
v -5.67096 0.53808 -9.82239
v -4.35494 0.63000 -10.51375
v -4.34037 0.72192 -10.47857
v -4.30519 0.76000 -10.39364
v -4.27001 0.72192 -10.30872
v -4.25544 0.63000 -10.27354
v -4.27001 0.53808 -10.30872
v -4.30519 0.50000 -10.39364
v -4.34037 0.53808 -10.47857
v -2.94536 0.63000 -10.99224
v -2.93551 0.72192 -10.95546
v -2.91171 0.76000 -10.86667
v -2.88792 0.72192 -10.77787
v -2.87807 0.63000 -10.74110
v -2.88792 0.53808 -10.77787
v -2.91171 0.50000 -10.86667
v -2.93551 0.53808 -10.95546
v -1.48539 0.63000 -11.28264
v -1.48042 0.72192 -11.24489
v -1.46842 0.76000 -11.15375
v -1.45642 0.72192 -11.06262
v -1.45145 0.63000 -11.02487
v -1.45642 0.53808 -11.06262
v -1.46842 0.50000 -11.15375
v -1.48042 0.53808 -11.24489
v -0.00000 0.63000 -11.38000
v -0.00000 0.72192 -11.34192
v -0.00000 0.76000 -11.25000
v -0.00000 0.72192 -11.15808
v -0.00000 0.63000 -11.12000
v -0.00000 0.53808 -11.15808
v -0.00000 0.50000 -11.25000
v -0.00000 0.53808 -11.34192
v 1.48539 0.63000 -11.28264
v 1.48042 0.72192 -11.24489
v 1.46842 0.76000 -11.15375
v 1.45642 0.72192 -11.06262
v 1.45145 0.63000 -11.02487
v 1.45642 0.53808 -11.06262
v 1.46842 0.50000 -11.15375
v 1.48042 0.53808 -11.24489
v 2.94536 0.63000 -10.99224
v 2.93551 0.72192 -10.95546
v 2.91171 0.76000 -10.86667
v 2.88792 0.72192 -10.77787
v 2.87807 0.63000 -10.74110
v 2.88792 0.53808 -10.77787
v 2.91171 0.50000 -10.86667
v 2.93551 0.53808 -10.95546
v 4.35494 0.63000 -10.51375
v 4.34037 0.72192 -10.47857
v 4.30519 0.76000 -10.39364
v 4.27001 0.72192 -10.30872
v 4.25544 0.63000 -10.27354
v 4.27001 0.53808 -10.30872
v 4.30519 0.50000 -10.39364
v 4.34037 0.53808 -10.47857
v 5.69000 0.63000 -9.85537
v 5.67096 0.72192 -9.82239
v 5.62500 0.76000 -9.74279
v 5.57904 0.72192 -9.66318
v 5.56000 0.63000 -9.63020
v 5.57904 0.53808 -9.66318
v 5.62500 0.50000 -9.74279
v 5.67096 0.53808 -9.82239
v 6.92771 0.63000 -9.02836
v 6.90453 0.72192 -8.99815
v 6.84857 0.76000 -8.92523
v 6.79261 0.72192 -8.85230
v 6.76943 0.63000 -8.82209
v 6.79261 0.53808 -8.85230
v 6.84857 0.50000 -8.92523
v 6.90453 0.53808 -8.99815
v 8.04688 0.63000 -8.04688
v 8.01995 0.72192 -8.01995
v 7.95495 0.76000 -7.95495
v 7.88995 0.72192 -7.88995
v 7.86303 0.63000 -7.86303
v 7.88995 0.53808 -7.88995
v 7.95495 0.50000 -7.95495
v 8.01995 0.53808 -8.01995
v 9.02836 0.63000 -6.92771
v 8.99815 0.72192 -6.90453
v 8.92523 0.76000 -6.84857
v 8.85230 0.72192 -6.79261
v 8.82209 0.63000 -6.76943
v 8.85230 0.53808 -6.79261
v 8.92523 0.50000 -6.84857
v 8.99815 0.53808 -6.90453
v 9.85537 0.63000 -5.69000
v 9.82239 0.72192 -5.67096
v 9.74279 0.76000 -5.62500
v 9.66318 0.72192 -5.57904
v 9.63020 0.63000 -5.56000
v 9.66318 0.53808 -5.57904
v 9.74279 0.50000 -5.62500
v 9.82239 0.53808 -5.67096
v 10.51375 0.63000 -4.35494
v 10.47857 0.72192 -4.34037
v 10.39364 0.76000 -4.30519
v 10.30872 0.72192 -4.27001
v 10.27354 0.63000 -4.25544
v 10.30872 0.53808 -4.27001
v 10.39364 0.50000 -4.30519
v 10.47857 0.53808 -4.34037
v 10.99224 0.63000 -2.94536
v 10.95546 0.72192 -2.93551
v 10.86667 0.76000 -2.91171
v 10.77787 0.72192 -2.88792
v 10.74110 0.63000 -2.87807
v 10.77787 0.53808 -2.88792
v 10.86667 0.50000 -2.91171
v 10.95546 0.53808 -2.93551
v 11.28264 0.63000 -1.48539
v 11.24489 0.72192 -1.48042
v 11.15375 0.76000 -1.46842
v 11.06262 0.72192 -1.45642
v 11.02487 0.63000 -1.45145
v 11.06262 0.53808 -1.45642
v 11.15375 0.50000 -1.46842
v 11.24489 0.53808 -1.48042
v 9.92000 0.64500 0.00000
v 9.89950 0.69450 0.00000
v 9.85000 0.71500 0.00000
v 9.80050 0.69450 0.00000
v 9.78000 0.64500 0.00000
v 9.80050 0.59550 0.00000
v 9.85000 0.57500 0.00000
v 9.89950 0.59550 0.00000
v 9.83513 0.64500 1.29482
v 9.81481 0.69450 1.29214
v 9.76573 0.71500 1.28568
v 9.71666 0.69450 1.27922
v 9.69633 0.64500 1.27655
v 9.71666 0.59550 1.27922
v 9.76573 0.57500 1.28568
v 9.81481 0.59550 1.29214
v 9.58198 0.64500 2.56748
v 9.56218 0.69450 2.56218
v 9.51437 0.71500 2.54937
v 9.46656 0.69450 2.53656
v 9.44675 0.64500 2.53125
v 9.46656 0.59550 2.53656
v 9.51437 0.57500 2.54937
v 9.56218 0.59550 2.56218
v 9.16488 0.64500 3.79622
v 9.14594 0.69450 3.78837
v 9.10021 0.71500 3.76943
v 9.05448 0.69450 3.75049
v 9.03554 0.64500 3.74264
v 9.05448 0.59550 3.75049
v 9.10021 0.57500 3.76943
v 9.14594 0.59550 3.78837
v 8.59097 0.64500 4.96000
v 8.57322 0.69450 4.94975
v 8.53035 0.71500 4.92500
v 8.48748 0.69450 4.90025
v 8.46973 0.64500 4.89000
v 8.48748 0.59550 4.90025
v 8.53035 0.57500 4.92500
v 8.57322 0.59550 4.94975
v 7.87007 0.64500 6.03891
v 7.85380 0.69450 6.02643
v 7.81453 0.71500 5.99630
v 7.77526 0.69450 5.96617
v 7.75900 0.64500 5.95369
v 7.77526 0.59550 5.96617
v 7.81453 0.57500 5.99630
v 7.85380 0.59550 6.02643
v 7.01450 0.64500 7.01450
v 7.00000 0.69450 7.00000
v 6.96500 0.71500 6.96500
v 6.93000 0.69450 6.93000
v 6.91550 0.64500 6.91550
v 6.93000 0.59550 6.93000
v 6.96500 0.57500 6.96500
v 7.00000 0.59550 7.00000
v 6.03891 0.64500 7.87007
v 6.02643 0.69450 7.85380
v 5.99630 0.71500 7.81453
v 5.96617 0.69450 7.77526
v 5.95369 0.64500 7.75900
v 5.96617 0.59550 7.77526
v 5.99630 0.57500 7.81453
v 6.02643 0.59550 7.85380
v 4.96000 0.64500 8.59097
v 4.94975 0.69450 8.57322
v 4.92500 0.71500 8.53035
v 4.90025 0.69450 8.48748
v 4.89000 0.64500 8.46973
v 4.90025 0.59550 8.48748
v 4.92500 0.57500 8.53035
v 4.94975 0.59550 8.57322
v 3.79622 0.64500 9.16488
v 3.78837 0.69450 9.14594
v 3.76943 0.71500 9.10021
v 3.75049 0.69450 9.05448
v 3.74264 0.64500 9.03554
v 3.75049 0.59550 9.05448
v 3.76943 0.57500 9.10021
v 3.78837 0.59550 9.14594
v 2.56748 0.64500 9.58198
v 2.56218 0.69450 9.56218
v 2.54937 0.71500 9.51437
v 2.53656 0.69450 9.46656
v 2.53125 0.64500 9.44675
v 2.53656 0.59550 9.46656
v 2.54937 0.57500 9.51437
v 2.56218 0.59550 9.56218
v 1.29482 0.64500 9.83513
v 1.29214 0.69450 9.81481
v 1.28568 0.71500 9.76573
v 1.27922 0.69450 9.71666
v 1.27655 0.64500 9.69633
v 1.27922 0.59550 9.71666
v 1.28568 0.57500 9.76573
v 1.29214 0.59550 9.81481
v 0.00000 0.64500 9.92000
v 0.00000 0.69450 9.89950
v 0.00000 0.71500 9.85000
v 0.00000 0.69450 9.80050
v 0.00000 0.64500 9.78000
v 0.00000 0.59550 9.80050
v 0.00000 0.57500 9.85000
v 0.00000 0.59550 9.89950
v -1.29482 0.64500 9.83513
v -1.29214 0.69450 9.81481
v -1.28568 0.71500 9.76573
v -1.27922 0.69450 9.71666
v -1.27655 0.64500 9.69633
v -1.27922 0.59550 9.71666
v -1.28568 0.57500 9.76573
v -1.29214 0.59550 9.81481
v -2.56748 0.64500 9.58198
v -2.56218 0.69450 9.56218
v -2.54937 0.71500 9.51437
v -2.53656 0.69450 9.46656
v -2.53125 0.64500 9.44675
v -2.53656 0.59550 9.46656
v -2.54937 0.57500 9.51437
v -2.56218 0.59550 9.56218
v -3.79622 0.64500 9.16488
v -3.78837 0.69450 9.14594
v -3.76943 0.71500 9.10021
v -3.75049 0.69450 9.05448
v -3.74264 0.64500 9.03554
v -3.75049 0.59550 9.05448
v -3.76943 0.57500 9.10021
v -3.78837 0.59550 9.14594
v -4.96000 0.64500 8.59097
v -4.94975 0.69450 8.57322
v -4.92500 0.71500 8.53035
v -4.90025 0.69450 8.48748
v -4.89000 0.64500 8.46973
v -4.90025 0.59550 8.48748
v -4.92500 0.57500 8.53035
v -4.94975 0.59550 8.57322
v -6.03891 0.64500 7.87007
v -6.02643 0.69450 7.85380
v -5.99630 0.71500 7.81453
v -5.96617 0.69450 7.77526
v -5.95369 0.64500 7.75900
v -5.96617 0.59550 7.77526
v -5.99630 0.57500 7.81453
v -6.02643 0.59550 7.85380
v -7.01450 0.64500 7.01450
v -7.00000 0.69450 7.00000
v -6.96500 0.71500 6.96500
v -6.93000 0.69450 6.93000
v -6.91550 0.64500 6.91550
v -6.93000 0.59550 6.93000
v -6.96500 0.57500 6.96500
v -7.00000 0.59550 7.00000
v -7.87007 0.64500 6.03891
v -7.85380 0.69450 6.02643
v -7.81453 0.71500 5.99630
v -7.77526 0.69450 5.96617
v -7.75900 0.64500 5.95369
v -7.77526 0.59550 5.96617
v -7.81453 0.57500 5.99630
v -7.85380 0.59550 6.02643
v -8.59097 0.64500 4.96000
v -8.57322 0.69450 4.94975
v -8.53035 0.71500 4.92500
v -8.48748 0.69450 4.90025
v -8.46973 0.64500 4.89000
v -8.48748 0.59550 4.90025
v -8.53035 0.57500 4.92500
v -8.57322 0.59550 4.94975
v -9.16488 0.64500 3.79622
v -9.14594 0.69450 3.78837
v -9.10021 0.71500 3.76943
v -9.05448 0.69450 3.75049
v -9.03554 0.64500 3.74264
v -9.05448 0.59550 3.75049
v -9.10021 0.57500 3.76943
v -9.14594 0.59550 3.78837
v -9.58198 0.64500 2.56748
v -9.56218 0.69450 2.56218
v -9.51437 0.71500 2.54937
v -9.46656 0.69450 2.53656
v -9.44675 0.64500 2.53125
v -9.46656 0.59550 2.53656
v -9.51437 0.57500 2.54937
v -9.56218 0.59550 2.56218
v -9.83513 0.64500 1.29482
v -9.81481 0.69450 1.29214
v -9.76573 0.71500 1.28568
v -9.71666 0.69450 1.27922
v -9.69633 0.64500 1.27655
v -9.71666 0.59550 1.27922
v -9.76573 0.57500 1.28568
v -9.81481 0.59550 1.29214
v -9.92000 0.64500 0.00000
v -9.89950 0.69450 0.00000
v -9.85000 0.71500 0.00000
v -9.80050 0.69450 0.00000
v -9.78000 0.64500 0.00000
v -9.80050 0.59550 0.00000
v -9.85000 0.57500 0.00000
v -9.89950 0.59550 0.00000
v -9.83513 0.64500 -1.29482
v -9.81481 0.69450 -1.29214
v -9.76573 0.71500 -1.28568
v -9.71666 0.69450 -1.27922
v -9.69633 0.64500 -1.27655
v -9.71666 0.59550 -1.27922
v -9.76573 0.57500 -1.28568
v -9.81481 0.59550 -1.29214
v -9.58198 0.64500 -2.56748
v -9.56218 0.69450 -2.56218
v -9.51437 0.71500 -2.54937
v -9.46656 0.69450 -2.53656
v -9.44675 0.64500 -2.53125
v -9.46656 0.59550 -2.53656
v -9.51437 0.57500 -2.54937
v -9.56218 0.59550 -2.56218
v -9.16488 0.64500 -3.79622
v -9.14594 0.69450 -3.78837
v -9.10021 0.71500 -3.76943
v -9.05448 0.69450 -3.75049
v -9.03554 0.64500 -3.74264
v -9.05448 0.59550 -3.75049
v -9.10021 0.57500 -3.76943
v -9.14594 0.59550 -3.78837
v -8.59097 0.64500 -4.96000
v -8.57322 0.69450 -4.94975
v -8.53035 0.71500 -4.92500
v -8.48748 0.69450 -4.90025
v -8.46973 0.64500 -4.89000
v -8.48748 0.59550 -4.90025
v -8.53035 0.57500 -4.92500
v -8.57322 0.59550 -4.94975
v -7.87007 0.64500 -6.03891
v -7.85380 0.69450 -6.02643
v -7.81453 0.71500 -5.99630
v -7.77526 0.69450 -5.96617
v -7.75900 0.64500 -5.95369
v -7.77526 0.59550 -5.96617
v -7.81453 0.57500 -5.99630
v -7.85380 0.59550 -6.02643
v -7.01450 0.64500 -7.01450
v -7.00000 0.69450 -7.00000
v -6.96500 0.71500 -6.96500
v -6.93000 0.69450 -6.93000
v -6.91550 0.64500 -6.91550
v -6.93000 0.59550 -6.93000
v -6.96500 0.57500 -6.96500
v -7.00000 0.59550 -7.00000
v -6.03891 0.64500 -7.87007
v -6.02643 0.69450 -7.85380
v -5.99630 0.71500 -7.81453
v -5.96617 0.69450 -7.77526
v -5.95369 0.64500 -7.75900
v -5.96617 0.59550 -7.77526
v -5.99630 0.57500 -7.81453
v -6.02643 0.59550 -7.85380
v -4.96000 0.64500 -8.59097
v -4.94975 0.69450 -8.57322
v -4.92500 0.71500 -8.53035
v -4.90025 0.69450 -8.48748
v -4.89000 0.64500 -8.46973
v -4.90025 0.59550 -8.48748
v -4.92500 0.57500 -8.53035
v -4.94975 0.59550 -8.57322
v -3.79622 0.64500 -9.16488
v -3.78837 0.69450 -9.14594
v -3.76943 0.71500 -9.10021
v -3.75049 0.69450 -9.05448
v -3.74264 0.64500 -9.03554
v -3.75049 0.59550 -9.05448
v -3.76943 0.57500 -9.10021
v -3.78837 0.59550 -9.14594
v -2.56748 0.64500 -9.58198
v -2.56218 0.69450 -9.56218
v -2.54937 0.71500 -9.51437
v -2.53656 0.69450 -9.46656
v -2.53125 0.64500 -9.44675
v -2.53656 0.59550 -9.46656
v -2.54937 0.57500 -9.51437
v -2.56218 0.59550 -9.56218
v -1.29482 0.64500 -9.83513
v -1.29214 0.69450 -9.81481
v -1.28568 0.71500 -9.76573
v -1.27922 0.69450 -9.71666
v -1.27655 0.64500 -9.69633
v -1.27922 0.59550 -9.71666
v -1.28568 0.57500 -9.76573
v -1.29214 0.59550 -9.81481
v -0.00000 0.64500 -9.92000
v -0.00000 0.69450 -9.89950
v -0.00000 0.71500 -9.85000
v -0.00000 0.69450 -9.80050
v -0.00000 0.64500 -9.78000
v -0.00000 0.59550 -9.80050
v -0.00000 0.57500 -9.85000
v -0.00000 0.59550 -9.89950
v 1.29482 0.64500 -9.83513
v 1.29214 0.69450 -9.81481
v 1.28568 0.71500 -9.76573
v 1.27922 0.69450 -9.71666
v 1.27655 0.64500 -9.69633
v 1.27922 0.59550 -9.71666
v 1.28568 0.57500 -9.76573
v 1.29214 0.59550 -9.81481
v 2.56748 0.64500 -9.58198
v 2.56218 0.69450 -9.56218
v 2.54937 0.71500 -9.51437
v 2.53656 0.69450 -9.46656
v 2.53125 0.64500 -9.44675
v 2.53656 0.59550 -9.46656
v 2.54937 0.57500 -9.51437
v 2.56218 0.59550 -9.56218
v 3.79622 0.64500 -9.16488
v 3.78837 0.69450 -9.14594
v 3.76943 0.71500 -9.10021
v 3.75049 0.69450 -9.05448
v 3.74264 0.64500 -9.03554
v 3.75049 0.59550 -9.05448
v 3.76943 0.57500 -9.10021
v 3.78837 0.59550 -9.14594
v 4.96000 0.64500 -8.59097
v 4.94975 0.69450 -8.57322
v 4.92500 0.71500 -8.53035
v 4.90025 0.69450 -8.48748
v 4.89000 0.64500 -8.46973
v 4.90025 0.59550 -8.48748
v 4.92500 0.57500 -8.53035
v 4.94975 0.59550 -8.57322
v 6.03891 0.64500 -7.87007
v 6.02643 0.69450 -7.85380
v 5.99630 0.71500 -7.81453
v 5.96617 0.69450 -7.77526
v 5.95369 0.64500 -7.75900
v 5.96617 0.59550 -7.77526
v 5.99630 0.57500 -7.81453
v 6.02643 0.59550 -7.85380
v 7.01450 0.64500 -7.01450
v 7.00000 0.69450 -7.00000
v 6.96500 0.71500 -6.96500
v 6.93000 0.69450 -6.93000
v 6.91550 0.64500 -6.91550
v 6.93000 0.59550 -6.93000
v 6.96500 0.57500 -6.96500
v 7.00000 0.59550 -7.00000
v 7.87007 0.64500 -6.03891
v 7.85380 0.69450 -6.02643
v 7.81453 0.71500 -5.99630
v 7.77526 0.69450 -5.96617
v 7.75900 0.64500 -5.95369
v 7.77526 0.59550 -5.96617
v 7.81453 0.57500 -5.99630
v 7.85380 0.59550 -6.02643
v 8.59097 0.64500 -4.96000
v 8.57322 0.69450 -4.94975
v 8.53035 0.71500 -4.92500
v 8.48748 0.69450 -4.90025
v 8.46973 0.64500 -4.89000
v 8.48748 0.59550 -4.90025
v 8.53035 0.57500 -4.92500
v 8.57322 0.59550 -4.94975
v 9.16488 0.64500 -3.79622
v 9.14594 0.69450 -3.78837
v 9.10021 0.71500 -3.76943
v 9.05448 0.69450 -3.75049
v 9.03554 0.64500 -3.74264
v 9.05448 0.59550 -3.75049
v 9.10021 0.57500 -3.76943
v 9.14594 0.59550 -3.78837
v 9.58198 0.64500 -2.56748
v 9.56218 0.69450 -2.56218
v 9.51437 0.71500 -2.54937
v 9.46656 0.69450 -2.53656
v 9.44675 0.64500 -2.53125
v 9.46656 0.59550 -2.53656
v 9.51437 0.57500 -2.54937
v 9.56218 0.59550 -2.56218
v 9.83513 0.64500 -1.29482
v 9.81481 0.69450 -1.29214
v 9.76573 0.71500 -1.28568
v 9.71666 0.69450 -1.27922
v 9.69633 0.64500 -1.27655
v 9.71666 0.59550 -1.27922
v 9.76573 0.57500 -1.28568
v 9.81481 0.59550 -1.29214
v 10.94042 0.58222 0.00000
v 10.87000 0.58222 0.17000
v 10.70000 0.58222 0.24042
v 10.53000 0.58222 0.17000
v 10.45958 0.58222 0.00000
v 10.53000 0.58222 -0.17000
v 10.70000 0.58222 -0.24042
v 10.87000 0.58222 -0.17000
v 11.04000 0.66000 0.00000
v 10.94042 0.66000 0.24042
v 10.70000 0.66000 0.34000
v 10.45958 0.66000 0.24042
v 10.36000 0.66000 0.00000
v 10.45958 0.66000 -0.24042
v 10.70000 0.66000 -0.34000
v 10.94042 0.66000 -0.24042
v 10.94042 0.73778 0.00000
v 10.87000 0.73778 0.17000
v 10.70000 0.73778 0.24042
v 10.53000 0.73778 0.17000
v 10.45958 0.73778 0.00000
v 10.53000 0.73778 -0.17000
v 10.70000 0.73778 -0.24042
v 10.87000 0.73778 -0.17000
v 10.70000 0.55000 0.00000
v 10.70000 0.77000 0.00000
v 10.12593 0.58222 4.09471
v 10.05551 0.58222 4.26471
v 9.88551 0.58222 4.33513
v 9.71551 0.58222 4.26471
v 9.64509 0.58222 4.09471
v 9.71551 0.58222 3.92471
v 9.88551 0.58222 3.85430
v 10.05551 0.58222 3.92471
v 10.22551 0.66000 4.09471
v 10.12593 0.66000 4.33513
v 9.88551 0.66000 4.43471
v 9.64509 0.66000 4.33513
v 9.54551 0.66000 4.09471
v 9.64509 0.66000 3.85430
v 9.88551 0.66000 3.75471
v 10.12593 0.66000 3.85430
v 10.12593 0.73778 4.09471
v 10.05551 0.73778 4.26471
v 9.88551 0.73778 4.33513
v 9.71551 0.73778 4.26471
v 9.64509 0.73778 4.09471
v 9.71551 0.73778 3.92471
v 9.88551 0.73778 3.85430
v 10.05551 0.73778 3.92471
v 9.88551 0.55000 4.09471
v 9.88551 0.77000 4.09471
v 7.80646 0.58222 7.56604
v 7.73604 0.58222 7.73604
v 7.56604 0.58222 7.80646
v 7.39604 0.58222 7.73604
v 7.32563 0.58222 7.56604
v 7.39604 0.58222 7.39604
v 7.56604 0.58222 7.32563
v 7.73604 0.58222 7.39604
v 7.90604 0.66000 7.56604
v 7.80646 0.66000 7.80646
v 7.56604 0.66000 7.90604
v 7.32563 0.66000 7.80646
v 7.22604 0.66000 7.56604
v 7.32563 0.66000 7.32563
v 7.56604 0.66000 7.22604
v 7.80646 0.66000 7.32563
v 7.80646 0.73778 7.56604
v 7.73604 0.73778 7.73604
v 7.56604 0.73778 7.80646
v 7.39604 0.73778 7.73604
v 7.32563 0.73778 7.56604
v 7.39604 0.73778 7.39604
v 7.56604 0.73778 7.32563
v 7.73604 0.73778 7.39604
v 7.56604 0.55000 7.56604
v 7.56604 0.77000 7.56604
v 4.33513 0.58222 9.88551
v 4.26471 0.58222 10.05551
v 4.09471 0.58222 10.12593
v 3.92471 0.58222 10.05551
v 3.85430 0.58222 9.88551
v 3.92471 0.58222 9.71551
v 4.09471 0.58222 9.64509
v 4.26471 0.58222 9.71551
v 4.43471 0.66000 9.88551
v 4.33513 0.66000 10.12593
v 4.09471 0.66000 10.22551
v 3.85430 0.66000 10.12593
v 3.75471 0.66000 9.88551
v 3.85430 0.66000 9.64509
v 4.09471 0.66000 9.54551
v 4.33513 0.66000 9.64509
v 4.33513 0.73778 9.88551
v 4.26471 0.73778 10.05551
v 4.09471 0.73778 10.12593
v 3.92471 0.73778 10.05551
v 3.85430 0.73778 9.88551
v 3.92471 0.73778 9.71551
v 4.09471 0.73778 9.64509
v 4.26471 0.73778 9.71551
v 4.09471 0.55000 9.88551
v 4.09471 0.77000 9.88551
v 0.24042 0.58222 10.70000
v 0.17000 0.58222 10.87000
v 0.00000 0.58222 10.94042
v -0.17000 0.58222 10.87000
v -0.24042 0.58222 10.70000
v -0.17000 0.58222 10.53000
v 0.00000 0.58222 10.45958
v 0.17000 0.58222 10.53000
v 0.34000 0.66000 10.70000
v 0.24042 0.66000 10.94042
v 0.00000 0.66000 11.04000
v -0.24042 0.66000 10.94042
v -0.34000 0.66000 10.70000
v -0.24042 0.66000 10.45958
v 0.00000 0.66000 10.36000
v 0.24042 0.66000 10.45958
v 0.24042 0.73778 10.70000
v 0.17000 0.73778 10.87000
v 0.00000 0.73778 10.94042
v -0.17000 0.73778 10.87000
v -0.24042 0.73778 10.70000
v -0.17000 0.73778 10.53000
v 0.00000 0.73778 10.45958
v 0.17000 0.73778 10.53000
v 0.00000 0.55000 10.70000
v 0.00000 0.77000 10.70000
v -3.85430 0.58222 9.88551
v -3.92471 0.58222 10.05551
v -4.09471 0.58222 10.12593
v -4.26471 0.58222 10.05551
v -4.33513 0.58222 9.88551
v -4.26471 0.58222 9.71551
v -4.09471 0.58222 9.64509
v -3.92471 0.58222 9.71551
v -3.75471 0.66000 9.88551
v -3.85430 0.66000 10.12593
v -4.09471 0.66000 10.22551
v -4.33513 0.66000 10.12593
v -4.43471 0.66000 9.88551
v -4.33513 0.66000 9.64509
v -4.09471 0.66000 9.54551
v -3.85430 0.66000 9.64509
v -3.85430 0.73778 9.88551
v -3.92471 0.73778 10.05551
v -4.09471 0.73778 10.12593
v -4.26471 0.73778 10.05551
v -4.33513 0.73778 9.88551
v -4.26471 0.73778 9.71551
v -4.09471 0.73778 9.64509
v -3.92471 0.73778 9.71551
v -4.09471 0.55000 9.88551
v -4.09471 0.77000 9.88551
v -7.32563 0.58222 7.56604
v -7.39604 0.58222 7.73604
v -7.56604 0.58222 7.80646
v -7.73604 0.58222 7.73604
v -7.80646 0.58222 7.56604
v -7.73604 0.58222 7.39604
v -7.56604 0.58222 7.32563
v -7.39604 0.58222 7.39604
v -7.22604 0.66000 7.56604
v -7.32563 0.66000 7.80646
v -7.56604 0.66000 7.90604
v -7.80646 0.66000 7.80646
v -7.90604 0.66000 7.56604
v -7.80646 0.66000 7.32563
v -7.56604 0.66000 7.22604
v -7.32563 0.66000 7.32563
v -7.32563 0.73778 7.56604
v -7.39604 0.73778 7.73604
v -7.56604 0.73778 7.80646
v -7.73604 0.73778 7.73604
v -7.80646 0.73778 7.56604
v -7.73604 0.73778 7.39604
v -7.56604 0.73778 7.32563
v -7.39604 0.73778 7.39604
v -7.56604 0.55000 7.56604
v -7.56604 0.77000 7.56604
v -9.64509 0.58222 4.09471
v -9.71551 0.58222 4.26471
v -9.88551 0.58222 4.33513
v -10.05551 0.58222 4.26471
v -10.12593 0.58222 4.09471
v -10.05551 0.58222 3.92471
v -9.88551 0.58222 3.85430
v -9.71551 0.58222 3.92471
v -9.54551 0.66000 4.09471
v -9.64509 0.66000 4.33513
v -9.88551 0.66000 4.43471
v -10.12593 0.66000 4.33513
v -10.22551 0.66000 4.09471
v -10.12593 0.66000 3.85430
v -9.88551 0.66000 3.75471
v -9.64509 0.66000 3.85430
v -9.64509 0.73778 4.09471
v -9.71551 0.73778 4.26471
v -9.88551 0.73778 4.33513
v -10.05551 0.73778 4.26471
v -10.12593 0.73778 4.09471
v -10.05551 0.73778 3.92471
v -9.88551 0.73778 3.85430
v -9.71551 0.73778 3.92471
v -9.88551 0.55000 4.09471
v -9.88551 0.77000 4.09471
v -10.45958 0.58222 0.00000
v -10.53000 0.58222 0.17000
v -10.70000 0.58222 0.24042
v -10.87000 0.58222 0.17000
v -10.94042 0.58222 0.00000
v -10.87000 0.58222 -0.17000
v -10.70000 0.58222 -0.24042
v -10.53000 0.58222 -0.17000
v -10.36000 0.66000 0.00000
v -10.45958 0.66000 0.24042
v -10.70000 0.66000 0.34000
v -10.94042 0.66000 0.24042
v -11.04000 0.66000 0.00000
v -10.94042 0.66000 -0.24042
v -10.70000 0.66000 -0.34000
v -10.45958 0.66000 -0.24042
v -10.45958 0.73778 0.00000
v -10.53000 0.73778 0.17000
v -10.70000 0.73778 0.24042
v -10.87000 0.73778 0.17000
v -10.94042 0.73778 0.00000
v -10.87000 0.73778 -0.17000
v -10.70000 0.73778 -0.24042
v -10.53000 0.73778 -0.17000
v -10.70000 0.55000 0.00000
v -10.70000 0.77000 0.00000
v -9.64509 0.58222 -4.09471
v -9.71551 0.58222 -3.92471
v -9.88551 0.58222 -3.85430
v -10.05551 0.58222 -3.92471
v -10.12593 0.58222 -4.09471
v -10.05551 0.58222 -4.26471
v -9.88551 0.58222 -4.33513
v -9.71551 0.58222 -4.26471
v -9.54551 0.66000 -4.09471
v -9.64509 0.66000 -3.85430
v -9.88551 0.66000 -3.75471
v -10.12593 0.66000 -3.85430
v -10.22551 0.66000 -4.09471
v -10.12593 0.66000 -4.33513
v -9.88551 0.66000 -4.43471
v -9.64509 0.66000 -4.33513
v -9.64509 0.73778 -4.09471
v -9.71551 0.73778 -3.92471
v -9.88551 0.73778 -3.85430
v -10.05551 0.73778 -3.92471
v -10.12593 0.73778 -4.09471
v -10.05551 0.73778 -4.26471
v -9.88551 0.73778 -4.33513
v -9.71551 0.73778 -4.26471
v -9.88551 0.55000 -4.09471
v -9.88551 0.77000 -4.09471
v -7.32563 0.58222 -7.56604
v -7.39604 0.58222 -7.39604
v -7.56604 0.58222 -7.32563
v -7.73604 0.58222 -7.39604
v -7.80646 0.58222 -7.56604
v -7.73604 0.58222 -7.73604
v -7.56604 0.58222 -7.80646
v -7.39604 0.58222 -7.73604
v -7.22604 0.66000 -7.56604
v -7.32563 0.66000 -7.32563
v -7.56604 0.66000 -7.22604
v -7.80646 0.66000 -7.32563
v -7.90604 0.66000 -7.56604
v -7.80646 0.66000 -7.80646
v -7.56604 0.66000 -7.90604
v -7.32563 0.66000 -7.80646
v -7.32563 0.73778 -7.56604
v -7.39604 0.73778 -7.39604
v -7.56604 0.73778 -7.32563
v -7.73604 0.73778 -7.39604
v -7.80646 0.73778 -7.56604
v -7.73604 0.73778 -7.73604
v -7.56604 0.73778 -7.80646
v -7.39604 0.73778 -7.73604
v -7.56604 0.55000 -7.56604
v -7.56604 0.77000 -7.56604
v -3.85430 0.58222 -9.88551
v -3.92471 0.58222 -9.71551
v -4.09471 0.58222 -9.64509
v -4.26471 0.58222 -9.71551
v -4.33513 0.58222 -9.88551
v -4.26471 0.58222 -10.05551
v -4.09471 0.58222 -10.12593
v -3.92471 0.58222 -10.05551
v -3.75471 0.66000 -9.88551
v -3.85430 0.66000 -9.64509
v -4.09471 0.66000 -9.54551
v -4.33513 0.66000 -9.64509
v -4.43471 0.66000 -9.88551
v -4.33513 0.66000 -10.12593
v -4.09471 0.66000 -10.22551
v -3.85430 0.66000 -10.12593
v -3.85430 0.73778 -9.88551
v -3.92471 0.73778 -9.71551
v -4.09471 0.73778 -9.64509
v -4.26471 0.73778 -9.71551
v -4.33513 0.73778 -9.88551
v -4.26471 0.73778 -10.05551
v -4.09471 0.73778 -10.12593
v -3.92471 0.73778 -10.05551
v -4.09471 0.55000 -9.88551
v -4.09471 0.77000 -9.88551
v 0.24042 0.58222 -10.70000
v 0.17000 0.58222 -10.53000
v -0.00000 0.58222 -10.45958
v -0.17000 0.58222 -10.53000
v -0.24042 0.58222 -10.70000
v -0.17000 0.58222 -10.87000
v -0.00000 0.58222 -10.94042
v 0.17000 0.58222 -10.87000
v 0.34000 0.66000 -10.70000
v 0.24042 0.66000 -10.45958
v -0.00000 0.66000 -10.36000
v -0.24042 0.66000 -10.45958
v -0.34000 0.66000 -10.70000
v -0.24042 0.66000 -10.94042
v -0.00000 0.66000 -11.04000
v 0.24042 0.66000 -10.94042
v 0.24042 0.73778 -10.70000
v 0.17000 0.73778 -10.53000
v -0.00000 0.73778 -10.45958
v -0.17000 0.73778 -10.53000
v -0.24042 0.73778 -10.70000
v -0.17000 0.73778 -10.87000
v -0.00000 0.73778 -10.94042
v 0.17000 0.73778 -10.87000
v -0.00000 0.55000 -10.70000
v -0.00000 0.77000 -10.70000
v 4.33513 0.58222 -9.88551
v 4.26471 0.58222 -9.71551
v 4.09471 0.58222 -9.64509
v 3.92471 0.58222 -9.71551
v 3.85430 0.58222 -9.88551
v 3.92471 0.58222 -10.05551
v 4.09471 0.58222 -10.12593
v 4.26471 0.58222 -10.05551
v 4.43471 0.66000 -9.88551
v 4.33513 0.66000 -9.64509
v 4.09471 0.66000 -9.54551
v 3.85430 0.66000 -9.64509
v 3.75471 0.66000 -9.88551
v 3.85430 0.66000 -10.12593
v 4.09471 0.66000 -10.22551
v 4.33513 0.66000 -10.12593
v 4.33513 0.73778 -9.88551
v 4.26471 0.73778 -9.71551
v 4.09471 0.73778 -9.64509
v 3.92471 0.73778 -9.71551
v 3.85430 0.73778 -9.88551
v 3.92471 0.73778 -10.05551
v 4.09471 0.73778 -10.12593
v 4.26471 0.73778 -10.05551
v 4.09471 0.55000 -9.88551
v 4.09471 0.77000 -9.88551
v 7.80646 0.58222 -7.56604
v 7.73604 0.58222 -7.39604
v 7.56604 0.58222 -7.32563
v 7.39604 0.58222 -7.39604
v 7.32563 0.58222 -7.56604
v 7.39604 0.58222 -7.73604
v 7.56604 0.58222 -7.80646
v 7.73604 0.58222 -7.73604
v 7.90604 0.66000 -7.56604
v 7.80646 0.66000 -7.32563
v 7.56604 0.66000 -7.22604
v 7.32563 0.66000 -7.32563
v 7.22604 0.66000 -7.56604
v 7.32563 0.66000 -7.80646
v 7.56604 0.66000 -7.90604
v 7.80646 0.66000 -7.80646
v 7.80646 0.73778 -7.56604
v 7.73604 0.73778 -7.39604
v 7.56604 0.73778 -7.32563
v 7.39604 0.73778 -7.39604
v 7.32563 0.73778 -7.56604
v 7.39604 0.73778 -7.73604
v 7.56604 0.73778 -7.80646
v 7.73604 0.73778 -7.73604
v 7.56604 0.55000 -7.56604
v 7.56604 0.77000 -7.56604
v 10.12593 0.58222 -4.09471
v 10.05551 0.58222 -3.92471
v 9.88551 0.58222 -3.85430
v 9.71551 0.58222 -3.92471
v 9.64509 0.58222 -4.09471
v 9.71551 0.58222 -4.26471
v 9.88551 0.58222 -4.33513
v 10.05551 0.58222 -4.26471
v 10.22551 0.66000 -4.09471
v 10.12593 0.66000 -3.85430
v 9.88551 0.66000 -3.75471
v 9.64509 0.66000 -3.85430
v 9.54551 0.66000 -4.09471
v 9.64509 0.66000 -4.33513
v 9.88551 0.66000 -4.43471
v 10.12593 0.66000 -4.33513
v 10.12593 0.73778 -4.09471
v 10.05551 0.73778 -3.92471
v 9.88551 0.73778 -3.85430
v 9.71551 0.73778 -3.92471
v 9.64509 0.73778 -4.09471
v 9.71551 0.73778 -4.26471
v 9.88551 0.73778 -4.33513
v 10.05551 0.73778 -4.26471
v 9.88551 0.55000 -4.09471
v 9.88551 0.77000 -4.09471
usemtl wood
f 65 66 2 1
f 66 67 3 2
f 67 68 4 3
f 68 69 5 4
f 69 70 6 5
f 70 71 7 6
f 71 72 8 7
f 72 73 9 8
f 73 74 10 9
f 74 75 11 10
f 75 76 12 11
f 76 77 13 12
f 77 78 14 13
f 78 79 15 14
f 79 80 16 15
f 80 81 17 16
f 81 82 18 17
f 82 83 19 18
f 83 84 20 19
f 84 85 21 20
f 85 86 22 21
f 86 87 23 22
f 87 88 24 23
f 88 89 25 24
f 89 90 26 25
f 90 91 27 26
f 91 92 28 27
f 92 93 29 28
f 93 94 30 29
f 94 95 31 30
f 95 96 32 31
f 96 97 33 32
f 97 98 34 33
f 98 99 35 34
f 99 100 36 35
f 100 101 37 36
f 101 102 38 37
f 102 103 39 38
f 103 104 40 39
f 104 105 41 40
f 105 106 42 41
f 106 107 43 42
f 107 108 44 43
f 108 109 45 44
f 109 110 46 45
f 110 111 47 46
f 111 112 48 47
f 112 113 49 48
f 113 114 50 49
f 114 115 51 50
f 115 116 52 51
f 116 117 53 52
f 117 118 54 53
f 118 119 55 54
f 119 120 56 55
f 120 121 57 56
f 121 122 58 57
f 122 123 59 58
f 123 124 60 59
f 124 125 61 60
f 125 126 62 61
f 126 127 63 62
f 127 128 64 63
f 128 65 1 64
usemtl cream
f 129 130 66 65
f 130 131 67 66
f 131 132 68 67
f 132 133 69 68
f 133 134 70 69
f 134 135 71 70
f 135 136 72 71
f 136 137 73 72
f 137 138 74 73
f 138 139 75 74
f 139 140 76 75
f 140 141 77 76
f 141 142 78 77
f 142 143 79 78
f 143 144 80 79
f 144 145 81 80
f 145 146 82 81
f 146 147 83 82
f 147 148 84 83
f 148 149 85 84
f 149 150 86 85
f 150 151 87 86
f 151 152 88 87
f 152 153 89 88
f 153 154 90 89
f 154 155 91 90
f 155 156 92 91
f 156 157 93 92
f 157 158 94 93
f 158 159 95 94
f 159 160 96 95
f 160 161 97 96
f 161 162 98 97
f 162 163 99 98
f 163 164 100 99
f 164 165 101 100
f 165 166 102 101
f 166 167 103 102
f 167 168 104 103
f 168 169 105 104
f 169 170 106 105
f 170 171 107 106
f 171 172 108 107
f 172 173 109 108
f 173 174 110 109
f 174 175 111 110
f 175 176 112 111
f 176 177 113 112
f 177 178 114 113
f 178 179 115 114
f 179 180 116 115
f 180 181 117 116
f 181 182 118 117
f 182 183 119 118
f 183 184 120 119
f 184 185 121 120
f 185 186 122 121
f 186 187 123 122
f 187 188 124 123
f 188 189 125 124
f 189 190 126 125
f 190 191 127 126
f 191 192 128 127
f 192 129 65 128
f 257 258 194 193
f 258 259 195 194
f 259 260 196 195
f 260 261 197 196
f 261 262 198 197
f 262 263 199 198
f 263 264 200 199
f 264 265 201 200
f 265 266 202 201
f 266 267 203 202
f 267 268 204 203
f 268 269 205 204
f 269 270 206 205
f 270 271 207 206
f 271 272 208 207
f 272 273 209 208
f 273 274 210 209
f 274 275 211 210
f 275 276 212 211
f 276 277 213 212
f 277 278 214 213
f 278 279 215 214
f 279 280 216 215
f 280 281 217 216
f 281 282 218 217
f 282 283 219 218
f 283 284 220 219
f 284 285 221 220
f 285 286 222 221
f 286 287 223 222
f 287 288 224 223
f 288 289 225 224
f 289 290 226 225
f 290 291 227 226
f 291 292 228 227
f 292 293 229 228
f 293 294 230 229
f 294 295 231 230
f 295 296 232 231
f 296 297 233 232
f 297 298 234 233
f 298 299 235 234
f 299 300 236 235
f 300 301 237 236
f 301 302 238 237
f 302 303 239 238
f 303 304 240 239
f 304 305 241 240
f 305 306 242 241
f 306 307 243 242
f 307 308 244 243
f 308 309 245 244
f 309 310 246 245
f 310 311 247 246
f 311 312 248 247
f 312 313 249 248
f 313 314 250 249
f 314 315 251 250
f 315 316 252 251
f 316 317 253 252
f 317 318 254 253
f 318 319 255 254
f 319 320 256 255
f 320 257 193 256
f 1179 1180 1203
f 1196 1195 1204
f 1180 1181 1203
f 1197 1196 1204
f 1181 1182 1203
f 1198 1197 1204
f 1182 1183 1203
f 1199 1198 1204
f 1183 1184 1203
f 1200 1199 1204
f 1184 1185 1203
f 1201 1200 1204
f 1185 1186 1203
f 1202 1201 1204
f 1186 1179 1203
f 1195 1202 1204
f 1187 1188 1180 1179
f 1188 1189 1181 1180
f 1189 1190 1182 1181
f 1190 1191 1183 1182
f 1191 1192 1184 1183
f 1192 1193 1185 1184
f 1193 1194 1186 1185
f 1194 1187 1179 1186
f 1195 1196 1188 1187
f 1196 1197 1189 1188
f 1197 1198 1190 1189
f 1198 1199 1191 1190
f 1199 1200 1192 1191
f 1200 1201 1193 1192
f 1201 1202 1194 1193
f 1202 1195 1187 1194
f 1231 1232 1255
f 1248 1247 1256
f 1232 1233 1255
f 1249 1248 1256
f 1233 1234 1255
f 1250 1249 1256
f 1234 1235 1255
f 1251 1250 1256
f 1235 1236 1255
f 1252 1251 1256
f 1236 1237 1255
f 1253 1252 1256
f 1237 1238 1255
f 1254 1253 1256
f 1238 1231 1255
f 1247 1254 1256
f 1239 1240 1232 1231
f 1240 1241 1233 1232
f 1241 1242 1234 1233
f 1242 1243 1235 1234
f 1243 1244 1236 1235
f 1244 1245 1237 1236
f 1245 1246 1238 1237
f 1246 1239 1231 1238
f 1247 1248 1240 1239
f 1248 1249 1241 1240
f 1249 1250 1242 1241
f 1250 1251 1243 1242
f 1251 1252 1244 1243
f 1252 1253 1245 1244
f 1253 1254 1246 1245
f 1254 1247 1239 1246
f 1283 1284 1307
f 1300 1299 1308
f 1284 1285 1307
f 1301 1300 1308
f 1285 1286 1307
f 1302 1301 1308
f 1286 1287 1307
f 1303 1302 1308
f 1287 1288 1307
f 1304 1303 1308
f 1288 1289 1307
f 1305 1304 1308
f 1289 1290 1307
f 1306 1305 1308
f 1290 1283 1307
f 1299 1306 1308
f 1291 1292 1284 1283
f 1292 1293 1285 1284
f 1293 1294 1286 1285
f 1294 1295 1287 1286
f 1295 1296 1288 1287
f 1296 1297 1289 1288
f 1297 1298 1290 1289
f 1298 1291 1283 1290
f 1299 1300 1292 1291
f 1300 1301 1293 1292
f 1301 1302 1294 1293
f 1302 1303 1295 1294
f 1303 1304 1296 1295
f 1304 1305 1297 1296
f 1305 1306 1298 1297
f 1306 1299 1291 1298
f 1335 1336 1359
f 1352 1351 1360
f 1336 1337 1359
f 1353 1352 1360
f 1337 1338 1359
f 1354 1353 1360
f 1338 1339 1359
f 1355 1354 1360
f 1339 1340 1359
f 1356 1355 1360
f 1340 1341 1359
f 1357 1356 1360
f 1341 1342 1359
f 1358 1357 1360
f 1342 1335 1359
f 1351 1358 1360
f 1343 1344 1336 1335
f 1344 1345 1337 1336
f 1345 1346 1338 1337
f 1346 1347 1339 1338
f 1347 1348 1340 1339
f 1348 1349 1341 1340
f 1349 1350 1342 1341
f 1350 1343 1335 1342
f 1351 1352 1344 1343
f 1352 1353 1345 1344
f 1353 1354 1346 1345
f 1354 1355 1347 1346
f 1355 1356 1348 1347
f 1356 1357 1349 1348
f 1357 1358 1350 1349
f 1358 1351 1343 1350
f 1387 1388 1411
f 1404 1403 1412
f 1388 1389 1411
f 1405 1404 1412
f 1389 1390 1411
f 1406 1405 1412
f 1390 1391 1411
f 1407 1406 1412
f 1391 1392 1411
f 1408 1407 1412
f 1392 1393 1411
f 1409 1408 1412
f 1393 1394 1411
f 1410 1409 1412
f 1394 1387 1411
f 1403 1410 1412
f 1395 1396 1388 1387
f 1396 1397 1389 1388
f 1397 1398 1390 1389
f 1398 1399 1391 1390
f 1399 1400 1392 1391
f 1400 1401 1393 1392
f 1401 1402 1394 1393
f 1402 1395 1387 1394
f 1403 1404 1396 1395
f 1404 1405 1397 1396
f 1405 1406 1398 1397
f 1406 1407 1399 1398
f 1407 1408 1400 1399
f 1408 1409 1401 1400
f 1409 1410 1402 1401
f 1410 1403 1395 1402
f 1439 1440 1463
f 1456 1455 1464
f 1440 1441 1463
f 1457 1456 1464
f 1441 1442 1463
f 1458 1457 1464
f 1442 1443 1463
f 1459 1458 1464
f 1443 1444 1463
f 1460 1459 1464
f 1444 1445 1463
f 1461 1460 1464
f 1445 1446 1463
f 1462 1461 1464
f 1446 1439 1463
f 1455 1462 1464
f 1447 1448 1440 1439
f 1448 1449 1441 1440
f 1449 1450 1442 1441
f 1450 1451 1443 1442
f 1451 1452 1444 1443
f 1452 1453 1445 1444
f 1453 1454 1446 1445
f 1454 1447 1439 1446
f 1455 1456 1448 1447
f 1456 1457 1449 1448
f 1457 1458 1450 1449
f 1458 1459 1451 1450
f 1459 1460 1452 1451
f 1460 1461 1453 1452
f 1461 1462 1454 1453
f 1462 1455 1447 1454
f 1491 1492 1515
f 1508 1507 1516
f 1492 1493 1515
f 1509 1508 1516
f 1493 1494 1515
f 1510 1509 1516
f 1494 1495 1515
f 1511 1510 1516
f 1495 1496 1515
f 1512 1511 1516
f 1496 1497 1515
f 1513 1512 1516
f 1497 1498 1515
f 1514 1513 1516
f 1498 1491 1515
f 1507 1514 1516
f 1499 1500 1492 1491
f 1500 1501 1493 1492
f 1501 1502 1494 1493
f 1502 1503 1495 1494
f 1503 1504 1496 1495
f 1504 1505 1497 1496
f 1505 1506 1498 1497
f 1506 1499 1491 1498
f 1507 1508 1500 1499
f 1508 1509 1501 1500
f 1509 1510 1502 1501
f 1510 1511 1503 1502
f 1511 1512 1504 1503
f 1512 1513 1505 1504
f 1513 1514 1506 1505
f 1514 1507 1499 1506
f 1543 1544 1567
f 1560 1559 1568
f 1544 1545 1567
f 1561 1560 1568
f 1545 1546 1567
f 1562 1561 1568
f 1546 1547 1567
f 1563 1562 1568
f 1547 1548 1567
f 1564 1563 1568
f 1548 1549 1567
f 1565 1564 1568
f 1549 1550 1567
f 1566 1565 1568
f 1550 1543 1567
f 1559 1566 1568
f 1551 1552 1544 1543
f 1552 1553 1545 1544
f 1553 1554 1546 1545
f 1554 1555 1547 1546
f 1555 1556 1548 1547
f 1556 1557 1549 1548
f 1557 1558 1550 1549
f 1558 1551 1543 1550
f 1559 1560 1552 1551
f 1560 1561 1553 1552
f 1561 1562 1554 1553
f 1562 1563 1555 1554
f 1563 1564 1556 1555
f 1564 1565 1557 1556
f 1565 1566 1558 1557
f 1566 1559 1551 1558
usemtl coral
f 193 194 130 129
f 194 195 131 130
f 195 196 132 131
f 196 197 133 132
f 197 198 134 133
f 198 199 135 134
f 199 200 136 135
f 200 201 137 136
f 201 202 138 137
f 202 203 139 138
f 203 204 140 139
f 204 205 141 140
f 205 206 142 141
f 206 207 143 142
f 207 208 144 143
f 208 209 145 144
f 209 210 146 145
f 210 211 147 146
f 211 212 148 147
f 212 213 149 148
f 213 214 150 149
f 214 215 151 150
f 215 216 152 151
f 216 217 153 152
f 217 218 154 153
f 218 219 155 154
f 219 220 156 155
f 220 221 157 156
f 221 222 158 157
f 222 223 159 158
f 223 224 160 159
f 224 225 161 160
f 225 226 162 161
f 226 227 163 162
f 227 228 164 163
f 228 229 165 164
f 229 230 166 165
f 230 231 167 166
f 231 232 168 167
f 232 233 169 168
f 233 234 170 169
f 234 235 171 170
f 235 236 172 171
f 236 237 173 172
f 237 238 174 173
f 238 239 175 174
f 239 240 176 175
f 240 241 177 176
f 241 242 178 177
f 242 243 179 178
f 243 244 180 179
f 244 245 181 180
f 245 246 182 181
f 246 247 183 182
f 247 248 184 183
f 248 249 185 184
f 249 250 186 185
f 250 251 187 186
f 251 252 188 187
f 252 253 189 188
f 253 254 190 189
f 254 255 191 190
f 255 256 192 191
f 256 193 129 192
f 769 770 778 777
f 770 771 779 778
f 771 772 780 779
f 772 773 781 780
f 773 774 782 781
f 774 775 783 782
f 775 776 784 783
f 776 769 777 784
f 777 778 786 785
f 778 779 787 786
f 779 780 788 787
f 780 781 789 788
f 781 782 790 789
f 782 783 791 790
f 783 784 792 791
f 784 777 785 792
f 785 786 794 793
f 786 787 795 794
f 787 788 796 795
f 788 789 797 796
f 789 790 798 797
f 790 791 799 798
f 791 792 800 799
f 792 785 793 800
f 793 794 802 801
f 794 795 803 802
f 795 796 804 803
f 796 797 805 804
f 797 798 806 805
f 798 799 807 806
f 799 800 808 807
f 800 793 801 808
f 801 802 810 809
f 802 803 811 810
f 803 804 812 811
f 804 805 813 812
f 805 806 814 813
f 806 807 815 814
f 807 808 816 815
f 808 801 809 816
f 809 810 818 817
f 810 811 819 818
f 811 812 820 819
f 812 813 821 820
f 813 814 822 821
f 814 815 823 822
f 815 816 824 823
f 816 809 817 824
f 817 818 826 825
f 818 819 827 826
f 819 820 828 827
f 820 821 829 828
f 821 822 830 829
f 822 823 831 830
f 823 824 832 831
f 824 817 825 832
f 825 826 834 833
f 826 827 835 834
f 827 828 836 835
f 828 829 837 836
f 829 830 838 837
f 830 831 839 838
f 831 832 840 839
f 832 825 833 840
f 833 834 842 841
f 834 835 843 842
f 835 836 844 843
f 836 837 845 844
f 837 838 846 845
f 838 839 847 846
f 839 840 848 847
f 840 833 841 848
f 841 842 850 849
f 842 843 851 850
f 843 844 852 851
f 844 845 853 852
f 845 846 854 853
f 846 847 855 854
f 847 848 856 855
f 848 841 849 856
f 849 850 858 857
f 850 851 859 858
f 851 852 860 859
f 852 853 861 860
f 853 854 862 861
f 854 855 863 862
f 855 856 864 863
f 856 849 857 864
f 857 858 866 865
f 858 859 867 866
f 859 860 868 867
f 860 861 869 868
f 861 862 870 869
f 862 863 871 870
f 863 864 872 871
f 864 857 865 872
f 865 866 874 873
f 866 867 875 874
f 867 868 876 875
f 868 869 877 876
f 869 870 878 877
f 870 871 879 878
f 871 872 880 879
f 872 865 873 880
f 873 874 882 881
f 874 875 883 882
f 875 876 884 883
f 876 877 885 884
f 877 878 886 885
f 878 879 887 886
f 879 880 888 887
f 880 873 881 888
f 881 882 890 889
f 882 883 891 890
f 883 884 892 891
f 884 885 893 892
f 885 886 894 893
f 886 887 895 894
f 887 888 896 895
f 888 881 889 896
f 889 890 898 897
f 890 891 899 898
f 891 892 900 899
f 892 893 901 900
f 893 894 902 901
f 894 895 903 902
f 895 896 904 903
f 896 889 897 904
f 897 898 906 905
f 898 899 907 906
f 899 900 908 907
f 900 901 909 908
f 901 902 910 909
f 902 903 911 910
f 903 904 912 911
f 904 897 905 912
f 905 906 914 913
f 906 907 915 914
f 907 908 916 915
f 908 909 917 916
f 909 910 918 917
f 910 911 919 918
f 911 912 920 919
f 912 905 913 920
f 913 914 922 921
f 914 915 923 922
f 915 916 924 923
f 916 917 925 924
f 917 918 926 925
f 918 919 927 926
f 919 920 928 927
f 920 913 921 928
f 921 922 930 929
f 922 923 931 930
f 923 924 932 931
f 924 925 933 932
f 925 926 934 933
f 926 927 935 934
f 927 928 936 935
f 928 921 929 936
f 929 930 938 937
f 930 931 939 938
f 931 932 940 939
f 932 933 941 940
f 933 934 942 941
f 934 935 943 942
f 935 936 944 943
f 936 929 937 944
f 937 938 946 945
f 938 939 947 946
f 939 940 948 947
f 940 941 949 948
f 941 942 950 949
f 942 943 951 950
f 943 944 952 951
f 944 937 945 952
f 945 946 954 953
f 946 947 955 954
f 947 948 956 955
f 948 949 957 956
f 949 950 958 957
f 950 951 959 958
f 951 952 960 959
f 952 945 953 960
f 953 954 962 961
f 954 955 963 962
f 955 956 964 963
f 956 957 965 964
f 957 958 966 965
f 958 959 967 966
f 959 960 968 967
f 960 953 961 968
f 961 962 970 969
f 962 963 971 970
f 963 964 972 971
f 964 965 973 972
f 965 966 974 973
f 966 967 975 974
f 967 968 976 975
f 968 961 969 976
f 969 970 978 977
f 970 971 979 978
f 971 972 980 979
f 972 973 981 980
f 973 974 982 981
f 974 975 983 982
f 975 976 984 983
f 976 969 977 984
f 977 978 986 985
f 978 979 987 986
f 979 980 988 987
f 980 981 989 988
f 981 982 990 989
f 982 983 991 990
f 983 984 992 991
f 984 977 985 992
f 985 986 994 993
f 986 987 995 994
f 987 988 996 995
f 988 989 997 996
f 989 990 998 997
f 990 991 999 998
f 991 992 1000 999
f 992 985 993 1000
f 993 994 1002 1001
f 994 995 1003 1002
f 995 996 1004 1003
f 996 997 1005 1004
f 997 998 1006 1005
f 998 999 1007 1006
f 999 1000 1008 1007
f 1000 993 1001 1008
f 1001 1002 1010 1009
f 1002 1003 1011 1010
f 1003 1004 1012 1011
f 1004 1005 1013 1012
f 1005 1006 1014 1013
f 1006 1007 1015 1014
f 1007 1008 1016 1015
f 1008 1001 1009 1016
f 1009 1010 1018 1017
f 1010 1011 1019 1018
f 1011 1012 1020 1019
f 1012 1013 1021 1020
f 1013 1014 1022 1021
f 1014 1015 1023 1022
f 1015 1016 1024 1023
f 1016 1009 1017 1024
f 1017 1018 1026 1025
f 1018 1019 1027 1026
f 1019 1020 1028 1027
f 1020 1021 1029 1028
f 1021 1022 1030 1029
f 1022 1023 1031 1030
f 1023 1024 1032 1031
f 1024 1017 1025 1032
f 1025 1026 1034 1033
f 1026 1027 1035 1034
f 1027 1028 1036 1035
f 1028 1029 1037 1036
f 1029 1030 1038 1037
f 1030 1031 1039 1038
f 1031 1032 1040 1039
f 1032 1025 1033 1040
f 1033 1034 1042 1041
f 1034 1035 1043 1042
f 1035 1036 1044 1043
f 1036 1037 1045 1044
f 1037 1038 1046 1045
f 1038 1039 1047 1046
f 1039 1040 1048 1047
f 1040 1033 1041 1048
f 1041 1042 1050 1049
f 1042 1043 1051 1050
f 1043 1044 1052 1051
f 1044 1045 1053 1052
f 1045 1046 1054 1053
f 1046 1047 1055 1054
f 1047 1048 1056 1055
f 1048 1041 1049 1056
f 1049 1050 1058 1057
f 1050 1051 1059 1058
f 1051 1052 1060 1059
f 1052 1053 1061 1060
f 1053 1054 1062 1061
f 1054 1055 1063 1062
f 1055 1056 1064 1063
f 1056 1049 1057 1064
f 1057 1058 1066 1065
f 1058 1059 1067 1066
f 1059 1060 1068 1067
f 1060 1061 1069 1068
f 1061 1062 1070 1069
f 1062 1063 1071 1070
f 1063 1064 1072 1071
f 1064 1057 1065 1072
f 1065 1066 1074 1073
f 1066 1067 1075 1074
f 1067 1068 1076 1075
f 1068 1069 1077 1076
f 1069 1070 1078 1077
f 1070 1071 1079 1078
f 1071 1072 1080 1079
f 1072 1065 1073 1080
f 1073 1074 1082 1081
f 1074 1075 1083 1082
f 1075 1076 1084 1083
f 1076 1077 1085 1084
f 1077 1078 1086 1085
f 1078 1079 1087 1086
f 1079 1080 1088 1087
f 1080 1073 1081 1088
f 1081 1082 1090 1089
f 1082 1083 1091 1090
f 1083 1084 1092 1091
f 1084 1085 1093 1092
f 1085 1086 1094 1093
f 1086 1087 1095 1094
f 1087 1088 1096 1095
f 1088 1081 1089 1096
f 1089 1090 1098 1097
f 1090 1091 1099 1098
f 1091 1092 1100 1099
f 1092 1093 1101 1100
f 1093 1094 1102 1101
f 1094 1095 1103 1102
f 1095 1096 1104 1103
f 1096 1089 1097 1104
f 1097 1098 1106 1105
f 1098 1099 1107 1106
f 1099 1100 1108 1107
f 1100 1101 1109 1108
f 1101 1102 1110 1109
f 1102 1103 1111 1110
f 1103 1104 1112 1111
f 1104 1097 1105 1112
f 1105 1106 1114 1113
f 1106 1107 1115 1114
f 1107 1108 1116 1115
f 1108 1109 1117 1116
f 1109 1110 1118 1117
f 1110 1111 1119 1118
f 1111 1112 1120 1119
f 1112 1105 1113 1120
f 1113 1114 1122 1121
f 1114 1115 1123 1122
f 1115 1116 1124 1123
f 1116 1117 1125 1124
f 1117 1118 1126 1125
f 1118 1119 1127 1126
f 1119 1120 1128 1127
f 1120 1113 1121 1128
f 1121 1122 1130 1129
f 1122 1123 1131 1130
f 1123 1124 1132 1131
f 1124 1125 1133 1132
f 1125 1126 1134 1133
f 1126 1127 1135 1134
f 1127 1128 1136 1135
f 1128 1121 1129 1136
f 1129 1130 1138 1137
f 1130 1131 1139 1138
f 1131 1132 1140 1139
f 1132 1133 1141 1140
f 1133 1134 1142 1141
f 1134 1135 1143 1142
f 1135 1136 1144 1143
f 1136 1129 1137 1144
f 1137 1138 1146 1145
f 1138 1139 1147 1146
f 1139 1140 1148 1147
f 1140 1141 1149 1148
f 1141 1142 1150 1149
f 1142 1143 1151 1150
f 1143 1144 1152 1151
f 1144 1137 1145 1152
f 1145 1146 770 769
f 1146 1147 771 770
f 1147 1148 772 771
f 1148 1149 773 772
f 1149 1150 774 773
f 1150 1151 775 774
f 1151 1152 776 775
f 1152 1145 769 776
f 1153 1154 1177
f 1170 1169 1178
f 1154 1155 1177
f 1171 1170 1178
f 1155 1156 1177
f 1172 1171 1178
f 1156 1157 1177
f 1173 1172 1178
f 1157 1158 1177
f 1174 1173 1178
f 1158 1159 1177
f 1175 1174 1178
f 1159 1160 1177
f 1176 1175 1178
f 1160 1153 1177
f 1169 1176 1178
f 1161 1162 1154 1153
f 1162 1163 1155 1154
f 1163 1164 1156 1155
f 1164 1165 1157 1156
f 1165 1166 1158 1157
f 1166 1167 1159 1158
f 1167 1168 1160 1159
f 1168 1161 1153 1160
f 1169 1170 1162 1161
f 1170 1171 1163 1162
f 1171 1172 1164 1163
f 1172 1173 1165 1164
f 1173 1174 1166 1165
f 1174 1175 1167 1166
f 1175 1176 1168 1167
f 1176 1169 1161 1168
f 1205 1206 1229
f 1222 1221 1230
f 1206 1207 1229
f 1223 1222 1230
f 1207 1208 1229
f 1224 1223 1230
f 1208 1209 1229
f 1225 1224 1230
f 1209 1210 1229
f 1226 1225 1230
f 1210 1211 1229
f 1227 1226 1230
f 1211 1212 1229
f 1228 1227 1230
f 1212 1205 1229
f 1221 1228 1230
f 1213 1214 1206 1205
f 1214 1215 1207 1206
f 1215 1216 1208 1207
f 1216 1217 1209 1208
f 1217 1218 1210 1209
f 1218 1219 1211 1210
f 1219 1220 1212 1211
f 1220 1213 1205 1212
f 1221 1222 1214 1213
f 1222 1223 1215 1214
f 1223 1224 1216 1215
f 1224 1225 1217 1216
f 1225 1226 1218 1217
f 1226 1227 1219 1218
f 1227 1228 1220 1219
f 1228 1221 1213 1220
f 1257 1258 1281
f 1274 1273 1282
f 1258 1259 1281
f 1275 1274 1282
f 1259 1260 1281
f 1276 1275 1282
f 1260 1261 1281
f 1277 1276 1282
f 1261 1262 1281
f 1278 1277 1282
f 1262 1263 1281
f 1279 1278 1282
f 1263 1264 1281
f 1280 1279 1282
f 1264 1257 1281
f 1273 1280 1282
f 1265 1266 1258 1257
f 1266 1267 1259 1258
f 1267 1268 1260 1259
f 1268 1269 1261 1260
f 1269 1270 1262 1261
f 1270 1271 1263 1262
f 1271 1272 1264 1263
f 1272 1265 1257 1264
f 1273 1274 1266 1265
f 1274 1275 1267 1266
f 1275 1276 1268 1267
f 1276 1277 1269 1268
f 1277 1278 1270 1269
f 1278 1279 1271 1270
f 1279 1280 1272 1271
f 1280 1273 1265 1272
f 1309 1310 1333
f 1326 1325 1334
f 1310 1311 1333
f 1327 1326 1334
f 1311 1312 1333
f 1328 1327 1334
f 1312 1313 1333
f 1329 1328 1334
f 1313 1314 1333
f 1330 1329 1334
f 1314 1315 1333
f 1331 1330 1334
f 1315 1316 1333
f 1332 1331 1334
f 1316 1309 1333
f 1325 1332 1334
f 1317 1318 1310 1309
f 1318 1319 1311 1310
f 1319 1320 1312 1311
f 1320 1321 1313 1312
f 1321 1322 1314 1313
f 1322 1323 1315 1314
f 1323 1324 1316 1315
f 1324 1317 1309 1316
f 1325 1326 1318 1317
f 1326 1327 1319 1318
f 1327 1328 1320 1319
f 1328 1329 1321 1320
f 1329 1330 1322 1321
f 1330 1331 1323 1322
f 1331 1332 1324 1323
f 1332 1325 1317 1324
f 1361 1362 1385
f 1378 1377 1386
f 1362 1363 1385
f 1379 1378 1386
f 1363 1364 1385
f 1380 1379 1386
f 1364 1365 1385
f 1381 1380 1386
f 1365 1366 1385
f 1382 1381 1386
f 1366 1367 1385
f 1383 1382 1386
f 1367 1368 1385
f 1384 1383 1386
f 1368 1361 1385
f 1377 1384 1386
f 1369 1370 1362 1361
f 1370 1371 1363 1362
f 1371 1372 1364 1363
f 1372 1373 1365 1364
f 1373 1374 1366 1365
f 1374 1375 1367 1366
f 1375 1376 1368 1367
f 1376 1369 1361 1368
f 1377 1378 1370 1369
f 1378 1379 1371 1370
f 1379 1380 1372 1371
f 1380 1381 1373 1372
f 1381 1382 1374 1373
f 1382 1383 1375 1374
f 1383 1384 1376 1375
f 1384 1377 1369 1376
f 1413 1414 1437
f 1430 1429 1438
f 1414 1415 1437
f 1431 1430 1438
f 1415 1416 1437
f 1432 1431 1438
f 1416 1417 1437
f 1433 1432 1438
f 1417 1418 1437
f 1434 1433 1438
f 1418 1419 1437
f 1435 1434 1438
f 1419 1420 1437
f 1436 1435 1438
f 1420 1413 1437
f 1429 1436 1438
f 1421 1422 1414 1413
f 1422 1423 1415 1414
f 1423 1424 1416 1415
f 1424 1425 1417 1416
f 1425 1426 1418 1417
f 1426 1427 1419 1418
f 1427 1428 1420 1419
f 1428 1421 1413 1420
f 1429 1430 1422 1421
f 1430 1431 1423 1422
f 1431 1432 1424 1423
f 1432 1433 1425 1424
f 1433 1434 1426 1425
f 1434 1435 1427 1426
f 1435 1436 1428 1427
f 1436 1429 1421 1428
f 1465 1466 1489
f 1482 1481 1490
f 1466 1467 1489
f 1483 1482 1490
f 1467 1468 1489
f 1484 1483 1490
f 1468 1469 1489
f 1485 1484 1490
f 1469 1470 1489
f 1486 1485 1490
f 1470 1471 1489
f 1487 1486 1490
f 1471 1472 1489
f 1488 1487 1490
f 1472 1465 1489
f 1481 1488 1490
f 1473 1474 1466 1465
f 1474 1475 1467 1466
f 1475 1476 1468 1467
f 1476 1477 1469 1468
f 1477 1478 1470 1469
f 1478 1479 1471 1470
f 1479 1480 1472 1471
f 1480 1473 1465 1472
f 1481 1482 1474 1473
f 1482 1483 1475 1474
f 1483 1484 1476 1475
f 1484 1485 1477 1476
f 1485 1486 1478 1477
f 1486 1487 1479 1478
f 1487 1488 1480 1479
f 1488 1481 1473 1480
f 1517 1518 1541
f 1534 1533 1542
f 1518 1519 1541
f 1535 1534 1542
f 1519 1520 1541
f 1536 1535 1542
f 1520 1521 1541
f 1537 1536 1542
f 1521 1522 1541
f 1538 1537 1542
f 1522 1523 1541
f 1539 1538 1542
f 1523 1524 1541
f 1540 1539 1542
f 1524 1517 1541
f 1533 1540 1542
f 1525 1526 1518 1517
f 1526 1527 1519 1518
f 1527 1528 1520 1519
f 1528 1529 1521 1520
f 1529 1530 1522 1521
f 1530 1531 1523 1522
f 1531 1532 1524 1523
f 1532 1525 1517 1524
f 1533 1534 1526 1525
f 1534 1535 1527 1526
f 1535 1536 1528 1527
f 1536 1537 1529 1528
f 1537 1538 1530 1529
f 1538 1539 1531 1530
f 1539 1540 1532 1531
f 1540 1533 1525 1532
usemtl mint
f 321 322 258 257
f 322 323 259 258
f 323 324 260 259
f 324 325 261 260
f 325 326 262 261
f 326 327 263 262
f 327 328 264 263
f 328 329 265 264
f 329 330 266 265
f 330 331 267 266
f 331 332 268 267
f 332 333 269 268
f 333 334 270 269
f 334 335 271 270
f 335 336 272 271
f 336 337 273 272
f 337 338 274 273
f 338 339 275 274
f 339 340 276 275
f 340 341 277 276
f 341 342 278 277
f 342 343 279 278
f 343 344 280 279
f 344 345 281 280
f 345 346 282 281
f 346 347 283 282
f 347 348 284 283
f 348 349 285 284
f 349 350 286 285
f 350 351 287 286
f 351 352 288 287
f 352 353 289 288
f 353 354 290 289
f 354 355 291 290
f 355 356 292 291
f 356 357 293 292
f 357 358 294 293
f 358 359 295 294
f 359 360 296 295
f 360 361 297 296
f 361 362 298 297
f 362 363 299 298
f 363 364 300 299
f 364 365 301 300
f 365 366 302 301
f 366 367 303 302
f 367 368 304 303
f 368 369 305 304
f 369 370 306 305
f 370 371 307 306
f 371 372 308 307
f 372 373 309 308
f 373 374 310 309
f 374 375 311 310
f 375 376 312 311
f 376 377 313 312
f 377 378 314 313
f 378 379 315 314
f 379 380 316 315
f 380 381 317 316
f 381 382 318 317
f 382 383 319 318
f 383 384 320 319
f 384 321 257 320
usemtl gold
f 385 386 394 393
f 386 387 395 394
f 387 388 396 395
f 388 389 397 396
f 389 390 398 397
f 390 391 399 398
f 391 392 400 399
f 392 385 393 400
f 393 394 402 401
f 394 395 403 402
f 395 396 404 403
f 396 397 405 404
f 397 398 406 405
f 398 399 407 406
f 399 400 408 407
f 400 393 401 408
f 401 402 410 409
f 402 403 411 410
f 403 404 412 411
f 404 405 413 412
f 405 406 414 413
f 406 407 415 414
f 407 408 416 415
f 408 401 409 416
f 409 410 418 417
f 410 411 419 418
f 411 412 420 419
f 412 413 421 420
f 413 414 422 421
f 414 415 423 422
f 415 416 424 423
f 416 409 417 424
f 417 418 426 425
f 418 419 427 426
f 419 420 428 427
f 420 421 429 428
f 421 422 430 429
f 422 423 431 430
f 423 424 432 431
f 424 417 425 432
f 425 426 434 433
f 426 427 435 434
f 427 428 436 435
f 428 429 437 436
f 429 430 438 437
f 430 431 439 438
f 431 432 440 439
f 432 425 433 440
f 433 434 442 441
f 434 435 443 442
f 435 436 444 443
f 436 437 445 444
f 437 438 446 445
f 438 439 447 446
f 439 440 448 447
f 440 433 441 448
f 441 442 450 449
f 442 443 451 450
f 443 444 452 451
f 444 445 453 452
f 445 446 454 453
f 446 447 455 454
f 447 448 456 455
f 448 441 449 456
f 449 450 458 457
f 450 451 459 458
f 451 452 460 459
f 452 453 461 460
f 453 454 462 461
f 454 455 463 462
f 455 456 464 463
f 456 449 457 464
f 457 458 466 465
f 458 459 467 466
f 459 460 468 467
f 460 461 469 468
f 461 462 470 469
f 462 463 471 470
f 463 464 472 471
f 464 457 465 472
f 465 466 474 473
f 466 467 475 474
f 467 468 476 475
f 468 469 477 476
f 469 470 478 477
f 470 471 479 478
f 471 472 480 479
f 472 465 473 480
f 473 474 482 481
f 474 475 483 482
f 475 476 484 483
f 476 477 485 484
f 477 478 486 485
f 478 479 487 486
f 479 480 488 487
f 480 473 481 488
f 481 482 490 489
f 482 483 491 490
f 483 484 492 491
f 484 485 493 492
f 485 486 494 493
f 486 487 495 494
f 487 488 496 495
f 488 481 489 496
f 489 490 498 497
f 490 491 499 498
f 491 492 500 499
f 492 493 501 500
f 493 494 502 501
f 494 495 503 502
f 495 496 504 503
f 496 489 497 504
f 497 498 506 505
f 498 499 507 506
f 499 500 508 507
f 500 501 509 508
f 501 502 510 509
f 502 503 511 510
f 503 504 512 511
f 504 497 505 512
f 505 506 514 513
f 506 507 515 514
f 507 508 516 515
f 508 509 517 516
f 509 510 518 517
f 510 511 519 518
f 511 512 520 519
f 512 505 513 520
f 513 514 522 521
f 514 515 523 522
f 515 516 524 523
f 516 517 525 524
f 517 518 526 525
f 518 519 527 526
f 519 520 528 527
f 520 513 521 528
f 521 522 530 529
f 522 523 531 530
f 523 524 532 531
f 524 525 533 532
f 525 526 534 533
f 526 527 535 534
f 527 528 536 535
f 528 521 529 536
f 529 530 538 537
f 530 531 539 538
f 531 532 540 539
f 532 533 541 540
f 533 534 542 541
f 534 535 543 542
f 535 536 544 543
f 536 529 537 544
f 537 538 546 545
f 538 539 547 546
f 539 540 548 547
f 540 541 549 548
f 541 542 550 549
f 542 543 551 550
f 543 544 552 551
f 544 537 545 552
f 545 546 554 553
f 546 547 555 554
f 547 548 556 555
f 548 549 557 556
f 549 550 558 557
f 550 551 559 558
f 551 552 560 559
f 552 545 553 560
f 553 554 562 561
f 554 555 563 562
f 555 556 564 563
f 556 557 565 564
f 557 558 566 565
f 558 559 567 566
f 559 560 568 567
f 560 553 561 568
f 561 562 570 569
f 562 563 571 570
f 563 564 572 571
f 564 565 573 572
f 565 566 574 573
f 566 567 575 574
f 567 568 576 575
f 568 561 569 576
f 569 570 578 577
f 570 571 579 578
f 571 572 580 579
f 572 573 581 580
f 573 574 582 581
f 574 575 583 582
f 575 576 584 583
f 576 569 577 584
f 577 578 586 585
f 578 579 587 586
f 579 580 588 587
f 580 581 589 588
f 581 582 590 589
f 582 583 591 590
f 583 584 592 591
f 584 577 585 592
f 585 586 594 593
f 586 587 595 594
f 587 588 596 595
f 588 589 597 596
f 589 590 598 597
f 590 591 599 598
f 591 592 600 599
f 592 585 593 600
f 593 594 602 601
f 594 595 603 602
f 595 596 604 603
f 596 597 605 604
f 597 598 606 605
f 598 599 607 606
f 599 600 608 607
f 600 593 601 608
f 601 602 610 609
f 602 603 611 610
f 603 604 612 611
f 604 605 613 612
f 605 606 614 613
f 606 607 615 614
f 607 608 616 615
f 608 601 609 616
f 609 610 618 617
f 610 611 619 618
f 611 612 620 619
f 612 613 621 620
f 613 614 622 621
f 614 615 623 622
f 615 616 624 623
f 616 609 617 624
f 617 618 626 625
f 618 619 627 626
f 619 620 628 627
f 620 621 629 628
f 621 622 630 629
f 622 623 631 630
f 623 624 632 631
f 624 617 625 632
f 625 626 634 633
f 626 627 635 634
f 627 628 636 635
f 628 629 637 636
f 629 630 638 637
f 630 631 639 638
f 631 632 640 639
f 632 625 633 640
f 633 634 642 641
f 634 635 643 642
f 635 636 644 643
f 636 637 645 644
f 637 638 646 645
f 638 639 647 646
f 639 640 648 647
f 640 633 641 648
f 641 642 650 649
f 642 643 651 650
f 643 644 652 651
f 644 645 653 652
f 645 646 654 653
f 646 647 655 654
f 647 648 656 655
f 648 641 649 656
f 649 650 658 657
f 650 651 659 658
f 651 652 660 659
f 652 653 661 660
f 653 654 662 661
f 654 655 663 662
f 655 656 664 663
f 656 649 657 664
f 657 658 666 665
f 658 659 667 666
f 659 660 668 667
f 660 661 669 668
f 661 662 670 669
f 662 663 671 670
f 663 664 672 671
f 664 657 665 672
f 665 666 674 673
f 666 667 675 674
f 667 668 676 675
f 668 669 677 676
f 669 670 678 677
f 670 671 679 678
f 671 672 680 679
f 672 665 673 680
f 673 674 682 681
f 674 675 683 682
f 675 676 684 683
f 676 677 685 684
f 677 678 686 685
f 678 679 687 686
f 679 680 688 687
f 680 673 681 688
f 681 682 690 689
f 682 683 691 690
f 683 684 692 691
f 684 685 693 692
f 685 686 694 693
f 686 687 695 694
f 687 688 696 695
f 688 681 689 696
f 689 690 698 697
f 690 691 699 698
f 691 692 700 699
f 692 693 701 700
f 693 694 702 701
f 694 695 703 702
f 695 696 704 703
f 696 689 697 704
f 697 698 706 705
f 698 699 707 706
f 699 700 708 707
f 700 701 709 708
f 701 702 710 709
f 702 703 711 710
f 703 704 712 711
f 704 697 705 712
f 705 706 714 713
f 706 707 715 714
f 707 708 716 715
f 708 709 717 716
f 709 710 718 717
f 710 711 719 718
f 711 712 720 719
f 712 705 713 720
f 713 714 722 721
f 714 715 723 722
f 715 716 724 723
f 716 717 725 724
f 717 718 726 725
f 718 719 727 726
f 719 720 728 727
f 720 713 721 728
f 721 722 730 729
f 722 723 731 730
f 723 724 732 731
f 724 725 733 732
f 725 726 734 733
f 726 727 735 734
f 727 728 736 735
f 728 721 729 736
f 729 730 738 737
f 730 731 739 738
f 731 732 740 739
f 732 733 741 740
f 733 734 742 741
f 734 735 743 742
f 735 736 744 743
f 736 729 737 744
f 737 738 746 745
f 738 739 747 746
f 739 740 748 747
f 740 741 749 748
f 741 742 750 749
f 742 743 751 750
f 743 744 752 751
f 744 737 745 752
f 745 746 754 753
f 746 747 755 754
f 747 748 756 755
f 748 749 757 756
f 749 750 758 757
f 750 751 759 758
f 751 752 760 759
f 752 745 753 760
f 753 754 762 761
f 754 755 763 762
f 755 756 764 763
f 756 757 765 764
f 757 758 766 765
f 758 759 767 766
f 759 760 768 767
f 760 753 761 768
f 761 762 386 385
f 762 763 387 386
f 763 764 388 387
f 764 765 389 388
f 765 766 390 389
f 766 767 391 390
f 767 768 392 391
f 768 761 385 392
