# ParkParkSwanHub — ParkPark original fairground mesh
mtllib ParkParkFairground.mtl
o ParkParkSwanHub
v 6.80000 0.00000 0.00000
v 6.80000 0.50000 0.00000
v 6.71628 0.00000 1.06375
v 6.71628 0.50000 1.06375
v 6.46718 0.00000 2.10132
v 6.46718 0.50000 2.10132
v 6.05884 0.00000 3.08714
v 6.05884 0.50000 3.08714
v 5.50132 0.00000 3.99694
v 5.50132 0.50000 3.99694
v 4.80833 0.00000 4.80833
v 4.80833 0.50000 4.80833
v 3.99694 0.00000 5.50132
v 3.99694 0.50000 5.50132
v 3.08714 0.00000 6.05884
v 3.08714 0.50000 6.05884
v 2.10132 0.00000 6.46718
v 2.10132 0.50000 6.46718
v 1.06375 0.00000 6.71628
v 1.06375 0.50000 6.71628
v 0.00000 0.00000 6.80000
v 0.00000 0.50000 6.80000
v -1.06375 0.00000 6.71628
v -1.06375 0.50000 6.71628
v -2.10132 0.00000 6.46718
v -2.10132 0.50000 6.46718
v -3.08714 0.00000 6.05884
v -3.08714 0.50000 6.05884
v -3.99694 0.00000 5.50132
v -3.99694 0.50000 5.50132
v -4.80833 0.00000 4.80833
v -4.80833 0.50000 4.80833
v -5.50132 0.00000 3.99694
v -5.50132 0.50000 3.99694
v -6.05884 0.00000 3.08714
v -6.05884 0.50000 3.08714
v -6.46718 0.00000 2.10132
v -6.46718 0.50000 2.10132
v -6.71628 0.00000 1.06375
v -6.71628 0.50000 1.06375
v -6.80000 0.00000 0.00000
v -6.80000 0.50000 0.00000
v -6.71628 0.00000 -1.06375
v -6.71628 0.50000 -1.06375
v -6.46718 0.00000 -2.10132
v -6.46718 0.50000 -2.10132
v -6.05884 0.00000 -3.08714
v -6.05884 0.50000 -3.08714
v -5.50132 0.00000 -3.99694
v -5.50132 0.50000 -3.99694
v -4.80833 0.00000 -4.80833
v -4.80833 0.50000 -4.80833
v -3.99694 0.00000 -5.50132
v -3.99694 0.50000 -5.50132
v -3.08714 0.00000 -6.05884
v -3.08714 0.50000 -6.05884
v -2.10132 0.00000 -6.46718
v -2.10132 0.50000 -6.46718
v -1.06375 0.00000 -6.71628
v -1.06375 0.50000 -6.71628
v -0.00000 0.00000 -6.80000
v -0.00000 0.50000 -6.80000
v 1.06375 0.00000 -6.71628
v 1.06375 0.50000 -6.71628
v 2.10132 0.00000 -6.46718
v 2.10132 0.50000 -6.46718
v 3.08714 0.00000 -6.05884
v 3.08714 0.50000 -6.05884
v 3.99694 0.00000 -5.50132
v 3.99694 0.50000 -5.50132
v 4.80833 0.00000 -4.80833
v 4.80833 0.50000 -4.80833
v 5.50132 0.00000 -3.99694
v 5.50132 0.50000 -3.99694
v 6.05884 0.00000 -3.08714
v 6.05884 0.50000 -3.08714
v 6.46718 0.00000 -2.10132
v 6.46718 0.50000 -2.10132
v 6.71628 0.00000 -1.06375
v 6.71628 0.50000 -1.06375
v 0.00000 0.00000 0.00000
v 0.00000 0.50000 0.00000
v 6.50000 0.50000 0.00000
v 6.50000 0.74000 0.00000
v 6.41997 0.50000 1.01682
v 6.41997 0.74000 1.01682
v 6.18187 0.50000 2.00861
v 6.18187 0.74000 2.00861
v 5.79154 0.50000 2.95094
v 5.79154 0.74000 2.95094
v 5.25861 0.50000 3.82060
v 5.25861 0.74000 3.82060
v 4.59619 0.50000 4.59619
v 4.59619 0.74000 4.59619
v 3.82060 0.50000 5.25861
v 3.82060 0.74000 5.25861
v 2.95094 0.50000 5.79154
v 2.95094 0.74000 5.79154
v 2.00861 0.50000 6.18187
v 2.00861 0.74000 6.18187
v 1.01682 0.50000 6.41997
v 1.01682 0.74000 6.41997
v 0.00000 0.50000 6.50000
v 0.00000 0.74000 6.50000
v -1.01682 0.50000 6.41997
v -1.01682 0.74000 6.41997
v -2.00861 0.50000 6.18187
v -2.00861 0.74000 6.18187
v -2.95094 0.50000 5.79154
v -2.95094 0.74000 5.79154
v -3.82060 0.50000 5.25861
v -3.82060 0.74000 5.25861
v -4.59619 0.50000 4.59619
v -4.59619 0.74000 4.59619
v -5.25861 0.50000 3.82060
v -5.25861 0.74000 3.82060
v -5.79154 0.50000 2.95094
v -5.79154 0.74000 2.95094
v -6.18187 0.50000 2.00861
v -6.18187 0.74000 2.00861
v -6.41997 0.50000 1.01682
v -6.41997 0.74000 1.01682
v -6.50000 0.50000 0.00000
v -6.50000 0.74000 0.00000
v -6.41997 0.50000 -1.01682
v -6.41997 0.74000 -1.01682
v -6.18187 0.50000 -2.00861
v -6.18187 0.74000 -2.00861
v -5.79154 0.50000 -2.95094
v -5.79154 0.74000 -2.95094
v -5.25861 0.50000 -3.82060
v -5.25861 0.74000 -3.82060
v -4.59619 0.50000 -4.59619
v -4.59619 0.74000 -4.59619
v -3.82060 0.50000 -5.25861
v -3.82060 0.74000 -5.25861
v -2.95094 0.50000 -5.79154
v -2.95094 0.74000 -5.79154
v -2.00861 0.50000 -6.18187
v -2.00861 0.74000 -6.18187
v -1.01682 0.50000 -6.41997
v -1.01682 0.74000 -6.41997
v -0.00000 0.50000 -6.50000
v -0.00000 0.74000 -6.50000
v 1.01682 0.50000 -6.41997
v 1.01682 0.74000 -6.41997
v 2.00861 0.50000 -6.18187
v 2.00861 0.74000 -6.18187
v 2.95094 0.50000 -5.79154
v 2.95094 0.74000 -5.79154
v 3.82060 0.50000 -5.25861
v 3.82060 0.74000 -5.25861
v 4.59619 0.50000 -4.59619
v 4.59619 0.74000 -4.59619
v 5.25861 0.50000 -3.82060
v 5.25861 0.74000 -3.82060
v 5.79154 0.50000 -2.95094
v 5.79154 0.74000 -2.95094
v 6.18187 0.50000 -2.00861
v 6.18187 0.74000 -2.00861
v 6.41997 0.50000 -1.01682
v 6.41997 0.74000 -1.01682
v 0.00000 0.50000 0.00000
v 0.00000 0.74000 0.00000
v 6.73000 0.76000 0.00000
v 6.66500 0.87258 0.00000
v 6.53500 0.87258 0.00000
v 6.47000 0.76000 0.00000
v 6.53500 0.64742 0.00000
v 6.66500 0.64742 0.00000
v 6.64714 0.76000 1.05280
v 6.58294 0.87258 1.04264
v 6.45454 0.87258 1.02230
v 6.39034 0.76000 1.01213
v 6.45454 0.64742 1.02230
v 6.58294 0.64742 1.04264
v 6.40061 0.76000 2.07968
v 6.33879 0.87258 2.05960
v 6.21515 0.87258 2.01943
v 6.15334 0.76000 1.99934
v 6.21515 0.64742 2.01943
v 6.33879 0.64742 2.05960
v 5.99647 0.76000 3.05536
v 5.93856 0.87258 3.02585
v 5.82273 0.87258 2.96683
v 5.76481 0.76000 2.93732
v 5.82273 0.64742 2.96683
v 5.93856 0.64742 3.02585
v 5.44468 0.76000 3.95579
v 5.39210 0.87258 3.91759
v 5.28693 0.87258 3.84118
v 5.23434 0.76000 3.80297
v 5.28693 0.64742 3.84118
v 5.39210 0.64742 3.91759
v 4.75883 0.76000 4.75883
v 4.71287 0.87258 4.71287
v 4.62094 0.87258 4.62094
v 4.57498 0.76000 4.57498
v 4.62094 0.64742 4.62094
v 4.71287 0.64742 4.71287
v 3.95579 0.76000 5.44468
v 3.91759 0.87258 5.39210
v 3.84118 0.87258 5.28693
v 3.80297 0.76000 5.23434
v 3.84118 0.64742 5.28693
v 3.91759 0.64742 5.39210
v 3.05536 0.76000 5.99647
v 3.02585 0.87258 5.93856
v 2.96683 0.87258 5.82273
v 2.93732 0.76000 5.76481
v 2.96683 0.64742 5.82273
v 3.02585 0.64742 5.93856
v 2.07968 0.76000 6.40061
v 2.05960 0.87258 6.33879
v 2.01943 0.87258 6.21515
v 1.99934 0.76000 6.15334
v 2.01943 0.64742 6.21515
v 2.05960 0.64742 6.33879
v 1.05280 0.76000 6.64714
v 1.04264 0.87258 6.58294
v 1.02230 0.87258 6.45454
v 1.01213 0.76000 6.39034
v 1.02230 0.64742 6.45454
v 1.04264 0.64742 6.58294
v 0.00000 0.76000 6.73000
v 0.00000 0.87258 6.66500
v 0.00000 0.87258 6.53500
v 0.00000 0.76000 6.47000
v 0.00000 0.64742 6.53500
v 0.00000 0.64742 6.66500
v -1.05280 0.76000 6.64714
v -1.04264 0.87258 6.58294
v -1.02230 0.87258 6.45454
v -1.01213 0.76000 6.39034
v -1.02230 0.64742 6.45454
v -1.04264 0.64742 6.58294
v -2.07968 0.76000 6.40061
v -2.05960 0.87258 6.33879
v -2.01943 0.87258 6.21515
v -1.99934 0.76000 6.15334
v -2.01943 0.64742 6.21515
v -2.05960 0.64742 6.33879
v -3.05536 0.76000 5.99647
v -3.02585 0.87258 5.93856
v -2.96683 0.87258 5.82273
v -2.93732 0.76000 5.76481
v -2.96683 0.64742 5.82273
v -3.02585 0.64742 5.93856
v -3.95579 0.76000 5.44468
v -3.91759 0.87258 5.39210
v -3.84118 0.87258 5.28693
v -3.80297 0.76000 5.23434
v -3.84118 0.64742 5.28693
v -3.91759 0.64742 5.39210
v -4.75883 0.76000 4.75883
v -4.71287 0.87258 4.71287
v -4.62094 0.87258 4.62094
v -4.57498 0.76000 4.57498
v -4.62094 0.64742 4.62094
v -4.71287 0.64742 4.71287
v -5.44468 0.76000 3.95579
v -5.39210 0.87258 3.91759
v -5.28693 0.87258 3.84118
v -5.23434 0.76000 3.80297
v -5.28693 0.64742 3.84118
v -5.39210 0.64742 3.91759
v -5.99647 0.76000 3.05536
v -5.93856 0.87258 3.02585
v -5.82273 0.87258 2.96683
v -5.76481 0.76000 2.93732
v -5.82273 0.64742 2.96683
v -5.93856 0.64742 3.02585
v -6.40061 0.76000 2.07968
v -6.33879 0.87258 2.05960
v -6.21515 0.87258 2.01943
v -6.15334 0.76000 1.99934
v -6.21515 0.64742 2.01943
v -6.33879 0.64742 2.05960
v -6.64714 0.76000 1.05280
v -6.58294 0.87258 1.04264
v -6.45454 0.87258 1.02230
v -6.39034 0.76000 1.01213
v -6.45454 0.64742 1.02230
v -6.58294 0.64742 1.04264
v -6.73000 0.76000 0.00000
v -6.66500 0.87258 0.00000
v -6.53500 0.87258 0.00000
v -6.47000 0.76000 0.00000
v -6.53500 0.64742 0.00000
v -6.66500 0.64742 0.00000
v -6.64714 0.76000 -1.05280
v -6.58294 0.87258 -1.04264
v -6.45454 0.87258 -1.02230
v -6.39034 0.76000 -1.01213
v -6.45454 0.64742 -1.02230
v -6.58294 0.64742 -1.04264
v -6.40061 0.76000 -2.07968
v -6.33879 0.87258 -2.05960
v -6.21515 0.87258 -2.01943
v -6.15334 0.76000 -1.99934
v -6.21515 0.64742 -2.01943
v -6.33879 0.64742 -2.05960
v -5.99647 0.76000 -3.05536
v -5.93856 0.87258 -3.02585
v -5.82273 0.87258 -2.96683
v -5.76481 0.76000 -2.93732
v -5.82273 0.64742 -2.96683
v -5.93856 0.64742 -3.02585
v -5.44468 0.76000 -3.95579
v -5.39210 0.87258 -3.91759
v -5.28693 0.87258 -3.84118
v -5.23434 0.76000 -3.80297
v -5.28693 0.64742 -3.84118
v -5.39210 0.64742 -3.91759
v -4.75883 0.76000 -4.75883
v -4.71287 0.87258 -4.71287
v -4.62094 0.87258 -4.62094
v -4.57498 0.76000 -4.57498
v -4.62094 0.64742 -4.62094
v -4.71287 0.64742 -4.71287
v -3.95579 0.76000 -5.44468
v -3.91759 0.87258 -5.39210
v -3.84118 0.87258 -5.28693
v -3.80297 0.76000 -5.23434
v -3.84118 0.64742 -5.28693
v -3.91759 0.64742 -5.39210
v -3.05536 0.76000 -5.99647
v -3.02585 0.87258 -5.93856
v -2.96683 0.87258 -5.82273
v -2.93732 0.76000 -5.76481
v -2.96683 0.64742 -5.82273
v -3.02585 0.64742 -5.93856
v -2.07968 0.76000 -6.40061
v -2.05960 0.87258 -6.33879
v -2.01943 0.87258 -6.21515
v -1.99934 0.76000 -6.15334
v -2.01943 0.64742 -6.21515
v -2.05960 0.64742 -6.33879
v -1.05280 0.76000 -6.64714
v -1.04264 0.87258 -6.58294
v -1.02230 0.87258 -6.45454
v -1.01213 0.76000 -6.39034
v -1.02230 0.64742 -6.45454
v -1.04264 0.64742 -6.58294
v -0.00000 0.76000 -6.73000
v -0.00000 0.87258 -6.66500
v -0.00000 0.87258 -6.53500
v -0.00000 0.76000 -6.47000
v -0.00000 0.64742 -6.53500
v -0.00000 0.64742 -6.66500
v 1.05280 0.76000 -6.64714
v 1.04264 0.87258 -6.58294
v 1.02230 0.87258 -6.45454
v 1.01213 0.76000 -6.39034
v 1.02230 0.64742 -6.45454
v 1.04264 0.64742 -6.58294
v 2.07968 0.76000 -6.40061
v 2.05960 0.87258 -6.33879
v 2.01943 0.87258 -6.21515
v 1.99934 0.76000 -6.15334
v 2.01943 0.64742 -6.21515
v 2.05960 0.64742 -6.33879
v 3.05536 0.76000 -5.99647
v 3.02585 0.87258 -5.93856
v 2.96683 0.87258 -5.82273
v 2.93732 0.76000 -5.76481
v 2.96683 0.64742 -5.82273
v 3.02585 0.64742 -5.93856
v 3.95579 0.76000 -5.44468
v 3.91759 0.87258 -5.39210
v 3.84118 0.87258 -5.28693
v 3.80297 0.76000 -5.23434
v 3.84118 0.64742 -5.28693
v 3.91759 0.64742 -5.39210
v 4.75883 0.76000 -4.75883
v 4.71287 0.87258 -4.71287
v 4.62094 0.87258 -4.62094
v 4.57498 0.76000 -4.57498
v 4.62094 0.64742 -4.62094
v 4.71287 0.64742 -4.71287
v 5.44468 0.76000 -3.95579
v 5.39210 0.87258 -3.91759
v 5.28693 0.87258 -3.84118
v 5.23434 0.76000 -3.80297
v 5.28693 0.64742 -3.84118
v 5.39210 0.64742 -3.91759
v 5.99647 0.76000 -3.05536
v 5.93856 0.87258 -3.02585
v 5.82273 0.87258 -2.96683
v 5.76481 0.76000 -2.93732
v 5.82273 0.64742 -2.96683
v 5.93856 0.64742 -3.02585
v 6.40061 0.76000 -2.07968
v 6.33879 0.87258 -2.05960
v 6.21515 0.87258 -2.01943
v 6.15334 0.76000 -1.99934
v 6.21515 0.64742 -2.01943
v 6.33879 0.64742 -2.05960
v 6.64714 0.76000 -1.05280
v 6.58294 0.87258 -1.04264
v 6.45454 0.87258 -1.02230
v 6.39034 0.76000 -1.01213
v 6.45454 0.64742 -1.02230
v 6.58294 0.64742 -1.04264
v 6.33375 0.74000 0.88168
v 6.33375 0.80000 0.88168
v 6.23826 0.74000 1.17558
v 6.23826 0.80000 1.17558
v 5.98826 0.74000 1.35721
v 5.98826 0.80000 1.35721
v 5.67924 0.74000 1.35721
v 5.67924 0.80000 1.35721
v 5.42924 0.74000 1.17558
v 5.42924 0.80000 1.17558
v 5.33375 0.74000 0.88168
v 5.33375 0.80000 0.88168
v 5.42924 0.74000 0.58779
v 5.42924 0.80000 0.58779
v 5.67924 0.74000 0.40616
v 5.67924 0.80000 0.40616
v 5.98826 0.74000 0.40616
v 5.98826 0.80000 0.40616
v 6.23826 0.74000 0.58779
v 6.23826 0.80000 0.58779
v 5.83375 0.74000 0.88168
v 5.83375 0.80000 0.88168
v 4.70136 0.74000 4.14229
v 4.70136 0.80000 4.14229
v 4.60587 0.74000 4.43618
v 4.60587 0.80000 4.43618
v 4.35587 0.74000 4.61782
v 4.35587 0.80000 4.61782
v 4.04685 0.74000 4.61782
v 4.04685 0.80000 4.61782
v 3.79685 0.74000 4.43618
v 3.79685 0.80000 4.43618
v 3.70136 0.74000 4.14229
v 3.70136 0.80000 4.14229
v 3.79685 0.74000 3.84840
v 3.79685 0.80000 3.84840
v 4.04685 0.74000 3.66676
v 4.04685 0.80000 3.66676
v 4.35587 0.74000 3.66676
v 4.35587 0.80000 3.66676
v 4.60587 0.74000 3.84840
v 4.60587 0.80000 3.84840
v 4.20136 0.74000 4.14229
v 4.20136 0.80000 4.14229
v 1.46420 0.74000 5.82068
v 1.46420 0.80000 5.82068
v 1.36870 0.74000 6.11457
v 1.36870 0.80000 6.11457
v 1.11870 0.74000 6.29621
v 1.11870 0.80000 6.29621
v 0.80969 0.74000 6.29621
v 0.80969 0.80000 6.29621
v 0.55969 0.74000 6.11457
v 0.55969 0.80000 6.11457
v 0.46420 0.74000 5.82068
v 0.46420 0.80000 5.82068
v 0.55969 0.74000 5.52679
v 0.55969 0.80000 5.52679
v 0.80969 0.74000 5.34515
v 0.80969 0.80000 5.34515
v 1.11870 0.74000 5.34515
v 1.11870 0.80000 5.34515
v 1.36870 0.74000 5.52679
v 1.36870 0.80000 5.52679
v 0.96420 0.74000 5.82068
v 0.96420 0.80000 5.82068
v -2.14126 0.74000 5.27577
v -2.14126 0.80000 5.27577
v -2.23675 0.74000 5.56966
v -2.23675 0.80000 5.56966
v -2.48675 0.74000 5.75130
v -2.48675 0.80000 5.75130
v -2.79577 0.74000 5.75130
v -2.79577 0.80000 5.75130
v -3.04577 0.74000 5.56966
v -3.04577 0.80000 5.56966
v -3.14126 0.74000 5.27577
v -3.14126 0.80000 5.27577
v -3.04577 0.74000 4.98188
v -3.04577 0.80000 4.98188
v -2.79577 0.74000 4.80024
v -2.79577 0.80000 4.80024
v -2.48675 0.74000 4.80024
v -2.48675 0.80000 4.80024
v -2.23675 0.74000 4.98188
v -2.23675 0.80000 4.98188
v -2.64126 0.74000 5.27577
v -2.64126 0.80000 5.27577
v -4.73784 0.74000 2.71569
v -4.73784 0.80000 2.71569
v -4.83334 0.74000 3.00959
v -4.83334 0.80000 3.00959
v -5.08334 0.74000 3.19122
v -5.08334 0.80000 3.19122
v -5.39235 0.74000 3.19122
v -5.39235 0.80000 3.19122
v -5.64235 0.74000 3.00959
v -5.64235 0.80000 3.00959
v -5.73784 0.74000 2.71569
v -5.73784 0.80000 2.71569
v -5.64235 0.74000 2.42180
v -5.64235 0.80000 2.42180
v -5.39235 0.74000 2.24017
v -5.39235 0.80000 2.24017
v -5.08334 0.74000 2.24017
v -5.08334 0.80000 2.24017
v -4.83334 0.74000 2.42180
v -4.83334 0.80000 2.42180
v -5.23784 0.74000 2.71569
v -5.23784 0.80000 2.71569
v -5.33375 0.74000 -0.88168
v -5.33375 0.80000 -0.88168
v -5.42924 0.74000 -0.58779
v -5.42924 0.80000 -0.58779
v -5.67924 0.74000 -0.40616
v -5.67924 0.80000 -0.40616
v -5.98826 0.74000 -0.40616
v -5.98826 0.80000 -0.40616
v -6.23826 0.74000 -0.58779
v -6.23826 0.80000 -0.58779
v -6.33375 0.74000 -0.88168
v -6.33375 0.80000 -0.88168
v -6.23826 0.74000 -1.17558
v -6.23826 0.80000 -1.17558
v -5.98826 0.74000 -1.35721
v -5.98826 0.80000 -1.35721
v -5.67924 0.74000 -1.35721
v -5.67924 0.80000 -1.35721
v -5.42924 0.74000 -1.17558
v -5.42924 0.80000 -1.17558
v -5.83375 0.74000 -0.88168
v -5.83375 0.80000 -0.88168
v -3.70136 0.74000 -4.14229
v -3.70136 0.80000 -4.14229
v -3.79685 0.74000 -3.84840
v -3.79685 0.80000 -3.84840
v -4.04685 0.74000 -3.66676
v -4.04685 0.80000 -3.66676
v -4.35587 0.74000 -3.66676
v -4.35587 0.80000 -3.66676
v -4.60587 0.74000 -3.84840
v -4.60587 0.80000 -3.84840
v -4.70136 0.74000 -4.14229
v -4.70136 0.80000 -4.14229
v -4.60587 0.74000 -4.43618
v -4.60587 0.80000 -4.43618
v -4.35587 0.74000 -4.61782
v -4.35587 0.80000 -4.61782
v -4.04685 0.74000 -4.61782
v -4.04685 0.80000 -4.61782
v -3.79685 0.74000 -4.43618
v -3.79685 0.80000 -4.43618
v -4.20136 0.74000 -4.14229
v -4.20136 0.80000 -4.14229
v -0.46420 0.74000 -5.82068
v -0.46420 0.80000 -5.82068
v -0.55969 0.74000 -5.52679
v -0.55969 0.80000 -5.52679
v -0.80969 0.74000 -5.34515
v -0.80969 0.80000 -5.34515
v -1.11870 0.74000 -5.34515
v -1.11870 0.80000 -5.34515
v -1.36870 0.74000 -5.52679
v -1.36870 0.80000 -5.52679
v -1.46420 0.74000 -5.82068
v -1.46420 0.80000 -5.82068
v -1.36870 0.74000 -6.11457
v -1.36870 0.80000 -6.11457
v -1.11870 0.74000 -6.29621
v -1.11870 0.80000 -6.29621
v -0.80969 0.74000 -6.29621
v -0.80969 0.80000 -6.29621
v -0.55969 0.74000 -6.11457
v -0.55969 0.80000 -6.11457
v -0.96420 0.74000 -5.82068
v -0.96420 0.80000 -5.82068
v 3.14126 0.74000 -5.27577
v 3.14126 0.80000 -5.27577
v 3.04577 0.74000 -4.98188
v 3.04577 0.80000 -4.98188
v 2.79577 0.74000 -4.80024
v 2.79577 0.80000 -4.80024
v 2.48675 0.74000 -4.80024
v 2.48675 0.80000 -4.80024
v 2.23675 0.74000 -4.98188
v 2.23675 0.80000 -4.98188
v 2.14126 0.74000 -5.27577
v 2.14126 0.80000 -5.27577
v 2.23675 0.74000 -5.56966
v 2.23675 0.80000 -5.56966
v 2.48675 0.74000 -5.75130
v 2.48675 0.80000 -5.75130
v 2.79577 0.74000 -5.75130
v 2.79577 0.80000 -5.75130
v 3.04577 0.74000 -5.56966
v 3.04577 0.80000 -5.56966
v 2.64126 0.74000 -5.27577
v 2.64126 0.80000 -5.27577
v 5.73784 0.74000 -2.71569
v 5.73784 0.80000 -2.71569
v 5.64235 0.74000 -2.42180
v 5.64235 0.80000 -2.42180
v 5.39235 0.74000 -2.24017
v 5.39235 0.80000 -2.24017
v 5.08334 0.74000 -2.24017
v 5.08334 0.80000 -2.24017
v 4.83334 0.74000 -2.42180
v 4.83334 0.80000 -2.42180
v 4.73784 0.74000 -2.71569
v 4.73784 0.80000 -2.71569
v 4.83334 0.74000 -3.00959
v 4.83334 0.80000 -3.00959
v 5.08334 0.74000 -3.19122
v 5.08334 0.80000 -3.19122
v 5.39235 0.74000 -3.19122
v 5.39235 0.80000 -3.19122
v 5.64235 0.74000 -3.00959
v 5.64235 0.80000 -3.00959
v 5.23784 0.74000 -2.71569
v 5.23784 0.80000 -2.71569
v 0.00000 0.70000 0.00000
v 0.00000 0.70000 0.00000
v 0.00000 0.70000 0.00000
v 0.00000 0.70000 0.00000
v 0.00000 0.70000 0.00000
v 0.00000 0.70000 0.00000
v 0.00000 0.70000 0.00000
v -0.00000 0.70000 0.00000
v -0.00000 0.70000 0.00000
v -0.00000 0.70000 0.00000
v -0.00000 0.70000 0.00000
v -0.00000 0.70000 0.00000
v -0.00000 0.70000 0.00000
v -0.00000 0.70000 -0.00000
v -0.00000 0.70000 -0.00000
v -0.00000 0.70000 -0.00000
v -0.00000 0.70000 -0.00000
v -0.00000 0.70000 -0.00000
v -0.00000 0.70000 -0.00000
v 0.00000 0.70000 -0.00000
v 0.00000 0.70000 -0.00000
v 0.00000 0.70000 -0.00000
v 0.00000 0.70000 -0.00000
v 0.00000 0.70000 -0.00000
v 1.00000 0.70000 0.00000
v 0.96593 0.70000 0.25882
v 0.86603 0.70000 0.50000
v 0.70711 0.70000 0.70711
v 0.50000 0.70000 0.86603
v 0.25882 0.70000 0.96593
v 0.00000 0.70000 1.00000
v -0.25882 0.70000 0.96593
v -0.50000 0.70000 0.86603
v -0.70711 0.70000 0.70711
v -0.86603 0.70000 0.50000
v -0.96593 0.70000 0.25882
v -1.00000 0.70000 0.00000
v -0.96593 0.70000 -0.25882
v -0.86603 0.70000 -0.50000
v -0.70711 0.70000 -0.70711
v -0.50000 0.70000 -0.86603
v -0.25882 0.70000 -0.96593
v -0.00000 0.70000 -1.00000
v 0.25882 0.70000 -0.96593
v 0.50000 0.70000 -0.86603
v 0.70711 0.70000 -0.70711
v 0.86603 0.70000 -0.50000
v 0.96593 0.70000 -0.25882
v 0.70000 1.20000 0.00000
v 0.67615 1.20000 0.18117
v 0.60622 1.20000 0.35000
v 0.49497 1.20000 0.49497
v 0.35000 1.20000 0.60622
v 0.18117 1.20000 0.67615
v 0.00000 1.20000 0.70000
v -0.18117 1.20000 0.67615
v -0.35000 1.20000 0.60622
v -0.49497 1.20000 0.49497
v -0.60622 1.20000 0.35000
v -0.67615 1.20000 0.18117
v -0.70000 1.20000 0.00000
v -0.67615 1.20000 -0.18117
v -0.60622 1.20000 -0.35000
v -0.49497 1.20000 -0.49497
v -0.35000 1.20000 -0.60622
v -0.18117 1.20000 -0.67615
v -0.00000 1.20000 -0.70000
v 0.18117 1.20000 -0.67615
v 0.35000 1.20000 -0.60622
v 0.49497 1.20000 -0.49497
v 0.60622 1.20000 -0.35000
v 0.67615 1.20000 -0.18117
v 0.45000 3.40000 0.00000
v 0.43467 3.40000 0.11647
v 0.38971 3.40000 0.22500
v 0.31820 3.40000 0.31820
v 0.22500 3.40000 0.38971
v 0.11647 3.40000 0.43467
v 0.00000 3.40000 0.45000
v -0.11647 3.40000 0.43467
v -0.22500 3.40000 0.38971
v -0.31820 3.40000 0.31820
v -0.38971 3.40000 0.22500
v -0.43467 3.40000 0.11647
v -0.45000 3.40000 0.00000
v -0.43467 3.40000 -0.11647
v -0.38971 3.40000 -0.22500
v -0.31820 3.40000 -0.31820
v -0.22500 3.40000 -0.38971
v -0.11647 3.40000 -0.43467
v -0.00000 3.40000 -0.45000
v 0.11647 3.40000 -0.43467
v 0.22500 3.40000 -0.38971
v 0.31820 3.40000 -0.31820
v 0.38971 3.40000 -0.22500
v 0.43467 3.40000 -0.11647
v 1.10000 3.90000 0.00000
v 1.06252 3.90000 0.28470
v 0.95263 3.90000 0.55000
v 0.77782 3.90000 0.77782
v 0.55000 3.90000 0.95263
v 0.28470 3.90000 1.06252
v 0.00000 3.90000 1.10000
v -0.28470 3.90000 1.06252
v -0.55000 3.90000 0.95263
v -0.77782 3.90000 0.77782
v -0.95263 3.90000 0.55000
v -1.06252 3.90000 0.28470
v -1.10000 3.90000 0.00000
v -1.06252 3.90000 -0.28470
v -0.95263 3.90000 -0.55000
v -0.77782 3.90000 -0.77782
v -0.55000 3.90000 -0.95263
v -0.28470 3.90000 -1.06252
v -0.00000 3.90000 -1.10000
v 0.28470 3.90000 -1.06252
v 0.55000 3.90000 -0.95263
v 0.77782 3.90000 -0.77782
v 0.95263 3.90000 -0.55000
v 1.06252 3.90000 -0.28470
v 0.00000 4.20000 0.00000
v 0.00000 4.20000 0.00000
v 0.00000 4.20000 0.00000
v 0.00000 4.20000 0.00000
v 0.00000 4.20000 0.00000
v 0.00000 4.20000 0.00000
v 0.00000 4.20000 0.00000
v -0.00000 4.20000 0.00000
v -0.00000 4.20000 0.00000
v -0.00000 4.20000 0.00000
v -0.00000 4.20000 0.00000
v -0.00000 4.20000 0.00000
v -0.00000 4.20000 0.00000
v -0.00000 4.20000 -0.00000
v -0.00000 4.20000 -0.00000
v -0.00000 4.20000 -0.00000
v -0.00000 4.20000 -0.00000
v -0.00000 4.20000 -0.00000
v -0.00000 4.20000 -0.00000
v 0.00000 4.20000 -0.00000
v 0.00000 4.20000 -0.00000
v 0.00000 4.20000 -0.00000
v 0.00000 4.20000 -0.00000
v 0.00000 4.20000 -0.00000
v 0.00000 0.95000 0.14000
v 0.00000 0.85101 0.09899
v 0.00000 0.81000 0.00000
v 0.00000 0.85101 -0.09899
v 0.00000 0.95000 -0.14000
v 0.00000 1.04899 -0.09899
v 0.00000 1.09000 -0.00000
v 0.00000 1.04899 0.09899
v 4.40000 0.95000 0.14000
v 4.40000 0.85101 0.09899
v 4.40000 0.81000 0.00000
v 4.40000 0.85101 -0.09899
v 4.40000 0.95000 -0.14000
v 4.40000 1.04899 -0.09899
v 4.40000 1.09000 -0.00000
v 4.40000 1.04899 0.09899
v 0.00000 0.95000 0.00000
v 4.40000 0.95000 0.00000
v 5.60000 0.74000 0.00000
v 5.60000 0.90000 0.00000
v 5.54127 0.74000 0.37082
v 5.54127 0.90000 0.37082
v 5.37082 0.74000 0.70534
v 5.37082 0.90000 0.70534
v 5.10534 0.74000 0.97082
v 5.10534 0.90000 0.97082
v 4.77082 0.74000 1.14127
v 4.77082 0.90000 1.14127
v 4.40000 0.74000 1.20000
v 4.40000 0.90000 1.20000
v 4.02918 0.74000 1.14127
v 4.02918 0.90000 1.14127
v 3.69466 0.74000 0.97082
v 3.69466 0.90000 0.97082
v 3.42918 0.74000 0.70534
v 3.42918 0.90000 0.70534
v 3.25873 0.74000 0.37082
v 3.25873 0.90000 0.37082
v 3.20000 0.74000 0.00000
v 3.20000 0.90000 0.00000
v 3.25873 0.74000 -0.37082
v 3.25873 0.90000 -0.37082
v 3.42918 0.74000 -0.70534
v 3.42918 0.90000 -0.70534
v 3.69466 0.74000 -0.97082
v 3.69466 0.90000 -0.97082
v 4.02918 0.74000 -1.14127
v 4.02918 0.90000 -1.14127
v 4.40000 0.74000 -1.20000
v 4.40000 0.90000 -1.20000
v 4.77082 0.74000 -1.14127
v 4.77082 0.90000 -1.14127
v 5.10534 0.74000 -0.97082
v 5.10534 0.90000 -0.97082
v 5.37082 0.74000 -0.70534
v 5.37082 0.90000 -0.70534
v 5.54127 0.74000 -0.37082
v 5.54127 0.90000 -0.37082
v 4.40000 0.74000 0.00000
v 4.40000 0.90000 0.00000
v -0.12124 0.95000 0.07000
v -0.08573 0.85101 0.04950
v -0.00000 0.81000 0.00000
v 0.08573 0.85101 -0.04950
v 0.12124 0.95000 -0.07000
v 0.08573 1.04899 -0.04950
v 0.00000 1.09000 -0.00000
v -0.08573 1.04899 0.04950
v 2.07876 0.95000 3.88051
v 2.11427 0.85101 3.86001
v 2.20000 0.81000 3.81051
v 2.28573 0.85101 3.76101
v 2.32124 0.95000 3.74051
v 2.28573 1.04899 3.76101
v 2.20000 1.09000 3.81051
v 2.11427 1.04899 3.86001
v 0.00000 0.95000 0.00000
v 2.20000 0.95000 3.81051
v 3.40000 0.74000 3.81051
v 3.40000 0.90000 3.81051
v 3.34127 0.74000 4.18133
v 3.34127 0.90000 4.18133
v 3.17082 0.74000 4.51585
v 3.17082 0.90000 4.51585
v 2.90534 0.74000 4.78133
v 2.90534 0.90000 4.78133
v 2.57082 0.74000 4.95178
v 2.57082 0.90000 4.95178
v 2.20000 0.74000 5.01051
v 2.20000 0.90000 5.01051
v 1.82918 0.74000 4.95178
v 1.82918 0.90000 4.95178
v 1.49466 0.74000 4.78133
v 1.49466 0.90000 4.78133
v 1.22918 0.74000 4.51585
v 1.22918 0.90000 4.51585
v 1.05873 0.74000 4.18133
v 1.05873 0.90000 4.18133
v 1.00000 0.74000 3.81051
v 1.00000 0.90000 3.81051
v 1.05873 0.74000 3.43969
v 1.05873 0.90000 3.43969
v 1.22918 0.74000 3.10517
v 1.22918 0.90000 3.10517
v 1.49466 0.74000 2.83969
v 1.49466 0.90000 2.83969
v 1.82918 0.74000 2.66924
v 1.82918 0.90000 2.66924
v 2.20000 0.74000 2.61051
v 2.20000 0.90000 2.61051
v 2.57082 0.74000 2.66924
v 2.57082 0.90000 2.66924
v 2.90534 0.74000 2.83969
v 2.90534 0.90000 2.83969
v 3.17082 0.74000 3.10517
v 3.17082 0.90000 3.10517
v 3.34127 0.74000 3.43969
v 3.34127 0.90000 3.43969
v 2.20000 0.74000 3.81051
v 2.20000 0.90000 3.81051
v -0.12124 0.95000 -0.07000
v -0.08573 0.85101 -0.04950
v -0.00000 0.81000 -0.00000
v 0.08573 0.85101 0.04950
v 0.12124 0.95000 0.07000
v 0.08573 1.04899 0.04950
v 0.00000 1.09000 0.00000
v -0.08573 1.04899 -0.04950
v -2.32124 0.95000 3.74051
v -2.28573 0.85101 3.76101
v -2.20000 0.81000 3.81051
v -2.11427 0.85101 3.86001
v -2.07876 0.95000 3.88051
v -2.11427 1.04899 3.86001
v -2.20000 1.09000 3.81051
v -2.28573 1.04899 3.76101
v 0.00000 0.95000 0.00000
v -2.20000 0.95000 3.81051
v -1.00000 0.74000 3.81051
v -1.00000 0.90000 3.81051
v -1.05873 0.74000 4.18133
v -1.05873 0.90000 4.18133
v -1.22918 0.74000 4.51585
v -1.22918 0.90000 4.51585
v -1.49466 0.74000 4.78133
v -1.49466 0.90000 4.78133
v -1.82918 0.74000 4.95178
v -1.82918 0.90000 4.95178
v -2.20000 0.74000 5.01051
v -2.20000 0.90000 5.01051
v -2.57082 0.74000 4.95178
v -2.57082 0.90000 4.95178
v -2.90534 0.74000 4.78133
v -2.90534 0.90000 4.78133
v -3.17082 0.74000 4.51585
v -3.17082 0.90000 4.51585
v -3.34127 0.74000 4.18133
v -3.34127 0.90000 4.18133
v -3.40000 0.74000 3.81051
v -3.40000 0.90000 3.81051
v -3.34127 0.74000 3.43969
v -3.34127 0.90000 3.43969
v -3.17082 0.74000 3.10517
v -3.17082 0.90000 3.10517
v -2.90534 0.74000 2.83969
v -2.90534 0.90000 2.83969
v -2.57082 0.74000 2.66924
v -2.57082 0.90000 2.66924
v -2.20000 0.74000 2.61051
v -2.20000 0.90000 2.61051
v -1.82918 0.74000 2.66924
v -1.82918 0.90000 2.66924
v -1.49466 0.74000 2.83969
v -1.49466 0.90000 2.83969
v -1.22918 0.74000 3.10517
v -1.22918 0.90000 3.10517
v -1.05873 0.74000 3.43969
v -1.05873 0.90000 3.43969
v -2.20000 0.74000 3.81051
v -2.20000 0.90000 3.81051
v -0.00000 0.95000 -0.14000
v -0.00000 0.85101 -0.09899
v -0.00000 0.81000 -0.00000
v 0.00000 0.85101 0.09899
v 0.00000 0.95000 0.14000
v 0.00000 1.04899 0.09899
v 0.00000 1.09000 0.00000
v -0.00000 1.04899 -0.09899
v -4.40000 0.95000 -0.14000
v -4.40000 0.85101 -0.09899
v -4.40000 0.81000 0.00000
v -4.40000 0.85101 0.09899
v -4.40000 0.95000 0.14000
v -4.40000 1.04899 0.09899
v -4.40000 1.09000 0.00000
v -4.40000 1.04899 -0.09899
v 0.00000 0.95000 0.00000
v -4.40000 0.95000 0.00000
v -3.20000 0.74000 0.00000
v -3.20000 0.90000 0.00000
v -3.25873 0.74000 0.37082
v -3.25873 0.90000 0.37082
v -3.42918 0.74000 0.70534
v -3.42918 0.90000 0.70534
v -3.69466 0.74000 0.97082
v -3.69466 0.90000 0.97082
v -4.02918 0.74000 1.14127
v -4.02918 0.90000 1.14127
v -4.40000 0.74000 1.20000
v -4.40000 0.90000 1.20000
v -4.77082 0.74000 1.14127
v -4.77082 0.90000 1.14127
v -5.10534 0.74000 0.97082
v -5.10534 0.90000 0.97082
v -5.37082 0.74000 0.70534
v -5.37082 0.90000 0.70534
v -5.54127 0.74000 0.37082
v -5.54127 0.90000 0.37082
v -5.60000 0.74000 0.00000
v -5.60000 0.90000 0.00000
v -5.54127 0.74000 -0.37082
v -5.54127 0.90000 -0.37082
v -5.37082 0.74000 -0.70534
v -5.37082 0.90000 -0.70534
v -5.10534 0.74000 -0.97082
v -5.10534 0.90000 -0.97082
v -4.77082 0.74000 -1.14127
v -4.77082 0.90000 -1.14127
v -4.40000 0.74000 -1.20000
v -4.40000 0.90000 -1.20000
v -4.02918 0.74000 -1.14127
v -4.02918 0.90000 -1.14127
v -3.69466 0.74000 -0.97082
v -3.69466 0.90000 -0.97082
v -3.42918 0.74000 -0.70534
v -3.42918 0.90000 -0.70534
v -3.25873 0.74000 -0.37082
v -3.25873 0.90000 -0.37082
v -4.40000 0.74000 0.00000
v -4.40000 0.90000 0.00000
v 0.12124 0.95000 -0.07000
v 0.08573 0.85101 -0.04950
v 0.00000 0.81000 -0.00000
v -0.08573 0.85101 0.04950
v -0.12124 0.95000 0.07000
v -0.08573 1.04899 0.04950
v -0.00000 1.09000 0.00000
v 0.08573 1.04899 -0.04950
v -2.07876 0.95000 -3.88051
v -2.11427 0.85101 -3.86001
v -2.20000 0.81000 -3.81051
v -2.28573 0.85101 -3.76101
v -2.32124 0.95000 -3.74051
v -2.28573 1.04899 -3.76101
v -2.20000 1.09000 -3.81051
v -2.11427 1.04899 -3.86001
v 0.00000 0.95000 0.00000
v -2.20000 0.95000 -3.81051
v -1.00000 0.74000 -3.81051
v -1.00000 0.90000 -3.81051
v -1.05873 0.74000 -3.43969
v -1.05873 0.90000 -3.43969
v -1.22918 0.74000 -3.10517
v -1.22918 0.90000 -3.10517
v -1.49466 0.74000 -2.83969
v -1.49466 0.90000 -2.83969
v -1.82918 0.74000 -2.66924
v -1.82918 0.90000 -2.66924
v -2.20000 0.74000 -2.61051
v -2.20000 0.90000 -2.61051
v -2.57082 0.74000 -2.66924
v -2.57082 0.90000 -2.66924
v -2.90534 0.74000 -2.83969
v -2.90534 0.90000 -2.83969
v -3.17082 0.74000 -3.10517
v -3.17082 0.90000 -3.10517
v -3.34127 0.74000 -3.43969
v -3.34127 0.90000 -3.43969
v -3.40000 0.74000 -3.81051
v -3.40000 0.90000 -3.81051
v -3.34127 0.74000 -4.18133
v -3.34127 0.90000 -4.18133
v -3.17082 0.74000 -4.51585
v -3.17082 0.90000 -4.51585
v -2.90534 0.74000 -4.78133
v -2.90534 0.90000 -4.78133
v -2.57082 0.74000 -4.95178
v -2.57082 0.90000 -4.95178
v -2.20000 0.74000 -5.01051
v -2.20000 0.90000 -5.01051
v -1.82918 0.74000 -4.95178
v -1.82918 0.90000 -4.95178
v -1.49466 0.74000 -4.78133
v -1.49466 0.90000 -4.78133
v -1.22918 0.74000 -4.51585
v -1.22918 0.90000 -4.51585
v -1.05873 0.74000 -4.18133
v -1.05873 0.90000 -4.18133
v -2.20000 0.74000 -3.81051
v -2.20000 0.90000 -3.81051
v 0.12124 0.95000 0.07000
v 0.08573 0.85101 0.04950
v 0.00000 0.81000 0.00000
v -0.08573 0.85101 -0.04950
v -0.12124 0.95000 -0.07000
v -0.08573 1.04899 -0.04950
v -0.00000 1.09000 -0.00000
v 0.08573 1.04899 0.04950
v 2.32124 0.95000 -3.74051
v 2.28573 0.85101 -3.76101
v 2.20000 0.81000 -3.81051
v 2.11427 0.85101 -3.86001
v 2.07876 0.95000 -3.88051
v 2.11427 1.04899 -3.86001
v 2.20000 1.09000 -3.81051
v 2.28573 1.04899 -3.76101
v 0.00000 0.95000 0.00000
v 2.20000 0.95000 -3.81051
v 3.40000 0.74000 -3.81051
v 3.40000 0.90000 -3.81051
v 3.34127 0.74000 -3.43969
v 3.34127 0.90000 -3.43969
v 3.17082 0.74000 -3.10517
v 3.17082 0.90000 -3.10517
v 2.90534 0.74000 -2.83969
v 2.90534 0.90000 -2.83969
v 2.57082 0.74000 -2.66924
v 2.57082 0.90000 -2.66924
v 2.20000 0.74000 -2.61051
v 2.20000 0.90000 -2.61051
v 1.82918 0.74000 -2.66924
v 1.82918 0.90000 -2.66924
v 1.49466 0.74000 -2.83969
v 1.49466 0.90000 -2.83969
v 1.22918 0.74000 -3.10517
v 1.22918 0.90000 -3.10517
v 1.05873 0.74000 -3.43969
v 1.05873 0.90000 -3.43969
v 1.00000 0.74000 -3.81051
v 1.00000 0.90000 -3.81051
v 1.05873 0.74000 -4.18133
v 1.05873 0.90000 -4.18133
v 1.22918 0.74000 -4.51585
v 1.22918 0.90000 -4.51585
v 1.49466 0.74000 -4.78133
v 1.49466 0.90000 -4.78133
v 1.82918 0.74000 -4.95178
v 1.82918 0.90000 -4.95178
v 2.20000 0.74000 -5.01051
v 2.20000 0.90000 -5.01051
v 2.57082 0.74000 -4.95178
v 2.57082 0.90000 -4.95178
v 2.90534 0.74000 -4.78133
v 2.90534 0.90000 -4.78133
v 3.17082 0.74000 -4.51585
v 3.17082 0.90000 -4.51585
v 3.34127 0.74000 -4.18133
v 3.34127 0.90000 -4.18133
v 2.20000 0.74000 -3.81051
v 2.20000 0.90000 -3.81051
v 0.00000 5.55000 -0.12000
v -0.11374 5.25654 -0.12000
v -0.42798 5.23906 -0.12000
v -0.18403 5.04021 -0.12000
v -0.26450 4.73594 -0.12000
v -0.00000 4.90650 -0.12000
v 0.26450 4.73594 -0.12000
v 0.18403 5.04021 -0.12000
v 0.42798 5.23906 -0.12000
v 0.11374 5.25654 -0.12000
v 0.00000 5.55000 0.12000
v -0.11374 5.25654 0.12000
v -0.42798 5.23906 0.12000
v -0.18403 5.04021 0.12000
v -0.26450 4.73594 0.12000
v -0.00000 4.90650 0.12000
v 0.26450 4.73594 0.12000
v 0.18403 5.04021 0.12000
v 0.42798 5.23906 0.12000
v 0.11374 5.25654 0.12000
v 0.00000 5.10000 -0.12000
v 0.00000 5.10000 0.12000
vt 0.05000 0.50000
vt 0.15000 0.50000
vt 0.25000 0.50000
vt 0.35000 0.50000
vt 0.45000 0.50000
vt 0.55000 0.50000
vt 0.65000 0.50000
vt 0.75000 0.50000
vt 0.85000 0.50000
vt 0.95000 0.50000
usemtl cream
f 2/1 4/1 3/1 1/1
f 1/1 3/1 81/1
f 4/1 2/1 82/1
f 4/1 6/1 5/1 3/1
f 3/1 5/1 81/1
f 6/1 4/1 82/1
f 6/1 8/1 7/1 5/1
f 5/1 7/1 81/1
f 8/1 6/1 82/1
f 8/1 10/1 9/1 7/1
f 7/1 9/1 81/1
f 10/1 8/1 82/1
f 10/1 12/1 11/1 9/1
f 9/1 11/1 81/1
f 12/1 10/1 82/1
f 12/1 14/1 13/1 11/1
f 11/1 13/1 81/1
f 14/1 12/1 82/1
f 14/1 16/1 15/1 13/1
f 13/1 15/1 81/1
f 16/1 14/1 82/1
f 16/1 18/1 17/1 15/1
f 15/1 17/1 81/1
f 18/1 16/1 82/1
f 18/1 20/1 19/1 17/1
f 17/1 19/1 81/1
f 20/1 18/1 82/1
f 20/1 22/1 21/1 19/1
f 19/1 21/1 81/1
f 22/1 20/1 82/1
f 22/1 24/1 23/1 21/1
f 21/1 23/1 81/1
f 24/1 22/1 82/1
f 24/1 26/1 25/1 23/1
f 23/1 25/1 81/1
f 26/1 24/1 82/1
f 26/1 28/1 27/1 25/1
f 25/1 27/1 81/1
f 28/1 26/1 82/1
f 28/1 30/1 29/1 27/1
f 27/1 29/1 81/1
f 30/1 28/1 82/1
f 30/1 32/1 31/1 29/1
f 29/1 31/1 81/1
f 32/1 30/1 82/1
f 32/1 34/1 33/1 31/1
f 31/1 33/1 81/1
f 34/1 32/1 82/1
f 34/1 36/1 35/1 33/1
f 33/1 35/1 81/1
f 36/1 34/1 82/1
f 36/1 38/1 37/1 35/1
f 35/1 37/1 81/1
f 38/1 36/1 82/1
f 38/1 40/1 39/1 37/1
f 37/1 39/1 81/1
f 40/1 38/1 82/1
f 40/1 42/1 41/1 39/1
f 39/1 41/1 81/1
f 42/1 40/1 82/1
f 42/1 44/1 43/1 41/1
f 41/1 43/1 81/1
f 44/1 42/1 82/1
f 44/1 46/1 45/1 43/1
f 43/1 45/1 81/1
f 46/1 44/1 82/1
f 46/1 48/1 47/1 45/1
f 45/1 47/1 81/1
f 48/1 46/1 82/1
f 48/1 50/1 49/1 47/1
f 47/1 49/1 81/1
f 50/1 48/1 82/1
f 50/1 52/1 51/1 49/1
f 49/1 51/1 81/1
f 52/1 50/1 82/1
f 52/1 54/1 53/1 51/1
f 51/1 53/1 81/1
f 54/1 52/1 82/1
f 54/1 56/1 55/1 53/1
f 53/1 55/1 81/1
f 56/1 54/1 82/1
f 56/1 58/1 57/1 55/1
f 55/1 57/1 81/1
f 58/1 56/1 82/1
f 58/1 60/1 59/1 57/1
f 57/1 59/1 81/1
f 60/1 58/1 82/1
f 60/1 62/1 61/1 59/1
f 59/1 61/1 81/1
f 62/1 60/1 82/1
f 62/1 64/1 63/1 61/1
f 61/1 63/1 81/1
f 64/1 62/1 82/1
f 64/1 66/1 65/1 63/1
f 63/1 65/1 81/1
f 66/1 64/1 82/1
f 66/1 68/1 67/1 65/1
f 65/1 67/1 81/1
f 68/1 66/1 82/1
f 68/1 70/1 69/1 67/1
f 67/1 69/1 81/1
f 70/1 68/1 82/1
f 70/1 72/1 71/1 69/1
f 69/1 71/1 81/1
f 72/1 70/1 82/1
f 72/1 74/1 73/1 71/1
f 71/1 73/1 81/1
f 74/1 72/1 82/1
f 74/1 76/1 75/1 73/1
f 73/1 75/1 81/1
f 76/1 74/1 82/1
f 76/1 78/1 77/1 75/1
f 75/1 77/1 81/1
f 78/1 76/1 82/1
f 78/1 80/1 79/1 77/1
f 77/1 79/1 81/1
f 80/1 78/1 82/1
f 80/1 2/1 1/1 79/1
f 79/1 1/1 81/1
f 2/1 80/1 82/1
f 697/1 698/1 674/1 673/1
f 698/1 699/1 675/1 674/1
f 699/1 700/1 676/1 675/1
f 700/1 701/1 677/1 676/1
f 701/1 702/1 678/1 677/1
f 702/1 703/1 679/1 678/1
f 703/1 704/1 680/1 679/1
f 704/1 705/1 681/1 680/1
f 705/1 706/1 682/1 681/1
f 706/1 707/1 683/1 682/1
f 707/1 708/1 684/1 683/1
f 708/1 709/1 685/1 684/1
f 709/1 710/1 686/1 685/1
f 710/1 711/1 687/1 686/1
f 711/1 712/1 688/1 687/1
f 712/1 713/1 689/1 688/1
f 713/1 714/1 690/1 689/1
f 714/1 715/1 691/1 690/1
f 715/1 716/1 692/1 691/1
f 716/1 717/1 693/1 692/1
f 717/1 718/1 694/1 693/1
f 718/1 719/1 695/1 694/1
f 719/1 720/1 696/1 695/1
f 720/1 697/1 673/1 696/1
f 745/1 746/1 722/1 721/1
f 746/1 747/1 723/1 722/1
f 747/1 748/1 724/1 723/1
f 748/1 749/1 725/1 724/1
f 749/1 750/1 726/1 725/1
f 750/1 751/1 727/1 726/1
f 751/1 752/1 728/1 727/1
f 752/1 753/1 729/1 728/1
f 753/1 754/1 730/1 729/1
f 754/1 755/1 731/1 730/1
f 755/1 756/1 732/1 731/1
f 756/1 757/1 733/1 732/1
f 757/1 758/1 734/1 733/1
f 758/1 759/1 735/1 734/1
f 759/1 760/1 736/1 735/1
f 760/1 761/1 737/1 736/1
f 761/1 762/1 738/1 737/1
f 762/1 763/1 739/1 738/1
f 763/1 764/1 740/1 739/1
f 764/1 765/1 741/1 740/1
f 765/1 766/1 742/1 741/1
f 766/1 767/1 743/1 742/1
f 767/1 768/1 744/1 743/1
f 768/1 745/1 721/1 744/1
usemtl mint
f 84/3 86/3 85/3 83/3
f 83/3 85/3 163/3
f 86/3 84/3 164/3
f 86/3 88/3 87/3 85/3
f 85/3 87/3 163/3
f 88/3 86/3 164/3
f 88/3 90/3 89/3 87/3
f 87/3 89/3 163/3
f 90/3 88/3 164/3
f 90/3 92/3 91/3 89/3
f 89/3 91/3 163/3
f 92/3 90/3 164/3
f 92/3 94/3 93/3 91/3
f 91/3 93/3 163/3
f 94/3 92/3 164/3
f 94/3 96/3 95/3 93/3
f 93/3 95/3 163/3
f 96/3 94/3 164/3
f 96/3 98/3 97/3 95/3
f 95/3 97/3 163/3
f 98/3 96/3 164/3
f 98/3 100/3 99/3 97/3
f 97/3 99/3 163/3
f 100/3 98/3 164/3
f 100/3 102/3 101/3 99/3
f 99/3 101/3 163/3
f 102/3 100/3 164/3
f 102/3 104/3 103/3 101/3
f 101/3 103/3 163/3
f 104/3 102/3 164/3
f 104/3 106/3 105/3 103/3
f 103/3 105/3 163/3
f 106/3 104/3 164/3
f 106/3 108/3 107/3 105/3
f 105/3 107/3 163/3
f 108/3 106/3 164/3
f 108/3 110/3 109/3 107/3
f 107/3 109/3 163/3
f 110/3 108/3 164/3
f 110/3 112/3 111/3 109/3
f 109/3 111/3 163/3
f 112/3 110/3 164/3
f 112/3 114/3 113/3 111/3
f 111/3 113/3 163/3
f 114/3 112/3 164/3
f 114/3 116/3 115/3 113/3
f 113/3 115/3 163/3
f 116/3 114/3 164/3
f 116/3 118/3 117/3 115/3
f 115/3 117/3 163/3
f 118/3 116/3 164/3
f 118/3 120/3 119/3 117/3
f 117/3 119/3 163/3
f 120/3 118/3 164/3
f 120/3 122/3 121/3 119/3
f 119/3 121/3 163/3
f 122/3 120/3 164/3
f 122/3 124/3 123/3 121/3
f 121/3 123/3 163/3
f 124/3 122/3 164/3
f 124/3 126/3 125/3 123/3
f 123/3 125/3 163/3
f 126/3 124/3 164/3
f 126/3 128/3 127/3 125/3
f 125/3 127/3 163/3
f 128/3 126/3 164/3
f 128/3 130/3 129/3 127/3
f 127/3 129/3 163/3
f 130/3 128/3 164/3
f 130/3 132/3 131/3 129/3
f 129/3 131/3 163/3
f 132/3 130/3 164/3
f 132/3 134/3 133/3 131/3
f 131/3 133/3 163/3
f 134/3 132/3 164/3
f 134/3 136/3 135/3 133/3
f 133/3 135/3 163/3
f 136/3 134/3 164/3
f 136/3 138/3 137/3 135/3
f 135/3 137/3 163/3
f 138/3 136/3 164/3
f 138/3 140/3 139/3 137/3
f 137/3 139/3 163/3
f 140/3 138/3 164/3
f 140/3 142/3 141/3 139/3
f 139/3 141/3 163/3
f 142/3 140/3 164/3
f 142/3 144/3 143/3 141/3
f 141/3 143/3 163/3
f 144/3 142/3 164/3
f 144/3 146/3 145/3 143/3
f 143/3 145/3 163/3
f 146/3 144/3 164/3
f 146/3 148/3 147/3 145/3
f 145/3 147/3 163/3
f 148/3 146/3 164/3
f 148/3 150/3 149/3 147/3
f 147/3 149/3 163/3
f 150/3 148/3 164/3
f 150/3 152/3 151/3 149/3
f 149/3 151/3 163/3
f 152/3 150/3 164/3
f 152/3 154/3 153/3 151/3
f 151/3 153/3 163/3
f 154/3 152/3 164/3
f 154/3 156/3 155/3 153/3
f 153/3 155/3 163/3
f 156/3 154/3 164/3
f 156/3 158/3 157/3 155/3
f 155/3 157/3 163/3
f 158/3 156/3 164/3
f 158/3 160/3 159/3 157/3
f 157/3 159/3 163/3
f 160/3 158/3 164/3
f 160/3 162/3 161/3 159/3
f 159/3 161/3 163/3
f 162/3 160/3 164/3
f 162/3 84/3 83/3 161/3
f 161/3 83/3 163/3
f 84/3 162/3 164/3
f 721/3 722/3 698/3 697/3
f 722/3 723/3 699/3 698/3
f 723/3 724/3 700/3 699/3
f 724/3 725/3 701/3 700/3
f 725/3 726/3 702/3 701/3
f 726/3 727/3 703/3 702/3
f 727/3 728/3 704/3 703/3
f 728/3 729/3 705/3 704/3
f 729/3 730/3 706/3 705/3
f 730/3 731/3 707/3 706/3
f 731/3 732/3 708/3 707/3
f 732/3 733/3 709/3 708/3
f 733/3 734/3 710/3 709/3
f 734/3 735/3 711/3 710/3
f 735/3 736/3 712/3 711/3
f 736/3 737/3 713/3 712/3
f 737/3 738/3 714/3 713/3
f 738/3 739/3 715/3 714/3
f 739/3 740/3 716/3 715/3
f 740/3 741/3 717/3 716/3
f 741/3 742/3 718/3 717/3
f 742/3 743/3 719/3 718/3
f 743/3 744/3 720/3 719/3
f 744/3 721/3 697/3 720/3
usemtl gold
f 165/4 166/4 172/4 171/4
f 166/4 167/4 173/4 172/4
f 167/4 168/4 174/4 173/4
f 168/4 169/4 175/4 174/4
f 169/4 170/4 176/4 175/4
f 170/4 165/4 171/4 176/4
f 171/4 172/4 178/4 177/4
f 172/4 173/4 179/4 178/4
f 173/4 174/4 180/4 179/4
f 174/4 175/4 181/4 180/4
f 175/4 176/4 182/4 181/4
f 176/4 171/4 177/4 182/4
f 177/4 178/4 184/4 183/4
f 178/4 179/4 185/4 184/4
f 179/4 180/4 186/4 185/4
f 180/4 181/4 187/4 186/4
f 181/4 182/4 188/4 187/4
f 182/4 177/4 183/4 188/4
f 183/4 184/4 190/4 189/4
f 184/4 185/4 191/4 190/4
f 185/4 186/4 192/4 191/4
f 186/4 187/4 193/4 192/4
f 187/4 188/4 194/4 193/4
f 188/4 183/4 189/4 194/4
f 189/4 190/4 196/4 195/4
f 190/4 191/4 197/4 196/4
f 191/4 192/4 198/4 197/4
f 192/4 193/4 199/4 198/4
f 193/4 194/4 200/4 199/4
f 194/4 189/4 195/4 200/4
f 195/4 196/4 202/4 201/4
f 196/4 197/4 203/4 202/4
f 197/4 198/4 204/4 203/4
f 198/4 199/4 205/4 204/4
f 199/4 200/4 206/4 205/4
f 200/4 195/4 201/4 206/4
f 201/4 202/4 208/4 207/4
f 202/4 203/4 209/4 208/4
f 203/4 204/4 210/4 209/4
f 204/4 205/4 211/4 210/4
f 205/4 206/4 212/4 211/4
f 206/4 201/4 207/4 212/4
f 207/4 208/4 214/4 213/4
f 208/4 209/4 215/4 214/4
f 209/4 210/4 216/4 215/4
f 210/4 211/4 217/4 216/4
f 211/4 212/4 218/4 217/4
f 212/4 207/4 213/4 218/4
f 213/4 214/4 220/4 219/4
f 214/4 215/4 221/4 220/4
f 215/4 216/4 222/4 221/4
f 216/4 217/4 223/4 222/4
f 217/4 218/4 224/4 223/4
f 218/4 213/4 219/4 224/4
f 219/4 220/4 226/4 225/4
f 220/4 221/4 227/4 226/4
f 221/4 222/4 228/4 227/4
f 222/4 223/4 229/4 228/4
f 223/4 224/4 230/4 229/4
f 224/4 219/4 225/4 230/4
f 225/4 226/4 232/4 231/4
f 226/4 227/4 233/4 232/4
f 227/4 228/4 234/4 233/4
f 228/4 229/4 235/4 234/4
f 229/4 230/4 236/4 235/4
f 230/4 225/4 231/4 236/4
f 231/4 232/4 238/4 237/4
f 232/4 233/4 239/4 238/4
f 233/4 234/4 240/4 239/4
f 234/4 235/4 241/4 240/4
f 235/4 236/4 242/4 241/4
f 236/4 231/4 237/4 242/4
f 237/4 238/4 244/4 243/4
f 238/4 239/4 245/4 244/4
f 239/4 240/4 246/4 245/4
f 240/4 241/4 247/4 246/4
f 241/4 242/4 248/4 247/4
f 242/4 237/4 243/4 248/4
f 243/4 244/4 250/4 249/4
f 244/4 245/4 251/4 250/4
f 245/4 246/4 252/4 251/4
f 246/4 247/4 253/4 252/4
f 247/4 248/4 254/4 253/4
f 248/4 243/4 249/4 254/4
f 249/4 250/4 256/4 255/4
f 250/4 251/4 257/4 256/4
f 251/4 252/4 258/4 257/4
f 252/4 253/4 259/4 258/4
f 253/4 254/4 260/4 259/4
f 254/4 249/4 255/4 260/4
f 255/4 256/4 262/4 261/4
f 256/4 257/4 263/4 262/4
f 257/4 258/4 264/4 263/4
f 258/4 259/4 265/4 264/4
f 259/4 260/4 266/4 265/4
f 260/4 255/4 261/4 266/4
f 261/4 262/4 268/4 267/4
f 262/4 263/4 269/4 268/4
f 263/4 264/4 270/4 269/4
f 264/4 265/4 271/4 270/4
f 265/4 266/4 272/4 271/4
f 266/4 261/4 267/4 272/4
f 267/4 268/4 274/4 273/4
f 268/4 269/4 275/4 274/4
f 269/4 270/4 276/4 275/4
f 270/4 271/4 277/4 276/4
f 271/4 272/4 278/4 277/4
f 272/4 267/4 273/4 278/4
f 273/4 274/4 280/4 279/4
f 274/4 275/4 281/4 280/4
f 275/4 276/4 282/4 281/4
f 276/4 277/4 283/4 282/4
f 277/4 278/4 284/4 283/4
f 278/4 273/4 279/4 284/4
f 279/4 280/4 286/4 285/4
f 280/4 281/4 287/4 286/4
f 281/4 282/4 288/4 287/4
f 282/4 283/4 289/4 288/4
f 283/4 284/4 290/4 289/4
f 284/4 279/4 285/4 290/4
f 285/4 286/4 292/4 291/4
f 286/4 287/4 293/4 292/4
f 287/4 288/4 294/4 293/4
f 288/4 289/4 295/4 294/4
f 289/4 290/4 296/4 295/4
f 290/4 285/4 291/4 296/4
f 291/4 292/4 298/4 297/4
f 292/4 293/4 299/4 298/4
f 293/4 294/4 300/4 299/4
f 294/4 295/4 301/4 300/4
f 295/4 296/4 302/4 301/4
f 296/4 291/4 297/4 302/4
f 297/4 298/4 304/4 303/4
f 298/4 299/4 305/4 304/4
f 299/4 300/4 306/4 305/4
f 300/4 301/4 307/4 306/4
f 301/4 302/4 308/4 307/4
f 302/4 297/4 303/4 308/4
f 303/4 304/4 310/4 309/4
f 304/4 305/4 311/4 310/4
f 305/4 306/4 312/4 311/4
f 306/4 307/4 313/4 312/4
f 307/4 308/4 314/4 313/4
f 308/4 303/4 309/4 314/4
f 309/4 310/4 316/4 315/4
f 310/4 311/4 317/4 316/4
f 311/4 312/4 318/4 317/4
f 312/4 313/4 319/4 318/4
f 313/4 314/4 320/4 319/4
f 314/4 309/4 315/4 320/4
f 315/4 316/4 322/4 321/4
f 316/4 317/4 323/4 322/4
f 317/4 318/4 324/4 323/4
f 318/4 319/4 325/4 324/4
f 319/4 320/4 326/4 325/4
f 320/4 315/4 321/4 326/4
f 321/4 322/4 328/4 327/4
f 322/4 323/4 329/4 328/4
f 323/4 324/4 330/4 329/4
f 324/4 325/4 331/4 330/4
f 325/4 326/4 332/4 331/4
f 326/4 321/4 327/4 332/4
f 327/4 328/4 334/4 333/4
f 328/4 329/4 335/4 334/4
f 329/4 330/4 336/4 335/4
f 330/4 331/4 337/4 336/4
f 331/4 332/4 338/4 337/4
f 332/4 327/4 333/4 338/4
f 333/4 334/4 340/4 339/4
f 334/4 335/4 341/4 340/4
f 335/4 336/4 342/4 341/4
f 336/4 337/4 343/4 342/4
f 337/4 338/4 344/4 343/4
f 338/4 333/4 339/4 344/4
f 339/4 340/4 346/4 345/4
f 340/4 341/4 347/4 346/4
f 341/4 342/4 348/4 347/4
f 342/4 343/4 349/4 348/4
f 343/4 344/4 350/4 349/4
f 344/4 339/4 345/4 350/4
f 345/4 346/4 352/4 351/4
f 346/4 347/4 353/4 352/4
f 347/4 348/4 354/4 353/4
f 348/4 349/4 355/4 354/4
f 349/4 350/4 356/4 355/4
f 350/4 345/4 351/4 356/4
f 351/4 352/4 358/4 357/4
f 352/4 353/4 359/4 358/4
f 353/4 354/4 360/4 359/4
f 354/4 355/4 361/4 360/4
f 355/4 356/4 362/4 361/4
f 356/4 351/4 357/4 362/4
f 357/4 358/4 364/4 363/4
f 358/4 359/4 365/4 364/4
f 359/4 360/4 366/4 365/4
f 360/4 361/4 367/4 366/4
f 361/4 362/4 368/4 367/4
f 362/4 357/4 363/4 368/4
f 363/4 364/4 370/4 369/4
f 364/4 365/4 371/4 370/4
f 365/4 366/4 372/4 371/4
f 366/4 367/4 373/4 372/4
f 367/4 368/4 374/4 373/4
f 368/4 363/4 369/4 374/4
f 369/4 370/4 376/4 375/4
f 370/4 371/4 377/4 376/4
f 371/4 372/4 378/4 377/4
f 372/4 373/4 379/4 378/4
f 373/4 374/4 380/4 379/4
f 374/4 369/4 375/4 380/4
f 375/4 376/4 382/4 381/4
f 376/4 377/4 383/4 382/4
f 377/4 378/4 384/4 383/4
f 378/4 379/4 385/4 384/4
f 379/4 380/4 386/4 385/4
f 380/4 375/4 381/4 386/4
f 381/4 382/4 388/4 387/4
f 382/4 383/4 389/4 388/4
f 383/4 384/4 390/4 389/4
f 384/4 385/4 391/4 390/4
f 385/4 386/4 392/4 391/4
f 386/4 381/4 387/4 392/4
f 387/4 388/4 394/4 393/4
f 388/4 389/4 395/4 394/4
f 389/4 390/4 396/4 395/4
f 390/4 391/4 397/4 396/4
f 391/4 392/4 398/4 397/4
f 392/4 387/4 393/4 398/4
f 393/4 394/4 400/4 399/4
f 394/4 395/4 401/4 400/4
f 395/4 396/4 402/4 401/4
f 396/4 397/4 403/4 402/4
f 397/4 398/4 404/4 403/4
f 398/4 393/4 399/4 404/4
f 399/4 400/4 166/4 165/4
f 400/4 401/4 167/4 166/4
f 401/4 402/4 168/4 167/4
f 402/4 403/4 169/4 168/4
f 403/4 404/4 170/4 169/4
f 404/4 399/4 165/4 170/4
f 673/4 674/4 650/4 649/4
f 674/4 675/4 651/4 650/4
f 675/4 676/4 652/4 651/4
f 676/4 677/4 653/4 652/4
f 677/4 678/4 654/4 653/4
f 678/4 679/4 655/4 654/4
f 679/4 680/4 656/4 655/4
f 680/4 681/4 657/4 656/4
f 681/4 682/4 658/4 657/4
f 682/4 683/4 659/4 658/4
f 683/4 684/4 660/4 659/4
f 684/4 685/4 661/4 660/4
f 685/4 686/4 662/4 661/4
f 686/4 687/4 663/4 662/4
f 687/4 688/4 664/4 663/4
f 688/4 689/4 665/4 664/4
f 689/4 690/4 666/4 665/4
f 690/4 691/4 667/4 666/4
f 691/4 692/4 668/4 667/4
f 692/4 693/4 669/4 668/4
f 693/4 694/4 670/4 669/4
f 694/4 695/4 671/4 670/4
f 695/4 696/4 672/4 671/4
f 696/4 673/4 649/4 672/4
f 769/4 770/4 778/4 777/4
f 785/4 770/4 769/4
f 786/4 777/4 778/4
f 770/4 771/4 779/4 778/4
f 785/4 771/4 770/4
f 786/4 778/4 779/4
f 771/4 772/4 780/4 779/4
f 785/4 772/4 771/4
f 786/4 779/4 780/4
f 772/4 773/4 781/4 780/4
f 785/4 773/4 772/4
f 786/4 780/4 781/4
f 773/4 774/4 782/4 781/4
f 785/4 774/4 773/4
f 786/4 781/4 782/4
f 774/4 775/4 783/4 782/4
f 785/4 775/4 774/4
f 786/4 782/4 783/4
f 775/4 776/4 784/4 783/4
f 785/4 776/4 775/4
f 786/4 783/4 784/4
f 776/4 769/4 777/4 784/4
f 785/4 769/4 776/4
f 786/4 784/4 777/4
f 788/4 790/4 789/4 787/4
f 787/4 789/4 827/4
f 790/4 788/4 828/4
f 790/4 792/4 791/4 789/4
f 789/4 791/4 827/4
f 792/4 790/4 828/4
f 792/4 794/4 793/4 791/4
f 791/4 793/4 827/4
f 794/4 792/4 828/4
f 794/4 796/4 795/4 793/4
f 793/4 795/4 827/4
f 796/4 794/4 828/4
f 796/4 798/4 797/4 795/4
f 795/4 797/4 827/4
f 798/4 796/4 828/4
f 798/4 800/4 799/4 797/4
f 797/4 799/4 827/4
f 800/4 798/4 828/4
f 800/4 802/4 801/4 799/4
f 799/4 801/4 827/4
f 802/4 800/4 828/4
f 802/4 804/4 803/4 801/4
f 801/4 803/4 827/4
f 804/4 802/4 828/4
f 804/4 806/4 805/4 803/4
f 803/4 805/4 827/4
f 806/4 804/4 828/4
f 806/4 808/4 807/4 805/4
f 805/4 807/4 827/4
f 808/4 806/4 828/4
f 808/4 810/4 809/4 807/4
f 807/4 809/4 827/4
f 810/4 808/4 828/4
f 810/4 812/4 811/4 809/4
f 809/4 811/4 827/4
f 812/4 810/4 828/4
f 812/4 814/4 813/4 811/4
f 811/4 813/4 827/4
f 814/4 812/4 828/4
f 814/4 816/4 815/4 813/4
f 813/4 815/4 827/4
f 816/4 814/4 828/4
f 816/4 818/4 817/4 815/4
f 815/4 817/4 827/4
f 818/4 816/4 828/4
f 818/4 820/4 819/4 817/4
f 817/4 819/4 827/4
f 820/4 818/4 828/4
f 820/4 822/4 821/4 819/4
f 819/4 821/4 827/4
f 822/4 820/4 828/4
f 822/4 824/4 823/4 821/4
f 821/4 823/4 827/4
f 824/4 822/4 828/4
f 824/4 826/4 825/4 823/4
f 823/4 825/4 827/4
f 826/4 824/4 828/4
f 826/4 788/4 787/4 825/4
f 825/4 787/4 827/4
f 788/4 826/4 828/4
f 829/4 830/4 838/4 837/4
f 845/4 830/4 829/4
f 846/4 837/4 838/4
f 830/4 831/4 839/4 838/4
f 845/4 831/4 830/4
f 846/4 838/4 839/4
f 831/4 832/4 840/4 839/4
f 845/4 832/4 831/4
f 846/4 839/4 840/4
f 832/4 833/4 841/4 840/4
f 845/4 833/4 832/4
f 846/4 840/4 841/4
f 833/4 834/4 842/4 841/4
f 845/4 834/4 833/4
f 846/4 841/4 842/4
f 834/4 835/4 843/4 842/4
f 845/4 835/4 834/4
f 846/4 842/4 843/4
f 835/4 836/4 844/4 843/4
f 845/4 836/4 835/4
f 846/4 843/4 844/4
f 836/4 829/4 837/4 844/4
f 845/4 829/4 836/4
f 846/4 844/4 837/4
f 848/4 850/4 849/4 847/4
f 847/4 849/4 887/4
f 850/4 848/4 888/4
f 850/4 852/4 851/4 849/4
f 849/4 851/4 887/4
f 852/4 850/4 888/4
f 852/4 854/4 853/4 851/4
f 851/4 853/4 887/4
f 854/4 852/4 888/4
f 854/4 856/4 855/4 853/4
f 853/4 855/4 887/4
f 856/4 854/4 888/4
f 856/4 858/4 857/4 855/4
f 855/4 857/4 887/4
f 858/4 856/4 888/4
f 858/4 860/4 859/4 857/4
f 857/4 859/4 887/4
f 860/4 858/4 888/4
f 860/4 862/4 861/4 859/4
f 859/4 861/4 887/4
f 862/4 860/4 888/4
f 862/4 864/4 863/4 861/4
f 861/4 863/4 887/4
f 864/4 862/4 888/4
f 864/4 866/4 865/4 863/4
f 863/4 865/4 887/4
f 866/4 864/4 888/4
f 866/4 868/4 867/4 865/4
f 865/4 867/4 887/4
f 868/4 866/4 888/4
f 868/4 870/4 869/4 867/4
f 867/4 869/4 887/4
f 870/4 868/4 888/4
f 870/4 872/4 871/4 869/4
f 869/4 871/4 887/4
f 872/4 870/4 888/4
f 872/4 874/4 873/4 871/4
f 871/4 873/4 887/4
f 874/4 872/4 888/4
f 874/4 876/4 875/4 873/4
f 873/4 875/4 887/4
f 876/4 874/4 888/4
f 876/4 878/4 877/4 875/4
f 875/4 877/4 887/4
f 878/4 876/4 888/4
f 878/4 880/4 879/4 877/4
f 877/4 879/4 887/4
f 880/4 878/4 888/4
f 880/4 882/4 881/4 879/4
f 879/4 881/4 887/4
f 882/4 880/4 888/4
f 882/4 884/4 883/4 881/4
f 881/4 883/4 887/4
f 884/4 882/4 888/4
f 884/4 886/4 885/4 883/4
f 883/4 885/4 887/4
f 886/4 884/4 888/4
f 886/4 848/4 847/4 885/4
f 885/4 847/4 887/4
f 848/4 886/4 888/4
f 889/4 890/4 898/4 897/4
f 905/4 890/4 889/4
f 906/4 897/4 898/4
f 890/4 891/4 899/4 898/4
f 905/4 891/4 890/4
f 906/4 898/4 899/4
f 891/4 892/4 900/4 899/4
f 905/4 892/4 891/4
f 906/4 899/4 900/4
f 892/4 893/4 901/4 900/4
f 905/4 893/4 892/4
f 906/4 900/4 901/4
f 893/4 894/4 902/4 901/4
f 905/4 894/4 893/4
f 906/4 901/4 902/4
f 894/4 895/4 903/4 902/4
f 905/4 895/4 894/4
f 906/4 902/4 903/4
f 895/4 896/4 904/4 903/4
f 905/4 896/4 895/4
f 906/4 903/4 904/4
f 896/4 889/4 897/4 904/4
f 905/4 889/4 896/4
f 906/4 904/4 897/4
f 908/4 910/4 909/4 907/4
f 907/4 909/4 947/4
f 910/4 908/4 948/4
f 910/4 912/4 911/4 909/4
f 909/4 911/4 947/4
f 912/4 910/4 948/4
f 912/4 914/4 913/4 911/4
f 911/4 913/4 947/4
f 914/4 912/4 948/4
f 914/4 916/4 915/4 913/4
f 913/4 915/4 947/4
f 916/4 914/4 948/4
f 916/4 918/4 917/4 915/4
f 915/4 917/4 947/4
f 918/4 916/4 948/4
f 918/4 920/4 919/4 917/4
f 917/4 919/4 947/4
f 920/4 918/4 948/4
f 920/4 922/4 921/4 919/4
f 919/4 921/4 947/4
f 922/4 920/4 948/4
f 922/4 924/4 923/4 921/4
f 921/4 923/4 947/4
f 924/4 922/4 948/4
f 924/4 926/4 925/4 923/4
f 923/4 925/4 947/4
f 926/4 924/4 948/4
f 926/4 928/4 927/4 925/4
f 925/4 927/4 947/4
f 928/4 926/4 948/4
f 928/4 930/4 929/4 927/4
f 927/4 929/4 947/4
f 930/4 928/4 948/4
f 930/4 932/4 931/4 929/4
f 929/4 931/4 947/4
f 932/4 930/4 948/4
f 932/4 934/4 933/4 931/4
f 931/4 933/4 947/4
f 934/4 932/4 948/4
f 934/4 936/4 935/4 933/4
f 933/4 935/4 947/4
f 936/4 934/4 948/4
f 936/4 938/4 937/4 935/4
f 935/4 937/4 947/4
f 938/4 936/4 948/4
f 938/4 940/4 939/4 937/4
f 937/4 939/4 947/4
f 940/4 938/4 948/4
f 940/4 942/4 941/4 939/4
f 939/4 941/4 947/4
f 942/4 940/4 948/4
f 942/4 944/4 943/4 941/4
f 941/4 943/4 947/4
f 944/4 942/4 948/4
f 944/4 946/4 945/4 943/4
f 943/4 945/4 947/4
f 946/4 944/4 948/4
f 946/4 908/4 907/4 945/4
f 945/4 907/4 947/4
f 908/4 946/4 948/4
f 949/4 950/4 958/4 957/4
f 965/4 950/4 949/4
f 966/4 957/4 958/4
f 950/4 951/4 959/4 958/4
f 965/4 951/4 950/4
f 966/4 958/4 959/4
f 951/4 952/4 960/4 959/4
f 965/4 952/4 951/4
f 966/4 959/4 960/4
f 952/4 953/4 961/4 960/4
f 965/4 953/4 952/4
f 966/4 960/4 961/4
f 953/4 954/4 962/4 961/4
f 965/4 954/4 953/4
f 966/4 961/4 962/4
f 954/4 955/4 963/4 962/4
f 965/4 955/4 954/4
f 966/4 962/4 963/4
f 955/4 956/4 964/4 963/4
f 965/4 956/4 955/4
f 966/4 963/4 964/4
f 956/4 949/4 957/4 964/4
f 965/4 949/4 956/4
f 966/4 964/4 957/4
f 968/4 970/4 969/4 967/4
f 967/4 969/4 1007/4
f 970/4 968/4 1008/4
f 970/4 972/4 971/4 969/4
f 969/4 971/4 1007/4
f 972/4 970/4 1008/4
f 972/4 974/4 973/4 971/4
f 971/4 973/4 1007/4
f 974/4 972/4 1008/4
f 974/4 976/4 975/4 973/4
f 973/4 975/4 1007/4
f 976/4 974/4 1008/4
f 976/4 978/4 977/4 975/4
f 975/4 977/4 1007/4
f 978/4 976/4 1008/4
f 978/4 980/4 979/4 977/4
f 977/4 979/4 1007/4
f 980/4 978/4 1008/4
f 980/4 982/4 981/4 979/4
f 979/4 981/4 1007/4
f 982/4 980/4 1008/4
f 982/4 984/4 983/4 981/4
f 981/4 983/4 1007/4
f 984/4 982/4 1008/4
f 984/4 986/4 985/4 983/4
f 983/4 985/4 1007/4
f 986/4 984/4 1008/4
f 986/4 988/4 987/4 985/4
f 985/4 987/4 1007/4
f 988/4 986/4 1008/4
f 988/4 990/4 989/4 987/4
f 987/4 989/4 1007/4
f 990/4 988/4 1008/4
f 990/4 992/4 991/4 989/4
f 989/4 991/4 1007/4
f 992/4 990/4 1008/4
f 992/4 994/4 993/4 991/4
f 991/4 993/4 1007/4
f 994/4 992/4 1008/4
f 994/4 996/4 995/4 993/4
f 993/4 995/4 1007/4
f 996/4 994/4 1008/4
f 996/4 998/4 997/4 995/4
f 995/4 997/4 1007/4
f 998/4 996/4 1008/4
f 998/4 1000/4 999/4 997/4
f 997/4 999/4 1007/4
f 1000/4 998/4 1008/4
f 1000/4 1002/4 1001/4 999/4
f 999/4 1001/4 1007/4
f 1002/4 1000/4 1008/4
f 1002/4 1004/4 1003/4 1001/4
f 1001/4 1003/4 1007/4
f 1004/4 1002/4 1008/4
f 1004/4 1006/4 1005/4 1003/4
f 1003/4 1005/4 1007/4
f 1006/4 1004/4 1008/4
f 1006/4 968/4 967/4 1005/4
f 1005/4 967/4 1007/4
f 968/4 1006/4 1008/4
f 1009/4 1010/4 1018/4 1017/4
f 1025/4 1010/4 1009/4
f 1026/4 1017/4 1018/4
f 1010/4 1011/4 1019/4 1018/4
f 1025/4 1011/4 1010/4
f 1026/4 1018/4 1019/4
f 1011/4 1012/4 1020/4 1019/4
f 1025/4 1012/4 1011/4
f 1026/4 1019/4 1020/4
f 1012/4 1013/4 1021/4 1020/4
f 1025/4 1013/4 1012/4
f 1026/4 1020/4 1021/4
f 1013/4 1014/4 1022/4 1021/4
f 1025/4 1014/4 1013/4
f 1026/4 1021/4 1022/4
f 1014/4 1015/4 1023/4 1022/4
f 1025/4 1015/4 1014/4
f 1026/4 1022/4 1023/4
f 1015/4 1016/4 1024/4 1023/4
f 1025/4 1016/4 1015/4
f 1026/4 1023/4 1024/4
f 1016/4 1009/4 1017/4 1024/4
f 1025/4 1009/4 1016/4
f 1026/4 1024/4 1017/4
f 1028/4 1030/4 1029/4 1027/4
f 1027/4 1029/4 1067/4
f 1030/4 1028/4 1068/4
f 1030/4 1032/4 1031/4 1029/4
f 1029/4 1031/4 1067/4
f 1032/4 1030/4 1068/4
f 1032/4 1034/4 1033/4 1031/4
f 1031/4 1033/4 1067/4
f 1034/4 1032/4 1068/4
f 1034/4 1036/4 1035/4 1033/4
f 1033/4 1035/4 1067/4
f 1036/4 1034/4 1068/4
f 1036/4 1038/4 1037/4 1035/4
f 1035/4 1037/4 1067/4
f 1038/4 1036/4 1068/4
f 1038/4 1040/4 1039/4 1037/4
f 1037/4 1039/4 1067/4
f 1040/4 1038/4 1068/4
f 1040/4 1042/4 1041/4 1039/4
f 1039/4 1041/4 1067/4
f 1042/4 1040/4 1068/4
f 1042/4 1044/4 1043/4 1041/4
f 1041/4 1043/4 1067/4
f 1044/4 1042/4 1068/4
f 1044/4 1046/4 1045/4 1043/4
f 1043/4 1045/4 1067/4
f 1046/4 1044/4 1068/4
f 1046/4 1048/4 1047/4 1045/4
f 1045/4 1047/4 1067/4
f 1048/4 1046/4 1068/4
f 1048/4 1050/4 1049/4 1047/4
f 1047/4 1049/4 1067/4
f 1050/4 1048/4 1068/4
f 1050/4 1052/4 1051/4 1049/4
f 1049/4 1051/4 1067/4
f 1052/4 1050/4 1068/4
f 1052/4 1054/4 1053/4 1051/4
f 1051/4 1053/4 1067/4
f 1054/4 1052/4 1068/4
f 1054/4 1056/4 1055/4 1053/4
f 1053/4 1055/4 1067/4
f 1056/4 1054/4 1068/4
f 1056/4 1058/4 1057/4 1055/4
f 1055/4 1057/4 1067/4
f 1058/4 1056/4 1068/4
f 1058/4 1060/4 1059/4 1057/4
f 1057/4 1059/4 1067/4
f 1060/4 1058/4 1068/4
f 1060/4 1062/4 1061/4 1059/4
f 1059/4 1061/4 1067/4
f 1062/4 1060/4 1068/4
f 1062/4 1064/4 1063/4 1061/4
f 1061/4 1063/4 1067/4
f 1064/4 1062/4 1068/4
f 1064/4 1066/4 1065/4 1063/4
f 1063/4 1065/4 1067/4
f 1066/4 1064/4 1068/4
f 1066/4 1028/4 1027/4 1065/4
f 1065/4 1027/4 1067/4
f 1028/4 1066/4 1068/4
f 1069/4 1070/4 1078/4 1077/4
f 1085/4 1070/4 1069/4
f 1086/4 1077/4 1078/4
f 1070/4 1071/4 1079/4 1078/4
f 1085/4 1071/4 1070/4
f 1086/4 1078/4 1079/4
f 1071/4 1072/4 1080/4 1079/4
f 1085/4 1072/4 1071/4
f 1086/4 1079/4 1080/4
f 1072/4 1073/4 1081/4 1080/4
f 1085/4 1073/4 1072/4
f 1086/4 1080/4 1081/4
f 1073/4 1074/4 1082/4 1081/4
f 1085/4 1074/4 1073/4
f 1086/4 1081/4 1082/4
f 1074/4 1075/4 1083/4 1082/4
f 1085/4 1075/4 1074/4
f 1086/4 1082/4 1083/4
f 1075/4 1076/4 1084/4 1083/4
f 1085/4 1076/4 1075/4
f 1086/4 1083/4 1084/4
f 1076/4 1069/4 1077/4 1084/4
f 1085/4 1069/4 1076/4
f 1086/4 1084/4 1077/4
f 1088/4 1090/4 1089/4 1087/4
f 1087/4 1089/4 1127/4
f 1090/4 1088/4 1128/4
f 1090/4 1092/4 1091/4 1089/4
f 1089/4 1091/4 1127/4
f 1092/4 1090/4 1128/4
f 1092/4 1094/4 1093/4 1091/4
f 1091/4 1093/4 1127/4
f 1094/4 1092/4 1128/4
f 1094/4 1096/4 1095/4 1093/4
f 1093/4 1095/4 1127/4
f 1096/4 1094/4 1128/4
f 1096/4 1098/4 1097/4 1095/4
f 1095/4 1097/4 1127/4
f 1098/4 1096/4 1128/4
f 1098/4 1100/4 1099/4 1097/4
f 1097/4 1099/4 1127/4
f 1100/4 1098/4 1128/4
f 1100/4 1102/4 1101/4 1099/4
f 1099/4 1101/4 1127/4
f 1102/4 1100/4 1128/4
f 1102/4 1104/4 1103/4 1101/4
f 1101/4 1103/4 1127/4
f 1104/4 1102/4 1128/4
f 1104/4 1106/4 1105/4 1103/4
f 1103/4 1105/4 1127/4
f 1106/4 1104/4 1128/4
f 1106/4 1108/4 1107/4 1105/4
f 1105/4 1107/4 1127/4
f 1108/4 1106/4 1128/4
f 1108/4 1110/4 1109/4 1107/4
f 1107/4 1109/4 1127/4
f 1110/4 1108/4 1128/4
f 1110/4 1112/4 1111/4 1109/4
f 1109/4 1111/4 1127/4
f 1112/4 1110/4 1128/4
f 1112/4 1114/4 1113/4 1111/4
f 1111/4 1113/4 1127/4
f 1114/4 1112/4 1128/4
f 1114/4 1116/4 1115/4 1113/4
f 1113/4 1115/4 1127/4
f 1116/4 1114/4 1128/4
f 1116/4 1118/4 1117/4 1115/4
f 1115/4 1117/4 1127/4
f 1118/4 1116/4 1128/4
f 1118/4 1120/4 1119/4 1117/4
f 1117/4 1119/4 1127/4
f 1120/4 1118/4 1128/4
f 1120/4 1122/4 1121/4 1119/4
f 1119/4 1121/4 1127/4
f 1122/4 1120/4 1128/4
f 1122/4 1124/4 1123/4 1121/4
f 1121/4 1123/4 1127/4
f 1124/4 1122/4 1128/4
f 1124/4 1126/4 1125/4 1123/4
f 1123/4 1125/4 1127/4
f 1126/4 1124/4 1128/4
f 1126/4 1088/4 1087/4 1125/4
f 1125/4 1087/4 1127/4
f 1088/4 1126/4 1128/4
f 1130/4 1129/4 1149/4
f 1139/4 1140/4 1150/4
f 1130/4 1140/4 1139/4 1129/4
f 1131/4 1130/4 1149/4
f 1140/4 1141/4 1150/4
f 1131/4 1141/4 1140/4 1130/4
f 1132/4 1131/4 1149/4
f 1141/4 1142/4 1150/4
f 1132/4 1142/4 1141/4 1131/4
f 1133/4 1132/4 1149/4
f 1142/4 1143/4 1150/4
f 1133/4 1143/4 1142/4 1132/4
f 1134/4 1133/4 1149/4
f 1143/4 1144/4 1150/4
f 1134/4 1144/4 1143/4 1133/4
f 1135/4 1134/4 1149/4
f 1144/4 1145/4 1150/4
f 1135/4 1145/4 1144/4 1134/4
f 1136/4 1135/4 1149/4
f 1145/4 1146/4 1150/4
f 1136/4 1146/4 1145/4 1135/4
f 1137/4 1136/4 1149/4
f 1146/4 1147/4 1150/4
f 1137/4 1147/4 1146/4 1136/4
f 1138/4 1137/4 1149/4
f 1147/4 1148/4 1150/4
f 1138/4 1148/4 1147/4 1137/4
f 1129/4 1138/4 1149/4
f 1148/4 1139/4 1150/4
f 1129/4 1139/4 1148/4 1138/4
usemtl faded_mint
f 406/9 408/9 407/9 405/9
f 405/9 407/9 425/9
f 408/9 406/9 426/9
f 408/9 410/9 409/9 407/9
f 407/9 409/9 425/9
f 410/9 408/9 426/9
f 410/9 412/9 411/9 409/9
f 409/9 411/9 425/9
f 412/9 410/9 426/9
f 412/9 414/9 413/9 411/9
f 411/9 413/9 425/9
f 414/9 412/9 426/9
f 414/9 416/9 415/9 413/9
f 413/9 415/9 425/9
f 416/9 414/9 426/9
f 416/9 418/9 417/9 415/9
f 415/9 417/9 425/9
f 418/9 416/9 426/9
f 418/9 420/9 419/9 417/9
f 417/9 419/9 425/9
f 420/9 418/9 426/9
f 420/9 422/9 421/9 419/9
f 419/9 421/9 425/9
f 422/9 420/9 426/9
f 422/9 424/9 423/9 421/9
f 421/9 423/9 425/9
f 424/9 422/9 426/9
f 424/9 406/9 405/9 423/9
f 423/9 405/9 425/9
f 406/9 424/9 426/9
f 428/9 430/9 429/9 427/9
f 427/9 429/9 447/9
f 430/9 428/9 448/9
f 430/9 432/9 431/9 429/9
f 429/9 431/9 447/9
f 432/9 430/9 448/9
f 432/9 434/9 433/9 431/9
f 431/9 433/9 447/9
f 434/9 432/9 448/9
f 434/9 436/9 435/9 433/9
f 433/9 435/9 447/9
f 436/9 434/9 448/9
f 436/9 438/9 437/9 435/9
f 435/9 437/9 447/9
f 438/9 436/9 448/9
f 438/9 440/9 439/9 437/9
f 437/9 439/9 447/9
f 440/9 438/9 448/9
f 440/9 442/9 441/9 439/9
f 439/9 441/9 447/9
f 442/9 440/9 448/9
f 442/9 444/9 443/9 441/9
f 441/9 443/9 447/9
f 444/9 442/9 448/9
f 444/9 446/9 445/9 443/9
f 443/9 445/9 447/9
f 446/9 444/9 448/9
f 446/9 428/9 427/9 445/9
f 445/9 427/9 447/9
f 428/9 446/9 448/9
f 450/9 452/9 451/9 449/9
f 449/9 451/9 469/9
f 452/9 450/9 470/9
f 452/9 454/9 453/9 451/9
f 451/9 453/9 469/9
f 454/9 452/9 470/9
f 454/9 456/9 455/9 453/9
f 453/9 455/9 469/9
f 456/9 454/9 470/9
f 456/9 458/9 457/9 455/9
f 455/9 457/9 469/9
f 458/9 456/9 470/9
f 458/9 460/9 459/9 457/9
f 457/9 459/9 469/9
f 460/9 458/9 470/9
f 460/9 462/9 461/9 459/9
f 459/9 461/9 469/9
f 462/9 460/9 470/9
f 462/9 464/9 463/9 461/9
f 461/9 463/9 469/9
f 464/9 462/9 470/9
f 464/9 466/9 465/9 463/9
f 463/9 465/9 469/9
f 466/9 464/9 470/9
f 466/9 468/9 467/9 465/9
f 465/9 467/9 469/9
f 468/9 466/9 470/9
f 468/9 450/9 449/9 467/9
f 467/9 449/9 469/9
f 450/9 468/9 470/9
f 472/9 474/9 473/9 471/9
f 471/9 473/9 491/9
f 474/9 472/9 492/9
f 474/9 476/9 475/9 473/9
f 473/9 475/9 491/9
f 476/9 474/9 492/9
f 476/9 478/9 477/9 475/9
f 475/9 477/9 491/9
f 478/9 476/9 492/9
f 478/9 480/9 479/9 477/9
f 477/9 479/9 491/9
f 480/9 478/9 492/9
f 480/9 482/9 481/9 479/9
f 479/9 481/9 491/9
f 482/9 480/9 492/9
f 482/9 484/9 483/9 481/9
f 481/9 483/9 491/9
f 484/9 482/9 492/9
f 484/9 486/9 485/9 483/9
f 483/9 485/9 491/9
f 486/9 484/9 492/9
f 486/9 488/9 487/9 485/9
f 485/9 487/9 491/9
f 488/9 486/9 492/9
f 488/9 490/9 489/9 487/9
f 487/9 489/9 491/9
f 490/9 488/9 492/9
f 490/9 472/9 471/9 489/9
f 489/9 471/9 491/9
f 472/9 490/9 492/9
f 494/9 496/9 495/9 493/9
f 493/9 495/9 513/9
f 496/9 494/9 514/9
f 496/9 498/9 497/9 495/9
f 495/9 497/9 513/9
f 498/9 496/9 514/9
f 498/9 500/9 499/9 497/9
f 497/9 499/9 513/9
f 500/9 498/9 514/9
f 500/9 502/9 501/9 499/9
f 499/9 501/9 513/9
f 502/9 500/9 514/9
f 502/9 504/9 503/9 501/9
f 501/9 503/9 513/9
f 504/9 502/9 514/9
f 504/9 506/9 505/9 503/9
f 503/9 505/9 513/9
f 506/9 504/9 514/9
f 506/9 508/9 507/9 505/9
f 505/9 507/9 513/9
f 508/9 506/9 514/9
f 508/9 510/9 509/9 507/9
f 507/9 509/9 513/9
f 510/9 508/9 514/9
f 510/9 512/9 511/9 509/9
f 509/9 511/9 513/9
f 512/9 510/9 514/9
f 512/9 494/9 493/9 511/9
f 511/9 493/9 513/9
f 494/9 512/9 514/9
f 516/9 518/9 517/9 515/9
f 515/9 517/9 535/9
f 518/9 516/9 536/9
f 518/9 520/9 519/9 517/9
f 517/9 519/9 535/9
f 520/9 518/9 536/9
f 520/9 522/9 521/9 519/9
f 519/9 521/9 535/9
f 522/9 520/9 536/9
f 522/9 524/9 523/9 521/9
f 521/9 523/9 535/9
f 524/9 522/9 536/9
f 524/9 526/9 525/9 523/9
f 523/9 525/9 535/9
f 526/9 524/9 536/9
f 526/9 528/9 527/9 525/9
f 525/9 527/9 535/9
f 528/9 526/9 536/9
f 528/9 530/9 529/9 527/9
f 527/9 529/9 535/9
f 530/9 528/9 536/9
f 530/9 532/9 531/9 529/9
f 529/9 531/9 535/9
f 532/9 530/9 536/9
f 532/9 534/9 533/9 531/9
f 531/9 533/9 535/9
f 534/9 532/9 536/9
f 534/9 516/9 515/9 533/9
f 533/9 515/9 535/9
f 516/9 534/9 536/9
f 538/9 540/9 539/9 537/9
f 537/9 539/9 557/9
f 540/9 538/9 558/9
f 540/9 542/9 541/9 539/9
f 539/9 541/9 557/9
f 542/9 540/9 558/9
f 542/9 544/9 543/9 541/9
f 541/9 543/9 557/9
f 544/9 542/9 558/9
f 544/9 546/9 545/9 543/9
f 543/9 545/9 557/9
f 546/9 544/9 558/9
f 546/9 548/9 547/9 545/9
f 545/9 547/9 557/9
f 548/9 546/9 558/9
f 548/9 550/9 549/9 547/9
f 547/9 549/9 557/9
f 550/9 548/9 558/9
f 550/9 552/9 551/9 549/9
f 549/9 551/9 557/9
f 552/9 550/9 558/9
f 552/9 554/9 553/9 551/9
f 551/9 553/9 557/9
f 554/9 552/9 558/9
f 554/9 556/9 555/9 553/9
f 553/9 555/9 557/9
f 556/9 554/9 558/9
f 556/9 538/9 537/9 555/9
f 555/9 537/9 557/9
f 538/9 556/9 558/9
f 560/9 562/9 561/9 559/9
f 559/9 561/9 579/9
f 562/9 560/9 580/9
f 562/9 564/9 563/9 561/9
f 561/9 563/9 579/9
f 564/9 562/9 580/9
f 564/9 566/9 565/9 563/9
f 563/9 565/9 579/9
f 566/9 564/9 580/9
f 566/9 568/9 567/9 565/9
f 565/9 567/9 579/9
f 568/9 566/9 580/9
f 568/9 570/9 569/9 567/9
f 567/9 569/9 579/9
f 570/9 568/9 580/9
f 570/9 572/9 571/9 569/9
f 569/9 571/9 579/9
f 572/9 570/9 580/9
f 572/9 574/9 573/9 571/9
f 571/9 573/9 579/9
f 574/9 572/9 580/9
f 574/9 576/9 575/9 573/9
f 573/9 575/9 579/9
f 576/9 574/9 580/9
f 576/9 578/9 577/9 575/9
f 575/9 577/9 579/9
f 578/9 576/9 580/9
f 578/9 560/9 559/9 577/9
f 577/9 559/9 579/9
f 560/9 578/9 580/9
f 582/9 584/9 583/9 581/9
f 581/9 583/9 601/9
f 584/9 582/9 602/9
f 584/9 586/9 585/9 583/9
f 583/9 585/9 601/9
f 586/9 584/9 602/9
f 586/9 588/9 587/9 585/9
f 585/9 587/9 601/9
f 588/9 586/9 602/9
f 588/9 590/9 589/9 587/9
f 587/9 589/9 601/9
f 590/9 588/9 602/9
f 590/9 592/9 591/9 589/9
f 589/9 591/9 601/9
f 592/9 590/9 602/9
f 592/9 594/9 593/9 591/9
f 591/9 593/9 601/9
f 594/9 592/9 602/9
f 594/9 596/9 595/9 593/9
f 593/9 595/9 601/9
f 596/9 594/9 602/9
f 596/9 598/9 597/9 595/9
f 595/9 597/9 601/9
f 598/9 596/9 602/9
f 598/9 600/9 599/9 597/9
f 597/9 599/9 601/9
f 600/9 598/9 602/9
f 600/9 582/9 581/9 599/9
f 599/9 581/9 601/9
f 582/9 600/9 602/9
f 604/9 606/9 605/9 603/9
f 603/9 605/9 623/9
f 606/9 604/9 624/9
f 606/9 608/9 607/9 605/9
f 605/9 607/9 623/9
f 608/9 606/9 624/9
f 608/9 610/9 609/9 607/9
f 607/9 609/9 623/9
f 610/9 608/9 624/9
f 610/9 612/9 611/9 609/9
f 609/9 611/9 623/9
f 612/9 610/9 624/9
f 612/9 614/9 613/9 611/9
f 611/9 613/9 623/9
f 614/9 612/9 624/9
f 614/9 616/9 615/9 613/9
f 613/9 615/9 623/9
f 616/9 614/9 624/9
f 616/9 618/9 617/9 615/9
f 615/9 617/9 623/9
f 618/9 616/9 624/9
f 618/9 620/9 619/9 617/9
f 617/9 619/9 623/9
f 620/9 618/9 624/9
f 620/9 622/9 621/9 619/9
f 619/9 621/9 623/9
f 622/9 620/9 624/9
f 622/9 604/9 603/9 621/9
f 621/9 603/9 623/9
f 604/9 622/9 624/9
usemtl wood
f 649/5 650/5 626/5 625/5
f 650/5 651/5 627/5 626/5
f 651/5 652/5 628/5 627/5
f 652/5 653/5 629/5 628/5
f 653/5 654/5 630/5 629/5
f 654/5 655/5 631/5 630/5
f 655/5 656/5 632/5 631/5
f 656/5 657/5 633/5 632/5
f 657/5 658/5 634/5 633/5
f 658/5 659/5 635/5 634/5
f 659/5 660/5 636/5 635/5
f 660/5 661/5 637/5 636/5
f 661/5 662/5 638/5 637/5
f 662/5 663/5 639/5 638/5
f 663/5 664/5 640/5 639/5
f 664/5 665/5 641/5 640/5
f 665/5 666/5 642/5 641/5
f 666/5 667/5 643/5 642/5
f 667/5 668/5 644/5 643/5
f 668/5 669/5 645/5 644/5
f 669/5 670/5 646/5 645/5
f 670/5 671/5 647/5 646/5
f 671/5 672/5 648/5 647/5
f 672/5 649/5 625/5 648/5
