# ParkParkNimbusHub — ParkPark original fairground mesh
mtllib ParkParkFairground.mtl
o ParkParkNimbusHub
v 8.20000 0.00000 0.00000
v 8.20000 0.60000 0.00000
v 8.11654 0.00000 1.16698
v 8.11654 0.60000 1.16698
v 7.86784 0.00000 2.31021
v 7.86784 0.60000 2.31021
v 7.45898 0.00000 3.40640
v 7.45898 0.60000 3.40640
v 6.89828 0.00000 4.43325
v 6.89828 0.60000 4.43325
v 6.19715 0.00000 5.36986
v 6.19715 0.60000 5.36986
v 5.36986 0.00000 6.19715
v 5.36986 0.60000 6.19715
v 4.43325 0.00000 6.89828
v 4.43325 0.60000 6.89828
v 3.40640 0.00000 7.45898
v 3.40640 0.60000 7.45898
v 2.31021 0.00000 7.86784
v 2.31021 0.60000 7.86784
v 1.16698 0.00000 8.11654
v 1.16698 0.60000 8.11654
v 0.00000 0.00000 8.20000
v 0.00000 0.60000 8.20000
v -1.16698 0.00000 8.11654
v -1.16698 0.60000 8.11654
v -2.31021 0.00000 7.86784
v -2.31021 0.60000 7.86784
v -3.40640 0.00000 7.45898
v -3.40640 0.60000 7.45898
v -4.43325 0.00000 6.89828
v -4.43325 0.60000 6.89828
v -5.36986 0.00000 6.19715
v -5.36986 0.60000 6.19715
v -6.19715 0.00000 5.36986
v -6.19715 0.60000 5.36986
v -6.89828 0.00000 4.43325
v -6.89828 0.60000 4.43325
v -7.45898 0.00000 3.40640
v -7.45898 0.60000 3.40640
v -7.86784 0.00000 2.31021
v -7.86784 0.60000 2.31021
v -8.11654 0.00000 1.16698
v -8.11654 0.60000 1.16698
v -8.20000 0.00000 0.00000
v -8.20000 0.60000 0.00000
v -8.11654 0.00000 -1.16698
v -8.11654 0.60000 -1.16698
v -7.86784 0.00000 -2.31021
v -7.86784 0.60000 -2.31021
v -7.45898 0.00000 -3.40640
v -7.45898 0.60000 -3.40640
v -6.89828 0.00000 -4.43325
v -6.89828 0.60000 -4.43325
v -6.19715 0.00000 -5.36986
v -6.19715 0.60000 -5.36986
v -5.36986 0.00000 -6.19715
v -5.36986 0.60000 -6.19715
v -4.43325 0.00000 -6.89828
v -4.43325 0.60000 -6.89828
v -3.40640 0.00000 -7.45898
v -3.40640 0.60000 -7.45898
v -2.31021 0.00000 -7.86784
v -2.31021 0.60000 -7.86784
v -1.16698 0.00000 -8.11654
v -1.16698 0.60000 -8.11654
v -0.00000 0.00000 -8.20000
v -0.00000 0.60000 -8.20000
v 1.16698 0.00000 -8.11654
v 1.16698 0.60000 -8.11654
v 2.31021 0.00000 -7.86784
v 2.31021 0.60000 -7.86784
v 3.40640 0.00000 -7.45898
v 3.40640 0.60000 -7.45898
v 4.43325 0.00000 -6.89828
v 4.43325 0.60000 -6.89828
v 5.36986 0.00000 -6.19715
v 5.36986 0.60000 -6.19715
v 6.19715 0.00000 -5.36986
v 6.19715 0.60000 -5.36986
v 6.89828 0.00000 -4.43325
v 6.89828 0.60000 -4.43325
v 7.45898 0.00000 -3.40640
v 7.45898 0.60000 -3.40640
v 7.86784 0.00000 -2.31021
v 7.86784 0.60000 -2.31021
v 8.11654 0.00000 -1.16698
v 8.11654 0.60000 -1.16698
v 0.00000 0.00000 0.00000
v 0.00000 0.60000 0.00000
v 8.25000 0.00000 0.00000
v 8.25000 0.45000 0.00000
v 8.16603 0.00000 1.17410
v 8.16603 0.45000 1.17410
v 7.91582 0.00000 2.32429
v 7.91582 0.45000 2.32429
v 7.50446 0.00000 3.42717
v 7.50446 0.45000 3.42717
v 6.94034 0.00000 4.46029
v 6.94034 0.45000 4.46029
v 6.23493 0.00000 5.40260
v 6.23493 0.45000 5.40260
v 5.40260 0.00000 6.23493
v 5.40260 0.45000 6.23493
v 4.46029 0.00000 6.94034
v 4.46029 0.45000 6.94034
v 3.42717 0.00000 7.50446
v 3.42717 0.45000 7.50446
v 2.32429 0.00000 7.91582
v 2.32429 0.45000 7.91582
v 1.17410 0.00000 8.16603
v 1.17410 0.45000 8.16603
v 0.00000 0.00000 8.25000
v 0.00000 0.45000 8.25000
v -1.17410 0.00000 8.16603
v -1.17410 0.45000 8.16603
v -2.32429 0.00000 7.91582
v -2.32429 0.45000 7.91582
v -3.42717 0.00000 7.50446
v -3.42717 0.45000 7.50446
v -4.46029 0.00000 6.94034
v -4.46029 0.45000 6.94034
v -5.40260 0.00000 6.23493
v -5.40260 0.45000 6.23493
v -6.23493 0.00000 5.40260
v -6.23493 0.45000 5.40260
v -6.94034 0.00000 4.46029
v -6.94034 0.45000 4.46029
v -7.50446 0.00000 3.42717
v -7.50446 0.45000 3.42717
v -7.91582 0.00000 2.32429
v -7.91582 0.45000 2.32429
v -8.16603 0.00000 1.17410
v -8.16603 0.45000 1.17410
v -8.25000 0.00000 0.00000
v -8.25000 0.45000 0.00000
v -8.16603 0.00000 -1.17410
v -8.16603 0.45000 -1.17410
v -7.91582 0.00000 -2.32429
v -7.91582 0.45000 -2.32429
v -7.50446 0.00000 -3.42717
v -7.50446 0.45000 -3.42717
v -6.94034 0.00000 -4.46029
v -6.94034 0.45000 -4.46029
v -6.23493 0.00000 -5.40260
v -6.23493 0.45000 -5.40260
v -5.40260 0.00000 -6.23493
v -5.40260 0.45000 -6.23493
v -4.46029 0.00000 -6.94034
v -4.46029 0.45000 -6.94034
v -3.42717 0.00000 -7.50446
v -3.42717 0.45000 -7.50446
v -2.32429 0.00000 -7.91582
v -2.32429 0.45000 -7.91582
v -1.17410 0.00000 -8.16603
v -1.17410 0.45000 -8.16603
v -0.00000 0.00000 -8.25000
v -0.00000 0.45000 -8.25000
v 1.17410 0.00000 -8.16603
v 1.17410 0.45000 -8.16603
v 2.32429 0.00000 -7.91582
v 2.32429 0.45000 -7.91582
v 3.42717 0.00000 -7.50446
v 3.42717 0.45000 -7.50446
v 4.46029 0.00000 -6.94034
v 4.46029 0.45000 -6.94034
v 5.40260 0.00000 -6.23493
v 5.40260 0.45000 -6.23493
v 6.23493 0.00000 -5.40260
v 6.23493 0.45000 -5.40260
v 6.94034 0.00000 -4.46029
v 6.94034 0.45000 -4.46029
v 7.50446 0.00000 -3.42717
v 7.50446 0.45000 -3.42717
v 7.91582 0.00000 -2.32429
v 7.91582 0.45000 -2.32429
v 8.16603 0.00000 -1.17410
v 8.16603 0.45000 -1.17410
v 0.00000 0.00000 0.00000
v 0.00000 0.45000 0.00000
v 8.52901 0.25504 0.00000
v 8.37406 0.25504 0.37406
v 8.00000 0.25504 0.52901
v 7.62594 0.25504 0.37406
v 7.47099 0.25504 0.00000
v 7.62594 0.25504 -0.37406
v 8.00000 0.25504 -0.52901
v 8.37406 0.25504 -0.37406
v 8.85595 0.53004 0.00000
v 8.60525 0.53004 0.60525
v 8.00000 0.53004 0.85595
v 7.39475 0.53004 0.60525
v 7.14405 0.53004 0.00000
v 7.39475 0.53004 -0.60525
v 8.00000 0.53004 -0.85595
v 8.60525 0.53004 -0.60525
v 8.85595 0.86996 0.00000
v 8.60525 0.86996 0.60525
v 8.00000 0.86996 0.85595
v 7.39475 0.86996 0.60525
v 7.14405 0.86996 0.00000
v 7.39475 0.86996 -0.60525
v 8.00000 0.86996 -0.85595
v 8.60525 0.86996 -0.60525
v 8.52901 1.14496 0.00000
v 8.37406 1.14496 0.37406
v 8.00000 1.14496 0.52901
v 7.62594 1.14496 0.37406
v 7.47099 1.14496 0.00000
v 7.62594 1.14496 -0.37406
v 8.00000 1.14496 -0.52901
v 8.37406 1.14496 -0.37406
v 8.00000 0.15000 0.00000
v 8.00000 1.25000 0.00000
v 7.73676 0.25504 3.47107
v 7.58182 0.25504 3.84513
v 7.20775 0.25504 4.00008
v 6.83369 0.25504 3.84513
v 6.67874 0.25504 3.47107
v 6.83369 0.25504 3.09701
v 7.20775 0.25504 2.94206
v 7.58182 0.25504 3.09701
v 8.06370 0.53004 3.47107
v 7.81300 0.53004 4.07632
v 7.20775 0.53004 4.32702
v 6.60250 0.53004 4.07632
v 6.35180 0.53004 3.47107
v 6.60250 0.53004 2.86582
v 7.20775 0.53004 2.61512
v 7.81300 0.53004 2.86582
v 8.06370 0.86996 3.47107
v 7.81300 0.86996 4.07632
v 7.20775 0.86996 4.32702
v 6.60250 0.86996 4.07632
v 6.35180 0.86996 3.47107
v 6.60250 0.86996 2.86582
v 7.20775 0.86996 2.61512
v 7.81300 0.86996 2.86582
v 7.73676 1.14496 3.47107
v 7.58182 1.14496 3.84513
v 7.20775 1.14496 4.00008
v 6.83369 1.14496 3.84513
v 6.67874 1.14496 3.47107
v 6.83369 1.14496 3.09701
v 7.20775 1.14496 2.94206
v 7.58182 1.14496 3.09701
v 7.20775 0.15000 3.47107
v 7.20775 1.25000 3.47107
v 5.51693 0.25504 6.25465
v 5.36198 0.25504 6.62872
v 4.98792 0.25504 6.78366
v 4.61385 0.25504 6.62872
v 4.45891 0.25504 6.25465
v 4.61385 0.25504 5.88059
v 4.98792 0.25504 5.72565
v 5.36198 0.25504 5.88059
v 5.84387 0.53004 6.25465
v 5.59317 0.53004 6.85990
v 4.98792 0.53004 7.11060
v 4.38267 0.53004 6.85990
v 4.13197 0.53004 6.25465
v 4.38267 0.53004 5.64940
v 4.98792 0.53004 5.39870
v 5.59317 0.53004 5.64940
v 5.84387 0.86996 6.25465
v 5.59317 0.86996 6.85990
v 4.98792 0.86996 7.11060
v 4.38267 0.86996 6.85990
v 4.13197 0.86996 6.25465
v 4.38267 0.86996 5.64940
v 4.98792 0.86996 5.39870
v 5.59317 0.86996 5.64940
v 5.51693 1.14496 6.25465
v 5.36198 1.14496 6.62872
v 4.98792 1.14496 6.78366
v 4.61385 1.14496 6.62872
v 4.45891 1.14496 6.25465
v 4.61385 1.14496 5.88059
v 4.98792 1.14496 5.72565
v 5.36198 1.14496 5.88059
v 4.98792 0.15000 6.25465
v 4.98792 1.25000 6.25465
v 2.30917 0.25504 7.79942
v 2.15423 0.25504 8.17349
v 1.78017 0.25504 8.32843
v 1.40610 0.25504 8.17349
v 1.25116 0.25504 7.79942
v 1.40610 0.25504 7.42536
v 1.78017 0.25504 7.27042
v 2.15423 0.25504 7.42536
v 2.63612 0.53004 7.79942
v 2.38542 0.53004 8.40467
v 1.78017 0.53004 8.65537
v 1.17492 0.53004 8.40467
v 0.92422 0.53004 7.79942
v 1.17492 0.53004 7.19417
v 1.78017 0.53004 6.94347
v 2.38542 0.53004 7.19417
v 2.63612 0.86996 7.79942
v 2.38542 0.86996 8.40467
v 1.78017 0.86996 8.65537
v 1.17492 0.86996 8.40467
v 0.92422 0.86996 7.79942
v 1.17492 0.86996 7.19417
v 1.78017 0.86996 6.94347
v 2.38542 0.86996 7.19417
v 2.30917 1.14496 7.79942
v 2.15423 1.14496 8.17349
v 1.78017 1.14496 8.32843
v 1.40610 1.14496 8.17349
v 1.25116 1.14496 7.79942
v 1.40610 1.14496 7.42536
v 1.78017 1.14496 7.27042
v 2.15423 1.14496 7.42536
v 1.78017 0.15000 7.79942
v 1.78017 1.25000 7.79942
v -1.25116 0.25504 7.79942
v -1.40610 0.25504 8.17349
v -1.78017 0.25504 8.32843
v -2.15423 0.25504 8.17349
v -2.30917 0.25504 7.79942
v -2.15423 0.25504 7.42536
v -1.78017 0.25504 7.27042
v -1.40610 0.25504 7.42536
v -0.92422 0.53004 7.79942
v -1.17492 0.53004 8.40467
v -1.78017 0.53004 8.65537
v -2.38542 0.53004 8.40467
v -2.63612 0.53004 7.79942
v -2.38542 0.53004 7.19417
v -1.78017 0.53004 6.94347
v -1.17492 0.53004 7.19417
v -0.92422 0.86996 7.79942
v -1.17492 0.86996 8.40467
v -1.78017 0.86996 8.65537
v -2.38542 0.86996 8.40467
v -2.63612 0.86996 7.79942
v -2.38542 0.86996 7.19417
v -1.78017 0.86996 6.94347
v -1.17492 0.86996 7.19417
v -1.25116 1.14496 7.79942
v -1.40610 1.14496 8.17349
v -1.78017 1.14496 8.32843
v -2.15423 1.14496 8.17349
v -2.30917 1.14496 7.79942
v -2.15423 1.14496 7.42536
v -1.78017 1.14496 7.27042
v -1.40610 1.14496 7.42536
v -1.78017 0.15000 7.79942
v -1.78017 1.25000 7.79942
v -4.45891 0.25504 6.25465
v -4.61385 0.25504 6.62872
v -4.98792 0.25504 6.78366
v -5.36198 0.25504 6.62872
v -5.51693 0.25504 6.25465
v -5.36198 0.25504 5.88059
v -4.98792 0.25504 5.72565
v -4.61385 0.25504 5.88059
v -4.13197 0.53004 6.25465
v -4.38267 0.53004 6.85990
v -4.98792 0.53004 7.11060
v -5.59317 0.53004 6.85990
v -5.84387 0.53004 6.25465
v -5.59317 0.53004 5.64940
v -4.98792 0.53004 5.39870
v -4.38267 0.53004 5.64940
v -4.13197 0.86996 6.25465
v -4.38267 0.86996 6.85990
v -4.98792 0.86996 7.11060
v -5.59317 0.86996 6.85990
v -5.84387 0.86996 6.25465
v -5.59317 0.86996 5.64940
v -4.98792 0.86996 5.39870
v -4.38267 0.86996 5.64940
v -4.45891 1.14496 6.25465
v -4.61385 1.14496 6.62872
v -4.98792 1.14496 6.78366
v -5.36198 1.14496 6.62872
v -5.51693 1.14496 6.25465
v -5.36198 1.14496 5.88059
v -4.98792 1.14496 5.72565
v -4.61385 1.14496 5.88059
v -4.98792 0.15000 6.25465
v -4.98792 1.25000 6.25465
v -6.67874 0.25504 3.47107
v -6.83369 0.25504 3.84513
v -7.20775 0.25504 4.00008
v -7.58182 0.25504 3.84513
v -7.73676 0.25504 3.47107
v -7.58182 0.25504 3.09701
v -7.20775 0.25504 2.94206
v -6.83369 0.25504 3.09701
v -6.35180 0.53004 3.47107
v -6.60250 0.53004 4.07632
v -7.20775 0.53004 4.32702
v -7.81300 0.53004 4.07632
v -8.06370 0.53004 3.47107
v -7.81300 0.53004 2.86582
v -7.20775 0.53004 2.61512
v -6.60250 0.53004 2.86582
v -6.35180 0.86996 3.47107
v -6.60250 0.86996 4.07632
v -7.20775 0.86996 4.32702
v -7.81300 0.86996 4.07632
v -8.06370 0.86996 3.47107
v -7.81300 0.86996 2.86582
v -7.20775 0.86996 2.61512
v -6.60250 0.86996 2.86582
v -6.67874 1.14496 3.47107
v -6.83369 1.14496 3.84513
v -7.20775 1.14496 4.00008
v -7.58182 1.14496 3.84513
v -7.73676 1.14496 3.47107
v -7.58182 1.14496 3.09701
v -7.20775 1.14496 2.94206
v -6.83369 1.14496 3.09701
v -7.20775 0.15000 3.47107
v -7.20775 1.25000 3.47107
v -7.47099 0.25504 0.00000
v -7.62594 0.25504 0.37406
v -8.00000 0.25504 0.52901
v -8.37406 0.25504 0.37406
v -8.52901 0.25504 0.00000
v -8.37406 0.25504 -0.37406
v -8.00000 0.25504 -0.52901
v -7.62594 0.25504 -0.37406
v -7.14405 0.53004 0.00000
v -7.39475 0.53004 0.60525
v -8.00000 0.53004 0.85595
v -8.60525 0.53004 0.60525
v -8.85595 0.53004 0.00000
v -8.60525 0.53004 -0.60525
v -8.00000 0.53004 -0.85595
v -7.39475 0.53004 -0.60525
v -7.14405 0.86996 0.00000
v -7.39475 0.86996 0.60525
v -8.00000 0.86996 0.85595
v -8.60525 0.86996 0.60525
v -8.85595 0.86996 0.00000
v -8.60525 0.86996 -0.60525
v -8.00000 0.86996 -0.85595
v -7.39475 0.86996 -0.60525
v -7.47099 1.14496 0.00000
v -7.62594 1.14496 0.37406
v -8.00000 1.14496 0.52901
v -8.37406 1.14496 0.37406
v -8.52901 1.14496 0.00000
v -8.37406 1.14496 -0.37406
v -8.00000 1.14496 -0.52901
v -7.62594 1.14496 -0.37406
v -8.00000 0.15000 0.00000
v -8.00000 1.25000 0.00000
v -6.67874 0.25504 -3.47107
v -6.83369 0.25504 -3.09701
v -7.20775 0.25504 -2.94206
v -7.58182 0.25504 -3.09701
v -7.73676 0.25504 -3.47107
v -7.58182 0.25504 -3.84513
v -7.20775 0.25504 -4.00008
v -6.83369 0.25504 -3.84513
v -6.35180 0.53004 -3.47107
v -6.60250 0.53004 -2.86582
v -7.20775 0.53004 -2.61512
v -7.81300 0.53004 -2.86582
v -8.06370 0.53004 -3.47107
v -7.81300 0.53004 -4.07632
v -7.20775 0.53004 -4.32702
v -6.60250 0.53004 -4.07632
v -6.35180 0.86996 -3.47107
v -6.60250 0.86996 -2.86582
v -7.20775 0.86996 -2.61512
v -7.81300 0.86996 -2.86582
v -8.06370 0.86996 -3.47107
v -7.81300 0.86996 -4.07632
v -7.20775 0.86996 -4.32702
v -6.60250 0.86996 -4.07632
v -6.67874 1.14496 -3.47107
v -6.83369 1.14496 -3.09701
v -7.20775 1.14496 -2.94206
v -7.58182 1.14496 -3.09701
v -7.73676 1.14496 -3.47107
v -7.58182 1.14496 -3.84513
v -7.20775 1.14496 -4.00008
v -6.83369 1.14496 -3.84513
v -7.20775 0.15000 -3.47107
v -7.20775 1.25000 -3.47107
v -4.45891 0.25504 -6.25465
v -4.61385 0.25504 -5.88059
v -4.98792 0.25504 -5.72565
v -5.36198 0.25504 -5.88059
v -5.51693 0.25504 -6.25465
v -5.36198 0.25504 -6.62872
v -4.98792 0.25504 -6.78366
v -4.61385 0.25504 -6.62872
v -4.13197 0.53004 -6.25465
v -4.38267 0.53004 -5.64940
v -4.98792 0.53004 -5.39870
v -5.59317 0.53004 -5.64940
v -5.84387 0.53004 -6.25465
v -5.59317 0.53004 -6.85990
v -4.98792 0.53004 -7.11060
v -4.38267 0.53004 -6.85990
v -4.13197 0.86996 -6.25465
v -4.38267 0.86996 -5.64940
v -4.98792 0.86996 -5.39870
v -5.59317 0.86996 -5.64940
v -5.84387 0.86996 -6.25465
v -5.59317 0.86996 -6.85990
v -4.98792 0.86996 -7.11060
v -4.38267 0.86996 -6.85990
v -4.45891 1.14496 -6.25465
v -4.61385 1.14496 -5.88059
v -4.98792 1.14496 -5.72565
v -5.36198 1.14496 -5.88059
v -5.51693 1.14496 -6.25465
v -5.36198 1.14496 -6.62872
v -4.98792 1.14496 -6.78366
v -4.61385 1.14496 -6.62872
v -4.98792 0.15000 -6.25465
v -4.98792 1.25000 -6.25465
v -1.25116 0.25504 -7.79942
v -1.40610 0.25504 -7.42536
v -1.78017 0.25504 -7.27042
v -2.15423 0.25504 -7.42536
v -2.30917 0.25504 -7.79942
v -2.15423 0.25504 -8.17349
v -1.78017 0.25504 -8.32843
v -1.40610 0.25504 -8.17349
v -0.92422 0.53004 -7.79942
v -1.17492 0.53004 -7.19417
v -1.78017 0.53004 -6.94347
v -2.38542 0.53004 -7.19417
v -2.63612 0.53004 -7.79942
v -2.38542 0.53004 -8.40467
v -1.78017 0.53004 -8.65537
v -1.17492 0.53004 -8.40467
v -0.92422 0.86996 -7.79942
v -1.17492 0.86996 -7.19417
v -1.78017 0.86996 -6.94347
v -2.38542 0.86996 -7.19417
v -2.63612 0.86996 -7.79942
v -2.38542 0.86996 -8.40467
v -1.78017 0.86996 -8.65537
v -1.17492 0.86996 -8.40467
v -1.25116 1.14496 -7.79942
v -1.40610 1.14496 -7.42536
v -1.78017 1.14496 -7.27042
v -2.15423 1.14496 -7.42536
v -2.30917 1.14496 -7.79942
v -2.15423 1.14496 -8.17349
v -1.78017 1.14496 -8.32843
v -1.40610 1.14496 -8.17349
v -1.78017 0.15000 -7.79942
v -1.78017 1.25000 -7.79942
v 2.30917 0.25504 -7.79942
v 2.15423 0.25504 -7.42536
v 1.78017 0.25504 -7.27042
v 1.40610 0.25504 -7.42536
v 1.25116 0.25504 -7.79942
v 1.40610 0.25504 -8.17349
v 1.78017 0.25504 -8.32843
v 2.15423 0.25504 -8.17349
v 2.63612 0.53004 -7.79942
v 2.38542 0.53004 -7.19417
v 1.78017 0.53004 -6.94347
v 1.17492 0.53004 -7.19417
v 0.92422 0.53004 -7.79942
v 1.17492 0.53004 -8.40467
v 1.78017 0.53004 -8.65537
v 2.38542 0.53004 -8.40467
v 2.63612 0.86996 -7.79942
v 2.38542 0.86996 -7.19417
v 1.78017 0.86996 -6.94347
v 1.17492 0.86996 -7.19417
v 0.92422 0.86996 -7.79942
v 1.17492 0.86996 -8.40467
v 1.78017 0.86996 -8.65537
v 2.38542 0.86996 -8.40467
v 2.30917 1.14496 -7.79942
v 2.15423 1.14496 -7.42536
v 1.78017 1.14496 -7.27042
v 1.40610 1.14496 -7.42536
v 1.25116 1.14496 -7.79942
v 1.40610 1.14496 -8.17349
v 1.78017 1.14496 -8.32843
v 2.15423 1.14496 -8.17349
v 1.78017 0.15000 -7.79942
v 1.78017 1.25000 -7.79942
v 5.51693 0.25504 -6.25465
v 5.36198 0.25504 -5.88059
v 4.98792 0.25504 -5.72565
v 4.61385 0.25504 -5.88059
v 4.45891 0.25504 -6.25465
v 4.61385 0.25504 -6.62872
v 4.98792 0.25504 -6.78366
v 5.36198 0.25504 -6.62872
v 5.84387 0.53004 -6.25465
v 5.59317 0.53004 -5.64940
v 4.98792 0.53004 -5.39870
v 4.38267 0.53004 -5.64940
v 4.13197 0.53004 -6.25465
v 4.38267 0.53004 -6.85990
v 4.98792 0.53004 -7.11060
v 5.59317 0.53004 -6.85990
v 5.84387 0.86996 -6.25465
v 5.59317 0.86996 -5.64940
v 4.98792 0.86996 -5.39870
v 4.38267 0.86996 -5.64940
v 4.13197 0.86996 -6.25465
v 4.38267 0.86996 -6.85990
v 4.98792 0.86996 -7.11060
v 5.59317 0.86996 -6.85990
v 5.51693 1.14496 -6.25465
v 5.36198 1.14496 -5.88059
v 4.98792 1.14496 -5.72565
v 4.61385 1.14496 -5.88059
v 4.45891 1.14496 -6.25465
v 4.61385 1.14496 -6.62872
v 4.98792 1.14496 -6.78366
v 5.36198 1.14496 -6.62872
v 4.98792 0.15000 -6.25465
v 4.98792 1.25000 -6.25465
v 7.73676 0.25504 -3.47107
v 7.58182 0.25504 -3.09701
v 7.20775 0.25504 -2.94206
v 6.83369 0.25504 -3.09701
v 6.67874 0.25504 -3.47107
v 6.83369 0.25504 -3.84513
v 7.20775 0.25504 -4.00008
v 7.58182 0.25504 -3.84513
v 8.06370 0.53004 -3.47107
v 7.81300 0.53004 -2.86582
v 7.20775 0.53004 -2.61512
v 6.60250 0.53004 -2.86582
v 6.35180 0.53004 -3.47107
v 6.60250 0.53004 -4.07632
v 7.20775 0.53004 -4.32702
v 7.81300 0.53004 -4.07632
v 8.06370 0.86996 -3.47107
v 7.81300 0.86996 -2.86582
v 7.20775 0.86996 -2.61512
v 6.60250 0.86996 -2.86582
v 6.35180 0.86996 -3.47107
v 6.60250 0.86996 -4.07632
v 7.20775 0.86996 -4.32702
v 7.81300 0.86996 -4.07632
v 7.73676 1.14496 -3.47107
v 7.58182 1.14496 -3.09701
v 7.20775 1.14496 -2.94206
v 6.83369 1.14496 -3.09701
v 6.67874 1.14496 -3.47107
v 6.83369 1.14496 -3.84513
v 7.20775 1.14496 -4.00008
v 7.58182 1.14496 -3.84513
v 7.20775 0.15000 -3.47107
v 7.20775 1.25000 -3.47107
v 2.60000 0.60000 -0.17000
v 2.45404 0.58078 -0.08500
v 2.45404 0.58078 0.08500
v 2.60000 0.60000 0.17000
v 2.74596 0.61922 0.08500
v 2.74596 0.61922 -0.08500
v 2.51141 1.27293 -0.17000
v 2.36544 1.25371 -0.08500
v 2.36544 1.25371 0.08500
v 2.51141 1.27293 0.17000
v 2.65737 1.29215 0.08500
v 2.65737 1.29215 -0.08500
v 2.60000 0.60000 0.00000
v 2.51141 1.27293 0.00000
v 2.51141 1.27293 -0.17000
v 2.37539 1.21659 -0.08500
v 2.37539 1.21659 0.08500
v 2.51141 1.27293 0.17000
v 2.64742 1.32927 0.08500
v 2.64742 1.32927 -0.08500
v 2.25167 1.90000 -0.17000
v 2.11565 1.84366 -0.08500
v 2.11565 1.84366 0.08500
v 2.25167 1.90000 0.17000
v 2.38768 1.95634 0.08500
v 2.38768 1.95634 -0.08500
v 2.51141 1.27293 0.00000
v 2.25167 1.90000 0.00000
v 2.25167 1.90000 -0.17000
v 2.13487 1.81038 -0.08500
v 2.13487 1.81038 0.08500
v 2.25167 1.90000 0.17000
v 2.36847 1.98962 0.08500
v 2.36847 1.98962 -0.08500
v 1.83848 2.43848 -0.17000
v 1.72168 2.34885 -0.08500
v 1.72168 2.34885 0.08500
v 1.83848 2.43848 0.17000
v 1.95528 2.52810 0.08500
v 1.95528 2.52810 -0.08500
v 2.25167 1.90000 0.00000
v 1.83848 2.43848 0.00000
v 1.83848 2.43848 -0.17000
v 1.74885 2.32168 -0.08500
v 1.74885 2.32168 0.08500
v 1.83848 2.43848 0.17000
v 1.92810 2.55528 0.08500
v 1.92810 2.55528 -0.08500
v 1.30000 2.85167 -0.17000
v 1.21038 2.73487 -0.08500
v 1.21038 2.73487 0.08500
v 1.30000 2.85167 0.17000
v 1.38962 2.96847 0.08500
v 1.38962 2.96847 -0.08500
v 1.83848 2.43848 0.00000
v 1.30000 2.85167 0.00000
v 1.30000 2.85167 -0.17000
v 1.24366 2.71565 -0.08500
v 1.24366 2.71565 0.08500
v 1.30000 2.85167 0.17000
v 1.35634 2.98768 0.08500
v 1.35634 2.98768 -0.08500
v 0.67293 3.11141 -0.17000
v 0.61659 2.97539 -0.08500
v 0.61659 2.97539 0.08500
v 0.67293 3.11141 0.17000
v 0.72927 3.24742 0.08500
v 0.72927 3.24742 -0.08500
v 1.30000 2.85167 0.00000
v 0.67293 3.11141 0.00000
v 0.67293 3.11141 -0.17000
v 0.65371 2.96544 -0.08500
v 0.65371 2.96544 0.08500
v 0.67293 3.11141 0.17000
v 0.69215 3.25737 0.08500
v 0.69215 3.25737 -0.08500
v 0.00000 3.20000 -0.17000
v -0.01922 3.05404 -0.08500
v -0.01922 3.05404 0.08500
v 0.00000 3.20000 0.17000
v 0.01922 3.34596 0.08500
v 0.01922 3.34596 -0.08500
v 0.67293 3.11141 0.00000
v 0.00000 3.20000 0.00000
v 0.00000 3.20000 -0.17000
v 0.01922 3.05404 -0.08500
v 0.01922 3.05404 0.08500
v 0.00000 3.20000 0.17000
v -0.01922 3.34596 0.08500
v -0.01922 3.34596 -0.08500
v -0.67293 3.11141 -0.17000
v -0.65371 2.96544 -0.08500
v -0.65371 2.96544 0.08500
v -0.67293 3.11141 0.17000
v -0.69215 3.25737 0.08500
v -0.69215 3.25737 -0.08500
v 0.00000 3.20000 0.00000
v -0.67293 3.11141 0.00000
v -0.67293 3.11141 -0.17000
v -0.61659 2.97539 -0.08500
v -0.61659 2.97539 0.08500
v -0.67293 3.11141 0.17000
v -0.72927 3.24742 0.08500
v -0.72927 3.24742 -0.08500
v -1.30000 2.85167 -0.17000
v -1.24366 2.71565 -0.08500
v -1.24366 2.71565 0.08500
v -1.30000 2.85167 0.17000
v -1.35634 2.98768 0.08500
v -1.35634 2.98768 -0.08500
v -0.67293 3.11141 0.00000
v -1.30000 2.85167 0.00000
v -1.30000 2.85167 -0.17000
v -1.21038 2.73487 -0.08500
v -1.21038 2.73487 0.08500
v -1.30000 2.85167 0.17000
v -1.38962 2.96847 0.08500
v -1.38962 2.96847 -0.08500
v -1.83848 2.43848 -0.17000
v -1.74885 2.32168 -0.08500
v -1.74885 2.32168 0.08500
v -1.83848 2.43848 0.17000
v -1.92810 2.55528 0.08500
v -1.92810 2.55528 -0.08500
v -1.30000 2.85167 0.00000
v -1.83848 2.43848 0.00000
v -1.83848 2.43848 -0.17000
v -1.72168 2.34885 -0.08500
v -1.72168 2.34885 0.08500
v -1.83848 2.43848 0.17000
v -1.95528 2.52810 0.08500
v -1.95528 2.52810 -0.08500
v -2.25167 1.90000 -0.17000
v -2.13487 1.81038 -0.08500
v -2.13487 1.81038 0.08500
v -2.25167 1.90000 0.17000
v -2.36847 1.98962 0.08500
v -2.36847 1.98962 -0.08500
v -1.83848 2.43848 0.00000
v -2.25167 1.90000 0.00000
v -2.25167 1.90000 0.17000
v -2.38768 1.95634 0.08500
v -2.38768 1.95634 -0.08500
v -2.25167 1.90000 -0.17000
v -2.11565 1.84366 -0.08500
v -2.11565 1.84366 0.08500
v -2.51141 1.27293 0.17000
v -2.64742 1.32927 0.08500
v -2.64742 1.32927 -0.08500
v -2.51141 1.27293 -0.17000
v -2.37539 1.21659 -0.08500
v -2.37539 1.21659 0.08500
v -2.25167 1.90000 0.00000
v -2.51141 1.27293 0.00000
v -2.51141 1.27293 0.17000
v -2.65737 1.29215 0.08500
v -2.65737 1.29215 -0.08500
v -2.51141 1.27293 -0.17000
v -2.36544 1.25371 -0.08500
v -2.36544 1.25371 0.08500
v -2.60000 0.60000 0.17000
v -2.74596 0.61922 0.08500
v -2.74596 0.61922 -0.08500
v -2.60000 0.60000 -0.17000
v -2.45404 0.58078 -0.08500
v -2.45404 0.58078 0.08500
v -2.51141 1.27293 0.00000
v -2.60000 0.60000 0.00000
v 2.25000 0.60000 -0.17000
v 2.10404 0.58078 -0.08500
v 2.10404 0.58078 0.08500
v 2.25000 0.60000 0.17000
v 2.39596 0.61922 0.08500
v 2.39596 0.61922 -0.08500
v 2.17333 1.18234 -0.17000
v 2.02737 1.16313 -0.08500
v 2.02737 1.16313 0.08500
v 2.17333 1.18234 0.17000
v 2.31930 1.20156 0.08500
v 2.31930 1.20156 -0.08500
v 2.25000 0.60000 0.00000
v 2.17333 1.18234 0.00000
v 2.17333 1.18234 -0.17000
v 2.03732 1.12600 -0.08500
v 2.03732 1.12600 0.08500
v 2.17333 1.18234 0.17000
v 2.30935 1.23868 0.08500
v 2.30935 1.23868 -0.08500
v 1.94856 1.72500 -0.17000
v 1.81254 1.66866 -0.08500
v 1.81254 1.66866 0.08500
v 1.94856 1.72500 0.17000
v 2.08457 1.78134 0.08500
v 2.08457 1.78134 -0.08500
v 2.17333 1.18234 0.00000
v 1.94856 1.72500 0.00000
v 1.94856 1.72500 -0.17000
v 1.83176 1.63538 -0.08500
v 1.83176 1.63538 0.08500
v 1.94856 1.72500 0.17000
v 2.06536 1.81462 0.08500
v 2.06536 1.81462 -0.08500
v 1.59099 2.19099 -0.17000
v 1.47419 2.10137 -0.08500
v 1.47419 2.10137 0.08500
v 1.59099 2.19099 0.17000
v 1.70779 2.28061 0.08500
v 1.70779 2.28061 -0.08500
v 1.94856 1.72500 0.00000
v 1.59099 2.19099 0.00000
v 1.59099 2.19099 -0.17000
v 1.50137 2.07419 -0.08500
v 1.50137 2.07419 0.08500
v 1.59099 2.19099 0.17000
v 1.68061 2.30779 0.08500
v 1.68061 2.30779 -0.08500
v 1.12500 2.54856 -0.17000
v 1.03538 2.43176 -0.08500
v 1.03538 2.43176 0.08500
v 1.12500 2.54856 0.17000
v 1.21462 2.66536 0.08500
v 1.21462 2.66536 -0.08500
v 1.59099 2.19099 0.00000
v 1.12500 2.54856 0.00000
v 1.12500 2.54856 -0.17000
v 1.06866 2.41254 -0.08500
v 1.06866 2.41254 0.08500
v 1.12500 2.54856 0.17000
v 1.18134 2.68457 0.08500
v 1.18134 2.68457 -0.08500
v 0.58234 2.77333 -0.17000
v 0.52600 2.63732 -0.08500
v 0.52600 2.63732 0.08500
v 0.58234 2.77333 0.17000
v 0.63868 2.90935 0.08500
v 0.63868 2.90935 -0.08500
v 1.12500 2.54856 0.00000
v 0.58234 2.77333 0.00000
v 0.58234 2.77333 -0.17000
v 0.56313 2.62737 -0.08500
v 0.56313 2.62737 0.08500
v 0.58234 2.77333 0.17000
v 0.60156 2.91930 0.08500
v 0.60156 2.91930 -0.08500
v 0.00000 2.85000 -0.17000
v -0.01922 2.70404 -0.08500
v -0.01922 2.70404 0.08500
v 0.00000 2.85000 0.17000
v 0.01922 2.99596 0.08500
v 0.01922 2.99596 -0.08500
v 0.58234 2.77333 0.00000
v 0.00000 2.85000 0.00000
v 0.00000 2.85000 -0.17000
v 0.01922 2.70404 -0.08500
v 0.01922 2.70404 0.08500
v 0.00000 2.85000 0.17000
v -0.01922 2.99596 0.08500
v -0.01922 2.99596 -0.08500
v -0.58234 2.77333 -0.17000
v -0.56313 2.62737 -0.08500
v -0.56313 2.62737 0.08500
v -0.58234 2.77333 0.17000
v -0.60156 2.91930 0.08500
v -0.60156 2.91930 -0.08500
v 0.00000 2.85000 0.00000
v -0.58234 2.77333 0.00000
v -0.58234 2.77333 -0.17000
v -0.52600 2.63732 -0.08500
v -0.52600 2.63732 0.08500
v -0.58234 2.77333 0.17000
v -0.63868 2.90935 0.08500
v -0.63868 2.90935 -0.08500
v -1.12500 2.54856 -0.17000
v -1.06866 2.41254 -0.08500
v -1.06866 2.41254 0.08500
v -1.12500 2.54856 0.17000
v -1.18134 2.68457 0.08500
v -1.18134 2.68457 -0.08500
v -0.58234 2.77333 0.00000
v -1.12500 2.54856 0.00000
v -1.12500 2.54856 -0.17000
v -1.03538 2.43176 -0.08500
v -1.03538 2.43176 0.08500
v -1.12500 2.54856 0.17000
v -1.21462 2.66536 0.08500
v -1.21462 2.66536 -0.08500
v -1.59099 2.19099 -0.17000
v -1.50137 2.07419 -0.08500
v -1.50137 2.07419 0.08500
v -1.59099 2.19099 0.17000
v -1.68061 2.30779 0.08500
v -1.68061 2.30779 -0.08500
v -1.12500 2.54856 0.00000
v -1.59099 2.19099 0.00000
v -1.59099 2.19099 -0.17000
v -1.47419 2.10137 -0.08500
v -1.47419 2.10137 0.08500
v -1.59099 2.19099 0.17000
v -1.70779 2.28061 0.08500
v -1.70779 2.28061 -0.08500
v -1.94856 1.72500 -0.17000
v -1.83176 1.63538 -0.08500
v -1.83176 1.63538 0.08500
v -1.94856 1.72500 0.17000
v -2.06536 1.81462 0.08500
v -2.06536 1.81462 -0.08500
v -1.59099 2.19099 0.00000
v -1.94856 1.72500 0.00000
v -1.94856 1.72500 0.17000
v -2.08457 1.78134 0.08500
v -2.08457 1.78134 -0.08500
v -1.94856 1.72500 -0.17000
v -1.81254 1.66866 -0.08500
v -1.81254 1.66866 0.08500
v -2.17333 1.18234 0.17000
v -2.30935 1.23868 0.08500
v -2.30935 1.23868 -0.08500
v -2.17333 1.18234 -0.17000
v -2.03732 1.12600 -0.08500
v -2.03732 1.12600 0.08500
v -1.94856 1.72500 0.00000
v -2.17333 1.18234 0.00000
v -2.17333 1.18234 0.17000
v -2.31930 1.20156 0.08500
v -2.31930 1.20156 -0.08500
v -2.17333 1.18234 -0.17000
v -2.02737 1.16313 -0.08500
v -2.02737 1.16313 0.08500
v -2.25000 0.60000 0.17000
v -2.39596 0.61922 0.08500
v -2.39596 0.61922 -0.08500
v -2.25000 0.60000 -0.17000
v -2.10404 0.58078 -0.08500
v -2.10404 0.58078 0.08500
v -2.17333 1.18234 0.00000
v -2.25000 0.60000 0.00000
v 1.90000 0.60000 -0.17000
v 1.75404 0.58078 -0.08500
v 1.75404 0.58078 0.08500
v 1.90000 0.60000 0.17000
v 2.04596 0.61922 0.08500
v 2.04596 0.61922 -0.08500
v 1.83526 1.09176 -0.17000
v 1.68929 1.07254 -0.08500
v 1.68929 1.07254 0.08500
v 1.83526 1.09176 0.17000
v 1.98122 1.11097 0.08500
v 1.98122 1.11097 -0.08500
v 1.90000 0.60000 0.00000
v 1.83526 1.09176 0.00000
v 1.83526 1.09176 -0.17000
v 1.69924 1.03542 -0.08500
v 1.69924 1.03542 0.08500
v 1.83526 1.09176 0.17000
v 1.97128 1.14810 0.08500
v 1.97128 1.14810 -0.08500
v 1.64545 1.55000 -0.17000
v 1.50943 1.49366 -0.08500
v 1.50943 1.49366 0.08500
v 1.64545 1.55000 0.17000
v 1.78147 1.60634 0.08500
v 1.78147 1.60634 -0.08500
v 1.83526 1.09176 0.00000
v 1.64545 1.55000 0.00000
v 1.64545 1.55000 -0.17000
v 1.52865 1.46038 -0.08500
v 1.52865 1.46038 0.08500
v 1.64545 1.55000 0.17000
v 1.76225 1.63962 0.08500
v 1.76225 1.63962 -0.08500
v 1.34350 1.94350 -0.17000
v 1.22670 1.85388 -0.08500
v 1.22670 1.85388 0.08500
v 1.34350 1.94350 0.17000
v 1.46030 2.03313 0.08500
v 1.46030 2.03313 -0.08500
v 1.64545 1.55000 0.00000
v 1.34350 1.94350 0.00000
v 1.34350 1.94350 -0.17000
v 1.25388 1.82670 -0.08500
v 1.25388 1.82670 0.08500
v 1.34350 1.94350 0.17000
v 1.43313 2.06030 0.08500
v 1.43313 2.06030 -0.08500
v 0.95000 2.24545 -0.17000
v 0.86038 2.12865 -0.08500
v 0.86038 2.12865 0.08500
v 0.95000 2.24545 0.17000
v 1.03962 2.36225 0.08500
v 1.03962 2.36225 -0.08500
v 1.34350 1.94350 0.00000
v 0.95000 2.24545 0.00000
v 0.95000 2.24545 -0.17000
v 0.89366 2.10943 -0.08500
v 0.89366 2.10943 0.08500
v 0.95000 2.24545 0.17000
v 1.00634 2.38147 0.08500
v 1.00634 2.38147 -0.08500
v 0.49176 2.43526 -0.17000
v 0.43542 2.29924 -0.08500
v 0.43542 2.29924 0.08500
v 0.49176 2.43526 0.17000
v 0.54810 2.57128 0.08500
v 0.54810 2.57128 -0.08500
v 0.95000 2.24545 0.00000
v 0.49176 2.43526 0.00000
v 0.49176 2.43526 -0.17000
v 0.47254 2.28929 -0.08500
v 0.47254 2.28929 0.08500
v 0.49176 2.43526 0.17000
v 0.51097 2.58122 0.08500
v 0.51097 2.58122 -0.08500
v 0.00000 2.50000 -0.17000
v -0.01922 2.35404 -0.08500
v -0.01922 2.35404 0.08500
v 0.00000 2.50000 0.17000
v 0.01922 2.64596 0.08500
v 0.01922 2.64596 -0.08500
v 0.49176 2.43526 0.00000
v 0.00000 2.50000 0.00000
v 0.00000 2.50000 -0.17000
v 0.01922 2.35404 -0.08500
v 0.01922 2.35404 0.08500
v 0.00000 2.50000 0.17000
v -0.01922 2.64596 0.08500
v -0.01922 2.64596 -0.08500
v -0.49176 2.43526 -0.17000
v -0.47254 2.28929 -0.08500
v -0.47254 2.28929 0.08500
v -0.49176 2.43526 0.17000
v -0.51097 2.58122 0.08500
v -0.51097 2.58122 -0.08500
v 0.00000 2.50000 0.00000
v -0.49176 2.43526 0.00000
v -0.49176 2.43526 -0.17000
v -0.43542 2.29924 -0.08500
v -0.43542 2.29924 0.08500
v -0.49176 2.43526 0.17000
v -0.54810 2.57128 0.08500
v -0.54810 2.57128 -0.08500
v -0.95000 2.24545 -0.17000
v -0.89366 2.10943 -0.08500
v -0.89366 2.10943 0.08500
v -0.95000 2.24545 0.17000
v -1.00634 2.38147 0.08500
v -1.00634 2.38147 -0.08500
v -0.49176 2.43526 0.00000
v -0.95000 2.24545 0.00000
v -0.95000 2.24545 -0.17000
v -0.86038 2.12865 -0.08500
v -0.86038 2.12865 0.08500
v -0.95000 2.24545 0.17000
v -1.03962 2.36225 0.08500
v -1.03962 2.36225 -0.08500
v -1.34350 1.94350 -0.17000
v -1.25388 1.82670 -0.08500
v -1.25388 1.82670 0.08500
v -1.34350 1.94350 0.17000
v -1.43313 2.06030 0.08500
v -1.43313 2.06030 -0.08500
v -0.95000 2.24545 0.00000
v -1.34350 1.94350 0.00000
v -1.34350 1.94350 -0.17000
v -1.22670 1.85388 -0.08500
v -1.22670 1.85388 0.08500
v -1.34350 1.94350 0.17000
v -1.46030 2.03313 0.08500
v -1.46030 2.03313 -0.08500
v -1.64545 1.55000 -0.17000
v -1.52865 1.46038 -0.08500
v -1.52865 1.46038 0.08500
v -1.64545 1.55000 0.17000
v -1.76225 1.63962 0.08500
v -1.76225 1.63962 -0.08500
v -1.34350 1.94350 0.00000
v -1.64545 1.55000 0.00000
v -1.64545 1.55000 0.17000
v -1.78147 1.60634 0.08500
v -1.78147 1.60634 -0.08500
v -1.64545 1.55000 -0.17000
v -1.50943 1.49366 -0.08500
v -1.50943 1.49366 0.08500
v -1.83526 1.09176 0.17000
v -1.97128 1.14810 0.08500
v -1.97128 1.14810 -0.08500
v -1.83526 1.09176 -0.17000
v -1.69924 1.03542 -0.08500
v -1.69924 1.03542 0.08500
v -1.64545 1.55000 0.00000
v -1.83526 1.09176 0.00000
v -1.83526 1.09176 0.17000
v -1.98122 1.11097 0.08500
v -1.98122 1.11097 -0.08500
v -1.83526 1.09176 -0.17000
v -1.68929 1.07254 -0.08500
v -1.68929 1.07254 0.08500
v -1.90000 0.60000 0.17000
v -2.04596 0.61922 0.08500
v -2.04596 0.61922 -0.08500
v -1.90000 0.60000 -0.17000
v -1.75404 0.58078 -0.08500
v -1.75404 0.58078 0.08500
v -1.83526 1.09176 0.00000
v -1.90000 0.60000 0.00000
v -0.07000 0.90000 0.12124
v -0.04950 0.80101 0.08573
v -0.00000 0.76000 0.00000
v 0.04950 0.80101 -0.08573
v 0.07000 0.90000 -0.12124
v 0.04950 0.99899 -0.08573
v 0.00000 1.04000 -0.00000
v -0.04950 0.99899 0.08573
v 4.60654 0.90000 2.82124
v 4.62704 0.80101 2.78573
v 4.67654 0.76000 2.70000
v 4.72603 0.80101 2.61427
v 4.74654 0.90000 2.57876
v 4.72603 0.99899 2.61427
v 4.67654 1.04000 2.70000
v 4.62704 0.99899 2.78573
v 0.00000 0.90000 0.00000
v 4.67654 0.90000 2.70000
v 6.07654 0.60000 2.70000
v 6.07654 0.90000 2.70000
v 6.02883 0.60000 3.06235
v 6.02883 0.90000 3.06235
v 5.88897 0.60000 3.40000
v 5.88897 0.90000 3.40000
v 5.66649 0.60000 3.68995
v 5.66649 0.90000 3.68995
v 5.37654 0.60000 3.91244
v 5.37654 0.90000 3.91244
v 5.03888 0.60000 4.05230
v 5.03888 0.90000 4.05230
v 4.67654 0.60000 4.10000
v 4.67654 0.90000 4.10000
v 4.31419 0.60000 4.05230
v 4.31419 0.90000 4.05230
v 3.97654 0.60000 3.91244
v 3.97654 0.90000 3.91244
v 3.68659 0.60000 3.68995
v 3.68659 0.90000 3.68995
v 3.46410 0.60000 3.40000
v 3.46410 0.90000 3.40000
v 3.32424 0.60000 3.06235
v 3.32424 0.90000 3.06235
v 3.27654 0.60000 2.70000
v 3.27654 0.90000 2.70000
v 3.32424 0.60000 2.33765
v 3.32424 0.90000 2.33765
v 3.46410 0.60000 2.00000
v 3.46410 0.90000 2.00000
v 3.68659 0.60000 1.71005
v 3.68659 0.90000 1.71005
v 3.97654 0.60000 1.48756
v 3.97654 0.90000 1.48756
v 4.31419 0.60000 1.34770
v 4.31419 0.90000 1.34770
v 4.67654 0.60000 1.30000
v 4.67654 0.90000 1.30000
v 5.03888 0.60000 1.34770
v 5.03888 0.90000 1.34770
v 5.37654 0.60000 1.48756
v 5.37654 0.90000 1.48756
v 5.66649 0.60000 1.71005
v 5.66649 0.90000 1.71005
v 5.88897 0.60000 2.00000
v 5.88897 0.90000 2.00000
v 6.02883 0.60000 2.33765
v 6.02883 0.90000 2.33765
v 4.67654 0.60000 2.70000
v 4.67654 0.90000 2.70000
v -0.14000 0.90000 0.00000
v -0.09899 0.80101 0.00000
v -0.00000 0.76000 0.00000
v 0.09899 0.80101 -0.00000
v 0.14000 0.90000 -0.00000
v 0.09899 0.99899 -0.00000
v 0.00000 1.04000 -0.00000
v -0.09899 0.99899 0.00000
v -0.14000 0.90000 5.40000
v -0.09899 0.80101 5.40000
v 0.00000 0.76000 5.40000
v 0.09899 0.80101 5.40000
v 0.14000 0.90000 5.40000
v 0.09899 0.99899 5.40000
v 0.00000 1.04000 5.40000
v -0.09899 0.99899 5.40000
v 0.00000 0.90000 0.00000
v 0.00000 0.90000 5.40000
v 1.40000 0.60000 5.40000
v 1.40000 0.90000 5.40000
v 1.35230 0.60000 5.76235
v 1.35230 0.90000 5.76235
v 1.21244 0.60000 6.10000
v 1.21244 0.90000 6.10000
v 0.98995 0.60000 6.38995
v 0.98995 0.90000 6.38995
v 0.70000 0.60000 6.61244
v 0.70000 0.90000 6.61244
v 0.36235 0.60000 6.75230
v 0.36235 0.90000 6.75230
v 0.00000 0.60000 6.80000
v 0.00000 0.90000 6.80000
v -0.36235 0.60000 6.75230
v -0.36235 0.90000 6.75230
v -0.70000 0.60000 6.61244
v -0.70000 0.90000 6.61244
v -0.98995 0.60000 6.38995
v -0.98995 0.90000 6.38995
v -1.21244 0.60000 6.10000
v -1.21244 0.90000 6.10000
v -1.35230 0.60000 5.76235
v -1.35230 0.90000 5.76235
v -1.40000 0.60000 5.40000
v -1.40000 0.90000 5.40000
v -1.35230 0.60000 5.03765
v -1.35230 0.90000 5.03765
v -1.21244 0.60000 4.70000
v -1.21244 0.90000 4.70000
v -0.98995 0.60000 4.41005
v -0.98995 0.90000 4.41005
v -0.70000 0.60000 4.18756
v -0.70000 0.90000 4.18756
v -0.36235 0.60000 4.04770
v -0.36235 0.90000 4.04770
v 0.00000 0.60000 4.00000
v 0.00000 0.90000 4.00000
v 0.36235 0.60000 4.04770
v 0.36235 0.90000 4.04770
v 0.70000 0.60000 4.18756
v 0.70000 0.90000 4.18756
v 0.98995 0.60000 4.41005
v 0.98995 0.90000 4.41005
v 1.21244 0.60000 4.70000
v 1.21244 0.90000 4.70000
v 1.35230 0.60000 5.03765
v 1.35230 0.90000 5.03765
v 0.00000 0.60000 5.40000
v 0.00000 0.90000 5.40000
v -0.07000 0.90000 -0.12124
v -0.04950 0.80101 -0.08573
v -0.00000 0.76000 -0.00000
v 0.04950 0.80101 0.08573
v 0.07000 0.90000 0.12124
v 0.04950 0.99899 0.08573
v 0.00000 1.04000 0.00000
v -0.04950 0.99899 -0.08573
v -4.74654 0.90000 2.57876
v -4.72603 0.80101 2.61427
v -4.67654 0.76000 2.70000
v -4.62704 0.80101 2.78573
v -4.60654 0.90000 2.82124
v -4.62704 0.99899 2.78573
v -4.67654 1.04000 2.70000
v -4.72603 0.99899 2.61427
v 0.00000 0.90000 0.00000
v -4.67654 0.90000 2.70000
v -3.27654 0.60000 2.70000
v -3.27654 0.90000 2.70000
v -3.32424 0.60000 3.06235
v -3.32424 0.90000 3.06235
v -3.46410 0.60000 3.40000
v -3.46410 0.90000 3.40000
v -3.68659 0.60000 3.68995
v -3.68659 0.90000 3.68995
v -3.97654 0.60000 3.91244
v -3.97654 0.90000 3.91244
v -4.31419 0.60000 4.05230
v -4.31419 0.90000 4.05230
v -4.67654 0.60000 4.10000
v -4.67654 0.90000 4.10000
v -5.03888 0.60000 4.05230
v -5.03888 0.90000 4.05230
v -5.37654 0.60000 3.91244
v -5.37654 0.90000 3.91244
v -5.66649 0.60000 3.68995
v -5.66649 0.90000 3.68995
v -5.88897 0.60000 3.40000
v -5.88897 0.90000 3.40000
v -6.02883 0.60000 3.06235
v -6.02883 0.90000 3.06235
v -6.07654 0.60000 2.70000
v -6.07654 0.90000 2.70000
v -6.02883 0.60000 2.33765
v -6.02883 0.90000 2.33765
v -5.88897 0.60000 2.00000
v -5.88897 0.90000 2.00000
v -5.66649 0.60000 1.71005
v -5.66649 0.90000 1.71005
v -5.37654 0.60000 1.48756
v -5.37654 0.90000 1.48756
v -5.03888 0.60000 1.34770
v -5.03888 0.90000 1.34770
v -4.67654 0.60000 1.30000
v -4.67654 0.90000 1.30000
v -4.31419 0.60000 1.34770
v -4.31419 0.90000 1.34770
v -3.97654 0.60000 1.48756
v -3.97654 0.90000 1.48756
v -3.68659 0.60000 1.71005
v -3.68659 0.90000 1.71005
v -3.46410 0.60000 2.00000
v -3.46410 0.90000 2.00000
v -3.32424 0.60000 2.33765
v -3.32424 0.90000 2.33765
v -4.67654 0.60000 2.70000
v -4.67654 0.90000 2.70000
v 0.07000 0.90000 -0.12124
v 0.04950 0.80101 -0.08573
v 0.00000 0.76000 -0.00000
v -0.04950 0.80101 0.08573
v -0.07000 0.90000 0.12124
v -0.04950 0.99899 0.08573
v -0.00000 1.04000 0.00000
v 0.04950 0.99899 -0.08573
v -4.60654 0.90000 -2.82124
v -4.62704 0.80101 -2.78573
v -4.67654 0.76000 -2.70000
v -4.72603 0.80101 -2.61427
v -4.74654 0.90000 -2.57876
v -4.72603 0.99899 -2.61427
v -4.67654 1.04000 -2.70000
v -4.62704 0.99899 -2.78573
v 0.00000 0.90000 0.00000
v -4.67654 0.90000 -2.70000
v -3.27654 0.60000 -2.70000
v -3.27654 0.90000 -2.70000
v -3.32424 0.60000 -2.33765
v -3.32424 0.90000 -2.33765
v -3.46410 0.60000 -2.00000
v -3.46410 0.90000 -2.00000
v -3.68659 0.60000 -1.71005
v -3.68659 0.90000 -1.71005
v -3.97654 0.60000 -1.48756
v -3.97654 0.90000 -1.48756
v -4.31419 0.60000 -1.34770
v -4.31419 0.90000 -1.34770
v -4.67654 0.60000 -1.30000
v -4.67654 0.90000 -1.30000
v -5.03888 0.60000 -1.34770
v -5.03888 0.90000 -1.34770
v -5.37654 0.60000 -1.48756
v -5.37654 0.90000 -1.48756
v -5.66649 0.60000 -1.71005
v -5.66649 0.90000 -1.71005
v -5.88897 0.60000 -2.00000
v -5.88897 0.90000 -2.00000
v -6.02883 0.60000 -2.33765
v -6.02883 0.90000 -2.33765
v -6.07654 0.60000 -2.70000
v -6.07654 0.90000 -2.70000
v -6.02883 0.60000 -3.06235
v -6.02883 0.90000 -3.06235
v -5.88897 0.60000 -3.40000
v -5.88897 0.90000 -3.40000
v -5.66649 0.60000 -3.68995
v -5.66649 0.90000 -3.68995
v -5.37654 0.60000 -3.91244
v -5.37654 0.90000 -3.91244
v -5.03888 0.60000 -4.05230
v -5.03888 0.90000 -4.05230
v -4.67654 0.60000 -4.10000
v -4.67654 0.90000 -4.10000
v -4.31419 0.60000 -4.05230
v -4.31419 0.90000 -4.05230
v -3.97654 0.60000 -3.91244
v -3.97654 0.90000 -3.91244
v -3.68659 0.60000 -3.68995
v -3.68659 0.90000 -3.68995
v -3.46410 0.60000 -3.40000
v -3.46410 0.90000 -3.40000
v -3.32424 0.60000 -3.06235
v -3.32424 0.90000 -3.06235
v -4.67654 0.60000 -2.70000
v -4.67654 0.90000 -2.70000
v 0.14000 0.90000 -0.00000
v 0.09899 0.80101 -0.00000
v 0.00000 0.76000 -0.00000
v -0.09899 0.80101 0.00000
v -0.14000 0.90000 0.00000
v -0.09899 0.99899 0.00000
v -0.00000 1.04000 0.00000
v 0.09899 0.99899 -0.00000
v 0.14000 0.90000 -5.40000
v 0.09899 0.80101 -5.40000
v -0.00000 0.76000 -5.40000
v -0.09899 0.80101 -5.40000
v -0.14000 0.90000 -5.40000
v -0.09899 0.99899 -5.40000
v -0.00000 1.04000 -5.40000
v 0.09899 0.99899 -5.40000
v 0.00000 0.90000 0.00000
v -0.00000 0.90000 -5.40000
v 1.40000 0.60000 -5.40000
v 1.40000 0.90000 -5.40000
v 1.35230 0.60000 -5.03765
v 1.35230 0.90000 -5.03765
v 1.21244 0.60000 -4.70000
v 1.21244 0.90000 -4.70000
v 0.98995 0.60000 -4.41005
v 0.98995 0.90000 -4.41005
v 0.70000 0.60000 -4.18756
v 0.70000 0.90000 -4.18756
v 0.36235 0.60000 -4.04770
v 0.36235 0.90000 -4.04770
v -0.00000 0.60000 -4.00000
v -0.00000 0.90000 -4.00000
v -0.36235 0.60000 -4.04770
v -0.36235 0.90000 -4.04770
v -0.70000 0.60000 -4.18756
v -0.70000 0.90000 -4.18756
v -0.98995 0.60000 -4.41005
v -0.98995 0.90000 -4.41005
v -1.21244 0.60000 -4.70000
v -1.21244 0.90000 -4.70000
v -1.35230 0.60000 -5.03765
v -1.35230 0.90000 -5.03765
v -1.40000 0.60000 -5.40000
v -1.40000 0.90000 -5.40000
v -1.35230 0.60000 -5.76235
v -1.35230 0.90000 -5.76235
v -1.21244 0.60000 -6.10000
v -1.21244 0.90000 -6.10000
v -0.98995 0.60000 -6.38995
v -0.98995 0.90000 -6.38995
v -0.70000 0.60000 -6.61244
v -0.70000 0.90000 -6.61244
v -0.36235 0.60000 -6.75230
v -0.36235 0.90000 -6.75230
v -0.00000 0.60000 -6.80000
v -0.00000 0.90000 -6.80000
v 0.36235 0.60000 -6.75230
v 0.36235 0.90000 -6.75230
v 0.70000 0.60000 -6.61244
v 0.70000 0.90000 -6.61244
v 0.98995 0.60000 -6.38995
v 0.98995 0.90000 -6.38995
v 1.21244 0.60000 -6.10000
v 1.21244 0.90000 -6.10000
v 1.35230 0.60000 -5.76235
v 1.35230 0.90000 -5.76235
v -0.00000 0.60000 -5.40000
v -0.00000 0.90000 -5.40000
v 0.07000 0.90000 0.12124
v 0.04950 0.80101 0.08573
v 0.00000 0.76000 0.00000
v -0.04950 0.80101 -0.08573
v -0.07000 0.90000 -0.12124
v -0.04950 0.99899 -0.08573
v -0.00000 1.04000 -0.00000
v 0.04950 0.99899 0.08573
v 4.74654 0.90000 -2.57876
v 4.72603 0.80101 -2.61427
v 4.67654 0.76000 -2.70000
v 4.62704 0.80101 -2.78573
v 4.60654 0.90000 -2.82124
v 4.62704 0.99899 -2.78573
v 4.67654 1.04000 -2.70000
v 4.72603 0.99899 -2.61427
v 0.00000 0.90000 0.00000
v 4.67654 0.90000 -2.70000
v 6.07654 0.60000 -2.70000
v 6.07654 0.90000 -2.70000
v 6.02883 0.60000 -2.33765
v 6.02883 0.90000 -2.33765
v 5.88897 0.60000 -2.00000
v 5.88897 0.90000 -2.00000
v 5.66649 0.60000 -1.71005
v 5.66649 0.90000 -1.71005
v 5.37654 0.60000 -1.48756
v 5.37654 0.90000 -1.48756
v 5.03888 0.60000 -1.34770
v 5.03888 0.90000 -1.34770
v 4.67654 0.60000 -1.30000
v 4.67654 0.90000 -1.30000
v 4.31419 0.60000 -1.34770
v 4.31419 0.90000 -1.34770
v 3.97654 0.60000 -1.48756
v 3.97654 0.90000 -1.48756
v 3.68659 0.60000 -1.71005
v 3.68659 0.90000 -1.71005
v 3.46410 0.60000 -2.00000
v 3.46410 0.90000 -2.00000
v 3.32424 0.60000 -2.33765
v 3.32424 0.90000 -2.33765
v 3.27654 0.60000 -2.70000
v 3.27654 0.90000 -2.70000
v 3.32424 0.60000 -3.06235
v 3.32424 0.90000 -3.06235
v 3.46410 0.60000 -3.40000
v 3.46410 0.90000 -3.40000
v 3.68659 0.60000 -3.68995
v 3.68659 0.90000 -3.68995
v 3.97654 0.60000 -3.91244
v 3.97654 0.90000 -3.91244
v 4.31419 0.60000 -4.05230
v 4.31419 0.90000 -4.05230
v 4.67654 0.60000 -4.10000
v 4.67654 0.90000 -4.10000
v 5.03888 0.60000 -4.05230
v 5.03888 0.90000 -4.05230
v 5.37654 0.60000 -3.91244
v 5.37654 0.90000 -3.91244
v 5.66649 0.60000 -3.68995
v 5.66649 0.90000 -3.68995
v 5.88897 0.60000 -3.40000
v 5.88897 0.90000 -3.40000
v 6.02883 0.60000 -3.06235
v 6.02883 0.90000 -3.06235
v 4.67654 0.60000 -2.70000
v 4.67654 0.90000 -2.70000
vt 0.05000 0.50000
vt 0.15000 0.50000
vt 0.25000 0.50000
vt 0.35000 0.50000
vt 0.45000 0.50000
vt 0.55000 0.50000
vt 0.65000 0.50000
vt 0.75000 0.50000
vt 0.85000 0.50000
vt 0.95000 0.50000
usemtl cream
f 2/1 4/1 3/1 1/1
f 1/1 3/1 89/1
f 4/1 2/1 90/1
f 4/1 6/1 5/1 3/1
f 3/1 5/1 89/1
f 6/1 4/1 90/1
f 6/1 8/1 7/1 5/1
f 5/1 7/1 89/1
f 8/1 6/1 90/1
f 8/1 10/1 9/1 7/1
f 7/1 9/1 89/1
f 10/1 8/1 90/1
f 10/1 12/1 11/1 9/1
f 9/1 11/1 89/1
f 12/1 10/1 90/1
f 12/1 14/1 13/1 11/1
f 11/1 13/1 89/1
f 14/1 12/1 90/1
f 14/1 16/1 15/1 13/1
f 13/1 15/1 89/1
f 16/1 14/1 90/1
f 16/1 18/1 17/1 15/1
f 15/1 17/1 89/1
f 18/1 16/1 90/1
f 18/1 20/1 19/1 17/1
f 17/1 19/1 89/1
f 20/1 18/1 90/1
f 20/1 22/1 21/1 19/1
f 19/1 21/1 89/1
f 22/1 20/1 90/1
f 22/1 24/1 23/1 21/1
f 21/1 23/1 89/1
f 24/1 22/1 90/1
f 24/1 26/1 25/1 23/1
f 23/1 25/1 89/1
f 26/1 24/1 90/1
f 26/1 28/1 27/1 25/1
f 25/1 27/1 89/1
f 28/1 26/1 90/1
f 28/1 30/1 29/1 27/1
f 27/1 29/1 89/1
f 30/1 28/1 90/1
f 30/1 32/1 31/1 29/1
f 29/1 31/1 89/1
f 32/1 30/1 90/1
f 32/1 34/1 33/1 31/1
f 31/1 33/1 89/1
f 34/1 32/1 90/1
f 34/1 36/1 35/1 33/1
f 33/1 35/1 89/1
f 36/1 34/1 90/1
f 36/1 38/1 37/1 35/1
f 35/1 37/1 89/1
f 38/1 36/1 90/1
f 38/1 40/1 39/1 37/1
f 37/1 39/1 89/1
f 40/1 38/1 90/1
f 40/1 42/1 41/1 39/1
f 39/1 41/1 89/1
f 42/1 40/1 90/1
f 42/1 44/1 43/1 41/1
f 41/1 43/1 89/1
f 44/1 42/1 90/1
f 44/1 46/1 45/1 43/1
f 43/1 45/1 89/1
f 46/1 44/1 90/1
f 46/1 48/1 47/1 45/1
f 45/1 47/1 89/1
f 48/1 46/1 90/1
f 48/1 50/1 49/1 47/1
f 47/1 49/1 89/1
f 50/1 48/1 90/1
f 50/1 52/1 51/1 49/1
f 49/1 51/1 89/1
f 52/1 50/1 90/1
f 52/1 54/1 53/1 51/1
f 51/1 53/1 89/1
f 54/1 52/1 90/1
f 54/1 56/1 55/1 53/1
f 53/1 55/1 89/1
f 56/1 54/1 90/1
f 56/1 58/1 57/1 55/1
f 55/1 57/1 89/1
f 58/1 56/1 90/1
f 58/1 60/1 59/1 57/1
f 57/1 59/1 89/1
f 60/1 58/1 90/1
f 60/1 62/1 61/1 59/1
f 59/1 61/1 89/1
f 62/1 60/1 90/1
f 62/1 64/1 63/1 61/1
f 61/1 63/1 89/1
f 64/1 62/1 90/1
f 64/1 66/1 65/1 63/1
f 63/1 65/1 89/1
f 66/1 64/1 90/1
f 66/1 68/1 67/1 65/1
f 65/1 67/1 89/1
f 68/1 66/1 90/1
f 68/1 70/1 69/1 67/1
f 67/1 69/1 89/1
f 70/1 68/1 90/1
f 70/1 72/1 71/1 69/1
f 69/1 71/1 89/1
f 72/1 70/1 90/1
f 72/1 74/1 73/1 71/1
f 71/1 73/1 89/1
f 74/1 72/1 90/1
f 74/1 76/1 75/1 73/1
f 73/1 75/1 89/1
f 76/1 74/1 90/1
f 76/1 78/1 77/1 75/1
f 75/1 77/1 89/1
f 78/1 76/1 90/1
f 78/1 80/1 79/1 77/1
f 77/1 79/1 89/1
f 80/1 78/1 90/1
f 80/1 82/1 81/1 79/1
f 79/1 81/1 89/1
f 82/1 80/1 90/1
f 82/1 84/1 83/1 81/1
f 81/1 83/1 89/1
f 84/1 82/1 90/1
f 84/1 86/1 85/1 83/1
f 83/1 85/1 89/1
f 86/1 84/1 90/1
f 86/1 88/1 87/1 85/1
f 85/1 87/1 89/1
f 88/1 86/1 90/1
f 88/1 2/1 1/1 87/1
f 87/1 1/1 89/1
f 2/1 88/1 90/1
f 181/1 182/1 213/1
f 206/1 205/1 214/1
f 182/1 183/1 213/1
f 207/1 206/1 214/1
f 183/1 184/1 213/1
f 208/1 207/1 214/1
f 184/1 185/1 213/1
f 209/1 208/1 214/1
f 185/1 186/1 213/1
f 210/1 209/1 214/1
f 186/1 187/1 213/1
f 211/1 210/1 214/1
f 187/1 188/1 213/1
f 212/1 211/1 214/1
f 188/1 181/1 213/1
f 205/1 212/1 214/1
f 189/1 190/1 182/1 181/1
f 190/1 191/1 183/1 182/1
f 191/1 192/1 184/1 183/1
f 192/1 193/1 185/1 184/1
f 193/1 194/1 186/1 185/1
f 194/1 195/1 187/1 186/1
f 195/1 196/1 188/1 187/1
f 196/1 189/1 181/1 188/1
f 197/1 198/1 190/1 189/1
f 198/1 199/1 191/1 190/1
f 199/1 200/1 192/1 191/1
f 200/1 201/1 193/1 192/1
f 201/1 202/1 194/1 193/1
f 202/1 203/1 195/1 194/1
f 203/1 204/1 196/1 195/1
f 204/1 197/1 189/1 196/1
f 205/1 206/1 198/1 197/1
f 206/1 207/1 199/1 198/1
f 207/1 208/1 200/1 199/1
f 208/1 209/1 201/1 200/1
f 209/1 210/1 202/1 201/1
f 210/1 211/1 203/1 202/1
f 211/1 212/1 204/1 203/1
f 212/1 205/1 197/1 204/1
f 215/1 216/1 247/1
f 240/1 239/1 248/1
f 216/1 217/1 247/1
f 241/1 240/1 248/1
f 217/1 218/1 247/1
f 242/1 241/1 248/1
f 218/1 219/1 247/1
f 243/1 242/1 248/1
f 219/1 220/1 247/1
f 244/1 243/1 248/1
f 220/1 221/1 247/1
f 245/1 244/1 248/1
f 221/1 222/1 247/1
f 246/1 245/1 248/1
f 222/1 215/1 247/1
f 239/1 246/1 248/1
f 223/1 224/1 216/1 215/1
f 224/1 225/1 217/1 216/1
f 225/1 226/1 218/1 217/1
f 226/1 227/1 219/1 218/1
f 227/1 228/1 220/1 219/1
f 228/1 229/1 221/1 220/1
f 229/1 230/1 222/1 221/1
f 230/1 223/1 215/1 222/1
f 231/1 232/1 224/1 223/1
f 232/1 233/1 225/1 224/1
f 233/1 234/1 226/1 225/1
f 234/1 235/1 227/1 226/1
f 235/1 236/1 228/1 227/1
f 236/1 237/1 229/1 228/1
f 237/1 238/1 230/1 229/1
f 238/1 231/1 223/1 230/1
f 239/1 240/1 232/1 231/1
f 240/1 241/1 233/1 232/1
f 241/1 242/1 234/1 233/1
f 242/1 243/1 235/1 234/1
f 243/1 244/1 236/1 235/1
f 244/1 245/1 237/1 236/1
f 245/1 246/1 238/1 237/1
f 246/1 239/1 231/1 238/1
f 249/1 250/1 281/1
f 274/1 273/1 282/1
f 250/1 251/1 281/1
f 275/1 274/1 282/1
f 251/1 252/1 281/1
f 276/1 275/1 282/1
f 252/1 253/1 281/1
f 277/1 276/1 282/1
f 253/1 254/1 281/1
f 278/1 277/1 282/1
f 254/1 255/1 281/1
f 279/1 278/1 282/1
f 255/1 256/1 281/1
f 280/1 279/1 282/1
f 256/1 249/1 281/1
f 273/1 280/1 282/1
f 257/1 258/1 250/1 249/1
f 258/1 259/1 251/1 250/1
f 259/1 260/1 252/1 251/1
f 260/1 261/1 253/1 252/1
f 261/1 262/1 254/1 253/1
f 262/1 263/1 255/1 254/1
f 263/1 264/1 256/1 255/1
f 264/1 257/1 249/1 256/1
f 265/1 266/1 258/1 257/1
f 266/1 267/1 259/1 258/1
f 267/1 268/1 260/1 259/1
f 268/1 269/1 261/1 260/1
f 269/1 270/1 262/1 261/1
f 270/1 271/1 263/1 262/1
f 271/1 272/1 264/1 263/1
f 272/1 265/1 257/1 264/1
f 273/1 274/1 266/1 265/1
f 274/1 275/1 267/1 266/1
f 275/1 276/1 268/1 267/1
f 276/1 277/1 269/1 268/1
f 277/1 278/1 270/1 269/1
f 278/1 279/1 271/1 270/1
f 279/1 280/1 272/1 271/1
f 280/1 273/1 265/1 272/1
f 283/1 284/1 315/1
f 308/1 307/1 316/1
f 284/1 285/1 315/1
f 309/1 308/1 316/1
f 285/1 286/1 315/1
f 310/1 309/1 316/1
f 286/1 287/1 315/1
f 311/1 310/1 316/1
f 287/1 288/1 315/1
f 312/1 311/1 316/1
f 288/1 289/1 315/1
f 313/1 312/1 316/1
f 289/1 290/1 315/1
f 314/1 313/1 316/1
f 290/1 283/1 315/1
f 307/1 314/1 316/1
f 291/1 292/1 284/1 283/1
f 292/1 293/1 285/1 284/1
f 293/1 294/1 286/1 285/1
f 294/1 295/1 287/1 286/1
f 295/1 296/1 288/1 287/1
f 296/1 297/1 289/1 288/1
f 297/1 298/1 290/1 289/1
f 298/1 291/1 283/1 290/1
f 299/1 300/1 292/1 291/1
f 300/1 301/1 293/1 292/1
f 301/1 302/1 294/1 293/1
f 302/1 303/1 295/1 294/1
f 303/1 304/1 296/1 295/1
f 304/1 305/1 297/1 296/1
f 305/1 306/1 298/1 297/1
f 306/1 299/1 291/1 298/1
f 307/1 308/1 300/1 299/1
f 308/1 309/1 301/1 300/1
f 309/1 310/1 302/1 301/1
f 310/1 311/1 303/1 302/1
f 311/1 312/1 304/1 303/1
f 312/1 313/1 305/1 304/1
f 313/1 314/1 306/1 305/1
f 314/1 307/1 299/1 306/1
f 317/1 318/1 349/1
f 342/1 341/1 350/1
f 318/1 319/1 349/1
f 343/1 342/1 350/1
f 319/1 320/1 349/1
f 344/1 343/1 350/1
f 320/1 321/1 349/1
f 345/1 344/1 350/1
f 321/1 322/1 349/1
f 346/1 345/1 350/1
f 322/1 323/1 349/1
f 347/1 346/1 350/1
f 323/1 324/1 349/1
f 348/1 347/1 350/1
f 324/1 317/1 349/1
f 341/1 348/1 350/1
f 325/1 326/1 318/1 317/1
f 326/1 327/1 319/1 318/1
f 327/1 328/1 320/1 319/1
f 328/1 329/1 321/1 320/1
f 329/1 330/1 322/1 321/1
f 330/1 331/1 323/1 322/1
f 331/1 332/1 324/1 323/1
f 332/1 325/1 317/1 324/1
f 333/1 334/1 326/1 325/1
f 334/1 335/1 327/1 326/1
f 335/1 336/1 328/1 327/1
f 336/1 337/1 329/1 328/1
f 337/1 338/1 330/1 329/1
f 338/1 339/1 331/1 330/1
f 339/1 340/1 332/1 331/1
f 340/1 333/1 325/1 332/1
f 341/1 342/1 334/1 333/1
f 342/1 343/1 335/1 334/1
f 343/1 344/1 336/1 335/1
f 344/1 345/1 337/1 336/1
f 345/1 346/1 338/1 337/1
f 346/1 347/1 339/1 338/1
f 347/1 348/1 340/1 339/1
f 348/1 341/1 333/1 340/1
f 351/1 352/1 383/1
f 376/1 375/1 384/1
f 352/1 353/1 383/1
f 377/1 376/1 384/1
f 353/1 354/1 383/1
f 378/1 377/1 384/1
f 354/1 355/1 383/1
f 379/1 378/1 384/1
f 355/1 356/1 383/1
f 380/1 379/1 384/1
f 356/1 357/1 383/1
f 381/1 380/1 384/1
f 357/1 358/1 383/1
f 382/1 381/1 384/1
f 358/1 351/1 383/1
f 375/1 382/1 384/1
f 359/1 360/1 352/1 351/1
f 360/1 361/1 353/1 352/1
f 361/1 362/1 354/1 353/1
f 362/1 363/1 355/1 354/1
f 363/1 364/1 356/1 355/1
f 364/1 365/1 357/1 356/1
f 365/1 366/1 358/1 357/1
f 366/1 359/1 351/1 358/1
f 367/1 368/1 360/1 359/1
f 368/1 369/1 361/1 360/1
f 369/1 370/1 362/1 361/1
f 370/1 371/1 363/1 362/1
f 371/1 372/1 364/1 363/1
f 372/1 373/1 365/1 364/1
f 373/1 374/1 366/1 365/1
f 374/1 367/1 359/1 366/1
f 375/1 376/1 368/1 367/1
f 376/1 377/1 369/1 368/1
f 377/1 378/1 370/1 369/1
f 378/1 379/1 371/1 370/1
f 379/1 380/1 372/1 371/1
f 380/1 381/1 373/1 372/1
f 381/1 382/1 374/1 373/1
f 382/1 375/1 367/1 374/1
f 385/1 386/1 417/1
f 410/1 409/1 418/1
f 386/1 387/1 417/1
f 411/1 410/1 418/1
f 387/1 388/1 417/1
f 412/1 411/1 418/1
f 388/1 389/1 417/1
f 413/1 412/1 418/1
f 389/1 390/1 417/1
f 414/1 413/1 418/1
f 390/1 391/1 417/1
f 415/1 414/1 418/1
f 391/1 392/1 417/1
f 416/1 415/1 418/1
f 392/1 385/1 417/1
f 409/1 416/1 418/1
f 393/1 394/1 386/1 385/1
f 394/1 395/1 387/1 386/1
f 395/1 396/1 388/1 387/1
f 396/1 397/1 389/1 388/1
f 397/1 398/1 390/1 389/1
f 398/1 399/1 391/1 390/1
f 399/1 400/1 392/1 391/1
f 400/1 393/1 385/1 392/1
f 401/1 402/1 394/1 393/1
f 402/1 403/1 395/1 394/1
f 403/1 404/1 396/1 395/1
f 404/1 405/1 397/1 396/1
f 405/1 406/1 398/1 397/1
f 406/1 407/1 399/1 398/1
f 407/1 408/1 400/1 399/1
f 408/1 401/1 393/1 400/1
f 409/1 410/1 402/1 401/1
f 410/1 411/1 403/1 402/1
f 411/1 412/1 404/1 403/1
f 412/1 413/1 405/1 404/1
f 413/1 414/1 406/1 405/1
f 414/1 415/1 407/1 406/1
f 415/1 416/1 408/1 407/1
f 416/1 409/1 401/1 408/1
f 419/1 420/1 451/1
f 444/1 443/1 452/1
f 420/1 421/1 451/1
f 445/1 444/1 452/1
f 421/1 422/1 451/1
f 446/1 445/1 452/1
f 422/1 423/1 451/1
f 447/1 446/1 452/1
f 423/1 424/1 451/1
f 448/1 447/1 452/1
f 424/1 425/1 451/1
f 449/1 448/1 452/1
f 425/1 426/1 451/1
f 450/1 449/1 452/1
f 426/1 419/1 451/1
f 443/1 450/1 452/1
f 427/1 428/1 420/1 419/1
f 428/1 429/1 421/1 420/1
f 429/1 430/1 422/1 421/1
f 430/1 431/1 423/1 422/1
f 431/1 432/1 424/1 423/1
f 432/1 433/1 425/1 424/1
f 433/1 434/1 426/1 425/1
f 434/1 427/1 419/1 426/1
f 435/1 436/1 428/1 427/1
f 436/1 437/1 429/1 428/1
f 437/1 438/1 430/1 429/1
f 438/1 439/1 431/1 430/1
f 439/1 440/1 432/1 431/1
f 440/1 441/1 433/1 432/1
f 441/1 442/1 434/1 433/1
f 442/1 435/1 427/1 434/1
f 443/1 444/1 436/1 435/1
f 444/1 445/1 437/1 436/1
f 445/1 446/1 438/1 437/1
f 446/1 447/1 439/1 438/1
f 447/1 448/1 440/1 439/1
f 448/1 449/1 441/1 440/1
f 449/1 450/1 442/1 441/1
f 450/1 443/1 435/1 442/1
f 453/1 454/1 485/1
f 478/1 477/1 486/1
f 454/1 455/1 485/1
f 479/1 478/1 486/1
f 455/1 456/1 485/1
f 480/1 479/1 486/1
f 456/1 457/1 485/1
f 481/1 480/1 486/1
f 457/1 458/1 485/1
f 482/1 481/1 486/1
f 458/1 459/1 485/1
f 483/1 482/1 486/1
f 459/1 460/1 485/1
f 484/1 483/1 486/1
f 460/1 453/1 485/1
f 477/1 484/1 486/1
f 461/1 462/1 454/1 453/1
f 462/1 463/1 455/1 454/1
f 463/1 464/1 456/1 455/1
f 464/1 465/1 457/1 456/1
f 465/1 466/1 458/1 457/1
f 466/1 467/1 459/1 458/1
f 467/1 468/1 460/1 459/1
f 468/1 461/1 453/1 460/1
f 469/1 470/1 462/1 461/1
f 470/1 471/1 463/1 462/1
f 471/1 472/1 464/1 463/1
f 472/1 473/1 465/1 464/1
f 473/1 474/1 466/1 465/1
f 474/1 475/1 467/1 466/1
f 475/1 476/1 468/1 467/1
f 476/1 469/1 461/1 468/1
f 477/1 478/1 470/1 469/1
f 478/1 479/1 471/1 470/1
f 479/1 480/1 472/1 471/1
f 480/1 481/1 473/1 472/1
f 481/1 482/1 474/1 473/1
f 482/1 483/1 475/1 474/1
f 483/1 484/1 476/1 475/1
f 484/1 477/1 469/1 476/1
f 487/1 488/1 519/1
f 512/1 511/1 520/1
f 488/1 489/1 519/1
f 513/1 512/1 520/1
f 489/1 490/1 519/1
f 514/1 513/1 520/1
f 490/1 491/1 519/1
f 515/1 514/1 520/1
f 491/1 492/1 519/1
f 516/1 515/1 520/1
f 492/1 493/1 519/1
f 517/1 516/1 520/1
f 493/1 494/1 519/1
f 518/1 517/1 520/1
f 494/1 487/1 519/1
f 511/1 518/1 520/1
f 495/1 496/1 488/1 487/1
f 496/1 497/1 489/1 488/1
f 497/1 498/1 490/1 489/1
f 498/1 499/1 491/1 490/1
f 499/1 500/1 492/1 491/1
f 500/1 501/1 493/1 492/1
f 501/1 502/1 494/1 493/1
f 502/1 495/1 487/1 494/1
f 503/1 504/1 496/1 495/1
f 504/1 505/1 497/1 496/1
f 505/1 506/1 498/1 497/1
f 506/1 507/1 499/1 498/1
f 507/1 508/1 500/1 499/1
f 508/1 509/1 501/1 500/1
f 509/1 510/1 502/1 501/1
f 510/1 503/1 495/1 502/1
f 511/1 512/1 504/1 503/1
f 512/1 513/1 505/1 504/1
f 513/1 514/1 506/1 505/1
f 514/1 515/1 507/1 506/1
f 515/1 516/1 508/1 507/1
f 516/1 517/1 509/1 508/1
f 517/1 518/1 510/1 509/1
f 518/1 511/1 503/1 510/1
f 521/1 522/1 553/1
f 546/1 545/1 554/1
f 522/1 523/1 553/1
f 547/1 546/1 554/1
f 523/1 524/1 553/1
f 548/1 547/1 554/1
f 524/1 525/1 553/1
f 549/1 548/1 554/1
f 525/1 526/1 553/1
f 550/1 549/1 554/1
f 526/1 527/1 553/1
f 551/1 550/1 554/1
f 527/1 528/1 553/1
f 552/1 551/1 554/1
f 528/1 521/1 553/1
f 545/1 552/1 554/1
f 529/1 530/1 522/1 521/1
f 530/1 531/1 523/1 522/1
f 531/1 532/1 524/1 523/1
f 532/1 533/1 525/1 524/1
f 533/1 534/1 526/1 525/1
f 534/1 535/1 527/1 526/1
f 535/1 536/1 528/1 527/1
f 536/1 529/1 521/1 528/1
f 537/1 538/1 530/1 529/1
f 538/1 539/1 531/1 530/1
f 539/1 540/1 532/1 531/1
f 540/1 541/1 533/1 532/1
f 541/1 542/1 534/1 533/1
f 542/1 543/1 535/1 534/1
f 543/1 544/1 536/1 535/1
f 544/1 537/1 529/1 536/1
f 545/1 546/1 538/1 537/1
f 546/1 547/1 539/1 538/1
f 547/1 548/1 540/1 539/1
f 548/1 549/1 541/1 540/1
f 549/1 550/1 542/1 541/1
f 550/1 551/1 543/1 542/1
f 551/1 552/1 544/1 543/1
f 552/1 545/1 537/1 544/1
f 555/1 556/1 587/1
f 580/1 579/1 588/1
f 556/1 557/1 587/1
f 581/1 580/1 588/1
f 557/1 558/1 587/1
f 582/1 581/1 588/1
f 558/1 559/1 587/1
f 583/1 582/1 588/1
f 559/1 560/1 587/1
f 584/1 583/1 588/1
f 560/1 561/1 587/1
f 585/1 584/1 588/1
f 561/1 562/1 587/1
f 586/1 585/1 588/1
f 562/1 555/1 587/1
f 579/1 586/1 588/1
f 563/1 564/1 556/1 555/1
f 564/1 565/1 557/1 556/1
f 565/1 566/1 558/1 557/1
f 566/1 567/1 559/1 558/1
f 567/1 568/1 560/1 559/1
f 568/1 569/1 561/1 560/1
f 569/1 570/1 562/1 561/1
f 570/1 563/1 555/1 562/1
f 571/1 572/1 564/1 563/1
f 572/1 573/1 565/1 564/1
f 573/1 574/1 566/1 565/1
f 574/1 575/1 567/1 566/1
f 575/1 576/1 568/1 567/1
f 576/1 577/1 569/1 568/1
f 577/1 578/1 570/1 569/1
f 578/1 571/1 563/1 570/1
f 579/1 580/1 572/1 571/1
f 580/1 581/1 573/1 572/1
f 581/1 582/1 574/1 573/1
f 582/1 583/1 575/1 574/1
f 583/1 584/1 576/1 575/1
f 584/1 585/1 577/1 576/1
f 585/1 586/1 578/1 577/1
f 586/1 579/1 571/1 578/1
f 589/1 590/1 621/1
f 614/1 613/1 622/1
f 590/1 591/1 621/1
f 615/1 614/1 622/1
f 591/1 592/1 621/1
f 616/1 615/1 622/1
f 592/1 593/1 621/1
f 617/1 616/1 622/1
f 593/1 594/1 621/1
f 618/1 617/1 622/1
f 594/1 595/1 621/1
f 619/1 618/1 622/1
f 595/1 596/1 621/1
f 620/1 619/1 622/1
f 596/1 589/1 621/1
f 613/1 620/1 622/1
f 597/1 598/1 590/1 589/1
f 598/1 599/1 591/1 590/1
f 599/1 600/1 592/1 591/1
f 600/1 601/1 593/1 592/1
f 601/1 602/1 594/1 593/1
f 602/1 603/1 595/1 594/1
f 603/1 604/1 596/1 595/1
f 604/1 597/1 589/1 596/1
f 605/1 606/1 598/1 597/1
f 606/1 607/1 599/1 598/1
f 607/1 608/1 600/1 599/1
f 608/1 609/1 601/1 600/1
f 609/1 610/1 602/1 601/1
f 610/1 611/1 603/1 602/1
f 611/1 612/1 604/1 603/1
f 612/1 605/1 597/1 604/1
f 613/1 614/1 606/1 605/1
f 614/1 615/1 607/1 606/1
f 615/1 616/1 608/1 607/1
f 616/1 617/1 609/1 608/1
f 617/1 618/1 610/1 609/1
f 618/1 619/1 611/1 610/1
f 619/1 620/1 612/1 611/1
f 620/1 613/1 605/1 612/1
f 623/1 624/1 655/1
f 648/1 647/1 656/1
f 624/1 625/1 655/1
f 649/1 648/1 656/1
f 625/1 626/1 655/1
f 650/1 649/1 656/1
f 626/1 627/1 655/1
f 651/1 650/1 656/1
f 627/1 628/1 655/1
f 652/1 651/1 656/1
f 628/1 629/1 655/1
f 653/1 652/1 656/1
f 629/1 630/1 655/1
f 654/1 653/1 656/1
f 630/1 623/1 655/1
f 647/1 654/1 656/1
f 631/1 632/1 624/1 623/1
f 632/1 633/1 625/1 624/1
f 633/1 634/1 626/1 625/1
f 634/1 635/1 627/1 626/1
f 635/1 636/1 628/1 627/1
f 636/1 637/1 629/1 628/1
f 637/1 638/1 630/1 629/1
f 638/1 631/1 623/1 630/1
f 639/1 640/1 632/1 631/1
f 640/1 641/1 633/1 632/1
f 641/1 642/1 634/1 633/1
f 642/1 643/1 635/1 634/1
f 643/1 644/1 636/1 635/1
f 644/1 645/1 637/1 636/1
f 645/1 646/1 638/1 637/1
f 646/1 639/1 631/1 638/1
f 647/1 648/1 640/1 639/1
f 648/1 649/1 641/1 640/1
f 649/1 650/1 642/1 641/1
f 650/1 651/1 643/1 642/1
f 651/1 652/1 644/1 643/1
f 652/1 653/1 645/1 644/1
f 653/1 654/1 646/1 645/1
f 654/1 647/1 639/1 646/1
f 1180/1 1182/1 1181/1 1179/1
f 1179/1 1181/1 1227/1
f 1182/1 1180/1 1228/1
f 1182/1 1184/1 1183/1 1181/1
f 1181/1 1183/1 1227/1
f 1184/1 1182/1 1228/1
f 1184/1 1186/1 1185/1 1183/1
f 1183/1 1185/1 1227/1
f 1186/1 1184/1 1228/1
f 1186/1 1188/1 1187/1 1185/1
f 1185/1 1187/1 1227/1
f 1188/1 1186/1 1228/1
f 1188/1 1190/1 1189/1 1187/1
f 1187/1 1189/1 1227/1
f 1190/1 1188/1 1228/1
f 1190/1 1192/1 1191/1 1189/1
f 1189/1 1191/1 1227/1
f 1192/1 1190/1 1228/1
f 1192/1 1194/1 1193/1 1191/1
f 1191/1 1193/1 1227/1
f 1194/1 1192/1 1228/1
f 1194/1 1196/1 1195/1 1193/1
f 1193/1 1195/1 1227/1
f 1196/1 1194/1 1228/1
f 1196/1 1198/1 1197/1 1195/1
f 1195/1 1197/1 1227/1
f 1198/1 1196/1 1228/1
f 1198/1 1200/1 1199/1 1197/1
f 1197/1 1199/1 1227/1
f 1200/1 1198/1 1228/1
f 1200/1 1202/1 1201/1 1199/1
f 1199/1 1201/1 1227/1
f 1202/1 1200/1 1228/1
f 1202/1 1204/1 1203/1 1201/1
f 1201/1 1203/1 1227/1
f 1204/1 1202/1 1228/1
f 1204/1 1206/1 1205/1 1203/1
f 1203/1 1205/1 1227/1
f 1206/1 1204/1 1228/1
f 1206/1 1208/1 1207/1 1205/1
f 1205/1 1207/1 1227/1
f 1208/1 1206/1 1228/1
f 1208/1 1210/1 1209/1 1207/1
f 1207/1 1209/1 1227/1
f 1210/1 1208/1 1228/1
f 1210/1 1212/1 1211/1 1209/1
f 1209/1 1211/1 1227/1
f 1212/1 1210/1 1228/1
f 1212/1 1214/1 1213/1 1211/1
f 1211/1 1213/1 1227/1
f 1214/1 1212/1 1228/1
f 1214/1 1216/1 1215/1 1213/1
f 1213/1 1215/1 1227/1
f 1216/1 1214/1 1228/1
f 1216/1 1218/1 1217/1 1215/1
f 1215/1 1217/1 1227/1
f 1218/1 1216/1 1228/1
f 1218/1 1220/1 1219/1 1217/1
f 1217/1 1219/1 1227/1
f 1220/1 1218/1 1228/1
f 1220/1 1222/1 1221/1 1219/1
f 1219/1 1221/1 1227/1
f 1222/1 1220/1 1228/1
f 1222/1 1224/1 1223/1 1221/1
f 1221/1 1223/1 1227/1
f 1224/1 1222/1 1228/1
f 1224/1 1226/1 1225/1 1223/1
f 1223/1 1225/1 1227/1
f 1226/1 1224/1 1228/1
f 1226/1 1180/1 1179/1 1225/1
f 1225/1 1179/1 1227/1
f 1180/1 1226/1 1228/1
f 1248/1 1250/1 1249/1 1247/1
f 1247/1 1249/1 1295/1
f 1250/1 1248/1 1296/1
f 1250/1 1252/1 1251/1 1249/1
f 1249/1 1251/1 1295/1
f 1252/1 1250/1 1296/1
f 1252/1 1254/1 1253/1 1251/1
f 1251/1 1253/1 1295/1
f 1254/1 1252/1 1296/1
f 1254/1 1256/1 1255/1 1253/1
f 1253/1 1255/1 1295/1
f 1256/1 1254/1 1296/1
f 1256/1 1258/1 1257/1 1255/1
f 1255/1 1257/1 1295/1
f 1258/1 1256/1 1296/1
f 1258/1 1260/1 1259/1 1257/1
f 1257/1 1259/1 1295/1
f 1260/1 1258/1 1296/1
f 1260/1 1262/1 1261/1 1259/1
f 1259/1 1261/1 1295/1
f 1262/1 1260/1 1296/1
f 1262/1 1264/1 1263/1 1261/1
f 1261/1 1263/1 1295/1
f 1264/1 1262/1 1296/1
f 1264/1 1266/1 1265/1 1263/1
f 1263/1 1265/1 1295/1
f 1266/1 1264/1 1296/1
f 1266/1 1268/1 1267/1 1265/1
f 1265/1 1267/1 1295/1
f 1268/1 1266/1 1296/1
f 1268/1 1270/1 1269/1 1267/1
f 1267/1 1269/1 1295/1
f 1270/1 1268/1 1296/1
f 1270/1 1272/1 1271/1 1269/1
f 1269/1 1271/1 1295/1
f 1272/1 1270/1 1296/1
f 1272/1 1274/1 1273/1 1271/1
f 1271/1 1273/1 1295/1
f 1274/1 1272/1 1296/1
f 1274/1 1276/1 1275/1 1273/1
f 1273/1 1275/1 1295/1
f 1276/1 1274/1 1296/1
f 1276/1 1278/1 1277/1 1275/1
f 1275/1 1277/1 1295/1
f 1278/1 1276/1 1296/1
f 1278/1 1280/1 1279/1 1277/1
f 1277/1 1279/1 1295/1
f 1280/1 1278/1 1296/1
f 1280/1 1282/1 1281/1 1279/1
f 1279/1 1281/1 1295/1
f 1282/1 1280/1 1296/1
f 1282/1 1284/1 1283/1 1281/1
f 1281/1 1283/1 1295/1
f 1284/1 1282/1 1296/1
f 1284/1 1286/1 1285/1 1283/1
f 1283/1 1285/1 1295/1
f 1286/1 1284/1 1296/1
f 1286/1 1288/1 1287/1 1285/1
f 1285/1 1287/1 1295/1
f 1288/1 1286/1 1296/1
f 1288/1 1290/1 1289/1 1287/1
f 1287/1 1289/1 1295/1
f 1290/1 1288/1 1296/1
f 1290/1 1292/1 1291/1 1289/1
f 1289/1 1291/1 1295/1
f 1292/1 1290/1 1296/1
f 1292/1 1294/1 1293/1 1291/1
f 1291/1 1293/1 1295/1
f 1294/1 1292/1 1296/1
f 1294/1 1248/1 1247/1 1293/1
f 1293/1 1247/1 1295/1
f 1248/1 1294/1 1296/1
f 1316/1 1318/1 1317/1 1315/1
f 1315/1 1317/1 1363/1
f 1318/1 1316/1 1364/1
f 1318/1 1320/1 1319/1 1317/1
f 1317/1 1319/1 1363/1
f 1320/1 1318/1 1364/1
f 1320/1 1322/1 1321/1 1319/1
f 1319/1 1321/1 1363/1
f 1322/1 1320/1 1364/1
f 1322/1 1324/1 1323/1 1321/1
f 1321/1 1323/1 1363/1
f 1324/1 1322/1 1364/1
f 1324/1 1326/1 1325/1 1323/1
f 1323/1 1325/1 1363/1
f 1326/1 1324/1 1364/1
f 1326/1 1328/1 1327/1 1325/1
f 1325/1 1327/1 1363/1
f 1328/1 1326/1 1364/1
f 1328/1 1330/1 1329/1 1327/1
f 1327/1 1329/1 1363/1
f 1330/1 1328/1 1364/1
f 1330/1 1332/1 1331/1 1329/1
f 1329/1 1331/1 1363/1
f 1332/1 1330/1 1364/1
f 1332/1 1334/1 1333/1 1331/1
f 1331/1 1333/1 1363/1
f 1334/1 1332/1 1364/1
f 1334/1 1336/1 1335/1 1333/1
f 1333/1 1335/1 1363/1
f 1336/1 1334/1 1364/1
f 1336/1 1338/1 1337/1 1335/1
f 1335/1 1337/1 1363/1
f 1338/1 1336/1 1364/1
f 1338/1 1340/1 1339/1 1337/1
f 1337/1 1339/1 1363/1
f 1340/1 1338/1 1364/1
f 1340/1 1342/1 1341/1 1339/1
f 1339/1 1341/1 1363/1
f 1342/1 1340/1 1364/1
f 1342/1 1344/1 1343/1 1341/1
f 1341/1 1343/1 1363/1
f 1344/1 1342/1 1364/1
f 1344/1 1346/1 1345/1 1343/1
f 1343/1 1345/1 1363/1
f 1346/1 1344/1 1364/1
f 1346/1 1348/1 1347/1 1345/1
f 1345/1 1347/1 1363/1
f 1348/1 1346/1 1364/1
f 1348/1 1350/1 1349/1 1347/1
f 1347/1 1349/1 1363/1
f 1350/1 1348/1 1364/1
f 1350/1 1352/1 1351/1 1349/1
f 1349/1 1351/1 1363/1
f 1352/1 1350/1 1364/1
f 1352/1 1354/1 1353/1 1351/1
f 1351/1 1353/1 1363/1
f 1354/1 1352/1 1364/1
f 1354/1 1356/1 1355/1 1353/1
f 1353/1 1355/1 1363/1
f 1356/1 1354/1 1364/1
f 1356/1 1358/1 1357/1 1355/1
f 1355/1 1357/1 1363/1
f 1358/1 1356/1 1364/1
f 1358/1 1360/1 1359/1 1357/1
f 1357/1 1359/1 1363/1
f 1360/1 1358/1 1364/1
f 1360/1 1362/1 1361/1 1359/1
f 1359/1 1361/1 1363/1
f 1362/1 1360/1 1364/1
f 1362/1 1316/1 1315/1 1361/1
f 1361/1 1315/1 1363/1
f 1316/1 1362/1 1364/1
f 1384/1 1386/1 1385/1 1383/1
f 1383/1 1385/1 1431/1
f 1386/1 1384/1 1432/1
f 1386/1 1388/1 1387/1 1385/1
f 1385/1 1387/1 1431/1
f 1388/1 1386/1 1432/1
f 1388/1 1390/1 1389/1 1387/1
f 1387/1 1389/1 1431/1
f 1390/1 1388/1 1432/1
f 1390/1 1392/1 1391/1 1389/1
f 1389/1 1391/1 1431/1
f 1392/1 1390/1 1432/1
f 1392/1 1394/1 1393/1 1391/1
f 1391/1 1393/1 1431/1
f 1394/1 1392/1 1432/1
f 1394/1 1396/1 1395/1 1393/1
f 1393/1 1395/1 1431/1
f 1396/1 1394/1 1432/1
f 1396/1 1398/1 1397/1 1395/1
f 1395/1 1397/1 1431/1
f 1398/1 1396/1 1432/1
f 1398/1 1400/1 1399/1 1397/1
f 1397/1 1399/1 1431/1
f 1400/1 1398/1 1432/1
f 1400/1 1402/1 1401/1 1399/1
f 1399/1 1401/1 1431/1
f 1402/1 1400/1 1432/1
f 1402/1 1404/1 1403/1 1401/1
f 1401/1 1403/1 1431/1
f 1404/1 1402/1 1432/1
f 1404/1 1406/1 1405/1 1403/1
f 1403/1 1405/1 1431/1
f 1406/1 1404/1 1432/1
f 1406/1 1408/1 1407/1 1405/1
f 1405/1 1407/1 1431/1
f 1408/1 1406/1 1432/1
f 1408/1 1410/1 1409/1 1407/1
f 1407/1 1409/1 1431/1
f 1410/1 1408/1 1432/1
f 1410/1 1412/1 1411/1 1409/1
f 1409/1 1411/1 1431/1
f 1412/1 1410/1 1432/1
f 1412/1 1414/1 1413/1 1411/1
f 1411/1 1413/1 1431/1
f 1414/1 1412/1 1432/1
f 1414/1 1416/1 1415/1 1413/1
f 1413/1 1415/1 1431/1
f 1416/1 1414/1 1432/1
f 1416/1 1418/1 1417/1 1415/1
f 1415/1 1417/1 1431/1
f 1418/1 1416/1 1432/1
f 1418/1 1420/1 1419/1 1417/1
f 1417/1 1419/1 1431/1
f 1420/1 1418/1 1432/1
f 1420/1 1422/1 1421/1 1419/1
f 1419/1 1421/1 1431/1
f 1422/1 1420/1 1432/1
f 1422/1 1424/1 1423/1 1421/1
f 1421/1 1423/1 1431/1
f 1424/1 1422/1 1432/1
f 1424/1 1426/1 1425/1 1423/1
f 1423/1 1425/1 1431/1
f 1426/1 1424/1 1432/1
f 1426/1 1428/1 1427/1 1425/1
f 1425/1 1427/1 1431/1
f 1428/1 1426/1 1432/1
f 1428/1 1430/1 1429/1 1427/1
f 1427/1 1429/1 1431/1
f 1430/1 1428/1 1432/1
f 1430/1 1384/1 1383/1 1429/1
f 1429/1 1383/1 1431/1
f 1384/1 1430/1 1432/1
f 1452/1 1454/1 1453/1 1451/1
f 1451/1 1453/1 1499/1
f 1454/1 1452/1 1500/1
f 1454/1 1456/1 1455/1 1453/1
f 1453/1 1455/1 1499/1
f 1456/1 1454/1 1500/1
f 1456/1 1458/1 1457/1 1455/1
f 1455/1 1457/1 1499/1
f 1458/1 1456/1 1500/1
f 1458/1 1460/1 1459/1 1457/1
f 1457/1 1459/1 1499/1
f 1460/1 1458/1 1500/1
f 1460/1 1462/1 1461/1 1459/1
f 1459/1 1461/1 1499/1
f 1462/1 1460/1 1500/1
f 1462/1 1464/1 1463/1 1461/1
f 1461/1 1463/1 1499/1
f 1464/1 1462/1 1500/1
f 1464/1 1466/1 1465/1 1463/1
f 1463/1 1465/1 1499/1
f 1466/1 1464/1 1500/1
f 1466/1 1468/1 1467/1 1465/1
f 1465/1 1467/1 1499/1
f 1468/1 1466/1 1500/1
f 1468/1 1470/1 1469/1 1467/1
f 1467/1 1469/1 1499/1
f 1470/1 1468/1 1500/1
f 1470/1 1472/1 1471/1 1469/1
f 1469/1 1471/1 1499/1
f 1472/1 1470/1 1500/1
f 1472/1 1474/1 1473/1 1471/1
f 1471/1 1473/1 1499/1
f 1474/1 1472/1 1500/1
f 1474/1 1476/1 1475/1 1473/1
f 1473/1 1475/1 1499/1
f 1476/1 1474/1 1500/1
f 1476/1 1478/1 1477/1 1475/1
f 1475/1 1477/1 1499/1
f 1478/1 1476/1 1500/1
f 1478/1 1480/1 1479/1 1477/1
f 1477/1 1479/1 1499/1
f 1480/1 1478/1 1500/1
f 1480/1 1482/1 1481/1 1479/1
f 1479/1 1481/1 1499/1
f 1482/1 1480/1 1500/1
f 1482/1 1484/1 1483/1 1481/1
f 1481/1 1483/1 1499/1
f 1484/1 1482/1 1500/1
f 1484/1 1486/1 1485/1 1483/1
f 1483/1 1485/1 1499/1
f 1486/1 1484/1 1500/1
f 1486/1 1488/1 1487/1 1485/1
f 1485/1 1487/1 1499/1
f 1488/1 1486/1 1500/1
f 1488/1 1490/1 1489/1 1487/1
f 1487/1 1489/1 1499/1
f 1490/1 1488/1 1500/1
f 1490/1 1492/1 1491/1 1489/1
f 1489/1 1491/1 1499/1
f 1492/1 1490/1 1500/1
f 1492/1 1494/1 1493/1 1491/1
f 1491/1 1493/1 1499/1
f 1494/1 1492/1 1500/1
f 1494/1 1496/1 1495/1 1493/1
f 1493/1 1495/1 1499/1
f 1496/1 1494/1 1500/1
f 1496/1 1498/1 1497/1 1495/1
f 1495/1 1497/1 1499/1
f 1498/1 1496/1 1500/1
f 1498/1 1452/1 1451/1 1497/1
f 1497/1 1451/1 1499/1
f 1452/1 1498/1 1500/1
f 1520/1 1522/1 1521/1 1519/1
f 1519/1 1521/1 1567/1
f 1522/1 1520/1 1568/1
f 1522/1 1524/1 1523/1 1521/1
f 1521/1 1523/1 1567/1
f 1524/1 1522/1 1568/1
f 1524/1 1526/1 1525/1 1523/1
f 1523/1 1525/1 1567/1
f 1526/1 1524/1 1568/1
f 1526/1 1528/1 1527/1 1525/1
f 1525/1 1527/1 1567/1
f 1528/1 1526/1 1568/1
f 1528/1 1530/1 1529/1 1527/1
f 1527/1 1529/1 1567/1
f 1530/1 1528/1 1568/1
f 1530/1 1532/1 1531/1 1529/1
f 1529/1 1531/1 1567/1
f 1532/1 1530/1 1568/1
f 1532/1 1534/1 1533/1 1531/1
f 1531/1 1533/1 1567/1
f 1534/1 1532/1 1568/1
f 1534/1 1536/1 1535/1 1533/1
f 1533/1 1535/1 1567/1
f 1536/1 1534/1 1568/1
f 1536/1 1538/1 1537/1 1535/1
f 1535/1 1537/1 1567/1
f 1538/1 1536/1 1568/1
f 1538/1 1540/1 1539/1 1537/1
f 1537/1 1539/1 1567/1
f 1540/1 1538/1 1568/1
f 1540/1 1542/1 1541/1 1539/1
f 1539/1 1541/1 1567/1
f 1542/1 1540/1 1568/1
f 1542/1 1544/1 1543/1 1541/1
f 1541/1 1543/1 1567/1
f 1544/1 1542/1 1568/1
f 1544/1 1546/1 1545/1 1543/1
f 1543/1 1545/1 1567/1
f 1546/1 1544/1 1568/1
f 1546/1 1548/1 1547/1 1545/1
f 1545/1 1547/1 1567/1
f 1548/1 1546/1 1568/1
f 1548/1 1550/1 1549/1 1547/1
f 1547/1 1549/1 1567/1
f 1550/1 1548/1 1568/1
f 1550/1 1552/1 1551/1 1549/1
f 1549/1 1551/1 1567/1
f 1552/1 1550/1 1568/1
f 1552/1 1554/1 1553/1 1551/1
f 1551/1 1553/1 1567/1
f 1554/1 1552/1 1568/1
f 1554/1 1556/1 1555/1 1553/1
f 1553/1 1555/1 1567/1
f 1556/1 1554/1 1568/1
f 1556/1 1558/1 1557/1 1555/1
f 1555/1 1557/1 1567/1
f 1558/1 1556/1 1568/1
f 1558/1 1560/1 1559/1 1557/1
f 1557/1 1559/1 1567/1
f 1560/1 1558/1 1568/1
f 1560/1 1562/1 1561/1 1559/1
f 1559/1 1561/1 1567/1
f 1562/1 1560/1 1568/1
f 1562/1 1564/1 1563/1 1561/1
f 1561/1 1563/1 1567/1
f 1564/1 1562/1 1568/1
f 1564/1 1566/1 1565/1 1563/1
f 1563/1 1565/1 1567/1
f 1566/1 1564/1 1568/1
f 1566/1 1520/1 1519/1 1565/1
f 1565/1 1519/1 1567/1
f 1520/1 1566/1 1568/1
usemtl faded_mint
f 92/9 94/9 93/9 91/9
f 91/9 93/9 179/9
f 94/9 92/9 180/9
f 94/9 96/9 95/9 93/9
f 93/9 95/9 179/9
f 96/9 94/9 180/9
f 96/9 98/9 97/9 95/9
f 95/9 97/9 179/9
f 98/9 96/9 180/9
f 98/9 100/9 99/9 97/9
f 97/9 99/9 179/9
f 100/9 98/9 180/9
f 100/9 102/9 101/9 99/9
f 99/9 101/9 179/9
f 102/9 100/9 180/9
f 102/9 104/9 103/9 101/9
f 101/9 103/9 179/9
f 104/9 102/9 180/9
f 104/9 106/9 105/9 103/9
f 103/9 105/9 179/9
f 106/9 104/9 180/9
f 106/9 108/9 107/9 105/9
f 105/9 107/9 179/9
f 108/9 106/9 180/9
f 108/9 110/9 109/9 107/9
f 107/9 109/9 179/9
f 110/9 108/9 180/9
f 110/9 112/9 111/9 109/9
f 109/9 111/9 179/9
f 112/9 110/9 180/9
f 112/9 114/9 113/9 111/9
f 111/9 113/9 179/9
f 114/9 112/9 180/9
f 114/9 116/9 115/9 113/9
f 113/9 115/9 179/9
f 116/9 114/9 180/9
f 116/9 118/9 117/9 115/9
f 115/9 117/9 179/9
f 118/9 116/9 180/9
f 118/9 120/9 119/9 117/9
f 117/9 119/9 179/9
f 120/9 118/9 180/9
f 120/9 122/9 121/9 119/9
f 119/9 121/9 179/9
f 122/9 120/9 180/9
f 122/9 124/9 123/9 121/9
f 121/9 123/9 179/9
f 124/9 122/9 180/9
f 124/9 126/9 125/9 123/9
f 123/9 125/9 179/9
f 126/9 124/9 180/9
f 126/9 128/9 127/9 125/9
f 125/9 127/9 179/9
f 128/9 126/9 180/9
f 128/9 130/9 129/9 127/9
f 127/9 129/9 179/9
f 130/9 128/9 180/9
f 130/9 132/9 131/9 129/9
f 129/9 131/9 179/9
f 132/9 130/9 180/9
f 132/9 134/9 133/9 131/9
f 131/9 133/9 179/9
f 134/9 132/9 180/9
f 134/9 136/9 135/9 133/9
f 133/9 135/9 179/9
f 136/9 134/9 180/9
f 136/9 138/9 137/9 135/9
f 135/9 137/9 179/9
f 138/9 136/9 180/9
f 138/9 140/9 139/9 137/9
f 137/9 139/9 179/9
f 140/9 138/9 180/9
f 140/9 142/9 141/9 139/9
f 139/9 141/9 179/9
f 142/9 140/9 180/9
f 142/9 144/9 143/9 141/9
f 141/9 143/9 179/9
f 144/9 142/9 180/9
f 144/9 146/9 145/9 143/9
f 143/9 145/9 179/9
f 146/9 144/9 180/9
f 146/9 148/9 147/9 145/9
f 145/9 147/9 179/9
f 148/9 146/9 180/9
f 148/9 150/9 149/9 147/9
f 147/9 149/9 179/9
f 150/9 148/9 180/9
f 150/9 152/9 151/9 149/9
f 149/9 151/9 179/9
f 152/9 150/9 180/9
f 152/9 154/9 153/9 151/9
f 151/9 153/9 179/9
f 154/9 152/9 180/9
f 154/9 156/9 155/9 153/9
f 153/9 155/9 179/9
f 156/9 154/9 180/9
f 156/9 158/9 157/9 155/9
f 155/9 157/9 179/9
f 158/9 156/9 180/9
f 158/9 160/9 159/9 157/9
f 157/9 159/9 179/9
f 160/9 158/9 180/9
f 160/9 162/9 161/9 159/9
f 159/9 161/9 179/9
f 162/9 160/9 180/9
f 162/9 164/9 163/9 161/9
f 161/9 163/9 179/9
f 164/9 162/9 180/9
f 164/9 166/9 165/9 163/9
f 163/9 165/9 179/9
f 166/9 164/9 180/9
f 166/9 168/9 167/9 165/9
f 165/9 167/9 179/9
f 168/9 166/9 180/9
f 168/9 170/9 169/9 167/9
f 167/9 169/9 179/9
f 170/9 168/9 180/9
f 170/9 172/9 171/9 169/9
f 169/9 171/9 179/9
f 172/9 170/9 180/9
f 172/9 174/9 173/9 171/9
f 171/9 173/9 179/9
f 174/9 172/9 180/9
f 174/9 176/9 175/9 173/9
f 173/9 175/9 179/9
f 176/9 174/9 180/9
f 176/9 178/9 177/9 175/9
f 175/9 177/9 179/9
f 178/9 176/9 180/9
f 178/9 92/9 91/9 177/9
f 177/9 91/9 179/9
f 92/9 178/9 180/9
f 1169/9 1170/9 1162/9 1161/9
f 1161/9 1162/9 1177/9
f 1170/9 1169/9 1178/9
f 1170/9 1171/9 1163/9 1162/9
f 1162/9 1163/9 1177/9
f 1171/9 1170/9 1178/9
f 1171/9 1172/9 1164/9 1163/9
f 1163/9 1164/9 1177/9
f 1172/9 1171/9 1178/9
f 1172/9 1173/9 1165/9 1164/9
f 1164/9 1165/9 1177/9
f 1173/9 1172/9 1178/9
f 1173/9 1174/9 1166/9 1165/9
f 1165/9 1166/9 1177/9
f 1174/9 1173/9 1178/9
f 1174/9 1175/9 1167/9 1166/9
f 1166/9 1167/9 1177/9
f 1175/9 1174/9 1178/9
f 1175/9 1176/9 1168/9 1167/9
f 1167/9 1168/9 1177/9
f 1176/9 1175/9 1178/9
f 1176/9 1169/9 1161/9 1168/9
f 1168/9 1161/9 1177/9
f 1169/9 1176/9 1178/9
f 1237/9 1238/9 1230/9 1229/9
f 1229/9 1230/9 1245/9
f 1238/9 1237/9 1246/9
f 1238/9 1239/9 1231/9 1230/9
f 1230/9 1231/9 1245/9
f 1239/9 1238/9 1246/9
f 1239/9 1240/9 1232/9 1231/9
f 1231/9 1232/9 1245/9
f 1240/9 1239/9 1246/9
f 1240/9 1241/9 1233/9 1232/9
f 1232/9 1233/9 1245/9
f 1241/9 1240/9 1246/9
f 1241/9 1242/9 1234/9 1233/9
f 1233/9 1234/9 1245/9
f 1242/9 1241/9 1246/9
f 1242/9 1243/9 1235/9 1234/9
f 1234/9 1235/9 1245/9
f 1243/9 1242/9 1246/9
f 1243/9 1244/9 1236/9 1235/9
f 1235/9 1236/9 1245/9
f 1244/9 1243/9 1246/9
f 1244/9 1237/9 1229/9 1236/9
f 1236/9 1229/9 1245/9
f 1237/9 1244/9 1246/9
f 1305/9 1306/9 1298/9 1297/9
f 1297/9 1298/9 1313/9
f 1306/9 1305/9 1314/9
f 1306/9 1307/9 1299/9 1298/9
f 1298/9 1299/9 1313/9
f 1307/9 1306/9 1314/9
f 1307/9 1308/9 1300/9 1299/9
f 1299/9 1300/9 1313/9
f 1308/9 1307/9 1314/9
f 1308/9 1309/9 1301/9 1300/9
f 1300/9 1301/9 1313/9
f 1309/9 1308/9 1314/9
f 1309/9 1310/9 1302/9 1301/9
f 1301/9 1302/9 1313/9
f 1310/9 1309/9 1314/9
f 1310/9 1311/9 1303/9 1302/9
f 1302/9 1303/9 1313/9
f 1311/9 1310/9 1314/9
f 1311/9 1312/9 1304/9 1303/9
f 1303/9 1304/9 1313/9
f 1312/9 1311/9 1314/9
f 1312/9 1305/9 1297/9 1304/9
f 1304/9 1297/9 1313/9
f 1305/9 1312/9 1314/9
f 1373/9 1374/9 1366/9 1365/9
f 1365/9 1366/9 1381/9
f 1374/9 1373/9 1382/9
f 1374/9 1375/9 1367/9 1366/9
f 1366/9 1367/9 1381/9
f 1375/9 1374/9 1382/9
f 1375/9 1376/9 1368/9 1367/9
f 1367/9 1368/9 1381/9
f 1376/9 1375/9 1382/9
f 1376/9 1377/9 1369/9 1368/9
f 1368/9 1369/9 1381/9
f 1377/9 1376/9 1382/9
f 1377/9 1378/9 1370/9 1369/9
f 1369/9 1370/9 1381/9
f 1378/9 1377/9 1382/9
f 1378/9 1379/9 1371/9 1370/9
f 1370/9 1371/9 1381/9
f 1379/9 1378/9 1382/9
f 1379/9 1380/9 1372/9 1371/9
f 1371/9 1372/9 1381/9
f 1380/9 1379/9 1382/9
f 1380/9 1373/9 1365/9 1372/9
f 1372/9 1365/9 1381/9
f 1373/9 1380/9 1382/9
f 1441/9 1442/9 1434/9 1433/9
f 1433/9 1434/9 1449/9
f 1442/9 1441/9 1450/9
f 1442/9 1443/9 1435/9 1434/9
f 1434/9 1435/9 1449/9
f 1443/9 1442/9 1450/9
f 1443/9 1444/9 1436/9 1435/9
f 1435/9 1436/9 1449/9
f 1444/9 1443/9 1450/9
f 1444/9 1445/9 1437/9 1436/9
f 1436/9 1437/9 1449/9
f 1445/9 1444/9 1450/9
f 1445/9 1446/9 1438/9 1437/9
f 1437/9 1438/9 1449/9
f 1446/9 1445/9 1450/9
f 1446/9 1447/9 1439/9 1438/9
f 1438/9 1439/9 1449/9
f 1447/9 1446/9 1450/9
f 1447/9 1448/9 1440/9 1439/9
f 1439/9 1440/9 1449/9
f 1448/9 1447/9 1450/9
f 1448/9 1441/9 1433/9 1440/9
f 1440/9 1433/9 1449/9
f 1441/9 1448/9 1450/9
f 1509/9 1510/9 1502/9 1501/9
f 1501/9 1502/9 1517/9
f 1510/9 1509/9 1518/9
f 1510/9 1511/9 1503/9 1502/9
f 1502/9 1503/9 1517/9
f 1511/9 1510/9 1518/9
f 1511/9 1512/9 1504/9 1503/9
f 1503/9 1504/9 1517/9
f 1512/9 1511/9 1518/9
f 1512/9 1513/9 1505/9 1504/9
f 1504/9 1505/9 1517/9
f 1513/9 1512/9 1518/9
f 1513/9 1514/9 1506/9 1505/9
f 1505/9 1506/9 1517/9
f 1514/9 1513/9 1518/9
f 1514/9 1515/9 1507/9 1506/9
f 1506/9 1507/9 1517/9
f 1515/9 1514/9 1518/9
f 1515/9 1516/9 1508/9 1507/9
f 1507/9 1508/9 1517/9
f 1516/9 1515/9 1518/9
f 1516/9 1509/9 1501/9 1508/9
f 1508/9 1501/9 1517/9
f 1509/9 1516/9 1518/9
usemtl coral
f 657/2 658/2 664/2 663/2
f 669/2 658/2 657/2
f 670/2 663/2 664/2
f 658/2 659/2 665/2 664/2
f 669/2 659/2 658/2
f 670/2 664/2 665/2
f 659/2 660/2 666/2 665/2
f 669/2 660/2 659/2
f 670/2 665/2 666/2
f 660/2 661/2 667/2 666/2
f 669/2 661/2 660/2
f 670/2 666/2 667/2
f 661/2 662/2 668/2 667/2
f 669/2 662/2 661/2
f 670/2 667/2 668/2
f 662/2 657/2 663/2 668/2
f 669/2 657/2 662/2
f 670/2 668/2 663/2
f 671/2 672/2 678/2 677/2
f 683/2 672/2 671/2
f 684/2 677/2 678/2
f 672/2 673/2 679/2 678/2
f 683/2 673/2 672/2
f 684/2 678/2 679/2
f 673/2 674/2 680/2 679/2
f 683/2 674/2 673/2
f 684/2 679/2 680/2
f 674/2 675/2 681/2 680/2
f 683/2 675/2 674/2
f 684/2 680/2 681/2
f 675/2 676/2 682/2 681/2
f 683/2 676/2 675/2
f 684/2 681/2 682/2
f 676/2 671/2 677/2 682/2
f 683/2 671/2 676/2
f 684/2 682/2 677/2
f 685/2 686/2 692/2 691/2
f 697/2 686/2 685/2
f 698/2 691/2 692/2
f 686/2 687/2 693/2 692/2
f 697/2 687/2 686/2
f 698/2 692/2 693/2
f 687/2 688/2 694/2 693/2
f 697/2 688/2 687/2
f 698/2 693/2 694/2
f 688/2 689/2 695/2 694/2
f 697/2 689/2 688/2
f 698/2 694/2 695/2
f 689/2 690/2 696/2 695/2
f 697/2 690/2 689/2
f 698/2 695/2 696/2
f 690/2 685/2 691/2 696/2
f 697/2 685/2 690/2
f 698/2 696/2 691/2
f 699/2 700/2 706/2 705/2
f 711/2 700/2 699/2
f 712/2 705/2 706/2
f 700/2 701/2 707/2 706/2
f 711/2 701/2 700/2
f 712/2 706/2 707/2
f 701/2 702/2 708/2 707/2
f 711/2 702/2 701/2
f 712/2 707/2 708/2
f 702/2 703/2 709/2 708/2
f 711/2 703/2 702/2
f 712/2 708/2 709/2
f 703/2 704/2 710/2 709/2
f 711/2 704/2 703/2
f 712/2 709/2 710/2
f 704/2 699/2 705/2 710/2
f 711/2 699/2 704/2
f 712/2 710/2 705/2
f 713/2 714/2 720/2 719/2
f 725/2 714/2 713/2
f 726/2 719/2 720/2
f 714/2 715/2 721/2 720/2
f 725/2 715/2 714/2
f 726/2 720/2 721/2
f 715/2 716/2 722/2 721/2
f 725/2 716/2 715/2
f 726/2 721/2 722/2
f 716/2 717/2 723/2 722/2
f 725/2 717/2 716/2
f 726/2 722/2 723/2
f 717/2 718/2 724/2 723/2
f 725/2 718/2 717/2
f 726/2 723/2 724/2
f 718/2 713/2 719/2 724/2
f 725/2 713/2 718/2
f 726/2 724/2 719/2
f 727/2 728/2 734/2 733/2
f 739/2 728/2 727/2
f 740/2 733/2 734/2
f 728/2 729/2 735/2 734/2
f 739/2 729/2 728/2
f 740/2 734/2 735/2
f 729/2 730/2 736/2 735/2
f 739/2 730/2 729/2
f 740/2 735/2 736/2
f 730/2 731/2 737/2 736/2
f 739/2 731/2 730/2
f 740/2 736/2 737/2
f 731/2 732/2 738/2 737/2
f 739/2 732/2 731/2
f 740/2 737/2 738/2
f 732/2 727/2 733/2 738/2
f 739/2 727/2 732/2
f 740/2 738/2 733/2
f 741/2 742/2 748/2 747/2
f 753/2 742/2 741/2
f 754/2 747/2 748/2
f 742/2 743/2 749/2 748/2
f 753/2 743/2 742/2
f 754/2 748/2 749/2
f 743/2 744/2 750/2 749/2
f 753/2 744/2 743/2
f 754/2 749/2 750/2
f 744/2 745/2 751/2 750/2
f 753/2 745/2 744/2
f 754/2 750/2 751/2
f 745/2 746/2 752/2 751/2
f 753/2 746/2 745/2
f 754/2 751/2 752/2
f 746/2 741/2 747/2 752/2
f 753/2 741/2 746/2
f 754/2 752/2 747/2
f 755/2 756/2 762/2 761/2
f 767/2 756/2 755/2
f 768/2 761/2 762/2
f 756/2 757/2 763/2 762/2
f 767/2 757/2 756/2
f 768/2 762/2 763/2
f 757/2 758/2 764/2 763/2
f 767/2 758/2 757/2
f 768/2 763/2 764/2
f 758/2 759/2 765/2 764/2
f 767/2 759/2 758/2
f 768/2 764/2 765/2
f 759/2 760/2 766/2 765/2
f 767/2 760/2 759/2
f 768/2 765/2 766/2
f 760/2 755/2 761/2 766/2
f 767/2 755/2 760/2
f 768/2 766/2 761/2
f 769/2 770/2 776/2 775/2
f 781/2 770/2 769/2
f 782/2 775/2 776/2
f 770/2 771/2 777/2 776/2
f 781/2 771/2 770/2
f 782/2 776/2 777/2
f 771/2 772/2 778/2 777/2
f 781/2 772/2 771/2
f 782/2 777/2 778/2
f 772/2 773/2 779/2 778/2
f 781/2 773/2 772/2
f 782/2 778/2 779/2
f 773/2 774/2 780/2 779/2
f 781/2 774/2 773/2
f 782/2 779/2 780/2
f 774/2 769/2 775/2 780/2
f 781/2 769/2 774/2
f 782/2 780/2 775/2
f 783/2 784/2 790/2 789/2
f 795/2 784/2 783/2
f 796/2 789/2 790/2
f 784/2 785/2 791/2 790/2
f 795/2 785/2 784/2
f 796/2 790/2 791/2
f 785/2 786/2 792/2 791/2
f 795/2 786/2 785/2
f 796/2 791/2 792/2
f 786/2 787/2 793/2 792/2
f 795/2 787/2 786/2
f 796/2 792/2 793/2
f 787/2 788/2 794/2 793/2
f 795/2 788/2 787/2
f 796/2 793/2 794/2
f 788/2 783/2 789/2 794/2
f 795/2 783/2 788/2
f 796/2 794/2 789/2
f 797/2 798/2 804/2 803/2
f 809/2 798/2 797/2
f 810/2 803/2 804/2
f 798/2 799/2 805/2 804/2
f 809/2 799/2 798/2
f 810/2 804/2 805/2
f 799/2 800/2 806/2 805/2
f 809/2 800/2 799/2
f 810/2 805/2 806/2
f 800/2 801/2 807/2 806/2
f 809/2 801/2 800/2
f 810/2 806/2 807/2
f 801/2 802/2 808/2 807/2
f 809/2 802/2 801/2
f 810/2 807/2 808/2
f 802/2 797/2 803/2 808/2
f 809/2 797/2 802/2
f 810/2 808/2 803/2
f 811/2 812/2 818/2 817/2
f 823/2 812/2 811/2
f 824/2 817/2 818/2
f 812/2 813/2 819/2 818/2
f 823/2 813/2 812/2
f 824/2 818/2 819/2
f 813/2 814/2 820/2 819/2
f 823/2 814/2 813/2
f 824/2 819/2 820/2
f 814/2 815/2 821/2 820/2
f 823/2 815/2 814/2
f 824/2 820/2 821/2
f 815/2 816/2 822/2 821/2
f 823/2 816/2 815/2
f 824/2 821/2 822/2
f 816/2 811/2 817/2 822/2
f 823/2 811/2 816/2
f 824/2 822/2 817/2
usemtl gold
f 825/4 826/4 832/4 831/4
f 837/4 826/4 825/4
f 838/4 831/4 832/4
f 826/4 827/4 833/4 832/4
f 837/4 827/4 826/4
f 838/4 832/4 833/4
f 827/4 828/4 834/4 833/4
f 837/4 828/4 827/4
f 838/4 833/4 834/4
f 828/4 829/4 835/4 834/4
f 837/4 829/4 828/4
f 838/4 834/4 835/4
f 829/4 830/4 836/4 835/4
f 837/4 830/4 829/4
f 838/4 835/4 836/4
f 830/4 825/4 831/4 836/4
f 837/4 825/4 830/4
f 838/4 836/4 831/4
f 839/4 840/4 846/4 845/4
f 851/4 840/4 839/4
f 852/4 845/4 846/4
f 840/4 841/4 847/4 846/4
f 851/4 841/4 840/4
f 852/4 846/4 847/4
f 841/4 842/4 848/4 847/4
f 851/4 842/4 841/4
f 852/4 847/4 848/4
f 842/4 843/4 849/4 848/4
f 851/4 843/4 842/4
f 852/4 848/4 849/4
f 843/4 844/4 850/4 849/4
f 851/4 844/4 843/4
f 852/4 849/4 850/4
f 844/4 839/4 845/4 850/4
f 851/4 839/4 844/4
f 852/4 850/4 845/4
f 853/4 854/4 860/4 859/4
f 865/4 854/4 853/4
f 866/4 859/4 860/4
f 854/4 855/4 861/4 860/4
f 865/4 855/4 854/4
f 866/4 860/4 861/4
f 855/4 856/4 862/4 861/4
f 865/4 856/4 855/4
f 866/4 861/4 862/4
f 856/4 857/4 863/4 862/4
f 865/4 857/4 856/4
f 866/4 862/4 863/4
f 857/4 858/4 864/4 863/4
f 865/4 858/4 857/4
f 866/4 863/4 864/4
f 858/4 853/4 859/4 864/4
f 865/4 853/4 858/4
f 866/4 864/4 859/4
f 867/4 868/4 874/4 873/4
f 879/4 868/4 867/4
f 880/4 873/4 874/4
f 868/4 869/4 875/4 874/4
f 879/4 869/4 868/4
f 880/4 874/4 875/4
f 869/4 870/4 876/4 875/4
f 879/4 870/4 869/4
f 880/4 875/4 876/4
f 870/4 871/4 877/4 876/4
f 879/4 871/4 870/4
f 880/4 876/4 877/4
f 871/4 872/4 878/4 877/4
f 879/4 872/4 871/4
f 880/4 877/4 878/4
f 872/4 867/4 873/4 878/4
f 879/4 867/4 872/4
f 880/4 878/4 873/4
f 881/4 882/4 888/4 887/4
f 893/4 882/4 881/4
f 894/4 887/4 888/4
f 882/4 883/4 889/4 888/4
f 893/4 883/4 882/4
f 894/4 888/4 889/4
f 883/4 884/4 890/4 889/4
f 893/4 884/4 883/4
f 894/4 889/4 890/4
f 884/4 885/4 891/4 890/4
f 893/4 885/4 884/4
f 894/4 890/4 891/4
f 885/4 886/4 892/4 891/4
f 893/4 886/4 885/4
f 894/4 891/4 892/4
f 886/4 881/4 887/4 892/4
f 893/4 881/4 886/4
f 894/4 892/4 887/4
f 895/4 896/4 902/4 901/4
f 907/4 896/4 895/4
f 908/4 901/4 902/4
f 896/4 897/4 903/4 902/4
f 907/4 897/4 896/4
f 908/4 902/4 903/4
f 897/4 898/4 904/4 903/4
f 907/4 898/4 897/4
f 908/4 903/4 904/4
f 898/4 899/4 905/4 904/4
f 907/4 899/4 898/4
f 908/4 904/4 905/4
f 899/4 900/4 906/4 905/4
f 907/4 900/4 899/4
f 908/4 905/4 906/4
f 900/4 895/4 901/4 906/4
f 907/4 895/4 900/4
f 908/4 906/4 901/4
f 909/4 910/4 916/4 915/4
f 921/4 910/4 909/4
f 922/4 915/4 916/4
f 910/4 911/4 917/4 916/4
f 921/4 911/4 910/4
f 922/4 916/4 917/4
f 911/4 912/4 918/4 917/4
f 921/4 912/4 911/4
f 922/4 917/4 918/4
f 912/4 913/4 919/4 918/4
f 921/4 913/4 912/4
f 922/4 918/4 919/4
f 913/4 914/4 920/4 919/4
f 921/4 914/4 913/4
f 922/4 919/4 920/4
f 914/4 909/4 915/4 920/4
f 921/4 909/4 914/4
f 922/4 920/4 915/4
f 923/4 924/4 930/4 929/4
f 935/4 924/4 923/4
f 936/4 929/4 930/4
f 924/4 925/4 931/4 930/4
f 935/4 925/4 924/4
f 936/4 930/4 931/4
f 925/4 926/4 932/4 931/4
f 935/4 926/4 925/4
f 936/4 931/4 932/4
f 926/4 927/4 933/4 932/4
f 935/4 927/4 926/4
f 936/4 932/4 933/4
f 927/4 928/4 934/4 933/4
f 935/4 928/4 927/4
f 936/4 933/4 934/4
f 928/4 923/4 929/4 934/4
f 935/4 923/4 928/4
f 936/4 934/4 929/4
f 937/4 938/4 944/4 943/4
f 949/4 938/4 937/4
f 950/4 943/4 944/4
f 938/4 939/4 945/4 944/4
f 949/4 939/4 938/4
f 950/4 944/4 945/4
f 939/4 940/4 946/4 945/4
f 949/4 940/4 939/4
f 950/4 945/4 946/4
f 940/4 941/4 947/4 946/4
f 949/4 941/4 940/4
f 950/4 946/4 947/4
f 941/4 942/4 948/4 947/4
f 949/4 942/4 941/4
f 950/4 947/4 948/4
f 942/4 937/4 943/4 948/4
f 949/4 937/4 942/4
f 950/4 948/4 943/4
f 951/4 952/4 958/4 957/4
f 963/4 952/4 951/4
f 964/4 957/4 958/4
f 952/4 953/4 959/4 958/4
f 963/4 953/4 952/4
f 964/4 958/4 959/4
f 953/4 954/4 960/4 959/4
f 963/4 954/4 953/4
f 964/4 959/4 960/4
f 954/4 955/4 961/4 960/4
f 963/4 955/4 954/4
f 964/4 960/4 961/4
f 955/4 956/4 962/4 961/4
f 963/4 956/4 955/4
f 964/4 961/4 962/4
f 956/4 951/4 957/4 962/4
f 963/4 951/4 956/4
f 964/4 962/4 957/4
f 965/4 966/4 972/4 971/4
f 977/4 966/4 965/4
f 978/4 971/4 972/4
f 966/4 967/4 973/4 972/4
f 977/4 967/4 966/4
f 978/4 972/4 973/4
f 967/4 968/4 974/4 973/4
f 977/4 968/4 967/4
f 978/4 973/4 974/4
f 968/4 969/4 975/4 974/4
f 977/4 969/4 968/4
f 978/4 974/4 975/4
f 969/4 970/4 976/4 975/4
f 977/4 970/4 969/4
f 978/4 975/4 976/4
f 970/4 965/4 971/4 976/4
f 977/4 965/4 970/4
f 978/4 976/4 971/4
f 979/4 980/4 986/4 985/4
f 991/4 980/4 979/4
f 992/4 985/4 986/4
f 980/4 981/4 987/4 986/4
f 991/4 981/4 980/4
f 992/4 986/4 987/4
f 981/4 982/4 988/4 987/4
f 991/4 982/4 981/4
f 992/4 987/4 988/4
f 982/4 983/4 989/4 988/4
f 991/4 983/4 982/4
f 992/4 988/4 989/4
f 983/4 984/4 990/4 989/4
f 991/4 984/4 983/4
f 992/4 989/4 990/4
f 984/4 979/4 985/4 990/4
f 991/4 979/4 984/4
f 992/4 990/4 985/4
usemtl mint
f 993/3 994/3 1000/3 999/3
f 1005/3 994/3 993/3
f 1006/3 999/3 1000/3
f 994/3 995/3 1001/3 1000/3
f 1005/3 995/3 994/3
f 1006/3 1000/3 1001/3
f 995/3 996/3 1002/3 1001/3
f 1005/3 996/3 995/3
f 1006/3 1001/3 1002/3
f 996/3 997/3 1003/3 1002/3
f 1005/3 997/3 996/3
f 1006/3 1002/3 1003/3
f 997/3 998/3 1004/3 1003/3
f 1005/3 998/3 997/3
f 1006/3 1003/3 1004/3
f 998/3 993/3 999/3 1004/3
f 1005/3 993/3 998/3
f 1006/3 1004/3 999/3
f 1007/3 1008/3 1014/3 1013/3
f 1019/3 1008/3 1007/3
f 1020/3 1013/3 1014/3
f 1008/3 1009/3 1015/3 1014/3
f 1019/3 1009/3 1008/3
f 1020/3 1014/3 1015/3
f 1009/3 1010/3 1016/3 1015/3
f 1019/3 1010/3 1009/3
f 1020/3 1015/3 1016/3
f 1010/3 1011/3 1017/3 1016/3
f 1019/3 1011/3 1010/3
f 1020/3 1016/3 1017/3
f 1011/3 1012/3 1018/3 1017/3
f 1019/3 1012/3 1011/3
f 1020/3 1017/3 1018/3
f 1012/3 1007/3 1013/3 1018/3
f 1019/3 1007/3 1012/3
f 1020/3 1018/3 1013/3
f 1021/3 1022/3 1028/3 1027/3
f 1033/3 1022/3 1021/3
f 1034/3 1027/3 1028/3
f 1022/3 1023/3 1029/3 1028/3
f 1033/3 1023/3 1022/3
f 1034/3 1028/3 1029/3
f 1023/3 1024/3 1030/3 1029/3
f 1033/3 1024/3 1023/3
f 1034/3 1029/3 1030/3
f 1024/3 1025/3 1031/3 1030/3
f 1033/3 1025/3 1024/3
f 1034/3 1030/3 1031/3
f 1025/3 1026/3 1032/3 1031/3
f 1033/3 1026/3 1025/3
f 1034/3 1031/3 1032/3
f 1026/3 1021/3 1027/3 1032/3
f 1033/3 1021/3 1026/3
f 1034/3 1032/3 1027/3
f 1035/3 1036/3 1042/3 1041/3
f 1047/3 1036/3 1035/3
f 1048/3 1041/3 1042/3
f 1036/3 1037/3 1043/3 1042/3
f 1047/3 1037/3 1036/3
f 1048/3 1042/3 1043/3
f 1037/3 1038/3 1044/3 1043/3
f 1047/3 1038/3 1037/3
f 1048/3 1043/3 1044/3
f 1038/3 1039/3 1045/3 1044/3
f 1047/3 1039/3 1038/3
f 1048/3 1044/3 1045/3
f 1039/3 1040/3 1046/3 1045/3
f 1047/3 1040/3 1039/3
f 1048/3 1045/3 1046/3
f 1040/3 1035/3 1041/3 1046/3
f 1047/3 1035/3 1040/3
f 1048/3 1046/3 1041/3
f 1049/3 1050/3 1056/3 1055/3
f 1061/3 1050/3 1049/3
f 1062/3 1055/3 1056/3
f 1050/3 1051/3 1057/3 1056/3
f 1061/3 1051/3 1050/3
f 1062/3 1056/3 1057/3
f 1051/3 1052/3 1058/3 1057/3
f 1061/3 1052/3 1051/3
f 1062/3 1057/3 1058/3
f 1052/3 1053/3 1059/3 1058/3
f 1061/3 1053/3 1052/3
f 1062/3 1058/3 1059/3
f 1053/3 1054/3 1060/3 1059/3
f 1061/3 1054/3 1053/3
f 1062/3 1059/3 1060/3
f 1054/3 1049/3 1055/3 1060/3
f 1061/3 1049/3 1054/3
f 1062/3 1060/3 1055/3
f 1063/3 1064/3 1070/3 1069/3
f 1075/3 1064/3 1063/3
f 1076/3 1069/3 1070/3
f 1064/3 1065/3 1071/3 1070/3
f 1075/3 1065/3 1064/3
f 1076/3 1070/3 1071/3
f 1065/3 1066/3 1072/3 1071/3
f 1075/3 1066/3 1065/3
f 1076/3 1071/3 1072/3
f 1066/3 1067/3 1073/3 1072/3
f 1075/3 1067/3 1066/3
f 1076/3 1072/3 1073/3
f 1067/3 1068/3 1074/3 1073/3
f 1075/3 1068/3 1067/3
f 1076/3 1073/3 1074/3
f 1068/3 1063/3 1069/3 1074/3
f 1075/3 1063/3 1068/3
f 1076/3 1074/3 1069/3
f 1077/3 1078/3 1084/3 1083/3
f 1089/3 1078/3 1077/3
f 1090/3 1083/3 1084/3
f 1078/3 1079/3 1085/3 1084/3
f 1089/3 1079/3 1078/3
f 1090/3 1084/3 1085/3
f 1079/3 1080/3 1086/3 1085/3
f 1089/3 1080/3 1079/3
f 1090/3 1085/3 1086/3
f 1080/3 1081/3 1087/3 1086/3
f 1089/3 1081/3 1080/3
f 1090/3 1086/3 1087/3
f 1081/3 1082/3 1088/3 1087/3
f 1089/3 1082/3 1081/3
f 1090/3 1087/3 1088/3
f 1082/3 1077/3 1083/3 1088/3
f 1089/3 1077/3 1082/3
f 1090/3 1088/3 1083/3
f 1091/3 1092/3 1098/3 1097/3
f 1103/3 1092/3 1091/3
f 1104/3 1097/3 1098/3
f 1092/3 1093/3 1099/3 1098/3
f 1103/3 1093/3 1092/3
f 1104/3 1098/3 1099/3
f 1093/3 1094/3 1100/3 1099/3
f 1103/3 1094/3 1093/3
f 1104/3 1099/3 1100/3
f 1094/3 1095/3 1101/3 1100/3
f 1103/3 1095/3 1094/3
f 1104/3 1100/3 1101/3
f 1095/3 1096/3 1102/3 1101/3
f 1103/3 1096/3 1095/3
f 1104/3 1101/3 1102/3
f 1096/3 1091/3 1097/3 1102/3
f 1103/3 1091/3 1096/3
f 1104/3 1102/3 1097/3
f 1105/3 1106/3 1112/3 1111/3
f 1117/3 1106/3 1105/3
f 1118/3 1111/3 1112/3
f 1106/3 1107/3 1113/3 1112/3
f 1117/3 1107/3 1106/3
f 1118/3 1112/3 1113/3
f 1107/3 1108/3 1114/3 1113/3
f 1117/3 1108/3 1107/3
f 1118/3 1113/3 1114/3
f 1108/3 1109/3 1115/3 1114/3
f 1117/3 1109/3 1108/3
f 1118/3 1114/3 1115/3
f 1109/3 1110/3 1116/3 1115/3
f 1117/3 1110/3 1109/3
f 1118/3 1115/3 1116/3
f 1110/3 1105/3 1111/3 1116/3
f 1117/3 1105/3 1110/3
f 1118/3 1116/3 1111/3
f 1119/3 1120/3 1126/3 1125/3
f 1131/3 1120/3 1119/3
f 1132/3 1125/3 1126/3
f 1120/3 1121/3 1127/3 1126/3
f 1131/3 1121/3 1120/3
f 1132/3 1126/3 1127/3
f 1121/3 1122/3 1128/3 1127/3
f 1131/3 1122/3 1121/3
f 1132/3 1127/3 1128/3
f 1122/3 1123/3 1129/3 1128/3
f 1131/3 1123/3 1122/3
f 1132/3 1128/3 1129/3
f 1123/3 1124/3 1130/3 1129/3
f 1131/3 1124/3 1123/3
f 1132/3 1129/3 1130/3
f 1124/3 1119/3 1125/3 1130/3
f 1131/3 1119/3 1124/3
f 1132/3 1130/3 1125/3
f 1133/3 1134/3 1140/3 1139/3
f 1145/3 1134/3 1133/3
f 1146/3 1139/3 1140/3
f 1134/3 1135/3 1141/3 1140/3
f 1145/3 1135/3 1134/3
f 1146/3 1140/3 1141/3
f 1135/3 1136/3 1142/3 1141/3
f 1145/3 1136/3 1135/3
f 1146/3 1141/3 1142/3
f 1136/3 1137/3 1143/3 1142/3
f 1145/3 1137/3 1136/3
f 1146/3 1142/3 1143/3
f 1137/3 1138/3 1144/3 1143/3
f 1145/3 1138/3 1137/3
f 1146/3 1143/3 1144/3
f 1138/3 1133/3 1139/3 1144/3
f 1145/3 1133/3 1138/3
f 1146/3 1144/3 1139/3
f 1147/3 1148/3 1154/3 1153/3
f 1159/3 1148/3 1147/3
f 1160/3 1153/3 1154/3
f 1148/3 1149/3 1155/3 1154/3
f 1159/3 1149/3 1148/3
f 1160/3 1154/3 1155/3
f 1149/3 1150/3 1156/3 1155/3
f 1159/3 1150/3 1149/3
f 1160/3 1155/3 1156/3
f 1150/3 1151/3 1157/3 1156/3
f 1159/3 1151/3 1150/3
f 1160/3 1156/3 1157/3
f 1151/3 1152/3 1158/3 1157/3
f 1159/3 1152/3 1151/3
f 1160/3 1157/3 1158/3
f 1152/3 1147/3 1153/3 1158/3
f 1159/3 1147/3 1152/3
f 1160/3 1158/3 1153/3
