# ParkParkDropTower — ParkPark original fairground mesh
mtllib ParkParkFairground.mtl
o ParkParkDropTower
v 6.00000 0.05000 0.00000
v 6.00000 0.60000 0.00000
v 5.92613 0.05000 0.93861
v 5.92613 0.60000 0.93861
v 5.70634 0.05000 1.85410
v 5.70634 0.60000 1.85410
v 5.34604 0.05000 2.72394
v 5.34604 0.60000 2.72394
v 4.85410 0.05000 3.52671
v 4.85410 0.60000 3.52671
v 4.24264 0.05000 4.24264
v 4.24264 0.60000 4.24264
v 3.52671 0.05000 4.85410
v 3.52671 0.60000 4.85410
v 2.72394 0.05000 5.34604
v 2.72394 0.60000 5.34604
v 1.85410 0.05000 5.70634
v 1.85410 0.60000 5.70634
v 0.93861 0.05000 5.92613
v 0.93861 0.60000 5.92613
v 0.00000 0.05000 6.00000
v 0.00000 0.60000 6.00000
v -0.93861 0.05000 5.92613
v -0.93861 0.60000 5.92613
v -1.85410 0.05000 5.70634
v -1.85410 0.60000 5.70634
v -2.72394 0.05000 5.34604
v -2.72394 0.60000 5.34604
v -3.52671 0.05000 4.85410
v -3.52671 0.60000 4.85410
v -4.24264 0.05000 4.24264
v -4.24264 0.60000 4.24264
v -4.85410 0.05000 3.52671
v -4.85410 0.60000 3.52671
v -5.34604 0.05000 2.72394
v -5.34604 0.60000 2.72394
v -5.70634 0.05000 1.85410
v -5.70634 0.60000 1.85410
v -5.92613 0.05000 0.93861
v -5.92613 0.60000 0.93861
v -6.00000 0.05000 0.00000
v -6.00000 0.60000 0.00000
v -5.92613 0.05000 -0.93861
v -5.92613 0.60000 -0.93861
v -5.70634 0.05000 -1.85410
v -5.70634 0.60000 -1.85410
v -5.34604 0.05000 -2.72394
v -5.34604 0.60000 -2.72394
v -4.85410 0.05000 -3.52671
v -4.85410 0.60000 -3.52671
v -4.24264 0.05000 -4.24264
v -4.24264 0.60000 -4.24264
v -3.52671 0.05000 -4.85410
v -3.52671 0.60000 -4.85410
v -2.72394 0.05000 -5.34604
v -2.72394 0.60000 -5.34604
v -1.85410 0.05000 -5.70634
v -1.85410 0.60000 -5.70634
v -0.93861 0.05000 -5.92613
v -0.93861 0.60000 -5.92613
v -0.00000 0.05000 -6.00000
v -0.00000 0.60000 -6.00000
v 0.93861 0.05000 -5.92613
v 0.93861 0.60000 -5.92613
v 1.85410 0.05000 -5.70634
v 1.85410 0.60000 -5.70634
v 2.72394 0.05000 -5.34604
v 2.72394 0.60000 -5.34604
v 3.52671 0.05000 -4.85410
v 3.52671 0.60000 -4.85410
v 4.24264 0.05000 -4.24264
v 4.24264 0.60000 -4.24264
v 4.85410 0.05000 -3.52671
v 4.85410 0.60000 -3.52671
v 5.34604 0.05000 -2.72394
v 5.34604 0.60000 -2.72394
v 5.70634 0.05000 -1.85410
v 5.70634 0.60000 -1.85410
v 5.92613 0.05000 -0.93861
v 5.92613 0.60000 -0.93861
v 0.00000 0.05000 0.00000
v 0.00000 0.60000 0.00000
v 6.02000 0.05000 0.00000
v 6.02000 0.40000 0.00000
v 5.94588 0.05000 0.94174
v 5.94588 0.40000 0.94174
v 5.72536 0.05000 1.86028
v 5.72536 0.40000 1.86028
v 5.36386 0.05000 2.73302
v 5.36386 0.40000 2.73302
v 4.87028 0.05000 3.53847
v 4.87028 0.40000 3.53847
v 4.25678 0.05000 4.25678
v 4.25678 0.40000 4.25678
v 3.53847 0.05000 4.87028
v 3.53847 0.40000 4.87028
v 2.73302 0.05000 5.36386
v 2.73302 0.40000 5.36386
v 1.86028 0.05000 5.72536
v 1.86028 0.40000 5.72536
v 0.94174 0.05000 5.94588
v 0.94174 0.40000 5.94588
v 0.00000 0.05000 6.02000
v 0.00000 0.40000 6.02000
v -0.94174 0.05000 5.94588
v -0.94174 0.40000 5.94588
v -1.86028 0.05000 5.72536
v -1.86028 0.40000 5.72536
v -2.73302 0.05000 5.36386
v -2.73302 0.40000 5.36386
v -3.53847 0.05000 4.87028
v -3.53847 0.40000 4.87028
v -4.25678 0.05000 4.25678
v -4.25678 0.40000 4.25678
v -4.87028 0.05000 3.53847
v -4.87028 0.40000 3.53847
v -5.36386 0.05000 2.73302
v -5.36386 0.40000 2.73302
v -5.72536 0.05000 1.86028
v -5.72536 0.40000 1.86028
v -5.94588 0.05000 0.94174
v -5.94588 0.40000 0.94174
v -6.02000 0.05000 0.00000
v -6.02000 0.40000 0.00000
v -5.94588 0.05000 -0.94174
v -5.94588 0.40000 -0.94174
v -5.72536 0.05000 -1.86028
v -5.72536 0.40000 -1.86028
v -5.36386 0.05000 -2.73302
v -5.36386 0.40000 -2.73302
v -4.87028 0.05000 -3.53847
v -4.87028 0.40000 -3.53847
v -4.25678 0.05000 -4.25678
v -4.25678 0.40000 -4.25678
v -3.53847 0.05000 -4.87028
v -3.53847 0.40000 -4.87028
v -2.73302 0.05000 -5.36386
v -2.73302 0.40000 -5.36386
v -1.86028 0.05000 -5.72536
v -1.86028 0.40000 -5.72536
v -0.94174 0.05000 -5.94588
v -0.94174 0.40000 -5.94588
v -0.00000 0.05000 -6.02000
v -0.00000 0.40000 -6.02000
v 0.94174 0.05000 -5.94588
v 0.94174 0.40000 -5.94588
v 1.86028 0.05000 -5.72536
v 1.86028 0.40000 -5.72536
v 2.73302 0.05000 -5.36386
v 2.73302 0.40000 -5.36386
v 3.53847 0.05000 -4.87028
v 3.53847 0.40000 -4.87028
v 4.25678 0.05000 -4.25678
v 4.25678 0.40000 -4.25678
v 4.87028 0.05000 -3.53847
v 4.87028 0.40000 -3.53847
v 5.36386 0.05000 -2.73302
v 5.36386 0.40000 -2.73302
v 5.72536 0.05000 -1.86028
v 5.72536 0.40000 -1.86028
v 5.94588 0.05000 -0.94174
v 5.94588 0.40000 -0.94174
v 0.00000 0.05000 0.00000
v 0.00000 0.40000 0.00000
v 5.97000 0.62000 0.00000
v 5.91000 0.72392 0.00000
v 5.79000 0.72392 0.00000
v 5.73000 0.62000 0.00000
v 5.79000 0.51608 0.00000
v 5.91000 0.51608 0.00000
v 5.89650 0.62000 0.93391
v 5.83724 0.72392 0.92453
v 5.71872 0.72392 0.90576
v 5.65945 0.62000 0.89637
v 5.71872 0.51608 0.90576
v 5.83724 0.51608 0.92453
v 5.67781 0.62000 1.84483
v 5.62074 0.72392 1.82629
v 5.50662 0.72392 1.78921
v 5.44955 0.62000 1.77067
v 5.50662 0.51608 1.78921
v 5.62074 0.51608 1.82629
v 5.31931 0.62000 2.71032
v 5.26585 0.72392 2.68308
v 5.15893 0.72392 2.62860
v 5.10547 0.62000 2.60137
v 5.15893 0.51608 2.62860
v 5.26585 0.51608 2.68308
v 4.82983 0.62000 3.50908
v 4.78129 0.72392 3.47381
v 4.68421 0.72392 3.40328
v 4.63567 0.62000 3.36801
v 4.68421 0.51608 3.40328
v 4.78129 0.51608 3.47381
v 4.22143 0.62000 4.22143
v 4.17900 0.72392 4.17900
v 4.09415 0.72392 4.09415
v 4.05172 0.62000 4.05172
v 4.09415 0.51608 4.09415
v 4.17900 0.51608 4.17900
v 3.50908 0.62000 4.82983
v 3.47381 0.72392 4.78129
v 3.40328 0.72392 4.68421
v 3.36801 0.62000 4.63567
v 3.40328 0.51608 4.68421
v 3.47381 0.51608 4.78129
v 2.71032 0.62000 5.31931
v 2.68308 0.72392 5.26585
v 2.62860 0.72392 5.15893
v 2.60137 0.62000 5.10547
v 2.62860 0.51608 5.15893
v 2.68308 0.51608 5.26585
v 1.84483 0.62000 5.67781
v 1.82629 0.72392 5.62074
v 1.78921 0.72392 5.50662
v 1.77067 0.62000 5.44955
v 1.78921 0.51608 5.50662
v 1.82629 0.51608 5.62074
v 0.93391 0.62000 5.89650
v 0.92453 0.72392 5.83724
v 0.90576 0.72392 5.71872
v 0.89637 0.62000 5.65945
v 0.90576 0.51608 5.71872
v 0.92453 0.51608 5.83724
v 0.00000 0.62000 5.97000
v 0.00000 0.72392 5.91000
v 0.00000 0.72392 5.79000
v 0.00000 0.62000 5.73000
v 0.00000 0.51608 5.79000
v 0.00000 0.51608 5.91000
v -0.93391 0.62000 5.89650
v -0.92453 0.72392 5.83724
v -0.90576 0.72392 5.71872
v -0.89637 0.62000 5.65945
v -0.90576 0.51608 5.71872
v -0.92453 0.51608 5.83724
v -1.84483 0.62000 5.67781
v -1.82629 0.72392 5.62074
v -1.78921 0.72392 5.50662
v -1.77067 0.62000 5.44955
v -1.78921 0.51608 5.50662
v -1.82629 0.51608 5.62074
v -2.71032 0.62000 5.31931
v -2.68308 0.72392 5.26585
v -2.62860 0.72392 5.15893
v -2.60137 0.62000 5.10547
v -2.62860 0.51608 5.15893
v -2.68308 0.51608 5.26585
v -3.50908 0.62000 4.82983
v -3.47381 0.72392 4.78129
v -3.40328 0.72392 4.68421
v -3.36801 0.62000 4.63567
v -3.40328 0.51608 4.68421
v -3.47381 0.51608 4.78129
v -4.22143 0.62000 4.22143
v -4.17900 0.72392 4.17900
v -4.09415 0.72392 4.09415
v -4.05172 0.62000 4.05172
v -4.09415 0.51608 4.09415
v -4.17900 0.51608 4.17900
v -4.82983 0.62000 3.50908
v -4.78129 0.72392 3.47381
v -4.68421 0.72392 3.40328
v -4.63567 0.62000 3.36801
v -4.68421 0.51608 3.40328
v -4.78129 0.51608 3.47381
v -5.31931 0.62000 2.71032
v -5.26585 0.72392 2.68308
v -5.15893 0.72392 2.62860
v -5.10547 0.62000 2.60137
v -5.15893 0.51608 2.62860
v -5.26585 0.51608 2.68308
v -5.67781 0.62000 1.84483
v -5.62074 0.72392 1.82629
v -5.50662 0.72392 1.78921
v -5.44955 0.62000 1.77067
v -5.50662 0.51608 1.78921
v -5.62074 0.51608 1.82629
v -5.89650 0.62000 0.93391
v -5.83724 0.72392 0.92453
v -5.71872 0.72392 0.90576
v -5.65945 0.62000 0.89637
v -5.71872 0.51608 0.90576
v -5.83724 0.51608 0.92453
v -5.97000 0.62000 0.00000
v -5.91000 0.72392 0.00000
v -5.79000 0.72392 0.00000
v -5.73000 0.62000 0.00000
v -5.79000 0.51608 0.00000
v -5.91000 0.51608 0.00000
v -5.89650 0.62000 -0.93391
v -5.83724 0.72392 -0.92453
v -5.71872 0.72392 -0.90576
v -5.65945 0.62000 -0.89637
v -5.71872 0.51608 -0.90576
v -5.83724 0.51608 -0.92453
v -5.67781 0.62000 -1.84483
v -5.62074 0.72392 -1.82629
v -5.50662 0.72392 -1.78921
v -5.44955 0.62000 -1.77067
v -5.50662 0.51608 -1.78921
v -5.62074 0.51608 -1.82629
v -5.31931 0.62000 -2.71032
v -5.26585 0.72392 -2.68308
v -5.15893 0.72392 -2.62860
v -5.10547 0.62000 -2.60137
v -5.15893 0.51608 -2.62860
v -5.26585 0.51608 -2.68308
v -4.82983 0.62000 -3.50908
v -4.78129 0.72392 -3.47381
v -4.68421 0.72392 -3.40328
v -4.63567 0.62000 -3.36801
v -4.68421 0.51608 -3.40328
v -4.78129 0.51608 -3.47381
v -4.22143 0.62000 -4.22143
v -4.17900 0.72392 -4.17900
v -4.09415 0.72392 -4.09415
v -4.05172 0.62000 -4.05172
v -4.09415 0.51608 -4.09415
v -4.17900 0.51608 -4.17900
v -3.50908 0.62000 -4.82983
v -3.47381 0.72392 -4.78129
v -3.40328 0.72392 -4.68421
v -3.36801 0.62000 -4.63567
v -3.40328 0.51608 -4.68421
v -3.47381 0.51608 -4.78129
v -2.71032 0.62000 -5.31931
v -2.68308 0.72392 -5.26585
v -2.62860 0.72392 -5.15893
v -2.60137 0.62000 -5.10547
v -2.62860 0.51608 -5.15893
v -2.68308 0.51608 -5.26585
v -1.84483 0.62000 -5.67781
v -1.82629 0.72392 -5.62074
v -1.78921 0.72392 -5.50662
v -1.77067 0.62000 -5.44955
v -1.78921 0.51608 -5.50662
v -1.82629 0.51608 -5.62074
v -0.93391 0.62000 -5.89650
v -0.92453 0.72392 -5.83724
v -0.90576 0.72392 -5.71872
v -0.89637 0.62000 -5.65945
v -0.90576 0.51608 -5.71872
v -0.92453 0.51608 -5.83724
v -0.00000 0.62000 -5.97000
v -0.00000 0.72392 -5.91000
v -0.00000 0.72392 -5.79000
v -0.00000 0.62000 -5.73000
v -0.00000 0.51608 -5.79000
v -0.00000 0.51608 -5.91000
v 0.93391 0.62000 -5.89650
v 0.92453 0.72392 -5.83724
v 0.90576 0.72392 -5.71872
v 0.89637 0.62000 -5.65945
v 0.90576 0.51608 -5.71872
v 0.92453 0.51608 -5.83724
v 1.84483 0.62000 -5.67781
v 1.82629 0.72392 -5.62074
v 1.78921 0.72392 -5.50662
v 1.77067 0.62000 -5.44955
v 1.78921 0.51608 -5.50662
v 1.82629 0.51608 -5.62074
v 2.71032 0.62000 -5.31931
v 2.68308 0.72392 -5.26585
v 2.62860 0.72392 -5.15893
v 2.60137 0.62000 -5.10547
v 2.62860 0.51608 -5.15893
v 2.68308 0.51608 -5.26585
v 3.50908 0.62000 -4.82983
v 3.47381 0.72392 -4.78129
v 3.40328 0.72392 -4.68421
v 3.36801 0.62000 -4.63567
v 3.40328 0.51608 -4.68421
v 3.47381 0.51608 -4.78129
v 4.22143 0.62000 -4.22143
v 4.17900 0.72392 -4.17900
v 4.09415 0.72392 -4.09415
v 4.05172 0.62000 -4.05172
v 4.09415 0.51608 -4.09415
v 4.17900 0.51608 -4.17900
v 4.82983 0.62000 -3.50908
v 4.78129 0.72392 -3.47381
v 4.68421 0.72392 -3.40328
v 4.63567 0.62000 -3.36801
v 4.68421 0.51608 -3.40328
v 4.78129 0.51608 -3.47381
v 5.31931 0.62000 -2.71032
v 5.26585 0.72392 -2.68308
v 5.15893 0.72392 -2.62860
v 5.10547 0.62000 -2.60137
v 5.15893 0.51608 -2.62860
v 5.26585 0.51608 -2.68308
v 5.67781 0.62000 -1.84483
v 5.62074 0.72392 -1.82629
v 5.50662 0.72392 -1.78921
v 5.44955 0.62000 -1.77067
v 5.50662 0.51608 -1.78921
v 5.62074 0.51608 -1.82629
v 5.89650 0.62000 -0.93391
v 5.83724 0.72392 -0.92453
v 5.71872 0.72392 -0.90576
v 5.65945 0.62000 -0.89637
v 5.71872 0.51608 -0.90576
v 5.83724 0.51608 -0.92453
v 5.52124 0.69000 0.00000
v 5.46062 0.69000 0.10500
v 5.33938 0.69000 0.10500
v 5.27876 0.69000 0.00000
v 5.33938 0.69000 -0.10500
v 5.46062 0.69000 -0.10500
v 5.52124 0.83000 0.00000
v 5.46062 0.83000 0.10500
v 5.33938 0.83000 0.10500
v 5.27876 0.83000 0.00000
v 5.33938 0.83000 -0.10500
v 5.46062 0.83000 -0.10500
v 5.40000 0.62000 0.00000
v 5.40000 0.90000 0.00000
v 4.98648 0.69000 2.34297
v 4.92585 0.69000 2.44797
v 4.80461 0.69000 2.44797
v 4.74399 0.69000 2.34297
v 4.80461 0.69000 2.23797
v 4.92585 0.69000 2.23797
v 4.98648 0.83000 2.34297
v 4.92585 0.83000 2.44797
v 4.80461 0.83000 2.44797
v 4.74399 0.83000 2.34297
v 4.80461 0.83000 2.23797
v 4.92585 0.83000 2.23797
v 4.86523 0.62000 2.34297
v 4.86523 0.90000 2.34297
v 3.48809 0.69000 4.22189
v 3.42747 0.69000 4.32689
v 3.30622 0.69000 4.32689
v 3.24560 0.69000 4.22189
v 3.30622 0.69000 4.11689
v 3.42747 0.69000 4.11689
v 3.48809 0.83000 4.22189
v 3.42747 0.83000 4.32689
v 3.30622 0.83000 4.32689
v 3.24560 0.83000 4.22189
v 3.30622 0.83000 4.11689
v 3.42747 0.83000 4.11689
v 3.36684 0.62000 4.22189
v 3.36684 0.90000 4.22189
v 1.32286 0.69000 5.26461
v 1.26223 0.69000 5.36961
v 1.14099 0.69000 5.36961
v 1.08037 0.69000 5.26461
v 1.14099 0.69000 5.15961
v 1.26223 0.69000 5.15961
v 1.32286 0.83000 5.26461
v 1.26223 0.83000 5.36961
v 1.14099 0.83000 5.36961
v 1.08037 0.83000 5.26461
v 1.14099 0.83000 5.15961
v 1.26223 0.83000 5.15961
v 1.20161 0.62000 5.26461
v 1.20161 0.90000 5.26461
v -1.08037 0.69000 5.26461
v -1.14099 0.69000 5.36961
v -1.26223 0.69000 5.36961
v -1.32286 0.69000 5.26461
v -1.26223 0.69000 5.15961
v -1.14099 0.69000 5.15961
v -1.08037 0.83000 5.26461
v -1.14099 0.83000 5.36961
v -1.26223 0.83000 5.36961
v -1.32286 0.83000 5.26461
v -1.26223 0.83000 5.15961
v -1.14099 0.83000 5.15961
v -1.20161 0.62000 5.26461
v -1.20161 0.90000 5.26461
v -3.24560 0.69000 4.22189
v -3.30622 0.69000 4.32689
v -3.42747 0.69000 4.32689
v -3.48809 0.69000 4.22189
v -3.42747 0.69000 4.11689
v -3.30622 0.69000 4.11689
v -3.24560 0.83000 4.22189
v -3.30622 0.83000 4.32689
v -3.42747 0.83000 4.32689
v -3.48809 0.83000 4.22189
v -3.42747 0.83000 4.11689
v -3.30622 0.83000 4.11689
v -3.36684 0.62000 4.22189
v -3.36684 0.90000 4.22189
v -4.74399 0.69000 2.34297
v -4.80461 0.69000 2.44797
v -4.92585 0.69000 2.44797
v -4.98648 0.69000 2.34297
v -4.92585 0.69000 2.23797
v -4.80461 0.69000 2.23797
v -4.74399 0.83000 2.34297
v -4.80461 0.83000 2.44797
v -4.92585 0.83000 2.44797
v -4.98648 0.83000 2.34297
v -4.92585 0.83000 2.23797
v -4.80461 0.83000 2.23797
v -4.86523 0.62000 2.34297
v -4.86523 0.90000 2.34297
v -5.27876 0.69000 0.00000
v -5.33938 0.69000 0.10500
v -5.46062 0.69000 0.10500
v -5.52124 0.69000 0.00000
v -5.46062 0.69000 -0.10500
v -5.33938 0.69000 -0.10500
v -5.27876 0.83000 0.00000
v -5.33938 0.83000 0.10500
v -5.46062 0.83000 0.10500
v -5.52124 0.83000 0.00000
v -5.46062 0.83000 -0.10500
v -5.33938 0.83000 -0.10500
v -5.40000 0.62000 0.00000
v -5.40000 0.90000 0.00000
v -4.74399 0.69000 -2.34297
v -4.80461 0.69000 -2.23797
v -4.92585 0.69000 -2.23797
v -4.98648 0.69000 -2.34297
v -4.92585 0.69000 -2.44797
v -4.80461 0.69000 -2.44797
v -4.74399 0.83000 -2.34297
v -4.80461 0.83000 -2.23797
v -4.92585 0.83000 -2.23797
v -4.98648 0.83000 -2.34297
v -4.92585 0.83000 -2.44797
v -4.80461 0.83000 -2.44797
v -4.86523 0.62000 -2.34297
v -4.86523 0.90000 -2.34297
v -3.24560 0.69000 -4.22189
v -3.30622 0.69000 -4.11689
v -3.42747 0.69000 -4.11689
v -3.48809 0.69000 -4.22189
v -3.42747 0.69000 -4.32689
v -3.30622 0.69000 -4.32689
v -3.24560 0.83000 -4.22189
v -3.30622 0.83000 -4.11689
v -3.42747 0.83000 -4.11689
v -3.48809 0.83000 -4.22189
v -3.42747 0.83000 -4.32689
v -3.30622 0.83000 -4.32689
v -3.36684 0.62000 -4.22189
v -3.36684 0.90000 -4.22189
v -1.08037 0.69000 -5.26461
v -1.14099 0.69000 -5.15961
v -1.26223 0.69000 -5.15961
v -1.32286 0.69000 -5.26461
v -1.26223 0.69000 -5.36961
v -1.14099 0.69000 -5.36961
v -1.08037 0.83000 -5.26461
v -1.14099 0.83000 -5.15961
v -1.26223 0.83000 -5.15961
v -1.32286 0.83000 -5.26461
v -1.26223 0.83000 -5.36961
v -1.14099 0.83000 -5.36961
v -1.20161 0.62000 -5.26461
v -1.20161 0.90000 -5.26461
v 1.32286 0.69000 -5.26461
v 1.26223 0.69000 -5.15961
v 1.14099 0.69000 -5.15961
v 1.08037 0.69000 -5.26461
v 1.14099 0.69000 -5.36961
v 1.26223 0.69000 -5.36961
v 1.32286 0.83000 -5.26461
v 1.26223 0.83000 -5.15961
v 1.14099 0.83000 -5.15961
v 1.08037 0.83000 -5.26461
v 1.14099 0.83000 -5.36961
v 1.26223 0.83000 -5.36961
v 1.20161 0.62000 -5.26461
v 1.20161 0.90000 -5.26461
v 3.48809 0.69000 -4.22189
v 3.42747 0.69000 -4.11689
v 3.30622 0.69000 -4.11689
v 3.24560 0.69000 -4.22189
v 3.30622 0.69000 -4.32689
v 3.42747 0.69000 -4.32689
v 3.48809 0.83000 -4.22189
v 3.42747 0.83000 -4.11689
v 3.30622 0.83000 -4.11689
v 3.24560 0.83000 -4.22189
v 3.30622 0.83000 -4.32689
v 3.42747 0.83000 -4.32689
v 3.36684 0.62000 -4.22189
v 3.36684 0.90000 -4.22189
v 4.98648 0.69000 -2.34297
v 4.92585 0.69000 -2.23797
v 4.80461 0.69000 -2.23797
v 4.74399 0.69000 -2.34297
v 4.80461 0.69000 -2.44797
v 4.92585 0.69000 -2.44797
v 4.98648 0.83000 -2.34297
v 4.92585 0.83000 -2.23797
v 4.80461 0.83000 -2.23797
v 4.74399 0.83000 -2.34297
v 4.80461 0.83000 -2.44797
v 4.92585 0.83000 -2.44797
v 4.86523 0.62000 -2.34297
v 4.86523 0.90000 -2.34297
v -0.95000 0.50000 -1.25000
v -1.16213 0.50000 -1.16213
v -1.25000 0.50000 -0.95000
v -1.16213 0.50000 -0.73787
v -0.95000 0.50000 -0.65000
v -0.73787 0.50000 -0.73787
v -0.65000 0.50000 -0.95000
v -0.73787 0.50000 -1.16213
v -0.95000 17.00000 -1.21000
v -1.13385 17.00000 -1.13385
v -1.21000 17.00000 -0.95000
v -1.13385 17.00000 -0.76615
v -0.95000 17.00000 -0.69000
v -0.76615 17.00000 -0.76615
v -0.69000 17.00000 -0.95000
v -0.76615 17.00000 -1.13385
v -0.95000 0.50000 -0.95000
v -0.95000 17.00000 -0.95000
v -0.95000 0.50000 0.65000
v -1.16213 0.50000 0.73787
v -1.25000 0.50000 0.95000
v -1.16213 0.50000 1.16213
v -0.95000 0.50000 1.25000
v -0.73787 0.50000 1.16213
v -0.65000 0.50000 0.95000
v -0.73787 0.50000 0.73787
v -0.95000 17.00000 0.69000
v -1.13385 17.00000 0.76615
v -1.21000 17.00000 0.95000
v -1.13385 17.00000 1.13385
v -0.95000 17.00000 1.21000
v -0.76615 17.00000 1.13385
v -0.69000 17.00000 0.95000
v -0.76615 17.00000 0.76615
v -0.95000 0.50000 0.95000
v -0.95000 17.00000 0.95000
v 0.95000 0.50000 -1.25000
v 0.73787 0.50000 -1.16213
v 0.65000 0.50000 -0.95000
v 0.73787 0.50000 -0.73787
v 0.95000 0.50000 -0.65000
v 1.16213 0.50000 -0.73787
v 1.25000 0.50000 -0.95000
v 1.16213 0.50000 -1.16213
v 0.95000 17.00000 -1.21000
v 0.76615 17.00000 -1.13385
v 0.69000 17.00000 -0.95000
v 0.76615 17.00000 -0.76615
v 0.95000 17.00000 -0.69000
v 1.13385 17.00000 -0.76615
v 1.21000 17.00000 -0.95000
v 1.13385 17.00000 -1.13385
v 0.95000 0.50000 -0.95000
v 0.95000 17.00000 -0.95000
v 0.95000 0.50000 0.65000
v 0.73787 0.50000 0.73787
v 0.65000 0.50000 0.95000
v 0.73787 0.50000 1.16213
v 0.95000 0.50000 1.25000
v 1.16213 0.50000 1.16213
v 1.25000 0.50000 0.95000
v 1.16213 0.50000 0.73787
v 0.95000 17.00000 0.69000
v 0.76615 17.00000 0.76615
v 0.69000 17.00000 0.95000
v 0.76615 17.00000 1.13385
v 0.95000 17.00000 1.21000
v 1.13385 17.00000 1.13385
v 1.21000 17.00000 0.95000
v 1.13385 17.00000 0.76615
v 0.95000 0.50000 0.95000
v 0.95000 17.00000 0.95000
v -0.95000 1.60000 -0.84000
v -0.95000 1.49538 -0.91601
v -0.95000 1.53534 -1.03899
v -0.95000 1.66466 -1.03899
v -0.95000 1.70462 -0.91601
v 0.95000 1.60000 -0.84000
v 0.95000 1.49538 -0.91601
v 0.95000 1.53534 -1.03899
v 0.95000 1.66466 -1.03899
v 0.95000 1.70462 -0.91601
v -0.95000 1.60000 -0.95000
v 0.95000 1.60000 -0.95000
v 0.84000 1.60000 -0.95000
v 0.91601 1.49538 -0.95000
v 1.03899 1.53534 -0.95000
v 1.03899 1.66466 -0.95000
v 0.91601 1.70462 -0.95000
v 0.84000 1.60000 0.95000
v 0.91601 1.49538 0.95000
v 1.03899 1.53534 0.95000
v 1.03899 1.66466 0.95000
v 0.91601 1.70462 0.95000
v 0.95000 1.60000 -0.95000
v 0.95000 1.60000 0.95000
v 0.95000 1.60000 0.84000
v 0.95000 1.49538 0.91601
v 0.95000 1.53534 1.03899
v 0.95000 1.66466 1.03899
v 0.95000 1.70462 0.91601
v -0.95000 1.60000 0.84000
v -0.95000 1.49538 0.91601
v -0.95000 1.53534 1.03899
v -0.95000 1.66466 1.03899
v -0.95000 1.70462 0.91601
v 0.95000 1.60000 0.95000
v -0.95000 1.60000 0.95000
v -0.84000 1.60000 0.95000
v -0.91601 1.49538 0.95000
v -1.03899 1.53534 0.95000
v -1.03899 1.66466 0.95000
v -0.91601 1.70462 0.95000
v -0.84000 1.60000 -0.95000
v -0.91601 1.49538 -0.95000
v -1.03899 1.53534 -0.95000
v -1.03899 1.66466 -0.95000
v -0.91601 1.70462 -0.95000
v -0.95000 1.60000 0.95000
v -0.95000 1.60000 -0.95000
v -0.95000 3.20000 -0.84000
v -0.95000 3.09538 -0.91601
v -0.95000 3.13534 -1.03899
v -0.95000 3.26466 -1.03899
v -0.95000 3.30462 -0.91601
v 0.95000 3.20000 -0.84000
v 0.95000 3.09538 -0.91601
v 0.95000 3.13534 -1.03899
v 0.95000 3.26466 -1.03899
v 0.95000 3.30462 -0.91601
v -0.95000 3.20000 -0.95000
v 0.95000 3.20000 -0.95000
v 0.84000 3.20000 -0.95000
v 0.91601 3.09538 -0.95000
v 1.03899 3.13534 -0.95000
v 1.03899 3.26466 -0.95000
v 0.91601 3.30462 -0.95000
v 0.84000 3.20000 0.95000
v 0.91601 3.09538 0.95000
v 1.03899 3.13534 0.95000
v 1.03899 3.26466 0.95000
v 0.91601 3.30462 0.95000
v 0.95000 3.20000 -0.95000
v 0.95000 3.20000 0.95000
v 0.95000 3.20000 0.84000
v 0.95000 3.09538 0.91601
v 0.95000 3.13534 1.03899
v 0.95000 3.26466 1.03899
v 0.95000 3.30462 0.91601
v -0.95000 3.20000 0.84000
v -0.95000 3.09538 0.91601
v -0.95000 3.13534 1.03899
v -0.95000 3.26466 1.03899
v -0.95000 3.30462 0.91601
v 0.95000 3.20000 0.95000
v -0.95000 3.20000 0.95000
v -0.84000 3.20000 0.95000
v -0.91601 3.09538 0.95000
v -1.03899 3.13534 0.95000
v -1.03899 3.26466 0.95000
v -0.91601 3.30462 0.95000
v -0.84000 3.20000 -0.95000
v -0.91601 3.09538 -0.95000
v -1.03899 3.13534 -0.95000
v -1.03899 3.26466 -0.95000
v -0.91601 3.30462 -0.95000
v -0.95000 3.20000 0.95000
v -0.95000 3.20000 -0.95000
v -0.95000 4.80000 -0.84000
v -0.95000 4.69538 -0.91601
v -0.95000 4.73534 -1.03899
v -0.95000 4.86466 -1.03899
v -0.95000 4.90462 -0.91601
v 0.95000 4.80000 -0.84000
v 0.95000 4.69538 -0.91601
v 0.95000 4.73534 -1.03899
v 0.95000 4.86466 -1.03899
v 0.95000 4.90462 -0.91601
v -0.95000 4.80000 -0.95000
v 0.95000 4.80000 -0.95000
v 0.84000 4.80000 -0.95000
v 0.91601 4.69538 -0.95000
v 1.03899 4.73534 -0.95000
v 1.03899 4.86466 -0.95000
v 0.91601 4.90462 -0.95000
v 0.84000 4.80000 0.95000
v 0.91601 4.69538 0.95000
v 1.03899 4.73534 0.95000
v 1.03899 4.86466 0.95000
v 0.91601 4.90462 0.95000
v 0.95000 4.80000 -0.95000
v 0.95000 4.80000 0.95000
v 0.95000 4.80000 0.84000
v 0.95000 4.69538 0.91601
v 0.95000 4.73534 1.03899
v 0.95000 4.86466 1.03899
v 0.95000 4.90462 0.91601
v -0.95000 4.80000 0.84000
v -0.95000 4.69538 0.91601
v -0.95000 4.73534 1.03899
v -0.95000 4.86466 1.03899
v -0.95000 4.90462 0.91601
v 0.95000 4.80000 0.95000
v -0.95000 4.80000 0.95000
v -0.84000 4.80000 0.95000
v -0.91601 4.69538 0.95000
v -1.03899 4.73534 0.95000
v -1.03899 4.86466 0.95000
v -0.91601 4.90462 0.95000
v -0.84000 4.80000 -0.95000
v -0.91601 4.69538 -0.95000
v -1.03899 4.73534 -0.95000
v -1.03899 4.86466 -0.95000
v -0.91601 4.90462 -0.95000
v -0.95000 4.80000 0.95000
v -0.95000 4.80000 -0.95000
v -0.95000 6.40000 -0.84000
v -0.95000 6.29538 -0.91601
v -0.95000 6.33534 -1.03899
v -0.95000 6.46466 -1.03899
v -0.95000 6.50462 -0.91601
v 0.95000 6.40000 -0.84000
v 0.95000 6.29538 -0.91601
v 0.95000 6.33534 -1.03899
v 0.95000 6.46466 -1.03899
v 0.95000 6.50462 -0.91601
v -0.95000 6.40000 -0.95000
v 0.95000 6.40000 -0.95000
v 0.84000 6.40000 -0.95000
v 0.91601 6.29538 -0.95000
v 1.03899 6.33534 -0.95000
v 1.03899 6.46466 -0.95000
v 0.91601 6.50462 -0.95000
v 0.84000 6.40000 0.95000
v 0.91601 6.29538 0.95000
v 1.03899 6.33534 0.95000
v 1.03899 6.46466 0.95000
v 0.91601 6.50462 0.95000
v 0.95000 6.40000 -0.95000
v 0.95000 6.40000 0.95000
v 0.95000 6.40000 0.84000
v 0.95000 6.29538 0.91601
v 0.95000 6.33534 1.03899
v 0.95000 6.46466 1.03899
v 0.95000 6.50462 0.91601
v -0.95000 6.40000 0.84000
v -0.95000 6.29538 0.91601
v -0.95000 6.33534 1.03899
v -0.95000 6.46466 1.03899
v -0.95000 6.50462 0.91601
v 0.95000 6.40000 0.95000
v -0.95000 6.40000 0.95000
v -0.84000 6.40000 0.95000
v -0.91601 6.29538 0.95000
v -1.03899 6.33534 0.95000
v -1.03899 6.46466 0.95000
v -0.91601 6.50462 0.95000
v -0.84000 6.40000 -0.95000
v -0.91601 6.29538 -0.95000
v -1.03899 6.33534 -0.95000
v -1.03899 6.46466 -0.95000
v -0.91601 6.50462 -0.95000
v -0.95000 6.40000 0.95000
v -0.95000 6.40000 -0.95000
v -0.95000 8.00000 -0.84000
v -0.95000 7.89538 -0.91601
v -0.95000 7.93534 -1.03899
v -0.95000 8.06466 -1.03899
v -0.95000 8.10462 -0.91601
v 0.95000 8.00000 -0.84000
v 0.95000 7.89538 -0.91601
v 0.95000 7.93534 -1.03899
v 0.95000 8.06466 -1.03899
v 0.95000 8.10462 -0.91601
v -0.95000 8.00000 -0.95000
v 0.95000 8.00000 -0.95000
v 0.84000 8.00000 -0.95000
v 0.91601 7.89538 -0.95000
v 1.03899 7.93534 -0.95000
v 1.03899 8.06466 -0.95000
v 0.91601 8.10462 -0.95000
v 0.84000 8.00000 0.95000
v 0.91601 7.89538 0.95000
v 1.03899 7.93534 0.95000
v 1.03899 8.06466 0.95000
v 0.91601 8.10462 0.95000
v 0.95000 8.00000 -0.95000
v 0.95000 8.00000 0.95000
v 0.95000 8.00000 0.84000
v 0.95000 7.89538 0.91601
v 0.95000 7.93534 1.03899
v 0.95000 8.06466 1.03899
v 0.95000 8.10462 0.91601
v -0.95000 8.00000 0.84000
v -0.95000 7.89538 0.91601
v -0.95000 7.93534 1.03899
v -0.95000 8.06466 1.03899
v -0.95000 8.10462 0.91601
v 0.95000 8.00000 0.95000
v -0.95000 8.00000 0.95000
v -0.84000 8.00000 0.95000
v -0.91601 7.89538 0.95000
v -1.03899 7.93534 0.95000
v -1.03899 8.06466 0.95000
v -0.91601 8.10462 0.95000
v -0.84000 8.00000 -0.95000
v -0.91601 7.89538 -0.95000
v -1.03899 7.93534 -0.95000
v -1.03899 8.06466 -0.95000
v -0.91601 8.10462 -0.95000
v -0.95000 8.00000 0.95000
v -0.95000 8.00000 -0.95000
v -0.95000 9.60000 -0.84000
v -0.95000 9.49538 -0.91601
v -0.95000 9.53534 -1.03899
v -0.95000 9.66466 -1.03899
v -0.95000 9.70462 -0.91601
v 0.95000 9.60000 -0.84000
v 0.95000 9.49538 -0.91601
v 0.95000 9.53534 -1.03899
v 0.95000 9.66466 -1.03899
v 0.95000 9.70462 -0.91601
v -0.95000 9.60000 -0.95000
v 0.95000 9.60000 -0.95000
v 0.84000 9.60000 -0.95000
v 0.91601 9.49538 -0.95000
v 1.03899 9.53534 -0.95000
v 1.03899 9.66466 -0.95000
v 0.91601 9.70462 -0.95000
v 0.84000 9.60000 0.95000
v 0.91601 9.49538 0.95000
v 1.03899 9.53534 0.95000
v 1.03899 9.66466 0.95000
v 0.91601 9.70462 0.95000
v 0.95000 9.60000 -0.95000
v 0.95000 9.60000 0.95000
v 0.95000 9.60000 0.84000
v 0.95000 9.49538 0.91601
v 0.95000 9.53534 1.03899
v 0.95000 9.66466 1.03899
v 0.95000 9.70462 0.91601
v -0.95000 9.60000 0.84000
v -0.95000 9.49538 0.91601
v -0.95000 9.53534 1.03899
v -0.95000 9.66466 1.03899
v -0.95000 9.70462 0.91601
v 0.95000 9.60000 0.95000
v -0.95000 9.60000 0.95000
v -0.84000 9.60000 0.95000
v -0.91601 9.49538 0.95000
v -1.03899 9.53534 0.95000
v -1.03899 9.66466 0.95000
v -0.91601 9.70462 0.95000
v -0.84000 9.60000 -0.95000
v -0.91601 9.49538 -0.95000
v -1.03899 9.53534 -0.95000
v -1.03899 9.66466 -0.95000
v -0.91601 9.70462 -0.95000
v -0.95000 9.60000 0.95000
v -0.95000 9.60000 -0.95000
v -0.95000 11.20000 -0.84000
v -0.95000 11.09538 -0.91601
v -0.95000 11.13534 -1.03899
v -0.95000 11.26466 -1.03899
v -0.95000 11.30462 -0.91601
v 0.95000 11.20000 -0.84000
v 0.95000 11.09538 -0.91601
v 0.95000 11.13534 -1.03899
v 0.95000 11.26466 -1.03899
v 0.95000 11.30462 -0.91601
v -0.95000 11.20000 -0.95000
v 0.95000 11.20000 -0.95000
v 0.84000 11.20000 -0.95000
v 0.91601 11.09538 -0.95000
v 1.03899 11.13534 -0.95000
v 1.03899 11.26466 -0.95000
v 0.91601 11.30462 -0.95000
v 0.84000 11.20000 0.95000
v 0.91601 11.09538 0.95000
v 1.03899 11.13534 0.95000
v 1.03899 11.26466 0.95000
v 0.91601 11.30462 0.95000
v 0.95000 11.20000 -0.95000
v 0.95000 11.20000 0.95000
v 0.95000 11.20000 0.84000
v 0.95000 11.09538 0.91601
v 0.95000 11.13534 1.03899
v 0.95000 11.26466 1.03899
v 0.95000 11.30462 0.91601
v -0.95000 11.20000 0.84000
v -0.95000 11.09538 0.91601
v -0.95000 11.13534 1.03899
v -0.95000 11.26466 1.03899
v -0.95000 11.30462 0.91601
v 0.95000 11.20000 0.95000
v -0.95000 11.20000 0.95000
v -0.84000 11.20000 0.95000
v -0.91601 11.09538 0.95000
v -1.03899 11.13534 0.95000
v -1.03899 11.26466 0.95000
v -0.91601 11.30462 0.95000
v -0.84000 11.20000 -0.95000
v -0.91601 11.09538 -0.95000
v -1.03899 11.13534 -0.95000
v -1.03899 11.26466 -0.95000
v -0.91601 11.30462 -0.95000
v -0.95000 11.20000 0.95000
v -0.95000 11.20000 -0.95000
v -0.95000 12.80000 -0.84000
v -0.95000 12.69538 -0.91601
v -0.95000 12.73534 -1.03899
v -0.95000 12.86466 -1.03899
v -0.95000 12.90462 -0.91601
v 0.95000 12.80000 -0.84000
v 0.95000 12.69538 -0.91601
v 0.95000 12.73534 -1.03899
v 0.95000 12.86466 -1.03899
v 0.95000 12.90462 -0.91601
v -0.95000 12.80000 -0.95000
v 0.95000 12.80000 -0.95000
v 0.84000 12.80000 -0.95000
v 0.91601 12.69538 -0.95000
v 1.03899 12.73534 -0.95000
v 1.03899 12.86466 -0.95000
v 0.91601 12.90462 -0.95000
v 0.84000 12.80000 0.95000
v 0.91601 12.69538 0.95000
v 1.03899 12.73534 0.95000
v 1.03899 12.86466 0.95000
v 0.91601 12.90462 0.95000
v 0.95000 12.80000 -0.95000
v 0.95000 12.80000 0.95000
v 0.95000 12.80000 0.84000
v 0.95000 12.69538 0.91601
v 0.95000 12.73534 1.03899
v 0.95000 12.86466 1.03899
v 0.95000 12.90462 0.91601
v -0.95000 12.80000 0.84000
v -0.95000 12.69538 0.91601
v -0.95000 12.73534 1.03899
v -0.95000 12.86466 1.03899
v -0.95000 12.90462 0.91601
v 0.95000 12.80000 0.95000
v -0.95000 12.80000 0.95000
v -0.84000 12.80000 0.95000
v -0.91601 12.69538 0.95000
v -1.03899 12.73534 0.95000
v -1.03899 12.86466 0.95000
v -0.91601 12.90462 0.95000
v -0.84000 12.80000 -0.95000
v -0.91601 12.69538 -0.95000
v -1.03899 12.73534 -0.95000
v -1.03899 12.86466 -0.95000
v -0.91601 12.90462 -0.95000
v -0.95000 12.80000 0.95000
v -0.95000 12.80000 -0.95000
v -0.95000 14.40000 -0.84000
v -0.95000 14.29538 -0.91601
v -0.95000 14.33534 -1.03899
v -0.95000 14.46466 -1.03899
v -0.95000 14.50462 -0.91601
v 0.95000 14.40000 -0.84000
v 0.95000 14.29538 -0.91601
v 0.95000 14.33534 -1.03899
v 0.95000 14.46466 -1.03899
v 0.95000 14.50462 -0.91601
v -0.95000 14.40000 -0.95000
v 0.95000 14.40000 -0.95000
v 0.84000 14.40000 -0.95000
v 0.91601 14.29538 -0.95000
v 1.03899 14.33534 -0.95000
v 1.03899 14.46466 -0.95000
v 0.91601 14.50462 -0.95000
v 0.84000 14.40000 0.95000
v 0.91601 14.29538 0.95000
v 1.03899 14.33534 0.95000
v 1.03899 14.46466 0.95000
v 0.91601 14.50462 0.95000
v 0.95000 14.40000 -0.95000
v 0.95000 14.40000 0.95000
v 0.95000 14.40000 0.84000
v 0.95000 14.29538 0.91601
v 0.95000 14.33534 1.03899
v 0.95000 14.46466 1.03899
v 0.95000 14.50462 0.91601
v -0.95000 14.40000 0.84000
v -0.95000 14.29538 0.91601
v -0.95000 14.33534 1.03899
v -0.95000 14.46466 1.03899
v -0.95000 14.50462 0.91601
v 0.95000 14.40000 0.95000
v -0.95000 14.40000 0.95000
v -0.84000 14.40000 0.95000
v -0.91601 14.29538 0.95000
v -1.03899 14.33534 0.95000
v -1.03899 14.46466 0.95000
v -0.91601 14.50462 0.95000
v -0.84000 14.40000 -0.95000
v -0.91601 14.29538 -0.95000
v -1.03899 14.33534 -0.95000
v -1.03899 14.46466 -0.95000
v -0.91601 14.50462 -0.95000
v -0.95000 14.40000 0.95000
v -0.95000 14.40000 -0.95000
v -0.95000 16.00000 -0.84000
v -0.95000 15.89538 -0.91601
v -0.95000 15.93534 -1.03899
v -0.95000 16.06466 -1.03899
v -0.95000 16.10462 -0.91601
v 0.95000 16.00000 -0.84000
v 0.95000 15.89538 -0.91601
v 0.95000 15.93534 -1.03899
v 0.95000 16.06466 -1.03899
v 0.95000 16.10462 -0.91601
v -0.95000 16.00000 -0.95000
v 0.95000 16.00000 -0.95000
v 0.84000 16.00000 -0.95000
v 0.91601 15.89538 -0.95000
v 1.03899 15.93534 -0.95000
v 1.03899 16.06466 -0.95000
v 0.91601 16.10462 -0.95000
v 0.84000 16.00000 0.95000
v 0.91601 15.89538 0.95000
v 1.03899 15.93534 0.95000
v 1.03899 16.06466 0.95000
v 0.91601 16.10462 0.95000
v 0.95000 16.00000 -0.95000
v 0.95000 16.00000 0.95000
v 0.95000 16.00000 0.84000
v 0.95000 15.89538 0.91601
v 0.95000 15.93534 1.03899
v 0.95000 16.06466 1.03899
v 0.95000 16.10462 0.91601
v -0.95000 16.00000 0.84000
v -0.95000 15.89538 0.91601
v -0.95000 15.93534 1.03899
v -0.95000 16.06466 1.03899
v -0.95000 16.10462 0.91601
v 0.95000 16.00000 0.95000
v -0.95000 16.00000 0.95000
v -0.84000 16.00000 0.95000
v -0.91601 15.89538 0.95000
v -1.03899 15.93534 0.95000
v -1.03899 16.06466 0.95000
v -0.91601 16.10462 0.95000
v -0.84000 16.00000 -0.95000
v -0.91601 15.89538 -0.95000
v -1.03899 15.93534 -0.95000
v -1.03899 16.06466 -0.95000
v -0.91601 16.10462 -0.95000
v -0.95000 16.00000 0.95000
v -0.95000 16.00000 -0.95000
v -1.45000 16.95000 -1.45000
v 1.45000 16.95000 -1.45000
v 1.45000 17.45000 -1.45000
v -1.45000 17.45000 -1.45000
v -1.45000 16.95000 1.45000
v 1.45000 16.95000 1.45000
v 1.45000 17.45000 1.45000
v -1.45000 17.45000 1.45000
v 2.60000 17.45000 0.00000
v 2.25167 17.45000 1.30000
v 1.40000 18.50000 0.00000
v 1.21244 18.50000 0.70000
v 0.00000 19.60000 0.00000
v 0.00000 19.60000 0.00000
v 2.25167 17.45000 1.30000
v 1.30000 17.45000 2.25167
v 1.21244 18.50000 0.70000
v 0.70000 18.50000 1.21244
v 0.00000 19.60000 0.00000
v 0.00000 19.60000 0.00000
v 1.30000 17.45000 2.25167
v 0.00000 17.45000 2.60000
v 0.70000 18.50000 1.21244
v 0.00000 18.50000 1.40000
v 0.00000 19.60000 0.00000
v 0.00000 19.60000 0.00000
v 0.00000 17.45000 2.60000
v -1.30000 17.45000 2.25167
v 0.00000 18.50000 1.40000
v -0.70000 18.50000 1.21244
v 0.00000 19.60000 0.00000
v -0.00000 19.60000 0.00000
v -1.30000 17.45000 2.25167
v -2.25167 17.45000 1.30000
v -0.70000 18.50000 1.21244
v -1.21244 18.50000 0.70000
v -0.00000 19.60000 0.00000
v -0.00000 19.60000 0.00000
v -2.25167 17.45000 1.30000
v -2.60000 17.45000 0.00000
v -1.21244 18.50000 0.70000
v -1.40000 18.50000 0.00000
v -0.00000 19.60000 0.00000
v -0.00000 19.60000 0.00000
v -2.60000 17.45000 0.00000
v -2.25167 17.45000 -1.30000
v -1.40000 18.50000 0.00000
v -1.21244 18.50000 -0.70000
v -0.00000 19.60000 0.00000
v -0.00000 19.60000 -0.00000
v -2.25167 17.45000 -1.30000
v -1.30000 17.45000 -2.25167
v -1.21244 18.50000 -0.70000
v -0.70000 18.50000 -1.21244
v -0.00000 19.60000 -0.00000
v -0.00000 19.60000 -0.00000
v -1.30000 17.45000 -2.25167
v -0.00000 17.45000 -2.60000
v -0.70000 18.50000 -1.21244
v -0.00000 18.50000 -1.40000
v -0.00000 19.60000 -0.00000
v -0.00000 19.60000 -0.00000
v -0.00000 17.45000 -2.60000
v 1.30000 17.45000 -2.25167
v -0.00000 18.50000 -1.40000
v 0.70000 18.50000 -1.21244
v -0.00000 19.60000 -0.00000
v 0.00000 19.60000 -0.00000
v 1.30000 17.45000 -2.25167
v 2.25167 17.45000 -1.30000
v 0.70000 18.50000 -1.21244
v 1.21244 18.50000 -0.70000
v 0.00000 19.60000 -0.00000
v 0.00000 19.60000 -0.00000
v 2.25167 17.45000 -1.30000
v 2.60000 17.45000 -0.00000
v 1.21244 18.50000 -0.70000
v 1.40000 18.50000 -0.00000
v 0.00000 19.60000 -0.00000
v 0.00000 19.60000 -0.00000
v 0.00000 20.75000 -0.12000
v -0.11374 20.45654 -0.12000
v -0.42798 20.43906 -0.12000
v -0.18403 20.24021 -0.12000
v -0.26450 19.93594 -0.12000
v -0.00000 20.10650 -0.12000
v 0.26450 19.93594 -0.12000
v 0.18403 20.24021 -0.12000
v 0.42798 20.43906 -0.12000
v 0.11374 20.45654 -0.12000
v 0.00000 20.75000 0.12000
v -0.11374 20.45654 0.12000
v -0.42798 20.43906 0.12000
v -0.18403 20.24021 0.12000
v -0.26450 19.93594 0.12000
v -0.00000 20.10650 0.12000
v 0.26450 19.93594 0.12000
v 0.18403 20.24021 0.12000
v 0.42798 20.43906 0.12000
v 0.11374 20.45654 0.12000
v 0.00000 20.30000 -0.12000
v 0.00000 20.30000 0.12000
vt 0.05000 0.50000
vt 0.15000 0.50000
vt 0.25000 0.50000
vt 0.35000 0.50000
vt 0.45000 0.50000
vt 0.55000 0.50000
vt 0.65000 0.50000
vt 0.75000 0.50000
vt 0.85000 0.50000
vt 0.95000 0.50000
usemtl cream
f 2/1 4/1 3/1 1/1
f 1/1 3/1 81/1
f 4/1 2/1 82/1
f 4/1 6/1 5/1 3/1
f 3/1 5/1 81/1
f 6/1 4/1 82/1
f 6/1 8/1 7/1 5/1
f 5/1 7/1 81/1
f 8/1 6/1 82/1
f 8/1 10/1 9/1 7/1
f 7/1 9/1 81/1
f 10/1 8/1 82/1
f 10/1 12/1 11/1 9/1
f 9/1 11/1 81/1
f 12/1 10/1 82/1
f 12/1 14/1 13/1 11/1
f 11/1 13/1 81/1
f 14/1 12/1 82/1
f 14/1 16/1 15/1 13/1
f 13/1 15/1 81/1
f 16/1 14/1 82/1
f 16/1 18/1 17/1 15/1
f 15/1 17/1 81/1
f 18/1 16/1 82/1
f 18/1 20/1 19/1 17/1
f 17/1 19/1 81/1
f 20/1 18/1 82/1
f 20/1 22/1 21/1 19/1
f 19/1 21/1 81/1
f 22/1 20/1 82/1
f 22/1 24/1 23/1 21/1
f 21/1 23/1 81/1
f 24/1 22/1 82/1
f 24/1 26/1 25/1 23/1
f 23/1 25/1 81/1
f 26/1 24/1 82/1
f 26/1 28/1 27/1 25/1
f 25/1 27/1 81/1
f 28/1 26/1 82/1
f 28/1 30/1 29/1 27/1
f 27/1 29/1 81/1
f 30/1 28/1 82/1
f 30/1 32/1 31/1 29/1
f 29/1 31/1 81/1
f 32/1 30/1 82/1
f 32/1 34/1 33/1 31/1
f 31/1 33/1 81/1
f 34/1 32/1 82/1
f 34/1 36/1 35/1 33/1
f 33/1 35/1 81/1
f 36/1 34/1 82/1
f 36/1 38/1 37/1 35/1
f 35/1 37/1 81/1
f 38/1 36/1 82/1
f 38/1 40/1 39/1 37/1
f 37/1 39/1 81/1
f 40/1 38/1 82/1
f 40/1 42/1 41/1 39/1
f 39/1 41/1 81/1
f 42/1 40/1 82/1
f 42/1 44/1 43/1 41/1
f 41/1 43/1 81/1
f 44/1 42/1 82/1
f 44/1 46/1 45/1 43/1
f 43/1 45/1 81/1
f 46/1 44/1 82/1
f 46/1 48/1 47/1 45/1
f 45/1 47/1 81/1
f 48/1 46/1 82/1
f 48/1 50/1 49/1 47/1
f 47/1 49/1 81/1
f 50/1 48/1 82/1
f 50/1 52/1 51/1 49/1
f 49/1 51/1 81/1
f 52/1 50/1 82/1
f 52/1 54/1 53/1 51/1
f 51/1 53/1 81/1
f 54/1 52/1 82/1
f 54/1 56/1 55/1 53/1
f 53/1 55/1 81/1
f 56/1 54/1 82/1
f 56/1 58/1 57/1 55/1
f 55/1 57/1 81/1
f 58/1 56/1 82/1
f 58/1 60/1 59/1 57/1
f 57/1 59/1 81/1
f 60/1 58/1 82/1
f 60/1 62/1 61/1 59/1
f 59/1 61/1 81/1
f 62/1 60/1 82/1
f 62/1 64/1 63/1 61/1
f 61/1 63/1 81/1
f 64/1 62/1 82/1
f 64/1 66/1 65/1 63/1
f 63/1 65/1 81/1
f 66/1 64/1 82/1
f 66/1 68/1 67/1 65/1
f 65/1 67/1 81/1
f 68/1 66/1 82/1
f 68/1 70/1 69/1 67/1
f 67/1 69/1 81/1
f 70/1 68/1 82/1
f 70/1 72/1 71/1 69/1
f 69/1 71/1 81/1
f 72/1 70/1 82/1
f 72/1 74/1 73/1 71/1
f 71/1 73/1 81/1
f 74/1 72/1 82/1
f 74/1 76/1 75/1 73/1
f 73/1 75/1 81/1
f 76/1 74/1 82/1
f 76/1 78/1 77/1 75/1
f 75/1 77/1 81/1
f 78/1 76/1 82/1
f 78/1 80/1 79/1 77/1
f 77/1 79/1 81/1
f 80/1 78/1 82/1
f 80/1 2/1 1/1 79/1
f 79/1 1/1 81/1
f 2/1 80/1 82/1
f 405/1 406/1 417/1
f 412/1 411/1 418/1
f 406/1 407/1 417/1
f 413/1 412/1 418/1
f 407/1 408/1 417/1
f 414/1 413/1 418/1
f 408/1 409/1 417/1
f 415/1 414/1 418/1
f 409/1 410/1 417/1
f 416/1 415/1 418/1
f 410/1 405/1 417/1
f 411/1 416/1 418/1
f 411/1 412/1 406/1 405/1
f 412/1 413/1 407/1 406/1
f 413/1 414/1 408/1 407/1
f 414/1 415/1 409/1 408/1
f 415/1 416/1 410/1 409/1
f 416/1 411/1 405/1 410/1
f 433/1 434/1 445/1
f 440/1 439/1 446/1
f 434/1 435/1 445/1
f 441/1 440/1 446/1
f 435/1 436/1 445/1
f 442/1 441/1 446/1
f 436/1 437/1 445/1
f 443/1 442/1 446/1
f 437/1 438/1 445/1
f 444/1 443/1 446/1
f 438/1 433/1 445/1
f 439/1 444/1 446/1
f 439/1 440/1 434/1 433/1
f 440/1 441/1 435/1 434/1
f 441/1 442/1 436/1 435/1
f 442/1 443/1 437/1 436/1
f 443/1 444/1 438/1 437/1
f 444/1 439/1 433/1 438/1
f 461/1 462/1 473/1
f 468/1 467/1 474/1
f 462/1 463/1 473/1
f 469/1 468/1 474/1
f 463/1 464/1 473/1
f 470/1 469/1 474/1
f 464/1 465/1 473/1
f 471/1 470/1 474/1
f 465/1 466/1 473/1
f 472/1 471/1 474/1
f 466/1 461/1 473/1
f 467/1 472/1 474/1
f 467/1 468/1 462/1 461/1
f 468/1 469/1 463/1 462/1
f 469/1 470/1 464/1 463/1
f 470/1 471/1 465/1 464/1
f 471/1 472/1 466/1 465/1
f 472/1 467/1 461/1 466/1
f 489/1 490/1 501/1
f 496/1 495/1 502/1
f 490/1 491/1 501/1
f 497/1 496/1 502/1
f 491/1 492/1 501/1
f 498/1 497/1 502/1
f 492/1 493/1 501/1
f 499/1 498/1 502/1
f 493/1 494/1 501/1
f 500/1 499/1 502/1
f 494/1 489/1 501/1
f 495/1 500/1 502/1
f 495/1 496/1 490/1 489/1
f 496/1 497/1 491/1 490/1
f 497/1 498/1 492/1 491/1
f 498/1 499/1 493/1 492/1
f 499/1 500/1 494/1 493/1
f 500/1 495/1 489/1 494/1
f 517/1 518/1 529/1
f 524/1 523/1 530/1
f 518/1 519/1 529/1
f 525/1 524/1 530/1
f 519/1 520/1 529/1
f 526/1 525/1 530/1
f 520/1 521/1 529/1
f 527/1 526/1 530/1
f 521/1 522/1 529/1
f 528/1 527/1 530/1
f 522/1 517/1 529/1
f 523/1 528/1 530/1
f 523/1 524/1 518/1 517/1
f 524/1 525/1 519/1 518/1
f 525/1 526/1 520/1 519/1
f 526/1 527/1 521/1 520/1
f 527/1 528/1 522/1 521/1
f 528/1 523/1 517/1 522/1
f 545/1 546/1 557/1
f 552/1 551/1 558/1
f 546/1 547/1 557/1
f 553/1 552/1 558/1
f 547/1 548/1 557/1
f 554/1 553/1 558/1
f 548/1 549/1 557/1
f 555/1 554/1 558/1
f 549/1 550/1 557/1
f 556/1 555/1 558/1
f 550/1 545/1 557/1
f 551/1 556/1 558/1
f 551/1 552/1 546/1 545/1
f 552/1 553/1 547/1 546/1
f 553/1 554/1 548/1 547/1
f 554/1 555/1 549/1 548/1
f 555/1 556/1 550/1 549/1
f 556/1 551/1 545/1 550/1
f 573/1 574/1 585/1
f 580/1 579/1 586/1
f 574/1 575/1 585/1
f 581/1 580/1 586/1
f 575/1 576/1 585/1
f 582/1 581/1 586/1
f 576/1 577/1 585/1
f 583/1 582/1 586/1
f 577/1 578/1 585/1
f 584/1 583/1 586/1
f 578/1 573/1 585/1
f 579/1 584/1 586/1
f 579/1 580/1 574/1 573/1
f 580/1 581/1 575/1 574/1
f 581/1 582/1 576/1 575/1
f 582/1 583/1 577/1 576/1
f 583/1 584/1 578/1 577/1
f 584/1 579/1 573/1 578/1
f 619/1 620/1 628/1 627/1
f 635/1 620/1 619/1
f 636/1 627/1 628/1
f 620/1 621/1 629/1 628/1
f 635/1 621/1 620/1
f 636/1 628/1 629/1
f 621/1 622/1 630/1 629/1
f 635/1 622/1 621/1
f 636/1 629/1 630/1
f 622/1 623/1 631/1 630/1
f 635/1 623/1 622/1
f 636/1 630/1 631/1
f 623/1 624/1 632/1 631/1
f 635/1 624/1 623/1
f 636/1 631/1 632/1
f 624/1 625/1 633/1 632/1
f 635/1 625/1 624/1
f 636/1 632/1 633/1
f 625/1 626/1 634/1 633/1
f 635/1 626/1 625/1
f 636/1 633/1 634/1
f 626/1 619/1 627/1 634/1
f 635/1 619/1 626/1
f 636/1 634/1 627/1
f 637/1 638/1 646/1 645/1
f 653/1 638/1 637/1
f 654/1 645/1 646/1
f 638/1 639/1 647/1 646/1
f 653/1 639/1 638/1
f 654/1 646/1 647/1
f 639/1 640/1 648/1 647/1
f 653/1 640/1 639/1
f 654/1 647/1 648/1
f 640/1 641/1 649/1 648/1
f 653/1 641/1 640/1
f 654/1 648/1 649/1
f 641/1 642/1 650/1 649/1
f 653/1 642/1 641/1
f 654/1 649/1 650/1
f 642/1 643/1 651/1 650/1
f 653/1 643/1 642/1
f 654/1 650/1 651/1
f 643/1 644/1 652/1 651/1
f 653/1 644/1 643/1
f 654/1 651/1 652/1
f 644/1 637/1 645/1 652/1
f 653/1 637/1 644/1
f 654/1 652/1 645/1
f 673/1 674/1 679/1 678/1
f 683/1 674/1 673/1
f 684/1 678/1 679/1
f 674/1 675/1 680/1 679/1
f 683/1 675/1 674/1
f 684/1 679/1 680/1
f 675/1 676/1 681/1 680/1
f 683/1 676/1 675/1
f 684/1 680/1 681/1
f 676/1 677/1 682/1 681/1
f 683/1 677/1 676/1
f 684/1 681/1 682/1
f 677/1 673/1 678/1 682/1
f 683/1 673/1 677/1
f 684/1 682/1 678/1
f 685/1 686/1 691/1 690/1
f 695/1 686/1 685/1
f 696/1 690/1 691/1
f 686/1 687/1 692/1 691/1
f 695/1 687/1 686/1
f 696/1 691/1 692/1
f 687/1 688/1 693/1 692/1
f 695/1 688/1 687/1
f 696/1 692/1 693/1
f 688/1 689/1 694/1 693/1
f 695/1 689/1 688/1
f 696/1 693/1 694/1
f 689/1 685/1 690/1 694/1
f 695/1 685/1 689/1
f 696/1 694/1 690/1
f 697/1 698/1 703/1 702/1
f 707/1 698/1 697/1
f 708/1 702/1 703/1
f 698/1 699/1 704/1 703/1
f 707/1 699/1 698/1
f 708/1 703/1 704/1
f 699/1 700/1 705/1 704/1
f 707/1 700/1 699/1
f 708/1 704/1 705/1
f 700/1 701/1 706/1 705/1
f 707/1 701/1 700/1
f 708/1 705/1 706/1
f 701/1 697/1 702/1 706/1
f 707/1 697/1 701/1
f 708/1 706/1 702/1
f 709/1 710/1 715/1 714/1
f 719/1 710/1 709/1
f 720/1 714/1 715/1
f 710/1 711/1 716/1 715/1
f 719/1 711/1 710/1
f 720/1 715/1 716/1
f 711/1 712/1 717/1 716/1
f 719/1 712/1 711/1
f 720/1 716/1 717/1
f 712/1 713/1 718/1 717/1
f 719/1 713/1 712/1
f 720/1 717/1 718/1
f 713/1 709/1 714/1 718/1
f 719/1 709/1 713/1
f 720/1 718/1 714/1
f 769/1 770/1 775/1 774/1
f 779/1 770/1 769/1
f 780/1 774/1 775/1
f 770/1 771/1 776/1 775/1
f 779/1 771/1 770/1
f 780/1 775/1 776/1
f 771/1 772/1 777/1 776/1
f 779/1 772/1 771/1
f 780/1 776/1 777/1
f 772/1 773/1 778/1 777/1
f 779/1 773/1 772/1
f 780/1 777/1 778/1
f 773/1 769/1 774/1 778/1
f 779/1 769/1 773/1
f 780/1 778/1 774/1
f 781/1 782/1 787/1 786/1
f 791/1 782/1 781/1
f 792/1 786/1 787/1
f 782/1 783/1 788/1 787/1
f 791/1 783/1 782/1
f 792/1 787/1 788/1
f 783/1 784/1 789/1 788/1
f 791/1 784/1 783/1
f 792/1 788/1 789/1
f 784/1 785/1 790/1 789/1
f 791/1 785/1 784/1
f 792/1 789/1 790/1
f 785/1 781/1 786/1 790/1
f 791/1 781/1 785/1
f 792/1 790/1 786/1
f 793/1 794/1 799/1 798/1
f 803/1 794/1 793/1
f 804/1 798/1 799/1
f 794/1 795/1 800/1 799/1
f 803/1 795/1 794/1
f 804/1 799/1 800/1
f 795/1 796/1 801/1 800/1
f 803/1 796/1 795/1
f 804/1 800/1 801/1
f 796/1 797/1 802/1 801/1
f 803/1 797/1 796/1
f 804/1 801/1 802/1
f 797/1 793/1 798/1 802/1
f 803/1 793/1 797/1
f 804/1 802/1 798/1
f 805/1 806/1 811/1 810/1
f 815/1 806/1 805/1
f 816/1 810/1 811/1
f 806/1 807/1 812/1 811/1
f 815/1 807/1 806/1
f 816/1 811/1 812/1
f 807/1 808/1 813/1 812/1
f 815/1 808/1 807/1
f 816/1 812/1 813/1
f 808/1 809/1 814/1 813/1
f 815/1 809/1 808/1
f 816/1 813/1 814/1
f 809/1 805/1 810/1 814/1
f 815/1 805/1 809/1
f 816/1 814/1 810/1
f 865/1 866/1 871/1 870/1
f 875/1 866/1 865/1
f 876/1 870/1 871/1
f 866/1 867/1 872/1 871/1
f 875/1 867/1 866/1
f 876/1 871/1 872/1
f 867/1 868/1 873/1 872/1
f 875/1 868/1 867/1
f 876/1 872/1 873/1
f 868/1 869/1 874/1 873/1
f 875/1 869/1 868/1
f 876/1 873/1 874/1
f 869/1 865/1 870/1 874/1
f 875/1 865/1 869/1
f 876/1 874/1 870/1
f 877/1 878/1 883/1 882/1
f 887/1 878/1 877/1
f 888/1 882/1 883/1
f 878/1 879/1 884/1 883/1
f 887/1 879/1 878/1
f 888/1 883/1 884/1
f 879/1 880/1 885/1 884/1
f 887/1 880/1 879/1
f 888/1 884/1 885/1
f 880/1 881/1 886/1 885/1
f 887/1 881/1 880/1
f 888/1 885/1 886/1
f 881/1 877/1 882/1 886/1
f 887/1 877/1 881/1
f 888/1 886/1 882/1
f 889/1 890/1 895/1 894/1
f 899/1 890/1 889/1
f 900/1 894/1 895/1
f 890/1 891/1 896/1 895/1
f 899/1 891/1 890/1
f 900/1 895/1 896/1
f 891/1 892/1 897/1 896/1
f 899/1 892/1 891/1
f 900/1 896/1 897/1
f 892/1 893/1 898/1 897/1
f 899/1 893/1 892/1
f 900/1 897/1 898/1
f 893/1 889/1 894/1 898/1
f 899/1 889/1 893/1
f 900/1 898/1 894/1
f 901/1 902/1 907/1 906/1
f 911/1 902/1 901/1
f 912/1 906/1 907/1
f 902/1 903/1 908/1 907/1
f 911/1 903/1 902/1
f 912/1 907/1 908/1
f 903/1 904/1 909/1 908/1
f 911/1 904/1 903/1
f 912/1 908/1 909/1
f 904/1 905/1 910/1 909/1
f 911/1 905/1 904/1
f 912/1 909/1 910/1
f 905/1 901/1 906/1 910/1
f 911/1 901/1 905/1
f 912/1 910/1 906/1
f 913/1 914/1 919/1 918/1
f 923/1 914/1 913/1
f 924/1 918/1 919/1
f 914/1 915/1 920/1 919/1
f 923/1 915/1 914/1
f 924/1 919/1 920/1
f 915/1 916/1 921/1 920/1
f 923/1 916/1 915/1
f 924/1 920/1 921/1
f 916/1 917/1 922/1 921/1
f 923/1 917/1 916/1
f 924/1 921/1 922/1
f 917/1 913/1 918/1 922/1
f 923/1 913/1 917/1
f 924/1 922/1 918/1
f 925/1 926/1 931/1 930/1
f 935/1 926/1 925/1
f 936/1 930/1 931/1
f 926/1 927/1 932/1 931/1
f 935/1 927/1 926/1
f 936/1 931/1 932/1
f 927/1 928/1 933/1 932/1
f 935/1 928/1 927/1
f 936/1 932/1 933/1
f 928/1 929/1 934/1 933/1
f 935/1 929/1 928/1
f 936/1 933/1 934/1
f 929/1 925/1 930/1 934/1
f 935/1 925/1 929/1
f 936/1 934/1 930/1
f 937/1 938/1 943/1 942/1
f 947/1 938/1 937/1
f 948/1 942/1 943/1
f 938/1 939/1 944/1 943/1
f 947/1 939/1 938/1
f 948/1 943/1 944/1
f 939/1 940/1 945/1 944/1
f 947/1 940/1 939/1
f 948/1 944/1 945/1
f 940/1 941/1 946/1 945/1
f 947/1 941/1 940/1
f 948/1 945/1 946/1
f 941/1 937/1 942/1 946/1
f 947/1 937/1 941/1
f 948/1 946/1 942/1
f 949/1 950/1 955/1 954/1
f 959/1 950/1 949/1
f 960/1 954/1 955/1
f 950/1 951/1 956/1 955/1
f 959/1 951/1 950/1
f 960/1 955/1 956/1
f 951/1 952/1 957/1 956/1
f 959/1 952/1 951/1
f 960/1 956/1 957/1
f 952/1 953/1 958/1 957/1
f 959/1 953/1 952/1
f 960/1 957/1 958/1
f 953/1 949/1 954/1 958/1
f 959/1 949/1 953/1
f 960/1 958/1 954/1
f 1009/1 1010/1 1015/1 1014/1
f 1019/1 1010/1 1009/1
f 1020/1 1014/1 1015/1
f 1010/1 1011/1 1016/1 1015/1
f 1019/1 1011/1 1010/1
f 1020/1 1015/1 1016/1
f 1011/1 1012/1 1017/1 1016/1
f 1019/1 1012/1 1011/1
f 1020/1 1016/1 1017/1
f 1012/1 1013/1 1018/1 1017/1
f 1019/1 1013/1 1012/1
f 1020/1 1017/1 1018/1
f 1013/1 1009/1 1014/1 1018/1
f 1019/1 1009/1 1013/1
f 1020/1 1018/1 1014/1
f 1021/1 1022/1 1027/1 1026/1
f 1031/1 1022/1 1021/1
f 1032/1 1026/1 1027/1
f 1022/1 1023/1 1028/1 1027/1
f 1031/1 1023/1 1022/1
f 1032/1 1027/1 1028/1
f 1023/1 1024/1 1029/1 1028/1
f 1031/1 1024/1 1023/1
f 1032/1 1028/1 1029/1
f 1024/1 1025/1 1030/1 1029/1
f 1031/1 1025/1 1024/1
f 1032/1 1029/1 1030/1
f 1025/1 1021/1 1026/1 1030/1
f 1031/1 1021/1 1025/1
f 1032/1 1030/1 1026/1
f 1033/1 1034/1 1039/1 1038/1
f 1043/1 1034/1 1033/1
f 1044/1 1038/1 1039/1
f 1034/1 1035/1 1040/1 1039/1
f 1043/1 1035/1 1034/1
f 1044/1 1039/1 1040/1
f 1035/1 1036/1 1041/1 1040/1
f 1043/1 1036/1 1035/1
f 1044/1 1040/1 1041/1
f 1036/1 1037/1 1042/1 1041/1
f 1043/1 1037/1 1036/1
f 1044/1 1041/1 1042/1
f 1037/1 1033/1 1038/1 1042/1
f 1043/1 1033/1 1037/1
f 1044/1 1042/1 1038/1
f 1045/1 1046/1 1051/1 1050/1
f 1055/1 1046/1 1045/1
f 1056/1 1050/1 1051/1
f 1046/1 1047/1 1052/1 1051/1
f 1055/1 1047/1 1046/1
f 1056/1 1051/1 1052/1
f 1047/1 1048/1 1053/1 1052/1
f 1055/1 1048/1 1047/1
f 1056/1 1052/1 1053/1
f 1048/1 1049/1 1054/1 1053/1
f 1055/1 1049/1 1048/1
f 1056/1 1053/1 1054/1
f 1049/1 1045/1 1050/1 1054/1
f 1055/1 1045/1 1049/1
f 1056/1 1054/1 1050/1
f 1105/1 1106/1 1111/1 1110/1
f 1115/1 1106/1 1105/1
f 1116/1 1110/1 1111/1
f 1106/1 1107/1 1112/1 1111/1
f 1115/1 1107/1 1106/1
f 1116/1 1111/1 1112/1
f 1107/1 1108/1 1113/1 1112/1
f 1115/1 1108/1 1107/1
f 1116/1 1112/1 1113/1
f 1108/1 1109/1 1114/1 1113/1
f 1115/1 1109/1 1108/1
f 1116/1 1113/1 1114/1
f 1109/1 1105/1 1110/1 1114/1
f 1115/1 1105/1 1109/1
f 1116/1 1114/1 1110/1
f 1117/1 1118/1 1123/1 1122/1
f 1127/1 1118/1 1117/1
f 1128/1 1122/1 1123/1
f 1118/1 1119/1 1124/1 1123/1
f 1127/1 1119/1 1118/1
f 1128/1 1123/1 1124/1
f 1119/1 1120/1 1125/1 1124/1
f 1127/1 1120/1 1119/1
f 1128/1 1124/1 1125/1
f 1120/1 1121/1 1126/1 1125/1
f 1127/1 1121/1 1120/1
f 1128/1 1125/1 1126/1
f 1121/1 1117/1 1122/1 1126/1
f 1127/1 1117/1 1121/1
f 1128/1 1126/1 1122/1
f 1129/1 1130/1 1135/1 1134/1
f 1139/1 1130/1 1129/1
f 1140/1 1134/1 1135/1
f 1130/1 1131/1 1136/1 1135/1
f 1139/1 1131/1 1130/1
f 1140/1 1135/1 1136/1
f 1131/1 1132/1 1137/1 1136/1
f 1139/1 1132/1 1131/1
f 1140/1 1136/1 1137/1
f 1132/1 1133/1 1138/1 1137/1
f 1139/1 1133/1 1132/1
f 1140/1 1137/1 1138/1
f 1133/1 1129/1 1134/1 1138/1
f 1139/1 1129/1 1133/1
f 1140/1 1138/1 1134/1
f 1141/1 1142/1 1147/1 1146/1
f 1151/1 1142/1 1141/1
f 1152/1 1146/1 1147/1
f 1142/1 1143/1 1148/1 1147/1
f 1151/1 1143/1 1142/1
f 1152/1 1147/1 1148/1
f 1143/1 1144/1 1149/1 1148/1
f 1151/1 1144/1 1143/1
f 1152/1 1148/1 1149/1
f 1144/1 1145/1 1150/1 1149/1
f 1151/1 1145/1 1144/1
f 1152/1 1149/1 1150/1
f 1145/1 1141/1 1146/1 1150/1
f 1151/1 1141/1 1145/1
f 1152/1 1150/1 1146/1
f 1169/1 1170/1 1168/1 1167/1
f 1167/1 1168/1 1170/1 1169/1
f 1171/1 1172/1 1170/1 1169/1
f 1169/1 1170/1 1172/1 1171/1
f 1181/1 1182/1 1180/1 1179/1
f 1179/1 1180/1 1182/1 1181/1
f 1183/1 1184/1 1182/1 1181/1
f 1181/1 1182/1 1184/1 1183/1
f 1193/1 1194/1 1192/1 1191/1
f 1191/1 1192/1 1194/1 1193/1
f 1195/1 1196/1 1194/1 1193/1
f 1193/1 1194/1 1196/1 1195/1
f 1205/1 1206/1 1204/1 1203/1
f 1203/1 1204/1 1206/1 1205/1
f 1207/1 1208/1 1206/1 1205/1
f 1205/1 1206/1 1208/1 1207/1
f 1217/1 1218/1 1216/1 1215/1
f 1215/1 1216/1 1218/1 1217/1
f 1219/1 1220/1 1218/1 1217/1
f 1217/1 1218/1 1220/1 1219/1
f 1229/1 1230/1 1228/1 1227/1
f 1227/1 1228/1 1230/1 1229/1
f 1231/1 1232/1 1230/1 1229/1
f 1229/1 1230/1 1232/1 1231/1
usemtl coral
f 84/2 86/2 85/2 83/2
f 83/2 85/2 163/2
f 86/2 84/2 164/2
f 86/2 88/2 87/2 85/2
f 85/2 87/2 163/2
f 88/2 86/2 164/2
f 88/2 90/2 89/2 87/2
f 87/2 89/2 163/2
f 90/2 88/2 164/2
f 90/2 92/2 91/2 89/2
f 89/2 91/2 163/2
f 92/2 90/2 164/2
f 92/2 94/2 93/2 91/2
f 91/2 93/2 163/2
f 94/2 92/2 164/2
f 94/2 96/2 95/2 93/2
f 93/2 95/2 163/2
f 96/2 94/2 164/2
f 96/2 98/2 97/2 95/2
f 95/2 97/2 163/2
f 98/2 96/2 164/2
f 98/2 100/2 99/2 97/2
f 97/2 99/2 163/2
f 100/2 98/2 164/2
f 100/2 102/2 101/2 99/2
f 99/2 101/2 163/2
f 102/2 100/2 164/2
f 102/2 104/2 103/2 101/2
f 101/2 103/2 163/2
f 104/2 102/2 164/2
f 104/2 106/2 105/2 103/2
f 103/2 105/2 163/2
f 106/2 104/2 164/2
f 106/2 108/2 107/2 105/2
f 105/2 107/2 163/2
f 108/2 106/2 164/2
f 108/2 110/2 109/2 107/2
f 107/2 109/2 163/2
f 110/2 108/2 164/2
f 110/2 112/2 111/2 109/2
f 109/2 111/2 163/2
f 112/2 110/2 164/2
f 112/2 114/2 113/2 111/2
f 111/2 113/2 163/2
f 114/2 112/2 164/2
f 114/2 116/2 115/2 113/2
f 113/2 115/2 163/2
f 116/2 114/2 164/2
f 116/2 118/2 117/2 115/2
f 115/2 117/2 163/2
f 118/2 116/2 164/2
f 118/2 120/2 119/2 117/2
f 117/2 119/2 163/2
f 120/2 118/2 164/2
f 120/2 122/2 121/2 119/2
f 119/2 121/2 163/2
f 122/2 120/2 164/2
f 122/2 124/2 123/2 121/2
f 121/2 123/2 163/2
f 124/2 122/2 164/2
f 124/2 126/2 125/2 123/2
f 123/2 125/2 163/2
f 126/2 124/2 164/2
f 126/2 128/2 127/2 125/2
f 125/2 127/2 163/2
f 128/2 126/2 164/2
f 128/2 130/2 129/2 127/2
f 127/2 129/2 163/2
f 130/2 128/2 164/2
f 130/2 132/2 131/2 129/2
f 129/2 131/2 163/2
f 132/2 130/2 164/2
f 132/2 134/2 133/2 131/2
f 131/2 133/2 163/2
f 134/2 132/2 164/2
f 134/2 136/2 135/2 133/2
f 133/2 135/2 163/2
f 136/2 134/2 164/2
f 136/2 138/2 137/2 135/2
f 135/2 137/2 163/2
f 138/2 136/2 164/2
f 138/2 140/2 139/2 137/2
f 137/2 139/2 163/2
f 140/2 138/2 164/2
f 140/2 142/2 141/2 139/2
f 139/2 141/2 163/2
f 142/2 140/2 164/2
f 142/2 144/2 143/2 141/2
f 141/2 143/2 163/2
f 144/2 142/2 164/2
f 144/2 146/2 145/2 143/2
f 143/2 145/2 163/2
f 146/2 144/2 164/2
f 146/2 148/2 147/2 145/2
f 145/2 147/2 163/2
f 148/2 146/2 164/2
f 148/2 150/2 149/2 147/2
f 147/2 149/2 163/2
f 150/2 148/2 164/2
f 150/2 152/2 151/2 149/2
f 149/2 151/2 163/2
f 152/2 150/2 164/2
f 152/2 154/2 153/2 151/2
f 151/2 153/2 163/2
f 154/2 152/2 164/2
f 154/2 156/2 155/2 153/2
f 153/2 155/2 163/2
f 156/2 154/2 164/2
f 156/2 158/2 157/2 155/2
f 155/2 157/2 163/2
f 158/2 156/2 164/2
f 158/2 160/2 159/2 157/2
f 157/2 159/2 163/2
f 160/2 158/2 164/2
f 160/2 162/2 161/2 159/2
f 159/2 161/2 163/2
f 162/2 160/2 164/2
f 162/2 84/2 83/2 161/2
f 161/2 83/2 163/2
f 84/2 162/2 164/2
f 601/2 602/2 610/2 609/2
f 617/2 602/2 601/2
f 618/2 609/2 610/2
f 602/2 603/2 611/2 610/2
f 617/2 603/2 602/2
f 618/2 610/2 611/2
f 603/2 604/2 612/2 611/2
f 617/2 604/2 603/2
f 618/2 611/2 612/2
f 604/2 605/2 613/2 612/2
f 617/2 605/2 604/2
f 618/2 612/2 613/2
f 605/2 606/2 614/2 613/2
f 617/2 606/2 605/2
f 618/2 613/2 614/2
f 606/2 607/2 615/2 614/2
f 617/2 607/2 606/2
f 618/2 614/2 615/2
f 607/2 608/2 616/2 615/2
f 617/2 608/2 607/2
f 618/2 615/2 616/2
f 608/2 601/2 609/2 616/2
f 617/2 601/2 608/2
f 618/2 616/2 609/2
f 655/2 656/2 664/2 663/2
f 671/2 656/2 655/2
f 672/2 663/2 664/2
f 656/2 657/2 665/2 664/2
f 671/2 657/2 656/2
f 672/2 664/2 665/2
f 657/2 658/2 666/2 665/2
f 671/2 658/2 657/2
f 672/2 665/2 666/2
f 658/2 659/2 667/2 666/2
f 671/2 659/2 658/2
f 672/2 666/2 667/2
f 659/2 660/2 668/2 667/2
f 671/2 660/2 659/2
f 672/2 667/2 668/2
f 660/2 661/2 669/2 668/2
f 671/2 661/2 660/2
f 672/2 668/2 669/2
f 661/2 662/2 670/2 669/2
f 671/2 662/2 661/2
f 672/2 669/2 670/2
f 662/2 655/2 663/2 670/2
f 671/2 655/2 662/2
f 672/2 670/2 663/2
f 1163/2 1164/2 1162/2 1161/2
f 1161/2 1162/2 1164/2 1163/2
f 1165/2 1166/2 1164/2 1163/2
f 1163/2 1164/2 1166/2 1165/2
f 1175/2 1176/2 1174/2 1173/2
f 1173/2 1174/2 1176/2 1175/2
f 1177/2 1178/2 1176/2 1175/2
f 1175/2 1176/2 1178/2 1177/2
f 1187/2 1188/2 1186/2 1185/2
f 1185/2 1186/2 1188/2 1187/2
f 1189/2 1190/2 1188/2 1187/2
f 1187/2 1188/2 1190/2 1189/2
f 1199/2 1200/2 1198/2 1197/2
f 1197/2 1198/2 1200/2 1199/2
f 1201/2 1202/2 1200/2 1199/2
f 1199/2 1200/2 1202/2 1201/2
f 1211/2 1212/2 1210/2 1209/2
f 1209/2 1210/2 1212/2 1211/2
f 1213/2 1214/2 1212/2 1211/2
f 1211/2 1212/2 1214/2 1213/2
f 1223/2 1224/2 1222/2 1221/2
f 1221/2 1222/2 1224/2 1223/2
f 1225/2 1226/2 1224/2 1223/2
f 1223/2 1224/2 1226/2 1225/2
usemtl gold
f 165/4 166/4 172/4 171/4
f 166/4 167/4 173/4 172/4
f 167/4 168/4 174/4 173/4
f 168/4 169/4 175/4 174/4
f 169/4 170/4 176/4 175/4
f 170/4 165/4 171/4 176/4
f 171/4 172/4 178/4 177/4
f 172/4 173/4 179/4 178/4
f 173/4 174/4 180/4 179/4
f 174/4 175/4 181/4 180/4
f 175/4 176/4 182/4 181/4
f 176/4 171/4 177/4 182/4
f 177/4 178/4 184/4 183/4
f 178/4 179/4 185/4 184/4
f 179/4 180/4 186/4 185/4
f 180/4 181/4 187/4 186/4
f 181/4 182/4 188/4 187/4
f 182/4 177/4 183/4 188/4
f 183/4 184/4 190/4 189/4
f 184/4 185/4 191/4 190/4
f 185/4 186/4 192/4 191/4
f 186/4 187/4 193/4 192/4
f 187/4 188/4 194/4 193/4
f 188/4 183/4 189/4 194/4
f 189/4 190/4 196/4 195/4
f 190/4 191/4 197/4 196/4
f 191/4 192/4 198/4 197/4
f 192/4 193/4 199/4 198/4
f 193/4 194/4 200/4 199/4
f 194/4 189/4 195/4 200/4
f 195/4 196/4 202/4 201/4
f 196/4 197/4 203/4 202/4
f 197/4 198/4 204/4 203/4
f 198/4 199/4 205/4 204/4
f 199/4 200/4 206/4 205/4
f 200/4 195/4 201/4 206/4
f 201/4 202/4 208/4 207/4
f 202/4 203/4 209/4 208/4
f 203/4 204/4 210/4 209/4
f 204/4 205/4 211/4 210/4
f 205/4 206/4 212/4 211/4
f 206/4 201/4 207/4 212/4
f 207/4 208/4 214/4 213/4
f 208/4 209/4 215/4 214/4
f 209/4 210/4 216/4 215/4
f 210/4 211/4 217/4 216/4
f 211/4 212/4 218/4 217/4
f 212/4 207/4 213/4 218/4
f 213/4 214/4 220/4 219/4
f 214/4 215/4 221/4 220/4
f 215/4 216/4 222/4 221/4
f 216/4 217/4 223/4 222/4
f 217/4 218/4 224/4 223/4
f 218/4 213/4 219/4 224/4
f 219/4 220/4 226/4 225/4
f 220/4 221/4 227/4 226/4
f 221/4 222/4 228/4 227/4
f 222/4 223/4 229/4 228/4
f 223/4 224/4 230/4 229/4
f 224/4 219/4 225/4 230/4
f 225/4 226/4 232/4 231/4
f 226/4 227/4 233/4 232/4
f 227/4 228/4 234/4 233/4
f 228/4 229/4 235/4 234/4
f 229/4 230/4 236/4 235/4
f 230/4 225/4 231/4 236/4
f 231/4 232/4 238/4 237/4
f 232/4 233/4 239/4 238/4
f 233/4 234/4 240/4 239/4
f 234/4 235/4 241/4 240/4
f 235/4 236/4 242/4 241/4
f 236/4 231/4 237/4 242/4
f 237/4 238/4 244/4 243/4
f 238/4 239/4 245/4 244/4
f 239/4 240/4 246/4 245/4
f 240/4 241/4 247/4 246/4
f 241/4 242/4 248/4 247/4
f 242/4 237/4 243/4 248/4
f 243/4 244/4 250/4 249/4
f 244/4 245/4 251/4 250/4
f 245/4 246/4 252/4 251/4
f 246/4 247/4 253/4 252/4
f 247/4 248/4 254/4 253/4
f 248/4 243/4 249/4 254/4
f 249/4 250/4 256/4 255/4
f 250/4 251/4 257/4 256/4
f 251/4 252/4 258/4 257/4
f 252/4 253/4 259/4 258/4
f 253/4 254/4 260/4 259/4
f 254/4 249/4 255/4 260/4
f 255/4 256/4 262/4 261/4
f 256/4 257/4 263/4 262/4
f 257/4 258/4 264/4 263/4
f 258/4 259/4 265/4 264/4
f 259/4 260/4 266/4 265/4
f 260/4 255/4 261/4 266/4
f 261/4 262/4 268/4 267/4
f 262/4 263/4 269/4 268/4
f 263/4 264/4 270/4 269/4
f 264/4 265/4 271/4 270/4
f 265/4 266/4 272/4 271/4
f 266/4 261/4 267/4 272/4
f 267/4 268/4 274/4 273/4
f 268/4 269/4 275/4 274/4
f 269/4 270/4 276/4 275/4
f 270/4 271/4 277/4 276/4
f 271/4 272/4 278/4 277/4
f 272/4 267/4 273/4 278/4
f 273/4 274/4 280/4 279/4
f 274/4 275/4 281/4 280/4
f 275/4 276/4 282/4 281/4
f 276/4 277/4 283/4 282/4
f 277/4 278/4 284/4 283/4
f 278/4 273/4 279/4 284/4
f 279/4 280/4 286/4 285/4
f 280/4 281/4 287/4 286/4
f 281/4 282/4 288/4 287/4
f 282/4 283/4 289/4 288/4
f 283/4 284/4 290/4 289/4
f 284/4 279/4 285/4 290/4
f 285/4 286/4 292/4 291/4
f 286/4 287/4 293/4 292/4
f 287/4 288/4 294/4 293/4
f 288/4 289/4 295/4 294/4
f 289/4 290/4 296/4 295/4
f 290/4 285/4 291/4 296/4
f 291/4 292/4 298/4 297/4
f 292/4 293/4 299/4 298/4
f 293/4 294/4 300/4 299/4
f 294/4 295/4 301/4 300/4
f 295/4 296/4 302/4 301/4
f 296/4 291/4 297/4 302/4
f 297/4 298/4 304/4 303/4
f 298/4 299/4 305/4 304/4
f 299/4 300/4 306/4 305/4
f 300/4 301/4 307/4 306/4
f 301/4 302/4 308/4 307/4
f 302/4 297/4 303/4 308/4
f 303/4 304/4 310/4 309/4
f 304/4 305/4 311/4 310/4
f 305/4 306/4 312/4 311/4
f 306/4 307/4 313/4 312/4
f 307/4 308/4 314/4 313/4
f 308/4 303/4 309/4 314/4
f 309/4 310/4 316/4 315/4
f 310/4 311/4 317/4 316/4
f 311/4 312/4 318/4 317/4
f 312/4 313/4 319/4 318/4
f 313/4 314/4 320/4 319/4
f 314/4 309/4 315/4 320/4
f 315/4 316/4 322/4 321/4
f 316/4 317/4 323/4 322/4
f 317/4 318/4 324/4 323/4
f 318/4 319/4 325/4 324/4
f 319/4 320/4 326/4 325/4
f 320/4 315/4 321/4 326/4
f 321/4 322/4 328/4 327/4
f 322/4 323/4 329/4 328/4
f 323/4 324/4 330/4 329/4
f 324/4 325/4 331/4 330/4
f 325/4 326/4 332/4 331/4
f 326/4 321/4 327/4 332/4
f 327/4 328/4 334/4 333/4
f 328/4 329/4 335/4 334/4
f 329/4 330/4 336/4 335/4
f 330/4 331/4 337/4 336/4
f 331/4 332/4 338/4 337/4
f 332/4 327/4 333/4 338/4
f 333/4 334/4 340/4 339/4
f 334/4 335/4 341/4 340/4
f 335/4 336/4 342/4 341/4
f 336/4 337/4 343/4 342/4
f 337/4 338/4 344/4 343/4
f 338/4 333/4 339/4 344/4
f 339/4 340/4 346/4 345/4
f 340/4 341/4 347/4 346/4
f 341/4 342/4 348/4 347/4
f 342/4 343/4 349/4 348/4
f 343/4 344/4 350/4 349/4
f 344/4 339/4 345/4 350/4
f 345/4 346/4 352/4 351/4
f 346/4 347/4 353/4 352/4
f 347/4 348/4 354/4 353/4
f 348/4 349/4 355/4 354/4
f 349/4 350/4 356/4 355/4
f 350/4 345/4 351/4 356/4
f 351/4 352/4 358/4 357/4
f 352/4 353/4 359/4 358/4
f 353/4 354/4 360/4 359/4
f 354/4 355/4 361/4 360/4
f 355/4 356/4 362/4 361/4
f 356/4 351/4 357/4 362/4
f 357/4 358/4 364/4 363/4
f 358/4 359/4 365/4 364/4
f 359/4 360/4 366/4 365/4
f 360/4 361/4 367/4 366/4
f 361/4 362/4 368/4 367/4
f 362/4 357/4 363/4 368/4
f 363/4 364/4 370/4 369/4
f 364/4 365/4 371/4 370/4
f 365/4 366/4 372/4 371/4
f 366/4 367/4 373/4 372/4
f 367/4 368/4 374/4 373/4
f 368/4 363/4 369/4 374/4
f 369/4 370/4 376/4 375/4
f 370/4 371/4 377/4 376/4
f 371/4 372/4 378/4 377/4
f 372/4 373/4 379/4 378/4
f 373/4 374/4 380/4 379/4
f 374/4 369/4 375/4 380/4
f 375/4 376/4 382/4 381/4
f 376/4 377/4 383/4 382/4
f 377/4 378/4 384/4 383/4
f 378/4 379/4 385/4 384/4
f 379/4 380/4 386/4 385/4
f 380/4 375/4 381/4 386/4
f 381/4 382/4 388/4 387/4
f 382/4 383/4 389/4 388/4
f 383/4 384/4 390/4 389/4
f 384/4 385/4 391/4 390/4
f 385/4 386/4 392/4 391/4
f 386/4 381/4 387/4 392/4
f 387/4 388/4 394/4 393/4
f 388/4 389/4 395/4 394/4
f 389/4 390/4 396/4 395/4
f 390/4 391/4 397/4 396/4
f 391/4 392/4 398/4 397/4
f 392/4 387/4 393/4 398/4
f 393/4 394/4 400/4 399/4
f 394/4 395/4 401/4 400/4
f 395/4 396/4 402/4 401/4
f 396/4 397/4 403/4 402/4
f 397/4 398/4 404/4 403/4
f 398/4 393/4 399/4 404/4
f 399/4 400/4 166/4 165/4
f 400/4 401/4 167/4 166/4
f 401/4 402/4 168/4 167/4
f 402/4 403/4 169/4 168/4
f 403/4 404/4 170/4 169/4
f 404/4 399/4 165/4 170/4
f 419/4 420/4 431/4
f 426/4 425/4 432/4
f 420/4 421/4 431/4
f 427/4 426/4 432/4
f 421/4 422/4 431/4
f 428/4 427/4 432/4
f 422/4 423/4 431/4
f 429/4 428/4 432/4
f 423/4 424/4 431/4
f 430/4 429/4 432/4
f 424/4 419/4 431/4
f 425/4 430/4 432/4
f 425/4 426/4 420/4 419/4
f 426/4 427/4 421/4 420/4
f 427/4 428/4 422/4 421/4
f 428/4 429/4 423/4 422/4
f 429/4 430/4 424/4 423/4
f 430/4 425/4 419/4 424/4
f 447/4 448/4 459/4
f 454/4 453/4 460/4
f 448/4 449/4 459/4
f 455/4 454/4 460/4
f 449/4 450/4 459/4
f 456/4 455/4 460/4
f 450/4 451/4 459/4
f 457/4 456/4 460/4
f 451/4 452/4 459/4
f 458/4 457/4 460/4
f 452/4 447/4 459/4
f 453/4 458/4 460/4
f 453/4 454/4 448/4 447/4
f 454/4 455/4 449/4 448/4
f 455/4 456/4 450/4 449/4
f 456/4 457/4 451/4 450/4
f 457/4 458/4 452/4 451/4
f 458/4 453/4 447/4 452/4
f 475/4 476/4 487/4
f 482/4 481/4 488/4
f 476/4 477/4 487/4
f 483/4 482/4 488/4
f 477/4 478/4 487/4
f 484/4 483/4 488/4
f 478/4 479/4 487/4
f 485/4 484/4 488/4
f 479/4 480/4 487/4
f 486/4 485/4 488/4
f 480/4 475/4 487/4
f 481/4 486/4 488/4
f 481/4 482/4 476/4 475/4
f 482/4 483/4 477/4 476/4
f 483/4 484/4 478/4 477/4
f 484/4 485/4 479/4 478/4
f 485/4 486/4 480/4 479/4
f 486/4 481/4 475/4 480/4
f 503/4 504/4 515/4
f 510/4 509/4 516/4
f 504/4 505/4 515/4
f 511/4 510/4 516/4
f 505/4 506/4 515/4
f 512/4 511/4 516/4
f 506/4 507/4 515/4
f 513/4 512/4 516/4
f 507/4 508/4 515/4
f 514/4 513/4 516/4
f 508/4 503/4 515/4
f 509/4 514/4 516/4
f 509/4 510/4 504/4 503/4
f 510/4 511/4 505/4 504/4
f 511/4 512/4 506/4 505/4
f 512/4 513/4 507/4 506/4
f 513/4 514/4 508/4 507/4
f 514/4 509/4 503/4 508/4
f 531/4 532/4 543/4
f 538/4 537/4 544/4
f 532/4 533/4 543/4
f 539/4 538/4 544/4
f 533/4 534/4 543/4
f 540/4 539/4 544/4
f 534/4 535/4 543/4
f 541/4 540/4 544/4
f 535/4 536/4 543/4
f 542/4 541/4 544/4
f 536/4 531/4 543/4
f 537/4 542/4 544/4
f 537/4 538/4 532/4 531/4
f 538/4 539/4 533/4 532/4
f 539/4 540/4 534/4 533/4
f 540/4 541/4 535/4 534/4
f 541/4 542/4 536/4 535/4
f 542/4 537/4 531/4 536/4
f 559/4 560/4 571/4
f 566/4 565/4 572/4
f 560/4 561/4 571/4
f 567/4 566/4 572/4
f 561/4 562/4 571/4
f 568/4 567/4 572/4
f 562/4 563/4 571/4
f 569/4 568/4 572/4
f 563/4 564/4 571/4
f 570/4 569/4 572/4
f 564/4 559/4 571/4
f 565/4 570/4 572/4
f 565/4 566/4 560/4 559/4
f 566/4 567/4 561/4 560/4
f 567/4 568/4 562/4 561/4
f 568/4 569/4 563/4 562/4
f 569/4 570/4 564/4 563/4
f 570/4 565/4 559/4 564/4
f 587/4 588/4 599/4
f 594/4 593/4 600/4
f 588/4 589/4 599/4
f 595/4 594/4 600/4
f 589/4 590/4 599/4
f 596/4 595/4 600/4
f 590/4 591/4 599/4
f 597/4 596/4 600/4
f 591/4 592/4 599/4
f 598/4 597/4 600/4
f 592/4 587/4 599/4
f 593/4 598/4 600/4
f 593/4 594/4 588/4 587/4
f 594/4 595/4 589/4 588/4
f 595/4 596/4 590/4 589/4
f 596/4 597/4 591/4 590/4
f 597/4 598/4 592/4 591/4
f 598/4 593/4 587/4 592/4
f 721/4 722/4 727/4 726/4
f 731/4 722/4 721/4
f 732/4 726/4 727/4
f 722/4 723/4 728/4 727/4
f 731/4 723/4 722/4
f 732/4 727/4 728/4
f 723/4 724/4 729/4 728/4
f 731/4 724/4 723/4
f 732/4 728/4 729/4
f 724/4 725/4 730/4 729/4
f 731/4 725/4 724/4
f 732/4 729/4 730/4
f 725/4 721/4 726/4 730/4
f 731/4 721/4 725/4
f 732/4 730/4 726/4
f 733/4 734/4 739/4 738/4
f 743/4 734/4 733/4
f 744/4 738/4 739/4
f 734/4 735/4 740/4 739/4
f 743/4 735/4 734/4
f 744/4 739/4 740/4
f 735/4 736/4 741/4 740/4
f 743/4 736/4 735/4
f 744/4 740/4 741/4
f 736/4 737/4 742/4 741/4
f 743/4 737/4 736/4
f 744/4 741/4 742/4
f 737/4 733/4 738/4 742/4
f 743/4 733/4 737/4
f 744/4 742/4 738/4
f 745/4 746/4 751/4 750/4
f 755/4 746/4 745/4
f 756/4 750/4 751/4
f 746/4 747/4 752/4 751/4
f 755/4 747/4 746/4
f 756/4 751/4 752/4
f 747/4 748/4 753/4 752/4
f 755/4 748/4 747/4
f 756/4 752/4 753/4
f 748/4 749/4 754/4 753/4
f 755/4 749/4 748/4
f 756/4 753/4 754/4
f 749/4 745/4 750/4 754/4
f 755/4 745/4 749/4
f 756/4 754/4 750/4
f 757/4 758/4 763/4 762/4
f 767/4 758/4 757/4
f 768/4 762/4 763/4
f 758/4 759/4 764/4 763/4
f 767/4 759/4 758/4
f 768/4 763/4 764/4
f 759/4 760/4 765/4 764/4
f 767/4 760/4 759/4
f 768/4 764/4 765/4
f 760/4 761/4 766/4 765/4
f 767/4 761/4 760/4
f 768/4 765/4 766/4
f 761/4 757/4 762/4 766/4
f 767/4 757/4 761/4
f 768/4 766/4 762/4
f 817/4 818/4 823/4 822/4
f 827/4 818/4 817/4
f 828/4 822/4 823/4
f 818/4 819/4 824/4 823/4
f 827/4 819/4 818/4
f 828/4 823/4 824/4
f 819/4 820/4 825/4 824/4
f 827/4 820/4 819/4
f 828/4 824/4 825/4
f 820/4 821/4 826/4 825/4
f 827/4 821/4 820/4
f 828/4 825/4 826/4
f 821/4 817/4 822/4 826/4
f 827/4 817/4 821/4
f 828/4 826/4 822/4
f 829/4 830/4 835/4 834/4
f 839/4 830/4 829/4
f 840/4 834/4 835/4
f 830/4 831/4 836/4 835/4
f 839/4 831/4 830/4
f 840/4 835/4 836/4
f 831/4 832/4 837/4 836/4
f 839/4 832/4 831/4
f 840/4 836/4 837/4
f 832/4 833/4 838/4 837/4
f 839/4 833/4 832/4
f 840/4 837/4 838/4
f 833/4 829/4 834/4 838/4
f 839/4 829/4 833/4
f 840/4 838/4 834/4
f 841/4 842/4 847/4 846/4
f 851/4 842/4 841/4
f 852/4 846/4 847/4
f 842/4 843/4 848/4 847/4
f 851/4 843/4 842/4
f 852/4 847/4 848/4
f 843/4 844/4 849/4 848/4
f 851/4 844/4 843/4
f 852/4 848/4 849/4
f 844/4 845/4 850/4 849/4
f 851/4 845/4 844/4
f 852/4 849/4 850/4
f 845/4 841/4 846/4 850/4
f 851/4 841/4 845/4
f 852/4 850/4 846/4
f 853/4 854/4 859/4 858/4
f 863/4 854/4 853/4
f 864/4 858/4 859/4
f 854/4 855/4 860/4 859/4
f 863/4 855/4 854/4
f 864/4 859/4 860/4
f 855/4 856/4 861/4 860/4
f 863/4 856/4 855/4
f 864/4 860/4 861/4
f 856/4 857/4 862/4 861/4
f 863/4 857/4 856/4
f 864/4 861/4 862/4
f 857/4 853/4 858/4 862/4
f 863/4 853/4 857/4
f 864/4 862/4 858/4
f 961/4 962/4 967/4 966/4
f 971/4 962/4 961/4
f 972/4 966/4 967/4
f 962/4 963/4 968/4 967/4
f 971/4 963/4 962/4
f 972/4 967/4 968/4
f 963/4 964/4 969/4 968/4
f 971/4 964/4 963/4
f 972/4 968/4 969/4
f 964/4 965/4 970/4 969/4
f 971/4 965/4 964/4
f 972/4 969/4 970/4
f 965/4 961/4 966/4 970/4
f 971/4 961/4 965/4
f 972/4 970/4 966/4
f 973/4 974/4 979/4 978/4
f 983/4 974/4 973/4
f 984/4 978/4 979/4
f 974/4 975/4 980/4 979/4
f 983/4 975/4 974/4
f 984/4 979/4 980/4
f 975/4 976/4 981/4 980/4
f 983/4 976/4 975/4
f 984/4 980/4 981/4
f 976/4 977/4 982/4 981/4
f 983/4 977/4 976/4
f 984/4 981/4 982/4
f 977/4 973/4 978/4 982/4
f 983/4 973/4 977/4
f 984/4 982/4 978/4
f 985/4 986/4 991/4 990/4
f 995/4 986/4 985/4
f 996/4 990/4 991/4
f 986/4 987/4 992/4 991/4
f 995/4 987/4 986/4
f 996/4 991/4 992/4
f 987/4 988/4 993/4 992/4
f 995/4 988/4 987/4
f 996/4 992/4 993/4
f 988/4 989/4 994/4 993/4
f 995/4 989/4 988/4
f 996/4 993/4 994/4
f 989/4 985/4 990/4 994/4
f 995/4 985/4 989/4
f 996/4 994/4 990/4
f 997/4 998/4 1003/4 1002/4
f 1007/4 998/4 997/4
f 1008/4 1002/4 1003/4
f 998/4 999/4 1004/4 1003/4
f 1007/4 999/4 998/4
f 1008/4 1003/4 1004/4
f 999/4 1000/4 1005/4 1004/4
f 1007/4 1000/4 999/4
f 1008/4 1004/4 1005/4
f 1000/4 1001/4 1006/4 1005/4
f 1007/4 1001/4 1000/4
f 1008/4 1005/4 1006/4
f 1001/4 997/4 1002/4 1006/4
f 1007/4 997/4 1001/4
f 1008/4 1006/4 1002/4
f 1057/4 1058/4 1063/4 1062/4
f 1067/4 1058/4 1057/4
f 1068/4 1062/4 1063/4
f 1058/4 1059/4 1064/4 1063/4
f 1067/4 1059/4 1058/4
f 1068/4 1063/4 1064/4
f 1059/4 1060/4 1065/4 1064/4
f 1067/4 1060/4 1059/4
f 1068/4 1064/4 1065/4
f 1060/4 1061/4 1066/4 1065/4
f 1067/4 1061/4 1060/4
f 1068/4 1065/4 1066/4
f 1061/4 1057/4 1062/4 1066/4
f 1067/4 1057/4 1061/4
f 1068/4 1066/4 1062/4
f 1069/4 1070/4 1075/4 1074/4
f 1079/4 1070/4 1069/4
f 1080/4 1074/4 1075/4
f 1070/4 1071/4 1076/4 1075/4
f 1079/4 1071/4 1070/4
f 1080/4 1075/4 1076/4
f 1071/4 1072/4 1077/4 1076/4
f 1079/4 1072/4 1071/4
f 1080/4 1076/4 1077/4
f 1072/4 1073/4 1078/4 1077/4
f 1079/4 1073/4 1072/4
f 1080/4 1077/4 1078/4
f 1073/4 1069/4 1074/4 1078/4
f 1079/4 1069/4 1073/4
f 1080/4 1078/4 1074/4
f 1081/4 1082/4 1087/4 1086/4
f 1091/4 1082/4 1081/4
f 1092/4 1086/4 1087/4
f 1082/4 1083/4 1088/4 1087/4
f 1091/4 1083/4 1082/4
f 1092/4 1087/4 1088/4
f 1083/4 1084/4 1089/4 1088/4
f 1091/4 1084/4 1083/4
f 1092/4 1088/4 1089/4
f 1084/4 1085/4 1090/4 1089/4
f 1091/4 1085/4 1084/4
f 1092/4 1089/4 1090/4
f 1085/4 1081/4 1086/4 1090/4
f 1091/4 1081/4 1085/4
f 1092/4 1090/4 1086/4
f 1093/4 1094/4 1099/4 1098/4
f 1103/4 1094/4 1093/4
f 1104/4 1098/4 1099/4
f 1094/4 1095/4 1100/4 1099/4
f 1103/4 1095/4 1094/4
f 1104/4 1099/4 1100/4
f 1095/4 1096/4 1101/4 1100/4
f 1103/4 1096/4 1095/4
f 1104/4 1100/4 1101/4
f 1096/4 1097/4 1102/4 1101/4
f 1103/4 1097/4 1096/4
f 1104/4 1101/4 1102/4
f 1097/4 1093/4 1098/4 1102/4
f 1103/4 1093/4 1097/4
f 1104/4 1102/4 1098/4
f 1153/4 1156/4 1155/4 1154/4
f 1157/4 1158/4 1159/4 1160/4
f 1153/4 1157/4 1160/4 1156/4
f 1154/4 1155/4 1159/4 1158/4
f 1153/4 1154/4 1158/4 1157/4
f 1156/4 1160/4 1159/4 1155/4
f 1234/4 1233/4 1253/4
f 1243/4 1244/4 1254/4
f 1234/4 1244/4 1243/4 1233/4
f 1235/4 1234/4 1253/4
f 1244/4 1245/4 1254/4
f 1235/4 1245/4 1244/4 1234/4
f 1236/4 1235/4 1253/4
f 1245/4 1246/4 1254/4
f 1236/4 1246/4 1245/4 1235/4
f 1237/4 1236/4 1253/4
f 1246/4 1247/4 1254/4
f 1237/4 1247/4 1246/4 1236/4
f 1238/4 1237/4 1253/4
f 1247/4 1248/4 1254/4
f 1238/4 1248/4 1247/4 1237/4
f 1239/4 1238/4 1253/4
f 1248/4 1249/4 1254/4
f 1239/4 1249/4 1248/4 1238/4
f 1240/4 1239/4 1253/4
f 1249/4 1250/4 1254/4
f 1240/4 1250/4 1249/4 1239/4
f 1241/4 1240/4 1253/4
f 1250/4 1251/4 1254/4
f 1241/4 1251/4 1250/4 1240/4
f 1242/4 1241/4 1253/4
f 1251/4 1252/4 1254/4
f 1242/4 1252/4 1251/4 1241/4
f 1233/4 1242/4 1253/4
f 1252/4 1243/4 1254/4
f 1233/4 1243/4 1252/4 1242/4
